<svg xmlns="http://www.w3.org/2000/svg" xmlns:xlink="http://www.w3.org/1999/xlink" width="2921.223" height="1784.874" viewBox="0 0 2921.223 1784.874">
  <defs>
    <clipPath id="clip-path">
      <path id="Path_406" data-name="Path 406" d="M0,0H2919V344H0Z" transform="translate(338 204)" fill="#252c30"/>
    </clipPath>
  </defs>
  <g id="Group_193" data-name="Group 193" transform="translate(9908.5 2489.971)">
    <g id="Group_192" data-name="Group 192" transform="translate(-10638.5 -2659.471)">
      <g id="Mask_Group_2" data-name="Mask Group 2" transform="translate(392.889 -34)" clip-path="url(#clip-path)">
        <g id="Group_29" data-name="Group 29" transform="translate(337 203.004)" opacity="0.5">
          <g id="Group_27" data-name="Group 27">
            <path id="Path_392" data-name="Path 392" d="M2242.94,164.147h-20.063c-41.334,0-74.842-31.224-74.842-69.74V81.668l0-10.074c0-38.516-33.509-69.739-74.843-69.739h-20.062L75.843,1C34.509,1,1,32.219,1,70.736V1714.13c0,38.516,33.509,69.74,74.843,69.74H2845.38c41.334,0,74.843-31.224,74.843-69.74V233.886c0-38.516-33.509-69.74-74.843-69.74H2242.94Z" fill="#252c30"/>
          </g>
        </g>
      </g>
      <line id="Line_12" data-name="Line 12" x2="2919" transform="translate(730.5 513.5)" fill="none" stroke="#fff" stroke-width="2" stroke-dasharray="10 5" opacity="0.5"/>
    </g>
    <path id="Path_392-2" data-name="Path 392" d="M2242.94,164.147h-20.063c-41.334,0-74.842-31.224-74.842-69.74V81.668l0-10.074c0-38.516-33.509-69.739-74.843-69.739h-20.062L75.843,1C34.509,1,1,32.219,1,70.736V1714.13c0,38.516,33.509,69.74,74.843,69.74H2845.38c41.334,0,74.843-31.224,74.843-69.74V233.886c0-38.516-33.509-69.74-74.843-69.74H2242.94Z" transform="translate(-9908.5 -2489.967)" fill="rgba(19,23,25,0.39)" stroke="#fff" stroke-miterlimit="10" stroke-width="2" stroke-dasharray="9.993 5.996" opacity="0.5"/>
  </g>
</svg>
