<?xml version="1.0" encoding="UTF-8"?>
<svg id="Layer_1" xmlns="http://www.w3.org/2000/svg" version="1.1" viewBox="0 0 108.1 239.3">
  <!-- Generator: Adobe Illustrator 29.0.0, SVG Export Plug-In . SVG Version: 2.1.0 Build 186)  -->
  <defs>
    <style>
      .st0 {
        fill: #888d91;
        stroke: #010101;
        stroke-miterlimit: 10;
        stroke-width: 1.5px;
      }
    </style>
  </defs>
  <path id="Path_4" class="st0" d="M42.4,4.1l13.8,12.7,5.6,1.2,8.9,5.9,7.2,3.1,1.3,3.4-5.1,12,7.1,2.1,7.7,1.2,5.1-1.2,5.3-6.1.4-6.8,3.2-1.6,3.9,4.6.5,6.2-5.1,4.3-4,3.2-6.5,7.7-7.3,10.6-.6,6.4-.5,8.1,1.5,7.8-1.1,1.7.5,5,.4,4.2,9.5,6.7.2,5.4,4.8,3.4.4,3.8-4,10-8.6,4.3-12.5,1.6-7.3-.9,2.6,4.8v5.7l2.3,3.9-3.1,2.8-6.2,1.1-6.8-2.9-1.8,2.1,3.1,7.7,4.9,2.3,2.8-2.4,3.1,4-5.1,2.4-3.5,4.9,1.5,7.7v4.2h-6l-3.7,3.9v5.9l8.1,5.6,6.4,1.5.2,7-5.6,4.3-.7,8.9-4.3,2.9-1.1,3.5,5.1,7.9,5.6,4.3-2.6-.4-6-1.2-14.8-1-4.3-4.4-2.3-5.6-3.8.5-3.2-2.8-3.8-7.9,3.3-3.4v-4.8l-2.1-3.9.9-6.6-1.3-10.1-2.2-4.5,2.2-1.5-1.7-2.9-3.4-1.5,1-3.3-3.8-2.9-4.5-8.9,2.1-1.6-4-9.5-1-7.9-.2-7,3.1-2.8-4-7.7-2-7.1,3.7-5.1-1.7-6.6,2-7.6-1.7-7.2-2-1.5-6-13.6,2.6-8.1-2.1-7.6,1.1-7.2,3.2-7.3,4-4.9-2.4-3.1,1-2.6-2-13.1,6.8-3.8,1.5-8.2-1.1-2L18.3.8l9.2,2,4.5,5.6,2-6.4,7.8.4,1.2,1.7h-.6Z"/>
</svg>