<?xml version="1.0" encoding="UTF-8"?>
<svg id="Layer_1" xmlns="http://www.w3.org/2000/svg" version="1.1" viewBox="0 0 7 5.3">
  <!-- Generator: Adobe Illustrator 29.0.0, SVG Export Plug-In . SVG Version: 2.1.0 Build 186)  -->
  <defs>
    <style>
      .st0 {
        fill: #888d91;
        stroke: #010101;
        stroke-miterlimit: 10;
        stroke-width: 1.5px;
      }
    </style>
  </defs>
  <path class="st0" d="M5.4,1h0s0,0,0,0h0s0,0,0,0h0c0,0,0,.1,0,.1h0s0,0,0,0,0,0,0,0h0c0,0,0,.1,0,.1h0c0,0,0,.1,0,.1h0c0,0,0,0,0,0s0,0,0,0h.1s0,0,0,0h0s0,0,0,0h0c0,0,0,0,0,0h0s0,0,0,0h0s0,0,0,0h0s0,0,0,0h0s0,0,0,0h0c0,0,0,0,0,0h0s0,0,0,0h0s-.1-.1-.1-.1h0c0,0,0-.1,0-.1h0c0,0,0-.1,0-.1h0Z"/>
  <path class="st0" d="M5.4,2.3h0s0,0,0,0,0,0,0,0h-.1s0,0,0,0h0s0,0,0,0h0s-.1,0-.1,0h0c0,0,0,0,0,0s0,0,0,0,0,0,0,0,0,0,0,0,0,0,0,0h0s0,0,0,0,0,0,0,0h-.1s0,0,0,0h0s0,0,0,0,0,0,0,0h0s0,0,0,0h0s0,.1,0,.1-.1,0-.1,0,0,.1,0,.1h0c0,0,0,.1,0,.1h0c0,0,0,.1,0,.1h0c0,0-.1.2-.1.2h-.1s0,0-.1,0-.1,0-.1,0,0,0,0,0h0s-.1,0-.1,0h0s0,0,0,0,0,0,0,0h0s0,0,0,0c0,0,0,0,0,0s0,0,0,0h0s-.1,0-.1,0h0s-.1,0-.1,0h0s0,0,0,0-.1,0-.1,0h0s0,0,0,0h0c0,0,0-.1,0-.1h0s0-.1,0-.1h0c0,0,0-.2,0-.2h0c0,0,0-.1,0-.1h0c0,0,0-.1,0-.1h0c0,0,0,0,0,0h0c0,0,0,0,0,0h0c0,0,0,.1,0,.1s0,0,0,0c0,0,0,0,0,0s0,0,0,0h0s0,0,0,0c0,0,0,0,0,0s0,0,0,0v-.2s0,0,0,0h0c0-.1,0-.2,0-.2h0s0,0,0,0h0s0,0,0,0h0s0,0,0,0h0s0,0,0,0c0,0,0,0,0,0s0,0,0,0h0s0,0,0,0h0s0,0,0,0h0s0,0,0,0h0s0,0,0,0,0,0,0,0h0c0,0,0-.1,0-.1h0s0,0,0,0,0,0,0,0h0c0,0,0-.1,0-.1,0,0,0,0,0,0s0,0,0,0h0c0,0,0,0,0,0,0,0,0,0,0,0s0,0,0,0,0,0,0,0h0s0,0,0,0h0c0,0,0,.1,0,.1s0,0,0,0h0s0,0,0,0h0s0,0,0,0c0,0,0,0,0,0s0,0,0,0,0,0,0,0,0,0,0,0c0,0,0,0,0,0s0,0,0,0c0,0,0,0,0,0s0,0,0,0,0,0,0,0c0,0,0,0,0,0s0,0,0,0h0c0,0,0,.1,0,.1,0,0,0,0,0,0s0,0,0,0,0,0,0,0h0s0,0,0,0h0s0,0,0,0,0,0,0,0h0s0,0,0,0h0s0,0,0,0h0s0,0,0,0h0s0,0,0,0h0s0,0,0,0c0,0,0,0,0,0s0,0,0,0h0c0,0,0,.2,0,.2h0c0,0,0,.2,0,.2h0s0,0,0,0h.2s0,0,0,0h0s.1-.1.1-.1h0s0,0,0,0h0c0,0,0,0,0,0,0,0,0,0,0,0s0,0,0,0h0s.1,0,.1,0h.1s0,0,0,0,.2,0,.2,0h0s.1-.1.1-.1h0s.1,0,.1,0h0c0,0,0-.1,0-.1h0s0,0,0,0c0,0,0,0,0,0s0,0,0,0h0s-.1,0-.1,0h0s0,0,0,0h0s0,0,0,0h0c0,0,0,0,0,0s0,0,0,0,0,0,0,0h0s0,0,0,0,0,0,0,0,0,0,0,0h0c0,0,0,0,0,0s0,0,0,0c0,0,0,0,0,0s0,0,0,0h0s0,0,0,0h0s0,0,0,0c0,0,0,0,0,0s0,0,0,0c0,0,0,0,0,0s.1,0,.1,0c0,0,0,0,0,0s.1,0,.1,0h.1s.1,0,.1,0h.1s0,0,0,0h.1s0,0,0,0c0,0,.2-.1.2-.1s0,0,0,0h0c0,0,0-.2,0-.2s.1,0,.1,0h.2s.1,0,.1,0h.2s0,0,0,0h0c0,0,0-.2,0-.2,0,0,0,0,0,0s0,0,0,0,0,0,0,0h0c0,0,0,0,0-.1s0,0,0,0,0,0,0,0,0,0,0,0,0,0,0,0,0,0,0,0c0,0,0,0,0,0s0,0,0,0h0s0,0,0,0,0,0,0,0h0s0,.1,0,.1h0s0,0,0,0h0c0,0,0-.1,0-.1,0,0,0,0,0,0s0,0,0,0,0,0,0,0h0s0-.1,0-.1h0s0,0,0,0h0s0,0,0,0h0s0,0,0,0,0,0,0,0,0,0,0,0h0s0,0,0,0,0,0,0,0c0,0,0,0,0,0s0,0,0,0h0c0,0,0,0,0,.1s0,0,0,0h0c0,0,0,.1,0,.1h0s.1,0,.1,0h.1c0,0,0,0,0,0h0s0,0,0,0h.1s0,0,0,0h0s0,0,0,0h0c0,0,0,0,0,0h0Z"/>
  <path class="st0" d="M5,1.7h0c0,0,0,.1,0,.1,0,0,0,0,0,0s0,0,0,0h0s0,0,0,0h0c0,0,0-.1,0-.1h0s.1,0,.1,0h0s0,0,0,0h.1s0,0,0,0c0,0,0,0,0,0s0,0,0,0,0,0,0,0,0,0,0,0h0s0,0,0,0h.1s0,0,0,0,0,0,0,0h0s0,0,0,0c0,0,0,0,0,0s0,0,0,0h0s0,0,0,0h0s0,0,0,0,0,0,0,0c0,0,0,0,0,0s0,0,0,0h0s0,0,0,0h0s0,0,0,0h0s0,.1,0,.1h0c0,0,0,0,0,0h0s0,0,0,0,0,0,0,0h0c0,0,0,.1,0,.1h0s0,0,0,0,0,0,0,0h0c0,0,0,0,0,0h0s0-.1,0-.1h0c0,0,0-.1,0-.1h0s0,0,0,0h0s0,0,0,0h0c0,.1,0,.2,0,.2h0s0,0,0,0,0-.1,0-.1h0c0,0,0-.1,0-.1h0"/>
</svg>