<?xml version="1.0" encoding="UTF-8"?>
<svg id="Layer_1" xmlns="http://www.w3.org/2000/svg" version="1.1" viewBox="0 0 88.7 104.6">
  <!-- Generator: Adobe Illustrator 29.0.0, SVG Export Plug-In . SVG Version: 2.1.0 Build 186)  -->
  <defs>
    <style>
      .st0 {
        fill: #888d91;
        stroke: #010101;
        stroke-miterlimit: 10;
        stroke-width: 1.5px;
      }
    </style>
  </defs>
  <path id="BO" class="st0" d="M85,82.5l-.4-2.4-6.6-4h-6.4l-11.7,2.2-2.6,6.8.2,4.3-1.8,9.4-1.2-1.7-7.8-.4-2,6.4-4.5-5.6-9.2-2-4.9,7.1-4.8,1.1-3.8-10.9-4.5-8.8,1.3-7.6-3.9-3.3-1.5-5.6-3.9-5.4,3.5-8.4-3.5-6.6,1.3-2.7-1.5-2.9,2.3-3.9-.4-6.6v-5.6l1.3-2.6L1.3,10.1l5.1.7,3.5-.2,1.3-2.3,5.9-3.2,3.5-2.9,8.9-1.3-.5,5.9,1.1,3.1-.4,5.3,7.9,7,7.8,1.3,2.8,2.9,4.8,1.6,3.1,2.2h4.3l4.2,2.3.6,4.5,1.5,2.3.4,3.3h-2.1l3.4,9.3,13.1.4-.6,4.5,1,3.1,3.9,2.2,2.1,4.9-.7,6.2-1.6,3.4,1,4.4-2,1.7h0l.4-.2h0Z"/>
</svg>