<?xml version="1.0" encoding="UTF-8"?>
<svg id="Layer_1" xmlns="http://www.w3.org/2000/svg" version="1.1" viewBox="0 0 75.9 284.1">
  <!-- Generator: Adobe Illustrator 29.0.0, SVG Export Plug-In . SVG Version: 2.1.0 Build 186)  -->
  <defs>
    <style>
      .st0 {
        fill: #888d91;
        stroke: #010101;
        stroke-miterlimit: 10;
        stroke-width: 1.5px;
      }
    </style>
  </defs>
  <path id="Path_90" class="st0" d="M26.9,42l1.1,2-1.5,8.2-6.8,3.8,2,13.1-1,2.6,2.4,3.1-4,4.9-3.2,7.3-1.1,7.2,2.1,7.6-2.6,8.1,6,13.6,2,1.5,1.7,7.2-2,7.6,1.7,6.6-3.7,5.1,2,7.1,4,7.7-3.1,2.8.2,7,1,7.9,4,9.5-2.1,1.6,4.5,8.9,3.8,2.9-1,3.3,3.4,1.5,1.7,2.9-2.2,1.5,2.2,4.5,1.3,10.1-.9,6.6,2.2,3.9v4.8l-3.4,3.4,3.8,7.9,3.2,2.8,3.8-.5,2.3,5.6,4.3,4.4,14.8,1,6,1.2h-5.3l-2.1,1.8-4.2,2.7,2.1,7h-2.3l-7.7-2.2-9.2-5.3-9.3-4.3-3.9-4.8-.4-4.4-5.1-5.1-6.1-13-.2-7.3,4.2-5.9-10.1-2.3,3.3-6.7-2.4-12.8,7.9,2.7-2.2-16-4.9-2.1,1.2,9.7-4.3-1.1-1.8-11-2.4-14.4,1.3-5.4-4-7.6-2.9-8.8,2.7-.4.7-12.6,1.5-12.6v-11.6l-3.9-11.8.7-6.5-2.6-9.7,2.2-9.5-1.1-15.2V31.5l-1.7-12.8L.9,7.6l3.4-2,1.3-4,3.9,5.4,1.5,5.6,3.9,3.3-1.3,7.6,4.5,8.8,3.8,10.9,4.8-1.1h.2,0Z"/>
</svg>