<?xml version="1.0" encoding="UTF-8"?>
<svg id="Layer_1" xmlns="http://www.w3.org/2000/svg" version="1.1" viewBox="0 0 356.1 275.1">
  <!-- Generator: Adobe Illustrator 29.0.0, SVG Export Plug-In . SVG Version: 2.1.0 Build 186)  -->
  <defs>
    <style>
      .st0 {
        fill: #888d91;
        stroke: #010101;
        stroke-miterlimit: 10;
        stroke-width: 1.5px;
      }
    </style>
  </defs>
  <path id="Path_39" class="st0" d="M282.2,270.5l-5.3,3.8-6-2.4-1.2-6.7,2.7-3.5,7.1-2.2h4c0,.1,2,3.2,2,3.2l-2.4,3.4-.9,4.5h0Z"/>
  <path id="Path_40" class="st0" d="M310.8,30.5l11,5.5,7.3,7.1h9.3l3.2-2.9,8.4-2.3,1.6,7-.4,2.8,3.4,8.3.7,7.6-8.4-1.3-3.5,2.7,5.7,6.6,4.8,9.2h-3.1c0,.1,2.3,4.2,2.3,4.2l-6.7-4.6v4.4l-7.8,3.3,3.4,4.2-5.6-.4-4.4-2.4-1.3,5.6-4.8,4.2-2.6,5-7.7,2.2-2.9,3.7-5.9,2.2,1.6-3.7-2.8-3.1,2.4-5.3-5.5-4-4.2,2.7-4.4,5.5-1.6,5-6.1.4-1.6,3.7,5.9,5.3,5.9,1.3,1.7,3.4,6.2,2.3,4.6-5.6,7.2,3.1,4.3.2,2.8,4-8.2,2.2-1.2,4.3-4.6,3.9-1.1,5.5,8.7,4.3,5.6,7.7,6.7,7.2,6.7,6,2,5.9-3.4,2.2,2.9,4.2,4.8,2.4,1,6.4v6.2l-3.3.7-2.6,8.4-2.8,10.4-4.2,9.3-7.8,7.2-8.1,6.7-7.5.9-3.5,3.4-2.8-2.4-3.1,3.8-8.8,4-7.1,1.1-.9,8.3-3.8.5-2.7-5.7,1.1-2.9-9.5-2.6-2.9,1.3-7.2-2.1-3.8-3.2.4-4.5-6.5-1.5-3.8-2.9-5,4.2-6.5,1h-5.4c0-.1-3.3,1.8-3.3,1.8l-3.3,1.1,2.4,9-3.7-.2-1-1.8-.6-3.3-4.6,2.3-3.2-1.5-5.5-2.9,1-6.5-4.5-1.6-2.9-7.2-6.8,1.3-.9-9.3,5.1-6.6-1.1-6.5-1.6-6-3.3-1.8-3.3-4.6-3.8.6-7.5-1.2,1.5-3.3-4.4-4.9-3.9,3.3-6-1.8-6.6,4.9-4.8,5.9-5.1,1-3.4-2.1-3.5-.2-5.3-1.7-3.2,2-3.2,5.9-1.8-6.2-3.8,1.7-7.9-.9-7.9-1.7-6.1-3.5-5.5-1.5-3.1-3.8-4-1.1-7.8-5.1-5.9-2.4-2.3,1.8-10.5-5.5-7.6-4.9-3.9-8.7,5,1.1-.7-4-3.7-4-1-6.4-9.4-9.3-11.6-3.1-3.5-6.1-5.7-3.7-1.8-2.2-2.2-4.4-.6-3.1-4.5-1.8-1.8.9-3.8-7.3,1.3-1.7-1.5-1.8,5-3.7,3.9-1.6,7.1,1.1.7-5,7.8-.9,1.2-3.2,8.4-4.2.2-1.7-2.1-4.5,3.5-2-10.8-13.4,11.1-3.1,2.4-1.7-1.2-13.8,13.2,2.6,2-3.5-3.1-7.6,4.6-.7,2.3-5.1,2.1-.6,4,5.4,7,4,10,2.8,7.1,6.2,1.7,8.9,3.7,3.4,7.9,1.3,8.8,1,9.8,4.9,4.2.9,6.1,7.1,5.7,4.6,6.8-.2,13.8,1.8,7.8-1.1,6.8,1.1,11.5,4.8h7.6l4,2.3,5.4-4.2,8.8-2.7,9.3-.2,6-2.7,2.4-4.2,2.9-2.7-2.3-2.6-3.5-2.9.6-5,3.9.7,7.2,1.6,3.9-4.2,7.8-2.9,1.6-5.1,3.1-2.2,8.3-1,5.4.9-1-2.7-8.8-5.4-6.4-2.4-3.1,2.8-6.7-1.2-2.8,1-3.4-3.1-.4-7.7-.7-5.7,9,2.9,5.4-4.8-2.3-3.4-.2-7.9,1.6-2.4-3.1-4.2-4.5-1.7,2.1-3.8,6.2-1.3,7.6-.2,10.5,2.3,7.3,2.7,9.4,7.6,4.6,3.3,5.5,4.6,7.6,7.3,12.2,2.4.7-.5h0Z"/>
</svg>