<?xml version="1.0" encoding="UTF-8"?>
<svg id="Layer_1" xmlns="http://www.w3.org/2000/svg" version="1.1" viewBox="0 0 85.5 134">
  <!-- Generator: Adobe Illustrator 29.0.0, SVG Export Plug-In . SVG Version: 2.1.0 Build 186)  -->
  <defs>
    <style>
      .st0 {
        fill: #888d91;
        stroke: #010101;
        stroke-miterlimit: 10;
        stroke-width: 1.5px;
      }
    </style>
  </defs>
  <path id="CO" class="st0" d="M57.1,6.4l-4.5,1.3-2,3.9-2.8,2.2-2.2,2.9-1.1,5.6-2.2,4.6,3.5.5.7,3.5,1.5,1.8.4,3.1-.9,2.9v1.7l1.8.6,1.5,2.7,8.9-.7,4,1,4.6,6.8,2.8-.9,5,.4,3.9-.9,2.4,1.3-1.5,4.2-1.6,2.7-.7,5.6,1.3,5.3,1.8,2.3.2,1.7-3.5,3.9,2.4,1.7,1.8,2.8,2,7.8-1.3,1-1.2-4.6-2-2.6-2.3,2.8-13.4-.2v4.9l4,.9-.2,3.1-1.3-.9-3.9,1.2v5.7l3.1,2.9,1.1,4.4v3.4l-2.8,21.5-3.5-4.2h-2.1l4.3-8.2-5.4-3.7-4.2.7-2.6-1.3-3.8,2.1-5.1-1.1-4.3-8.2-3.2-2-2.2-3.8-4.6-3.7-1.8.7-2.9-1.8-3.4-2.6-2,1.2-5.9-1.1-1.7-3.4h-1.3l-6.8-4.3-.9-2.4,2.6-.6-.2-3.9,1.7-2.9,3.4-.5,3.1-4.9,2.7-4.2-2.4-1.8,1.5-4.5-1.3-7.2,1.6-2.1-.9-6.6-2.7-4.3,1.1-3.8,2.2.6,1.3-2.3-1.3-4.6.9-1.1,3.5.2,5.5-5.5,2.9-.9v-2.6c.1,0,1.8-6.7,1.8-6.7l4.2-3.5,4.3-.2.7-1.6,5.4.6,5.6-3.9,2.8-1.7,3.5-3.8,2.4.5,1.6,2.1-1.5,2.6h0v.4h0Z"/>
</svg>