<?xml version="1.0" encoding="UTF-8"?>
<svg id="Layer_1" xmlns="http://www.w3.org/2000/svg" version="1.1" viewBox="0 0 41.6 51.7">
  <!-- Generator: Adobe Illustrator 29.0.0, SVG Export Plug-In . SVG Version: 2.1.0 Build 186)  -->
  <defs>
    <style>
      .st0 {
        fill: #888d91;
        stroke: #010101;
        stroke-miterlimit: 10;
        stroke-width: 1.5px;
      }
    </style>
  </defs>
  <path id="EC" class="st0" d="M39.9,12.8l1,6-2.1,5-7.5,8.3-8.2,3.1-4.2,6.8-1.1,5.3-3.8,3.3-3.1-4-2.8-.9-2.8.6-.4-2.8,2-1.8-.9-3.3,3.5-5.9-1.6-3.4-2.6,3.7-4.3-3.5,1.3-2.2-1.2-7.1,2.4-1.2,1.2-4.9,2.6-5-.4-3.2,3.8-1.7L15.5.9l6.8,4.4h1.3l1.7,3.3,5.9,1.1,2-1.2,3.4,2.6,2.9,1.8h.4Z"/>
</svg>