<?xml version="1.0" encoding="UTF-8"?>
<svg id="Layer_1" xmlns="http://www.w3.org/2000/svg" version="1.1" viewBox="0 0 79 69.1">
  <!-- Generator: Adobe Illustrator 29.0.0, SVG Export Plug-In . SVG Version: 2.1.0 Build 186)  -->
  <defs>
    <style>
      .st0 {
        fill: #888d91;
        stroke: #010101;
        stroke-miterlimit: 10;
        stroke-width: 1.5px;
      }
    </style>
  </defs>
  <path id="Path_102" class="st0" d="M63.1,13.1l1.3.6h1.7c0-.1,2.9,1.8,2.9,1.8l8.8,1.5-2.9,5.1-.5,5.5-1.6,1.3-2.8-.7.2,2-4.4,4.3v3.5l2.9-1.2,2.2,3.3v2.2l1.7,2.9-2.1,2.3,1.8,6,3.4,1-.6,3.3-5.5,4.4-12.5-2.1-9,2.6-.7,4.6-7.2,1-7.1-3.5-2.3,1.7-11.6-3.5-2.4-2.9,3.3-4.6,1.2-15.4-6.2-8.1-4.5-3.9-9.3-2.9-.5-5.6,7.9-1.6,10.1,2-1.8-8.7,5.7,3.3,13.9-5.9,1.8-6.2,5.1-1.6,1,2.7h2.7c0,.1,2.9,3.2,2.9,3.2l4.3,3.5,3.1-.6,5.4,3.5h.2,0Z"/>
</svg>