<?xml version="1.0" encoding="UTF-8"?>
<svg id="Layer_1" xmlns="http://www.w3.org/2000/svg" version="1.1" viewBox="0 0 30.4 36.4">
  <!-- Generator: Adobe Illustrator 29.0.0, SVG Export Plug-In . SVG Version: 2.1.0 Build 186)  -->
  <defs>
    <style>
      .st0 {
        fill: #888d91;
        stroke: #010101;
        stroke-miterlimit: 10;
        stroke-width: 1.5px;
      }
    </style>
  </defs>
  <path id="GT" class="st0" d="M24.9,3.2l-.9,6.2-1.6,8.8h2.1l2.1,1.5.7-1.2,1.8,1-3.4,3.1-3.5,2.2-.6,1.5.4,1.6-1.6,2-1.7.5.4,1-1.5.9-2.4,2-.4,1.1-3.4-1.3h-4.3l-2.9-1.7-3.4-3.2.5-2.3,1-1.8-.9-1.5,4-6.4h8.8l.5-2.7-1-.5-.6-1.7-2.3-1.8-2.2-2.6h3.1c0-.1.6-4.5.6-4.5h12.7c0,.1-.1-.2-.1-.2h0Z"/>
</svg>