<?xml version="1.0" encoding="UTF-8"?>
<svg id="Layer_1" xmlns="http://www.w3.org/2000/svg" version="1.1" viewBox="0 0 8.7 8.3">
  <!-- Generator: Adobe Illustrator 29.0.0, SVG Export Plug-In . SVG Version: 2.1.0 Build 186)  -->
  <defs>
    <style>
      .st0 {
        fill: #888d91;
        stroke: #010101;
        stroke-miterlimit: 10;
        stroke-width: 1.5px;
      }
    </style>
  </defs>
  <path class="st0" d="M3.1,1.8l.6-.3v-.3h.8l.3-.2h.8c0,0-.2.3-.2.3l.6-.2.3.4h.6s-.2.3-.2.3l-.7.4-.5-.3-.3.5.3.5.4-.4.4.2v-.5s.5-.2.5-.2v.6c.1,0,.4-.4.4-.4l.4.3-.3.4v.4c.1,0-.1.5-.1.5h-.2c0,0-.2-.4-.2-.4v.6s-.5-.3-.5-.3l.2-.5h-.3l-.3.6.3.4.3.2v.5c-.1,0-.3.5-.3.5v-.4c0,0-.3.2-.3.2,0,0,0,.4,0,.5s.2.6.2.6h-.4c0-.1-.1-.7-.1-.7v-.3c0,0-.1.4-.1.4v.2c0,0-.4-.5-.4-.5h-.4c0,0-.4-.5-.4-.5l.4-.7h-.3c0,0-.8-.2-.8-.2v.5c0,0-.2.4-.2.4v.3c.1,0-.4-.3-.4-.3v.2s.4.3.4.3l-.5.3-.5-.4-.3.2v.2c-.1,0-.5-.2-.5-.2l-.4.3-.2-.3.6-.8v-.3c0,0,.3-.3.3-.3h.6s-.3.2-.3.2v.2s.5-.1.5-.1l.7-.4.2-.2v-.3l-.3.2-.8-.4-.3.4h-.3c0-.1,0-.4,0-.4,0,0-.2-.3-.2-.3s.4-.2.4-.2l.6-.4.2-.5h.3Z"/>
</svg>