<?xml version="1.0" encoding="UTF-8"?>
<svg id="Layer_1" xmlns="http://www.w3.org/2000/svg" version="1.1" viewBox="0 0 193.3 218">
  <!-- Generator: Adobe Illustrator 29.0.0, SVG Export Plug-In . SVG Version: 2.1.0 Build 186)  -->
  <defs>
    <style>
      .st0 {
        fill: #888d91;
        stroke: #010101;
        stroke-miterlimit: 10;
        stroke-width: 1.5px;
      }
    </style>
  </defs>
  <path id="IN" class="st0" d="M79.7,42.4l-3.4,3.7-1.1,7.3,7.1,2.9,7.1,3.8,9.5,4.4,9.4,1.1,4.6,3.9,5.3.7,8.4,1.8h5.6v-3.2l-1.8-5-.2-3.3,3.8-1.7,1.8,6.2.5,1.5,6.7,3.1,3.9-1.2,5.7.5,5.5-.2-.6-4.8-3.2-2.6,5.1-1,4.8-5.9,6.6-4.9,6,1.8,3.9-3.3,4.4,4.9-1.5,3.3,7.5,1.2,1.2,2.9-2.1,1.5,1.7,4.8-5.1-1.3-7.6,5.4,1.1,4.5-2.4,6.6.4,3.8-2,6.5-5.6-1.8,1.1,8.2-1.2,2.7,1.2,3.3-3.1,1.8-5.4-12.5h-1.8l-.4,5.1-4.4-4.2,1.5-4.4,2.9-.5,2-6.6-4.2-1.3h-6.2c0,.1-6.6-1-6.6-1l-1.5-5.5-3.3-.4-6-3.4-1.5,5.4,5.6,4.2-3.7,2.9-1.1,2.8,4.5,2.1-.4,4.8,3.2,5.9,2,6.5-.6,2.9h-4.6c0-.1-8.1,1.5-8.1,1.5l1.1,5.9-2.9,4.6-9.2,5.4-6.5,9.2-4.6,5-6.1,5.1.4,3.5-3.2,2-5.9,2.8-3.2.4-1.5,6,2.3,10.3.9,6.5-2.3,7.5.9,13.3-3.5.4-2.8,6,2.3,2.7-6.2,2.2-2.1,5.3-2.7,2.3-6.8-7.3-3.8-11-3.1-7.9-2.7-3.7-4.2-7.6-2.4-9.8-1.7-4.9-7.2-10.8-4.3-15.3-3.2-10-1-9.5-2.1-7.3-9.4,4.8-4.9-1-9.9-9.5,2.9-2.8-2.3-3.1-8.7-6.7,3.9-5.3h14.8l-2.2-6.7-4.3-3.9-1.7-6.1-4.9-3.4,6-8.3,7.9.6,5.5-8.2,2.7-7.9,4.8-7.9-1.2-5.6,4.6-4.5-6.2-3.8-3.5-5.4-4-6.8,2.4-3.4,10.4,2,7-1.2,4.6-6.6,9.4,9.3,1,6.4,3.7,4,.7,4-5-1.1,3.9,8.7,7.6,4.9,10.5,5.5.2-.5h0Z"/>
</svg>