<?xml version="1.0" encoding="UTF-8"?>
<svg id="Layer_1" xmlns="http://www.w3.org/2000/svg" version="1.1" viewBox="0 0 77.7 83.5">
  <!-- Generator: Adobe Illustrator 29.0.0, SVG Export Plug-In . SVG Version: 2.1.0 Build 186)  -->
  <defs>
    <style>
      .st0 {
        fill: #888d91;
        stroke: #010101;
        stroke-miterlimit: 10;
        stroke-width: 1.5px;
      }
    </style>
  </defs>
  <path id="Path_60" class="st0" d="M59.1,69.8l-2.1,6.2,1.1,2.3-1.1,4-5.1-2.9-3.3-.9-9.2-3.9.6-4,7.6.7,6.6-.9,4.9-.7h0Z"/>
  <path id="Path_62" class="st0" d="M44,5.6l-.5,3.8,1.7,3.3-5-1.2-4.8,2.8.5,3.8-.6,2.2,2.3,3.9,6.1,3.9,3.5,6.5,7.5,6.2h4.9c0-.1,1.7,1.6,1.7,1.6l-1.7,1.6,5.9,2.8,4.9,2.3,5.7,4.2.7,1.3-1,2.8-3.8-3.7-5.6-1.2-2.3,5,4.8,2.9-.5,4-2.6.5-3.1,6.7-2.7.6v-2.4l1-4.2,1.3-1.7-2.8-4.5-2.2-3.9-2.7-1-2.2-3.3-4.2-1.5-2.9-3.2-4.6-.5-5.3-3.4-6-5.1-4.5-4.4-2.3-7.7-3.2-.9-5.1-2.6-2.8,1-3.5,3.7-2.6.5.6-3.3-3.4-1-1.8-6,2.1-2.3-1.8-2.9v-2.2l2.8,1.7,3.1-.4,3.3-2.7,1.1,1.2,2.9-.2,1.2-3.1,4.6,1,2.6-1.3.4-3.1,3.8,1.1.6-1.5,6-1.3,1.6,2.6,8.9,2.1h0Z"/>
</svg>