<?xml version="1.0" encoding="UTF-8"?>
<svg id="Layer_1" xmlns="http://www.w3.org/2000/svg" version="1.1" viewBox="0 0 127.5 96.2">
  <!-- Generator: Adobe Illustrator 29.0.0, SVG Export Plug-In . SVG Version: 2.1.0 Build 186)  -->
  <defs>
    <style>
      .st0 {
        fill: #888d91;
        stroke: #010101;
        stroke-miterlimit: 10;
        stroke-width: 1.5px;
      }
    </style>
  </defs>
  <path id="Path_87" class="st0" d="M73.2,51.3l-1,3.2,6.8-3.2-.6,3.3-2.6,3.3-5.1,3.5-8.7,5.7-5.7,3.2-.7,3.7h-4.9l-7.7,3.1-5.7,5-10,7.8-7.7,3.4-4.9,2.2h-5.6l-1.8-2.7-6.2-.5,1.2-2.9,7.9-5.6,13.9-7.7,5.3-1.5,6.8-2.9,8.6-4,7-4,7.3-5.7,3.8-2,4.3-4.4,7.1-3.5-1,3.3h-.1Z"/>
  <path id="Path_88" class="st0" d="M108.7,14.1l-.5,8.3,3.5-5.4,1.6,2.2-2.9,5.9,3.5,2.6,3.9.6,5.7-2.9,2.7.9-6.4,7-5.1,4.5h-4.8l-3.4,2.2-1.8,3.4-2,1.3-5.6,4.3-7.2,5.3-7.3,3.2.6-2.1-1.8-1.1,8.4-6.4,1.1-4.4-4.6-3.1,2.2-2.8,6.5-2.7,5.1-6.1,3.1-5,.7-5.3,1-1.3-1.1-3.3-.9-6.8.5-5.6,2.7-.6,1.1,4.4,3.9,2-2.4,7v-.2h0Z"/>
</svg>