<?xml version="1.0" encoding="UTF-8"?>
<svg id="Layer_1" xmlns="http://www.w3.org/2000/svg" version="1.1" viewBox="0 0 131.5 92">
  <!-- Generator: Adobe Illustrator 29.0.0, SVG Export Plug-In . SVG Version: 2.1.0 Build 186)  -->
  <defs>
    <style>
      .st0 {
        fill: #888d91;
        stroke: #010101;
        stroke-miterlimit: 10;
        stroke-width: 1.5px;
      }
    </style>
  </defs>
  <path id="Path_68" class="st0" d="M129.4,11.4l-7.8,2.6-3.9.6,1-4.6-7.1-2.6-7.2,2.2-1.3,4.9-4.2,2.9-5.7-1.6-6.5.2-6.2-3.4-2.7,1.7-3.2.2v4.4l-9.7-1.1-.7,3.8h-4.9l-2.8,4.8-4.2,7.5-7,9.7,2.2,2.4-1.6,2.7h-5.3c0-.1-2.9,6.5-2.9,6.5l1.2,9.4,3.8,3.5-1,8.4-4.2,4.9-2.2,4.2-4-4.4-10.5,8.3-7.5,1.7-7.9-3.7-2.2-7.7L.8,63.3l4.9-4.5,13.8-6,9.9-7.2,8.8-9.5,10.9-13.1,7.8-5,12.6-8.3,10.4-2.9,8.2.4,6.4-5.4,9,.2,8.6-1.2,16.7,4.8-6,1.7,6.6,4.2h0Z"/>
</svg>