<?xml version="1.0" encoding="UTF-8"?>
<svg id="Layer_1" xmlns="http://www.w3.org/2000/svg" version="1.1" viewBox="0 0 52.7 66.5">
  <!-- Generator: Adobe Illustrator 29.0.0, SVG Export Plug-In . SVG Version: 2.1.0 Build 186)  -->
  <defs>
    <style>
      .st0 {
        fill: #888d91;
        stroke: #010101;
        stroke-miterlimit: 10;
        stroke-width: 1.5px;
      }
    </style>
  </defs>
  <path id="Path_72" class="st0" d="M10.1,65.7l-2.7-5.5-6.4-13,19.9-7.8,3.2-15.6-3.7-5.6v-3.2l1.6-3.2-.2-3.2,2.9-1.6-1.3-1.1V.8h3.4l3.7,5.4,4,2.8,5,1.1,4.2,1.3,3.5,4.5,2.1,2.6,2.4,1.1.2,1.7-2.1,4.6-.9,2.2-2.7,2.6-2.1,5.4-3.1-.5-1.2,2-.9,3.9,1.3,5.3-.6,1h-3.1l-4,2.9-.4,3.8-1.5,1.7h-4.3c0-.1-2.4,1.8-2.4,1.8l.2,3.2-3.2,2.2-3.8-.7-4.4,2.7-3.1.4h.5Z"/>
</svg>