<?xml version="1.0" encoding="UTF-8"?>
<svg id="Layer_1" xmlns="http://www.w3.org/2000/svg" version="1.1" viewBox="0 0 106.3 107.2">
  <!-- Generator: Adobe Illustrator 29.0.0, SVG Export Plug-In . SVG Version: 2.1.0 Build 186)  -->
  <defs>
    <style>
      .st0 {
        fill: #888d91;
        stroke: #010101;
        stroke-miterlimit: 10;
        stroke-width: 1.5px;
      }
    </style>
  </defs>
  <path id="PK" class="st0" d="M104.9,13.9l-4.6,6.6-7,1.2-10.4-2-2.4,3.4,4,6.8,3.5,5.4,6.2,3.8-4.6,4.5,1.2,5.6-4.8,7.9-2.7,7.9-5.5,8.2-7.9-.6-6,8.3,4.9,3.4,1.7,6.1,4.3,3.9,2.2,6.7h-14.8l-3.9,5.3-5.1-2-2.7-5.6-6-6-12.2,1.5h-11c0,.1-9.3,1.2-9.3,1.2l1.3-9,9.2-4.2-1.1-3.5-3.3-1.3-1.2-6.8-7-3.4-3.4-4.8-3.9-4.2,11.7,4,6.5-1.2,4.2,1,1.1-1.7,4.8.7,8.1-3.3-1-6.6,2.8-4.5h5l.2-2.1,4.9-1.1,2.6.7,2.2-2.2-1.3-4.8,1.7-4.6,3.8-2.1-3.8-5.1,6.4.2,1.1-2.8-1-3.1,2.4-3.3-1.7-3.9-2.3-3.3,2.9-3.4,6.5-1.6,7.2-1,2.9-1.3,3.5-1,5.7,3.7,3.5,6.1,11.6,3.1h0v.2h.1Z"/>
</svg>