<?xml version="1.0" encoding="UTF-8"?>
<svg id="Layer_1" xmlns="http://www.w3.org/2000/svg" version="1.1" viewBox="0 0 40.8 21">
  <!-- Generator: Adobe Illustrator 29.0.0, SVG Export Plug-In . SVG Version: 2.1.0 Build 186)  -->
  <defs>
    <style>
      .st0 {
        fill: #888d91;
        stroke: #010101;
        stroke-miterlimit: 10;
        stroke-width: 1.5px;
      }
    </style>
  </defs>
  <path id="PA" class="st0" d="M39.5,8.4l-.9,1.1,1.3,4.6-1.3,2.3-2.2-.6-1.1,3.8-2.2-2.2-1.2-4.3,1.7-2.1-1.7-.5-1.1-2.6-3.4-2.2-2.9.5-1.6,2.7-2.9,2-1.5.2-.7,1.7,3.1,4.3-2,1-1,1.1-3.3.5-1-4.8-1,1.3-2.2-.5-1.2-3.1-2.8-.6-1.8-.9H1.7l-.2,1.7-.7-1.2.4-1.6.7-1.6-.2-1.3,1.1-1-1.3-1.1V1.8c.1,0,2.8-.7,2.8-.7l2.3,2.8-.2,1.7,2.7.4.7-.7,1.8,2,3.4-.6,3.1-2,4.3-1.6,2.4-2.3,3.8.5-.2.7,3.8.2,2.9,1.5,2.2,2.3,2.4,2.2-.2.2h0Z"/>
</svg>