<?xml version="1.0" encoding="UTF-8"?>
<svg id="Layer_1" xmlns="http://www.w3.org/2000/svg" version="1.1" viewBox="0 0 92.7 145.2">
  <!-- Generator: Adobe Illustrator 29.0.0, SVG Export Plug-In . SVG Version: 2.1.0 Build 186)  -->
  <defs>
    <style>
      .st0 {
        fill: #888d91;
        stroke: #010101;
        stroke-miterlimit: 10;
        stroke-width: 1.5px;
      }
    </style>
  </defs>
  <path id="PE" class="st0" d="M80.1,34l-6.2-.4-1,1.2-5.6,1.5-7.7,5.4-.4,3.7-1.7,2.7.9,4.3-4.2,2.2.2,3.4-1.8,1.3,3.2,7.1,4,4.8-1.2,3.4,4.6.4,2.8,4.3h6.1l5.4-4.4v11.9l3.3.9,3.9-1.3,6.7,12.7-1.3,2.6v5.6l.4,6.6-2.3,3.9,1.5,2.9-1.3,2.7,3.5,6.6-3.5,8.4-1.3,4-3.4,2-7.2-4.5-1-3.2-14.3-7.8-13.1-8.7-5.7-4.8-3.4-6.5,1-2.3-6.6-10.3-7.8-14.4-7.3-15.6-2.9-3.7-2.4-5.7-5.6-5.1-5-3.2,2.1-3.4-3.7-7.6,2.1-5.5,5.4-4.9.9,3.3-2,1.8.4,2.8,2.8-.6,2.8.9,3.1,4,3.8-3.3,1.1-5.3,4.2-6.8,8.2-3.1,7.5-8.3,2.1-5-1-6,1.8-.7,4.6,3.7,2.2,3.8,3.2,2,4.3,8.2,5.1,1.1,3.8-2.1,2.6,1.3,4.2-.7,5.4,3.7-4.3,8.1h2.1l3.5,4.3-.6-.3h0Z"/>
</svg>