<?xml version="1.0" encoding="UTF-8"?>
<svg id="Layer_1" xmlns="http://www.w3.org/2000/svg" version="1.1" viewBox="0 0 62.9 45.9">
  <!-- Generator: Adobe Illustrator 29.0.0, SVG Export Plug-In . SVG Version: 2.1.0 Build 186)  -->
  <defs>
    <style>
      .st0 {
        fill: #888d91;
        stroke: #010101;
        stroke-miterlimit: 10;
        stroke-width: 1.5px;
      }
    </style>
  </defs>
  <path id="PL" class="st0" d="M32.6,3.8l7.2.9h10.8c0-.1,3.1.7,3.1.7l1.7,2.3.7,3.3,2.1,2.8.5,2.9-3.4,1.6,2.3,3.4.6,3.4,3.9,6.6-.4,2.1-2.8.9-4.6,6.4,2,3.4-1.3-.5-6.1-2.9-4.3,1.1-2.9-.7-3.4,1.6-3.3-2.7-2.3,1.1-.4-.5-3.2-3.8-4.5-.4-.9-2.4-4.2-.9-.7,2-3.4-1.6.2-2.1-4.5-.6-3.1-2.4-2.9-4.8.2-2.7-1.8-4-2.3-2.6,1.5-2.1-1.7-3.8,3.8-2.2,8.7-3.4,7.1-2.4,5.9,1.2.7,1.8h5.6-.2,0Z"/>
</svg>