<?xml version="1.0" encoding="UTF-8"?>
<svg id="Layer_1" xmlns="http://www.w3.org/2000/svg" version="1.1" viewBox="0 0 13.3 6.2">
  <!-- Generator: Adobe Illustrator 29.0.0, SVG Export Plug-In . SVG Version: 2.1.0 Build 186)  -->
  <defs>
    <style>
      .st0 {
        fill: #888d91;
        stroke: #010101;
        stroke-miterlimit: 10;
        stroke-width: 1.5px;
      }
    </style>
  </defs>
  <path id="Path_195" class="st0" d="M3,1h.7c0,.1.7.1.7.1h.4c0,.1.7,0,.7,0h.4c0,.1.5,0,.5,0h.2c0,.1.6,0,.6,0h.5c0,.1.4.1.4.1l1,.2v-.2l.7.2h0c0-.1,1,0,1,0l.2.2h.2l.7.4h.2c0-.1,0,.7,0,.7l.2.4-1.1.4-.4.5-.4.7-.4.2h-.4c0,.1-.5.1-.5.1h-.7c0,.1-.4.4-.4.4h-.9c0-.1-.2-.4-.2-.4l-.6.2-.4-.4-.9.2h-1.1c0-.1-.4,0-.4,0h-.7c0,.1-.2.2-.2.2l-.2-.2h-.5c0-.1-.4.1-.4.1h-.7c0-.1.4-1,.4-1v-.5l.2-.5-.2-.7h-.2v-.6l.5-.2h.2v-.7l.5-.2h.6l.3.3h0Z"/>
</svg>