<?xml version="1.0" encoding="UTF-8"?>
<svg id="Layer_1" xmlns="http://www.w3.org/2000/svg" version="1.1" viewBox="0 0 9.3 6.2">
  <!-- Generator: Adobe Illustrator 29.0.0, SVG Export Plug-In . SVG Version: 2.1.0 Build 186)  -->
  <defs>
    <style>
      .st0 {
        fill: #888d91;
        stroke: #010101;
        stroke-miterlimit: 10;
        stroke-width: 1.5px;
      }
    </style>
  </defs>
  <path class="st0" d="M.8,4.3S2,1.3,2.2,1.3s1.2-.5,1.2-.5l1.5.2,1.6.9.7.3h.4s.7.4.7.4c0,0-.3.9-.4.9s-.9-.2-.9-.2c0,0-.7.2-.7.2s-1.2.8-1.2.8l-.3.5-1.4-.8-.5.3-.9.6-.5-.6-.3.4.3.4-.2.2-.7-.3v-.7Z"/>
</svg>