<?xml version="1.0" encoding="UTF-8"?>
<svg id="Layer_1" xmlns="http://www.w3.org/2000/svg" version="1.1" viewBox="0 0 80.2 62.1">
  <!-- Generator: Adobe Illustrator 29.0.0, SVG Export Plug-In . SVG Version: 2.1.0 Build 186)  -->
  <defs>
    <style>
      .st0 {
        fill: #888d91;
        stroke: #010101;
        stroke-miterlimit: 10;
        stroke-width: 1.5px;
      }
    </style>
  </defs>
  <path id="ES" class="st0" d="M48.3,3.3l2.4,2.9,11.6,3.5,2.3-1.7,7.1,3.5,7.2-1,.5,4.5-6,5.1-8.1,1.7-.6,2.6-3.9,4.3-2.4,6.4,2.4,4.5-3.7,3.4-1.5,5.1-4.9,1.6-4.5,6h-8.3c0,.1-6.1,0-6.1,0l-4.2,2.7-2.6,2.9-3.2-.6-2.3-2.7-1.7-4.4-6-1.2-.5-2.7,2.4-2.9,1-2.1-2.2-2.3,2-5.1-2.4-4.6,2.8-.6.4-3.8,1-1.1.4-6.1,2.9-2.1-1.6-3.9-3.8-.2-1.1,1h-3.7l-1.5-3.8-2.7,1.1-2.3,2,.6-5.5-2.4-3.3L10.1.8l7.6,1.3h8.4l6.6,1.3,5.3-.5,10.1.4h.2,0Z"/>
</svg>