<?xml version="1.0" encoding="UTF-8"?>
<svg id="Layer_1" xmlns="http://www.w3.org/2000/svg" version="1.1" viewBox="0 0 64.4 98.4">
  <!-- Generator: Adobe Illustrator 29.0.0, SVG Export Plug-In . SVG Version: 2.1.0 Build 186)  -->
  <defs>
    <style>
      .st0 {
        fill: #888d91;
        stroke: #010101;
        stroke-miterlimit: 10;
        stroke-width: 1.5px;
      }
    </style>
  </defs>
  <path id="SE" class="st0" d="M63.6,21.5l-8.6,2-4.3,4.8,1.6,4.3-7.6,5.5-9.5,6.1-2.6,9.9,4.5,5,5.9,4-4,8.1-5.6,1.7-.7,12.2-2.6,7-7-.7-2.7,5.9-6.7.4-2.3-7-5.5-8.4-5.1-10.3,2.2-4.2,4.2-4.9,1-8.4-3.8-3.5-1.2-9.4,2.9-6.6h5.3c0,.1,1.6-2.6,1.6-2.6l-2.2-2.4,7-9.7,4.2-7.4,2.8-4.8h4.9l.7-3.8,9.8,1.1V1l3.1-.2,7.3,3.3,8.8,4.5,2.2,10.4,2.2,2.7h0l-.2-.2h0Z"/>
</svg>