<?xml version="1.0" encoding="UTF-8"?>
<svg id="Layer_1" xmlns="http://www.w3.org/2000/svg" version="1.1" viewBox="0 0 124.4 50.3">
  <!-- Generator: Adobe Illustrator 29.0.0, SVG Export Plug-In . SVG Version: 2.1.0 Build 186)  -->
  <defs>
    <style>
      .st0 {
        fill: #888d91;
        stroke: #010101;
        stroke-miterlimit: 10;
        stroke-width: 1.5px;
      }
    </style>
  </defs>
  <path id="Path_85" class="st0" d="M96.7,4.9l6.7-.4,6.8,3.9,1.6,2.7v3.8l5.3,2,2.9,2.2-4,2.3,3.5,8.9-.9,2.4,4.6,6.2-2.9,1.3-2.6-2-7.7-1.1-2.6,1.2-7.2,1.2h-3.5c0-.1-7,2.8-7,2.8h-5.4l-3.7-1.5-6.8,2.2-2.3-1.5.2,4.3-1.5,1.7-1.6,1.7-2.8-3.5,2.1-2.9-3.9.7-5.6-1.8-3.9,4.5-9.8.9-5.7-4.2-7-.2-1.2,3.2-4.4,1-6.6-4.2h-7.1c0,.1-4.6-7.7-4.6-7.7l-5.1-4.3,2.4-6.1-4.4-3.8,6.2-7.5,9.8-.2,2-6,12.2,1.1,6.8-5,7.1-2.2,10.4-.2,12,5.5,9.7,3.1,7.1-1.2,5.6.7,6.7-4.2v.2h.1Z"/>
</svg>