<?xml version="1.0" encoding="UTF-8"?>
<svg id="Layer_1" xmlns="http://www.w3.org/2000/svg" version="1.1" viewBox="0 0 55.6 66.3">
  <!-- Generator: Adobe Illustrator 29.0.0, SVG Export Plug-In . SVG Version: 2.1.0 Build 186)  -->
  <defs>
    <style>
      .st0 {
        fill: #888d91;
        stroke: #010101;
        stroke-miterlimit: 10;
        stroke-width: 1.5px;
      }
    </style>
  </defs>
  <path id="Path_43" class="st0" d="M8.8,36.2l-4.3-1.5H.8c0,.1,1.5-3.9,1.5-3.9l-1.1-3.9,4.9-.4,6,4.6-3.3,5h0Z"/>
  <path id="Path_44" class="st0" d="M28.2,1.1l-6.2,7.9,5.7-1h6.2l-1.6,6-5.3,6.6,6,.4.4.9,5.1,8.7,3.9,1.2,3.5,8.6,1.7,2.9,7.2,1.3-.7,4.9-2.9,2.2,2.3,3.9-5.4,3.9h-7.9c0-.1-10.3,2.1-10.3,2.1l-2.7-1.6-4,3.5-5.5-.9-4.4,2.9-3.1-1.5,8.9-7.9,5.4-1.7-9.3-1.2-1.6-3.1,6.2-2.3-3.1-4,1.2-4.9,8.7.7,1-4.4-3.8-4.5h0c0-.1-7-1.5-7-1.5l-1.3-2,2.2-3.3-1.8-2.1-3.2,3.5v-7.2l-2.8-3.7,2.3-7.6L16.8.9l4.4.5,6.8-.6.3.3h-.1Z"/>
</svg>