<?xml version="1.0" encoding="UTF-8"?>
<svg id="Layer_1" xmlns="http://www.w3.org/2000/svg" version="1.1" viewBox="0 0 379.8 190.3">
  <!-- Generator: Adobe Illustrator 29.0.0, SVG Export Plug-In . SVG Version: 2.1.0 Build 186)  -->
  <defs>
    <style>
      .st0 {
        fill: #888c90;
      }
    </style>
  </defs>
  <path id="Path_108" class="st0" d="M248.1,10.8l-7.5,2.4-5.7,3.1-5.6,3.3-.6,1.1,7-1.6,2.6,2.6,5.6-1.8,6-2.6,6.6-2.6-3.8,4,3.1,1,3.1,2.9,6.2-1.7,6.2-.6.4,2.2,1.8.2,1.5.2,1.8,3.1-5.7.7h-.1l-4.5-.9-5.5,1.5-4.5.7-5.7,5-3.7,2.8.5.9,6.7-5h.9l-5.7,6-3.5,5.4-3.1,4.4-.7,3.8-1,1.8-.7,2.1v4c.1,0,.5.6.5.6h2.2c0-.1,2-1,2-1l1.7-1,4-3.8,2.2-5.1v-4.8c-.1,0,1.6-3.3,1.6-3.3l3.2-3.8,2.6-2.7,3.3-1.8-.5,2.6,2.7-3.8,1.6-.7,2.1-2.9,4.6,1.6,3.4,2.9-1,3.5-2,3.5-4.6,3.1-.5,2h1.2l5.3-3.3,2,.7-.6,4.5-.9,3.2-4.5,4.3-2.4,2.7-3.3,2.9,3.3,1.6,3.1.5,4.9-1.1,4.5-2.1,3.7-1.1,5.6-2.2,7.1-4.6v-.7c0,0,.5-2.3.5-2.3l3.3-1,4.8.4,4.9.6,5.6-2.6.7-3.1-.2-1.1,8.3-5.4,3.3-1.3h9.5c0-.1,11.4-.1,11.4-.1l1.3-1.8,2.1-.4,3.1-1.2,3.4-3.5,3.9-6,6.7-5.7,1.3,2,4.5-1.2,2,2.2-3.5,10.4,2.7,4.4.2,2.6-7.8,3.7-7.3,2.7-7.3,2.3-4.9,4.6-1.6,1.7-1.5,4.2.9,4,2.6.2.2-2.8,1.3,1.7-1.2,2.2-4.6,1.2h-3.1c0-.1-5.1,1.2-5.1,1.2l-2.8.4-3.8.4-6.1,2.3,9.9-1.5,1.3,1.5-9.7,2.3h-4l.5-1-2.6,2.2,1.7.4-3.1,5.6-6.5,6v-2.1c0,0-1.2-.4-1.2-.4l-1.5-2v4.3l1.2,1.3-.7,2.9-2.9,3.1-5.5,6.2-.5-.2,3.5-5.4-2.4-2.9,1.2-6.6-2.3,3.4v5l-3.9-1.2,3.7,2.4-1.8,7.5,1.7.6v2.7l-1.2,7.8-5.6,5.7-7.5,2.3-5.4,4.6-3.4.5-4.2,2.9-1.6,2.6-8.4,5.1-4.6,3.8-4.3,4.6-2.3,5.5v5.5l.7,6.7,1.8,5.5-.6,3.4,1.6,9-1.2,5.4-.7,3.1-2.4,4.8-2.2,1-3.2-1-.5-3.4-2.2-1.8-2.4-6.7-2-6-.5-3.1,2.4-5.3-1-4.3-3.8-6.6-2.3-1.2-7.5,3.7-1.1-.5-2.4-3.7-3.7-2-7.8,1.1-5.6-1-5.3.6-3.1,1.2.7,2.1-.9,3.2,1,1.6-1.5,1-2.2-1.1-2.8,1.5-4.8-.2-4-4.2-6,1-4.4-1.8-4.3.6-6.1,1.8-7.5,5.7-7.5,3.4-4.5,3.7-2.3,3.5-1.2,5.5-.5,3.7.7,2.7-2.7.2-4.4-1.7-4.8-2.4-1.1-3.7-.2-5.5-2.9-4.4-1.1-4.6-2-5.4-3.9-3.2-5.5.2-5.9,6.1-4.9-2.3-2.8-2.3-.5-4.4-1-4-2.9-3.4-2.6-2.6-1.6-2.8h-11.5l-1,3.3h-18.5l-13.3-5.5-8.6-3.8,1.1-1.6-8.7.9-7.7.6.4-3.9-2.6-4.5-2.7-1v-2.2c.1,0-3.4-.5-3.4-.5l-1.5-2.1-5.9-.7-1.1-1.3,1-4.3-3.1-7.8-.6-10.9,1.1-1.8-1.6-2.6-1.8-6.6,2.2-6.4-1.1-4.3,4.8-6.5,3.4-6.6,1.3-6,6.7-7.3,4.9-7,4.9-7,5.3-10.4,2.2-6.5.5-3.5,1.7-1.6,7.1,2.7-1.2,7.2,2.7-2.1,3.1-6.2,2-6.2h167.5l1.6-2.9h2.1l-1.1,4.2,1.2,1.2,4,.5,5.6,1.2,4.8,2.3,5.4-1,6.6,2.1v.3Z"/>
</svg>