<?xml version="1.0" encoding="UTF-8"?>
<svg id="Layer_1" xmlns="http://www.w3.org/2000/svg" version="1.1" viewBox="0 0 70.9 70.9">
  <!-- Generator: Adobe Illustrator 29.0.0, SVG Export Plug-In . SVG Version: 2.1.0 Build 186)  -->
  <defs>
    <style>
      .st0 {
        fill: #ed6a1d;
      }
    </style>
  </defs>
  <path class="st0" d="M54.8,31h.2c.2-.2.3-.4.3-.6s-.1-.4-.3-.5l-2.2-1.1,2.1-1.4c.2-.1.3-.3.3-.5,0-.2-.1-.4-.3-.5l-14.3-8.5c-.2-.1-.4-.1-.6,0l-16.9,10.6-6.5,4.1c-.2.1-.3.3-.3.5,0,.2.1.4.3.5l1.4.8-2.2,1.4c-.2.1-.3.3-.3.5,0,.2.1.4.3.5l2.1,1.2-2.1,1.3c-.2.1-.3.3-.3.5,0,.2.1.4.3.5l2.1,1.2-2.1,1.3c-.2.1-.3.3-.3.5,0,.2.1.4.3.5l2.2,1.3s0,0,0,0l13.1,7.7c0,0,.2,0,.3,0s.2,0,.3,0l7-4.5c.3-.2.4-.6.2-.8-.2-.3-.6-.4-.8-.2l-6.7,4.3-14.2-8.3,1.9-1.2,12,7c0,0,.2,0,.3,0s.2,0,.3,0l7-4.5c.3-.2.4-.6.2-.8-.2-.3-.6-.4-.8-.2l-6.7,4.3-14.1-8.3,1.8-1.2,12,7c0,0,.2,0,.3,0s.2,0,.3,0l7-4.5c.3-.2.4-.6.2-.8-.2-.3-.6-.4-.8-.2l-6.7,4.3-14.1-8.3,1.8-1.2,12,7c0,0,.2,0,.3,0s.2,0,.3,0l7-4.5c.3-.2.4-.6.2-.8-.2-.3-.6-.4-.8-.2l-6.7,4.3-12.1-7.1s0,0,0,0l-1.3-.8,5.6-3.5,2.7-1.7,13.7,8.2v10.5c0,.2.1.4.3.5,0,0,.2,0,.3,0s.2,0,.3,0l5-2.9c.2-.1.3-.3.3-.5v-11c0-.2-.1-.4-.3-.5l-14-7.8,8.3-5.2,13.1,7.8-5.6,3.6c-.3.2-.4.6-.2.8.1.2.3.3.5.3s.2,0,.3,0l3.2-2,1.9,1-5.7,3.6c-.3.2-.4.6-.2.8.1.2.3.3.5.3s.2,0,.3,0l3.1-2,1.9,1-5.6,3.6c-.3.2-.4.6-.2.8.1.2.3.3.5.3s.2,0,.3,0l3.1-2,1.9,1-5.7,3.6c-.3.2-.4.6-.2.8.1.2.3.3.5.3s.2,0,.3,0l6.5-4.2c.2-.1.3-.4.2-.7,0,0,0-.1,0-.2,0-.1-.2-.2-.3-.3l-2.2-1.1,2.2-1.4c.3-.2.4-.6.2-.8,0,0-.1-.2-.2-.2,0,0,0,0,0,0l-2.1-1.1,2.1-1.4s0,0,0,0ZM45.1,43.2l-3.8,2.2v-9.4l3.8-2.4v9.6ZM44.5,32.6l-3.7,2.4-13.1-7.8,3.2-2.1,13.6,7.5Z"/>
  <path class="st0" d="M35.4,2.8C17.5,2.8,2.8,17.5,2.8,35.4s14.6,32.6,32.6,32.6,32.6-14.6,32.6-32.6S53.4,2.8,35.4,2.8ZM35.4,65.3c-16.5,0-29.9-13.4-29.9-29.9S18.9,5.5,35.4,5.5s29.9,13.4,29.9,29.9-13.4,29.9-29.9,29.9Z"/>
</svg>