<?xml version="1.0" encoding="UTF-8"?>
<svg xmlns="http://www.w3.org/2000/svg" version="1.1" viewBox="0 0 70.9 70.9">
  <!-- Generator: Adobe Illustrator 29.0.0, SVG Export Plug-In . SVG Version: 2.1.0 Build 186)  -->
  <defs>
    <style>
      .st0 {
        fill: #14a2dc;
      }

      .st1 {
        fill: none;
        stroke: #ec008c;
        stroke-width: .2px;
      }

      .st2 {
        display: none;
      }
    </style>
  </defs>
  <g id="Circle">
    <g>
      <path class="st0" d="M57.5,37c-.3-.7-.8-1.2-1.5-1.5l-17.9-6.9,1.5-3.4s0,0,0,0c.3,0,.6,0,.9-.2.6-.2,1.1-.7,1.3-1.3l.4-1c.5-1.2,0-2.6-1.2-3.1l-8.4-3.7c-.6-.3-1.2-.3-1.8,0-.6.2-1.1.7-1.3,1.3l-.4,1c-.3.6-.3,1.2,0,1.8,0,.2.2.4.4.6l-4.5,10.2c-.3,0-.5,0-.8.2-.6.2-1.1.7-1.3,1.3l-.4,1c-.5,1.2,0,2.6,1.2,3.1l8.4,3.7h0c.3.1.6.2.9.2.9,0,1.8-.5,2.2-1.4l.4-1c.4-.9.2-1.8-.4-2.5l1.5-3.4,17.2,8.5c.4.2.8.3,1.2.3s.6,0,.9-.2c.7-.3,1.2-.8,1.5-1.4.3-.7.3-1.4,0-2.1ZM30.2,18.6l.4-1c.1-.3.4-.5.6-.6.1,0,.3,0,.4,0s.3,0,.5,0l8.4,3.7c.6.3.9.9.6,1.5l-.4,1c-.1.3-.4.5-.6.6-.3.1-.6.1-.9,0l-8.4-3.7c-.3-.1-.5-.4-.6-.6-.1-.3-.1-.6,0-.9ZM34.5,37.3l-.4,1c-.3.6-.9.9-1.5.6h0s-8.4-3.7-8.4-3.7c-.6-.3-.9-1-.6-1.5l.4-1c.1-.3.4-.5.6-.6.3-.1.6-.1.9,0l8.4,3.7c.6.3.9.9.6,1.5ZM37,28.2l-.7,1.6-2.1,4.9-8-3.5,4.3-9.7,8,3.5-1.4,3.3h0ZM37.2,30.7l.2-.5.2-.5,15.2,5.8-1.1,2.5-14.6-7.2ZM56.4,38.6c-.2.4-.5.7-.9.8-.4.1-.8.1-1.2,0l-1.6-.8,1.1-2.6,1.7.6c.4.1.7.4.8.8s.2.8,0,1.2Z"/>
      <path class="st0" d="M37.1,47.7c0-.5-.4-.8-.8-1-.4-1.6-1.8-2.8-3.5-2.8h-11c-1.7,0-3.2,1.2-3.5,2.8-.4.2-.8.5-.8,1l-.6,3.1c0,.4,0,.8.3,1.1s.6.5,1,.5h18.3c.4,0,.8-.2,1-.5s.4-.7.3-1.1l-.6-3.1ZM21.8,45.1h11c1,0,1.9.7,2.2,1.6h-15.4c.3-.9,1.2-1.6,2.2-1.6ZM36.5,51.2s0,0-.1,0h-18.3c0,0,0,0-.1,0,0,0,0,0,0-.1l.6-3.1c0,0,0-.1.1-.1h17.1c0,0,.1,0,.1.1l.6,3.1c0,0,0,0,0,.1Z"/>
      <path class="st0" d="M19.7,41.7l-1.4.2c-.3,0-.6.4-.5.7,0,.3.3.5.6.5s0,0,0,0l1.4-.2c.3,0,.6-.4.5-.7s-.4-.6-.7-.5Z"/>
      <path class="st0" d="M19.8,39.8c.3,0,.5-.2.6-.5,0-.3-.2-.6-.5-.7l-5.3-.8c-.3,0-.6.2-.7.5,0,.3.2.6.5.7l5.3.8s0,0,0,0Z"/>
      <path class="st0" d="M18.8,36.1l1.9.9c0,0,.2,0,.3,0,.2,0,.4-.1.5-.3.1-.3,0-.7-.3-.8l-1.9-.9c-.3-.1-.7,0-.8.3-.1.3,0,.7.3.8Z"/>
      <path class="st0" d="M35.4,2.8C17.5,2.8,2.8,17.5,2.8,35.4s14.6,32.6,32.6,32.6,32.6-14.6,32.6-32.6S53.4,2.8,35.4,2.8ZM35.4,65.3c-16.5,0-29.9-13.4-29.9-29.9S18.9,5.5,35.4,5.5s29.9,13.4,29.9,29.9-13.4,29.9-29.9,29.9Z"/>
    </g>
  </g>
  <g id="GUIDES" class="st2">
    <path class="st1" d="M35.4,67.9c17.9,0,32.5-14.6,32.5-32.5S53.3,3,35.4,3,3,17.5,3,35.4s14.6,32.5,32.5,32.5Z"/>
    <path class="st1" d="M35.4,65.5c16.6,0,30-13.5,30-30S52,5.4,35.4,5.4,5.4,18.9,5.4,35.4s13.5,30,30,30Z"/>
  </g>
</svg>