<?xml version="1.0" encoding="UTF-8"?>
<svg id="Layer_1" xmlns="http://www.w3.org/2000/svg" version="1.1" viewBox="0 0 70.9 70.9">
  <!-- Generator: Adobe Illustrator 29.0.0, SVG Export Plug-In . SVG Version: 2.1.0 Build 186)  -->
  <defs>
    <style>
      .st0 {
        fill: #ff6a00;
      }
    </style>
  </defs>
  <path class="st0" d="M35.4,2.8C17.5,2.8,2.8,17.5,2.8,35.4s14.6,32.6,32.6,32.6,32.6-14.6,32.6-32.6S53.4,2.8,35.4,2.8ZM35.4,65.3c-16.5,0-29.9-13.4-29.9-29.9S18.9,5.5,35.4,5.5s29.9,13.4,29.9,29.9-13.4,29.9-29.9,29.9Z"/>
  <path class="st0" d="M48.5,14.4c-3,0-5.6,1.9-6.8,4.6-1.9-.7-4-1.1-6.2-1.1h0c-4.6,0-8.9,1.7-12.1,4.6-.9-1-2.2-1.6-3.6-1.6-2.7,0-5,2.3-5,5.2s1.3,5,2.4,7.2c-.2,1-.3,2.1-.3,3.1,0,10.2,8.3,18.5,18.5,18.5s0,0,0,0h0c10.2,0,18.4-8.3,18.4-18.5s-.3-3.6-.8-5.3c1.5-3,2.7-6.4,2.7-9,0-4.2-3.3-7.7-7.4-7.7h.2ZM41.3,20.1c0,.3,0,.6-.2.9-.4-.5-.8-1-1.3-1.4.5.1,1,.3,1.4.5h0ZM36.1,19.1c1.9.3,3.6,1.7,5,3.9.2,1.9.9,4.1,1.9,6.3h-6.9s0-10.2,0-10.2ZM36.1,30.5h7.4c.2.3.3.6.5,1,.2,1.6.4,3.2.4,4.9s-.2,3.9-.5,5.7h-3.6c.5-1.4.8-2.7.8-3.8,0-3-2.2-5.5-4.9-5.8v-1.9h-.1ZM34.9,19v10.2h-7.6c1.3-5.7,4.2-9.8,7.6-10.2ZM30.7,42h-3.7c-.3-1.8-.5-3.7-.5-5.7s.2-4,.5-5.9h7.8v1.9c-2.8.3-5,2.8-5,5.8s.3,2.5.8,3.8h.1ZM31.1,19.6c-2.3,2-4,5.4-5,9.7h-2c.4-1.2.7-2.3.7-3.3s-.3-1.8-.7-2.6c2-1.8,4.4-3.1,7.1-3.8h-.1ZM15.9,26c0-2.2,1.7-4,3.8-4s3.8,1.8,3.8,4-2.7,7.4-3.8,9.2c-1.1-1.8-3.8-6.4-3.8-9.2ZM18.1,36.3v-1.4c.6,1,1,1.6,1.1,1.7.1.2.3.3.5.3s.4,0,.5-.3,2.1-3.1,3.4-6.2h2.3c-.3,1.8-.5,3.8-.5,5.9s.2,3.9.5,5.7h-6.7c-.6-1.8-1-3.7-1-5.7h-.1ZM19.5,43.2h6.5c.9,4.4,2.7,7.9,5,9.9-5.2-1.4-9.4-5-11.5-9.9ZM34.9,53.6c-3.4-.4-6.3-4.6-7.6-10.4h3.9c1.4,3.3,3.4,6.5,3.8,7v3.4h0ZM35.5,48.8c-1.2-2-4.4-7.4-4.4-10.7s2-4.6,4.4-4.6,4.4,2.1,4.4,4.6-3.1,8.7-4.4,10.7ZM36.1,53.6v-3.6c.5-.8,2.4-3.8,3.7-6.9h3.9c-1.3,5.8-4.2,9.9-7.5,10.4h-.1ZM39.9,53.1c2.3-2,4.1-5.5,5-9.9h6.5c-2.1,4.8-6.3,8.5-11.5,9.9ZM51.8,42h-6.7c.3-1.8.5-3.7.5-5.7v-2.1c1.3,2.3,2.4,3.9,2.5,4.1,0,.2.3.3.5.3s.4,0,.5-.3c0-.2,1.7-2.6,3.4-5.7.3,1.2.4,2.4.4,3.7,0,2-.4,3.9-1,5.7h-.1ZM48.5,36.9c-1.6-2.4-6.2-10.1-6.2-14.8s2.8-6.5,6.2-6.5,6.2,2.9,6.2,6.5-4.7,12.4-6.2,14.8Z"/>
  <path class="st0" d="M48.5,17.5c-2.5,0-4.5,2.1-4.5,4.6s2,4.6,4.5,4.6,4.5-2.1,4.5-4.6-2-4.6-4.5-4.6ZM48.5,25.5c-1.8,0-3.3-1.5-3.3-3.4s1.5-3.4,3.3-3.4,3.3,1.5,3.3,3.4-1.5,3.4-3.3,3.4Z"/>
  <path class="st0" d="M35.5,34.7c-1.9,0-3.4,1.5-3.4,3.4s1.5,3.4,3.4,3.4,3.4-1.5,3.4-3.4-1.5-3.4-3.4-3.4ZM35.5,40.4c-1.2,0-2.2-1-2.2-2.2s1-2.2,2.2-2.2,2.2,1,2.2,2.2-1,2.2-2.2,2.2Z"/>
  <path class="st0" d="M22.7,26c0-1.7-1.3-3.1-3-3.1s-3,1.4-3,3.1,1.3,3.1,3,3.1,3-1.4,3-3.1ZM17.9,26c0-1,.8-1.9,1.8-1.9s1.8.8,1.8,1.9-.8,1.9-1.8,1.9-1.8-.8-1.8-1.9Z"/>
</svg>