<?xml version="1.0" encoding="UTF-8"?>
<svg id="Layer_1" xmlns="http://www.w3.org/2000/svg" version="1.1" viewBox="0 0 70.9 70.9">
  <!-- Generator: Adobe Illustrator 29.0.0, SVG Export Plug-In . SVG Version: 2.1.0 Build 186)  -->
  <defs>
    <style>
      .st0 {
        fill: #000;
      }
    </style>
  </defs>
  <path class="st0" d="M35.4,2.8C17.5,2.8,2.8,17.5,2.8,35.4s14.6,32.6,32.6,32.6,32.6-14.6,32.6-32.6S53.4,2.8,35.4,2.8ZM35.4,65.3c-16.5,0-29.9-13.4-29.9-29.9S18.9,5.5,35.4,5.5s29.9,13.4,29.9,29.9-13.4,29.9-29.9,29.9Z"/>
  <path class="st0" d="M50.4,16.3c0-3.5-2.7-6.4-6.1-6.4s-6.1,2.9-6.1,6.4,0,1.1.2,1.7c-.9-.1-1.9-.3-2.8-.3,0,0,0,0,0,0s0,0,0,0c0,0,0,0,0,0-10.2,0-18.5,8.3-18.5,18.5s8.3,18.5,18.5,18.5,0,0,0,0,0,0,0,0c0,0,0,0,0,0,10.2,0,18.5-8.3,18.5-18.5s-2.2-9.8-5.6-13.2c1.1-2.3,2-4.8,2-6.8ZM31.1,19.6c-2.3,1.9-4.1,5.4-5,9.7h-6.4c2.1-4.7,6.3-8.3,11.5-9.7ZM18.1,36.3c0-2.1.4-4,1.1-5.9h6.7c-.3,1.8-.5,3.8-.5,5.9s.2,3.9.5,5.7h-6.8c-.6-1.8-1-3.7-1-5.7ZM19.5,43.2h6.5c1,4.4,2.8,7.9,5.1,9.9-5.3-1.3-9.6-5-11.7-9.9ZM34.9,53.6c-3.4-.4-6.3-4.6-7.6-10.4h7.6v10.4ZM34.9,42h-7.9c-.3-1.8-.5-3.7-.5-5.7s.2-4,.5-5.9h7.8v11.5ZM34.9,29.3h-7.6c1.3-5.7,4.2-9.8,7.6-10.2v10.2ZM44.3,11.2c2.7,0,4.9,2.3,4.9,5.2s-3.6,9.7-4.9,11.9c-1.3-2.1-4.9-8.2-4.9-11.9s2.2-5.2,4.9-5.2ZM36.1,19.1c1,.1,2,.6,2.9,1.4,1.3,3.7,3.7,7.6,4.5,8.8h-7.4v-10.2ZM36.1,30.5h7.7c.3,1.8.5,3.8.5,5.9s-.2,3.9-.5,5.7h-7.8v-11.5ZM36.1,53.6v-10.4h7.5c-1.3,5.8-4.2,9.9-7.5,10.4ZM39.8,53.1c2.3-2,4.1-5.5,5-9.9h6.5c-2.1,4.8-6.3,8.5-11.5,9.9ZM52.8,36.3c0,2-.4,3.9-1,5.7h-6.7c.3-1.8.5-3.7.5-5.7s-.2-4-.5-5.9h6.6c.7,1.8,1.1,3.8,1.1,5.9ZM51.2,29.3h-6.2c.5-.8,1.7-2.7,2.8-4.9,1.4,1.4,2.6,3.1,3.4,4.9Z"/>
  <path class="st0" d="M47.9,16.4c0-2.1-1.7-3.8-3.7-3.8s-3.7,1.7-3.7,3.8,1.7,3.8,3.7,3.8,3.7-1.7,3.7-3.8ZM41.8,16.4c0-1.4,1.1-2.6,2.5-2.6s2.5,1.2,2.5,2.6-1.1,2.6-2.5,2.6-2.5-1.2-2.5-2.6Z"/>
</svg>