<?xml version="1.0" encoding="UTF-8"?>
<svg id="Layer_1" xmlns="http://www.w3.org/2000/svg" version="1.1" viewBox="0 0 70.9 70.9">
  <!-- Generator: Adobe Illustrator 29.0.0, SVG Export Plug-In . SVG Version: 2.1.0 Build 186)  -->
  <defs>
    <style>
      .st0 {
        fill: #000;
      }
    </style>
  </defs>
  <path class="st0" d="M35.4,2.8C17.5,2.8,2.8,17.5,2.8,35.4s14.6,32.6,32.6,32.6,32.6-14.6,32.6-32.6S53.4,2.8,35.4,2.8ZM35.4,65.3c-16.5,0-29.9-13.4-29.9-29.9S18.9,5.5,35.4,5.5s29.9,13.4,29.9,29.9-13.4,29.9-29.9,29.9Z"/>
  <path class="st0" d="M57.5,35.4c-.1-.3-.5-.5-.8-.3l-6.8,2.7c-3.8-2.7-11.7-8.3-12.5-8.7-1.3-.6-2.9,0-3.3.3-.6.3-1.1.6-1.5,1-.5.4-1,.7-1.6,1-1,.4-2.5.6-3.4,0-.5-.3-.7-.7-.7-1.1,0-.7.4-1.5,1.2-2.1,1.4-1.3,2.8-2.6,4.1-3.9,1.1-1.1,2.7-1.6,4.2-1.4l9.7,1.2c0,0,.2,0,.3,0l5.9-1.8c.3,0,.5-.4.4-.8,0-.3-.4-.5-.8-.4l-5.8,1.8-9.6-1.2c-3.6-.4-5.5,2-5.9,2.6h-4.5l-4.1-2.5c-.3-.2-.7,0-.8.2-.2.3,0,.7.2.8l4.2,2.6c0,0,.2,0,.3,0h3.4l-2.1,1.8c-1.1.9-1.7,2-1.7,3.1,0,.6.3,1.4,1.3,2.1,1.4.9,3.3.7,4.6.1.7-.3,1.2-.7,1.8-1.1.5-.3.9-.6,1.4-.9.7-.3,1.6-.6,2.3-.3.7.3,8.9,6.1,13.9,9.7.4.2.6.6.7,1,0,.4,0,.9-.3,1.3-.5.8-1.6,1-2.4.5l-6.6-4.5c-.3-.2-.6-.1-.8.2-.2.3-.1.6.2.8l1,.7s0,0,0,0l4.9,3.3c.4.3.6.6.7,1.1,0,.4,0,.9-.3,1.3-.5.8-1.6,1-2.4.4l-5.4-3.6-.3-.2s0,0,0,0l-.5-.3c-.3-.2-.6-.1-.8.2-.2.3-.1.6.2.8l5.4,3.7c.4.3.6.6.7,1.1,0,.4,0,.9-.3,1.3-.5.8-1.6,1-2.4.4l-1.8-1.3s0,0,0,0l-2.3-1.6c-.3-.2-.6-.1-.8.2-.2.3-.1.6.2.8l3.4,2.3c.4.3.6.6.7,1.1,0,.4,0,.9-.3,1.3-.5.8-1.6,1-2.4.4l-1.9-1.3.3-.5c.5-.6.6-1.4.5-2.2-.1-.8-.5-1.4-1.2-1.9-.6-.4-1.4-.6-2.1-.5,0-.3,0-.6,0-1-.1-.8-.5-1.4-1.2-1.9-.7-.5-1.6-.7-2.4-.5,0-.2,0-.4,0-.6-.1-.8-.5-1.4-1.2-1.9-.8-.6-1.8-.7-2.7-.4,0,0,0-.2,0-.3-.1-.8-.6-1.4-1.2-1.9-1.3-.9-3.2-.6-4.1.7l-1,1.4-1.1-2.7c0-.1-.1-.2-.2-.3l-5-3.3c-.3-.2-.6-.1-.8.2-.2.3-.1.6.2.8l4.8,3.2,1.3,3.3-.8,1.1c-.5.6-.6,1.4-.5,2.2.1.8.6,1.4,1.2,1.9h0c.7.5,1.5.6,2.3.5,0,.2,0,.4,0,.6.1.8.5,1.4,1.2,1.9,1,.7,2.4.7,3.4,0,.2.7.6,1.3,1.1,1.7,1.1.8,2.6.7,3.6,0,.2.6.6,1.2,1.1,1.6,1.1.8,2.7.7,3.7-.2l1.9,1.3c.5.4,1.1.5,1.7.5.9,0,1.8-.4,2.4-1.2.4-.6.6-1.3.5-2,1.1.2,2.3-.2,3-1.2.4-.6.6-1.4.5-2.1,1.1.2,2.3-.2,3-1.2.4-.6.6-1.4.5-2.1.1,0,.3,0,.4,0,.9,0,1.8-.4,2.4-1.3.4-.6.6-1.4.5-2.2-.1-.7-.6-1.4-1.2-1.8-.1,0-.3-.2-.5-.3l6.1-2.4c.3-.1.5-.5.3-.8ZM22.6,44.8c-.6.7-1.6.8-2.3.3-.4-.3-.6-.7-.7-1.1,0-.4,0-.9.3-1.3l2.7-3.6c.6-.8,1.6-1,2.4-.4.4.3.6.7.7,1.1,0,.3,0,.7-.1,1,0,0,0,0,0,.1l-2.8,3.9ZM26.2,47.8c-.6.8-1.7.9-2.4.4-.4-.3-.6-.7-.7-1.1,0-.4,0-.9.3-1.3v-.2c.2,0,.2,0,.3-.1l2.7-3.6c0-.1.1-.2.2-.3.6-.6,1.6-.7,2.3-.2.4.3.6.7.7,1.1,0,.4,0,.9-.3,1.3l-3,4.1ZM31.6,48.3c0,0-.1.1-.1.2l-.7,1c-.6.8-1.7.9-2.4.4-.4-.3-.6-.7-.7-1.1,0-.4,0-.9.3-1.3l2.1-2.9c.3-.5.9-.7,1.4-.7s.7.1,1,.3c.4.3.6.7.7,1.1,0,.4,0,.9-.3,1.3l-.2.3c-.1.1-.2.2-.3.4l-.7,1ZM36,50.1l-.7,1c-.6.8-1.7.9-2.4.4-.4-.3-.6-.7-.7-1.1,0-.4,0-.8.2-1.1l1-1.4c.6-.5,1.5-.6,2.2,0,.4.3.6.7.7,1.1,0,.4,0,.9-.3,1.3Z"/>
</svg>