<?xml version="1.0" encoding="UTF-8"?>
<svg xmlns="http://www.w3.org/2000/svg" version="1.1" viewBox="0 0 70.9 70.9">
  <!-- Generator: Adobe Illustrator 29.0.0, SVG Export Plug-In . SVG Version: 2.1.0 Build 186)  -->
  <defs>
    <style>
      .st0 {
        fill: #fff;
      }

      .st1 {
        fill: none;
        stroke: #fff;
        stroke-width: .2px;
      }

      .st2 {
        display: none;
      }
    </style>
  </defs>
  <g id="Circle">
    <g>
      <path class="st0" d="M22.9,29.6c2.4,0,4.3-1.9,4.3-4.3s-1.9-4.3-4.3-4.3-4.3,1.9-4.3,4.3,1.9,4.3,4.3,4.3ZM22.9,22.1c1.7,0,3.1,1.4,3.1,3.1s-1.4,3.1-3.1,3.1-3.1-1.4-3.1-3.1,1.4-3.1,3.1-3.1Z"/>
      <path class="st0" d="M35.6,23.5c2.2,0,4-1.8,4-4s-1.8-4-4-4-4,1.8-4,4,1.8,4,4,4ZM35.6,16.7c1.5,0,2.8,1.3,2.8,2.8s-1.3,2.8-2.8,2.8-2.8-1.3-2.8-2.8,1.3-2.8,2.8-2.8Z"/>
      <path class="st0" d="M40.5,34.8c0-2.7-2.2-4.9-4.9-4.9s-4.9,2.2-4.9,4.9,2.2,4.9,4.9,4.9,4.9-2.2,4.9-4.9ZM31.8,34.8c0-2.1,1.7-3.7,3.7-3.7s3.7,1.7,3.7,3.7-1.7,3.7-3.7,3.7-3.7-1.7-3.7-3.7Z"/>
      <path class="st0" d="M43.7,46v-.5c0-1.2-.5-4.9-6.3-4.9h-3.7c-4.7,0-6.4,2.5-6.4,4.9v.4c-.6.5-1,1.2-1,2.1v3.9h1.2v-3.9c0-.8.6-1.4,1.4-1.4h13.2c.8,0,1.4.6,1.4,1.4v3.9h1.2v-3.9c0-.8-.4-1.6-1-2.1ZM42.1,45.4h-13.2c-.1,0-.3,0-.4,0,0-2.3,2-3.6,5.2-3.6h3.7c3.2,0,5.1,1.3,5.1,3.6-.1,0-.3,0-.4,0Z"/>
      <path class="st0" d="M48,29.6c2.4,0,4.3-1.9,4.3-4.3s-1.9-4.3-4.3-4.3-4.3,1.9-4.3,4.3,1.9,4.3,4.3,4.3ZM48,22.1c1.7,0,3.1,1.4,3.1,3.1s-1.4,3.1-3.1,3.1-3.1-1.4-3.1-3.1,1.4-3.1,3.1-3.1Z"/>
      <path class="st0" d="M56,34.4c-.5-2.9-2.2-4.6-4.7-4.6s-3.5,1.1-4.3,3.2l-.2.5-1-2.1c-.1-.2-.3-.3-.5-.3h-2.9v-1.7c0-3.3-1.5-5.1-4.5-5.3-.2,0-.3,0-.4.1l-1.7,1.4-1.7-1.4c-.1,0-.3-.1-.4-.1-3.1.2-4.5,1.9-4.5,5.3v1.7h-3.1c-.2,0-.4.1-.5.3l-1.1,2.2-.3-.7c-.8-2.1-2.4-3.2-4.3-3.2s-4.3,1.6-4.7,4.6l-.9,6.8c0,.3.2.6.5.7,0,0,0,0,0,0,.3,0,.6-.2.6-.5l.9-6.7c.4-2.4,1.6-3.5,3.6-3.5s2.5.9,3.2,2.5l1.7,3.8c0,.2.3.3.5.3l4.1.5c.3,0,.5.3.5.8s-.1.9-1.1.9h-4.9c-.6,0-1-.3-1.3-1l-1.8-3.4c-.2-.3-.5-.4-.8-.2-.3.2-.4.5-.2.8l1.8,3.4s0,0,0,.1l-2.7,5.6c0,.2,0,.4,0,.6.1.2.3.3.5.3h6.5v-1.2h-5.6l2.1-4.2c.4.3.9.5,1.5.5h4.9c1.4,0,2.3-.8,2.3-2.1s-.5-1.7-1.4-2c0,0,0,0,0,0l-.4-1.3c0-.3-.4-.5-.7-.4-.3,0-.5.4-.4.7l.2.8-2.7-.3-.6-1.4,1.4-2.8h4.4v-1.2h-.5v-1.7c0-2.6.9-3.8,3.2-4l1.9,1.6c.2.2.5.2.8,0l1.9-1.6c2.3.2,3.2,1.4,3.2,4v1.7h-.7v1.2h4.5l1.3,2.6-.7,1.5-3.8.5s0,0-.1,0c-.9.3-1.4,1-1.4,2s.9,2.1,2.3,2.1h4.9c.6,0,1.1-.2,1.6-.6l2.1,4.3h-5.9v1.2h6.8c.2,0,.4-.1.5-.3.1-.2.1-.4,0-.6l-2.8-5.7,1.8-3.3c.2-.3,0-.7-.2-.8-.3-.2-.7,0-.8.2l-1.8,3.4c-.3.6-.7.9-1.3.9h-4.9c-1,0-1.1-.5-1.1-.9s.2-.8.5-.8l4.1-.5c.2,0,.4-.2.5-.3l1.7-3.8c.7-1.6,1.8-2.5,3.2-2.5s3.2,1.2,3.6,3.5l.9,6.8c0,.3.3.5.6.5s0,0,0,0c.3,0,.6-.3.5-.7l-.9-6.8Z"/>
      <path class="st0" d="M35.4,2.8C17.5,2.8,2.8,17.5,2.8,35.4s14.6,32.6,32.6,32.6,32.6-14.6,32.6-32.6S53.4,2.8,35.4,2.8ZM35.4,65.3c-16.5,0-29.9-13.4-29.9-29.9S18.9,5.5,35.4,5.5s29.9,13.4,29.9,29.9-13.4,29.9-29.9,29.9Z"/>
    </g>
  </g>
  <g id="GUIDES" class="st2">
    <path class="st1" d="M35.4,67.9c17.9,0,32.5-14.6,32.5-32.5S53.3,3,35.4,3,3,17.5,3,35.4s14.6,32.5,32.5,32.5Z"/>
    <path class="st1" d="M35.4,65.5c16.6,0,30-13.5,30-30S52,5.4,35.4,5.4,5.4,18.9,5.4,35.4s13.5,30,30,30Z"/>
  </g>
</svg>