<?xml version="1.0" encoding="UTF-8"?>
<svg id="Layer_1" xmlns="http://www.w3.org/2000/svg" version="1.1" viewBox="0 0 70.9 70.9">
  <!-- Generator: Adobe Illustrator 29.0.0, SVG Export Plug-In . SVG Version: 2.1.0 Build 186)  -->
  <defs>
    <style>
      .st0 {
        fill: #d50f34;
      }
    </style>
  </defs>
  <path class="st0" d="M51.1,51.3h-2.2v-23.1l-13.7-6.8v-7.4l-13.2,7.4v29.9h-2.2c-.3,0-.6.3-.6.6s.3.6.6.6h31.3c.3,0,.6-.3.6-.6s-.3-.6-.6-.6ZM47.7,28.9v22.4h-3.9v-3.9h-4.6v3.9h-3.9v-28.6l12.5,6.2ZM42.5,51.3h-2.2v-2.7h2.2v2.7ZM23.2,22.1l10.8-6.1v5.7s0,0,0,0v29.5h-10.8v-29.2Z"/>
  <path class="st0" d="M26.6,23.1v4.3h4.4v-4.3h-4.4ZM29.8,26.2h-2v-1.9h2v1.9Z"/>
  <path class="st0" d="M26.6,32.9h4.4v-4.3h-4.4v4.3ZM27.8,29.8h2v1.9h-2v-1.9Z"/>
  <path class="st0" d="M26.6,38.4h4.4v-4.3h-4.4v4.3ZM27.8,35.2h2v1.9h-2v-1.9Z"/>
  <path class="st0" d="M26.6,43.9h4.4v-4.3h-4.4v4.3ZM27.8,40.7h2v1.9h-2v-1.9Z"/>
  <path class="st0" d="M40.8,30.1h-4.4v4.3h4.4v-4.3ZM39.6,33.2h-2v-1.9h2v1.9Z"/>
  <path class="st0" d="M46.4,30.1h-4.4v4.3h4.4v-4.3ZM45.2,33.2h-2v-1.9h2v1.9Z"/>
  <path class="st0" d="M40.8,35.6h-4.4v4.3h4.4v-4.3ZM39.6,38.7h-2v-1.9h2v1.9Z"/>
  <path class="st0" d="M46.4,35.6h-4.4v4.3h4.4v-4.3ZM45.2,38.7h-2v-1.9h2v1.9Z"/>
  <path class="st0" d="M40.8,41.1h-4.4v4.3h4.4v-4.3ZM39.6,44.2h-2v-1.9h2v1.9Z"/>
  <path class="st0" d="M46.4,41.1h-4.4v4.3h4.4v-4.3ZM45.2,44.2h-2v-1.9h2v1.9Z"/>
  <path class="st0" d="M26.6,49.3h4.4v-4.3h-4.4v4.3ZM27.8,46.2h2v1.9h-2v-1.9Z"/>
  <path class="st0" d="M35.4,2.8C17.5,2.8,2.8,17.5,2.8,35.4s14.6,32.6,32.6,32.6,32.6-14.6,32.6-32.6S53.4,2.8,35.4,2.8ZM35.4,65.3c-16.5,0-29.9-13.4-29.9-29.9S18.9,5.5,35.4,5.5s29.9,13.4,29.9,29.9-13.4,29.9-29.9,29.9Z"/>
</svg>