<?xml version="1.0" encoding="UTF-8"?>
<svg id="Layer_1" xmlns="http://www.w3.org/2000/svg" version="1.1" viewBox="0 0 70.9 70.9">
  <!-- Generator: Adobe Illustrator 29.0.0, SVG Export Plug-In . SVG Version: 2.1.0 Build 186)  -->
  <defs>
    <style>
      .st0 {
        fill: #fff;
      }
    </style>
  </defs>
  <path class="st0" d="M35.4,2.8C17.5,2.8,2.8,17.5,2.8,35.4s14.6,32.6,32.6,32.6,32.6-14.6,32.6-32.6S53.4,2.8,35.4,2.8ZM35.4,65.3c-16.5,0-29.9-13.4-29.9-29.9S18.9,5.5,35.4,5.5s29.9,13.4,29.9,29.9-13.4,29.9-29.9,29.9Z"/>
  <path class="st0" d="M47.8,21.8h2.9c.3,0,.6-.3.6-.6s-.3-.6-.6-.6h-14.8v-4.1c0-.3-.3-.6-.6-.6s-.6.3-.6.6v4.1h-14.8c-.3,0-.6.3-.6.6s.3.6.6.6h2.9l-6.8,12.8h-.8v.6c.2,4.2,3.6,7.5,7.9,7.5s7.7-3.3,7.9-7.5v-.6s-.8,0-.8,0l-6.8-12.8h11.3v28.8s0,0,0,0h-6.9c-.3,0-.6.3-.6.6s.3.6.6.6h14.9c.3,0,.6-.3.6-.6s-.3-.6-.6-.6h-6.9s0,0,0,0v-28.8h11.3l-6.8,12.8h-.8v.6c.2,4.2,3.6,7.5,7.9,7.5s7.7-3.3,7.9-7.5v-.6s-.8,0-.8,0l-6.8-12.8ZM23.1,41.5c-3.4,0-6.2-2.5-6.6-5.8h13.2c-.4,3.3-3.2,5.8-6.6,5.8ZM17.3,34.6l5.7-10.8,5.7,10.8h-11.4ZM47.5,23.8l5.7,10.8h-11.4l5.7-10.8ZM47.5,41.5c-3.4,0-6.2-2.5-6.6-5.8h13.2c-.4,3.3-3.2,5.8-6.6,5.8Z"/>
  <path class="st0" d="M45.2,52.5h-19.9c-.3,0-.6.3-.6.6s.3.6.6.6h19.9c.3,0,.6-.3.6-.6s-.3-.6-.6-.6Z"/>
</svg>