<?xml version="1.0" encoding="UTF-8"?>
<svg id="Layer_1" xmlns="http://www.w3.org/2000/svg" version="1.1" viewBox="0 0 283 70.8">
  <!-- Generator: Adobe Illustrator 29.0.0, SVG Export Plug-In . SVG Version: 2.1.0 Build 186)  -->
  <defs>
    <style>
      .st0 {
        fill: #fff;
        fill-rule: evenodd;
      }
    </style>
  </defs>
  <path class="st0" d="M283,44.2c0-7.9-6.4-9.9-13.3-12.2-2.4-.8-5.4-2-5.4-5.2s2.2-5.3,6.3-5.3,5.2.3,8.9,1.5l1.3-4.9c-4.2-1.7-8-2.4-10.9-2.4-7.9,0-13,4.4-13,11.8s5.9,9.6,12.4,11.7c4.9,1.6,6.2,3,6.2,5.9s-2.8,5.9-8.1,5.9-7.2-1.3-11.1-2.6l-1.3,5.1c4.3,2.1,10.5,3.4,13.7,3.4,8.3,0,14.3-4.8,14.3-12.7ZM256.2,16.7h-7.3l-9.5,29.1-10.9-29.5-8,.8,15.1,39.2-1.1,2.8c-2.1,5.3-4.2,6.2-7.9,6.2s-1.7-.2-3-.5l-1.4,5.1c2.2.5,4.9.9,6.4.9,5.4,0,9.6-2.8,12.2-10l15.6-44.1ZM217.5,56V0l-7.3.8v17.7c-2.7-1.3-6-2.8-9.3-2.8-8.9,0-16.8,8-16.8,20.2s5.2,21,15.3,21,7.7-1.9,11-3.8v2.8h7.1ZM210.3,48.6c-3.8,1.5-6.1,1.9-8.5,1.9-6.3,0-10-4.2-10-14.6s4.5-14.2,10.4-14.2,5.1.8,8.1,2v24.8ZM180,38.3v-4.3c0-11.5-4.9-18.3-15-18.3s-17.1,8.6-17.1,22.1,6.3,19.2,16.2,19.2,7.7-1.5,15.3-5.4l-1.2-4c-6.9,2.3-9,2.6-12.5,2.6-5.9,0-10.2-3.2-10.2-11.1v-.8h24.4ZM172.5,32.6l-16.7.7c.6-6.8,2.3-12,9.3-12s7.4,3.6,7.4,11.3ZM143.4,56v-26c0-6-.5-8-2.2-10.4-1.9-2.7-5.5-3.9-9.4-3.9s-9.8,2.5-12.8,4.5v-3.5l-7.3.8v38.5h7.4v-30.8c2.8-1.7,6.7-2.8,10.5-2.8s5.1,1,5.8,2.5c.8,1.8.7,5,.7,7v24.1h7.4ZM105.6,56v-26c0-6-.5-8-2.2-10.4-1.9-2.7-5.5-3.9-9.4-3.9s-9.8,2.5-12.8,4.5v-3.5l-7.3.8v38.5h7.4v-30.8c2.8-1.7,6.7-2.8,10.5-2.8s5.1,1,5.8,2.5c.8,1.8.7,5,.7,7v24.1h7.4ZM69,38.3v-4.3c0-11.5-4.9-18.3-15-18.3s-17.1,8.6-17.1,22.1,6.3,19.2,16.2,19.2,7.7-1.5,15.3-5.4l-1.2-4c-6.9,2.3-9,2.6-12.5,2.6-5.9,0-10.2-3.2-10.2-11.1v-.8h24.4ZM61.6,32.6l-16.7.7c.6-6.8,2.3-12,9.3-12s7.4,3.6,7.4,11.3ZM39.5,55.2L15.9,27.1,40.8.8h-9.5L7.7,25.8V.8H0v55.2h7.7v-27.3l23.2,28.3,8.6-1.8Z"/>
</svg>