<?xml version="1.0" ?><svg height="180px" version="1.1" viewBox="0 0 180 180" width="180px" xmlns="http://www.w3.org/2000/svg" xmlns:sketch="http://www.bohemiancoding.com/sketch/ns" xmlns:xlink="http://www.w3.org/1999/xlink"><title/><desc/><defs/><g fill="none" fill-rule="evenodd" id="Page-1" stroke="none" stroke-width="1"><g id="Material" transform="translate(-180.000000, -180.000000)"><g id="Slice" transform="translate(180.000000, 180.000000)"/><g id="circle_uae" transform="translate(180.000000, 180.000000)"><ellipse cx="89.9972382" cy="90" fill="#FFFFFF" id="path-1" rx="89.9972382" ry="90"/><path d="M45,167.960402 L45,120 L174.873467,120 C162.51875,154.955772 129.182603,180 89.9972382,180 C73.6053894,180 58.237083,175.617562 45,167.960402 Z" fill="#262626" id="Rectangle-3-copy-3"/><path d="M45,12.0395976 L45,60 L174.873467,60 C162.51875,25.0442275 129.182603,0 89.9972382,0 C73.6053894,0 58.237083,4.38243757 45,12.0395976 Z" fill="#4EAB53" id="Rectangle-3-copy-3"/><path d="M0.00276191524,89.2874328 L0.00276191524,90.7125672 C0.258782647,123.728868 18.2922227,152.512212 45.0027619,167.962 L45.0027619,12.038 C18.2922227,27.487788 0.258782647,56.2711321 0.00276191524,89.2874328 Z" fill="#F1453D" id="Rectangle-3"/></g></g></g></svg>