<?xml version="1.0" ?><svg height="180px" version="1.1" viewBox="0 0 180 180" width="180px" xmlns="http://www.w3.org/2000/svg" xmlns:sketch="http://www.bohemiancoding.com/sketch/ns" xmlns:xlink="http://www.w3.org/1999/xlink"><title/><desc/><defs/><g fill="none" fill-rule="evenodd" id="Page-1" stroke="none" stroke-width="1"><g id="Material" transform="translate(-180.000000, -180.000000)"><g id="Slice" transform="translate(180.000000, 180.000000)"/><g id="circle_antigua_and_barbuda" transform="translate(180.000000, 180.000000)"><path d="M162.002641,35.9947389 C145.582685,14.1376902 119.442361,0 90,0 C60.5576394,0 34.4173152,14.1376902 17.9973592,35.9947389 L90,180 L162.002635,35.9947307 Z" fill="#262626" id="Oval-1"/><path d="M91,28 L96.5407002,48.5005908 L110.507516,32.5036649 L106.588064,52.9031171 L125.582996,44.4952426 L113.13792,61.7026151 L134.359468,62.4896781 L115.630693,72.5 L134.359468,82.5103219 L113.13792,83.2973849 L125.582996,100.504757 L106.588064,92.0968829 L110.507516,112.496335 L96.5407002,96.4994092 L91,117 L85.4592999,96.4994092 L71.492484,112.496335 L75.4119355,92.0968829 L56.4170048,100.504757 L68.8620804,83.2973849 L47.6405321,82.5103219 L66.3693077,72.5 L47.6405321,62.4896781 L68.8620804,61.7026151 L56.4170048,44.4952426 L75.4119355,52.9031171 L71.492484,32.5036649 L85.4592999,48.5005908 L91,28 L91,28 Z" fill="#FEE94E" id="Triangle-1"/><path d="M91,28 L96.5407002,48.5005908 L110.507516,32.5036649 L106.588064,52.9031171 L125.582996,44.4952426 L113.13792,61.7026151 L134.359468,62.4896781 L115.630693,72.5 L134.359468,82.5103219 L113.13792,83.2973849 L125.582996,100.504757 L106.588064,92.0968829 L110.507516,112.496335 L96.5407002,96.4994092 L91,117 L85.4592999,96.4994092 L71.492484,112.496335 L75.4119355,92.0968829 L56.4170048,100.504757 L68.8620804,83.2973849 L47.6405321,82.5103219 L66.3693077,72.5 L47.6405321,62.4896781 L68.8620804,61.7026151 L56.4170048,44.4952426 L75.4119355,52.9031171 L71.492484,32.5036649 L85.4592999,48.5005908 L91,28 L91,28 Z" fill="#FEE94E" id="Triangle-1"/><path d="M9,82 L90,180 L173,82 L9,82 L9,82 Z" fill="#2B98F0" id="Oval-1"/><path d="M31.2734375,113 L90,180 L145.767578,113 L31.2734375,113 L31.2734375,113 Z" fill="#FFFFFF" id="Oval-1"/><path d="M162.002641,35.9947389 C173.303433,51.0375294 180,69.7367307 180,90 C180,139.70563 139.70563,180 90,180 C40.2943701,180 0,139.70563 0,90 C0,69.7367307 6.69656732,51.0375294 17.9973592,35.9947389 L90,180 L162.002635,35.9947307 L162.002641,35.9947389 Z" fill="#F1453D" id="Oval-1"/></g></g></g></svg>