<?xml version="1.0" ?><svg height="180px" version="1.1" viewBox="0 0 180 180" width="180px" xmlns="http://www.w3.org/2000/svg" xmlns:sketch="http://www.bohemiancoding.com/sketch/ns" xmlns:xlink="http://www.w3.org/1999/xlink"><title/><desc/><defs/><g fill="none" fill-rule="evenodd" id="Page-1" stroke="none" stroke-width="1"><g id="Material" transform="translate(-180.000000, -180.000000)"><g id="Slice" transform="translate(180.000000, 180.000000)"/><g id="circle_angola" transform="translate(180.000000, 180.000000)"><path d="M179.994476,91.007569 C179.454335,140.24902 139.36934,180 90,180 C40.2943701,180 0,139.70563 0,90 L179.994476,90 L179.994476,91.0075943 Z" fill="#262626" id="Oval-1"/><path d="M180,89.992103 C179.995732,40.2901023 139.702998,0 90,0 C40.63065,0 0.545648249,39.7509969 0.00552338288,88.992462 L0.00552366097,90 L180,90 Z" fill="#F1453D" id="Oval-1"/><path d="M110.428688,113.659121 L111.490868,112.410771 C98.6999851,103.269475 68.4291442,82.2456919 68.0528997,74.586382 C62.0763219,86.2532848 69.653002,93.2264831 74.5319316,96.0005765 C86.9518313,103.062363 95.192721,107.716101 108.152293,116.3345 L110.103228,114.041623 C107.877065,112.473019 92.8371636,101.861494 85.2120091,96.1155278 C82.1958996,93.8427262 76.5905964,88.7743463 76.5905964,88.7743463 L76.8901621,88.3768093 C76.8901621,88.3768093 82.5799858,93.2876749 85.617893,95.5769021 C93.2515712,101.329291 108.302,112.133808 110.428688,113.659121 L110.428688,113.659121 L110.428688,113.659121 L110.428688,113.659121 L110.428688,113.659121 Z M107.934171,107.563306 C109.002607,106.529991 110.011451,105.435569 110.955501,104.28525 L108.651095,102.394075 C110.135615,100.586461 111.44683,98.6311873 112.559263,96.5537326 L115.184079,97.9567338 C116.382943,95.713826 117.358519,93.3585515 118.096776,90.9248633 L115.250289,90.0613917 L115.250289,90.0613919 C115.921069,87.8462286 116.38303,85.5406182 116.613232,83.1674986 L116.613232,83.1674986 L119.58165,83.4598631 C119.830938,80.9289055 119.830938,78.3795853 119.58165,75.8486278 L116.609382,76.1413674 C116.37571,73.7672506 115.908635,71.4636399 115.231492,69.2528011 L115.231492,69.2528011 L118.096776,68.3836274 C117.358519,65.9499342 116.382943,63.5946598 115.184079,61.351757 L112.516081,62.7778301 C111.395349,60.7103817 110.07518,58.7667339 108.581445,56.9715732 L110.955501,55.0232358 C109.342103,53.0573121 107.539463,51.2546712 105.573535,49.6412744 L103.597141,52.0495201 L103.597148,52.0495259 C101.789592,50.5829496 99.8356627,49.2880836 97.7608968,48.1892945 L97.7608968,48.1892945 L99.2450186,45.4126965 C97.0021108,44.2138428 94.6468512,43.238257 92.2131481,42.5 L91.2929591,45.5334583 C89.1632382,44.8929016 86.9506684,44.4430054 84.6758367,44.2034135 C84.6758367,44.2034135 102.678662,46.0995238 84.6758367,44.2034135 L83.9665142,50.8486459 C98.5999532,52.3833751 110.062118,64.6318338 110.062118,79.6695419 C110.062124,88.574877 106.057912,96.5506785 99.7529189,101.893503 L107.93417,107.563305 L107.934171,107.563306 L107.934171,107.563306 L107.934171,107.563306 L107.934171,107.563306 Z M95.7622581,115.540732 C94.6011415,116.020229 93.4167377,116.443378 92.2131481,116.808477 L91.3526161,113.971752 C89.1370519,114.643948 86.830905,115.107219 84.4571411,115.338598 L84.7481627,118.293365 C82.2172003,118.542639 79.66787,118.542639 77.1369126,118.293365 L77.4285983,115.331833 C75.0554013,115.091333 72.7558206,114.610649 70.5485914,113.918489 L70.5485914,113.918489 L69.6719222,116.808477 C67.238234,116.070234 64.8829595,115.094644 62.6400567,113.895779 L64.0979176,111.168317 C62.0475879,110.046326 60.1145129,108.732717 58.3189034,107.258456 L62.5748388,102.069202 C67.6015017,106.198853 73.9342241,108.78909 80.94256,108.7891 C84.2633227,108.7891 87.4548312,108.23231 90.4287598,107.207055 L94.1871854,109.429432 L95.7622581,115.540732 L95.7622581,115.540732 L95.7622581,115.540732 L95.7622581,115.540732 Z M68.1620308,62.0610099 L77.9263463,62.0610099 L80.94255,52.7746822 L83.958749,62.0610099 L93.7230643,62.0610099 L85.8247053,67.7994543 L88.8409091,77.0857809 L80.94255,71.3473314 L73.044191,77.0857809 L76.0603898,67.7994543 L68.1620308,62.0610099 L68.1620308,62.0610099 L68.1620308,62.0610099 L68.1620308,62.0610099 Z M108.611939,116.920266 L112.2417,112.663544 C114.152266,114.512417 116.724917,116.334988 118.590814,117.99096 C120.45671,119.646922 121.886322,121.023585 123.043508,122.904788 C124.739491,125.661883 122.835016,128.78443 120.194162,126.9516 C118.766034,125.960435 117.868683,123.284736 115.680888,121.07056 C114.060467,119.691099 112.783746,118.244967 108.710926,117.547218 C108.515387,117.513723 108.458188,117.100578 108.611939,116.920266 C108.611939,116.920266 108.458188,117.100578 108.611939,116.920266 C108.611939,116.920266 108.458188,117.100578 108.611939,116.920266 L108.611939,116.920266 L108.611939,116.920266 Z M117.440376,119.294421 C117.285192,119.384124 117.093909,119.384124 116.938719,119.294421 C116.783534,119.204717 116.688062,119.038965 116.688331,118.859723 C116.688062,118.680476 116.783534,118.514723 116.938719,118.42502 C117.093909,118.335322 117.285192,118.335322 117.440376,118.42502 C117.595566,118.514723 117.691039,118.680476 117.69077,118.859723 C117.691039,119.038965 117.595566,119.204717 117.440376,119.294421 C117.440376,119.294421 117.595566,119.204717 117.440376,119.294421 L117.440376,119.294421 L117.440376,119.294421 Z M113.997529,115.64134 C113.997799,115.820582 113.902326,115.986335 113.747136,116.076038 C113.591951,116.165741 113.400668,116.165741 113.245478,116.076038 C113.090294,115.986335 112.994821,115.820582 112.99509,115.64134 C112.994821,115.462093 113.090294,115.29634 113.245478,115.206637 C113.400668,115.116939 113.591951,115.116939 113.747136,115.206637 C113.902326,115.29634 113.997799,115.462093 113.997529,115.64134 C113.997529,115.64134 113.997799,115.462093 113.997529,115.64134 L113.997529,115.64134 L113.997529,115.64134 Z M120.93551,122.15731 C120.93578,122.336552 120.840307,122.502305 120.685117,122.592008 C120.529932,122.681711 120.338649,122.681711 120.183459,122.592008 C120.028275,122.502305 119.932802,122.336552 119.933071,122.15731 C119.932802,121.978063 120.028275,121.81231 120.183459,121.722607 C120.338649,121.632909 120.529932,121.632909 120.685117,121.722607 C120.840307,121.81231 120.93578,121.978063 120.93551,122.15731 C120.93551,122.15731 120.93578,121.978063 120.93551,122.15731 L120.93551,122.15731 L120.93551,122.15731 Z" fill="#FEE94E" id="Shape"/></g></g></g></svg>