<?xml version="1.0" ?><svg height="180px" version="1.1" viewBox="0 0 180 180" width="180px" xmlns="http://www.w3.org/2000/svg" xmlns:sketch="http://www.bohemiancoding.com/sketch/ns" xmlns:xlink="http://www.w3.org/1999/xlink"><title/><desc/><defs/><g fill="none" fill-rule="evenodd" id="Page-1" stroke="none" stroke-width="1"><g id="Material" transform="translate(-180.000000, -180.000000)"><g id="Slice" transform="translate(180.000000, 180.000000)"/><g id="circle_aruba" transform="translate(180.000000, 180.000000)"><circle cx="90" cy="90" fill="#2B98F0" id="path-1" r="90"/><path d="M9.60562164,130.5 L170.394378,130.5 C171.864617,127.587245 173.181219,124.583693 174.333531,121.500001 L5.66646333,121.5 C6.81878063,124.583693 8.13538294,127.587245 9.60562585,130.500008 L9.60562164,130.5 Z" fill="#FEE94E" id="Rectangle-32"/><path d="M21.6037271,148.5 L158.396273,148.5 C160.83718,145.648861 163.102913,142.643302 165.176795,139.5 L14.8232049,139.5 C16.8970873,142.643302 19.1628199,145.648861 21.6037271,148.5 L21.6037271,148.5 Z" fill="#FEE94E" id="Rectangle-32"/><path d="M69.8400286,51.8388437 L63,31.5 L56.2049877,51.7049877 L36,58.5 L56.3388437,65.3400286 L63,85.5 L69.7055801,65.2055801 L90,58.5 L69.8400286,51.8388437 L69.8400286,51.8388437 L69.8400286,51.8388437 L69.8400286,51.8388437 Z" fill="#F1453D" id="Triangle-1-copy" stroke="#FFFFFF" stroke-width="0.5"/></g></g></g></svg>