<?xml version="1.0" ?><svg height="180px" version="1.1" viewBox="0 0 180 180" width="180px" xmlns="http://www.w3.org/2000/svg" xmlns:sketch="http://www.bohemiancoding.com/sketch/ns" xmlns:xlink="http://www.w3.org/1999/xlink"><title/><desc/><defs/><g fill="none" fill-rule="evenodd" id="Page-1" stroke="none" stroke-width="1"><g id="Material" transform="translate(-180.000000, -180.000000)"><g id="Slice" transform="translate(180.000000, 180.000000)"/><g id="circle_burkina_faso" transform="translate(180.000000, 180.000000)"><path d="M180,90 L0,90 C0,139.70563 40.2943701,180 90,180 C139.70563,180 180,139.70563 180,90 Z" fill="#4EAB53" id="Rectangle-3"/><path d="M0,90 L180,90 C180,40.2943701 139.70563,0 90,0 C40.2943701,0 0,40.2943701 0,90 Z" fill="#F1453D" id="Rectangle-3-copy-2"/><path d="M55.9391578,82.3102473 L81.9637531,82.3102473 L90.0027686,57.4221182 L98.0417707,82.3102473 L124.066366,82.3102473 L103.01506,97.689755 L111.054075,122.577882 L90.0027686,107.198361 L68.9514621,122.577882 L76.9904643,97.689755 L55.9391578,82.3102473 L55.9391578,82.3102473 L55.9391578,82.3102473 L55.9391578,82.3102473 Z" fill="#FEE94E" id="Shape"/></g></g></g></svg>