<?xml version="1.0" ?><svg height="180px" version="1.1" viewBox="0 0 180 180" width="180px" xmlns="http://www.w3.org/2000/svg" xmlns:sketch="http://www.bohemiancoding.com/sketch/ns" xmlns:xlink="http://www.w3.org/1999/xlink"><title/><desc/><defs/><g fill="none" fill-rule="evenodd" id="Page-1" stroke="none" stroke-width="1"><g id="Material" transform="translate(-180.000000, -180.000000)"><g id="Slice" transform="translate(180.000000, 180.000000)"/><g id="circle_benin" transform="translate(180.000000, 180.000000)"><path d="M0.00409722172,89.1321797 C0.469845568,39.8262117 40.583965,0 90,0 C139.70563,0 180,40.2943701 180,90 C180,139.70563 139.70563,180 90,180 C40.583965,180 0.469845568,140.173788 0.00409722172,90.8678203 L0.00409722172,89.1321797 Z" fill="#4EAB53" id="Oval-1"/><path d="M50,170.644804 L50,90 L180,90 C180,139.70563 139.70563,180 90,180 C75.631582,180 62.049584,176.632938 49.9999927,170.644801 Z" fill="#F1453D" id="Rectangle-3-copy-2"/><path d="M50,9.35519552 L50,90 L180,90 C180,40.2943701 139.70563,0 90,0 C75.631582,0 62.049584,3.36706199 49.9999927,9.35519916 Z" fill="#FEE94E" id="Rectangle-3-copy-3"/></g></g></g></svg>