<?xml version="1.0" ?><svg height="180px" version="1.1" viewBox="0 0 180 180" width="180px" xmlns="http://www.w3.org/2000/svg" xmlns:sketch="http://www.bohemiancoding.com/sketch/ns" xmlns:xlink="http://www.w3.org/1999/xlink"><title/><desc/><defs/><g fill="none" fill-rule="evenodd" id="Page-1" stroke="none" stroke-width="1"><g id="Material" transform="translate(-180.000000, -180.000000)"><g id="Slice" transform="translate(180.000000, 180.000000)"/><g id="circle_bermuda" transform="translate(180.000000, 180.000000)"><circle cx="90" cy="90" fill="#F1453D" id="Oval-15-copy-4" r="90"/><g id="Coat_of_arms" transform="translate(102.000000, 74.000000)"><path d="M0.909914511,0.938089943 L0.909914511,56.2353666 C1.56439605,64.1522024 18.0645997,69.137397 29.5689688,77.5459455 C44.6578254,67.4248305 59.2931792,65.3779949 59.8814292,54.0308246 L60.0651417,0.938089943 L0.909914511,0.938089943 L0.909914511,0.938089943 Z" fill="#FFFFFF" id="use2386"/><path d="M0.904128566,55.442092 L1.5220525,58.6003705 L3.58179939,61.0720656 L18.4806326,70.6842167 L29.3972892,77.48138 L50.6813365,65.8781411 L58.0277655,60.2481675 L59.4695876,52.9017385 L58.5770312,51.1852831 L58.7830053,52.9703959 L58.2337396,54.4122189 L57.6158155,54.0002699 L57.2038665,51.3225988 L57.1352082,53.3136875 L56.1053351,54.4808773 L55.8993601,53.0390542 L56.1739935,52.0091811 L55.7620444,50.8419914 L55.6247278,53.1763709 L55.0754621,54.2062439 L54.5948547,53.5196615 L54.8008287,52.4897885 L54.7321704,51.5285738 L54.3888797,51.0479664 L54.3202214,52.0778395 L54.1142474,52.4211302 L54.1829047,53.0390542 L53.7709557,53.4510042 L53.4963233,52.6271052 L53.633639,51.8718645 L53.4963233,51.1852831 L53.22169,50.4300424 L53.2903483,51.6658905 L52.603766,53.1763709 L52.0545003,53.5196615 L51.7112096,53.1077125 L51.7798679,51.6658905 L51.2992596,50.8419914 L51.4365762,52.6271052 L50.7499939,54.2062439 L50.3380448,53.7256366 L50.1320708,53.2450292 L50.1320708,52.4897885 L50.8873105,50.5673591 L50.1320708,51.2539404 L49.5141468,52.9017385 L49.2395135,53.3823459 L48.8962228,52.5584468 L49.3768301,50.7046747 L49.1021968,50.3613841 L48.4842728,52.6271052 L47.9350071,52.9703959 L47.523058,52.8330802 L47.2484257,52.9703959 L14.0178478,54.8241679 L13.1252914,53.5196615 L12.9193164,54.8241679 L12.3700507,55.3047753 L11.820785,52.9017385 L11.408836,55.442092 L10.8595703,54.2062439 L11.1342026,51.3912571 L10.8595703,51.1852831 L10.4476213,52.6957635 L10.4476213,54.8241679 L10.2416462,56.265991 L9.82969723,55.9913577 L9.28043153,54.6868513 L9.2117732,52.5584468 L9.41774721,51.0479664 L8.86848152,52.8330802 L8.86848152,55.030143 L8.79982418,56.1286743 L8.11324161,54.6181939 L7.76994993,53.3823459 L7.08336856,51.9405228 L7.49531758,53.7942949 L7.49531758,54.7555096 L6.32812786,53.7256366 L5.71020383,50.8419914 L5.57288716,52.9703959 L5.8475205,54.0002699 L5.50422882,54.4122189 L4.81764646,53.1763709 L4.40569744,51.5285738 L3.92509008,49.949435 L3.92509008,52.4897885 L4.26838076,53.8629532 L3.99374841,54.2062439 L3.44448272,53.9316116 L3.23850771,52.4211302 L3.10119104,50.2240674 L2.55192535,51.7345488 L2.41460967,53.3136875 L2.20863466,54.5495356 L1.86534358,55.3734336 L0.904128566,55.442092 L0.904128566,55.442092 Z" fill="#2F8F22" id="path3198"/><path d="M29.6302445,3.23069842 L28.185862,3.2132962 L27.9422322,3.70055754 L27.9248298,4.37924294 L27.7508076,4.58806923 L27.7160038,4.95351515 L26.9155027,4.95351515 L26.3760348,4.62287356 L26.2194151,4.83169984 L25.6799472,6.34569029 L25.3667077,6.55451657 L25.001262,6.55451657 L24.5140003,6.98957176 L24.0267397,6.98957176 L24.0267397,7.42462615 L24.4965979,8.01630027 L24.8620446,8.29473592 L25.001262,8.92121388 L25.3493053,9.46068206 L24.8620446,9.93054127 L24.4791965,10.3307918 L24.2877719,10.6266289 L24.1311522,10.6266289 L24.0267397,10.2785856 L23.8527176,9.87833502 L23.4176622,10.1219658 L23.0174126,10.4004005 L23.034814,10.8354559 L23.6786954,11.6533584 L24.2877719,11.6881622 L23.7483041,12.7148917 L23.6264892,12.1058152 L23.3480535,11.8795868 L23.1740323,11.9143906 L22.7737818,12.1754239 L22.4953462,12.5930768 L22.4257375,12.8541091 L22.2865202,13.0977399 L22.112498,13.4979904 L22.1647053,13.8634362 L22.4605423,14.2636867 L22.7737818,14.52472 L23.4176622,14.7335459 L23.6438916,14.7857522 L24.7750336,14.7857522 L24.4443917,15.5166446 L24.1485546,16.3171447 L23.7831089,16.99583 L23.5568805,17.082841 L23.452467,16.9436237 L23.452467,16.578178 L23.8875214,15.5862533 L23.8527176,15.2556114 L23.5916843,15.3600249 L23.2610424,15.3600249 L23.1044237,15.2556114 L22.4257375,15.8124817 L21.9732807,16.4737645 L21.8688682,16.9610261 L22.0080855,17.6397113 L22.4083361,18.3532014 L22.738977,18.5968322 L22.9826078,18.7012447 L22.9478039,19.0666904 L23.2088362,19.345126 L23.6786954,19.553952 L23.5394781,19.762778 L23.1740323,20.1282247 L22.9478039,20.4588656 L22.7737818,20.9287248 L22.9652054,21.5552038 L22.7737818,21.8858457 L22.3387264,22.0424654 L21.6774436,22.1816828 L21.2423892,22.3905087 L21.1379757,22.8429655 L20.8943449,23.2606185 L20.0242362,23.573858 L19.3281485,23.6608691 L18.5798537,23.7478801 L18.1622017,23.7478801 L17.9359733,23.3998358 L17.9359733,22.8429655 L17.5531252,22.1990852 L17.1528746,21.729226 L16.4741894,21.4681927 L16.0043302,21.4159865 L15.5518734,21.5552038 L15.1864267,21.9902582 L14.8731882,21.9902582 L14.403329,21.4159865 L14.0204808,21.1375518 L13.7942524,21.102747 L13.3765994,21.2245619 L12.5760983,22.0598678 L12.1584464,22.025063 L11.6537823,21.6944211 L11.1491193,21.9902582 L10.9054885,22.0772693 L10.4704341,22.4949222 L10.4530316,23.0691939 L10.7140649,23.7478801 L10.9576947,24.0089124 L11.2361303,24.078521 L11.3405428,24.6527938 L11.4971626,24.913826 L12.1410439,25.5403049 L11.6711847,26.1841863 L11.5841737,26.6018393 L11.5667722,27.3327307 L11.6711847,27.6981765 L12.5760983,28.8989281 L12.5238921,29.1599604 L11.6711847,29.7864393 L10.888086,30.5347332 L10.6444562,31.1438097 L10.6618576,31.5788651 L9.91356377,32.2575503 L9.84395511,32.9188331 L10.0005748,34.0325737 L10.3486182,34.5198353 L10.888086,34.8678786 L11.3579453,35.0244984 L11.9670218,34.9722921 L12.4542834,34.6764551 L12.7675229,34.3980194 L12.854534,33.5975193 L13.4288057,33.9977689 L14.1074919,34.8504762 L14.6121549,35.6335749 L14.6295574,35.8424009 L13.8638611,35.8249995 L13.568024,35.7379884 L12.7849253,35.7727922 L12.3324685,35.9468144 L11.932218,35.929412 L11.723392,35.8424009 L11.2013255,36.1034341 L10.2094008,36.5906958 L9.42630214,37.0431526 L9.11306266,37.0779564 L8.66060566,37.4434031 L8.31256235,37.5130118 L7.75569205,38.191697 L7.61647473,38.6441538 L7.66868098,39.4794587 L7.92971421,40.036329 L7.98192045,40.9934489 L8.10373636,41.1848734 L8.0341267,41.8113524 L7.72088822,42.2464068 L7.66868098,42.5596463 L7.49465882,42.9772992 L7.23362659,43.342745 L7.19882176,44.2824634 L7.04220202,45.187377 L7.09440926,46.4055301 L7.14661551,47.6062808 L6.78116978,48.3545756 L6.48533272,48.7374238 L6.41572406,49.1898806 L6.31131057,49.50312 L6.76376737,49.50312 L6.98999577,49.3116955 L6.92038711,49.6945436 L7.8078983,48.78963 L7.87750796,49.1898806 L8.27775752,48.8766411 L8.31256235,48.1805535 L8.29515993,47.8325092 L8.52138833,48.3893794 L8.66060566,48.5285968 L8.95644292,48.2501621 L9.02605258,47.9369226 L9.18267232,48.5111954 L9.35669347,48.7026189 L9.77434644,48.2327597 L9.82655269,47.1190201 L9.56552046,46.3881277 L10.0527811,47.3104437 L10.2268032,47.658488 L10.6096514,48.2327597 L10.7836735,48.8940435 L11.3753477,48.78963 L11.6537823,47.0668129 L12.1062401,48.5285968 L12.6805118,50.7386755 L13.0459576,52.0090349 L13.4984144,52.7747311 L13.77685,53.6274385 L14.1771006,54.2713199 L14.8035785,55.1066248 L15.4648623,55.6112879 L16.3175697,55.8723211 L17.4661141,55.8897235 L17.4835165,56.3247779 L17.0484611,56.7250285 L16.87444,57.0904742 L16.4045807,57.8735729 L16.0913413,58.1694099 L14.9253944,58.1520075 L14.2467092,57.838768 L13.8812625,57.751757 L13.1155662,57.8909753 L12.5238921,58.3434321 L12.2454574,58.3260297 L11.6537823,58.6044643 L11.3579453,58.9873125 L11.2187279,59.4919765 L10.8358798,60.1010531 L10.6618576,60.4664988 L10.8184774,60.9711628 L10.6096514,61.354011 L10.5574451,62.78099 L10.888086,63.616295 L11.4275539,64.1731653 L11.7930006,64.4167961 L12.0018266,64.3123826 L11.9496204,63.3900666 L12.1410439,62.9028059 L12.5238921,63.1290343 L13.0981648,62.8505987 L13.568024,63.2160444 L13.3940019,63.8599258 L13.4636105,64.6430245 L13.8116538,65.4957318 L14.4207304,66.2788305 L14.8905896,66.6442763 L14.9253944,66.4354503 L14.8905896,64.6430245 L15.2908401,64.2949802 L15.7781018,64.2775788 L16.3523735,63.8425234 L16.6482106,63.7729147 L16.9266462,63.5640887 L16.96145,63.2508492 L17.2050808,63.3378603 L17.3617006,63.912132 L17.3268968,64.5560134 L17.3442982,64.8344481 L17.8489622,65.0084702 L18.9453004,63.9991431 L19.2063326,63.3900666 L19.2933437,62.4329467 L19.5195721,62.2589246 L19.5369745,62.0152938 L19.3281485,61.6324456 L19.6065832,61.5628369 L20.0068337,61.6846519 L20.5811054,61.3192061 L20.8943449,60.936358 L21.1379757,60.8667493 L22.4083361,59.5789876 L23.3132497,59.9096285 L24.7054249,60.4490964 L25.6799472,60.6927272 L25.9061756,60.8145431 L26.34123,60.8319445 L26.7588829,61.0581729 L27.2461446,61.6846519 L27.3853619,61.9282827 L27.2287422,62.0152938 L26.7066767,61.7542605 L26.4978497,61.8412716 L25.9061756,62.3459356 L25.8887732,63.3204579 L26.4456435,64.0165455 L27.681199,64.1035566 L28.2206668,63.8425234 L28.6905261,64.1035566 L29.317005,63.8425234 L29.8912767,63.6510998 L30.6917778,63.9469369 L31.1094298,64.0513504 L31.5096804,63.9817407 L31.8751261,63.7033061 L32.4493988,63.7903171 L32.9888667,63.7729147 L33.33691,63.5118825 L33.632748,63.0420233 L33.7893678,62.6765765 L33.7197581,62.1893159 L33.4239211,61.8412716 L33.0584753,61.7020543 L32.6756272,61.7020543 L32.7278334,61.4932283 L33.2498999,61.1799888 L35.0945319,60.222868 L35.4425753,60.1706617 L35.9472393,59.805216 L36.4344999,59.7704112 L37.2175986,59.1613346 L37.5134357,59.3179544 L37.8266752,59.5789876 L38.4357517,60.1532593 L38.8534047,60.7449344 L39.1492417,60.9711628 L39.4972851,61.5976408 L39.9497419,62.0849024 L40.2803838,62.2937284 L40.6632319,62.3459356 L40.4196011,62.7287838 L40.3151886,63.1290343 L40.4370035,63.7207085 L40.2281775,64.4341985 L40.2281775,65.2695034 L40.5066122,66.0003949 L40.8546565,65.7567641 L42.090212,64.5908182 L42.5252663,64.538611 L42.9603207,64.2253715 L43.1865491,63.5640887 L43.3257675,63.1464358 L43.517191,63.4248714 L43.7956257,64.120959 L44.352496,64.6778283 L44.7353441,64.8344481 L44.7701489,65.669754 L44.7875514,66.5572652 L44.9789749,66.6268738 L45.6228563,66.174417 L46.1623242,65.5131343 L46.5103675,64.6952307 L46.614781,63.8947306 L46.4581612,63.198643 L46.405955,62.7287838 L46.5799762,62.2415222 L47.1368464,62.8331963 L47.5893032,63.0594247 L47.7807278,64.4167961 L48.2157822,64.1905677 L48.7378477,63.5988926 L49.2077069,62.8854035 L49.3295228,62.0849024 L49.2425117,60.9015542 L49.0684896,59.7530087 L48.3898044,58.8132913 L48.1113687,58.7436826 L47.7981292,58.3608345 L47.745923,58.1172037 L46.8584118,57.4211161 L46.1623242,57.2818987 L45.5532476,57.5081271 L45.2400082,58.0301926 L45.0311812,58.0301926 L44.3176921,57.4385185 L44.2828873,57.0034631 L43.934844,56.6554198 L44.3176921,56.202963 L44.7701489,56.1507557 L45.5184428,55.7679076 L46.1449218,55.2980484 L46.6843896,54.6019608 L47.1542489,53.8884717 L47.3108686,53.0531668 L47.6415095,52.1134484 L48.1461735,50.4950447 L48.4942169,49.0680646 L48.9292722,48.8592387 L49.4687401,48.6330103 L49.9211969,48.1979559 L50.1822292,48.1457486 L50.3910561,47.7629005 L50.6520884,47.7454991 L50.721697,47.2234326 L50.8783168,46.9798028 L51.1915562,46.8579869 C51.1915562,46.8579869 51.2785673,47.658488 51.1915562,47.7454991 C51.1045452,47.8325092 50.5650773,48.8940435 50.5650773,48.8940435 L50.3910561,49.5901311 L50.3562513,49.7989571 L50.8435129,49.8859682 L51.4003832,49.6597398 L51.6788179,49.6597398 L52.2878944,48.9636522 L52.8273623,47.9369226 L53.0187869,46.8927917 L53.2450153,47.2234326 L53.2972215,47.7803029 L53.1057969,48.6330103 L52.9491772,49.3639027 L52.7751561,49.6075325 L52.9317758,49.920772 L53.3842326,49.6249349 L53.8366894,49.5205224 L55.1070487,48.1109448 L55.6291152,46.2837152 L55.6291152,44.5086918 L55.455093,44.3172672 L55.7335277,44.0040277 L55.6987238,43.3775488 L55.5072993,42.8206795 L55.1940598,42.4900376 L54.6371905,42.9076896 L54.2891462,42.8554833 L53.9062981,42.1419933 L53.8540918,41.08046 L53.7148745,40.9064388 L53.7670807,40.5061882 L54.0803202,39.8971117 L54.0977226,38.9921971 L53.7496783,38.1220883 L53.2276129,37.4782069 L52.8273623,37.3389896 L52.3226992,37.2867834 L51.9050463,36.9909453 L51.6614155,36.9039352 L51.2785673,36.9387391 L50.9131216,36.4862823 L50.3562513,36.5036847 L50.0430118,36.2948577 L49.7471748,36.434076 C49.7471748,36.434076 49.1729031,36.2774563 49.0684896,36.2600539 C48.9640761,36.2426515 48.6508366,36.2426515 48.6508366,36.2426515 L48.1461735,35.8075971 L47.9895538,35.9120096 L47.3804773,35.8772057 L46.4581612,35.5813687 L46.5451723,35.3203354 L47.2586614,34.6938565 L47.7285206,34.5024329 L48.4072068,35.094107 L48.9466746,35.4943576 L49.6601637,35.6857812 L50.512871,35.4247489 L51.0523389,34.8504762 L50.9131216,34.3110083 L50.7565019,33.0232466 L50.1300229,32.2053441 L49.8341858,30.7261577 L49.1729031,29.7864393 L48.9640761,29.3861888 L48.8944674,28.9163295 L49.0162833,28.3768617 L50.008208,27.8547962 L50.3736537,27.2631221 L50.217034,26.4104147 L49.9908056,25.6621208 L49.3295228,24.6527938 L49.8341858,24.0611196 L50.1300229,23.3128248 L50.1996316,22.9125742 L50.1300229,22.4253136 L49.9037945,22.1120741 L50.0430118,21.9728568 L49.9037945,21.6770197 L49.1206958,21.4333889 L48.5290217,21.2071605 L48.250587,21.3463778 L47.4848908,21.2593667 L47.1020416,21.4507903 L46.3711502,21.7640298 L45.5880515,22.1468779 L44.9789749,22.2164876 L43.8652353,22.9299766 L43.1169405,23.2606185 L41.7595701,23.2084123 L41.1852974,23.1039988 L40.1063616,22.0424654 L39.8801332,21.9728568 L39.7931231,21.5552038 L39.4972851,21.4333889 L39.0100244,21.6770197 L39.1144369,21.1375518 L38.9752196,20.476268 L38.4531541,19.6235607 L38.0180997,19.3799299 L37.2698049,19.1537015 L37.0609789,19.7105718 L37.1305876,20.5110729 L36.8173481,20.7024964 L36.6955332,20.1282247 L36.730337,19.1711039 L36.5041086,18.5446249 L36.0342494,17.6049075 L36.5737173,18.4054076 L37.0087726,18.5446249 L37.5656419,18.7708533 L38.1921209,18.9100716 L38.9230133,18.7186471 L39.2362528,18.3880052 L39.6713072,17.7615262 L39.706112,17.1176459 L39.2188504,16.4911669 L39.2188504,16.1953298 L39.4276764,15.8646879 L39.1318393,15.5340461 L38.4531541,15.5688509 L38.0355012,16.0039053 L37.86148,16.5259717 L37.86148,16.7522001 L37.5830444,16.6651891 L37.3916208,16.1953298 L37.1653924,15.1860027 L36.939164,14.8901657 L36.730337,14.3681002 L36.2952826,13.6720126 L36.9565654,14.5595238 L37.2872073,14.9423719 L38.0006973,15.2904162 L38.4183493,15.4296336 L39.0100244,15.2904162 L39.5668937,15.1337965 L39.7931231,14.6291324 L40.0367529,14.0722622 L40.0367529,13.689414 L39.8975356,13.2891645 L39.6713072,12.0014017 C39.6713072,12.0014017 39.2710567,12.0884128 39.1666442,12.1754239 C39.0622307,12.2624349 38.8011974,12.6974893 38.8011974,12.6974893 L38.6445777,13.0281312 L38.279132,12.8715115 L37.9310887,12.3668484 L37.6352516,12.0710104 L37.4264246,11.8969892 L37.6352516,11.8969892 C37.6352516,11.8969892 37.7570665,11.9665979 38.070306,11.7229671 C38.3835455,11.4793362 38.6445777,11.3749238 38.6445777,11.3749238 C38.6445777,11.3749238 38.8011974,11.2705103 38.8882085,11.2009016 C38.9752196,11.1312929 39.2710567,10.1915745 39.2710567,10.1915745 L39.2362528,9.75652011 L38.8011974,10.0001499 L38.2443281,10.4004005 L37.6874578,10.3481942 L36.939164,9.65210662 L37.0087726,9.44328064 L37.5308381,9.09523603 L37.8440776,8.36434458 L38.1921209,7.1461905 C38.1921209,7.1461905 38.1051098,7.07658184 37.9136862,7.041778 C37.7222617,7.00697318 37.5482405,6.65892967 37.5482405,6.65892967 L37.1827938,6.43270126 L36.7129356,6.01504869 L36.7129356,4.25742763 L36.1386629,4.13561222 L34.8683035,4.27482975 L34.5550641,3.56134001 L34.3810419,3.26550285 L34.2766284,2.77824152 L33.7023567,2.95226337 L32.919258,3.23069842 L32.6408234,3.2132962 L32.2753766,2.91745904 L31.9621372,2.81304585 L31.5270828,2.49980647 L31.0050173,2.13436054 L29.6302445,3.23069842 Z" fill="#000000" id="path3200"/><path d="M0.0143190783,56.2353666 C0.181269082,58.291808 1.19903101,60.1407437 3.00068721,61.9547612 C4.52425354,63.4887809 6.59642969,64.9987791 9.42203637,66.7100739 C10.8629613,67.5827528 12.4093155,68.458494 14.6646061,69.6945859 C15.2181776,69.9979903 17.1511302,71.0524727 17.452578,71.2173581 C18.5653871,71.8260405 19.4385213,72.3082851 20.2833803,72.7826993 C23.8749358,74.7994679 26.6134233,76.4950514 29.0404908,78.2689961 L29.5469222,78.639147 L30.0678654,78.2897152 C33.1382569,76.2301963 36.2949367,74.42161 40.2541101,72.3762899 C40.6852795,72.1535466 47.5921534,68.6776458 49.3743217,67.7101455 C53.0260976,65.727676 55.4861015,64.0293858 57.304594,62.0885977 C59.452708,59.7960207 60.6138243,57.2021088 60.7758236,54.077191 L60.9638414,0.0424945106 L0.0143190783,0.0424945106 L0.0143190783,56.2353666 Z M58.9870377,1.83368542 L58.9858391,54.0277257 C58.8475702,56.6746894 57.8640727,58.8718042 55.9975188,60.8638858 C54.3377653,62.6352597 52.0173356,64.2371933 48.5197335,66.1359652 C46.7666109,67.0876972 39.8851182,70.5508249 39.4319978,70.7849081 C35.4172966,72.8589141 32.2050275,74.6993496 29.0700723,76.8021758 L30.0974468,76.8228949 C27.602717,74.9994958 24.8088261,73.2696082 21.1603815,71.2208947 C20.308803,70.7427072 19.4302855,70.2574894 18.3121385,69.6458873 C18.0092133,69.4801938 16.0771905,68.4262186 15.5255047,68.1238477 C13.2910208,66.8991597 11.7638642,66.0342906 10.3499401,65.1779644 C4.74731991,61.7848047 2.04216657,59.061091 1.80246517,56.1615798 C1.80246517,56.1615798 1.80550994,34.8471818 1.80550994,24.1530893 L1.80550994,1.83368542 L58.9870377,1.83368542 Z" fill="#000000" id="Shape"/><path d="M30.7316527,11.7046661 C30.6637606,13.2043993 29.375761,12.8894015 29.0077758,12.4792248 C28.6532733,11.107688 30.7080418,10.7319509 30.7316527,11.7046661 L30.7316527,11.7046661 Z" fill="#F1453D" id="path3232"/><path d="M31.4299236,11.6183934 C31.563635,12.802884 32.9226473,12.9676696 33.1797788,12.4708878 C33.6287,11.3401229 31.9419883,10.6214295 31.4299236,11.6183934 L31.4299236,11.6183934 Z" fill="#F1453D" id="path3234"/><path d="M30.5956645,10.4754424 L30.5956645,10.7352278 L30.4527822,10.761206 L30.4008257,10.6962604 L30.3618574,10.2935928 L30.2839217,10.2546244 L30.2839217,10.0727748 L30.4657713,10.0597856 L30.4657713,9.89092511 L30.2449543,9.89092511 L30.1670186,10.0597856 L30.1280503,10.2935928 L30.2189761,10.4884315 L30.1280503,10.644303 L29.9591907,10.7352278 L29.7253836,10.9560458 L29.5695122,11.0339815 L29.2058129,11.0729489 L28.9070591,10.9300666 L28.6083064,10.644303 C28.6083064,10.644303 28.4784132,10.4364751 28.4654241,10.3845176 C28.452435,10.3325601 28.3744993,10.1507105 28.3744993,10.1507105 L28.2965636,9.9558717 L28.1536813,9.80000028 L27.9328643,9.77402204 L27.8679177,10.0467965 L27.789982,10.1507105 L27.6081323,10.1766897 L27.4132935,10.0078292 L27.2834003,9.78701116 L27.140519,9.50124755 L27.023615,9.30640778 L26.8547544,9.05961123 L26.7768187,8.91672993 L26.698883,8.57900885 L26.5040442,8.33221261 L26.3741521,8.12438471 L26.1663232,7.95552417 L25.9455062,7.78666363 L25.6857208,7.78666363 L25.5168602,7.65677045 L25.270064,7.42296332 L25.0882143,7.17616807 L24.9713103,7.03328577 L24.9972895,6.90339259 L25.0882143,6.78648952 L25.2830531,6.66958646 L25.4778919,6.65659684 L25.6987099,6.60463977 L25.9195269,6.4877363 L25.9584953,6.33186508 L25.9974626,6.07207961 L26.2312698,5.65642303 L26.3351837,5.3576698 L26.3481728,5.12386297 L26.6858939,5.0719059 L27.0106259,5.11087366 L27.244433,5.17582005 L27.4912292,5.25375566 L27.7769928,5.11087366 L28.0108,4.81212043 L28.0887357,4.2925497 L28.1926496,3.81194672 L28.3095527,3.53917204 L28.9070591,3.53917204 L29.114888,3.68205404 L29.2837486,3.60411833 L29.439619,3.52618272 L29.8163084,3.56515057 L30.0111472,3.56515057 C30.0111472,3.56515057 30.1670186,3.31835442 30.2319652,3.27938667 C30.2969108,3.24041881 30.6086536,2.82476223 30.6086536,2.82476223 L31.0113213,2.72084798 L31.2191492,2.74682652 L31.5049138,3.07155828 L31.7387199,3.21444028 L31.9465488,3.2274296 L32.4401403,3.55216125 C32.4401403,3.55216125 32.5960117,3.68205404 32.6479692,3.6560755 C32.6999257,3.63009696 33.1415617,3.43525789 33.1415617,3.43525789 L33.5312393,3.40927935 L33.9468961,3.26639735 L34.0897784,3.59112911 C34.0897784,3.59112911 34.2976062,4.08472141 34.3625528,4.13667848 C34.4274994,4.18863555 34.6872848,4.68222775 34.6872848,4.68222775 C34.6872848,4.68222775 34.817177,4.61728146 34.8821236,4.60429214 C34.9470702,4.59130292 35.2458229,4.66923853 35.2458229,4.66923853 L36.1031147,4.70820629 L36.2200188,4.5783136 L36.3109436,4.73418482 L36.1940395,5.33169127 L36.245997,5.78631571 L36.4018684,6.39681137 L36.5967072,6.68257557 L36.8564926,6.69556469 L37.1942136,6.9813283 L37.2072028,7.2670929 L36.9474174,7.35801773 L36.7136103,7.28008202 L36.4148575,7.44894256 L35.9472433,7.72171704 L35.5575657,8.1113946 L35.2198446,8.59199797 L34.9990266,9.07260135 L34.7782096,9.22847207 L34.5833699,9.15053706 L34.3885311,9.16352648 L34.2976062,9.39733261 L34.1027675,9.63113974 L33.9339069,10.2286462 L33.5702076,10.6313138 L33.1935182,10.8131635 L32.9207437,11.0209914 L32.738894,11.0209914 L32.4271512,10.7222387 L32.2842699,10.5923455 L32.2453015,10.1247322 L31.9465488,9.89092511 L31.7257308,9.89092511 L32.0504628,10.1507105 L32.0634519,10.5014207 L31.8816022,10.6572921 L31.7906774,10.6313138 L31.6997526,10.4494642 L31.5958386,10.4494642 L31.5828485,10.8001744 L31.193171,11.2547985 L30.8034924,10.9300666 L30.7905033,10.5144098 L30.5956645,10.4754424 L30.5956645,10.4754424 Z" fill="#F1453D" id="path3236"/><path d="M28.2835745,7.07225313 L28.2835745,7.52687827 L28.1147139,7.79965275 L27.8159612,7.79965275 L27.6341105,7.99449153 L27.5821541,8.15036295 L27.9198751,8.46210579 L28.231617,8.6829228 L28.3615102,8.83879422 L28.4394459,8.87776158 L29.7383727,8.86477246 L29.8942441,9.02064388 L30.1800077,8.81281598 L30.5307179,8.28025513 L31.634806,8.29324525 L32.2193233,8.72189115 L32.2582907,9.07260135 L32.3881838,9.12455783 L32.6999257,8.85178334 L32.9597121,8.83879422 L33.0896042,9.00765476 L33.3234114,9.00765476 L34.0897784,8.31922349 L34.2196705,8.13737383 L34.5054351,8.12438471 L34.4664668,7.9035667 L34.1547239,7.82563099 L33.8819495,7.5528565 L33.8040138,7.09823236 L33.5572175,7.05926401 L33.1285716,7.28008202 L32.3881838,7.64378133 L32.1413876,7.82563099 L31.9205696,7.83862011 C31.9205696,7.83862011 31.8296448,7.7606844 31.7776883,7.7606844 L31.4919237,7.7606844 L31.2581176,7.95552417 L31.0762679,7.95552417 L31.0113213,7.89057758 L30.0111472,7.81264187 L29.1798336,7.60481398 L28.7511877,7.31904938 L28.4784132,7.09823236 L28.4004775,7.02029665 L28.2835745,7.07225313 L28.2835745,7.07225313 Z" fill="#000000" id="path3238"/><path d="M28.9070591,8.26726601 L29.4785873,8.26726601 L29.6214696,8.38417008 L29.6214696,8.5400405 L29.3486942,8.65694456 L28.8680918,8.6829228 L28.5303707,8.63096533 L28.2965636,8.42313743 L28.2446071,8.00748065 L28.5563489,7.65677045 L28.8551027,7.65677045 L28.8810809,7.77367352 L28.9070591,8.26726601 L28.9070591,8.26726601 Z" fill="#FFFCFC" id="path3240"/><path d="M32.7259049,8.24128778 L32.6349801,8.31922349 L32.6349801,8.47509491 L32.7518832,8.55303062 L33.3234114,8.57900885 L33.9468961,8.08541636 L33.9598852,7.89057758 L33.5831967,7.56584562 L33.2584648,7.56584562 L33.2065073,7.65677045 L33.284443,7.82563099 L33.388358,7.98150241 L33.284443,8.18933031 L32.7259049,8.24128778 L32.7259049,8.24128778 Z" fill="#FFFCFC" id="path3242"/><path d="M24.2346114,7.19630603 L24.8150707,7.21502995 L25.1146623,7.66441784 L25.376805,7.94528553 L25.6389478,8.15125456 L25.8636408,8.18870339 L26.2943038,8.82533541 L26.2943038,8.90023406 L26.6313452,9.19982595 L26.7249677,9.59304011 L26.7624166,9.7241115 L26.7436916,9.89263171 L26.5564465,10.0049782 L26.3317536,9.96752936 L26.2006822,9.8739068 L25.7887431,10.2296721 L25.5266003,10.5854375 L25.3580801,10.6228863 L24.9086922,11.109723 L24.6839993,11.1846207 L24.3282339,11.4467634 L23.7664996,11.4280385 L23.4107342,10.9973755 L23.3358366,10.8288553 L23.3171117,10.4918149 L23.6354282,10.267121 L23.7852235,10.4356412 L23.7103258,10.6041614 L23.7290508,10.8101314 L23.9162949,10.8850291 L24.10354,10.8663042 L24.7776208,10.2858459 L24.9461421,10.1922233 L25.3393552,9.79900915 L25.5827741,9.66793777 L25.5640492,9.4245199 L25.2831825,8.99385562 L25.1895599,8.69426402 L25.1146623,8.41339734 L25.0397636,8.2074283 L24.7776208,7.9078367 L24.6278255,7.73931549 L24.5716518,7.57079528 L24.309509,7.36482624 L24.2346114,7.32737742 L24.2346114,7.19630603 L24.2346114,7.19630603 Z" fill="#F1453D" id="path3244"/><path d="M35.5067486,9.38707008 L35.8063402,9.38707008 L36.1246568,9.23727478 L36.3680746,9.03130544 L36.5927686,9.03130544 L36.7425639,9.18110104 L36.9859827,9.16237713 L37.135778,8.97513171 L37.1919518,8.75043776 L37.3979208,8.46957107 L37.4540945,8.18870339 L37.6413397,7.79548923 L37.6975124,7.51462254 L37.2294006,7.49589763 L36.6863911,7.96400944 L36.2744521,7.98273435 L35.9374116,8.33849969 L35.6752689,8.37594851 L35.3944022,8.78788659 L35.3007796,9.03130544 L35.3382284,9.27472361 L35.5067486,9.38707008 L35.5067486,9.38707008 Z" fill="#F1453D" id="path3246"/><path d="M29.7208837,13.1506915 L29.3651194,13.5064558 L29.2714968,13.8247723 L29.4212921,14.1430888 L29.7583335,14.1992616 L30.0017514,14.0681902 L30.2264454,14.330333 L30.2638942,14.7797208 L30.7132821,15.2665576 L30.9192511,15.3227303 L31.0877713,15.1354862 L31.2750164,14.9482411 L31.2937404,14.7609959 L31.593332,14.6299246 L31.6682296,14.0681902 L31.8367508,14.2741602 L32.1176175,14.10564 L32.4733828,14.0681902 L32.4733828,13.6000784 L32.3423115,13.2817629 L32.0614438,13.0757928 L31.6307808,12.8885487 L31.162669,12.7200285 L30.937975,12.7387524 L30.5260369,12.9821703 L30.0766491,13.1319666 L29.7208837,13.1506915 L29.7208837,13.1506915 Z" fill="#D40000" id="path3248"/><path d="M32.5394479,13.0351646 L33.2156493,13.0044278 C33.6799191,12.7032251 33.8802438,11.4782138 34.1992141,10.6684612 C34.6945322,10.0268924 35.3022315,9.8348479 36.0433994,10.1766788 L36.4737091,10.2996241 L37.0269642,10.7299338 L37.4265381,10.7299338 L37.7031656,10.7914065 L38.1334753,10.8221433 L38.9018853,10.2074146 L38.8711494,10.8528792 L38.3486302,11.3139257 L37.2728559,11.7134986 L36.4429723,11.2217162 L36.4122364,11.3446616 L38.194948,13.3117922 L38.3486302,13.3117922 L38.6559946,13.6191565 L38.8096767,13.4962112 L38.8404126,12.973692 L39.4551413,12.4204359 L39.516614,13.2195827 L39.7317689,13.6191565 L39.7317689,14.3875665 L39.1477769,15.1252406 L38.2256848,15.2481859 L37.1499105,14.5719855 L37.1191737,14.2646211 L36.1356089,13.1273741 L36.1356089,13.6191565 L36.7196008,14.8178762 L36.8118093,15.2789228 L37.0269642,15.4940776 L37.1806464,15.8629147 L37.1806464,16.3239602 L37.4572739,16.9694248 L37.9490563,17.0308985 L38.0720026,16.7235341 L38.0720026,16.2932244 L38.5945219,15.7707052 L38.9326221,15.7399683 L39.0555674,15.9243873 L38.9018853,16.0780695 L38.8404126,16.4161697 L38.8404126,16.6313246 L39.2707223,17.2153165 L39.3936677,17.5841536 L38.7482031,18.5677184 L38.3178933,18.6906647 L37.5494834,18.5677184 L37.0884369,18.260354 L36.8425462,18.260354 L36.1356089,17.1845797 L36.0433994,16.6620614 L35.0905704,15.1559764 L35.0598346,15.4633408 L35.4286706,15.9243873 L35.6130897,16.6313246 L35.7975077,17.8915179 L36.3507638,18.9672922 L36.3814996,20.9651587 L36.5659186,21.1803135 L36.8118093,21.1803135 L37.1191737,20.9344218 L37.3650654,20.5963216 L37.3035917,19.4283378 L37.6416929,19.4283378 L38.2256848,19.766439 L38.6559946,20.4733763 L38.8096767,20.7807406 L38.8096767,21.4262052 L38.5945219,21.4569411 L38.1642112,21.9179876 L37.4572739,22.225352 L36.2278174,22.225352 L35.9511899,21.9794603 L35.7052992,21.9794603 L35.5208801,21.7950413 L35.1827799,21.7950413 L34.229951,20.4426394 L34.1992141,18.1988813 L34.3221605,17.7070989 L34.3221605,17.0308985 L34.1684783,17.0308985 L34.1684783,17.7070989 L34.0147961,18.1374086 L33.9840593,18.7521374 L34.0147961,20.4426394 L35.0290977,22.0716698 L35.7667718,22.4405069 L35.9819267,22.6863976 L35.6438255,22.6863976 L35.6745623,22.9322892 L35.3979348,22.8708166 L35.3364621,22.9937619 L35.1827799,22.9322892 L34.9061524,22.7478702 L34.5373154,22.8093429 L34.2914237,22.9322892 L33.6459591,22.9322892 L33.3693315,22.3790332 L33.1541767,21.9487235 L32.4165026,21.272523 L31.8632475,21.272523 L31.7403022,20.8729492 L31.8325107,20.1660119 L31.9861929,19.5205473 L31.9861929,17.7993084 L31.8632475,19.766439 L31.5251473,20.8729492 L31.4022009,20.9651587 L31.3714651,22.225352 L31.58662,22.8093429 L32.4472394,23.7621719 L31.8632475,23.8236445 L31.4329378,23.6392265 L30.9718912,23.731436 L30.264954,23.5777538 L29.4658072,23.3011263 L28.943288,22.7786071 L28.6973973,22.1946152 L28.6051877,21.6106232 L28.4822424,20.9958955 L28.6051877,20.5041121 L28.6666604,20.0123297 L28.4207697,20.5655858 L28.4207697,21.3954684 L28.4207697,21.8872508 L28.0826685,21.7950413 L28.0826685,21.4262052 L27.806041,21.0573682 L27.7445683,20.5655858 L27.6523588,19.8279117 L27.621623,18.629191 L27.6523588,17.8915179 L27.806041,17.0616343 L27.6830956,17.0308985 L27.5908861,18.075936 L27.5294134,20.1352751 L27.3142586,20.1967487 L26.8224762,20.8729492 L25.715965,20.8729492 L25.2856553,20.5041121 L26.1155379,19.6127568 L26.0233294,18.9058196 L25.9311199,18.075936 L25.8389104,16.6620614 L24.8860824,17.6763631 L23.8103071,18.444773 L22.888215,18.444773 L22.3656958,17.7993084 L22.2734873,17.0616343 L22.3349599,16.5391151 L22.888215,15.801442 L23.2877889,15.7399683 L23.4414711,15.5862871 L23.5336796,15.7092325 L23.3185247,16.3239602 L23.1033699,16.7850068 L23.2877889,17.2153165 L23.8103071,17.2767892 L24.4865085,16.2317517 L25.0090278,15.0022952 L25.4086007,14.3875665 L25.4086007,14.0494663 L25.0397636,14.3260938 L24.6094539,14.4183033 L23.3492616,14.4490392 L22.6115875,13.9879936 L22.4886421,13.6191565 L22.519378,13.2810553 L22.5501148,12.8200098 L23.3492616,12.2974905 L23.3799984,13.4040017 L23.9025166,12.973692 L23.9025166,12.7585371 L24.5787181,11.8671808 L26.2077474,10.4225695 L27.1913132,10.4225695 L27.7753041,10.8528792 L28.0211958,10.9143519 L28.7281331,11.5905533 L28.7588699,12.4511727 L29.5887525,13.1273741 L29.0969701,13.7113661 L29.127707,14.0187294 L29.5887525,14.3568306 L30.0190623,14.2338843 L30.2034813,15.3711323 L30.7260005,15.6784956 L31.0026281,15.7092325 L32.0476655,14.479776 L32.5087121,14.4183033 L32.7853396,13.8035746 L32.6623943,13.3117922 L32.5394479,13.0351646 L32.5394479,13.0351646 Z" fill="#F1453D" id="path3250"/><path d="M20.725361,23.718011 L20.725361,23.8985432 L21.0864253,24.3885593 L21.0606351,24.9043655 L19.2295226,25.8328174 L18.4300225,25.8843977 L18.0173769,26.2712521 L16.9599743,26.6065262 L16.4957484,26.5033656 L16.5731189,26.245462 L16.6247002,25.8070262 L16.5731189,25.5491236 L16.2378447,25.3685914 L16.2378447,24.9559458 L16.6504903,24.826994 L16.5215385,24.6464619 L16.2894261,24.6206717 L16.3410064,24.0790753 L16.444168,23.872752 L16.4699582,23.7438012 L16.444168,23.4858976 L16.3410064,23.2537851 L16.0573126,23.1764136 L15.2320224,23.5116877 L15.1030706,23.3827359 L14.7162162,23.7953815 L14.5098939,23.8211717 L14.4841027,23.4858976 L14.0714581,22.9443012 L14.0714581,22.8411395 L13.2977482,22.7121877 L12.7561518,23.4085271 L12.3692964,23.4085271 L12.0856036,23.2022038 L11.8534901,23.2022038 L11.5955875,23.3569458 L11.4408455,23.3053654 L11.2087321,23.718011 L11.0797803,23.718011 L10.9250383,23.3827359 L10.718716,23.0474618 L10.6413455,22.8411395 L10.7445062,22.4284949 L11.0797803,22.2221716 L11.4924259,22.0158493 L11.8019098,21.964269 L12.1629741,22.1705913 L12.3177161,22.5058654 L12.781942,22.0674297 L13.2461679,21.5516234 L13.6330223,21.3968814 L14.1230384,21.4742529 L14.6646358,22.1963815 L15.1804421,22.2479618 L15.79941,21.809527 L16.0315224,21.6805752 L16.59891,21.7579457 L17.1662966,22.0674297 L17.7594743,22.9443012 L17.862635,23.7953815 L17.9915868,24.027494 L19.0232003,23.9501235 L20.1063931,23.7438012 L20.725361,23.718011 L20.725361,23.718011 Z" fill="#F1453D" id="path2200"/><path d="M12.2661357,23.6922199 L12.6014099,24.2853976 L12.5756197,25.3428013 L12.4466679,25.4717521 L11.9566518,25.0591075 L11.6987482,24.6980432 L11.4408455,24.2596075 L11.4408455,23.872752 L11.6987482,23.6664297 L12.0340223,23.5890592 L12.2661357,23.6922199 L12.2661357,23.6922199 Z" fill="#673FB4" id="path3173"/><path d="M13.2977482,25.3943816 L14.0456679,23.8469619 L14.0456679,23.4343173 L13.7619742,23.0216717 L13.3751197,23.0216717 L12.9624741,23.4085271 L12.9624741,24.7754137 L13.2977482,25.3943816 L13.2977482,25.3943816 Z" fill="#673FB4" id="path3175"/><path d="M14.5872644,25.3943816 L14.99991,25.2138495 L16.0057323,24.2596075 L16.1604743,23.9759137 L16.0831028,23.7438012 L15.79941,23.5374779 L15.6188769,23.4858976 L15.2062323,23.6664297 L14.9741188,23.8985432 L14.5098939,24.7238334 L14.5872644,25.3943816 L14.5872644,25.3943816 Z" fill="#673FB4" id="path3177"/><path d="M16.3667966,26.0649298 L16.0057323,26.3228334 L15.5930867,26.2970423 L14.845168,25.781236 L14.8709581,25.6780754 L15.3351841,25.6007039 L15.7478287,25.4201718 L16.1604743,25.4459619 L16.3925867,25.6522842 L16.4699582,25.8843977 L16.3667966,26.0649298 L16.3667966,26.0649298 Z" fill="#673FB4" id="path3179"/><path d="M13.6072322,26.245462 L14.3035706,26.89022 L14.8193778,27.2254941 L15.2320224,27.3802361 L15.7478287,27.6639299 L16.8310225,27.6639299 L17.8110546,27.5607682 L18.3010707,27.3802361 L19.2553127,27.3544459 L20.0290226,26.9933817 L20.5964092,26.6065262 L21.1637968,26.5807361 L21.4732807,26.2712521 L21.8859253,26.2712521 L22.7112155,25.6522842 L23.8717808,25.136478 L25.0839254,24.6980432 L26.3992317,24.4401396 L26.9408291,24.4659298 L27.1471514,24.6206717 L27.405054,25.0591075 L27.5082157,25.2654298 L27.3792639,25.7038655 L26.8892478,25.9875593 L26.7860871,25.6780754 L27.0955711,25.4201718 L27.0181996,25.2654298 L26.5281835,25.1880593 L26.1929094,25.1880593 L25.8834255,25.4975432 L25.8318451,26.1938816 L26.2444897,26.5549459 L26.6829255,26.8386397 L27.0697799,26.8644299 L27.5340059,26.5807361 L28.1529738,26.0391397 L28.514038,25.4201718 L28.4108774,24.5175101 L28.2045541,23.9501235 L27.5855872,23.4858976 L26.8118773,23.1764136 L25.4707799,23.2022038 L24.6712808,23.4085271 L24.3617969,23.5116877 L23.5107155,24.0790753 L23.1238611,24.1048655 L22.2727807,24.6722521 L21.9375066,24.8012039 L21.5506512,24.9559458 L20.9574745,25.2138495 L19.8227003,25.7296557 L19.0489904,26.1938816 L18.662135,26.245462 L17.7594743,26.8128495 L16.4699582,26.9160102 L16.2378447,26.7870594 L15.644668,26.7096879 L15.2578126,26.5549459 L14.8709581,26.3486236 L14.3293607,25.7038655 L14.1746198,25.6007039 L13.6846027,25.6007039 L13.5298617,25.8070262 L13.6072322,26.245462 L13.6072322,26.245462 Z" fill="#C8D547" id="path3181"/><path d="M21.3443289,22.5574457 L21.0606351,23.8211717 L21.3959092,24.182236 L21.3701191,24.5948816 L21.5506512,24.7754137 L21.8859253,24.5948816 L22.2211994,24.3627691 L22.5564735,24.2338173 L22.943329,24.027494 L22.9949093,23.7953815 L23.4075549,23.5890592 L23.8459896,23.4601074 L24.4133772,23.3053654 L24.9807638,23.227994 L24.5681192,22.9443012 L23.3817647,22.1705913 L22.8917486,22.119011 L22.7112155,22.273753 L22.0148771,22.2995431 L21.6280227,22.4027038 L21.3443289,22.5574457 L21.3443289,22.5574457 Z" fill="#F1453D" id="path3183"/><path d="M27.0439898,21.2937198 L26.2186996,21.2679296 L25.6771032,21.2679296 L25.2386674,21.0873975 L24.8776031,20.7263332 L24.8260228,20.3910591 L24.5681192,19.9784135 L24.3102156,19.7205109 L23.9233611,19.7205109 L23.3817647,20.0815752 L23.1496513,20.5458011 L23.0980709,21.2937198 L23.4075549,21.9384778 L24.4391674,22.7121877 L25.0323451,22.8411395 L25.4449897,22.6606074 L26.3734415,22.2479618 L26.9666193,21.8611074 L27.1729416,21.5258332 L27.0439898,21.2937198 L27.0439898,21.2937198 Z" fill="#F1453D" id="path3185"/><path d="M25.0581353,20.1073653 L25.5223612,19.6173492 L25.5481514,18.5083653 L25.4191995,18.4052046 L25.5481514,17.9667688 L25.5997317,17.6057046 L25.4191995,17.6057046 L24.4133772,18.5599466 L23.7170388,18.6631072 L23.3559736,18.8694295 L23.3301834,19.1273331 L23.6138772,19.3078653 L24.1296834,19.256285 L24.4133772,19.2820751 L25.0581353,20.1073653 L25.0581353,20.1073653 Z" fill="#D40000" id="path3187"/><path d="M25.4707799,23.0216717 L26.3734415,22.9443012 L27.0955711,22.9958815 L27.4566354,23.0990431 L28.1787639,23.4858976 L28.5914095,23.6922199 L29.3909095,23.6406396 L29.0814256,23.2537851 L28.7719416,22.8669297 L28.5656193,22.4800753 L28.514038,22.0932198 L28.3335059,22.1448011 L28.1271836,22.0932198 L27.86928,21.7579457 L27.714538,21.2679296 L27.6113773,20.6231716 L27.405054,20.5973814 L27.2503131,20.9068654 L27.405054,21.0616073 L27.559796,21.3710913 L27.3018934,21.7063654 L27.2761032,21.964269 L26.9408291,22.2221716 L26.4766032,22.4284949 L26.0381674,22.6090271 L25.5481514,22.7895592 L25.4707799,23.0216717 L25.4707799,23.0216717 Z" fill="#F1453D" id="path3189"/><path d="M28.6171997,24.0790753 L28.7719416,25.3685914 L28.4882479,26.1680915 L29.0814256,26.1938816 L29.777764,26.1938816 L30.3967319,26.0649298 L30.9899096,26.0133495 L31.531506,26.0391397 L31.9699418,26.09072 L32.5115382,25.8843977 L32.5373284,25.4717521 L32.4083765,25.1106878 L32.6662802,24.3111878 L32.5631185,24.1306556 L28.6171997,24.0790753 L28.6171997,24.0790753 Z" fill="#C8D547" id="path3191"/><path d="M32.0731024,21.8353172 L32.0988936,22.9443012 L32.485748,23.2795753 L32.8468123,23.2795753 L33.1305061,23.1248333 L33.2078766,22.8927199 L32.9499739,22.7379779 L32.8468123,22.4284949 L32.3052159,21.8353172 L32.0731024,21.8353172 L32.0731024,21.8353172 Z" fill="#F1453D" id="path3193"/><path d="M36.2769249,22.7121877 L37.3859089,23.4601074 L37.721183,23.5632691 L38.0306669,23.4601074 L38.5464732,23.0474618 L38.8043768,22.4800753 L38.830167,22.0674297 L38.5722643,22.0416395 L38.1596187,22.3253333 L37.566441,22.3769136 L37.1022161,22.4542851 L36.7411508,22.4542851 L36.3800865,22.5316556 L36.2769249,22.7121877 L36.2769249,22.7121877 Z" fill="#F1453D" id="path3195"/><path d="M39.474925,21.8611074 L39.2686027,22.1963815 L39.0622804,22.7121877 L38.5980545,23.2022038 L38.6238447,23.5632691 L38.4175224,23.5632691 L38.4433125,23.8469619 L38.8043768,24.1306556 L39.8101991,24.2853976 L40.6096992,23.2537851 L40.6096992,22.9700913 L40.1712644,22.4542851 L39.8617805,22.3769136 L39.474925,21.8611074 L39.474925,21.8611074 Z" fill="#F1453D" id="path3197"/><path d="M44.1687636,24.7496235 L44.6845708,25.0075262 L44.6845708,25.1880593 L44.4782475,25.4717521 L44.3492957,26.0133495 L44.2977154,26.3486236 L43.6787475,26.3744138 L43.0339894,26.1423013 L42.6729252,25.9101878 L42.337651,25.9101878 L42.1571189,25.7554459 L41.847635,25.5491236 L41.4607805,25.29122 L41.0481349,24.7496235 L40.7644411,24.3885593 L40.7644411,24.1306556 L41.1512966,23.6406396 L41.538151,23.5116877 L43.2661029,23.5116877 L44.0656029,23.227994 L44.710361,22.6863976 L45.4840699,22.5316556 L45.664603,22.3253333 L46.1804092,22.2221716 L47.4699254,21.5516234 L48.1920539,21.6805752 L48.9141834,21.6547851 L49.5331513,21.8353172 L49.7652638,22.0416395 L49.636312,22.119011 L49.3010379,22.0932198 L48.9141834,22.2995431 L48.8626021,22.9958815 L49.1720861,23.5632691 L49.0947156,23.718011 L48.7078601,23.6922199 L48.4499575,23.5632691 L48.3210057,23.3311556 L48.3210057,23.0990431 L48.0631021,22.7379779 L47.8567798,22.6606074 L47.3925539,22.6606074 L47.2378119,23.6406396 L47.0056994,23.6406396 L46.5672637,23.2537851 L45.9225056,23.1764136 L45.4840699,23.5632691 L45.6388118,24.0790753 L46.2835699,24.6980432 L46.618845,24.6980432 L46.9283279,25.0591075 L46.9025378,25.3428013 L46.4383119,25.2396396 L45.9740869,25.136478 L45.5872315,24.9559458 L45.2777476,25.0075262 L44.9166833,24.8012039 L44.555619,24.6464619 L44.3235055,24.5433012 L44.1687636,24.7496235 L44.1687636,24.7496235 Z" fill="#F1453D" id="path3199"/><path d="M34.7295062,25.4975432 L34.5747642,25.6007039 L34.3426507,25.4975432 L34.2136999,25.136478 L34.4716025,24.9043655 L35.0389901,24.9301557 L35.5547963,25.3943816 L35.5547963,26.0649298 L34.858458,26.4002039 L34.1363284,26.5807361 L33.3368284,26.3486236 L32.8468123,25.6780754 L32.7178605,25.2138495 L32.8210221,24.4143494 L32.9499739,23.8985432 L33.6463123,23.3827359 L34.394232,23.1506235 L35.2711026,23.0216717 L36.2769249,23.2795753 L38.3143607,24.0532852 L39.6812483,24.6722521 L41.2028769,25.4717521 L42.1055386,25.8843977 L43.2918931,26.4517843 L44.0140216,26.7096879 L44.8393118,26.6065262 L45.2003771,26.6323174 L45.9225056,26.4002039 L46.4125217,26.3486236 L47.4957155,25.0848977 L47.9341513,24.826994 L47.88257,25.3943816 L47.1604414,26.1938816 L46.5414735,26.89022 L46.2835699,26.9160102 L45.9482958,27.199704 L45.3035377,27.1739138 L43.8076993,27.2512843 L43.0855708,27.0191718 L41.9507966,26.7870594 L40.6096992,26.1938816 L39.5522965,25.6522842 L39.0364903,25.5749137 L38.2369902,25.1622681 L37.7469741,25.1106878 L37.4632804,24.9043655 L36.5864088,24.6464619 L35.8642803,24.3885593 L35.1679419,24.3111878 L34.6263445,24.2338173 L34.3684419,24.3885593 L34.1105383,24.7496235 L33.9815864,25.2396396 L34.1621186,25.8328174 L34.4716025,25.8843977 L34.7552963,25.7554459 L34.858458,25.5491236 L34.7295062,25.4975432 L34.7295062,25.4975432 Z" fill="#C8D547" id="path3201"/><path d="M45.0972154,25.3170101 L45.6903931,25.3170101 L46.0256673,25.4975432 L46.6962155,25.4975432 L46.6962155,25.7554459 L46.309361,26.0391397 L45.5614413,26.245462 L45.2261672,26.4002039 L44.9682636,26.3744138 L44.7877315,26.1423013 L44.7877315,25.781236 L44.9424734,25.4717521 L45.0972154,25.3170101 L45.0972154,25.3170101 Z" fill="#673FB4" id="path3203"/><path d="M49.1978762,24.5175101 L49.1978762,24.5175101 C49.1978762,24.5175101 49.6105218,24.2853976 49.6878933,24.1048655 C49.7652638,23.9243333 49.9457959,23.5374779 49.9457959,23.5374779 L50.1005379,22.8669297 L49.8942156,22.2995431 L49.5073602,22.1963815 L49.1720861,22.2221716 L48.9915539,22.4027038 L48.9399736,22.8927199 L49.1205057,23.3053654 L49.2752477,23.5374779 L49.2494576,23.9759137 L49.1978762,24.5175101 L49.1978762,24.5175101 Z" fill="#673FB4" id="path3205"/><path d="M47.6504575,24.7238334 L47.6504575,24.7238334 L48.0631021,24.5175101 L48.3210057,24.027494 L48.3467959,23.4858976 L48.1404736,23.073253 L47.8567798,22.763769 L47.4699254,22.763769 L47.3667637,23.4858976 L47.6504575,23.7695914 L47.6504575,24.7238334 L47.6504575,24.7238334 Z" fill="#673FB4" id="path3207"/><path d="M47.1604414,25.1880593 L47.3151834,25.0075262 L47.3925539,24.6206717 L47.2378119,24.0532852 L47.0056994,23.7953815 L46.7220056,23.5374779 L46.4125217,23.3311556 L45.9740869,23.3311556 L45.6903931,23.5632691 L45.7677636,24.027494 L46.2835699,24.4143494 L46.6962155,24.4917199 L47.1604414,25.1880593 L47.1604414,25.1880593 Z" fill="#673FB4" id="path3209"/><path d="M23.0538444,29.2142354 L22.3025782,29.3049055 L21.771511,29.36967 L21.421783,29.5769158 L21.1368204,29.4085289 L20.9684326,29.5121513 L20.333742,29.1753765 L19.595429,29.5769158 L19.245701,29.8877849 L19.025503,29.8877849 L18.8571151,29.6675858 L18.5203404,29.9007372 L18.3260479,29.7064447 L18.1188021,29.5898691 L16.719892,30.6001923 L16.2147294,30.4318054 L15.9945314,30.6260978 L15.9038613,30.7038156 L15.8520491,30.9240147 L15.6448033,30.3799942 L15.4634632,30.5095222 L15.152595,30.4058998 L14.932396,30.7167679 L14.8805848,31.5327987 L15.0101128,32.5560762 L15.3468875,33.682975 L15.6577566,34.1492787 L15.9168136,34.2010899 L15.9945314,33.8772685 L16.1370126,34.4860535 L16.3442584,34.6932992 L16.4090229,35.7942935 L17.2509592,37.6854119 L17.328677,38.6568772 L17.3675349,40.3407499 L17.0566668,40.7163835 L16.6551275,41.3251685 L16.6680808,41.5065086 L16.2535883,42.2966338 L16.2794939,43.5012504 L16.370164,43.6048728 L16.3960706,44.7576783 L16.719892,44.7835839 L16.978949,45.0685474 L17.5488751,45.0167362 L17.5488751,44.6670082 L17.6265928,45.0685474 L18.0799432,45.6643791 L18.4685292,45.9752482 L18.7405394,45.9882005 L18.8830207,45.7809548 L18.8700684,44.485668 L18.9607385,45.9104837 L19.245701,45.8975304 L19.6083813,45.573709 L20.0876373,45.5089445 L20.2430719,45.5218978 C20.2430719,45.5218978 20.3726009,45.5996146 20.4373654,45.7161903 C20.5021299,45.8327669 20.7352812,45.9363893 20.7352812,45.9363893 L20.9036681,46.2861174 L21.1109148,46.3638341 L21.2145372,46.1436351 L21.0720559,43.3846747 L20.9295747,41.130875 L20.7741401,38.2682913 L20.6187055,34.6155824 L20.5927999,33.4498237 L20.4114598,33.2943891 L20.4244121,32.9187565 L20.8648102,32.7892275 L21.1238671,32.7115097 L21.0072915,32.3617827 L20.8777625,31.1960249 L20.8777625,30.7556268 L21.033197,30.6260978 L21.3440662,30.6131455 L21.5642652,30.8722025 L21.9917091,32.6467462 L22.2119081,32.724463 L22.98908,32.7115097 L24.7506704,35.4963767 L25.3724087,36.4289841 L26.2272973,38.0221866 L27.3412449,39.6153892 L27.6909719,40.0816929 L27.9241232,40.1075985 L28.001841,38.4107726 L28.4940493,37.9833277 L28.0795578,35.0559795 L27.7427831,34.9912151 L27.2764804,34.5637702 L27.0174224,34.6026291 L26.7583655,35.0300739 L26.434544,34.6673936 L26.3956852,34.2529021 L26.0977693,34.0586086 L25.8775703,34.0586086 L25.5926067,33.6700227 L25.4371731,33.6311638 L25.255833,33.7995507 L25.2169741,32.4783584 L24.9320106,31.8566211 L24.8801994,31.4809875 L24.3491322,30.7297212 L23.7921584,30.6001923 C23.7921584,30.6001923 23.5460537,30.0432195 23.5460537,29.9655017 C23.5460537,29.8877849 23.4424314,29.6157746 23.4424314,29.6157746 L23.0538444,29.2142354 L23.0538444,29.2142354 Z" fill="#FEE94E" id="path2221"/><path d="M23.5201481,46.9337602 L23.1445145,46.4545042 L23.0149865,45.9493426 L22.9631744,44.8613016 L22.8465987,43.8250719 L22.6393529,42.218916 L22.3025782,40.2371275 L22.0305679,38.6309716 L21.9269456,37.6854119 L21.7067465,36.5714653 L21.6160764,35.8072458 L21.5254063,35.1725552 L21.4476886,34.2658544 L21.7067465,35.0818851 L22.1341913,36.9859569 L22.6134473,38.3071492 L22.8077398,39.2008977 L22.8077398,39.7060593 L23.1445145,40.43142 L23.3647136,41.3510741 L23.818064,43.2940047 L24.29732,44.8872072 L24.5434246,46.0400127 L24.5822835,46.4804098 L24.0771219,46.6487977 L23.8310173,46.7653734 L23.5201481,46.9337602 L23.5201481,46.9337602 Z" fill="#FEE94E" id="path3194"/><path d="M26.0459571,46.5451743 L26.3179674,45.2369343 L26.6417898,44.2395634 L26.7842711,43.5660149 L26.8878945,43.0219944 L26.8619879,42.2059637 L26.6417898,41.7267067 L25.6314656,39.693107 L25.0226806,38.4625838 L24.776576,37.8278932 L24.3232256,37.037768 L23.7144416,35.7683869 L23.1704201,34.8228282 L22.7170697,34.0456554 L22.2896259,33.4757293 L22.1600969,33.5923049 L22.5486828,35.0430262 L22.8725043,36.2865018 L23.1833734,37.6595063 L23.7014883,39.4599546 L23.9994041,40.7034302 L24.29732,41.4676497 L24.5822835,42.5427374 L25.3724087,45.1074063 L25.5278432,45.7809548 L25.9164292,46.5581276 L26.0459571,46.5451743 L26.0459571,46.5451743 Z" fill="#FEE94E" id="path3196"/><path d="M19.4943691,53.9234378 L19.1652447,54.2525611 L18.6480503,53.9234378 L18.8831381,53.3122068 L19.7294579,53.1711535 L20.1996355,53.87642 L20.0115645,54.5816855 L19.3533158,55.2399342 L18.5540147,55.475023 L17.7547127,55.5690585 L16.8143584,55.5220408 L15.5448788,55.2399342 L14.5575067,54.0644911 L13.8052225,52.5599226 L13.2410093,51.2904439 L12.5827616,48.7044678 L12.2536372,47.6230602 L12.1125839,46.6356872 L11.4073174,45.272173 L11.689424,45.0370841 L14.1343468,42.8742679 L14.2754001,42.8742679 L14.7925955,42.4040913 L15.6859321,40.7114517 L15.7799676,40.6174162 L16.0620742,39.5830264 L16.0150564,37.7963523 L15.7799676,36.9500325 L15.2157544,36.0096782 C15.2157544,36.0096782 15.0276834,35.6805539 15.2157544,35.7275716 C15.4038255,35.7745894 14.69856,34.9282696 14.69856,34.9282696 L13.8522402,34.0349331 L13.8522402,33.846862 L13.2410093,33.2356311 L12.8178504,33.0005423 L12.488726,33.0005423 L12.3476727,32.8124712 L11.7364418,32.6244011 L11.4543352,32.9065067 L11.2662641,33.5177377 L11.2662641,33.7528265 L11.689424,33.9408976 L11.8304773,33.846862 L11.689424,33.6117732 L11.7364418,33.3296666 L12.0655662,33.0945778 L12.4417083,33.3766844 L12.3946905,34.0819508 L12.1125839,34.4110752 L11.4073174,34.458093 L10.8431053,34.1759864 L10.6080164,33.7058087 L10.4199454,33.0005423 L10.6080164,32.5773834 L10.890123,32.3422945 L11.3602997,32.4363301 L12.1125839,32.248259 L12.3476727,32.1542235 L12.9589027,32.248259 L13.3820626,32.6714189 L13.8522402,32.9535245 L15.0276834,34.2700219 L15.3568077,34.5991463 L15.9680387,35.4924828 L16.7203229,37.1851214 L16.908393,38.3605655 L16.8143584,39.5360086 L16.2031275,41.2286472 L15.497861,42.3100558 L14.5104889,43.5325167 L12.8178504,44.9430486 L12.5827616,44.9900664 L12.2066194,45.460244 L12.8648682,46.870776 L13.899258,51.1964084 L14.7455778,52.9830825 L15.9680387,54.2525611 L16.908393,54.7697565 L18.1308549,54.9108098 L19.2122625,54.6287032 L19.6824401,54.2055444 L19.4943691,53.9234378 L19.4943691,53.9234378 Z" fill="#C8D547" id="path3202"/><path d="M21.4691142,54.9108098 L21.3280609,55.1458987 L21.516132,55.5220408 L21.9863096,55.6160763 L22.315434,55.1929164 L22.315434,54.7227388 L22.0333274,54.2055444 L21.6571853,54.1115088 L21.2340254,54.1585266 L20.6227954,54.5816855 L20.2936711,54.9578276 L20.1056,55.8511651 L20.5757777,57.3087149 L21.3280609,58.2960869 L23.2087705,59.5185488 L25.2305334,60.2708321 L26.5000131,60.4589031 L27.4403674,61.3992584 L27.910545,62.5276838 L27.4873851,63.2329503 L26.923172,63.279968 L26.923172,62.9978615 L27.1582608,62.9508437 L27.4403674,62.6687371 L27.2993141,62.3866305 L26.7351009,62.0575062 L26.2649242,62.4336483 L26.2179065,63.279968 L26.6410654,63.7031279 L27.2522963,63.8441812 L27.722474,63.6561102 L28.1926516,63.1389147 L28.2396694,62.5276838 L28.0515983,61.6343473 L27.2522963,60.5059209 L26.4059775,60.082762 L24.2901791,59.3304778 L22.9266639,58.8132823 L21.9392918,58.1080169 L21.0459543,57.1676616 L20.5287599,55.8041474 L20.7638477,54.9108098 L21.2810431,54.5346677 L21.5631497,54.6287032 L21.4691142,54.9108098 L21.4691142,54.9108098 Z" fill="#C8D547" id="path3204"/><path d="M38.536554,54.9578276 L38.9126961,55.1929164 L38.9597138,55.5690585 L38.536554,55.7571296 L37.9723418,55.6630941 L37.9723418,55.0988809 L38.3014651,54.3936144 L39.2418204,54.3465967 L39.6649803,54.8637921 L39.9470869,55.8511651 L39.6649803,56.885555 L38.5835717,57.7788925 L37.0790042,58.8132823 L35.4333835,59.5185488 L32.9884607,60.693992 L32.2831952,61.2111874 L31.6719642,62.3396127 L32.0481064,62.9978615 L32.518283,63.091897 L32.518283,62.8568082 L32.3772307,62.6687371 L32.4712653,62.1515417 L32.7533718,61.8694361 L33.317585,62.1985594 L33.4586383,62.9038259 L32.9414429,63.4210213 L32.3772307,63.5150569 L31.4838932,63.091897 L31.2017866,62.6217193 L31.1547688,61.9634716 L31.5309109,61.3522407 L32.2831952,60.5999564 L33.4586383,59.9417087 L35.1512769,59.2364422 L37.6432174,58.0139813 L39.3828737,56.1332717 L39.3828737,55.3809875 L39.0067316,54.9108098 L38.536554,54.9578276 L38.536554,54.9578276 Z" fill="#C8D547" id="path3206"/><path d="M40.6993702,53.5943134 L40.6993702,54.0174733 L41.0284945,54.0174733 L41.3576189,53.9704555 L41.4986722,53.4062423 L41.2165656,53.0301002 L40.8404235,52.9830825 L40.3702458,53.077118 L39.8530514,53.4532601 L39.8060336,54.2055444 L40.0411224,54.7227388 L40.5112991,55.4280053 L41.3576189,55.8511651 L42.2039377,56.086254 L43.4734173,55.9922184 L44.930967,55.286952 L46.2944812,54.2995789 L46.8586944,52.9360647 L47.5639609,50.4441241 L48.4572974,47.2939359 L49.0215106,46.1184927 L49.4916883,45.6953329 L49.350635,45.5072618 L48.9274751,45.5072618 L47.8460675,44.7079598 L46.7176411,44.0026943 L45.2600914,42.263038 L44.5078071,40.8054873 L44.2727183,38.7367066 L44.6958782,36.7149437 L45.5892157,35.2103762 L47.0467655,33.9879153 L48.3632619,33.04756 L49.6797593,33.0005423 L49.8678304,33.5177377 L49.6797593,33.9408976 L49.3976527,33.7058087 L48.9744928,33.658791 L48.7864218,34.3640574 L49.2565994,34.5991463 L50.1029182,34.5051107 L50.338007,33.9408976 L50.2439715,33.1415955 L49.6327415,32.5773834 L48.551333,32.6714189 L47.7520319,32.7654544 L46.7646589,33.3296666 L45.730269,34.4110752 L45.0250026,35.445465 L44.131665,36.9030148 L43.8495594,38.2195122 L43.8965772,40.5233817 L45.0720203,43.0153212 L46.1064102,44.3318187 L48.1281731,45.6953329 L48.4572974,45.9304217 L47.8460675,47.2939359 L46.9527299,50.1620185 L46.3885168,52.465887 L45.9183401,53.4532601 L44.4137716,54.7697565 L42.7211331,55.4280053 L41.2635833,55.3809875 L40.5583169,54.8637921 L40.3702458,54.3936144 L40.323228,53.6883489 L40.6993702,53.5943134 L40.6993702,53.5943134 Z" fill="#C8D547" id="path3208"/><path d="M33.5278887,36.8532863 L33.428208,36.6539238 L33.7604789,36.2884253 L34.391794,36.155517 L34.8902008,35.7567919 L35.521516,35.3580659 L36.1860588,35.1919309 L37.0499641,35.9229269 L36.7509198,36.155517 L36.4518755,36.1222904 L35.8870145,36.4877879 L35.4550618,36.7536056 L35.0895634,36.6871514 L34.7572925,36.5874696 L34.55793,36.7536056 L34.2588857,36.7536056 L34.0262956,36.8865139 L33.5278887,36.8532863 L33.5278887,36.8532863 Z" fill="#CCCCCC" id="path3210"/><path d="M49.0449543,23.9611642 L49.0449543,24.4263434 L48.5797741,24.4927976 L48.5465475,23.8614824 L49.0449543,23.9611642 L49.0449543,23.9611642 Z" fill="#48489C" id="path3212"/><path d="M37.5815975,35.9229269 L37.9138693,35.7900185 L38.4122762,35.7900185 L38.6780929,36.5210154 L38.6780929,36.7536056 L39.1100455,36.6206972 L39.9074956,36.6206972 L40.4723576,36.8865139 L40.9707644,37.3849207 L41.5023978,37.683965 L41.9343505,37.683965 L41.9343505,37.4513749 L42.3663031,37.4513749 L42.4659839,37.5842833 L42.9311641,37.6507374 L43.263435,37.5510557 L43.3631168,37.8501 L43.2966626,38.248826 L43.1969808,38.5478693 L43.3298892,39.8105007 L43.9279778,41.9702629 L45.0576998,43.7977552 L44.6257471,43.5983917 L43.6621611,43.4654833 L43.3631168,43.5983917 L42.9643907,43.5651651 L42.4992115,43.9971177 L42.2666214,44.0303443 L42.0672588,44.1964803 L41.7017604,43.6980734 L40.3062217,41.8373545 L39.9407232,41.4386295 L39.1432721,39.7108189 L38.0467777,37.3516931 L37.9803235,36.3881071 L37.7145058,36.1222904 L37.5815975,36.0890628 L37.5815975,35.9229269 L37.5815975,35.9229269 Z" fill="#CCCCCC" id="path3214"/><path d="M37.1828724,48.7818224 L37.7477334,49.0476401 L37.7145058,48.7818224 L38.1132319,49.0476401 C38.1132319,49.0476401 38.4787303,49.1140943 38.6780929,49.0808667 C38.8774554,49.0476401 39.309408,48.6156875 39.309408,48.6156875 L39.4423164,47.7185546 L40.3062217,46.2233341 L40.9375369,45.8578367 L41.1368994,45.8246091 L41.734988,45.1600663 L42.86471,44.5619787 L43.3963434,44.3626162 L44.2602486,44.5287511 L44.8915638,44.8277954 L45.0244722,45.3594298 L45.1241539,46.7881951 L45.522879,47.0872394 L45.8551509,46.9211045 L46.1541952,46.555606 L46.8851911,46.2897883 L47.4168255,46.3562435 L47.3835979,47.0207852 L47.1510088,48.250189 L46.7855103,49.5460469 L46.1874217,51.6061284 L45.6225608,53.0681212 L44.2270221,54.1313891 L43.1305267,54.8291584 L41.3694895,54.8291584 L40.8378551,54.3307516 L41.5023978,54.1646166 L41.734988,53.7658906 L41.8014421,53.0681212 L41.2033536,52.6361686 L40.605266,52.6693962 L39.8078149,53.1345754 L39.5087706,53.5333015 L39.3426346,53.9984807 L39.0435913,53.9984807 L38.3790486,53.9652541 L37.8806418,54.297525 L37.5151433,54.7627042 L37.4154625,55.4604736 L37.5815975,55.9588804 L37.9470959,56.1914705 L38.6116387,56.1582439 L38.7777736,56.0253356 L38.910682,56.0253356 L38.3125944,56.6898773 L37.5483709,57.4873284 L36.5515572,58.1518712 L35.8870145,58.3512337 L34.7905191,58.7499588 L33.993069,59.1154572 L33.0959361,59.1486848 L32.1655766,59.9793625 L31.5342615,60.4777693 L31.1023088,61.0758569 L30.9029463,62.1058982 L30.9029463,62.8701217 L31.4013531,63.5346644 L31.3348989,63.734027 L31.0358546,63.7008004 L30.8697197,63.567891 L30.1387228,63.567891 L29.9393602,63.2688477 L29.5738618,63.3353019 L29.0422274,63.5014369 L28.8096383,63.734027 L28.4109122,63.5346644 L28.6435023,62.9365759 L28.6767289,62.3717149 L28.510594,61.6074913 L28.0121871,60.6106777 L27.5802345,60.1454985 L26.816011,59.6803182 L25.3540171,59.2483656 L23.7591159,58.650278 L22.5961663,58.085417 L22.1642137,57.4208743 L21.9980777,56.5901966 L22.2638954,56.8560133 L22.0313053,55.9256538 L22.3635762,56.3576064 L22.5961663,56.390833 L23.2607091,57.2215117 L23.7923425,57.3211925 L23.9252508,57.3876467 L24.0913868,57.3876467 L24.1246144,57.3211925 L24.6230212,57.5870102 L25.1878822,57.7531451 L25.9853323,57.7531451 L25.2875629,57.5870102 L24.4236577,57.1882841 L23.5265258,56.6898773 L23.028119,56.0253356 L22.9616648,55.7262913 L22.6958481,55.6930637 L22.7290747,55.4937012 L22.9284372,55.261111 L23.1942549,55.2943386 L23.2607091,55.4937012 L23.5265258,55.3940194 L23.9584784,55.7262913 L24.6894754,55.7927454 L25.2211088,55.8591996 L24.7559295,55.5933829 L24.0249326,55.1946569 L23.2939357,54.5301151 L23.0613455,54.4968875 L22.3303496,53.3671655 L21.9316236,52.2706701 L21.5993527,51.1077215 L21.5993527,49.7454094 L22.0313053,48.648914 L22.6626205,47.6521004 L23.028119,47.3198295 L23.3271632,47.4195113 L24.0913868,46.8546503 L24.6230212,46.6885144 L25.3207905,46.7217409 L25.8524239,46.8878769 L26.6166475,47.120467 L26.9821459,47.5856462 L27.3476444,47.6188738 L27.4473262,47.8846905 L27.2479636,47.9511447 L27.5137803,48.3166432 L27.4140986,48.5492333 L27.6466887,48.8482766 L27.6134611,49.2802292 L27.1815094,49.778636 L27.4805527,50.2770429 L27.4473262,50.4431788 L27.8128246,50.8419038 L28.1450955,51.3403107 L28.7099565,51.4399924 L30.039041,51.47322 L31.0026281,51.3735383 L31.5674891,51.3403107 L31.3348989,51.074494 L31.733624,50.9748132 L32.2320308,50.8751314 L33.1291637,50.1773621 C33.1291637,50.1773621 33.826933,48.9811859 33.9598414,48.81505 C34.0927497,48.648914 34.3585674,48.0840531 34.3585674,48.0840531 L35.4882894,46.9211045 L35.9202421,46.7549685 L36.9170557,46.2565617 L37.9470959,46.2565617 L38.2129126,46.555606 L38.6448653,46.6220602 L39.0435913,47.120467 L39.2429539,48.4827791 L38.6116387,48.9147317 L38.0800043,48.9147317 L37.7145058,48.6821416 L37.6148251,48.8815042 L37.1828724,48.7818224 L37.1828724,48.7818224 Z" fill="#CCCCCC" id="path3216"/><path d="M21.0595912,53.6792109 C21.0595912,53.6792109 21.1377349,53.5229245 21.2158776,53.5229245 C21.2940213,53.5229245 21.4698436,53.5033886 21.4698436,53.5033886 L21.4893795,52.4875266 C21.4893795,52.4875266 21.3526291,52.4093829 21.3330931,52.3312402 C21.3135572,52.2530966 21.3135572,51.881916 21.3135572,51.881916 L21.1768068,51.7451656 L21.1572708,47.6426459 L20.7665544,46.5877121 L20.4344457,46.0211734 L20.1609448,45.8062802 L19.7311565,45.7672084 L19.2427615,46.0797811 L18.9497246,46.2360675 L18.3245781,46.099317 L18.0901491,45.9430307 L17.7189685,45.9234947 L17.3868599,45.3178842 L16.7031066,45.102991 L16.3905338,45.0053114 L15.4528146,44.9271687 L15.1793136,44.9076328 L14.827669,45.1420629 L14.4174167,45.6304579 L14.1243798,46.1969957 L14.085308,47.115179 L14.3002021,47.4082158 L14.3002021,47.8380041 L14.3978808,48.0138264 L14.3978808,48.3850069 L14.085308,48.0138264 L13.7727352,47.2519295 L13.6164489,46.7830703 L13.4796974,46.9784285 L13.5187692,47.6035741 L13.5383052,48.111505 L13.7141275,48.5803642 L13.8899498,49.2445825 L14.1829866,50.0846222 L14.4174167,50.9832686 L14.6323108,51.8428442 L15.0425622,52.6242771 L15.3942068,53.1126721 L16.1951756,53.91364 L16.7031066,54.2652846 L17.4845385,54.5387865 L18.36365,54.5192505 L18.6371509,54.3238923 L18.2855063,53.9917836 C18.2855063,53.9917836 18.2268995,53.7768895 18.2268995,53.6987468 C18.2268995,53.6206031 18.344114,53.2298867 18.344114,53.2298867 L18.7152946,52.8391712 L19.7897643,52.643813 L20.1609448,52.9173139 L20.6493399,53.4643167 L21.0595912,53.6792109 L21.0595912,53.6792109 Z" fill="#CCCCCC" id="path3218"/><path d="M45.8896044,44.6536668 L45.8896044,45.2397415 L46.0263549,45.3178842 L46.0654267,45.5132424 L46.6710363,45.610922 L46.6124285,45.4155638 L46.2217131,45.0443832 L46.1240335,44.7708823 L45.8896044,44.6536668 L45.8896044,44.6536668 Z" fill="#FFFCFC" id="path3220"/><path d="M45.9091393,36.2728052 L45.498888,36.6439857 L45.2253861,37.1714526 L45.1277075,37.7184554 L44.9518852,38.4022087 L44.8737425,38.9296756 L44.9518852,40.082288 L44.990957,40.7074335 L45.3621375,41.2935082 L45.5574957,41.3521159 L45.7919248,41.8209751 L46.1240335,40.9027917 L46.2803199,41.0200073 L46.3779995,41.7037605 L46.9250023,42.1726197 C46.9250023,42.1726197 46.4170713,41.9186537 46.2998558,41.9186537 C46.1826413,41.9186537 46.1631053,42.0554051 46.1631053,42.0554051 L46.2998558,42.348442 L46.6124285,42.6610147 L47.1594314,42.8759089 L48.1752933,42.8954448 L47.9408643,43.1298739 L47.2375751,43.1298739 L47.0617528,43.2666243 L47.3157177,43.6378048 L47.6282905,44.1261999 L48.1948292,44.3997018 L48.7809039,44.2434154 L48.9762621,44.2434154 L48.8785825,44.4778445 L49.1716194,44.6927386 L49.4255854,44.9271687 L49.6600154,45.1811337 L49.8553726,45.2202055 L49.8553726,45.5132424 L49.503729,46.3923539 L49.4255854,46.8026062 L49.2302271,47.1347149 L49.1130126,47.6426459 L48.761368,48.2482555 L48.7222962,48.4631496 L48.8981185,48.4631496 L49.1520844,48.131041 L49.523264,47.9747546 L49.9725882,47.3886799 C49.9725882,47.3886799 50.2265532,47.4668236 50.2851609,47.3496091 C50.3437687,47.2323935 50.6172696,46.4118898 50.6172696,46.4118898 L50.8907705,46.353282 L51.027522,45.4937065 L51.261951,46.2946753 L51.4573093,47.3105372 L51.3791666,48.1701128 L50.8712356,49.1078311 L50.7344841,49.2641175 L50.8126278,49.5766912 L51.1838084,49.5766912 L51.6135956,49.127367 L52.3559567,48.131041 L52.6489935,47.1347149 L52.8052799,45.2006696 L53.1373886,46.099317 L53.4499623,46.9784285 L53.6062487,47.6621818 L53.3718186,48.5608292 L53.0787818,49.6157621 L53.4694973,49.3422611 L54.290002,48.4240778 L54.9346834,47.4668236 L55.1105057,46.7635344 L55.2667921,45.4155638 L55.1691135,44.36063 L55.2081843,43.9699135 L55.3449348,43.7550204 L55.3253999,43.0517312 L55.1886484,42.7586933 L54.7197893,43.3838399 L54.5244311,43.4229117 L53.9774282,43.0517312 L53.8406778,43.0126593 L53.528105,42.5633361 L53.3132109,41.840511 L53.3327468,41.0200073 L53.2155323,41.0200073 C53.2155323,41.0200073 53.27414,40.336254 53.3327468,40.1604317 C53.3913546,39.9846094 53.4694973,39.6525007 53.4694973,39.6525007 L53.3718186,38.9296756 L53.0006381,38.2459223 L52.5513149,37.8552059 L51.8284898,37.6403117 L50.9884501,37.4058826 L50.5000551,37.0151662 L49.5818717,36.9174866 L49.1130126,36.9760944 L48.2339011,36.565843 L47.6673623,36.3509488 L46.9445372,36.3314129 L46.2607839,36.2532692 L45.9091393,36.2728052 L45.9091393,36.2728052 Z" fill="#F1453D" id="path3222"/><path d="M14.4770375,36.3153459 L12.6752477,36.2793102 L12.3869615,36.1351671 L11.9545322,36.4955258 L11.1257084,36.4955258 L10.224814,37.0000267 L9.61220486,37.4684917 L9.28788289,37.432456 L8.02663057,38.5856017 L8.20680944,39.5225319 L8.35095254,39.7747823 L8.42302409,40.6756777 L8.45905987,41.9729656 L8.17077367,42.1891802 L7.73834437,43.2702545 L7.48609295,44.2071846 L7.2698783,46.0450101 L7.45005717,47.4143706 L7.19780675,48.1350861 L6.6933059,48.9278741 L6.58519858,49.3242676 L7.01762788,49.0359814 L6.94555633,48.8918383 L7.16177098,49.2161603 L7.70230859,48.2431934 L7.91852324,48.6035521 L8.13473789,48.6395879 L8.13473789,47.4143706 L7.88248747,45.5044735 L8.49509564,47.4864421 L8.63923874,48.2071576 L8.74734607,48.1711218 L8.81941781,46.549511 L9.21581134,47.4504063 L9.25184711,48.2431934 L9.43202599,48.3873365 L9.54013331,48.1711218 L9.54013331,46.9819413 L8.89148936,45.0720442 L8.56716719,43.3062902 L9.43202599,45.6125808 L9.93652783,46.0810459 L10.4049929,47.342299 L10.8013864,48.0630145 L10.873458,48.5314796 L11.1617442,48.3513007 L11.2698515,48.1711218 L11.0176011,47.990943 L11.19778,47.8467999 L11.1617442,47.1981559 L10.9455295,45.6846524 L10.7293149,45.6846524 L9.97256361,44.0990773 L10.6572433,45.0720442 L10.9455295,45.0720442 L10.9815653,44.8197938 L10.6572433,44.1711488 L10.5851718,43.4143976 L11.2338157,44.3513277 L11.4500304,44.2432204 L11.0896726,43.1981829 L11.0176011,42.0090014 L11.2338157,42.5135032 L11.19778,43.0900756 L11.666245,43.666648 L12.1347111,43.9188984 L12.4950688,43.4864691 L12.2428184,43.3062902 L12.1347111,42.8017894 L11.7743533,42.3693591 L11.7743533,41.7927867 L12.2788542,42.6936821 L12.7473193,43.018004 L13.2157843,43.1261114 L13.6842494,42.8017894 L14.4770375,41.900894 L14.3689301,41.7927867 L13.5401063,41.8288225 L12.8914624,41.3963932 L12.31489,40.8558566 L12.31489,40.3873905 L12.4229973,40.459462 L12.6752477,40.9639639 L13.1437128,41.432429 L13.6842494,41.5045005 L14.3689301,41.5405363 L15.1256814,40.8558566 L15.5220749,39.5585677 L15.6301823,38.8378522 L15.4860392,37.9369568 L15.0175741,36.8919193 L14.7292879,36.4234543 L14.4770375,36.3153459 L14.4770375,36.3153459 Z" fill="#F1453D" id="path3224"/><path d="M40.9993807,56.2791752 L39.0894836,58.2611438 L38.8372332,58.1890722 L38.1525535,58.7656456 L38.1165167,59.3782538 L38.7651617,59.8827546 L39.0174121,60.3512197 L39.197591,60.3151839 L39.8462349,61.107972 L40.4588441,61.9728306 L40.7110945,62.1169737 L40.8912734,62.5133672 L40.5669514,62.9818333 L40.6750587,63.2701195 L41.1795596,63.1980479 L41.756132,63.2340837 L42.1164897,63.4502984 L42.2606338,64.0989423 L42.2606338,64.3511927 L42.6570273,64.1349781 L42.9813493,63.666513 L43.0173851,62.5133672 L42.9453135,62.1890452 L43.0534209,61.3241866 L43.1615282,62.4773314 L43.4137786,62.8376902 L43.5939575,62.6935461 L43.8101721,63.4502984 L44.2786382,63.9187634 L44.5308886,64.3511927 L44.5669244,64.0629065 L44.5308886,63.4863341 L44.7831391,62.8376902 L45.0714253,62.0809379 L45.3597115,61.900759 L45.6119619,62.0088664 L45.9723196,62.3692241 L45.9362838,62.5133672 L46.2606068,62.4773314 L46.1885343,61.6124728 L45.7200692,60.9638289 L44.9993537,60.4953628 L44.638996,60.1350051 L44.314674,59.5584327 L44.8191748,59.8467189 L45.3597115,60.3512197 L45.8642123,60.6034701 L46.22457,60.6755417 L46.8371792,61.8647233 L47.2335727,62.4412957 L47.3056443,61.6485086 L47.5939305,60.7476132 L47.8822167,60.3512197 L48.2425744,60.3151839 L48.7110405,60.459327 L48.6029332,59.9187904 L48.2425744,59.2341107 L47.5218589,58.5854658 L46.7651077,58.0088934 L46.1164627,57.7206072 L45.5398903,58.225108 L45.3597115,58.2971796 L45.0353895,58.5854658 L44.7831391,58.4773584 L43.9543152,57.6845714 L43.7381006,57.5404283 L43.3777428,56.6755687 L42.8372062,56.4233183 L42.0083824,56.4953898 L40.9993807,56.2791752 L40.9993807,56.2791752 Z" fill="#F1453D" id="path3226"/><path d="M45.4678188,62.6935461 L45.0714253,63.2340837 L45.0714253,64.1349781 L45.2516041,64.5674074 L45.0714253,66.2610898 L45.9723196,64.9998377 L46.2966426,64.3511927 L46.2606068,63.4863341 L46.0083554,63.0899406 L45.7200692,62.8376902 L45.4678188,62.6935461 L45.4678188,62.6935461 Z" fill="#673FB4" id="path3228"/><path d="M48.4587901,60.8196858 L48.1705029,60.8917573 L47.8461809,61.5764371 L47.7741094,62.4773314 L47.9542882,62.9457975 L47.9542882,63.5944415 L48.0263598,63.990835 L48.3506828,63.5223699 L48.8191478,62.7295819 L48.8912194,62.1530095 L48.8912194,61.3602224 L48.6750047,60.9998647 L48.4587901,60.8196858 L48.4587901,60.8196858 Z" fill="#673FB4" id="path3230"/><path d="M40.6029872,65.5043385 L41.0714523,65.1800165 L41.43181,64.9277661 L41.9002751,64.3151569 L41.8282035,63.8466919 L41.5399173,63.6304772 L41.1795596,63.4863341 L40.8552376,63.5223699 L40.4948799,64.0268708 L40.5309156,65.0358734 L40.6029872,65.5043385 L40.6029872,65.5043385 Z" fill="#673FB4" id="path3233"/><path d="M18.6571893,62.3331883 L19.0175471,62.4773314 L19.0175471,63.4502984 L18.4049389,64.1349781 L17.7202582,64.6394789 L17.756294,63.990835 L17.5761151,63.7746203 L17.5761151,63.0899406 L17.7202582,62.9097617 L17.7202582,62.5854388 L18.3328674,62.2611168 L18.6571893,62.3331883 L18.6571893,62.3331883 Z" fill="#673FB4" id="path3235"/><path d="M13.9725366,62.9097617 L14.4770375,62.873726 L15.0175741,63.1980479 L15.2337887,63.8106561 L14.9094668,64.0989423 L14.7292879,64.3872285 L14.6211806,64.8556946 L14.6932521,65.6124458 L14.7292879,66.2971256 L14.1166797,65.5403743 L13.6121779,64.7475862 L13.5761421,63.9547992 L13.756321,63.2701195 L13.9725366,62.9097617 L13.9725366,62.9097617 Z" fill="#673FB4" id="path3237"/><path d="M12.2428184,62.0088664 L12.0986753,62.5133672 L11.9184964,62.6214745 L11.7022808,62.9097617 L11.7022808,63.990835 L11.3419231,63.7746203 L10.9455295,63.2701195 L10.7293149,62.7295819 L10.8013864,61.3602224 L10.9815653,60.78365 L11.4139946,60.6395059 L11.8464249,60.78365 L12.2067826,61.6124728 L12.2428184,62.0088664 L12.2428184,62.0088664 Z" fill="#673FB4" id="path3239"/><path d="M12.2788542,58.5133942 L12.0626395,59.0539318 L11.4860662,59.4863611 C11.3980918,58.9104415 11.6944782,58.6090647 12.2788542,58.5133942 L12.2788542,58.5133942 Z" fill="#4748A5" id="path3241"/><path d="M19.3418691,55.8107101 L19.3418691,55.8107101 L19.5941195,56.2431394 L19.8103341,56.9278201 L20.1706929,57.3242136 L20.1346571,57.5404283 L20.6391579,57.9728576 L21.1436588,58.7656456 L21.9724826,59.4503254 L21.3598734,59.990862 L19.9184424,61.0719362 L19.4499764,61.2160793 L18.8373682,60.8557216 L18.9094398,61.7205802 L19.1616902,62.1169737 L18.5130462,61.9728306 L17.756294,62.0449021 L17.2878289,62.4412957 L17.1797216,62.8376902 L16.9995427,62.549403 L16.7472923,62.1530095 L16.6752207,62.0809379 L16.5310776,62.1890452 L16.6391849,62.2611168 L16.6752207,62.9818333 L16.4950418,63.1259764 L16.4590061,63.342191 L15.6301823,63.8827277 L15.4139676,63.342191 L15.1256814,62.7295819 L14.6211806,62.4773314 L14.0806439,62.549403 L13.4680348,62.9097617 L13.6482136,62.4052599 L14.0085724,61.8286875 L14.6932521,61.2521151 L15.3779318,60.8196858 L15.9184694,60.6034701 L16.0626125,60.5313986 L15.8824337,60.3512197 L14.873431,60.6395059 L14.1527155,61.107972 L13.3959632,61.6485086 L12.8193908,62.4773314 L12.5311046,62.6935461 L12.5311046,62.0809379 L12.2067826,61.2521151 L12.0986753,60.7115775 L11.7743533,60.3151839 L11.3779588,60.3151839 L10.8374222,60.4232913 L11.2338157,59.7386115 L12.0266038,59.3061823 L12.3869615,58.6935731 L13.0356055,58.1530365 L13.5761421,58.0449291 L14.3689301,58.1530365 L14.7653237,58.3692511 L15.5220749,58.4052869 L15.990541,58.3692511 L16.5671134,58.0809649 L17.0355785,57.2161063 L17.6842224,56.2791752 L18.4409747,55.8827816 L19.3418691,55.8107101 L19.3418691,55.8107101 Z" fill="#F1453D" id="path3243"/><path d="M36.8552646,45.9369028 L35.8102261,46.225189 L35.0895106,46.8017624 L34.1525805,47.7747283 L33.3958282,49.1440888 L32.5309696,50.1891262 L30.9453945,50.8377712 L29.5039625,50.8738069 L28.3868535,50.549484 L27.99046,49.9368758 L27.8823517,49.1440888 L27.7382086,48.1711218 L27.4138866,47.5585137 L26.9093858,46.9459055 L26.3328134,46.549511 L26.9454215,43.9549342 L27.1256004,43.3783618 L27.1256004,42.6216105 L27.2337077,41.6126078 L27.7742444,40.7117135 L28.314782,40.2072116 L29.2517121,39.7747823 L30.9093588,39.342353 L32.5670054,38.8018164 L34.2967236,38.4054219 L36.2426564,37.9369568 L37.0714792,37.8648853 L36.9994077,38.9459595 L37.2156223,39.342353 L37.1795866,42.1531445 L36.9994077,44.6396149 L36.8552646,45.9369028 L36.8552646,45.9369028 Z" fill="#785549" id="path3245"/><path d="M37.2516581,45.900867 L38.2606608,46.1170817 L39.0534479,46.5855477 L39.3777698,47.0540128 L39.8101991,46.6936551 L39.990378,46.0810459 L40.7471303,45.6486166 L41.9002751,44.6396149 L40.9273092,43.1621471 L40.4228083,42.4414307 L39.7381276,41.6486436 L38.9093048,40.1351401 L37.9723736,38.0810999 L37.4678728,38.0810999 L37.3958012,42.1531445 L37.431837,43.6306122 L37.2516581,45.900867 L37.2516581,45.900867 Z" fill="#785549" id="path3247"/><path d="M27.666137,27.4145056 L27.3418151,28.3874725 L28.4589251,28.2072926 L27.666137,27.4145056 L27.666137,27.4145056 Z" fill="#76401B" id="path3249"/><path d="M26.9814573,30.1892612 L27.0174931,30.9460135 L30.1165717,29.9730466 L30.1165717,29.6847604 L26.9814573,30.1892612 L26.9814573,30.1892612 Z" fill="#A05A2C" id="path3251"/><path d="M27.8463159,31.342407 L27.7742444,32.0631225 L27.99046,33.6486976 L28.783247,38.0090284 L29.1796406,38.0090284 L29.2156763,37.3243486 L27.8463159,31.342407 L27.8463159,31.342407 Z" fill="#44B3CC" id="path3253"/><path d="M29.8643203,37.6847064 L28.4228893,31.3784428 L29.5039625,37.7928137 L29.8643203,37.6847064 L29.8643203,37.6847064 Z" fill="#50AECE" id="path3255"/><path d="M30.1165717,37.6126348 L30.6210726,37.432456 L28.7472113,31.3784428 L30.1165717,37.6126348 L30.1165717,37.6126348 Z" fill="#50AFCE" id="path3257"/><path d="M29.2877479,31.018085 L31.4859312,37.3243486 L31.0535019,37.4684917 L29.2877479,31.018085 L29.2877479,31.018085 Z" fill="#50ABCE" id="path3259"/><path d="M31.8102531,37.1802055 L29.6841414,30.8018704 L32.3868265,37.108134 L31.8102531,37.1802055 L31.8102531,37.1802055 Z" fill="#50B0CE" id="path3261"/><path d="M32.6030412,36.8558836 L30.0805359,30.7658346 L33.2156493,36.9279551 L32.6030412,36.8558836 L32.6030412,36.8558836 Z" fill="#50B3CE" id="path3263"/><path d="M12.8511874,25.7073982 L12.5113199,25.759685 L12.0930221,26.0995525 L11.9100171,26.5439938 L11.9361606,27.3544459 L12.2237402,27.851175 L12.7204693,28.3740465 L12.9557611,28.7662009 L12.825044,29.4720784 L12.1191655,29.9165206 L11.3610012,30.4655365 L11.0734215,30.9099777 L10.9688469,31.4067058 L10.9949903,31.9295783 L11.099565,32.0602964 L11.6747243,32.034153 L12.0145918,31.9295783 L12.5374633,31.8772914 L13.0341924,31.9557217 L13.7923577,32.4785942 L14.8642452,33.4459079 L15.3348308,33.9949238 L14.9949633,33.1844717 L14.8119583,32.217158 L14.6812402,31.2498442 L14.8381017,30.6746849 L15.099538,30.3086739 L15.3871177,30.4655365 L15.6224105,30.3348184 L15.9361336,30.4916799 L16.1975698,30.3348184 L16.6158676,30.4655365 L17.1387401,30.2041002 L17.9230479,29.6027965 L18.4720638,29.6027965 L18.6289263,29.7335146 L18.9426494,29.6027965 L19.1256544,29.8642327 L19.779245,29.3675046 L20.3021175,29.1060684 L20.824989,29.3152168 L21.5047231,29.4720784 L21.7661593,29.2367865 L22.3151752,29.2106421 L23.0733406,29.1060684 L23.4393505,29.3675046 L23.8053615,30.2563871 L24.0667977,30.5439668 L24.4589521,30.622398 L24.6681005,30.7269717 L25.0341114,31.6419986 L25.2955477,32.3740195 L25.4262658,33.262903 L25.3739779,33.4981958 L25.6092708,33.4720514 L25.9752817,33.8380623 L26.2890048,33.9949238 L26.5504411,34.2825035 L26.6288713,34.7530892 L26.8380207,34.7269447 L27.0210257,34.4916529 L27.3870367,34.5700832 L27.7007598,34.9099507 L28.0144838,34.9360941 L27.4654679,31.3021321 L26.9425954,31.0145524 L26.916452,30.1779558 L28.145201,29.7335146 L28.1713454,29.4197915 L27.9883394,28.896919 L27.7530476,28.4263344 L27.282462,28.4786212 L27.6484729,27.3021591 L28.5634988,28.2433284 L28.145201,28.2956162 L28.5112119,29.7335146 L30.0798284,29.4720784 L30.3674091,29.8642327 L30.2628344,30.2041002 L30.3935525,30.4393921 L30.4719828,30.8576899 L30.9425684,31.4589936 L32.1713184,34.125642 L33.3477805,36.5308541 L33.870653,35.9818391 L34.4196689,35.851121 L35.0209717,35.4328232 L35.3869827,35.3021051 L35.6484189,34.9622376 L36.328153,34.9360941 L37.3477535,35.851121 L37.5046151,35.6158282 L38.4719288,35.5635403 L38.7856529,36.1909875 L38.8379397,36.4524238 L39.2300941,36.2955622 L40.3019825,36.5308541 L40.9555722,37.0537266 L41.4523012,37.262876 L41.5830193,37.5243122 L41.870599,37.1844447 L42.0797474,37.2105881 L42.4196149,37.2890194 L43.4915034,37.2105881 L44.0405193,36.1125563 C44.0405193,36.1125563 44.5372474,35.0929557 44.7725402,34.8315194 C45.007833,34.5700832 45.9751467,33.5243392 45.9751467,33.5243392 L47.1516088,32.7400305 L48.0404923,32.2433014 L48.8770879,32.1387277 L49.6613956,32.1125833 L49.6352522,31.4067058 L49.3215291,30.7269717 L48.5372204,29.7073712 L48.3803588,28.896919 L48.3803588,28.4001909 L49.0600929,27.9557487 L49.870545,27.3021591 L49.8966885,26.622425 L49.6613956,25.7858294 L49.190811,25.079952 L49.0339494,24.9492338 L48.7725132,24.896946 L48.4065022,25.1322388 L47.6744813,26.1518394 L46.8640292,26.9622916 L45.870572,27.5635953 L44.7202533,27.6943125 L42.8901996,27.4067328 L41.6091628,27.0145794 L40.0144019,26.4132756 L38.3412107,25.6289679 L37.4261848,25.4459619 L36.0405733,24.7662279 L35.5177008,24.7400845 L35.4915574,24.9753773 L35.9098552,25.3936751 L35.8052805,26.125696 L35.4392695,26.5178503 L34.7595355,26.5439938 C34.7595355,26.5439938 34.8379667,26.5962816 34.4458124,26.7008553 C34.053658,26.80543 33.7137915,26.7008553 33.7137915,26.7008553 L33.0602008,26.3087009 L32.4327546,26.2041272 L31.1778603,26.2041272 L29.7922487,26.3348454 L28.2236323,26.4655635 L27.4393235,27.1452975 L26.7595895,27.2498712 L26.0275686,27.0668663 L25.2694042,26.1779838 L25.2955477,25.6812547 L25.8445636,25.0015207 L25.5569839,24.9753773 L23.8315049,25.6028235 L22.7596165,26.2041272 L22.1844571,26.5701372 L21.7661593,26.5439938 L21.2171434,27.0407228 L20.5374093,27.0930097 L20.145256,27.5113075 L20.0145378,27.4590206 L18.916506,27.7466003 L17.9230479,27.9296053 C17.9230479,27.9296053 16.6681545,28.1126113 16.5374363,28.1126113 C16.4067182,28.1126113 15.2041127,27.9557487 15.2041127,27.9557487 L14.3152292,27.5113075 L13.8969314,27.0407228 L13.5047771,26.7792866 L12.9819056,26.2302707 L13.008049,25.8119729 L12.8511874,25.7073982 L12.8511874,25.7073982 Z" fill="#1EA8EE" id="path2257"/><path d="M19.2793366,31.0721382 L19.242241,32.8156346 L19.3535277,33.3720701 L19.3535277,34.3365577 L19.3906233,35.8203842 L19.3906233,36.8219674 L18.5374233,35.7832886 L19.4277188,36.8961585 L19.5761021,37.9719328 L19.7986755,38.379985 L19.6502932,38.9364204 L19.6873888,39.8638125 L19.6873888,40.754108 L19.6873888,42.4976044 L18.8341888,40.4202469 L18.90838,44.7233451 L18.9825711,42.2379345 L19.2793366,41.7927867 L19.7615799,43.0169443 L19.835772,43.5733787 L19.7244843,41.4960212 L19.2793366,31.0721382 Z" fill="#000000" id="path3276"/><path fill="#000000" id="Shape"/><path d="M16.8183627,31.5914781 L16.8183627,33.0011134 L16.8183627,33.0181849 L16.8288436,33.0316603 L17.0885135,33.3655213 L17.0780948,33.3324898 L17.0039036,34.8163163 L17.0032512,34.8293658 L17.0090943,34.8410522 L17.2316677,35.2862 L17.2264149,35.2639487 L17.2264149,37.7122629 L17.3259255,37.7122629 L17.3259255,35.2639487 L17.3259255,35.2522031 L17.3206727,35.2416975 L17.0980994,34.7965498 L17.1032901,34.8212856 L17.1774812,33.3374592 L17.1784037,33.3190093 L17.1670624,33.3044277 L16.9073925,32.9705666 L16.9178733,33.0011134 L16.9178733,31.5914781 L16.8183627,31.5914781 L16.8183627,31.5914781 Z" fill="#000000" id="Shape"/><path d="M28.018737,49.7912312 L33.7685662,48.4928825 L33.7247296,48.2987491 L27.9749004,49.5970977 L28.018737,49.7912312 L28.018737,49.7912312 Z" fill="#000000" id="Shape"/><path d="M26.5748406,46.1946271 L27.1683716,46.2688182 L27.1857197,46.2709867 L27.202768,46.2671121 L36.9960245,44.0413714 L36.9519171,43.8472993 L27.1586607,46.07304 L27.1930571,46.0713339 L26.5995261,45.9971428 L26.5748406,46.1946271 L26.5748406,46.1946271 Z" fill="#000000" id="Shape"/><path d="M27.1573074,43.6669175 L28.6782294,43.4443441 L28.6885994,43.4422278 L37.1464116,41.216487 L37.0982945,41.0336421 L28.6404823,43.2593829 L28.6508523,43.2572665 L27.1299302,43.4798399 L27.1573074,43.6669175 L27.1573074,43.6669175 Z" fill="#000000" id="Shape"/><path d="M37.5161635,40.9185326 L38.9628945,40.6588636 L38.9171867,40.4042055 L37.4704558,40.6638745 L37.5161635,40.9185326 L37.5161635,40.9185326 Z" fill="#000000" id="Shape"/><path d="M37.5305888,43.9724401 L40.7208161,43.1192402 L40.6462579,42.8404572 L37.4560306,43.6936572 L37.5305888,43.9724401 L37.5305888,43.9724401 Z" fill="#000000" id="Shape"/></g><g id="UK"><path d="M94.0000386,0.0873002869 C92.67394,0.0293019687 91.3403919,0 90,0 C40.2943701,0 0,40.2943701 0,90 C0,91.0039293 0.0164376398,92.0040194 0.0490584628,93.0000158 L94,93 L94,0.0872986002 L94,0.0872986002 L94.0000386,0.0873002869 L94.0000386,0.0873002869 Z" fill="#2B98F0" id="Oval-15-copy-5"/><path d="M22.034956,31 C14.2537027,39.9559217 8.21335943,50.4648712 4.44077468,62 L94,62 L94,31 L22.034956,31 L22.034956,31 L22.034956,31 L22.034956,31 Z" fill="#FFFFFF" id="Oval-15-copy-5"/><path d="M13.6694832,42.2945092 C10.3709868,47.5610961 7.60242976,53.1934706 5.43852161,59.1169231 L73.204828,93 L94,93 L94,82.602228 L13.6694832,42.2945092 L13.6694832,42.2945092 L13.6694832,42.2945092 L13.6694832,42.2945092 Z" fill="#FFFFFF" id="Oval-15-copy-5"/><path d="M94.0000386,0.0873002869 C92.67394,0.0293019687 91.3403919,0 90,0 C82.2561892,0 74.7408046,0.978008608 67.5706263,2.81724582 L33.78699,19.7099388 C22.8828875,28.4416094 14.0545834,39.6579269 8.16034695,52.5006221 L94,10.3974 L94,0.0872986002 L94,0.0872986002 L94.0000386,0.0873002869 L94.0000386,0.0873002869 Z" fill="#FFFFFF" id="Oval-15-copy-5"/><path d="M16,38.7607807 C5.91185383,53.3026912 0,70.9609515 0,90 C0,91.0039293 0.0164376398,92.0040194 0.0490584628,93.0000158 L16,93 L16,38.7607807 L16,38.7607807 L16,38.7607807 L16,38.7607807 Z" fill="#FFFFFF" id="Oval-15-copy-5"/><path d="M17.2529958,37 C12.9908238,42.8401877 9.41486216,49.2130514 6.64370346,55.9999986 L94,56 L94,37 L17.2529958,37 L17.2529958,37 L17.2529958,37 L17.2529958,37 Z" fill="#F1453D" id="Oval-15-copy-5"/><path d="M10.9999966,46.8485332 C3.98708297,59.660287 0,74.3645266 0,90 C0,91.0039293 0.0164376398,92.0040194 0.0490584628,93.0000158 L11,93 L11,46.8485271 L11,46.8485271 L10.9999966,46.8485332 L10.9999966,46.8485332 Z" fill="#F1453D" id="Oval-15-copy-5"/><path d="M93.8389177,0.0803962802 C92.565936,0.0269770907 91.2861184,0 90,0 C86.1745509,0 82.4048463,0.238670122 78.7049644,0.701932021 L25.4542081,27.2795777 C24.2803472,28.4873857 23.1400934,29.7280296 22.034956,31 L31.8882776,31 L93.8389177,0.0803962802 L93.8389177,0.0803962802 L93.8389177,0.0803962802 L93.8389177,0.0803962802 Z" fill="#F1453D" id="Oval-15-copy-5"/><path d="M94,93 L32,62 L45.8636683,62 L94,86.0681243 L94,93 L94,93 L94,93 L94,93 Z" fill="#F1453D" id="Oval-15-copy-5"/></g></g></g></g></svg>