<?xml version="1.0" ?><svg height="180px" version="1.1" viewBox="0 0 180 180" width="180px" xmlns="http://www.w3.org/2000/svg" xmlns:sketch="http://www.bohemiancoding.com/sketch/ns" xmlns:xlink="http://www.w3.org/1999/xlink"><title/><desc/><defs/><g fill="none" fill-rule="evenodd" id="Page-1" stroke="none" stroke-width="1"><g id="Material" transform="translate(-180.000000, -180.000000)"><g id="Slice" transform="translate(180.000000, 180.000000)"/><g id="circle_brazil" transform="translate(180.000000, 180.000000)"><circle cx="90" cy="90" fill="#4EAB53" id="Oval-15-copy" r="90"/><path d="M90,30 L5,90 L90,150 L175,90 L90,30 L90,30 Z" fill="#FEE94E" id="Rectangle-87"/><g id="circle" transform="translate(55.000000, 55.000000)"><path d="M35,70 C54.3299672,70 70,54.3299672 70,35 C70,15.6700328 54.3299672,0 35,0 C15.6700328,0 0,15.6700328 0,35 C0,54.3299672 15.6700328,70 35,70 Z" fill="#2B98F0" id="Oval-15-copy-2"/><g fill="#FFFFFF" id="stars" transform="translate(3.000000, 22.000000)"><path d="M58.3213751,27.3619337 L58.2132923,26.731763 L58.926585,26.0364753 L57.9408391,25.8932374 L57.5,25 L57.0591612,25.8932372 L56.0734152,26.0364745 L56.7867076,26.7317628 L56.6183222,27.7135255 L57.5,27.25 L58.1960245,27.6159218 L58.0591612,27.8932372 L57.0734152,28.0364745 L57.7867076,28.7317628 L57.6183222,29.7135255 L58.5,29.25 L59.3816778,29.7135256 L59.2132923,28.731763 L59.926585,28.0364753 L58.9408391,27.8932374 L58.5,27 L58.3213751,27.3619337 L58.3213751,27.3619337 Z M43.5,2.25 L42.6183222,2.71352554 L42.7867076,1.73176277 L42.0734152,1.03647454 L43.0591612,0.893237152 L43.5,0 L43.9408391,0.893237372 L44.926585,1.03647526 L44.2132923,1.73176296 L44.3816778,2.71352556 L43.5,2.25 Z M41.5,12.25 L40.6183222,12.7135255 L40.7867076,11.7317628 L40.0734152,11.0364745 L41.0591612,10.8932372 L41.5,10 L41.9408391,10.8932374 L42.926585,11.0364753 L42.2132923,11.731763 L42.3816778,12.7135256 L41.5,12.25 Z M32.5,19.25 L31.6183222,19.7135255 L31.7867076,18.7317628 L31.0734152,18.0364745 L32.0591612,17.8932372 L32.5,17 L32.9408391,17.8932374 L33.926585,18.0364753 L33.2132923,18.731763 L33.3816778,19.7135256 L32.5,19.25 Z M35.5,22.25 L34.6183222,22.7135255 L34.7867076,21.7317628 L34.0734152,21.0364745 L35.0591612,20.8932372 L35.5,20 L35.9408391,20.8932374 L36.926585,21.0364753 L36.2132923,21.731763 L36.3816778,22.7135256 L35.5,22.25 Z M31.5,30.25 L30.6183222,30.7135255 L30.7867076,29.7317628 L30.0734152,29.0364745 L31.0591612,28.8932372 L31.5,28 L31.9408391,28.8932374 L32.926585,29.0364753 L32.2132923,29.731763 L32.3816778,30.7135256 L31.5,30.25 Z M61,25.5 L60.4122148,25.809017 L60.5244717,25.1545085 L60.0489435,24.690983 L60.7061075,24.5954914 L61,24 L61.2938927,24.5954916 L61.9510567,24.6909835 L61.4755282,25.1545086 L61.5877852,25.809017 L61,25.5 Z M53,33.5 L52.4122148,33.809017 L52.5244717,33.1545085 L52.0489435,32.690983 L52.7061075,32.5954914 L53,32 L53.2938927,32.5954916 L53.9510567,32.6909835 L53.4755282,33.1545086 L53.5877852,33.809017 L53,33.5 Z M49.5,33.25 L48.6183222,33.7135255 L48.7867076,32.7317628 L48.0734152,32.0364745 L49.0591612,31.8932372 L49.5,31 L49.9408391,31.8932374 L50.926585,32.0364753 L50.2132923,32.731763 L50.3816778,33.7135256 L49.5,33.25 Z M56.5,32.25 L57.3816778,32.7135255 L57.2132924,31.7317628 L57.9265848,31.0364745 L56.9408388,30.8932372 L56.5,30 L56.0591609,30.8932374 L55.073415,31.0364753 L55.7867077,31.731763 L55.6183222,32.7135256 L56.5,32.25 Z M49.5,41.25 L50.3816778,41.7135255 L50.2132924,40.7317628 L50.9265848,40.0364745 L49.9408388,39.8932372 L49.5,39 L49.0591609,39.8932374 L48.073415,40.0364753 L48.7867077,40.731763 L48.6183222,41.7135256 L49.5,41.25 Z M49.5,37.25 L50.3816778,37.7135255 L50.2132924,36.7317628 L50.9265848,36.0364745 L49.9408388,35.8932372 L49.5,35 L49.0591609,35.8932374 L48.073415,36.0364753 L48.7867077,36.731763 L48.6183222,37.7135256 L49.5,37.25 Z M2.49999997,7.25 L1.61832219,7.71352554 L1.78670762,6.73176277 L1.07341521,6.03647454 L2.0591612,5.89323715 L2.50000002,5 L2.9408391,5.89323737 L3.92658502,6.03647526 L3.21329232,6.73176296 L3.38167778,7.71352556 L2.49999997,7.25 Z M12,16.5 L11.4122148,16.809017 L11.5244717,16.1545085 L11.0489435,15.690983 L11.7061075,15.5954914 L12,15 L12.2938927,15.5954916 L12.9510567,15.6909835 L12.4755282,16.1545086 L12.5877852,16.809017 L12,16.5 Z M6.49999997,22.25 L5.61832219,22.7135255 L5.78670762,21.7317628 L5.07341521,21.0364745 L6.0591612,20.8932372 L6.50000002,20 L6.9408391,20.8932374 L7.92658502,21.0364753 L7.21329232,21.731763 L7.38167778,22.7135256 L6.49999997,22.25 Z M12.5,29.25 L11.6183222,29.7135255 L11.7867076,28.7317628 L11.0734152,28.0364745 L12.0591612,27.8932372 L12.5,27 L12.9408391,27.8932374 L13.926585,28.0364753 L13.2132923,28.731763 L13.3816778,29.7135256 L12.5,29.25 Z M1.49999997,25.25 L0.618322192,25.7135255 L0.786707622,24.7317628 L0.0734152149,24.0364745 L1.0591612,23.8932372 L1.50000002,23 L1.9408391,23.8932374 L2.92658502,24.0364753 L2.21329232,24.731763 L2.38167778,25.7135256 L1.49999997,25.25 Z M19.5,12.25 L18.6183222,12.7135255 L18.7867076,11.7317628 L18.0734152,11.0364745 L19.0591612,10.8932372 L19.5,10 L19.9408391,10.8932374 L20.926585,11.0364753 L20.2132923,11.731763 L20.3816778,12.7135256 L19.5,12.25 Z M17,31.5 L16.4122148,31.809017 L16.5244717,31.1545085 L16.0489435,30.690983 L16.7061075,30.5954914 L17,30 L17.2938927,30.5954916 L17.9510567,30.6909835 L17.4755282,31.1545086 L17.5877852,31.809017 L17,31.5 Z M27,21.5 L26.4122148,21.809017 L26.5244717,21.1545085 L26.0489435,20.690983 L26.7061075,20.5954914 L27,20 L27.2938927,20.5954916 L27.9510567,20.6909835 L27.4755282,21.1545086 L27.5877852,21.809017 L27,21.5 Z M31,24.5 L30.4122148,24.809017 L30.5244717,24.1545085 L30.0489435,23.690983 L30.7061075,23.5954914 L31,23 L31.2938927,23.5954916 L31.9510567,23.6909835 L31.4755282,24.1545086 L31.5877852,24.809017 L31,24.5 Z M39,32.5 L38.4122148,32.809017 L38.5244717,32.1545085 L38.0489435,31.690983 L38.7061075,31.5954914 L39,31 L39.2938927,31.5954916 L39.9510567,31.6909835 L39.4755282,32.1545086 L39.5877852,32.809017 L39,32.5 Z M44,34.5 L43.4122148,34.809017 L43.5244717,34.1545085 L43.0489435,33.690983 L43.7061075,33.5954914 L44,33 L44.2938927,33.5954916 L44.9510567,33.6909835 L44.4755282,34.1545086 L44.5877852,34.809017 L44,34.5 Z M41,38.5 L40.4122148,38.809017 L40.5244717,38.1545085 L40.0489435,37.690983 L40.7061075,37.5954914 L41,37 L41.2938927,37.5954916 L41.9510567,37.6909835 L41.4755282,38.1545086 L41.5877852,38.809017 L41,38.5 Z" id="Star-39"/></g><g id="text" transform="translate(1.000000, 20.000000)"><path d="M68.5451363,20.6573609 C53.6477543,7.78542768 34.233069,1.30000001e-06 13,1.30000001e-06 C9.28806921,1.30000001e-06 5.6317109,0.237935352 2.0453446,0.699383921 C1.28023315,2.40640572 0.647887372,4.1858915 0.161446189,6.02470232 C4.34140816,5.35042263 8.62978128,5 13,5 C33.9044486,5 52.9362051,13.0179479 67.1877299,26.1463041 C67.7821775,24.3756337 68.2388898,22.5417424 68.5451363,20.6573609 L68.5451363,20.6573609 Z" fill="#FFFFFF" id="Shape"/><path d="M3.98062762,5.04576762 C4.80905474,5.04576762 5.48062762,4.16591553 5.48062762,3.08056299 C5.48062762,1.99521044 4.80905474,1.11535836 3.98062762,1.11535836 C3.15220049,1.11535836 2.48062762,1.99521044 2.48062762,3.08056299 C2.48062762,4.16591553 3.15220049,5.04576762 3.98062762,5.04576762 M3.98062762,4.31583447 C4.46716418,4.31583447 4.86158,3.76278459 4.86158,3.08056299 C4.86158,2.39834139 4.46716418,1.84529151 3.98062762,1.84529151 C3.49409105,1.84529151 3.09967524,2.39834139 3.09967524,3.08056299 C3.09967524,3.76278459 3.49409105,4.31583447 3.98062762,4.31583447" fill="#009B3A" id="Shape" transform="translate(3.980628, 3.080563) rotate(-7.000000) translate(-3.980628, -3.080563) "/><path d="M8.38755327,3.23384841 L7.37432241,3.23384841 L7.37432241,4.53384841 L6.75527478,4.53384841 L6.80289383,1.03384841 L8.70765574,1.03384841 C9.28623976,1.03384841 9.75527478,1.52633519 9.75527478,2.13384842 C9.75527478,2.59864699 9.48072357,2.99611443 9.09261495,3.15720728 C9.34658699,3.52848452 9.42354329,4.15524327 9.46680361,4.50757028 L8.86627148,4.58130636 C8.82265366,4.22606774 8.74478064,3.59184286 8.38755327,3.23384841 Z M7.37432241,2.58384841 L8.66003669,2.58384841 C8.89673016,2.58384841 9.08860812,2.38237655 9.08860812,2.13384842 C9.08860812,1.88532028 8.89673016,1.68384841 8.66003669,1.68384841 L7.37432241,1.68384841 L7.37432241,2.58384841 Z" fill="#009B3A" id="P" transform="translate(8.255275, 2.807577) rotate(-4.000000) translate(-8.255275, -2.807577) "/><path d="M11.0572679,4.17925695 L12.6286965,4.17925695 C13.4176747,4.17925695 14.0572679,3.53966374 14.0572679,2.75068552 L14.0572679,2.27449505 C14.0572679,1.89561435 13.9067581,1.53225161 13.638849,1.2643425 C13.3709399,0.99643339 13.0075772,0.845923617 12.6286965,0.845923617 L11.0572679,0.845923617 L11.0572679,4.17925695 L11.0572679,4.17925695 Z M11.6763155,3.56020933 L12.5810774,3.56020933 C13.0807636,3.56020933 13.4858393,3.15513363 13.4858393,2.65544743 L13.4858393,2.36973314 C13.4858393,1.87004694 13.0807636,1.46497124 12.5810774,1.46497124 L11.6763155,1.46497124 L11.6763155,3.56020933 L11.6763155,3.56020933 Z" fill="#009B3A" id="Shape" transform="translate(12.557268, 2.345924) rotate(-1.000000) translate(-12.557268, -2.345924) "/><path d="M15.3850251,4.21702488 L18.3850251,4.21702488 L18.3850251,3.59797726 L15.9564537,3.59797726 L15.9564537,2.74083441 L17.8612156,2.74083441 L17.8612156,2.16940584 L15.9564537,2.16940584 L15.9564537,1.50273917 L18.242168,1.50273917 L18.242168,0.883691547 L15.3850251,0.883691547 L15.3850251,4.21702488 L15.3850251,4.21702488 Z" fill="#009B3A" id="Shape" transform="translate(16.885025, 2.383692) rotate(2.000000) translate(-16.885025, -2.383692) "/><path d="M19.7048745,4.48123851 L20.2763031,4.48123851 L20.2763031,2.19552423 L20.9429697,4.48123851 L21.4667793,4.48123851 L22.1334459,2.19552423 L22.1334459,4.48123851 L22.7048745,4.48123851 L22.7048745,1.14790518 L21.8715412,1.14790518 L21.2048745,3.43361947 L20.5382078,1.14790518 L19.7048745,1.14790518 L19.7048745,4.48123851 L19.7048745,4.48123851 Z" fill="#009B3A" id="Shape" transform="translate(21.204875, 2.647905) rotate(5.000000) translate(-21.204875, -2.647905) "/><path d="M26.6894983,5.39822242 L29.1894983,5.39822242 L29.1894983,4.82679385 L27.2609269,4.82679385 L27.2609269,4.06488909 L28.8323554,4.06488909 L28.8323554,3.49346052 L27.2609269,3.49346052 L27.2609269,2.969651 L29.1299745,2.969651 L29.1299745,2.39822242 L26.6894983,2.39822242 L26.6894983,5.39822242 L26.6894983,5.39822242 Z" fill="#009B3A" id="Shape" transform="translate(28.189498, 3.898222) rotate(9.750000) translate(-28.189498, -3.898222) "/><path d="M33.7753982,7.15581607 L33.7753982,5.91772084 L35.1087315,5.91772084 C35.6873156,5.91772084 36.1563506,5.44868581 36.1563506,4.87010179 C36.1563506,4.29151776 35.6873156,3.82248274 35.1087315,3.82248274 L33.2039696,3.82248274 L33.1563506,7.15581607 L33.7753982,7.15581607 Z M33.7753982,5.29867322 L35.0611125,5.29867322 C35.297806,5.29867322 35.4896839,5.10679525 35.4896839,4.87010179 C35.4896839,4.63340832 35.297806,4.44153036 35.0611125,4.44153036 L33.7753982,4.44153036 L33.7753982,5.29867322 L33.7753982,5.29867322 Z" fill="#009B3A" id="Shape" transform="translate(34.656351, 5.489149) rotate(14.500000) translate(-34.656351, -5.489149) "/><path d="M38.8800656,6.96915838 L37.5507994,6.96915838 L37.5507994,8.20725361 L36.9317518,8.20725361 L36.9793708,4.87392028 L38.8841327,4.87392028 C39.4627167,4.87392028 39.9317518,5.34295531 39.9317518,5.92153933 C39.9317518,6.30177556 39.7291798,6.63469857 39.4260694,6.81827476 C39.7650851,7.11666864 39.7650851,7.83580679 39.7650851,8.20725361 L39.1936565,8.20725361 C39.1936565,7.88871109 39.1936565,7.31446582 38.8800656,6.96915838 L38.8800656,6.96915838 Z M37.5507994,6.35011076 L38.8365137,6.35011076 C39.0732071,6.35011076 39.2650851,6.15823279 39.2650851,5.92153933 C39.2650851,5.68484587 39.0732071,5.4929679 38.8365137,5.4929679 L37.5507994,5.4929679 L37.5507994,6.35011076 Z" fill="#009B3A" id="P" transform="translate(38.431752, 6.540587) rotate(17.500000) translate(-38.431752, -6.540587) "/><path d="M42.6303163,9.78748374 C43.4587434,9.78748374 44.1303163,8.96667247 44.1303163,7.95415044 C44.1303163,6.94162841 43.4587434,6.12081713 42.6303163,6.12081713 C41.8018892,6.12081713 41.1303163,6.94162841 41.1303163,7.95415044 C41.1303163,8.96667247 41.8018892,9.78748374 42.6303163,9.78748374 M42.6303163,9.10653137 C43.1168529,9.10653137 43.5112687,8.59059286 43.5112687,7.95415044 C43.5112687,7.31770802 43.1168529,6.8017695 42.6303163,6.8017695 C42.1437797,6.8017695 41.7493639,7.31770802 41.7493639,7.95415044 C41.7493639,8.59059286 42.1437797,9.10653137 42.6303163,9.10653137" fill="#009B3A" id="Shape" transform="translate(42.630316, 7.770817) rotate(20.500000) translate(-42.630316, -7.770817) "/><path d="M47.4901516,9.3299679 C47.5046332,8.96629866 47.3592607,8.64316538 47.0777727,8.496632 C46.6462095,8.27197441 46.0581245,8.54749651 45.7642481,9.11202784 C45.4703717,9.67655915 45.5819889,10.3163232 46.0135521,10.5409807 C46.3051297,10.6927664 46.668156,10.6162313 46.963621,10.3765025 L46.963621,10.3765025 L46.3300384,10.0466803 L46.601868,9.52450044 L47.8857455,10.1928448 C47.882589,10.1990461 47.8794001,10.205241 47.8761786,10.2114293 C47.408648,11.1095473 46.4339471,11.5275179 45.6991233,11.1449929 C44.9642994,10.7624678 44.7476155,9.72430146 45.2151461,8.82618346 C45.6826768,7.92806545 46.6573777,7.51009479 47.3922015,7.89261987 C47.9735466,8.19524897 48.2305905,8.90824071 48.0810983,9.63759531 L47.4901516,9.3299679 Z" fill="#009B3A" id="Shape"/><path d="M51.259633,12.0894254 L49.9303668,12.0894254 L49.9303668,13.3275207 L49.3113192,13.3275207 L49.3589382,9.99418732 L51.2637001,9.99418732 C51.8422841,9.99418732 52.3113192,10.4632223 52.3113192,11.0418064 C52.3113192,11.4220426 52.1087472,11.7549656 51.8056368,11.9385418 C52.1446525,12.2369357 52.1446525,12.9560738 52.1446525,13.3275207 L51.5732239,13.3275207 C51.5732239,13.0089781 51.5732239,12.4347329 51.259633,12.0894254 L51.259633,12.0894254 Z M49.9303668,11.4703778 L51.2160811,11.4703778 C51.4527745,11.4703778 51.6446525,11.2784998 51.6446525,11.0418064 C51.6446525,10.8051129 51.4527745,10.6132349 51.2160811,10.6132349 L49.9303668,10.6132349 L49.9303668,11.4703778 Z" fill="#009B3A" id="P" transform="translate(50.811319, 11.660854) rotate(26.500000) translate(-50.811319, -11.660854) "/><path d="M53.2070139,15.3775022 L56.2070138,15.3775022 L56.2070138,14.7584546 L53.7784424,14.7584546 L53.7784424,13.9013117 L55.6832043,13.9013117 L55.6832043,13.3298832 L53.7784424,13.3298832 L53.7784424,12.6632165 L56.0641567,12.6632165 L56.0641567,12.0441689 L53.2070139,12.0441689 L53.2070139,15.3775022 L53.2070139,15.3775022 Z" fill="#009B3A" id="Shape" transform="translate(54.707014, 13.544169) rotate(29.500000) translate(-54.707014, -13.544169) "/><path d="M57.6671185,16.6570988 C57.6671185,16.9904322 57.988547,17.1570988 58.4647375,17.1570988 C58.940928,17.1570988 59.1666423,17.0023369 59.1671185,16.7880512 C59.1671185,16.1094798 56.940928,16.5380512 56.9528328,15.347575 C56.9647375,14.3237655 58.1314042,14.3713845 58.5599756,14.3713845 C58.988547,14.3713845 59.7980708,14.5618607 59.7861661,15.3832893 L59.0599756,15.3832893 C59.0599756,15.0261464 58.7266423,14.8951941 58.3456899,14.8951941 C57.9766423,14.8951941 57.7147375,14.9547179 57.7147375,15.299956 C57.7028328,15.8594798 59.9171185,15.4904322 59.9171185,16.6690036 C59.9171185,17.5380512 59.0599756,17.7047179 58.4171185,17.7047179 C57.8694994,17.7047179 56.9147375,17.4904322 56.9171185,16.6570988 C56.9171185,16.6570988 56.9147375,17.4904322 56.9171185,16.6570988 L57.6671185,16.6570988" fill="#009B3A" id="Shape" transform="translate(58.416060, 15.871040) rotate(32.500000) translate(-58.416060, -15.871040) "/><path d="M61.7801306,19.4307463 C62.2563211,19.4307463 62.4820354,19.2759844 62.4825115,19.0616986 C62.4825115,18.3831272 60.2563211,18.8116986 60.2682258,17.6212225 C60.2801306,16.5974129 61.4467973,16.645032 61.8753687,16.645032 C62.3039401,16.645032 63.1134639,16.8355082 63.1015592,17.6569367 L62.3753687,17.6569367 C62.3753687,17.2997939 62.0420354,17.1688415 61.661083,17.1688415 C61.2920354,17.1688415 61.0301306,17.2283653 61.0301306,17.5736034 C61.0182258,18.1331272 63.2325115,17.7640796 63.2325115,18.942651 C63.2325115,19.8116986 62.3753687,19.9783653 61.7325115,19.9783653 C61.1848925,19.9783653 60.2301306,19.7640796 60.2325116,18.9307463 L60.9825116,18.9307463 C60.9825116,19.2640796 61.3039401,19.4307463 61.7801306,19.4307463 Z" fill="#009B3A" id="Shape" transform="translate(61.740722, 18.314311) rotate(35.500000) translate(-61.740722, -18.314311) "/><path d="M64.9276915,22.4410175 C65.7561186,22.4410175 66.4276915,21.6948254 66.4276915,20.7743509 C66.4276915,19.8538763 65.7561186,19.1076842 64.9276915,19.1076842 C64.0992644,19.1076842 63.4276915,19.8538763 63.4276915,20.7743509 C63.4276915,21.6948254 64.0992644,22.4410175 64.9276915,22.4410175 M64.9276915,21.8219699 C65.4142281,21.8219699 65.8086439,21.3529349 65.8086439,20.7743509 C65.8086439,20.1957668 65.4142281,19.7267318 64.9276915,19.7267318 C64.441155,19.7267318 64.0467391,20.1957668 64.0467391,20.7743509 C64.0467391,21.3529349 64.441155,21.8219699 64.9276915,21.8219699" fill="#009B3A" id="Shape" transform="translate(64.927692, 20.607684) rotate(38.500000) translate(-64.927692, -20.607684) "/></g></g></g></g></g></svg>