<?xml version="1.0" ?><svg height="180px" version="1.1" viewBox="0 0 180 180" width="180px" xmlns="http://www.w3.org/2000/svg" xmlns:sketch="http://www.bohemiancoding.com/sketch/ns" xmlns:xlink="http://www.w3.org/1999/xlink"><title/><desc/><defs/><g fill="none" fill-rule="evenodd" id="Page-1" stroke="none" stroke-width="1"><g id="Material" transform="translate(-180.000000, -180.000000)"><g id="Slice" transform="translate(180.000000, 180.000000)"/><g id="circle_belarus" transform="translate(180.000000, 180.000000)"><circle cx="90" cy="90" fill="#FFFFFF" id="Oval-1-copy-3" r="90"/><path d="M40,164.844511 C54.3009801,174.417284 71.4985331,180 90,180 C129.186567,180 162.523738,154.955772 174.878829,120.000001 L174.878833,120 L40,120 L40,164.844511 L40,164.844511 L40,164.844511 L40,164.844511 Z" fill="#4EAB53" id="Oval-1-copy-6"/><path d="M40,15.155489 C54.3009801,5.58271597 71.4985331,0 90,0 C139.70563,0 180,40.2943701 180,90 C180,100.519063 178.195374,110.616633 174.878829,120.000001 L174.878833,120 L40,120 L40,15.155489 L40,15.155489 L40,15.155489 L40,15.155489 Z" fill="#F1453D" id="Oval-1-copy-7"/><path d="M4.98339844,56.5583977 L6.4074716,56.5583977 L6.4074716,53.866285 L7.83154476,53.866285 L7.83154476,51.1741723 L9.25561791,51.1741723 L9.25561791,48.4820596 L10.6796911,48.4820596 L10.6796911,45.789947 L12.1037642,45.789947 L12.1037642,43.0978343 L13.5278374,43.0978343 L13.5278374,45.789947 L14.9519105,45.789947 L14.9519105,48.4820596 L16.3759837,48.4820596 L16.3759837,51.1741723 L17.8000569,51.1741723 L17.8000569,53.866285 L19.22413,53.866285 L19.22413,56.5583977 L20.6482032,56.5583977 L20.6482032,59.2505104 L21.5026471,59.2505104 L21.5026471,70.0189612 L20.6482032,70.0189612 L20.6482032,72.7110739 L19.22413,72.7110739 L19.22413,75.4031866 L17.8000569,75.4031866 L17.8000569,78.0952993 L16.3759837,78.0952993 L16.3759837,80.787412 L14.9519105,80.787412 L14.9519105,83.4795247 L13.5278374,83.4795247 L13.5278374,90.4790177 L10.6796911,90.4790177 L10.6796911,88.8637501 L9.25561791,88.8637501 L9.25561791,86.1716374 L7.83154476,86.1716374 L7.83154476,83.4795247 L6.4074716,83.4795247 L6.4074716,80.787412 L4.98339844,80.787412 L4.98339844,72.7110739 L6.4074716,72.7110739 L6.4074716,75.4031866 L7.83154476,75.4031866 L7.83154476,78.0952993 L9.25561791,78.0952993 L9.25561791,80.787412 L10.6796911,80.787412 L10.6796911,78.0952993 L12.1037642,78.0952993 L12.1037642,75.4031866 L13.5278374,75.4031866 L13.5278374,72.7110739 L14.9519105,72.7110739 L14.9519105,70.0189612 L16.3759837,70.0189612 L16.3759837,67.3268485 L17.8000569,67.3268485 L17.8000569,64.6347358 L16.3759837,64.6347358 L16.3759837,61.9426231 L14.9519105,61.9426231 L14.9519105,59.2505104 L10.6796911,59.2505104 L10.6796911,61.9426231 L13.5278374,61.9426231 L13.5278374,64.6347358 L12.1037642,64.6347358 L12.1037642,67.3268485 L10.6796911,67.3268485 L10.6796911,70.0189612 L9.25561791,70.0189612 L9.25561791,67.3268485 L7.83154476,67.3268485 L7.83154476,64.6347358 L6.4074716,64.6347358 L6.4074716,61.9426231 L4.98339844,61.9426231 L4.98339844,56.5583977 L4.98339844,56.5583977 L4.98339844,56.5583977 L4.98339844,56.5583977 Z M4.98339844,67.5526386 L6.59503245,67.5526386 L6.59503245,70.6094892 L4.98339844,70.6094892 L4.98339844,67.5526386 L4.98339844,67.5526386 L4.98339844,67.5526386 L4.98339844,67.5526386 Z M20.6968301,75.194765 L21.6638105,75.194765 L21.6638105,78.2516155 L20.6968301,78.2516155 L20.6968301,75.194765 L20.6968301,75.194765 L20.6968301,75.194765 L20.6968301,75.194765 Z M17.8764705,80.5442534 L19.2711538,80.5442534 L19.2711538,83.3039102 L20.6658371,83.3039102 L20.6658371,86.0635669 L21.5026471,86.0635669 L21.5026471,90.4790177 L20.6658371,90.4790177 L20.6658371,88.8232237 L19.2711538,88.8232237 L19.2711538,86.0635669 L17.8764705,86.0635669 L17.8764705,80.5442534 L17.8764705,80.5442534 L17.8764705,80.5442534 L17.8764705,80.5442534 Z M15.056111,88.9505924 L16.667745,88.9505924 L16.667745,90.7847028 L15.056111,90.7847028 L15.056111,88.9505924 L15.056111,88.9505924 L15.056111,88.9505924 L15.056111,88.9505924 Z" fill="#F1453D" id="Shape"/><path d="M37.2322413,26.2851562 L37.9574766,26.2851562 L37.9574766,31.6346447 L37.2322413,31.6346447 L37.2322413,26.2851562 L37.2322413,26.2851562 L37.2322413,26.2851562 L37.2322413,26.2851562 Z M24.661496,32.3988573 L26.0313849,32.3988573 L26.0313849,35.1500228 L27.4012738,35.1500228 L27.4012738,37.9011883 L28.7711627,37.9011883 L28.7711627,40.6523538 L27.4012738,40.6523538 L27.4012738,43.4035193 L26.0313849,43.4035193 L26.0313849,46.1546848 L24.661496,46.1546848 L24.661496,43.4035193 L23.2916071,43.4035193 L23.2916071,40.6523538 L21.9217182,40.6523538 L21.9217182,37.9011883 L23.2916071,37.9011883 L23.2916071,35.1500228 L24.661496,35.1500228 L24.661496,32.3988573 L24.661496,32.3988573 L24.661496,32.3988573 L24.661496,32.3988573 Z M24.7420777,37.7483458 L25.9508032,37.7483458 L25.9508032,40.8051963 L24.7420777,40.8051963 L24.7420777,37.7483458 L24.7420777,37.7483458 L24.7420777,37.7483458 L24.7420777,37.7483458 Z M33.1225746,32.3988573 L34.4924635,32.3988573 L34.4924635,35.1500228 L35.8623524,35.1500228 L35.8623524,37.9011883 L37.2322413,37.9011883 L37.2322413,40.6523538 L35.8623524,40.6523538 L35.8623524,43.4035193 L34.4924635,43.4035193 L34.4924635,46.1546848 L33.1225746,46.1546848 L33.1225746,43.4035193 L31.7526856,43.4035193 L31.7526856,40.6523538 L30.3827967,40.6523538 L30.3827967,37.9011883 L31.7526856,37.9011883 L31.7526856,35.1500228 L33.1225746,35.1500228 L33.1225746,32.3988573 L33.1225746,32.3988573 L33.1225746,32.3988573 L33.1225746,32.3988573 Z M32.8002477,37.7483458 L34.0089733,37.7483458 L34.0089733,40.8051963 L32.8002477,40.8051963 L32.8002477,37.7483458 L32.8002477,37.7483458 L32.8002477,37.7483458 L32.8002477,37.7483458 Z M21.9217182,48.4473227 L23.1304437,48.4473227 L23.1304437,51.5041733 L21.9217182,51.5041733 L21.9217182,48.4473227 L21.9217182,48.4473227 L21.9217182,48.4473227 L21.9217182,48.4473227 Z M37.2322413,46.1546848 L37.9574766,46.1546848 L37.9574766,51.5041733 L37.2322413,51.5041733 L37.2322413,46.1546848 L37.2322413,46.1546848 L37.2322413,46.1546848 L37.2322413,46.1546848 Z" fill="#F1453D" id="Shape"/><path d="M21.4409658,56.5583977 L22.8650389,56.5583977 L22.8650389,53.866285 L24.2891121,53.866285 L24.2891121,51.1741723 L25.7131852,51.1741723 L25.7131852,48.4820596 L27.1372584,48.4820596 L27.1372584,45.789947 L28.5613315,45.789947 L28.5613315,43.0978343 L29.9854047,43.0978343 L29.9854047,45.789947 L31.4094779,45.789947 L31.4094779,48.4820596 L32.833551,48.4820596 L32.833551,51.1741723 L34.2576242,51.1741723 L34.2576242,53.866285 L35.6816973,53.866285 L35.6816973,56.5583977 L37.1057705,56.5583977 L37.1057705,59.2505104 L37.9602144,59.2505104 L37.9602144,70.0189612 L37.1057705,70.0189612 L37.1057705,72.7110739 L35.6816973,72.7110739 L35.6816973,75.4031866 L34.2576242,75.4031866 L34.2576242,78.0952993 L32.833551,78.0952993 L32.833551,80.787412 L31.4094779,80.787412 L31.4094779,83.4795247 L29.9854047,83.4795247 L29.9854047,90.4790177 L27.1372584,90.4790177 L27.1372584,88.8637501 L25.7131852,88.8637501 L25.7131852,86.1716374 L24.2891121,86.1716374 L24.2891121,83.4795247 L22.8650389,83.4795247 L22.8650389,80.787412 L21.4409658,80.787412 L21.4409658,72.7110739 L22.8650389,72.7110739 L22.8650389,75.4031866 L24.2891121,75.4031866 L24.2891121,78.0952993 L25.7131852,78.0952993 L25.7131852,80.787412 L27.1372584,80.787412 L27.1372584,78.0952993 L28.5613315,78.0952993 L28.5613315,75.4031866 L29.9854047,75.4031866 L29.9854047,72.7110739 L31.4094779,72.7110739 L31.4094779,70.0189612 L32.833551,70.0189612 L32.833551,67.3268485 L34.2576242,67.3268485 L34.2576242,64.6347358 L32.833551,64.6347358 L32.833551,61.9426231 L31.4094779,61.9426231 L31.4094779,59.2505104 L27.1372584,59.2505104 L27.1372584,61.9426231 L29.9854047,61.9426231 L29.9854047,64.6347358 L28.5613315,64.6347358 L28.5613315,67.3268485 L27.1372584,67.3268485 L27.1372584,70.0189612 L25.7131852,70.0189612 L25.7131852,67.3268485 L24.2891121,67.3268485 L24.2891121,64.6347358 L22.8650389,64.6347358 L22.8650389,61.9426231 L21.4409658,61.9426231 L21.4409658,56.5583977 L21.4409658,56.5583977 L21.4409658,56.5583977 L21.4409658,56.5583977 Z M21.4409658,67.5526386 L23.0525998,67.5526386 L23.0525998,70.6094892 L21.4409658,70.6094892 L21.4409658,67.5526386 L21.4409658,67.5526386 L21.4409658,67.5526386 L21.4409658,67.5526386 Z M37.1543974,75.194765 L38.1213778,75.194765 L38.1213778,78.2516155 L37.1543974,78.2516155 L37.1543974,75.194765 L37.1543974,75.194765 L37.1543974,75.194765 L37.1543974,75.194765 Z M34.3340379,80.5442534 L35.7287211,80.5442534 L35.7287211,83.3039102 L37.1234044,83.3039102 L37.1234044,86.0635669 L37.9602144,86.0635669 L37.9602144,90.4790177 L37.1234044,90.4790177 L37.1234044,88.8232237 L35.7287211,88.8232237 L35.7287211,86.0635669 L34.3340379,86.0635669 L34.3340379,80.5442534 L34.3340379,80.5442534 L34.3340379,80.5442534 L34.3340379,80.5442534 Z M31.5136783,88.9505924 L33.1253124,88.9505924 L33.1253124,90.7847028 L31.5136783,90.7847028 L31.5136783,88.9505924 L31.5136783,88.9505924 L31.5136783,88.9505924 L31.5136783,88.9505924 Z" fill="#F1453D" id="Shape" transform="translate(29.940966, 67.097834) scale(-1, 1) translate(-29.940966, -67.097834) "/><path d="M21.7275342,102.869684 L23.1516073,102.869684 L23.1516073,100.177571 L24.5756805,100.177571 L24.5756805,97.4854581 L25.9997536,97.4854581 L25.9997536,94.7933454 L27.4238268,94.7933454 L27.4238268,92.1012327 L28.8478999,92.1012327 L28.8478999,89.40912 L30.2719731,89.40912 L30.2719731,92.1012327 L31.6960463,92.1012327 L31.6960463,94.7933454 L33.1201194,94.7933454 L33.1201194,97.4854581 L34.5441926,97.4854581 L34.5441926,100.177571 L35.9682657,100.177571 L35.9682657,102.869684 L37.3923389,102.869684 L37.3923389,105.561796 L38.2467828,105.561796 L38.2467828,116.330247 L37.3923389,116.330247 L37.3923389,119.02236 L35.9682657,119.02236 L35.9682657,121.714472 L34.5441926,121.714472 L34.5441926,124.406585 L33.1201194,124.406585 L33.1201194,127.098698 L31.6960463,127.098698 L31.6960463,129.790811 L30.2719731,129.790811 L30.2719731,136.790304 L27.4238268,136.790304 L27.4238268,135.175036 L25.9997536,135.175036 L25.9997536,132.482923 L24.5756805,132.482923 L24.5756805,129.790811 L23.1516073,129.790811 L23.1516073,127.098698 L21.7275342,127.098698 L21.7275342,119.02236 L23.1516073,119.02236 L23.1516073,121.714472 L24.5756805,121.714472 L24.5756805,124.406585 L25.9997536,124.406585 L25.9997536,127.098698 L27.4238268,127.098698 L27.4238268,124.406585 L28.8478999,124.406585 L28.8478999,121.714472 L30.2719731,121.714472 L30.2719731,119.02236 L31.6960463,119.02236 L31.6960463,116.330247 L33.1201194,116.330247 L33.1201194,113.638134 L34.5441926,113.638134 L34.5441926,110.946022 L33.1201194,110.946022 L33.1201194,108.253909 L31.6960463,108.253909 L31.6960463,105.561796 L27.4238268,105.561796 L27.4238268,108.253909 L30.2719731,108.253909 L30.2719731,110.946022 L28.8478999,110.946022 L28.8478999,113.638134 L27.4238268,113.638134 L27.4238268,116.330247 L25.9997536,116.330247 L25.9997536,113.638134 L24.5756805,113.638134 L24.5756805,110.946022 L23.1516073,110.946022 L23.1516073,108.253909 L21.7275342,108.253909 L21.7275342,102.869684 L21.7275342,102.869684 L21.7275342,102.869684 L21.7275342,102.869684 Z M21.7275342,113.863924 L23.3391682,113.863924 L23.3391682,116.920775 L21.7275342,116.920775 L21.7275342,113.863924 L21.7275342,113.863924 L21.7275342,113.863924 L21.7275342,113.863924 Z M37.4409658,121.506051 L38.4079462,121.506051 L38.4079462,124.562901 L37.4409658,124.562901 L37.4409658,121.506051 L37.4409658,121.506051 L37.4409658,121.506051 L37.4409658,121.506051 Z M34.6206063,126.855539 L36.0152895,126.855539 L36.0152895,129.615196 L37.4099728,129.615196 L37.4099728,132.374853 L38.2467828,132.374853 L38.2467828,136.790304 L37.4099728,136.790304 L37.4099728,135.134509 L36.0152895,135.134509 L36.0152895,132.374853 L34.6206063,132.374853 L34.6206063,126.855539 L34.6206063,126.855539 L34.6206063,126.855539 L34.6206063,126.855539 Z M31.8002467,135.261878 L33.4118808,135.261878 L33.4118808,137.095989 L31.8002467,137.095989 L31.8002467,135.261878 L31.8002467,135.261878 L31.8002467,135.261878 L31.8002467,135.261878 Z" fill="#F1453D" id="Shape-copy" transform="translate(30.084250, 113.252554) scale(-1, -1) translate(-30.084250, -113.252554) "/><path d="M37.2322413,132.729729 L37.9574766,132.729729 L37.9574766,138.079217 L37.2322413,138.079217 L37.2322413,132.729729 L37.2322413,132.729729 L37.2322413,132.729729 L37.2322413,132.729729 Z M24.661496,138.84343 L26.0313849,138.84343 L26.0313849,141.594595 L27.4012738,141.594595 L27.4012738,144.345761 L28.7711627,144.345761 L28.7711627,147.096926 L27.4012738,147.096926 L27.4012738,149.848092 L26.0313849,149.848092 L26.0313849,152.599257 L24.661496,152.599257 L24.661496,149.848092 L23.2916071,149.848092 L23.2916071,147.096926 L21.9217182,147.096926 L21.9217182,144.345761 L23.2916071,144.345761 L23.2916071,141.594595 L24.661496,141.594595 L24.661496,138.84343 L24.661496,138.84343 L24.661496,138.84343 L24.661496,138.84343 Z M24.7420777,144.192918 L25.9508032,144.192918 L25.9508032,147.249769 L24.7420777,147.249769 L24.7420777,144.192918 L24.7420777,144.192918 L24.7420777,144.192918 L24.7420777,144.192918 Z M33.1225746,138.84343 L34.4924635,138.84343 L34.4924635,141.594595 L35.8623524,141.594595 L35.8623524,144.345761 L37.2322413,144.345761 L37.2322413,147.096926 L35.8623524,147.096926 L35.8623524,149.848092 L34.4924635,149.848092 L34.4924635,152.599257 L33.1225746,152.599257 L33.1225746,149.848092 L31.7526856,149.848092 L31.7526856,147.096926 L30.3827967,147.096926 L30.3827967,144.345761 L31.7526856,144.345761 L31.7526856,141.594595 L33.1225746,141.594595 L33.1225746,138.84343 L33.1225746,138.84343 L33.1225746,138.84343 L33.1225746,138.84343 Z M32.8002477,144.192918 L34.0089733,144.192918 L34.0089733,147.249769 L32.8002477,147.249769 L32.8002477,144.192918 L32.8002477,144.192918 L32.8002477,144.192918 L32.8002477,144.192918 Z M21.9217182,154.891895 L23.1304437,154.891895 L23.1304437,157.948746 L21.9217182,157.948746 L21.9217182,154.891895 L21.9217182,154.891895 L21.9217182,154.891895 L21.9217182,154.891895 Z M37.2322413,152.599257 L37.9574766,152.599257 L37.9574766,157.948746 L37.2322413,157.948746 L37.2322413,152.599257 L37.2322413,152.599257 L37.2322413,152.599257 L37.2322413,152.599257 Z" fill="#F1453D" id="Shape-copy" transform="translate(29.921718, 145.229729) scale(1, -1) translate(-29.921718, -145.229729) "/><path d="M4.98339844,102.869684 L6.4074716,102.869684 L6.4074716,100.177571 L7.83154476,100.177571 L7.83154476,97.4854581 L9.25561791,97.4854581 L9.25561791,94.7933454 L10.6796911,94.7933454 L10.6796911,92.1012327 L12.1037642,92.1012327 L12.1037642,89.40912 L13.5278374,89.40912 L13.5278374,92.1012327 L14.9519105,92.1012327 L14.9519105,94.7933454 L16.3759837,94.7933454 L16.3759837,97.4854581 L17.8000569,97.4854581 L17.8000569,100.177571 L19.22413,100.177571 L19.22413,102.869684 L20.6482032,102.869684 L20.6482032,105.561796 L21.5026471,105.561796 L21.5026471,116.330247 L20.6482032,116.330247 L20.6482032,119.02236 L19.22413,119.02236 L19.22413,121.714472 L17.8000569,121.714472 L17.8000569,124.406585 L16.3759837,124.406585 L16.3759837,127.098698 L14.9519105,127.098698 L14.9519105,129.790811 L13.5278374,129.790811 L13.5278374,136.790304 L10.6796911,136.790304 L10.6796911,135.175036 L9.25561791,135.175036 L9.25561791,132.482923 L7.83154476,132.482923 L7.83154476,129.790811 L6.4074716,129.790811 L6.4074716,127.098698 L4.98339844,127.098698 L4.98339844,119.02236 L6.4074716,119.02236 L6.4074716,121.714472 L7.83154476,121.714472 L7.83154476,124.406585 L9.25561791,124.406585 L9.25561791,127.098698 L10.6796911,127.098698 L10.6796911,124.406585 L12.1037642,124.406585 L12.1037642,121.714472 L13.5278374,121.714472 L13.5278374,119.02236 L14.9519105,119.02236 L14.9519105,116.330247 L16.3759837,116.330247 L16.3759837,113.638134 L17.8000569,113.638134 L17.8000569,110.946022 L16.3759837,110.946022 L16.3759837,108.253909 L14.9519105,108.253909 L14.9519105,105.561796 L10.6796911,105.561796 L10.6796911,108.253909 L13.5278374,108.253909 L13.5278374,110.946022 L12.1037642,110.946022 L12.1037642,113.638134 L10.6796911,113.638134 L10.6796911,116.330247 L9.25561791,116.330247 L9.25561791,113.638134 L7.83154476,113.638134 L7.83154476,110.946022 L6.4074716,110.946022 L6.4074716,108.253909 L4.98339844,108.253909 L4.98339844,102.869684 L4.98339844,102.869684 L4.98339844,102.869684 L4.98339844,102.869684 Z M4.98339844,113.863924 L6.59503245,113.863924 L6.59503245,116.920775 L4.98339844,116.920775 L4.98339844,113.863924 L4.98339844,113.863924 L4.98339844,113.863924 L4.98339844,113.863924 Z M20.6968301,121.506051 L21.6638105,121.506051 L21.6638105,124.562901 L20.6968301,124.562901 L20.6968301,121.506051 L20.6968301,121.506051 L20.6968301,121.506051 L20.6968301,121.506051 Z M17.8764705,126.855539 L19.2711538,126.855539 L19.2711538,129.615196 L20.6658371,129.615196 L20.6658371,132.374853 L21.5026471,132.374853 L21.5026471,136.790304 L20.6658371,136.790304 L20.6658371,135.134509 L19.2711538,135.134509 L19.2711538,132.374853 L17.8764705,132.374853 L17.8764705,126.855539 L17.8764705,126.855539 L17.8764705,126.855539 L17.8764705,126.855539 Z M15.056111,135.261878 L16.667745,135.261878 L16.667745,137.095989 L15.056111,137.095989 L15.056111,135.261878 L15.056111,135.261878 L15.056111,135.261878 L15.056111,135.261878 Z" fill="#F1453D" id="Shape-copy" transform="translate(13.340114, 113.252554) scale(1, -1) translate(-13.340114, -113.252554) "/></g></g></g></svg>