<?xml version="1.0" ?><svg height="180px" version="1.1" viewBox="0 0 180 180" width="180px" xmlns="http://www.w3.org/2000/svg" xmlns:sketch="http://www.bohemiancoding.com/sketch/ns" xmlns:xlink="http://www.w3.org/1999/xlink"><title/><desc/><defs/><g fill="none" fill-rule="evenodd" id="Page-1" stroke="none" stroke-width="1"><g id="Material" transform="translate(-180.000000, -180.000000)"><g id="Slice" transform="translate(180.000000, 180.000000)"/><g id="circle_central_african" transform="translate(180.000000, 180.000000)"><ellipse cx="89.9972382" cy="90" fill="#FFFFFF" id="path-1" rx="89.9972382" ry="90"/><path d="M167.954449,135 L12.0400269,135 C27.6009907,161.901074 56.6855627,180 89.9972382,180 C123.308914,180 152.393486,161.901074 167.954435,135.000025 Z" fill="#FEE94E" id="Rectangle-3-copy-2"/><path d="M12.0400269,135 L167.954449,135 C175.611863,121.762218 179.994476,106.392932 179.994476,90 L0,90 C0,106.392932 4.3826134,121.762218 12.0400414,135.000025 Z" fill="#4EAB53" id="Rectangle-3-copy-3"/><path d="M12.0400269,45 L167.954449,45 C152.393486,18.0989265 123.308914,0 89.9972382,0 C56.6855627,0 27.6009907,18.0989265 12.0400414,44.9999749 Z" fill="#2B98F0" id="Rectangle-3"/><path d="M67,2.96508516 L67,177.034915 C74.3408789,178.969538 82.0487236,180 89.9972382,180 C97.9477465,180 105.657464,178.969021 113,177.033459 L113,2.96654104 C105.657464,1.03097859 97.9477465,0 89.9972382,0 C82.0487236,0 74.3408789,1.03046161 67,2.96508516 Z" fill="#F1453D" id="Rectangle-3-copy"/><path d="M46.3496248,34.0960529 L41.0322878,36.9999998 L42.0478086,30.8493422 L37.745992,26.4934222 L43.6909571,25.5960525 L46.3496251,20 L49.0082948,25.5960539 L54.9532594,26.4934267 L50.6514411,30.8493433 L51.666962,37 L46.3496248,34.0960529 Z" fill="#FEE94E" id="Star-1"/></g></g></g></svg>