<?xml version="1.0" ?><svg height="180px" version="1.1" viewBox="0 0 180 180" width="180px" xmlns="http://www.w3.org/2000/svg" xmlns:sketch="http://www.bohemiancoding.com/sketch/ns" xmlns:xlink="http://www.w3.org/1999/xlink"><title/><desc/><defs/><g fill="none" fill-rule="evenodd" id="Page-1" stroke="none" stroke-width="1"><g id="Material" transform="translate(-180.000000, -180.000000)"><g id="Slice" transform="translate(180.000000, 180.000000)"/><g id="circle_the_cook_islands" transform="translate(180.000000, 180.000000)"><circle cx="90" cy="90" fill="#2B98F0" id="blue" r="90"/><path d="M131.856823,63.1651309 L127.748853,66.2717306 L129.433972,61.4048263 L125.209987,58.4579063 L130.359419,58.5565938 L131.856823,53.6286974 L133.354228,58.5565938 L138.503659,58.4579063 L134.279674,61.4048263 L135.964794,66.2717306 L131.856823,63.1651309 Z M142.759736,65.4826167 L137.743351,66.6497745 L141.262332,62.889036 L138.60215,58.4788413 L143.26625,60.6634592 L146.638553,56.7706511 L146.002144,61.8815578 L150.746524,63.8858648 L145.689102,64.8599609 L145.248986,69.9914988 L142.759736,65.4826167 Z M151.777437,72.0343597 L146.720015,71.0602636 L151.464394,69.0559566 L150.827985,63.9450499 L154.200288,67.837858 L158.864388,65.6532401 L156.204207,70.0634348 L159.723188,73.8241733 L154.706802,72.6570155 L152.217552,77.1658976 L151.777437,72.0343597 Z M157.350682,81.687504 L153.126698,78.740584 L158.276129,78.8392714 L159.773534,73.911375 L161.270938,78.8392714 L166.42037,78.740584 L162.196385,81.687504 L163.881504,86.5544082 L159.773534,83.4478085 L155.665563,86.5544082 L157.350682,81.687504 Z M158.515808,92.7729333 L155.855627,88.3627386 L160.519726,90.5473565 L163.892029,86.6545484 L163.255621,91.765455 L168,93.769762 L162.942578,94.7438581 L162.502462,99.8753961 L160.013213,95.3665139 L154.996827,96.5336718 L158.515808,92.7729333 Z M155.071353,103.373876 L154.434944,98.2629695 L157.807247,102.155778 L162.471347,99.9711597 L159.811165,104.381354 L163.330147,108.142093 L158.313761,106.974935 L155.824511,111.483817 L155.384396,106.352279 L150.326973,105.378183 L155.071353,103.373876 Z M147.612895,111.657333 L149.110299,106.729437 L150.607704,111.657333 L155.757135,111.558646 L151.533151,114.505566 L153.21827,119.37247 L149.110299,116.26587 L145.002329,119.37247 L146.687448,114.505566 L142.463463,111.558646 L147.612895,111.657333 Z M137.430069,116.191019 L140.802372,112.298211 L140.165963,117.409118 L144.910342,119.413425 L139.85292,120.387521 L139.412805,125.519059 L136.923555,121.010177 L131.907169,122.177335 L135.42615,118.416596 L132.765969,114.006402 L137.430069,116.191019 Z M126.283578,116.191019 L130.947677,114.006402 L128.287496,118.416596 L131.806477,122.177335 L126.790091,121.010177 L124.300842,125.519059 L123.860726,120.387521 L118.803304,119.413425 L123.547683,117.409118 L122.911274,112.298211 L126.283578,116.191019 Z M116.100751,111.657333 L121.250183,111.558646 L117.026198,114.505566 L118.711317,119.37247 L114.603347,116.26587 L110.495376,119.37247 L112.180496,114.505566 L107.956511,111.558646 L113.105942,111.657333 L114.603347,106.729437 L116.100751,111.657333 Z M108.642293,103.373876 L113.386673,105.378183 L108.32925,106.352279 L107.889135,111.483817 L105.399885,106.974935 L100.383499,108.142093 L103.902481,104.381354 L101.242299,99.9711597 L105.906399,102.155778 L109.278702,98.2629695 L108.642293,103.373876 Z M105.197838,92.7729333 L108.716819,96.5336718 L103.700434,95.3665139 L101.211184,99.8753961 L100.771068,94.7438581 L95.7136461,93.769762 L100.458026,91.765455 L99.8216166,86.6545484 L103.19392,90.5473565 L107.85802,88.3627386 L105.197838,92.7729333 Z M106.362964,81.687504 L108.048083,86.5544082 L103.940112,83.4478085 L99.8321417,86.5544082 L101.517261,81.687504 L97.2932763,78.740584 L102.442708,78.8392714 L103.940112,73.911375 L105.437517,78.8392714 L110.586948,78.740584 L106.362964,81.687504 Z M111.936209,72.0343597 L111.496094,77.1658976 L109.006844,72.6570155 L103.990458,73.8241733 L107.509439,70.0634348 L104.849258,65.6532401 L109.513358,67.837858 L112.885661,63.9450499 L112.249252,69.0559566 L116.993631,71.0602636 L111.936209,72.0343597 Z M120.95391,65.4826167 L118.46466,69.9914988 L118.024544,64.8599609 L112.967122,63.8858648 L117.711502,61.8815578 L117.075093,56.7706511 L120.447396,60.6634592 L125.111496,58.4788413 L122.451314,62.889036 L125.970295,66.6497745 L120.95391,65.4826167 Z" fill="#FFFFFF" id="star_ring"/><g id="UK-flag"><path d="M58.6665316,5.60442783 L41.3956444,14.2398718 C16.4947453,30.2482972 0,58.1978704 0,90 L18,90 L18,64.0623044 L69.8753928,90 L90,90 L90,79.937694 L47.124612,58.5 L90,58.5 L90,31.5 L47.1246106,31.5 L90,10.062306 L90,0 C78.9808284,0 68.424181,1.98030051 58.6665316,5.60442783 Z" fill="#FFFFFF" id="white"/><path d="M17.9934072,35.9999997 L90,36 L90,54 L12,53.9999997 L12,89.9999997 L0,89.9999998 C4.3896494e-08,69.7390927 6.69500614,51.041889 17.9934072,35.9999997 L17.9934072,35.9999997 Z M75.9120161,1.09619155 L24.8567236,27.9002201 C23.7407294,29.0705605 22.6559518,30.2709324 21.6037269,31.5 L30,31.5 L90,0 L89.9925529,0 C85.2024043,0.000387862029 80.4996778,0.374999182 75.9120161,1.09619155 L75.9120161,1.09619155 Z M28,58.5 L40,58.5 L90,84 L90,90 L28,58.5 Z" fill="#F1453D" id="red"/></g></g></g></g></svg>