<?xml version="1.0" ?><svg height="180px" version="1.1" viewBox="0 0 180 180" width="180px" xmlns="http://www.w3.org/2000/svg" xmlns:sketch="http://www.bohemiancoding.com/sketch/ns" xmlns:xlink="http://www.w3.org/1999/xlink"><title/><desc/><defs/><g fill="none" fill-rule="evenodd" id="Page-1" stroke="none" stroke-width="1"><g id="Material" transform="translate(-180.000000, -180.000000)"><g id="Slice" transform="translate(180.000000, 180.000000)"/><g id="circle_chile" transform="translate(180.000000, 180.000000)"><path d="M180,90 L0,90 C0,139.70563 40.2943701,180 90,180 C139.705526,180 179.999831,139.705799 180,90.0003125 C180,90.0003125 179.999831,139.705799 180,90.0003125 L180,90 L180,90 Z" fill="#E54D42" id="red"/><path d="M180,90 L90,90 L90,0 C139.70563,1.7894295e-14 180,40.2943701 180,90 C180,90 180,40.2943701 180,90 L180,90 L180,90 Z" fill="#FFFFFF" id="white"/><path d="M90,0 C40.2943701,0 2.68414424e-14,40.2943701 0,90 L90,90 L90,0 L90,0 L90,0 L90,0 Z" fill="#2B98F0" id="blue"/><path d="M54.4999993,69.5 L36.5725512,79.0795279 L39.9963883,58.789764 L25.492776,44.4204739 L45.5362778,41.4602345 L54.5000004,23 L63.4637284,41.460239 L83.5072287,44.4204886 L69.0036104,58.7897679 L72.4274482,79.0795283 L54.4999993,69.5 Z" fill="#FFFFFF" id="Star-1"/></g></g></g></svg>