<?xml version="1.0" ?><svg height="180px" version="1.1" viewBox="0 0 180 180" width="180px" xmlns="http://www.w3.org/2000/svg" xmlns:sketch="http://www.bohemiancoding.com/sketch/ns" xmlns:xlink="http://www.w3.org/1999/xlink"><title/><desc/><defs/><g fill="none" fill-rule="evenodd" id="Page-1" stroke="none" stroke-width="1"><g id="Material" transform="translate(-180.000000, -180.000000)"><g id="Slice" transform="translate(180.000000, 180.000000)"/><g id="circle_cameroon" transform="translate(180.000000, 180.000000)"><path d="M135,12.042793 L135,167.957207 C161.897963,152.395176 179.994476,123.310988 179.994476,90 C179.994476,56.6890123 161.897963,27.6048239 135.000025,12.0428076 Z" fill="#FEE94E" id="Rectangle-3-copy-2"/><path d="M45,12.0395976 L45,167.960402 C58.237083,175.617562 73.6053894,180 89.9972382,180 C106.391377,180 121.761688,175.616338 135.000025,167.957192 L135,12.042793 C121.761688,4.38366236 106.391377,0 89.9972382,0 C73.6053894,0 58.237083,4.38243757 45,12.0395976 Z" fill="#F1453D" id="Rectangle-3-copy-3"/><path d="M0.00276191524,89.2874328 L0.00276191524,90.7125672 C0.258782647,123.728868 18.2922227,152.512212 45.0027619,167.962 L45.0027619,12.038 C18.2922227,27.487788 0.258782647,56.2711321 0.00276191524,89.2874328 Z" fill="#4EAB53" id="Rectangle-3"/><path d="M88.9999996,101 L77.8320811,107.180341 L79.9649632,94.0901703 L70.9299261,84.8196606 L83.4160419,82.9098287 L89.0000002,71 L94.583962,82.9098316 L107.070077,84.8196701 L98.035036,94.0901728 L100.167919,107.180341 L88.9999996,101 Z" fill="#FEE94E" id="Star-1"/></g></g></g></svg>