<?xml version="1.0" ?><svg height="180px" version="1.1" viewBox="0 0 180 180" width="180px" xmlns="http://www.w3.org/2000/svg" xmlns:sketch="http://www.bohemiancoding.com/sketch/ns" xmlns:xlink="http://www.w3.org/1999/xlink"><title/><desc/><defs/><g fill="none" fill-rule="evenodd" id="Page-1" stroke="none" stroke-width="1"><g id="Material" transform="translate(-180.000000, -180.000000)"><g id="Slice" transform="translate(180.000000, 180.000000)"/><g id="circle_costa_rica" transform="translate(180.000000, 180.000000)"><circle cx="90" cy="90" fill="#FFFFFF" id="Oval-6" r="90"/><path d="M157.083197,150 C140.603581,168.412481 116.654996,180 90,180 C63.3450038,180 39.3964193,168.412481 22.916803,150 L157.083197,150 Z M157.083197,30 C140.603581,11.5875189 116.654996,0 90,0 C63.3450038,0 39.3964193,11.5875189 22.916803,30 L157.083197,30 Z" fill="#2B98F0" id="Rectangle-42"/><path d="M5.12116698,120 L174.878833,120 C178.195374,110.616633 180,100.519063 180,90 C180,79.480937 178.195374,69.3833673 174.878829,59.9999996 L5.12116698,60 C1.80462645,69.3833673 0,79.480937 0,90 C0,100.519063 1.80462645,110.616633 5.12117078,120 Z" fill="#F1453D" id="Rectangle-42"/><g id="costa-rica" transform="translate(30.000000, 61.000000)"><ellipse cx="25.875" cy="29.025" fill="#FFFFFF" id="Oval" rx="25.875" ry="29.025"/><g id="Group" transform="translate(4.218367, 4.652586)"><g stroke="#000000" stroke-width="0.1" transform="translate(0.000000, 6.356897)"><g id="Shape"><path d="M5.6594838,13.0112069 L6.34285714,12.2742085 L4.72761105,12.0103448 L4.23061224,12.6654546 L5.6594838,13.0112069 L5.6594838,13.0112069 L5.6594838,13.0112069 L5.6594838,13.0112069 Z" fill="#CEA849"/><path d="M20.7700769,0.0118765596 L18.7143815,0.0738037491 C17.4017696,0.203158976 16.9027403,0.731388905 17.7178096,1.73074281 C15.6017159,2.07685659 13.5321258,2.58198088 11.6195303,3.63709227 C11.0818932,3.54393126 10.4576065,3.85828147 10.2784625,4.39864747 C10.1291383,4.83518256 10.4931738,5.29911477 11.1404457,5.11498667 C10.712356,6.29151245 5.65486543,6.1545801 5.52617297,8.1142256 C5.90929709,7.77343607 6.33109047,7.48462621 6.75187893,7.77613839 L6.46187482,8.69164204 C5.72545658,8.92055801 5.20802059,9.0472057 4.8996714,9.88834099 C4.58114988,10.7321412 4.12387634,12.0197538 3.80532405,12.6532594 C3.59611932,12.9460558 3.54576006,13.257067 3.54576006,13.4114435 C3.54576006,13.7761092 3.79536191,14.2851022 4.37251941,14.2851022 C4.95989025,14.2851022 5.24896121,13.9011622 5.24896121,13.5151995 C5.21481823,13.2466111 5.11340343,12.9312977 4.49270072,12.9678986 C5.53459694,12.7072297 6.4351878,13.0724144 7.04024745,13.4750295 C7.876287,14.1191836 8.08552761,15.368162 7.59782934,16.3956087 C7.11979581,17.3937853 5.90519021,17.9764564 4.09370283,17.2391413 C2.62035361,16.6349057 1.13818561,17.4255383 0.650487334,18.7990131 C-1.56922689,25.0677168 2.31210696,30.1522429 6.71185096,33.1172355 C11.2906364,36.2049266 12.1061672,37.0458372 13.3305401,38.5549279 C14.5646033,40.0615037 15.7592386,41.7868286 17.5508324,41.7868286 C17.8296029,41.7868286 18.0985188,41.7033262 18.3375484,41.5675765 C19.4652738,41.5675765 19.5385414,42.006771 21.0517288,42.0345374 L21.0517288,42.0362069 C21.0779805,42.0362069 21.1031853,42.0347622 21.1286367,42.0345374 C21.1538332,42.0347514 21.1779638,42.0362069 21.2039449,42.0362069 L21.2039449,42.0345374 C22.718773,42.0070584 22.7916303,41.5675765 23.919766,41.5675765 C24.1587853,41.7033262 24.4260964,41.7868286 24.7048413,41.7868286 C26.4964351,41.7868286 27.6910702,40.0615037 28.9251336,38.5549279 C30.1495065,37.0456766 30.9668317,36.204766 35.5453609,33.1172355 C39.9450023,30.1519754 43.8262849,25.0671817 41.6067245,18.7990131 C41.1190057,17.4255169 39.6352688,16.6349057 38.1619196,17.2391413 C36.3504322,17.9764564 35.1374416,17.3937746 34.6594338,16.3956087 C34.1717149,15.368162 34.3809658,14.1191836 35.2170156,13.4750295 C35.8221266,13.0724198 36.7210768,12.7072137 37.7629729,12.9678986 C37.1422754,12.9312849 37.042449,13.2466058 37.0083019,13.5151995 C37.0083019,13.9011568 37.297378,14.2851022 37.8847437,14.2851022 C38.4619114,14.2851022 38.7099137,13.7760985 38.7099137,13.4114435 C38.7099137,13.2570617 38.6611566,12.9460558 38.4519545,12.6532594 C38.1334329,12.0197538 37.6745187,10.7320877 37.3560177,9.88834099 C37.047689,9.04721641 36.5302325,8.92055801 35.7938142,8.69164204 L35.5054098,7.77613839 C35.9262137,7.48463161 36.3480122,7.77343607 36.7311157,8.1142256 C36.6026079,6.1545801 31.5434253,6.2914589 31.1153049,5.11498667 C31.7626126,5.29913619 32.1282325,4.83517721 31.9789288,4.39864747 C31.799795,3.85830287 31.1754981,3.54393126 30.637861,3.63709227 C28.7269574,2.58187386 26.6555728,2.07673887 24.5395816,1.73052877 C25.354292,0.730960826 24.8554165,0.202977039 23.5428559,0.0736432209 L21.4871606,0.0117160313 L21.1282572,0 L20.7709588,0.0117160313 L20.7700769,0.0118765596 L20.7700769,0.0118765596 L20.7700769,0.0118765596 L20.7700769,0.0118765596 Z" fill="#DCA842"/><path d="M31.9076581,5.00431034 C31.5359835,4.2751349 31.6566087,3.76658797 32.1421717,4.11659219"/></g><g fill="#825123" id="g" transform="translate(11.603571, 24.532759) scale(-1, 1) translate(-11.603571, -24.532759) translate(2.078571, 9.907759)"><path d="M13.1291107,0.102173855 C13.0131255,0.108824696 12.8950184,0.138921712 12.7859002,0.186219141 C12.5931265,0.269781409 12.4242056,0.41284282 12.3643869,0.611605091 C12.3640138,0.612856549 12.3630807,0.613784165 12.3627235,0.615035623 C10.6613589,5.47546805 11.5712734,7.54690552 13.082466,10.6920171 C15.2661114,15.2206485 13.6745209,21.9672148 8.79733249,24.9169233 C6.39957702,26.3602166 4.55053192,26.852402 3.13429195,27.2170812 C2.42622528,27.3994428 1.82500039,27.5503093 1.31659562,27.7745289 C0.826147088,27.990839 0.319778923,28.3783574 0,28.8269612 C0.489995357,28.8686539 1.28972523,29.0070834 1.68227811,29.1258621 C2.25295394,28.3792137 3.68817378,27.6927231 5.17350902,27.1724898 C6.65884427,26.6522291 8.20842319,26.2819786 9.04881585,26.1107265 L9.05047925,26.1107265 C11.7846477,25.2943148 14.333869,23.4624108 16.2543019,21.1347537 C18.2874411,18.6708634 19.326536,15.2973607 18.9250263,11.9151307 C18.8350745,11.1410929 18.5362427,10.6681186 18.1103311,10.4108562 C17.6844035,10.1535882 17.1455563,10.1097324 16.5742408,10.1484233 C15.5358389,10.2101234 14.518443,9.9182099 13.5886423,9.32849873 C12.3897113,8.56856731 11.898367,7.22489659 11.9175601,5.76590511 C11.936741,4.30691363 12.4720817,2.7397369 13.3203649,1.57209364 C13.6234885,1.15177938 13.7448637,0.836587604 13.7385512,0.592663067 C13.7322351,0.34873853 13.5785126,0.187684664 13.3903452,0.131259276 C13.3433023,0.11715238 13.2940437,0.107901471 13.2437309,0.103815021 C13.2059978,0.100752242 13.167433,0.099885004 13.1287748,0.1021025 L13.1287748,0.102099755 L13.1291107,0.102173855 L13.1291107,0.102173855 L13.1291107,0.102173855 L13.1291107,0.102173855 Z" id="Shape"/></g><g fill="#825123" id="g" transform="translate(31.744898, 24.457759) scale(-1, 1) translate(-31.744898, -24.457759) translate(22.144898, 9.757759)"><g id="Group" transform="translate(9.635204, 14.775000) scale(-1, 1) translate(-9.635204, -14.775000) translate(0.110204, 0.150000)"><path d="M13.1291107,0.102173855 C13.0131255,0.108824696 12.8950184,0.138921712 12.7859002,0.186219141 C12.5931265,0.269781409 12.4242056,0.41284282 12.3643869,0.611605091 C12.3640138,0.612856549 12.3630807,0.613784165 12.3627235,0.615035623 C10.6613589,5.47546805 11.5712734,7.54690552 13.082466,10.6920171 C15.2661114,15.2206485 13.6745209,21.9672148 8.79733249,24.9169233 C6.39957702,26.3602166 4.55053192,26.852402 3.13429195,27.2170812 C2.42622528,27.3994428 1.82500039,27.5503093 1.31659562,27.7745289 C0.826147088,27.990839 0.319778923,28.3783574 0,28.8269612 C0.489995357,28.8686539 1.28972523,29.0070834 1.68227811,29.1258621 C2.25295394,28.3792137 3.68817378,27.6927231 5.17350902,27.1724898 C6.65884427,26.6522291 8.20842319,26.2819786 9.04881585,26.1107265 L9.05047925,26.1107265 C11.7846477,25.2943148 14.333869,23.4624108 16.2543019,21.1347537 C18.2874411,18.6708634 19.326536,15.2973607 18.9250263,11.9151307 C18.8350745,11.1410929 18.5362427,10.6681186 18.1103311,10.4108562 C17.6844035,10.1535882 17.1455563,10.1097324 16.5742408,10.1484233 C15.5358389,10.2101234 14.518443,9.9182099 13.5886423,9.32849873 C12.3897113,8.56856731 11.898367,7.22489659 11.9175601,5.76590511 C11.936741,4.30691363 12.4720817,2.7397369 13.3203649,1.57209364 C13.6234885,1.15177938 13.7448637,0.836587604 13.7385512,0.592663067 C13.7322351,0.34873853 13.5785126,0.187684664 13.3903452,0.131259276 C13.3433023,0.11715238 13.2940437,0.107901471 13.2437309,0.103815021 C13.2059978,0.100752242 13.167433,0.099885004 13.1287748,0.1021025 L13.1287748,0.102099755 L13.1291107,0.102173855 L13.1291107,0.102173855 L13.1291107,0.102173855 L13.1291107,0.102173855 Z" id="Shape"/></g></g></g><g id="Shape" transform="translate(8.142857, 12.362069)"><path d="M1.38786385,13.0112069 C1.97063233,10.93535 2.26201655,8.26753079 1.43827006,4.79597 C5.0647127,2.29062742 7.61627816,0 13.5236524,0 C19.4206772,0 22.2030836,1.7399905 25.6090346,4.79597 C24.7953218,8.26769698 25.0867061,10.924437 25.6591837,13.0112069 L1.36836735,13.0112069" fill="#89C5E3" stroke="#000000" stroke-width="0.1"/><path d="M4.09399706,9.00775862 L3.89364583,11.0098809 C3.8916807,11.0101282 3.8896104,11.0095982 3.88764872,11.0098809 L3.1154137,9.02542649 L3.48723411,11.1212591 C3.48446681,11.1224287 3.48159703,11.1233863 3.47883817,11.12457 L2.6164067,10.0768658 L3.13455645,11.3224501 L2.50126231,10.9160892 L2.88626677,11.5808249 C2.88279324,11.5853783 2.87888524,11.5894822 2.87547198,11.5940759 L2.4244898,11.5432807 L2.7039529,11.9043765 C2.64714833,12.0499597 2.61644317,12.206497 2.61644317,12.369748 C2.61644317,12.3773045 2.61871151,12.3843052 2.61884201,12.3918328 L5.59820305,12.3918328 C5.59831819,12.3843052 5.60060189,12.3773045 5.60060189,12.369748 C5.60060189,12.2058786 5.57021836,12.0483696 5.51304609,11.9026451 L6.09989866,11.3842699 L5.36105551,11.621726 C5.35508296,11.6132635 5.3492321,11.604661 5.34306419,11.5963285 C5.45659273,11.4679291 6.56770153,10.2094012 6.52210435,10.2094012 C6.47496424,10.2094012 5.11734281,11.2814872 5.06959627,11.319155 C5.06720127,11.3172963 5.06480626,11.3154794 5.06239975,11.3136338 L6.12867516,9.14048668 L4.6533685,11.0905947 C4.6485144,11.0888421 4.64385412,11.0867817 4.63897545,11.0850735 L5.07345361,9.02570741 L4.29622899,11.0045081 L4.09472631,9.00803954 L4.09399706,9.00775862 L4.09399706,9.00775862 L4.09399706,9.00775862 L4.09399706,9.00775862 Z" fill="#FCDD09"/><path d="M1.61456568,12.0103448 C1.29971072,13.1588914 0.906289011,14.1370966 0.561957587,14.9724384 C-0.33348657,17.1733862 -0.520400655,22.292529 2.7855662,25.9111086 C7.69525387,31.2664405 11.4343972,29.1095017 13.3136743,32.0275862 L13.6972942,32.0275862 C15.5765714,29.1095017 19.3153599,31.2664405 24.2254024,25.9111086 C27.5313692,22.2923079 27.3542874,17.1734414 26.449011,14.9724384 C26.1145118,14.1453897 25.7109842,13.1589466 25.3961495,12.0103448 L1.60514901,12.0103448" fill="#0F47AF"/><path d="M8.52355932,7.95624205 C8.47233845,7.64180207 7.89374205,7.70222854 7.93574508,7.19642455 C7.55093334,7.11864239 7.62264897,6.24666714 8.34093742,6.30635262 C8.41661138,6.13323 9.28481872,5.73698446 9.17985678,6.28464354 C9.6155835,5.80324053 9.93120898,6.24402384 9.68777394,6.45831612 C9.85589108,6.67174234 9.94073721,7.15960596 9.42525495,7.11682462 C9.6225277,7.56171586 9.16448458,7.54513013 8.86026846,7.42075162 C8.86777193,7.5892777 8.84512453,7.72275664 8.67193961,7.68126048 C8.56264498,7.77494526 8.64536904,7.89567664 8.66052575,8.00689655 L8.52355932,7.95624205 L8.52355932,7.95624205 L8.52355932,7.95624205 L8.52355932,7.95624205 Z" fill="#FFFFFF"/><path d="M18.0088318,7.95688456 C18.0139782,7.54793957 17.3905181,7.67278313 17.4137331,7.20703576 C17.0753184,7.14293174 17.1244901,6.27667443 17.8239506,6.32869258 C17.7849942,6.07848647 18.7657799,5.75736983 18.6732573,6.3072691 C19.014896,5.85951928 19.3521427,6.27805005 19.1452434,6.47866055 C19.3154474,6.68928037 19.5220089,7.05141499 18.9216977,7.12852951 C19.1636514,7.41843525 18.657692,7.55120085 18.3497176,7.4284571 C18.3573144,7.59476605 18.2680207,7.65192039 18.092691,7.610974 C17.9820403,7.70342552 18.1321543,7.89713945 18.1475,8.00689655 L18.0088318,7.95690783 L18.0088318,7.95688456 L18.0088318,7.95688456 L18.0088318,7.95688456 L18.0088318,7.95688456 Z" fill="#FFFFFF"/><path d="M23.3444239,9.00775862 C23.4199603,8.81211713 22.6750548,8.82943981 22.6943394,8.60661573 C22.3559361,8.5759475 22.4051023,8.1615254 23.1045478,8.1864013 C23.0655923,8.06670295 23.9756825,7.8659619 23.9146252,8.15730704 C24.2562571,7.94310284 24.6327396,8.16217331 24.4258608,8.25814494 C24.5960612,8.35890745 24.8026133,8.53215685 24.2023232,8.56903728 C24.4442723,8.70773178 23.9383194,8.77124827 23.630338,8.71252605 C23.6379349,8.7920875 23.5957571,8.80529812 23.4204251,8.78571021 C23.3097744,8.82994034 23.5541106,8.93674845 23.5694566,8.98925546 L23.3444239,9.00774279 L23.3444239,9.00775862 L23.3444239,9.00775862 L23.3444239,9.00775862 L23.3444239,9.00775862 Z" fill="#FFFFFF"/><g id="Group" transform="translate(0.000000, 7.006034)"><path d="M20.6761408,7.3257773 C20.8236076,6.46507548 21.4527165,5.67205783 21.5216803,5.00044013 C21.5805677,4.39372427 21.6887728,4.13973831 22.0033323,3.50196269 C22.3178919,2.86134797 22.4454746,2.5650594 22.5144333,2.12198933 C22.6125774,1.54911555 22.9960854,1.42777239 23.1729808,2.01192875 C23.3400735,2.59610214 23.6742587,4.06351981 23.8511744,4.40500686 C24.018267,4.7464712 24.1954257,5.22056697 24.1657339,5.45195369 C24.1362911,5.68335745 24.3919672,5.77084151 24.539429,5.93733774 C24.6868959,6.0925457 24.7065216,6.63155467 25.1390891,7.0943849 C25.5714184,7.55719241 26.0530858,7.88734577 26.4561841,8.11878928 C26.8198131,9.03593242 27.0656672,10.4243663 27.0065265,12.0103448 L0.00384954886,12.0103448 C-0.00596334616,11.5926847 0.00384954886,11.1834851 0.0234804023,10.7883958 C2.42191803,10.0941789 3.31652189,8.31911623 4.32890076,8.4404594 C4.87949632,7.57975759 5.54786688,6.65409714 6.00990335,6.18002408 C6.56024574,5.61844424 7.6415883,3.38061384 7.91688608,2.01188332 C8.19218892,0.657291514 8.59507966,-0.070767512 8.89979587,0.00543395512 C9.20454246,0.0844518104 9.33237846,0.149353656 9.69601762,1.3741077 C10.1975487,3.05883015 10.541557,3.25921389 10.9248068,4.46986328 C11.258992,5.51964922 11.9570848,7.40191631 13.0285537,8.38401808 C13.6969243,7.82243825 14.463677,7.19312883 14.7093032,6.75289785 C14.9159056,6.36628045 15.2304802,5.77085286 15.603907,5.48580713 C15.7709997,4.92422731 15.9871669,3.91958876 16.1643256,3.67690241 C16.3314183,3.45678692 16.4001186,3.23666576 16.4197495,2.85004268 C16.4295639,2.46342527 16.6950523,1.6478538 17.0587017,0.964936483 C17.4225838,0.293318782 17.904241,0.0731749017 18.1203981,0.964936483 C18.3267474,1.85953717 18.8084147,3.73334374 19.2606282,4.90163374 C19.4473517,5.38701778 19.7916284,6.34366985 20.5483049,7.34831408 L20.629998,7.45652357 C20.6453786,7.42645125 20.6607592,7.40394854 20.6761398,7.32573755 C20.6761398,7.32573755 20.6607592,7.40394854 20.6761398,7.32573755 L20.6761408,7.3257773 L20.6761408,7.3257773 L20.6761408,7.3257773 L20.6761408,7.3257773 Z" fill="#509164" id="Shape"/><path d="M0.0411244882,11.5238519 C0.365621272,11.339649 0.866323135,11.4098179 1.05312411,11.6027986 C1.15129885,11.3864322 1.3086408,11.2256149 1.6036633,11.284094 C1.83979824,10.985857 2.0364121,10.8367356 2.17413334,10.985857 C2.31183931,10.6905439 2.77404207,10.6203691 2.93140435,10.804578 C3.09856428,10.506341 3.43287905,10.3689153 3.65893162,10.5297326 C3.95397445,10.0823742 4.47508002,9.92446913 4.78975374,10.152549 C5.06516061,9.91279098 5.37984958,9.95957417 5.51753522,10.1174621 C5.6552412,10.2665836 5.95028403,9.95956888 6.06832862,10.243192 C6.27476048,10.1876381 6.66798314,10.1759411 6.74679139,10.4273949 C6.79588131,10.2899693 6.97285921,10.2081046 7.07128817,10.3133609 C7.07128817,9.78706174 7.39578496,9.38646298 7.84818499,9.51218693 C8.06443483,9.13500331 8.43828084,8.97711591 8.61526891,9.11161171 C8.8020648,8.89524532 9.18548473,9.04436087 9.35260907,9.30751045 C9.716632,9.29581524 9.89358957,9.48878945 10.0803905,9.86597307 C10.2671864,10.2431567 10.808172,10.4712366 11.1523352,10.3016357 C11.496468,10.1525142 11.8111723,10.1057369 11.9292321,10.2899399 C12.1356639,10.0735735 12.3619809,10.1291286 12.499448,10.2782441 C12.7355828,10.518002 12.9616507,10.0940412 13.0993566,10.2548531 C13.3158556,10.5180026 13.5124695,10.0150951 13.8958793,10.2782441 C14.2697201,10.5413937 15.0070756,10.939045 15.5775457,10.939045 C16.1480157,10.939045 16.6003751,10.129105 16.9641641,10.699287 C17.3279328,10.4156697 17.8787465,10.2782441 18.2621614,10.5180079 C18.4884784,10.2782499 19.0095687,10.1993033 19.2159955,10.4273656 C19.4224273,10.0618777 19.8159042,9.84258736 20.1502036,9.96831131 C20.3369996,9.59405164 21.0844119,9.53557264 21.3105154,10.0618777 C21.4975604,10.0618777 21.7923541,10.2548525 21.7923541,10.4946164 C21.9793991,10.4946164 22.274447,10.632042 22.274447,10.8834957 C22.4808788,10.825018 22.7363955,10.9741382 22.7759217,11.2606794 C23.1887803,11.2255926 23.523329,11.4214907 23.71013,11.819142 C23.847836,11.6817223 23.7690378,11.3279302 24.0837167,11.2606794 C24.3983954,11.2022016 24.4968296,11.3162333 24.5851913,11.4419584 C24.9293241,11.1466454 25.4114069,11.1817327 25.8144475,11.6027698 C26.1094904,11.46535 26.3849176,11.5238231 26.4732845,11.6934121 C26.6011725,11.5559925 26.8075993,11.523829 27.014265,11.523829 C27.0240825,12.2986462 26.9649229,13.1436501 26.817402,14.012069 L0.187840028,14.012069 C0.0501391352,13.1670651 -0.00877384518,12.3220613 0.00104922189,11.5443025" fill="#078930" id="Shape"/></g><g fill="#FFFFFF" id="Group" transform="translate(2.424490, 2.001724)"><path d="M10.5524469,0 L10.3147208,0.763857425 L9.50510204,0.763857425 L10.1651021,1.23786672 L9.91858931,2.00172414 L10.5612245,1.52766964 L11.2126554,2.00172414 L10.9661427,1.23786672 L11.6173469,0.781803418 L10.8165239,0.781803418 L10.5700112,0.0179459935" id="Shape"/><path d="M7.25854207,1.00963359 L7.14214105,1.77382183 L6.33673469,1.8932246 L7.07067847,2.2405821 L6.94534232,3.00258621 L7.5181956,2.45113358 L8.24319502,2.80066648 L7.86718196,2.11244275 L8.44897959,1.56968302 L7.64357324,1.68908579 L7.26756018,1.00086207" id="Shape"/><path d="M3.96867449,2.01460275 L3.97796378,3.15905931 L3.16836735,3.52232546 L3.98726122,3.863088 L3.98726122,5.00431034 L4.47101581,4.06237985 L5.28061224,4.40314238 L4.76877362,3.48372196 L5.26206529,2.5546636 L4.45246886,2.92114456 L3.94086985,2.00172414" id="Shape"/><path d="M0.58428041,3.00264763 L0.728104848,3.77017404 L0,4.13649306 L0.817838852,4.23897762 L0.952689889,5.00431034 L1.30338871,4.30654311 L2.1122449,4.40902767 L1.51901887,3.86389703 L1.87869572,3.17266697 L1.15059087,3.53898599 L0.55736484,3.00258621" id="Shape"/><path d="M14.9162108,1.00963359 L15.033094,1.77382183 L15.8418367,1.8932246 L15.1048526,2.2405821 L15.230708,3.00258621 L14.6554816,2.45113358 L13.927479,2.80066648 L14.3048181,2.11244275 L13.7295918,1.56968302 L14.538566,1.68908579 L14.9161367,1.00086207" id="Shape"/><path d="M18.2100458,2.01460275 L18.2007554,3.15905931 L19.0102041,3.52232546 L18.191457,3.863088 L18.191457,5.00431034 L17.7076475,4.06237985 L16.8979592,4.40314238 L17.4098559,3.48372196 L16.9165083,2.5546636 L17.7168981,2.92114456 L18.2285551,2.00172414" id="Shape"/><path d="M21.594355,3.00264763 L21.4505464,3.77017404 L22.1785714,4.13649306 L21.3605908,4.23897762 L21.2259859,5.00431034 L20.8753255,4.30654311 L20.0663265,4.40902767 L20.6597191,3.86389703 L20.3000816,3.17266697 L21.0281066,3.53898599 L21.6212677,3.00258621" id="Shape"/></g><g id="Group" transform="translate(7.705102, 17.914655)"><path d="M8.44897959,7.03400737 L8.54995104,-0.0276920833 C8.54995104,-0.365388194 8.61038219,-0.416718829 8.62045232,-0.0357969211 L8.64059517,7.10689655" fill="#865800" id="Shape"/><path d="M4.44897959,7.03400737 L4.54995104,-0.0276920833 C4.54995104,-0.365388194 4.61038219,-0.416718829 4.62045232,-0.0357969211 L4.64059517,7.10689655" fill="#865800" id="Shape"/><path d="M6.44897959,7.03400737 L6.54995104,-0.0276920833 C6.54995104,-0.365388194 6.61038219,-0.416718829 6.62045232,-0.0357969211 L6.64059517,7.10689655" fill="#865800" id="Shape"/><path d="M4.39435481,0.0235958465 C4.61714039,-0.382134556 5.13070033,0.533362368 5.45047726,0.14843919 C5.2567192,1.46448564 4.48146232,0.429336715 4.39435481,0.918296012 L4.39435481,0.0236063125" fill="#FFFFFF" id="Shape"/><path d="M6.33673469,0.0236272535 C6.55946763,-0.382088907 7.07315577,0.53337588 7.39285714,0.143264591 C7.18922344,1.46449787 6.42382162,0.429343413 6.33673469,0.918296012 L6.33673469,0.0236377195" fill="#FFFFFF" id="Shape"/><path d="M8.44897959,0.21026848 C8.67195708,-0.204017165 9.18540067,0.730783944 9.50510204,0.316496167 C9.30171787,1.66563636 8.53631606,0.608617509 8.44897959,1.10258621 L8.44897959,0.194331863" fill="#FFFFFF" id="Shape"/><path d="M9.51735335,8.03565366 C9.29269468,8.03565366 9.00979845,7.92749702 8.93160865,7.74466595 C8.76567531,7.90689574 8.07267733,7.99702629 7.79928958,7.75496658 C7.61386159,7.91719637 7.03785668,8.02792819 6.74495919,7.83479649 C6.5108021,8.0459543 5.81759294,8.02792819 5.45646165,7.80647026 C5.31001794,7.96612491 4.89017642,8.08715736 4.66576414,8.10775862 C4.34364227,7.63393983 3.47471473,6.87945468 2.92819064,6.59872614 C2.31318134,6.28713715 1.08316273,5.6819801 0.429184237,5.39099238 C0.0483370483,5.2210371 -0.303034344,4.92747423 0.419437915,5.24936385 C1.19062569,5.59185474 2.43039917,6.10429573 3.26982074,6.48797878 C4.47057474,7.03135275 9.26353416,6.95149694 10.0539803,6.87939768 C10.4640669,6.85107146 11.0106111,6.52918132 11.3914533,6.28711125 C11.6843357,6.10428018 11.6940855,6.21500681 11.4109454,6.36694116 C11.0985684,6.53689644 10.756967,6.66822952 10.5127935,7.02104176 C10.1809268,7.49486056 9.72209598,7.70602355 9.54640777,8.01763325" fill="#704D25" id="Shape"/><path d="M9.51735335,8.03565366 C9.29269468,8.03565366 9.00979845,7.92749702 8.93160865,7.74466595 C8.76567531,7.90689574 8.07267733,7.99702629 7.79928958,7.75496658 C7.61386159,7.91719637 7.03785668,8.02792819 6.74495919,7.83479649 C6.5108021,8.0459543 5.81759294,8.02792819 5.45646165,7.80647026 C5.31001794,7.96612491 4.89017642,8.08715736 4.66576414,8.10775862 C4.34364227,7.63393983 3.47471473,6.87945468 2.92819064,6.59872614 C2.31318134,6.28713715 1.08316273,5.6819801 0.429184237,5.39099238 C0.0483370483,5.2210371 -0.303034344,4.92747423 0.419437915,5.24936385 C1.19062569,5.59185474 2.43039917,6.10429573 3.26982074,6.48797878 C4.47057474,7.03135275 9.26353416,6.95149694 10.0539803,6.87939768 C10.4640669,6.85107146 11.0106111,6.52918132 11.3914533,6.28711125 C11.6843357,6.10428018 11.6940855,6.21500681 11.4109454,6.36694116 C11.0985684,6.53689644 10.756967,6.66822952 10.5127935,7.02104176 C10.1809268,7.49486056 9.72209598,7.70602355 9.54640777,8.01763325 L9.51716931,8.03565937 L9.51735335,8.03565366 L9.51735335,8.03565366 L9.51735335,8.03565366 L9.51735335,8.03565366 Z" fill="#704D25" id="Shape"/><path d="M9.42219708,1.33302238 L7.72259382,1.10258621 C7.42322512,1.73543102 7.38053682,2.52646281 7.54089462,3.08023489 C8.08599771,2.43363228 9.06948039,2.77069139 9.56122449,3.10431034 C9.40086669,2.54025452 9.15486249,1.7766968 9.43288429,1.34680024" fill="#FFFFFF" id="Shape"/><path d="M9.34985503,3.12480824 C8.93632105,3.13701429 7.95038365,3.10344828 7.6420855,3.10344828 C7.3076507,3.68627473 7.49244822,4.56817389 7.57177411,4.90377878 C7.94136007,4.10430727 9.11231264,4.53150049 9.56122449,5.10517241 C9.3322613,4.51929445 9.15625612,4.01884653 9.35885139,3.11561134" fill="#FFFFFF" id="Shape"/><path d="M10.5499262,5.32954203 C10.027488,5.25915017 8.34678117,5.17336452 8.00603134,5.10517241 C7.73332618,5.53411393 7.50626688,6.09284486 7.39285714,6.62737859 C8.21036424,5.94767051 10.1070977,6.44700389 10.5045319,7.10689655 C10.1071035,6.53938877 9.70937098,5.68148803 10.5612245,5.32952875" fill="#FFFFFF" id="Shape"/><path d="M7.38474381,1.37548821 L5.68044268,1.10172414 C5.43717652,1.44581422 5.25851603,2.05362179 5.28282676,2.75935819 C5.63993455,2.34745879 6.94641493,2.5132222 7.27922452,3.10344828 C7.16559192,2.46548077 7.01954778,1.66180544 7.39285714,1.36541131" fill="#FFFFFF" id="Shape"/><path d="M8.35611389,3.38026116 L5.64692191,3.10344828 C5.2168206,3.52438468 5.24003403,4.12147306 5.34451245,4.75743934 C5.96096203,4.36395591 7.97213401,4.57899962 8.44897959,5.10517241 C8.15847631,4.33649834 7.91410642,3.88125033 8.3677206,3.38024735" fill="#FFFFFF" id="Shape"/><path d="M8.44897959,5.33132555 L5.88169541,5.10517241 C5.48098795,5.53823119 5.21006472,5.98089435 5.29682934,6.62812499 C5.69753682,6.05554129 7.39826284,6.46933807 8.123961,7.10689655 C7.69080747,6.60886298 7.64726893,5.89434359 8.44896285,5.33134491" fill="#FFFFFF" id="Shape"/><path d="M3.94830406,1.10172414 C3.66660074,1.25785773 3.23352944,1.79831399 3.16836735,1.94645261 C3.64499348,1.80633313 4.6523113,1.76629784 5.28061224,2.10258621 C5.09650702,1.84436262 5.0313505,1.39197998 5.19382615,1.20380606 C4.94483778,1.12573725 4.28412316,1.085706 3.95914953,1.10972717" fill="#FFFFFF" id="Shape"/><path d="M3.8957239,2.58041673 C4.50736127,2.57069992 5.76043547,2.71402467 6.30204158,2.85492549 C5.98119923,3.31162869 6.02123996,4.08899292 6.1516293,4.57241379 C5.31951738,3.79503001 3.94579935,3.81448416 3.13367423,4.04285042 C3.28408652,3.69060328 3.65498368,2.95938155 3.88573566,2.57068966" fill="#FFFFFF" id="Shape"/><path d="M6.33673469,4.76541841 C5.74508508,4.78871658 4.23125534,4.49166389 3.53925873,4.10431034 C3.29875647,4.84405758 3.1883851,6.07304354 3.16836735,6.51569647 C3.84006732,5.49350455 5.4845599,6.06137658 6.00586849,7.10689655 C5.95581739,6.55065046 5.77512204,5.18480775 6.3367192,4.75375732" fill="#FFFFFF" id="Shape"/><path d="M4.2244898,1.11199993 C2.67285059,2.11541287 1.49542459,4.14026012 1.05612245,5.54401583 C1.49541496,5.53375037 2.04665849,5.68516079 2.24312885,6.10603448 C2.70108147,4.0889328 3.34588553,2.22576144 4.2244898,1.10172414" fill="#FFFFFF" id="Shape"/></g></g><g id="Shape" stroke="#000000" stroke-width="0.1" transform="translate(5.286735, 0.000000)"><g fill="#89C5E3" transform="translate(0.912245, 0.051724)"><path d="M15.039082,4.72840568 C15.9307875,5.83124403 17.2178147,5.98880732 19.477773,5.98880732 C20.896609,5.98880732 22.0418048,5.97880407 22.882875,5.98880732 C22.882875,6.27139559 22.7915538,6.574005 22.7915538,6.9265993 C22.7915538,7.26670785 23.1464611,7.42425544 23.663266,7.30671877 C24.1800658,7.1891821 25.2847482,6.85657757 25.8825072,7.38424452 C26.8860283,8.28451644 28.7303584,8.43956793 29.2268988,9.00723533 C29.0748673,8.3220365 28.4262849,7.62930226 27.7068443,7.05163998 C28.3857766,6.95410878 29.267355,7.02413156 29.5714286,7.2567025 C28.8009349,6.41948728 27.4024574,6.39944519 26.6930395,5.98934108 C25.9836215,5.57918464 25.3044803,5.21659546 24.7777675,5.07907427 C24.7777675,4.84650227 24.747154,4.65894388 24.5445314,4.52391356 C24.0985585,4.21131448 23.2271229,4.10378317 22.5178093,4.06377224 C22.6189913,3.95624092 22.6392246,3.82869891 22.6392246,3.63363651 L22.6392246,2.53079815 C22.6392246,2.14817735 22.6799564,2.05065138 22.2441013,1.77804229 C20.5619088,0.742708645 18.5147237,0 14.785555,0 C11.0662524,0 9.01885858,0.732713764 7.3270089,1.77804229 C6.88103607,2.05062522 6.93188553,2.14815641 6.93188553,2.53079815 L6.93188553,3.63363651 C6.93188553,3.82869891 6.94200374,3.95623569 7.05330093,4.06377224 C6.34398734,4.09378148 5.48266308,4.20131436 5.02657882,4.52391356 C4.83407546,4.65895434 4.79334787,4.83651263 4.79334787,5.07907427 C4.27654809,5.20661628 3.59762098,5.56922639 2.8781803,5.98934108 C2.16860571,6.39946612 0.770284905,6.41947682 0,7.25722579 C0.293941263,7.0246538 1.17552493,6.94462672 1.85445726,7.05216327 C1.14514366,7.61983067 0.496592593,8.31256491 0.334402623,9.00775862 C0.830963895,8.44009122 2.67527319,8.28503973 3.68892135,7.38476781 C4.27655331,6.85707993 5.38124084,7.17970529 5.90816249,7.30724206 C6.42495705,7.42477873 6.77987484,7.27723282 6.77987484,6.92712259 C6.77987484,6.5745126 6.68855359,6.27190841 6.68855359,5.98933062 C7.51954881,5.96932411 8.66469248,5.98933062 10.0936555,5.98933062 C12.3434868,5.98933062 13.6305662,5.83178303 14.5323466,4.72892898 C14.0357854,4.60138697 14.1271066,3.7211205 14.2080502,3.38103288 C13.1542069,3.14595955 12.6272853,2.74586079 11.7758271,2.74586079 C10.9347569,2.74586079 10.7826941,3.19350065 10.7826941,3.36104313 L10.7826941,3.49858524 C10.1138888,3.49858524 9.17133907,3.33103232 8.93836391,2.890886 C10.2355705,2.36319813 12.1610739,1.88558932 14.8058092,1.88558932 C17.4507534,1.88558932 19.376309,2.36323998 20.6732545,2.890886 C20.4402794,3.33102185 19.4977296,3.49858524 18.8289244,3.49858524 L18.8289244,3.36104313 C18.8289244,3.20349554 18.6870147,2.74586079 17.8357914,2.74586079 C16.9845681,2.74586079 16.4574115,3.13598037 15.4035683,3.38103288 C15.4342054,3.71061279 15.5255266,4.60087937 15.039082,4.72840568 Z"/></g><g fill="#FFFFFF" transform="translate(0.000000, 10.259483)"><path d="M15.8421274,1.1951607 C16.3122847,1.1951607 16.7122854,1.1951607 17.0024238,1.15512638 L17.0024238,0.455872515 C17.0024238,0.226344754 17.7826703,-0.0458868468 18.9629585,0.194316874 C23.5843588,1.13377984 24.2144092,3.31166486 27.7258532,4.56335131 C27.7658007,4.57402726 27.8958864,4.61673057 28.0459485,4.64608999 C28.1360868,4.42723819 28.235958,4.20838639 28.3460675,3.93883453 C28.4059913,3.73866566 28.9163487,3.74934161 29.3662669,3.96819287 C29.8866201,4.22974852 30.1165771,4.53136586 30.0266656,4.68882015 C29.9365275,4.91834791 29.8463892,5.1051772 29.7664942,5.29200112 C30.5867242,5.5962606 32.0770398,6.05532149 31.5869318,8.10775862 C31.2069128,7.72342945 30.2865898,7.30443025 29.7165663,7.30443025 C29.0663695,7.30443025 28.3660386,7.0455436 28.5862575,6.30358589 C28.4661574,6.24219912 28.255919,6.12743793 28.1460621,6.10608601 C28.1260882,6.17014176 28.0961273,6.23152316 28.0659093,6.29290993 C27.9158473,6.6799081 27.2656711,6.81602121 26.6154744,6.58649344 C22.9543497,5.2840586 21.8240408,2.40428831 17.5027234,2.3642266 L17.5027234,2.48966913 C17.5027234,2.85264639 17.0525425,3.1862379 15.8423232,3.1862379 C14.641837,3.1862379 14.1819229,2.85261954 14.1819229,2.48966913 L14.1819229,2.3642266 C9.87065289,2.39358496 8.73003903,5.2733719 5.06917195,6.58649344 C4.42897106,6.81602121 3.7788258,6.66923214 3.61873693,6.29290993 C3.59850813,6.23152316 3.56854621,6.1701364 3.53858429,6.10608601 C3.42846974,6.12743739 3.218489,6.24219912 3.09838886,6.30358589 C3.30862723,7.03489986 2.62823666,7.30443025 1.96808004,7.30443025 C1.39805651,7.30443025 0.487708874,7.7234563 0.0977144623,8.10775862 C-0.392414066,6.0660082 1.07798183,5.60696342 1.91815211,5.29200112 C1.83799947,5.1051772 1.75810446,4.91834791 1.65798065,4.68882015 C1.57808563,4.53135511 1.79805197,4.22976462 2.3181218,3.96819287 C2.76830283,3.73866511 3.26840148,3.72798915 3.33857884,3.93883453 C3.44869339,4.19772117 3.53857399,4.41657297 3.6386978,4.64608999 C3.78875987,4.61673165 3.90860238,4.57402726 3.9587931,4.56335131 C7.45988046,3.31161115 8.10002983,1.13377984 12.7211724,0.194316874 C13.8916709,-0.0458868468 14.6819648,0.226344216 14.6819648,0.455872515 L14.6819648,1.15512638 C14.9720982,1.18448474 15.3720936,1.1951607 15.8422613,1.1951607 C15.8422613,1.1951607 15.3720936,1.1951607 15.8422613,1.1951607 L15.8421274,1.1951607 L15.8421274,1.1951607 L15.8421274,1.1951607 L15.8421274,1.1951607 Z"/></g></g></g></g></g></g></g></svg>