<?xml version="1.0" ?><svg height="180px" version="1.1" viewBox="0 0 180 180" width="180px" xmlns="http://www.w3.org/2000/svg" xmlns:sketch="http://www.bohemiancoding.com/sketch/ns" xmlns:xlink="http://www.w3.org/1999/xlink"><title/><desc/><defs/><g fill="none" fill-rule="evenodd" id="Page-1" stroke="none" stroke-width="1"><g id="Material" transform="translate(-180.000000, -180.000000)"><g id="Slice" transform="translate(180.000000, 180.000000)"/><g id="circle_cyprus" transform="translate(180.000000, 180.000000)"><circle cx="90" cy="90" fill="#FFFFFF" id="Oval-1-copy-3" r="90"/><g id="Shape-+-Shape" transform="translate(33.000000, 40.000000)"><path d="M55.3796296,99.8433633 C55.3006052,99.7698485 55.1696296,99.639898 54.993776,99.4366801 C54.6688979,99.0621752 54.2330443,98.5139079 53.8498735,98.0295019 C53.0901174,97.0683633 52.4623126,96.240393 52.3440199,96.0844524 L52.1506052,95.8290069 L51.9571906,96.0844524 C51.8388979,96.2408881 51.2103613,97.0693534 50.451093,98.0295019 C50.0681662,98.5139079 49.6320687,99.0621752 49.3074345,99.4364326 C49.131337,99.6396504 49.0006052,99.7698485 48.9215809,99.8431158 C48.9215809,99.8431158 48.8498735,99.9121752 48.8220687,99.9257891 C48.8220687,99.9257891 48.7267028,99.764898 48.6930443,99.715393 C48.6379223,99.6344524 48.5574345,99.5342049 48.4659711,99.4329673 C48.427357,99.3902084 47.9435772,98.9097427 47.7645077,98.7443534 C47.2652394,98.2837098 46.7628004,97.8594524 46.7579223,97.854997 L50.256215,95.2361851 L48.8730443,94.5817296 L49.6120687,93.7386603 L52.1506052,94.8416306 L54.6891418,93.7386603 L55.4281662,94.5817296 L54.0449955,95.2361851 L57.5481662,97.8510366 C57.5384101,97.8592049 57.0359711,98.2834623 56.5367028,98.7441059 C56.3140199,98.9495514 56.0332882,99.2134128 55.8349955,99.4329673 C55.7435321,99.5339574 55.6630443,99.6342049 55.6081662,99.7151455 C55.5745077,99.764898 55.5201174,99.9260366 55.5201174,99.9260366 C55.4508491,99.9116801 55.3796296,99.8433633 55.3796296,99.8433633 Z M61.8191418,95.9676207 C59.1603613,95.9676207 57.3491418,94.7567296 57.2901174,94.7166306 C59.5998735,93.6045019 61.6001174,93.0406405 63.2349955,93.0406405 L63.2632882,93.0406405 C64.6430443,93.0460861 65.4969467,93.4678683 65.9706052,93.8203435 C66.4454833,94.1740564 66.653776,94.5515316 66.6735321,94.5886603 L66.671337,94.589898 C65.1054833,95.5057395 63.473776,95.9686108 61.8201174,95.9686108 L61.8201174,95.9686108 L61.8191418,95.9676207 L61.8191418,95.9676207 L61.8191418,95.9676207 L61.8191418,95.9676207 Z M47.3834146,94.7166306 C45.0736585,93.6045019 43.0734146,93.0406405 41.4385366,93.0406405 L41.4102439,93.0406405 C40.0304878,93.0460861 39.1765854,93.4678683 38.7029268,93.8203435 C38.2280488,94.1740564 38.0197561,94.5515316 38,94.5886603 C39.5680488,95.5057395 41.1997561,95.9686108 42.8534146,95.9686108 C45.5131707,95.9676207 47.3243902,94.7567296 47.3834146,94.7166306 C47.3834146,94.7166306 47.3243902,94.7567296 47.3834146,94.7166306 L47.3834146,94.7166306 L47.3834146,94.7166306 Z M68.9801174,94.3562346 C68.7125565,94.3562346 68.4830443,94.2191059 68.4084101,94.014898 C68.3352394,93.8146504 68.3579223,93.5592049 68.4752394,93.255492 C68.6693857,92.7547494 69.1208491,92.2285118 69.6930443,92.1819772 C69.7040199,92.1809871 69.7154833,92.1807395 69.7269467,92.1807395 L69.8045077,92.1827197 C69.9274345,92.18569 70.0588979,92.2161356 70.1854833,92.2703435 L70.1854833,92.270591 C70.1854833,92.2718287 70.228654,92.7913831 70.0998735,93.3141554 C70.0245077,93.6188584 69.911337,93.8517792 69.7530443,94.0265316 C69.5603613,94.2394029 69.2871906,94.3582148 68.9798735,94.3582148 L68.9798735,94.3582148 L68.9801174,94.3562346 L68.9801174,94.3562346 L68.9801174,94.3562346 L68.9801174,94.3562346 Z M35.3215809,94.3562346 C35.0159711,94.3562346 34.741337,94.2389079 34.5484101,94.0262841 C34.3901174,93.8515316 34.2767028,93.6188584 34.2015809,93.3139079 C34.078654,92.8144029 34.1125565,92.3176207 34.1159711,92.270096 C34.2442638,92.215393 34.3749955,92.1854425 34.4969467,92.1824722 L34.5242638,92.1819772 C35.1367028,92.1819772 35.6193857,92.7210861 35.826215,93.255492 C35.9435321,93.5592049 35.966215,93.8146504 35.8930443,94.0146504 C35.8198735,94.2151455 35.5906052,94.3537593 35.3223126,94.3537593 L35.3223126,94.3537593 L35.3215809,94.3562346 L35.3215809,94.3562346 L35.3215809,94.3562346 L35.3215809,94.3562346 Z M56.3752394,92.8710861 C59.148654,87.5433633 62.0296296,86.9681158 63.1396296,86.9681158 C63.513776,86.9698485 63.7623126,87.029997 63.8071906,87.0418782 L63.8098735,87.055492 C63.8098735,87.0569772 63.976215,88.2359376 63.1657272,89.5104425 C62.4057272,90.705492 60.611093,92.2589574 56.3771906,92.8725712 L56.3740199,92.8730663 L56.3752394,92.8710861 L56.3752394,92.8710861 L56.3752394,92.8710861 L56.3752394,92.8710861 Z M47.9264589,92.8735613 C43.6925565,92.2599475 41.8979223,90.7064821 41.1379223,89.5114326 C40.3274345,88.2369277 40.493776,87.0579673 40.4954833,87.0460861 L40.496215,87.0426207 L40.4993857,87.0416306 C40.5006052,87.0416306 40.7581662,86.9710861 41.1476784,86.9691059 C42.2740199,86.9691059 45.1549955,87.5441059 47.9276784,92.870591 L47.9293857,92.8740564 L47.9245077,92.8715811 L47.9264589,92.8735613 L47.9264589,92.8735613 L47.9264589,92.8735613 L47.9264589,92.8735613 Z M65.0557272,92.0220762 C64.2130443,92.0218287 63.2671906,91.9517792 62.2449955,91.8134128 L62.2432882,91.8131653 L62.2445077,91.8119277 C64.488654,89.605492 66.6145077,89.1426207 68.0028004,89.1426207 C68.111337,89.1428683 68.2054833,89.1458386 68.2988979,89.1500465 C69.4025565,89.2025217 70.1425565,89.5354425 70.1930443,89.5584623 C70.1906052,89.5834623 70.1674345,89.7985613 70.0479223,90.0592049 C69.9254833,90.3270267 69.6703613,90.7213336 69.1488979,91.0802445 C68.2415809,91.7047494 66.8645077,92.0218287 65.056215,92.0218287 L65.053776,92.0243039 L65.0557272,92.0220762 L65.0557272,92.0220762 L65.0557272,92.0220762 L65.0557272,92.0220762 Z M39.2484101,92.0220762 C37.4396296,92.0218287 36.0625565,91.7052445 35.1552394,91.080492 C34.633776,90.7215811 34.378654,90.3272742 34.256215,90.0594524 C34.1415809,89.8084623 34.1154833,89.6000465 34.111337,89.5587098 C34.1591418,89.5364326 34.8996296,89.2027693 36.0052394,89.150294 C36.098654,89.1458386 36.1928004,89.1431158 36.2915809,89.1428683 C37.6896296,89.1428683 39.8154833,89.6057395 42.0588979,91.8111851 L42.061093,91.8134128 L42.0584101,91.8136603 C41.0340199,91.949799 40.0876784,92.0215811 39.246215,92.0215811 L39.246215,92.0215811 L39.2484101,92.0220762 L39.2484101,92.0220762 L39.2484101,92.0220762 L39.2484101,92.0220762 Z M73.6654833,91.680492 C72.6284101,91.6639079 71.8942638,91.4958386 71.4840199,91.1812346 C71.2901174,91.0324722 71.193776,90.8337098 71.2264589,90.6490564 C71.2657272,90.4277693 71.4393857,90.2022742 71.7576784,89.960195 C72.6269467,89.2985613 73.9152394,88.9483138 75.5867028,88.9191059 C75.693776,88.9171257 75.8025565,88.9158881 75.9101174,88.9158881 C76.0030443,88.9158881 76.0954833,88.9168782 76.1864589,88.9191059 C78.1818248,88.9681158 79.9552394,89.4250465 79.9728004,89.4295019 L79.9771906,89.430492 L79.9732882,89.4346999 C78.341337,91.0908881 75.7208491,91.6817296 73.8135321,91.6817296 L73.6671906,91.6817296 L73.6654833,91.680492 L73.6654833,91.680492 L73.6654833,91.680492 L73.6654833,91.680492 Z M30.4898735,91.680492 C28.5825565,91.680492 25.9623126,91.0894029 24.3281662,89.4312346 L24.3264589,89.4292544 L24.331337,89.4280168 C24.3484101,89.4235613 26.1220687,88.9668782 28.1174345,88.9176207 C28.2364589,88.9146504 28.356215,88.9129178 28.4771906,88.9129178 C30.2654833,88.9129178 31.6342638,89.264898 32.5459711,89.9587098 C32.8642638,90.2010366 33.0381662,90.4265316 33.0771906,90.6475712 C33.1098735,90.8322247 33.013776,91.0312346 32.8196296,91.1797494 C32.4091418,91.4943534 31.6752394,91.6621752 30.6379223,91.6790069 L30.4915809,91.6839574 L30.4898735,91.680492 L30.4898735,91.680492 L30.4898735,91.680492 L30.4898735,91.680492 Z M79.9947516,88.4626702 C79.7706052,88.4626702 79.6040199,88.3109376 79.5557272,88.1609376 C79.496215,87.9770267 79.5103613,87.7636603 79.5996296,87.5087098 C79.686215,87.2611851 79.8323126,87.0287593 80.011337,86.8540069 C80.1454833,86.7230663 80.361093,86.5668782 80.6242638,86.5668782 C80.7523126,86.5703435 80.8525565,86.5931158 80.9403613,86.6354425 C80.9420687,86.6599475 80.9698735,87.099799 80.8696296,87.5490564 C80.808654,87.8228188 80.7225565,88.0210861 80.5993857,88.1733138 C80.4506052,88.3540069 80.228654,88.4604425 79.9945077,88.4604425 L79.9945077,88.4604425 L79.9947516,88.4626702 L79.9947516,88.4626702 L79.9947516,88.4626702 L79.9947516,88.4626702 Z M24.3093857,88.4626702 C24.0745077,88.4626702 23.8540199,88.3572247 23.7047516,88.1738089 C23.581337,88.0218287 23.4954833,87.8233138 23.4345077,87.5495514 C23.3325565,87.0921257 23.3632882,86.6446009 23.3635321,86.6401455 L23.363776,86.63569 C23.4525565,86.5931158 23.5518248,86.5703435 23.6606052,86.5676207 L23.661337,86.5676207 C23.9435321,86.5676207 24.158654,86.7235613 24.2928004,86.8542544 C24.4715809,87.0287593 24.6179223,87.2614326 24.7045077,87.5089574 C24.7935321,87.7639079 24.8079223,87.9772742 24.7484101,88.1611851 C24.6996296,88.3072247 24.533776,88.46069 24.3093857,88.46069 L24.3093857,88.46069 L24.3093857,88.4626702 L24.3093857,88.4626702 L24.3093857,88.4626702 L24.3093857,88.4626702 Z M65.7191418,88.1359376 C65.4515809,88.1359376 65.2220687,87.9988089 65.1474345,87.7946009 C65.0742638,87.5943534 65.0969467,87.3389079 65.2142638,87.035195 C65.4084101,86.5344524 65.8598735,86.0082148 66.4320687,85.9616801 C66.4430443,85.96069 66.4545077,85.9604425 66.4659711,85.9604425 L66.5435321,85.9624227 C66.6664589,85.965393 66.7979223,85.9958386 66.9245077,86.0500465 L66.9245077,86.050294 C66.9245077,86.0515316 66.9676784,86.5710861 66.8388979,87.0938584 C66.7635321,87.3985613 66.6503613,87.6314821 66.4920687,87.8062346 C66.2993857,88.0191059 66.023776,88.1354425 65.7188979,88.1354425 L65.7188979,88.1354425 L65.7191418,88.1359376 L65.7191418,88.1359376 L65.7191418,88.1359376 L65.7191418,88.1359376 Z M38.5849955,88.1359376 C38.2793857,88.1359376 38.0047516,88.0186108 37.8118248,87.8059871 C37.6535321,87.6312346 37.5401174,87.3985613 37.4649955,87.0936108 C37.3420687,86.5941059 37.3759711,86.0973237 37.3793857,86.049799 C37.5076784,85.995096 37.6384101,85.9651455 37.7603613,85.9621752 L37.7876784,85.9616801 C38.4001174,85.9616801 38.8828004,86.5007891 39.0896296,87.035195 C39.2069467,87.3389079 39.2296296,87.5943534 39.1564589,87.7943534 C39.0832882,87.9973237 38.8515809,88.1334623 38.5857272,88.1334623 L38.5857272,88.1334623 L38.5849955,88.1359376 L38.5849955,88.1359376 L38.5849955,88.1359376 L38.5849955,88.1359376 Z M31.631337,87.8438584 C27.7930443,87.7067296 25.801093,86.5995514 24.8059711,85.6946009 C24.2457272,85.185195 23.9342638,84.6802445 23.7718248,84.3463336 C23.618654,84.0309871 23.5606052,83.7896504 23.5503613,83.7428683 L23.5554833,83.7406405 C23.556215,83.7406405 23.918654,83.6089574 24.5030443,83.5973237 L24.5928004,83.5963336 C25.8871906,83.5963336 28.5223126,84.1480663 31.6298735,87.8421257 L31.6298735,87.8446009 L31.631337,87.8438584 L31.631337,87.8438584 L31.631337,87.8438584 L31.631337,87.8438584 Z M72.6728004,87.8413831 C75.6874345,84.2574722 78.2642638,83.6433633 79.5318248,83.5960861 C79.5696296,83.5948485 79.6071906,83.5941059 79.643776,83.5941059 C79.6954833,83.5941059 79.7459711,83.5953435 79.7942638,83.5960861 C80.3603613,83.6074722 80.7169467,83.7292544 80.7530443,83.7421257 L80.7530443,83.7428683 C80.7528004,83.7428683 80.6993857,83.9995514 80.531337,84.345591 C80.3688979,84.6795019 80.0579223,85.1844524 79.4974345,85.6938584 C78.5020687,86.5988089 76.5096296,87.7062346 72.6718248,87.8431158 L72.6742638,87.8406405 L72.6728004,87.8413831 L72.6728004,87.8413831 L72.6728004,87.8413831 L72.6728004,87.8413831 Z M35.7996296,87.450294 C32.7115809,86.9730663 30.9620687,85.6277693 30.0381662,84.5827197 C29.0696296,83.4874227 28.7796296,82.4673732 28.7667028,82.4198485 C28.7723126,82.4181158 29.1496296,82.3183633 29.7179223,82.3037593 C29.7591418,82.3025217 29.8020687,82.3020267 29.8457272,82.3020267 C29.8898735,82.3020267 29.9347516,82.3025217 29.9806052,82.3037593 C31.533776,82.3381653 34.3547516,83.0520267 35.7988979,87.4485613 L35.801337,87.4485613 L35.7996296,87.450294 L35.7996296,87.450294 L35.7996296,87.450294 L35.7996296,87.450294 Z M68.5045077,87.450294 C69.9488979,83.0522742 72.7698735,82.3384128 74.3228004,82.3040069 C74.368654,82.3027693 74.413776,82.3022742 74.4579223,82.3022742 C74.5018248,82.3022742 74.5442638,82.3027693 74.5859711,82.3040069 C75.1540199,82.3186108 75.5315809,82.4183633 75.5352394,82.4196009 L75.5374345,82.420096 C75.5349955,82.4287593 75.2528004,83.4668782 74.2657272,84.5829673 C73.3388979,85.6275217 71.5901174,86.9740564 68.5023126,87.4493039 C68.5023126,87.4493039 71.5901174,86.9740564 68.5023126,87.4493039 L68.5045077,87.450294 L68.5045077,87.450294 L68.5045077,87.450294 L68.5045077,87.450294 Z M84.3581662,85.9453435 C82.6401174,85.9453435 81.4154833,85.5978188 81.4032882,85.5941059 L81.4003613,85.5933633 L81.403776,85.5879178 C81.4147516,85.5715811 82.7474345,83.6030168 85.3171906,83.0814821 C85.9891418,82.945096 86.6920687,82.8760366 87.4057272,82.8760366 C87.4652394,82.8760366 87.5242638,82.8765316 87.5825565,82.8775217 C89.0615809,82.9005415 90.1306052,83.2052445 90.141337,83.2084623 L90.1442638,83.2191059 C90.143776,83.2191059 90.156215,83.3319772 90.1349955,83.474799 C90.1132882,83.6186108 90.0518248,83.8443534 89.8832882,84.1017792 C89.5859711,84.5552445 88.8923126,85.1819772 87.2759711,85.5921257 C86.3564589,85.8272742 85.3759711,85.9460861 84.363776,85.9460861 L84.363776,85.9460861 L84.3581662,85.9453435 L84.3581662,85.9453435 L84.3581662,85.9453435 L84.3581662,85.9453435 Z M19.9459711,85.9453435 C18.9340199,85.9453435 17.9523126,85.8265316 17.0284101,85.5921257 C15.4115809,85.1817296 14.7179223,84.5552445 14.4208491,84.1017792 C14.2520687,83.8443534 14.1908491,83.6186108 14.1693857,83.4745514 C14.148654,83.3369277 14.1596296,83.2272742 14.1618248,83.2089574 L14.1693857,83.2062346 C14.1735321,83.2052445 15.2425565,82.9005415 16.7215809,82.8775217 C16.7798735,82.8765316 16.838654,82.8760366 16.8984101,82.8760366 C17.6123126,82.8760366 18.3149955,82.945096 18.9871906,83.0814821 C21.5569467,83.6030168 22.8896296,85.5715811 22.9025565,85.5913831 L22.903776,85.5936108 L22.9006052,85.5943534 C22.8859711,85.5968287 21.6615809,85.9458386 19.9445077,85.9458386 L19.9445077,85.9458386 L19.9459711,85.9453435 L19.9459711,85.9453435 L19.9459711,85.9453435 L19.9459711,85.9453435 Z M77.1898735,83.3017792 C76.9232882,83.3017792 76.7018248,83.1676207 76.6259711,82.960195 C76.5508491,82.7557395 76.5708491,82.5030168 76.6852394,82.2092049 C76.8798735,81.7082148 77.3315809,81.1819772 77.9030443,81.135195 C77.9140199,81.1342049 77.9254833,81.1339574 77.9369467,81.1339574 L78.0145077,81.1359376 C78.1376784,81.1389079 78.2693857,81.1693534 78.3954833,81.2235613 L78.3954833,81.2238089 C78.3954833,81.2255415 78.438654,81.7389079 78.3098735,82.2594524 C78.2325565,82.5728188 78.1191418,82.8082148 77.9632882,82.9792544 C77.7730443,83.1896504 77.4998735,83.3035118 77.1901174,83.3035118 L77.1901174,83.3035118 L77.1898735,83.3017792 L77.1898735,83.3017792 L77.1898735,83.3017792 L77.1898735,83.3017792 Z M27.1142638,83.3017792 C26.8047516,83.3017792 26.5301174,83.1871752 26.3406052,82.9790069 C26.1847516,82.8079673 26.071337,82.5723237 25.9942638,82.2592049 C25.8708491,81.7604425 25.9052394,81.2686108 25.908654,81.2233138 C26.0369467,81.1686108 26.1676784,81.1386603 26.2896296,81.13569 L26.3169467,81.135195 C26.9281662,81.135195 27.4115809,81.6745514 27.6191418,82.2089574 C27.7332882,82.5030168 27.7532882,82.755492 27.6784101,82.9599475 C27.6028004,83.1678683 27.3808491,83.3015316 27.1149955,83.3015316 L27.1149955,83.3015316 L27.1142638,83.3017792 L27.1142638,83.3017792 L27.1142638,83.3017792 L27.1142638,83.3017792 Z M21.7240199,82.5517792 C21.7008491,82.5460861 20.266215,82.1715811 18.8052394,81.2584623 C17.4530443,80.4136603 15.7988979,78.9193534 15.5971906,76.5975712 L15.5971906,76.5963336 L15.6006052,76.5953435 C15.6008491,76.5953435 15.7264589,76.5644029 15.9123126,76.5572247 C15.9379223,76.5562346 15.9652394,76.5557395 15.993776,76.5557395 C16.3976784,76.5557395 17.2245077,76.6710861 18.2247516,77.4428683 C19.4979223,78.4280168 20.6735321,80.1458386 21.7247516,82.5542544 C21.7247516,82.5542544 20.6735321,80.1458386 21.7247516,82.5542544 L21.7240199,82.5517792 L21.7240199,82.5517792 L21.7240199,82.5517792 L21.7240199,82.5517792 Z M82.5801174,82.5517792 C83.6301174,80.1436108 84.8071906,78.4250465 86.0796296,77.4428683 C86.9801174,76.7475712 87.7371906,76.5775217 88.2135321,76.5572247 C88.2432882,76.5559871 88.271337,76.555492 88.2984101,76.555492 C88.3315809,76.555492 88.3630443,76.5562346 88.3930443,76.5572247 C88.5771906,76.5644029 88.7025565,76.5948485 88.7074345,76.5963336 L88.7071906,76.6010366 C88.5054833,78.9196009 86.8515809,80.4139079 85.4993857,81.2584623 C84.0408491,82.1668782 82.6091418,82.5431158 82.5774345,82.5505415 C82.5774345,82.5505415 82.6091418,82.5431158 82.5774345,82.5505415 L82.5801174,82.5517792 L82.5801174,82.5517792 L82.5801174,82.5517792 L82.5801174,82.5517792 Z M25.2435321,82.420591 C25.2345077,82.4168782 24.2120687,82.0015316 22.9340199,80.9146504 C21.7432882,79.9017792 20.0691418,78.0780168 18.8569467,75.139898 C18.8576784,75.1396504 19.1354833,74.9894029 19.5608491,74.9621752 C19.5854833,74.9604425 19.6103613,74.9599475 19.6354833,74.9599475 C19.6720687,74.9599475 19.7098735,74.9611851 19.7484101,74.9621752 C20.3364589,74.9790069 21.2320687,75.2270267 22.2249955,76.3144029 C23.3654833,77.5636603 24.3835321,79.6163831 25.2503613,82.4161356 L25.2528004,82.4240564 L25.2454833,82.4215811 L25.2435321,82.420591 L25.2435321,82.420591 L25.2435321,82.420591 L25.2435321,82.420591 Z M79.0557272,82.4131653 C79.921337,79.6173732 80.9393857,77.5644029 82.0798735,76.3151455 C83.0725565,75.2277693 83.9684101,74.9797494 84.5449955,74.9634128 C84.5952394,74.9619277 84.6325565,74.96069 84.6693857,74.96069 C84.6947516,74.96069 84.7191418,74.9611851 84.7435321,74.9629178 C85.1508491,74.9886603 85.4225565,75.1272742 85.4481662,75.1408881 C84.2352394,78.0790069 82.5618248,79.9027693 81.3708491,80.915393 C80.0930443,82.0022742 79.0703613,82.4176207 79.0603613,82.4218287 L79.0520687,82.4250465 L79.0545077,82.4126702 L79.0557272,82.4131653 L79.0557272,82.4131653 L79.0557272,82.4131653 L79.0557272,82.4131653 Z M88.1801174,82.1507891 C87.7335321,82.1507891 87.443776,82.0490564 87.3193857,81.8485613 C87.1618248,81.5946009 87.3523126,81.2688584 87.4147516,81.1750465 C87.7284101,80.7017792 88.4598735,80.2243039 89.3864589,80.2243039 L89.4267028,80.2245514 C89.6206052,80.2275217 89.8228004,80.2542544 90.011093,80.3020267 L90.0115809,80.3042544 C90.0125565,80.31069 90.0725565,80.7651455 89.8769467,81.224799 C89.7574345,81.5020267 89.3549955,82.1505415 88.1793857,82.1505415 L88.1793857,82.1505415 L88.1801174,82.1507891 L88.1801174,82.1507891 L88.1801174,82.1507891 L88.1801174,82.1507891 Z M16.1240199,82.1507891 C14.9481662,82.1507891 14.5457272,81.5035118 14.4271906,81.2250465 C14.2325565,80.7673732 14.2915809,80.3119277 14.2920687,80.3074722 L14.2928004,80.3025217 C14.4830443,80.2542544 14.6842638,80.2275217 14.8776784,80.224799 L14.9179223,80.2245514 C15.8445077,80.2245514 16.5759711,80.7020267 16.8896296,81.175294 C16.9518248,81.2691059 17.1425565,81.5946009 16.9847516,81.8488089 C16.8579223,82.0493039 16.5701174,82.1507891 16.123776,82.1507891 L16.123776,82.1507891 L16.1240199,82.1507891 L16.1240199,82.1507891 L16.1240199,82.1507891 L16.1240199,82.1507891 Z M90.7849955,78.8166306 C90.0896296,78.8166306 89.6340199,78.7718287 89.6296296,78.7713336 L89.6284101,78.770096 C89.628654,78.764898 89.653776,77.895096 90.4103613,77.0577197 C91.1232882,76.2688584 92.6530443,75.3084623 95.8930443,75.2119277 L95.8954833,75.2116801 L95.8949955,75.2163831 C95.8945077,75.2198485 95.7981662,75.9718287 95.4569467,76.7599475 C95.1432882,77.4839574 94.5496296,78.3874227 93.5023126,78.5807395 C92.446215,78.7713336 91.443776,78.8134128 90.7852394,78.8134128 L90.7852394,78.8134128 L90.7849955,78.8166306 L90.7849955,78.8166306 L90.7849955,78.8166306 L90.7849955,78.8166306 Z M13.5191418,78.8166306 C12.8625565,78.8166306 11.8579223,78.7757891 10.8018248,78.5809871 C9.75450768,78.3876702 9.16084915,77.4839574 8.84743451,76.760195 C8.506215,75.9718287 8.40987354,75.2198485 8.40889793,75.2121752 L8.41182476,75.2121752 C11.651337,75.3087098 13.181337,76.2693534 13.8942638,77.0579673 C14.6303613,77.8723237 14.6740199,78.7178683 14.676215,78.7713336 L14.6740199,78.7715811 C14.6691418,78.7715811 14.2130443,78.8161356 13.5179223,78.8161356 L13.5179223,78.8161356 L13.5191418,78.8166306 L13.5191418,78.8166306 L13.5191418,78.8166306 L13.5191418,78.8166306 Z M87.4093857,75.3958386 C87.4074345,75.3780168 87.2276784,73.5141554 87.2276784,71.6616801 C87.2276784,69.8109376 89.1718248,69.070591 89.2545077,69.0401455 L89.2571906,69.0391554 C89.2520687,69.0767792 89.1628004,69.7156405 89.0740199,70.4641554 C89.0052394,71.0460861 88.8893857,72.0968287 88.8893857,72.5975712 C88.8893857,73.1146504 88.5345077,73.7460861 88.1508491,74.3510366 C87.7852394,74.9275217 87.4154833,75.3918782 87.4120687,75.3965811 L87.4098735,75.3993039 L87.4123126,75.3968287 L87.4093857,75.3958386 L87.4093857,75.3958386 L87.4093857,75.3958386 L87.4093857,75.3958386 Z M16.8923126,75.3958386 C16.8879223,75.390393 16.5179223,74.9260366 16.1525565,74.3493039 C15.7688979,73.7441059 15.4140199,73.1126702 15.4140199,72.5958386 C15.4140199,72.0968287 15.2984101,71.0448485 15.2293857,70.4624227 C15.1420687,69.7235613 15.053776,69.0911356 15.0464589,69.0374227 L15.0496296,69.0384128 C15.1318248,69.0688584 17.0759711,69.8092049 17.0759711,71.6599475 C17.0759711,73.5136603 16.8959711,75.3762841 16.8942638,75.3948485 L16.8940199,75.3975712 L16.8915809,75.3975712 L16.8923126,75.3958386 L16.8923126,75.3958386 L16.8923126,75.3958386 L16.8923126,75.3958386 Z M89.7315809,75.0861851 C89.6845077,74.9696009 89.6947516,74.8413831 89.7306052,74.645591 C89.7935321,74.3012841 89.9503613,73.8493039 90.2242638,73.2235613 C90.6603613,72.2265316 91.2215809,71.2017792 91.2764589,71.1020267 C91.2898735,71.08569 92.0598735,70.1017792 93.0381662,69.1223237 C93.6054833,68.5545019 94.1381662,68.095591 94.621093,67.7574722 C95.2325565,67.3297494 96.4481662,67.1696009 96.4481662,67.1696009 C96.4481662,67.1696009 96.5393433,67.9979389 96.4728004,68.9438584 C96.3808491,70.2480663 96.0623126,71.2245514 95.526215,71.8463336 C94.9381662,72.5282643 93.9318248,73.3010366 92.6923126,74.0223237 C91.5759711,74.6718287 90.566215,75.1178683 89.9915809,75.214898 C89.9720687,75.214898 89.9525565,75.2173732 89.9306052,75.2173732 C89.8915809,75.220096 89.8569467,75.2126702 89.8257272,75.1973237 C89.7891418,75.1795019 89.751337,75.1346999 89.7315809,75.0861851 Z M14.3728004,75.220096 C14.3523126,75.220096 14.3320687,75.2181158 14.3118248,75.214898 C13.7371906,75.1176207 12.7274345,74.6718287 11.611093,74.0223237 C10.3715809,73.3010366 9.36499549,72.5282643 8.77694671,71.8463336 C8.24084915,71.2245514 7.92255646,70.2480663 7.83060524,68.9438584 C7.76548329,68.0183633 7.84353207,67.2473237 7.85182476,67.1708386 C7.95231256,67.1369277 8.05914183,67.1203435 8.17255646,67.1203435 C8.60280037,67.1275217 9.06206866,67.3240564 9.68206866,67.7574722 C10.1652394,68.0953435 10.6979223,68.5547494 11.2649955,69.1223237 C12.2435321,70.1017792 13.0132882,71.08569 13.0208491,71.0953435 L13.028654,71.1052445 C13.0932882,71.2228188 13.6474345,72.2366801 14.0791418,73.2235613 C14.3532882,73.850294 14.5101174,74.3020267 14.5728004,74.6458386 C14.608654,74.8416306 14.6191418,74.970096 14.5718248,75.0866801 C14.5520687,75.1349475 14.5145077,75.1797494 14.4779223,75.1975712 C14.443776,75.2124227 14.4096296,75.2198485 14.3706052,75.2198485 L14.3706052,75.2198485 L14.3728004,75.220096 L14.3728004,75.220096 L14.3728004,75.220096 L14.3728004,75.220096 Z" fill="#2F4712" id="Shape"/><path d="M119.896341,0.00866336634 L119.321951,0.240841584 L119.096829,0.331930693 L118.400732,0.293069307 L117.74878,0.610643564 L116.592683,1.41237624 L116.541707,1.44950495 L116.110732,1.56361386 L115.710488,1.38836634 L115.483171,1.49331683 L115.404878,1.96856436 L115.188537,2.30990099 L114.922195,2.49975248 L113.999512,2.59554455 L113.221463,3.00272277 L112.209268,2.72772277 L111.739024,2.91460396 L110.739268,3.82846535 L110.228293,4.0740099 L110.049756,4.06361386 L109.372195,4.02821782 L109.086098,4.12326733 L108.65878,4.54232673 L107.850244,4.60618812 L107.598293,4.78316832 L107.203659,5.59009901 L106.776098,6.03762376 L106.531463,6.09009901 L106.266341,5.99158416 L106.067073,6.02722772 L105.976829,6.54356436 L105.783415,6.75990099 L105.242195,6.9490099 L104.809756,7.31460396 L104.430244,7.51237624 L103.921951,7.49950495 L103.805122,7.49950495 L103.29878,7.78316832 L102.346341,7.86782178 L101.950244,8.25123762 L101.862927,8.33316832 L101.678049,8.44653465 L101.37561,8.62970297 L101.301463,8.67524752 L100.936829,8.60915842 L100.51,8.78069307 L100.337317,8.51113861 L100.041951,8.69108911 L99.6507317,8.70816832 L99.1634146,8.48811881 L98.7921951,8.32029703 L98.5207317,8.36014851 L98.4263415,8.84034653 L98.4168293,8.89133663 L98.1314634,9.27673267 L97.5987805,9.60420792 L97.5263415,9.7 L96.9202439,10.4940594 L95.7685366,11.7232673 L94.7946341,12.2252475 L93.785122,12.5368812 L93.0785366,13.1259901 L91.225122,14.0584158 L88.2997561,15.535396 L87.7014634,15.7299505 L86.8429268,15.8690594 L85.3117073,16.4413366 L83.9607317,16.8549505 L83.8856098,16.8782178 L83.6182927,16.960396 L81.7134146,17.545297 L80.8268293,17.4502475 L80.3017073,17.6438119 L78.9346341,17.4898515 L77.9841463,17.5089109 L77.382439,17.6358911 L76.2514634,18.1863861 L74.342439,19.1175743 L73.7117073,19.7032178 L72.7295122,20.2232673 L71.5795122,20.5928218 L71.5821951,20.1024752 L71.5753659,20.0816832 L71.1763415,20.2096535 L70.8882927,20.3019802 L69.9553659,20.4480198 L69.4363415,20.4480198 L69.1141463,20.3529703 L69.0643902,20.3700495 L67.157561,21.0076733 L65.0309756,21.2160891 L63.9668293,21.5623762 L63.1717073,21.549505 L62.6746341,21.6997525 L61.7002439,21.8205446 L61.3519512,21.7262376 L61.2734146,21.7044554 L58.407561,21.8306931 L57.0973171,21.6804455 L56.4719512,21.8247525 L55.4241463,21.4670792 L53.895122,21.2871287 L53.5378049,21.1784653 L52.7341463,20.9363861 L52.3704878,21.1490099 L52.0982927,21.1784653 L51.4478049,20.9391089 L51.2136585,20.9329208 L50.6765854,21.1299505 L50.367561,21.049505 L50.0804878,20.8173267 L49.4070732,20.7155941 L48.9968293,20.3655941 L46.7036585,20.6740099 L46.0814634,20.4883663 L43.995122,19.8715347 L43.6631707,19.8886139 L43.2495122,20.2032178 L42.6280488,20.4331683 L42.0885366,20.575495 L41.3539024,20.6014851 L40.5009756,20.3742574 L39.6214634,19.9415842 L39.2963415,19.8631188 L38.5709756,19.9373762 L38.3490244,19.9579208 L37.0158537,19.2321782 L35.2982927,18.1420792 L34.1329268,17.5737624 L33.6953659,17.5017327 L33.6365854,17.7128713 L33.8536585,18.4071782 L33.927561,19.0938119 L33.9053659,19.7282178 L33.8934146,20.1210396 L34.0021951,20.4737624 L34.4229268,20.9470297 L34.5982927,21.4222772 L34.7265854,22.730198 L34.725122,24.0574257 L34.5204878,26.1740099 L34.4514634,26.4962871 L34.2073171,27.5928218 L33.9843902,28.6 L33.1195122,31.2814356 L32.8819512,31.6138614 L32.2987805,32.0175743 L30.9770732,32.9304455 L30.0039024,33.5 L29.6958537,33.6294554 L28.9058537,33.690099 L28.4136585,33.6641089 L27.8007317,33.3272277 L27.1990244,33.1700495 L26.4107317,32.594802 L25.5339024,32.4106436 L24.5726829,31.8467822 L24.322439,31.5415842 L23.7990244,31.4915842 L23.0731707,31.2705446 L23.0736585,31.2693069 L22.8070732,31.1883663 L22.6229268,31.1339109 L22.6229268,31.1336634 L21.6970732,31.1079208 L20.8336585,30.7034653 L20.3790244,30.5920792 L19.7578049,30.5601485 L19.107561,30.8668317 L19.1073171,30.8658416 L18.7778049,31.0215347 L18.3614634,30.8537129 L18.0602439,30.8727723 L17.7190244,31.3962871 L17.6680488,31.4774752 L17.4329268,31.6037129 L17.1402439,31.599505 L16.9112195,31.5933168 L16.6634146,31.7032178 L16.3297561,31.85 L16.3297561,31.8507426 L16.035122,31.9811881 L15.8912195,32.0443069 L15.8887805,32.0418317 L15.8002439,32.059901 L15.6429268,32.0876238 L15.4478049,32.125495 L15.1039024,31.9215347 L14.9209756,31.8121287 L14.6143902,31.7487624 L14.4492683,31.869802 L14.4168293,32.4393564 L14.2660976,32.7804455 L13.7878049,33.2096535 L13.3017073,33.6440594 L12.9629268,34.1507426 L12.0663415,36.2274752 L11.5046341,37.0653465 L11.3302439,37.2606436 L10.7429268,37.9180693 L10.2219512,38.3282178 L9.02146341,39.2725248 L7.88512195,39.7034653 L6.90634146,39.9064356 L6.4304878,39.9084158 L5.52902439,39.7866337 L4.71853659,39.5341584 L3.82829268,38.9693069 L2.85195122,38.1730198 L1.43878049,36.7561881 L1.23878049,36.6341584 L1.19707317,36.6059406 L0.75195122,36.3170792 L0.421707317,36.3257426 L0.292439024,36.5420792 L0.221707317,36.854703 L0.16195122,37.1319307 L0,38.7079208 L0.0119512195,38.7992574 L0.0970731707,39.4482673 L1.1704878,40.9705446 L1.50170732,41.7792079 L1.55609756,41.8715347 L1.77756098,42.2490099 L1.94609756,42.5368812 L1.96292683,42.5660891 L2.3297561,43.6769802 L2.07195122,44.3042079 L2.20219512,44.7242574 L1.87634146,44.9809406 L1.81658537,45.3435644 L2.7802439,46.5695545 L2.9904878,47.110396 L2.75560976,47.8601485 L2.38097561,48.2737624 L2.27634146,48.3868812 L2.32902439,48.7037129 L2.77243902,49.1084158 L3.52585366,49.7891089 L3.92756098,50.800495 L4.23317073,51.0717822 L4.58829268,50.9950495 L4.78585366,51.1480198 L5.08536585,51.1428218 L5.38,51.4418317 L5.57073171,51.5356436 L5.87219512,51.6881188 L6.1104878,52.0029703 L6.16317073,52.9710396 L6.60756098,54.1740099 L6.61439024,54.8262376 L6.61682927,54.9188119 L6.89341463,55.4009901 L6.9802439,55.7816832 L6.83292683,56.7888614 L7.18536585,57.1121287 L7.56756098,57.0329208 L7.81439024,57.0725248 L8.21097561,57.4076733 L8.69121951,58.150495 L9.16097561,58.0806931 L9.45902439,58.2264851 L10.8985366,59.5467822 L11.225122,59.7141089 L11.2431707,59.724505 L11.4780488,59.8440594 L11.77,60.1430693 L12.2226829,59.8381188 L12.2729268,59.8329208 L12.765122,59.7888614 L12.9812195,59.9366337 L13.3968293,60.2210396 L13.9417073,60.2138614 L15.1231707,60.5814356 L15.64,60.7158416 L16.6792683,61.3712871 L17.1209756,61.6485149 L17.382439,61.8641089 L17.7297561,62.1514851 L18.4236585,62.4544554 L19.0187805,62.5990099 L19.3412195,62.6767327 L19.5839024,62.7717822 L19.59,62.7564356 L19.5934146,62.7574257 L19.587561,62.7730198 L20.8763415,63.2737624 L21.5743902,63.4391089 L22.2202439,63.6804455 L22.6902439,63.8544554 L23.035122,63.8601485 L23.5229268,63.4438119 L23.9953659,63.4160891 L24.3878049,63.5153465 L24.7707317,63.4502475 L25.3768293,63.0712871 L25.495122,62.8933168 L25.924878,62.6856436 L27.3746341,62.5029703 L27.7982927,62.6425743 L28.8860976,62.1623762 L29.614878,62.3680693 L30.26,62.1358911 L31.6695122,62.4537129 L32.0441463,62.7212871 L32.4629268,63.2076733 L32.5141463,63.209901 L32.9804878,63.2190594 L32.7856098,63.5485149 L33.4009756,64.2037129 L33.9568293,65.0564356 L33.9943902,65.1690594 L34.3985366,66.3730198 L34.6990244,66.799505 L34.9092683,67.394802 L34.9195122,67.7829208 L34.5926829,68.0358911 L34.5390244,68.180198 L34.5204878,68.2336634 L34.5868293,68.3957921 L34.7102439,68.3274752 L34.945122,68.1955446 L35.2295122,68.1507426 L35.7334146,68.205198 L36.0660976,68.2405941 L36.5914634,67.9759901 L36.9395122,67.8002475 L37.4987805,68.0445545 L38.1134146,68.0376238 L38.3714634,68.1542079 L39.1019512,68.4903465 L39.474878,68.5259901 L39.6126829,68.4341584 L39.7004878,68.2222772 L39.6553659,67.9757426 L39.3760976,67.6482673 L38.7587805,66.9210396 L38.5060976,66.5472772 L38.3136585,66.0061881 L38.2539024,65.314604 L38.2114634,64.8480198 L38.2880488,64.234901 L38.4539024,64.0160891 L38.5758537,63.5289604 L38.5780488,63.5289604 L38.6095122,63.4014851 L38.952439,62.939604 L39.8607317,62.3472772 L40.8363415,61.4606436 L41.607561,60.9445545 L42.4026829,60.5950495 L42.4239024,60.4970297 L42.512439,60.5331683 L44.534878,59.835396 L44.5682927,59.8314356 L45.4687805,59.6722772 L51.5468293,60.1066832 L51.7721951,60.0376238 L51.7731707,60.0361386 L51.9756098,59.4594059 L52.0846341,59.3524752 L52.1570732,59.2826733 L52.8253659,58.9841584 L53.1378049,58.9388614 L54.005122,59.1561881 L54.3602439,59.2450495 L54.9290244,58.9215347 L55.332439,58.9284653 L56.1658537,58.4665842 L56.6807317,58.479703 L56.8765854,58.4002475 L57.8795122,57.6688119 L58.8456098,57.3878713 L59.0968293,57.2522277 L59.1853659,57.2029703 L60.1756098,56.6722772 L60.8046341,56.1819307 L61.347561,55.8891089 L61.9421951,55.7334158 L63.4982927,55.6222772 L63.8112195,55.0930693 L64.4804878,55.0024752 L64.8846341,54.539604 L65.3470732,54.3487624 L65.6785366,53.8641089 L65.9563415,53.4579208 L66.3443902,53.2299505 L67.5882927,53.1507426 L69.0626829,53.3361386 L69.257561,53.2160891 L69.5907317,52.0094059 L69.9395122,51.7829208 L70.8787805,50.3938119 L70.8819512,49.8876238 L70.8829268,49.4648515 L71.0373171,48.8628713 L70.932439,47.7759901 L71.0568293,46.675495 L71.6407317,45.2769802 L72.155122,44.7128713 L72.9846341,44.1433168 L73.4063415,43.9569307 L74.0036585,43.8549505 L74.0036585,43.8534653 L74.0914634,43.8383663 L74.2436585,43.8118812 L76.3004878,43.7831683 C76.3290244,43.7616337 77.0485366,43.7727723 77.0485366,43.7727723 L77.7343902,43.7633663 L79.4695122,44.0767327 L79.5929268,44.0985149 L80.1795122,44.2913366 L80.8560976,44.8252475 L81.5721951,45.5351485 L81.7065854,45.6675743 L82.1704878,45.8658416 L82.3107317,45.9279703 L82.6939024,45.8658416 L83.2395122,45.5774752 L83.6512195,45.2242574 L84.212439,44.9131188 L84.2260976,44.8933168 L84.5419512,44.4111386 L84.5514634,44.4012376 L84.5582927,44.4029703 L84.5590244,44.4002475 L84.5536585,44.3990099 L84.6782927,44.2071782 L85.7629268,43.7782178 L87.0385366,43.7029703 L87.1819512,43.6242574 L87.2617073,43.5809406 L87.5987805,43.1792079 L87.9146341,43.1764851 L88.6792683,43.4571782 L89.2168293,43.3490099 L89.6436585,43.5220297 L89.9753659,43.4821782 L90.6009756,43.4069307 L91.2726829,43.8866337 L91.6641463,43.9373762 L93.0441463,44.7566832 L93.1158537,44.7685644 L93.1529268,44.775495 L93.2319512,44.7886139 L93.3956098,44.7393564 L93.6390244,44.6678218 L93.6712195,44.6581683 L93.7019512,44.7012376 L93.8587805,44.9257426 L94.0739024,44.9569307 L94.3285366,44.6121287 L94.2273171,44.4556931 L94.1890244,44.3987624 L93.6960976,44.2970297 L93.2534146,43.5289604 L93.674878,43.0683168 L93.0136585,42.2450495 L92.9039024,42.1086634 L92.8665854,42.0507426 L92.6380488,41.6985149 L91.4804878,39.9076733 L89.9726829,38.6861386 L89.9721951,38.6871287 L89.4441463,38.2584158 L89.4407317,38.2559406 L89.2558537,38.1084158 L88.4504878,37.2772277 L87.8753659,36.5024752 L87.8,36.3356436 L87.6812195,36.0727723 L87.3365854,35.3108911 L86.7360976,34.8415842 L86.2468293,34.2992574 L86.2229268,34.2673267 L85.2131707,32.8747525 L85.0473171,32.6413366 L84.8087805,32.5014851 L84.304878,32.4980198 L84.2573171,32.449505 L84.2290244,32.4195545 L84.2460976,32.4012376 L84.4878049,32.1574257 L84.7573171,32.0886139 L84.8734146,31.8190594 L84.3592683,30.3081683 L84.3558537,30.2554455 L84.317561,29.7727723 L84.7365854,27.5809406 L84.7902439,27.3138614 L85.5043902,25.8391089 L85.9468293,25.4712871 L86.4297561,24.5079208 L86.8434146,23.8920792 L87.2397561,23.500495 L87.3090244,23.4589109 L88.0246341,23.0193069 L88.6258537,22.9334158 L89.1985366,22.8514851 L90.1982927,23.1643564 L91.1497561,23.1455446 L91.3353659,23.125495 L91.7670732,23.0752475 L92.4770732,22.8482673 L92.8121951,22.6383663 L92.9860976,22.3678218 L93.3487805,21.1334158 L93.4653659,20.7405941 L93.6890244,20.3138614 L94.9831707,18.8019802 L95.9614634,17.8836634 L98.1612195,16.2467822 L99.2380488,15.5935644 L99.7878049,15.2601485 L104.696585,13.0457921 L105.972195,11.7334158 L106.636829,11.0509901 L107.812683,10.2502475 L109.188537,9.67821782 L110.372439,8.72722772 L110.630976,8.3970297 L110.956829,7.33193069 L111.228293,7.26534653 L111.473415,6.72722772 L111.543171,6.57425743 L112.509268,5.88316832 L112.618537,5.8279703 L116.371707,3.91955446 L116.917073,3.99554455 L117.209024,3.55173267 L118.300976,3.36584158 L118.501951,3.33118812 L118.77122,3.19480198 L119.000244,2.7990099 L119.000244,2.72079208 L119.031707,1.66311881 L119.264878,1.37722772 L119.391951,0.68019802 L119.511707,0.519306931 L119.636829,0.351980198 L119.946098,0.131435644 L119.892439,0 L119.896341,0.00866336634 L119.896341,0.00866336634 L119.896341,0.00866336634 L119.896341,0.00866336634 Z" fill="#FEE94E" id="Shape"/></g></g></g></g></svg>