<?xml version="1.0" ?><svg height="180px" version="1.1" viewBox="0 0 180 180" width="180px" xmlns="http://www.w3.org/2000/svg" xmlns:sketch="http://www.bohemiancoding.com/sketch/ns" xmlns:xlink="http://www.w3.org/1999/xlink"><title/><desc/><defs/><g fill="none" fill-rule="evenodd" id="Page-1" stroke="none" stroke-width="1"><g id="Material" transform="translate(-180.000000, -180.000000)"><g id="Slice" transform="translate(180.000000, 180.000000)"/><g id="circle_djibouti" transform="translate(180.000000, 180.000000)"><circle cx="90" cy="90" fill="#FFFFFF" id="Oval-15-copy-4" r="90"/><path d="M180,90 L90,90 L26.3603888,153.639611 C42.647185,169.926407 65.147185,180 90,180 C139.70563,180 180,139.70563 180,90 Z" fill="#4EAB53" id="Rectangle-42"/><path d="M180,90 L90,90 L26.3603888,26.3603888 C42.647185,10.0735925 65.147185,0 90,0 C139.70563,0 180,40.2943701 180,90 Z" fill="#2B98F0" id="Rectangle-42"/><path d="M33.2246927,101.505321 L21.3431804,107.994679 L23.6123467,94.2499998 L14,84.5159646 L27.2839382,82.5106411 L33.2246934,70.005321 L39.1654521,82.5106442 L52.4493894,84.5159746 L42.8370387,94.2500025 L45.1062055,107.994679 L33.2246927,101.505321 Z" fill="#F1453D" id="Star-7"/></g></g></g></svg>