<?xml version="1.0" ?><svg height="180px" version="1.1" viewBox="0 0 180 180" width="180px" xmlns="http://www.w3.org/2000/svg" xmlns:sketch="http://www.bohemiancoding.com/sketch/ns" xmlns:xlink="http://www.w3.org/1999/xlink"><title/><desc/><defs/><g fill="none" fill-rule="evenodd" id="Page-1" stroke="none" stroke-width="1"><g id="Material" transform="translate(-180.000000, -180.000000)"><g id="Slice" transform="translate(180.000000, 180.000000)"/><g id="circle_dominica" transform="translate(180.000000, 180.000000)"><path d="M60,5.12116698 L60,60 L5.12116698,60 C2.87033179,66.3682094 1.31587144,73.0653755 0.549287698,80 L60,80 L60,174.878833 C66.3682094,177.129668 73.0653755,178.684129 80,179.450712 L80,80 L179.450712,80 C178.684129,73.0653755 177.129668,66.3682094 174.878829,59.9999996 L80,60 L80,0.549287698 C73.0653755,1.31587144 66.3682094,2.87033179 59.9999996,5.12117078 Z" fill="#FEE94E" id="Rectangle-53"/><path d="M80,0.549287698 L80,80 L0.549287698,80 C0.186333089,83.2833385 0,86.619909 0,90 C0,93.380091 0.186333089,96.7166615 0.549287698,100 L80,100 L80,179.450712 C83.2833385,179.813667 86.619909,180 90,180 C93.380091,180 96.7166615,179.813667 100,179.450712 L100,100 L179.450712,100 C179.813667,96.7166615 180,93.380091 180,90 C180,86.619909 179.813667,83.2833385 179.450712,80 L100,80 L100,0.549287698 C96.7166615,0.186333089 93.380091,0 90,0 C86.619909,0 83.2833385,0.186333089 80,0.549287698 Z" fill="#262626" id="Rectangle-53"/><path d="M100,0.549287698 L100,100 L0.549287698,100 C1.31587144,106.934625 2.87033179,113.631791 5.12117078,120 L100,120 L100,179.450712 C106.934625,178.684129 113.631791,177.129668 120,174.878829 L120,120 L174.878833,120 C177.129668,113.631791 178.684129,106.934625 179.450712,100 L120,100 L120,5.12116698 C113.631791,2.87033179 106.934625,1.31587144 100,0.549287698 Z" fill="#FFFFFF" id="Rectangle-53"/><path d="M174.878829,120 C165.840282,145.572404 145.572405,165.840282 120,174.878829 L120,174.878833 L120,120 L174.878829,120 Z M174.878829,60 C165.840282,34.4275955 145.572405,14.159718 120,5.12117078 L120,60 L174.878829,60 Z M5.12117063,60 C14.1597178,34.4275955 34.4275951,14.159718 59.9999996,5.12117078 L60,5.12116698 L59.9999999,60 L5.12117063,60 Z M5.12117063,120 C14.1597178,145.572404 34.4275951,165.840282 59.9999996,174.878829 L59.9999997,120 L5.12117063,120 Z" fill="#4EAB53" id="Rectangle-53"/><g id="bird" transform="translate(41.495728, 40.000000)"><path d="M74.3448038,93.0173128 C58.9820327,101.929412 40.012395,101.929412 24.649624,93.0173128 C9.28685311,84.1052135 -0.10851519,67.6503859 0.0363699954,49.9102369 C-0.10851519,32.1700881 9.28685311,15.7152604 24.649624,6.80316125 C40.012395,-2.10893791 58.9820327,-2.10893791 74.3448038,6.80316125 C89.7075745,15.7152604 99.1029429,32.1700881 98.9580577,49.9102369 C99.1029429,67.6503859 89.7075745,84.1052135 74.3448038,93.0173128 L74.3448038,93.0173128 Z" fill="#F1453D" id="Shape"/><path d="M49.457715,6.41122726 L50.8975591,10.8592581 C50.8975591,10.8592581 55.7244963,11.004231 55.7244963,10.9317445 C55.7244963,10.8592581 51.9057794,13.8476759 51.9057794,13.8476759 C51.9057794,13.8476759 53.7080556,18.9513794 53.6355692,18.8064066 C53.5630828,18.6614337 49.457715,15.7455024 49.457715,15.7455024 C49.457715,15.7455024 45.2798609,18.6614337 45.3523473,18.6614337 C45.4248337,18.6614337 46.9371642,13.8476759 46.9371642,13.8476759 L43.1909338,11.004231 L47.8728981,10.9317445 C47.8728981,10.8592581 49.457715,6.41122726 49.457715,6.41122726 L49.457715,6.41122726 Z M49.457715,93.592632 L48.017871,89.1446011 C48.017871,89.1446011 43.1909338,88.9996283 43.1909338,89.0721147 C43.1909338,89.1446011 47.0096506,86.1561834 47.0096506,86.1561834 C47.0096506,86.1561834 45.2073744,81.0524798 45.2798609,81.1974527 C45.3523473,81.3424255 49.457715,84.2616517 49.457715,84.2616517 C49.457715,84.2616517 53.6355692,81.3424255 53.5630828,81.3424255 C53.4905963,81.3424255 51.9782658,86.1561834 51.9782658,86.1561834 L55.7244963,88.9996283 L51.0425319,89.0721147 C51.0425319,89.1446011 49.457715,93.592632 49.457715,93.592632 L49.457715,93.592632 Z M70.8445063,26.611877 L69.4013674,22.1638462 C69.4013674,22.1638462 64.5777251,22.0188733 64.5777251,22.0913597 C64.5777251,22.1638462 68.3931471,19.1754284 68.3931471,19.1754284 C68.3931471,19.1754284 66.5941657,14.0717248 66.6666522,14.2166977 C66.7358437,14.3616706 70.8445063,17.2776019 70.8445063,17.2776019 C70.8445063,17.2776019 75.0223605,14.3616706 74.9498741,14.3616706 C74.8773876,14.3616706 73.3650571,19.1754284 73.3650571,19.1754284 L77.1112876,22.0188733 L72.4293232,22.0913597 C72.4293232,22.1638462 70.8445063,26.611877 70.8445063,26.611877 L70.8445063,26.611877 Z M84.7124781,67.1548545 L83.272634,62.7068237 C83.272634,62.7068237 78.4456968,62.5618508 78.4456968,62.6343372 C78.4456968,62.7068237 82.2644137,59.7184059 82.2644137,59.7184059 C82.2644137,59.7184059 80.4621375,54.6147023 80.5346239,54.7596752 C80.6071103,54.9046481 84.7124781,57.8205794 84.7124781,57.8205794 C84.7124781,57.8205794 88.8903322,54.9046481 88.8178458,54.9046481 C88.7486542,54.9046481 87.2330289,59.7184059 87.2330289,59.7184059 L90.9792593,62.5618508 L86.297295,62.6343372 C86.297295,62.7068237 84.7124781,67.1548545 84.7124781,67.1548545 L84.7124781,67.1548545 Z M14.1963623,68.3113425 L12.7565182,63.8666065 C12.7565182,63.8666065 7.92958104,63.7183388 7.92958104,63.7941201 C7.92958104,63.8666065 11.7482979,60.8748939 11.7482979,60.8748939 C11.7482979,60.8748939 9.94602169,55.7711904 10.0185081,55.9194581 C10.0909946,56.0644309 14.1963623,58.9803623 14.1963623,58.9803623 C14.1963623,58.9803623 18.3742165,56.0644309 18.30173,56.0644309 C18.2292436,56.0644309 16.7169131,60.8748939 16.7169131,60.8748939 L20.4631435,63.7183388 L15.7811792,63.7941201 C15.7811792,63.8666065 14.1963623,68.3113425 14.1963623,68.3113425 L14.1963623,68.3113425 Z M27.0001015,27.0863336 L25.5569626,22.6383028 C25.5569626,22.6383028 20.7333202,22.4933299 20.7333202,22.5658163 C20.7333202,22.6383028 24.5487422,19.649885 24.5487422,19.649885 C24.5487422,19.649885 22.7497609,14.5461815 22.8222473,14.6911543 C22.8914389,14.8361272 27.0001015,17.7520585 27.0001015,17.7520585 C27.0001015,17.7520585 31.1779556,14.8361272 31.1054692,14.8361272 C31.0329828,14.8361272 29.5206523,19.649885 29.5206523,19.649885 L33.2668827,22.4933299 L28.5849184,22.5658163 C28.5849184,22.6383028 27.0001015,27.0863336 27.0001015,27.0863336 L27.0001015,27.0863336 Z M13.9163011,32.8588892 L15.3561451,37.3069201 C15.3561451,37.3069201 20.1830823,37.4518929 20.1830823,37.3794065 C20.1830823,37.3069201 16.3643655,40.2953378 16.3643655,40.2953378 C16.3643655,40.2953378 18.1666417,45.3990414 18.0941552,45.2540685 C18.0216688,45.1090957 13.9163011,42.1931643 13.9163011,42.1931643 C13.9163011,42.1931643 9.73844692,45.1090957 9.81093335,45.1090957 C9.88012494,45.1090957 11.3957503,40.2953378 11.3957503,40.2953378 L7.64951984,37.4518929 L12.3314842,37.3794065 C12.3314842,37.3069201 13.9163011,32.8588892 13.9163011,32.8588892 L13.9163011,32.8588892 Z M27.6953122,73.3293803 L29.1351563,77.7741163 C29.1351563,77.7741163 33.9620935,77.922384 33.9620935,77.8498976 C33.9620935,77.7741163 30.1466714,80.7658289 30.1466714,80.7658289 C30.1466714,80.7658289 31.9456528,85.8695325 31.8731664,85.7212648 C31.8006799,85.5762919 27.6953122,82.6603606 27.6953122,82.6603606 C27.6953122,82.6603606 23.5174581,85.5762919 23.5899445,85.5762919 C23.6624309,85.5762919 25.1747614,80.7658289 25.1747614,80.7658289 L21.428531,77.922384 L26.1104953,77.8498976 C26.1104953,77.7741163 27.6953122,73.3293803 27.6953122,73.3293803 L27.6953122,73.3293803 Z M84.4620704,31.7814773 L85.9019145,36.2262133 C85.9019145,36.2262133 90.7288517,36.374481 90.7288517,36.3019946 C90.7288517,36.2262133 86.9101348,39.2179259 86.9101348,39.2179259 C86.9101348,39.2179259 88.712411,44.3216295 88.6399246,44.1733618 C88.5674381,44.0283889 84.4620704,41.1124576 84.4620704,41.1124576 C84.4620704,41.1124576 80.2842162,44.0283889 80.3567027,44.0283889 C80.4291891,44.0283889 81.9415196,39.2179259 81.9415196,39.2179259 L78.1952892,36.374481 L82.8772535,36.3019946 C82.8772535,36.2262133 84.4620704,31.7814773 84.4620704,31.7814773 L84.4620704,31.7814773 Z M71.6187932,72.9471791 L73.0586372,77.39521 C73.0586372,77.39521 77.8855744,77.5401828 77.8855744,77.4676964 C77.8855744,77.39521 74.0668576,80.3836278 74.0668576,80.3836278 C74.0668576,80.3836278 75.8691338,85.4873313 75.7966473,85.3423584 C75.7241609,85.1940908 71.6187932,82.2781594 71.6187932,82.2781594 C71.6187932,82.2781594 67.440939,85.1940908 67.5134254,85.1940908 C67.5859119,85.1940908 69.0982424,80.3836278 69.0982424,80.3836278 L65.3520119,77.5401828 L70.0339763,77.4676964 C70.0339763,77.39521 71.6187932,72.9471791 71.6187932,72.9471791 L71.6187932,72.9471791 Z" fill="#4EAB53" id="Shape"/><path d="M40.4416911,66.037022 C41.2639554,65.3833931 42.4523414,65.7754132 42.8179141,66.5602396 C43.1834869,67.345066 42.9095818,68.1306778 43.3662733,68.1306778 C43.8235138,68.1306778 60.5241148,67.0607699 60.9808063,67.7151847 C61.4380467,68.3688136 61.5297144,69.6768575 61.072474,70.1969325 C60.6152335,70.7232927 37.9946715,71.7767867 37.4463123,71.2504265 C36.8979531,70.7319229 36.0751399,68.5054986 36.0751399,68.3743014 C37.7202174,68.2431043 39.6188778,66.6914367 40.4416911,66.037022 L40.4416911,66.037022 Z" fill="#9C4A00" id="Shape" stroke="#000000" stroke-width="0.2" transform="translate(48.760265, 68.507607) rotate(0.986600) translate(-48.760265, -68.507607) "/><path d="M53.7715565,71.2817412 C53.7475167,72.7372799 50.8808718,71.4287209 50.8164324,68.7683859 C50.8808718,66.108051 53.3242401,64.7429441 53.3776616,66.2605519 C53.4193973,67.5216622 52.5380974,67.1163079 52.5380974,68.7596975 C52.5380974,70.4030874 53.7298211,69.9100574 53.7715565,71.2817412 L53.7715565,71.2817412 Z" fill="#FEE94E" id="Shape" stroke="#000000" stroke-width="0.2" transform="translate(52.299109, 68.758786) rotate(0.755462) translate(-52.299109, -68.758786) "/><path d="M51.4685068,71.2970832 C51.444467,72.7207924 48.9072772,71.4365995 48.8428375,68.8344405 C48.9072772,66.2322811 51.3506455,64.8970261 51.404067,66.381447 C51.4458024,67.6149799 50.9038671,67.2269877 50.9038671,68.8344402 C50.9038671,70.4418929 51.4267711,69.9553953 51.4685068,71.2970832 L51.4685068,71.2970832 Z" fill="#FEE94E" id="Shape" stroke="#000000" stroke-width="0.2" transform="translate(50.160773, 68.893499) rotate(0.755462) translate(-50.160773, -68.893499) "/><path d="M49.5105946,71.3898613 C49.483885,72.9299544 46.6648822,71.5407826 46.5932851,68.7259046 C46.6648822,65.9110266 49.3796423,64.4666182 49.4389975,66.0723863 C49.4853687,67.4067567 49.0926524,66.9870478 49.0926524,68.7259046 C49.0926524,70.4647618 49.4642234,69.9384942 49.5105946,71.3898613 L49.5105946,71.3898613 Z" fill="#FEE94E" id="Shape" stroke="#000000" stroke-width="0.2" transform="translate(48.075962, 68.698657) rotate(0.755462) translate(-48.075962, -68.698657) "/><path d="M47.2118999,68.7349161 C47.2118999,70.1573427 47.9731672,69.9475057 48.0195384,71.3988731 C47.9928285,72.9389662 45.173826,71.5497941 45.1022285,68.7349161 C45.173826,65.9200381 47.8798976,63.8167198 47.9392528,65.4224876 C47.985624,66.756858 47.2118999,67.3124899 47.2118999,68.7349161 L47.2118999,68.7349161 Z" fill="#FEE94E" id="Shape" stroke="#000000" stroke-width="0.2" transform="translate(46.584905, 68.490148) rotate(0.755462) translate(-46.584905, -68.490148) "/><ellipse cx="43.1623735" cy="29.4887971" fill="#E5B731" id="Oval-1" rx="1.9769026" ry="1.48267695"/><path d="M51.8728567,57.9803019 C46.5460943,37.0715988 47.9628113,33.0785366 47.9628113,33.0785366 C47.9628113,33.0785366 64.6500069,41.531211 64.6500056,57.9803019 C64.6500043,74.4293928 64.3057207,81.8266896 62.6222646,81.8266896 C60.9388082,81.8266896 57.1996181,78.889007 51.8728567,57.9803019 L51.8728567,57.9803019 Z" fill="#57BB63" id="Path-28" stroke="#262626" stroke-width="0.2"/><path d="M50.418173,67.4046958 C44.401555,66.3509266 45.1132913,56.3052114 45.1132913,56.3052114 L50.8805442,52.4727103 L57.4917777,62.4260804 C57.4917777,62.4260804 56.4347911,68.4584646 50.418173,67.4046958 L50.418173,67.4046958 Z" fill="#4EAB53" id="Path-26" stroke="#262626" stroke-width="0.2"/><path d="M42.1443981,32.9398573 C42.1443981,32.9398573 39.4811785,37.7321729 40.110222,45.9316209 C40.7392658,54.1310689 47.5570701,57.3229429 49.5671142,61.945047 L48.4744119,35.5139492 L42.1443981,32.9398573 L42.1443981,32.9398573 Z" fill="#9461C9" id="Path-27" stroke="#000000" stroke-width="0.2"/><path d="M46.3327674,43.5283845 L60.9011623,65.6510959 C60.9011623,65.6510959 54.1570415,61.7703303 50.1083166,56.1806899 C46.0595918,50.5910496 46.3327674,43.5283845 46.3327674,43.5283845 L46.3327674,43.5283845 Z" fill="#F1453D" id="Path-25" stroke="#262626" stroke-width="0.2"/><path d="M54.106525,58.507669 C59.6130172,64.783322 66.5908636,70.4956189 67.3560185,72.6288141 C67.9361544,70.4205652 66.7906847,57.884095 62.7718839,55.6864643 C61.9011973,51.6673412 61.9800286,48.1327909 58.2205674,43.9807812 C55.2112535,40.6572461 51.5726535,36.3189966 48.2971213,37.828058 C45.0215891,39.3371196 46.1979492,42.4704325 46.7320734,46.1524093 C47.1034889,48.7127572 50.1029418,53.9448553 54.106525,58.507669 L54.106525,58.507669 Z" fill="#4EAB53" id="Oval-3" stroke="#262626" stroke-width="0.2"/><path d="M49.0930997,34.7312427 C49.0930875,34.7336664 49.0930813,34.7360907 49.0930813,34.738516 C49.0930813,34.7796142 49.0920279,34.8203611 49.0899574,34.8607041 L49.0899574,34.8607041 C49.405168,34.7468658 49.6908139,34.6820349 49.8727967,34.6820349 C50.5096878,34.6820349 49.6357229,35.4760905 49.6357229,36.3859349 C49.6357229,37.2957792 49.1194209,38.0333537 48.4825297,38.0333537 C47.8456389,38.0333537 47.3293365,37.2957792 47.3293365,36.3859349 C47.3293365,36.3121325 47.3418813,36.2390922 47.3652753,36.1671754 C47.122451,35.9674289 46.9353461,35.644973 46.8454511,35.2590799 L46.8454511,35.2590799 C46.7731465,35.2793653 46.6984189,35.2899971 46.621953,35.2899971 C46.3681217,35.2899971 46.1334446,35.1728409 45.9429726,34.9743147 C45.7374832,35.4272788 45.3805073,35.7269673 44.9745342,35.7269673 C44.404124,35.7269673 43.9304416,35.1353374 43.8377677,34.3581926 L43.8377677,34.3581926 C43.6379246,34.5956835 43.3810074,34.738516 43.1007379,34.738516 C42.4638468,34.738516 41.9475447,34.0009416 41.9475447,33.0910972 C41.9475447,32.4401113 42.9235712,31.8484007 43.7122275,31.5644016 C43.8618948,30.7917676 44.2967129,30.2329239 44.8097923,30.2329239 C44.8498328,30.2329239 44.8893969,30.2363274 44.9283857,30.2429704 C45.1165921,29.6985289 45.5091769,29.3240553 45.9629855,29.3240553 C46.1377387,29.3240553 46.3034134,29.3795851 46.4518346,29.478967 C47.0535155,28.8634522 47.9127666,28.4783245 48.8667038,28.4783245 C50.6863926,28.4783245 52.1615415,29.879716 52.1615415,31.6084203 C52.1615415,33.264834 50.8071879,34.6207374 49.0930997,34.7312427 L49.0930997,34.7312427 Z" fill="#479951" id="Oval-3" stroke="#262626" stroke-width="0.2"/><path d="M50.0048871,33.0735077 C49.8422117,32.9758856 49.7231919,32.9055477 49.6556326,32.8707004 C49.0285304,32.6228285 48.2190712,31.7748183 48.3571061,30.9966235 C48.1209615,30.7237702 48.032305,30.3854372 48.2712252,29.9771086 C48.3872918,29.7952185 48.5401172,29.6805219 48.7251579,29.6212031 L48.7251579,29.6212031 C48.5157898,29.5141594 48.3391114,29.4152816 48.3391114,29.4152816 C48.3391114,29.4152816 47.721986,30.9739363 46.9119383,30.6915492 C46.3171835,30.4842143 47.1346169,28.9820012 47.1346169,28.9820012 C47.1346169,28.9820012 46.6234897,30.800155 45.6343402,30.6179894 C44.5510938,30.4184945 42.3352529,27.9238687 42.2457453,27.763963 C41.518978,26.5764823 42.6650935,24.8933869 44.027784,23.9343595 C45.570799,22.8967128 48.2887959,22.5050848 50.315501,23.3836286 C53.5651618,24.3826105 53.27562,26.9958062 55.7291677,27.2982524 C55.2133309,27.977127 53.2852271,27.6760812 52.5746341,27.5379898 L52.5746341,27.5379898 C54.3043603,28.1819354 56.3371677,29.2095739 57.4246269,28.7493323 C56.7836986,30.0127146 55.739895,30.3472538 54.7255835,30.298659 C55.9666728,30.8928252 57.2256098,31.3163369 58.2471907,30.9455081 C57.5590928,31.8599392 56.7830304,32.3339244 56.0021895,32.531689 C57.0131004,32.8427588 58.0217642,32.9782062 58.9617497,32.7652719 C58.5089514,33.7735737 57.7601396,34.2507568 56.8742928,34.3894856 L56.8742928,34.3894856 C58.3675178,35.0549812 59.8157206,35.4056953 60.989748,34.9743658 C59.821245,37.5764151 55.9749316,36.2474574 53.0708294,34.793697 C54.9983081,35.960256 57.4973578,37.1937852 60.5934555,36.7582663 C58.2547066,41.0079384 51.0655935,35.9852032 50.1074418,35.5844211 C49.2778591,35.3260897 48.8950678,33.7564847 48.8156121,33.4057331 C49.118577,33.0074423 49.5144034,32.9374776 50.0048871,33.0735077 L50.0048871,33.0735077 Z" fill="#9461C9" id="Shape" stroke="#000000" stroke-width="0.2"/><path d="M47.6104043,27.0176689 C48.2472954,27.0176689 48.7635975,26.0292176 48.7635975,26.0292176 C48.7635975,26.0292176 48.2472954,25.37025 47.6104043,25.37025 C46.9735132,25.37025 46.4572111,26.0292176 46.4572111,26.0292176 C46.4572111,26.0292176 46.9735132,27.0176689 47.6104043,27.0176689 L47.6104043,27.0176689 Z" fill="#CA4638" id="Oval-2" stroke="#262626" stroke-width="0.2"/><path d="M44.206493,26.7342553 C44.4300111,27.5529302 43.8686874,28.6821682 42.530613,29.1125263 C41.1768617,29.7083371 40.2003608,31.0034799 39.7169145,33.0915303 C37.3280014,28.4231396 38.5487542,26.3884319 40.7586503,25.8427993 C42.6489461,25.1936457 43.8140722,25.2383993 44.206493,26.7342553 L44.206493,26.7342553 L44.206493,26.7342553 Z" fill="#FEE94E" id="Shape" stroke="#000000" stroke-width="0.2" transform="translate(41.378656, 29.233859) rotate(0.550949) translate(-41.378656, -29.233859) "/></g></g></g></g></svg>