<?xml version="1.0" ?><svg height="180px" version="1.1" viewBox="0 0 180 180" width="180px" xmlns="http://www.w3.org/2000/svg" xmlns:sketch="http://www.bohemiancoding.com/sketch/ns" xmlns:xlink="http://www.w3.org/1999/xlink"><title/><desc/><defs/><g fill="none" fill-rule="evenodd" id="Page-1" stroke="none" stroke-width="1"><g id="Material" transform="translate(-180.000000, -180.000000)"><g id="Slice" transform="translate(180.000000, 180.000000)"/><g id="circle_algeria" transform="translate(180.000000, 180.000000)"><ellipse cx="89.9972382" cy="90" fill="#FFFFFF" id="path-1" rx="89.9972382" ry="90"/><path d="M89.9972382,180 C40.2931336,180 0,139.70563 0,90 C0,40.2943701 40.2931336,1.42108547e-14 89.9972382,1.42108547e-14 L90.0027619,180 Z" fill="#4EAB53" id="Rectangle-3"/><path d="M113.771466,97.2932047 L111.546294,109.861722 L102.715587,99.9662498 L89.825115,101.153672 L96.1986644,90.2482406 L90.4570878,78.4135922 L103.226866,81.5691385 L112.568857,73.067505 L114.087455,85.923167 L125.602692,92.5035162 L113.771466,97.2932047 Z M131.039069,126.58786 C121.891609,136.669162 108.685128,143 94,143 C66.3857611,143 44,120.614239 44,93 C44,65.3857611 66.3857611,43 94,43 C108.685128,43 121.891609,49.3308378 131.039069,59.4121403 C123.766688,53.5222887 114.539898,50 104.5,50 C81.027897,50 62,69.2517546 62,93 C62,116.748245 81.027897,136 104.5,136 C114.539898,136 123.766688,132.477711 131.039069,126.58786 C131.039069,126.58786 123.766688,132.477711 131.039069,126.58786 Z" fill="#F1453D" id="Star-1"/></g></g></g></svg>