<?xml version="1.0" ?><svg height="180px" version="1.1" viewBox="0 0 180 180" width="180px" xmlns="http://www.w3.org/2000/svg" xmlns:sketch="http://www.bohemiancoding.com/sketch/ns" xmlns:xlink="http://www.w3.org/1999/xlink"><title/><desc/><defs/><g fill="none" fill-rule="evenodd" id="Page-1" stroke="none" stroke-width="1"><g id="Material" transform="translate(-180.000000, -180.000000)"><g id="Slice" transform="translate(180.000000, 180.000000)"/><g id="circle_ecuador" transform="translate(180.000000, 180.000000)"><path d="M167.959604,135 L12.0403964,135 C27.6018377,161.901074 56.6873022,180 90,180 C123.312698,180 152.398162,161.901074 167.959589,135.000025 Z" fill="#F1453D" id="Rectangle-3-copy-2"/><path d="M12.0403964,135 L167.959604,135 C175.617252,121.762218 180,106.392932 180,90 L0,90 C0,106.392932 4.38274789,121.762218 12.0404109,135.000025 Z" fill="#2B98F0" id="Rectangle-3-copy-3"/><path d="M0,90 L180,90 C180,40.2943701 139.70563,0 90,0 C40.2943701,0 0,40.2943701 0,90 Z" fill="#FEE94E" id="Rectangle-3"/><g id="ecuador" transform="translate(48.000000, 42.000000)"><g id="flag" stroke="#262626" stroke-width="0.1" transform="translate(0.000000, 12.000000)"><path d="M34.0817477,39.4429734 L41.0627493,32.4619718 L16.2913386,7.41379109 C16.2913386,7.41379109 14.8352294,8.8699003 12.4731621,7.21580281 C14.9750511,7.4317946 15.3968846,6.51933734 15.3968846,6.51933734 L13.4956899,5.86816278 L12.4990033,2.65427956 L15.4939663,3.86988636 L16.1957504,5.72047153 C16.1957504,5.72047153 17.1650712,5.10129817 16.7036512,2.98531372 C18.9471783,4.87649406 17.0902043,6.61492542 17.0902043,6.61492542 L42,31.5247211 L66.9097957,6.61492542 C66.9097957,6.61492542 65.0528217,4.87649406 67.2963488,2.98531372 C66.8349288,5.10129817 67.8042496,5.72047153 67.8042496,5.72047153 L68.5060337,3.86988636 L71.5009967,2.65427956 L70.5043101,5.86816278 L68.6031154,6.51933734 C68.6031154,6.51933734 69.0249489,7.4317946 71.5268379,7.21580281 C69.1647706,8.8699003 67.7086614,7.41379109 67.7086614,7.41379109 L42.9372507,32.4619718 L42.9372507,32.4619718 L48.9182523,38.4429734 L48.9182523,38.4429734 L72.9027201,14.4075368 L72.406398,13.928244 L72.1370387,12.0273603 L74.0149472,12.2625426 L74.5112693,12.7418353 L75.0031074,12.232522 L75.0825455,10.9936069 L78.7755416,9.27206987 L77.0737778,12.9165176 L75.9485489,13.1455243 L75.4567108,13.6548375 L75.7328877,13.9215385 C75.7328877,13.9215385 75.460379,14.2037296 75.291527,14.3785809 C75.2245501,14.4479375 77.4663832,15.3645298 79.3383563,14.4808455 C79.3383563,14.4808455 80.8089894,16.0033012 78.7779367,18.106518 C76.7468839,20.2097348 75.1506897,18.8173012 75.1506897,18.8173012 C76.5809276,17.5369519 74.6116348,15.0826299 74.6116348,15.0826299 L74.1243385,15.58724 L73.8481616,15.320539 L49.8474846,39.3722057 L74.0514247,63.5761457 L74.3318791,64.5868889 L75.3968248,64.9215458 L76.6033427,67.2433744 L74.2815139,66.0368567 L73.8981578,65.0206102 L72.9361139,64.6914565 L48.8676726,40.3540993 L41.929305,47.3072074 L66.7572587,72.1879224 L66.9721775,73.1465627 L68.1768827,73.6586904 L69.1020714,75.5155376 L67.2314412,74.5716927 L66.6494,73.4582653 L65.7897677,73.078796 L41.00106,48.2374245 L17.2102323,72.078796 L16.3506,72.4582653 L15.7685588,73.5716927 L13.8979286,74.5155376 L14.8231173,72.6586904 L16.0278225,72.1465627 L16.2427413,71.1879224 L40.0728152,47.3072077 L34.137877,41.3596606 L11.0638861,64.6914565 L10.1018422,65.0206102 L9.7184861,66.0368567 L7.3966573,67.2433744 L8.60317524,64.9215458 L9.66812091,64.5868889 L9.94857533,63.5761457 L33.1525154,40.3722057 L9.1518384,16.320539 L8.87566147,16.58724 L8.38836517,16.0826299 C8.38836517,16.0826299 6.41907237,18.5369519 7.84931032,19.8173012 C7.84931032,19.8173012 6.25311607,21.2097348 4.22206333,19.106518 C2.1910106,17.0033012 3.66164371,15.4808455 3.66164371,15.4808455 C5.53361681,16.3645298 7.7754499,15.4479375 7.70847301,15.3785809 C7.53962105,15.2037296 7.26711226,14.9215385 7.26711226,14.9215385 L7.5432892,14.6548375 L7.05145109,14.1455243 L5.92622222,13.9165176 L4.22445841,10.2720699 L7.91745447,11.9936069 L7.99689257,13.232522 L8.48873068,13.7418353 L8.98505283,13.2625426 L10.8629613,13.0273603 L10.593602,14.928244 L10.0972799,15.4075368 L34.0817477,39.4429734 Z M35.0619521,40.4252609 L42,33.4096944 L47.9435974,39.4196995 L41.0010603,46.3769901 L35.0619521,40.4252609 Z" fill="#AFBAC0" id="Rectangle-2"/><path d="M65.5060068,8 L65.506005,23.7174396 L70.581039,18.5649133 L70.581039,37.8515939 C70.581039,37.8515939 73.9810328,62.1990631 61.409649,63.8928289 C56.9421544,64.4947427 47.9284066,61.9786838 47.9284066,61.9786838 C47.9284066,61.9786838 53.6707799,68.9641482 52.0913164,69.8479552 C51.4405576,70.2120948 47.3233332,70.225636 47.3233332,70.225636 L47.3233332,74 C47.3233332,74 37.5558317,73.0608071 34.3202006,74 C33.9824679,74 34.3202004,70.7861421 34.3202004,70.7861421 C34.3202004,70.7861421 30.002462,71.1406978 29.334384,70.7668671 C27.7549204,69.88306 32.6462485,62.7995037 32.6462485,62.7995037 C32.6462485,62.7995037 25.2212938,66.8376019 16.7111768,61.9786838 C8.49687566,57.2886642 11.5583788,32.5307811 11.5583788,32.5307811 L11.5583788,17.4854959 L17.2596457,23.5060183 L17.2596456,8 L41,29.3231873 L65.5060068,8 Z" fill="#FEE94E" id="Path-29"/><path d="M41.9269437,26.7855601 L59.9314419,13 L60.3952871,29.0407402 L65.5,23.9229755 L65.0845895,42.3609357 C65.0845895,42.3609357 65.5,57.8799825 52.2347344,61.0595108 C48.5923828,61.93254 43.4291596,61.5898769 43.4291596,61.5898769 L45.7321663,71.3816366 C45.7321663,71.3816366 49.5639181,74.4626855 48.2591364,75.3393687 C46.9543546,76.216052 41.0720699,74.792658 41.0720699,74.792658 C40.5885562,74.792658 35.4671679,76.6406785 34.1623862,75.7639952 C32.8576045,74.887312 35.749042,71.7245399 35.749042,71.7245399 L38.525192,61.5898769 C38.525192,61.5898769 32.8670489,63.7153442 25.4960982,59.5001009 C16.0495131,54.0978595 17.5937443,37.7714974 17.5937443,37.7714974 L17.5937443,23.9229754 L22.0239052,29.0407402 L22.0239052,13 L40.3643403,26.7855601 L41.9269437,26.7855601 Z" fill="#2B98F0" id="Path-29"/><path d="M41.8252797,29.7251199 L57.6311915,16 L57.6311915,26.8556449 C57.6311915,28.3580334 54.5500883,34.9911828 54.5500883,34.9911828 L62,26.8556449 L62,40.7375008 C62,40.7375008 60.9557515,50.3184933 56.1121017,53.9147145 C51.2684519,57.5109366 42.5177567,61.6329594 42.5177567,61.6329594 L43.4161323,75.7847497 C43.4161323,75.7847497 45.6494962,77.8789173 44.5328142,78.7577107 C43.4161323,79.6365042 41.3635167,77.8420776 41.3635167,77.8420776 C40.9497072,77.8420776 38.8970915,79.6365042 37.7804096,78.7577107 C36.6637277,77.8789173 38.8970915,75.7847497 38.8970915,75.7847497 L39.7954672,61.6329594 C39.7954672,61.6329594 31.9887538,57.5109366 27.145104,53.9147145 C22.3014542,50.3184933 21,40.7375008 21,40.7375008 L21,26.8556449 L27.7631355,34.9911828 C27.7631355,34.9911828 25.7121966,28.7009772 25.7121966,27.1985887 L25.7121966,16.3429438 L40.4879441,29.7251199 L41.8252797,29.7251199 Z" fill="#F1453D" id="Path-29"/><path d="M59.7716128,29 C59.7716128,29 59.8399851,23.9357312 54.3420091,15.4460434 C56.5166373,17.870997 58.6823544,21.6383537 58.6823544,21.6383537 C58.6823544,21.6383537 54.5275216,12.3101885 53,10.9911185 C55.4463352,12.9302757 58.8275241,19.6427945 58.8275241,19.6427945 C58.8275241,19.6427945 57.9356058,14.3018871 53,7 C54.8293642,7 60.7289871,20.289404 60.7289871,20.289404 C60.7289871,20.289404 55.7943535,7.55260608 55.0464706,7.36107402 C55.9670665,7.36107402 60.8067565,18.1911124 60.8067565,18.1911124 C60.8067565,18.1911124 58.102648,9.13085709 57.1112495,8.08389351 C58.102648,8.75064666 61.3394773,16.5964108 61.3394773,16.5964108 C61.3394773,16.5964108 59.7824681,10.1682525 58.102648,7.55260608 C59.7824681,8.87184398 62.4042706,16.73003 62.4042706,16.73003 C62.4042706,16.73003 62.0925448,11.439985 60.8067565,8.33703141 C65.395154,18.1911124 63.6900589,25.2554727 63.6900589,25.2554727 L59.7716128,29 Z" fill="#57BB63" id="Path-33"/><path d="M17.2601691,19.2770622 C17.2601691,19.2770622 16.1101019,22.8571254 18.645975,24.3327347 C21.0237117,26.4406017 22.5160917,28 22.5160917,28 C22.5160917,28 22.4217617,26.2528868 21.3113579,25.7900844 C21.3113579,25.7900844 23.6125273,25.4574879 23.6125273,24.5893921 C22.754245,24.8399061 21.0426813,24.5893921 21.0426813,24.5893921 C21.0426813,24.5893921 23.3612683,23.8806832 23.9841564,22.3049025 C21.6198707,23.5160045 20.2226275,23.5856297 20.2226275,23.5856297 C20.2226275,22.3049025 23.7092453,21.7773015 24.4311458,21.3419254 C23.3428159,20.9147888 21.0237118,21.5204252 21.0237118,21.5204252 C21.8991356,21.1009182 23.1087326,21.1522124 23.9841564,20.7327055 C24.6442824,20.4163702 24.9702352,19.6292339 25.6303612,19.3128987 C24.9971152,19.38571 24.2457733,19.6783162 23.6125273,19.7511275 C22.9753362,19.8243924 22.456241,19.6778626 21.8190499,19.7511275 C22.291741,19.4586939 21.7331762,17.6446322 22.2427588,17.5 C22.5872207,17.4022331 22.99388,17.932476 23.6125273,18.2480436 C24.1688783,18.5318344 24.9415494,18.6109692 25.2288985,18.4331987 C26.124343,17.8792258 26.8486329,16.6395416 27.7440774,16.0855687 C27.1331953,16.1917103 26.2412436,15.9794272 25.6303615,16.0855687 C24.4985817,16.2822167 23.6478714,16.7972897 22.5160916,16.9939379 C22.5160916,16.9939379 27.8130579,14.9302692 28.0189625,13.9133668 C27.2156918,14.4437465 25.2288982,14.2350417 25.2288982,14.2350417 L26.7840501,13.2951023 C26.7840501,13.2951023 32.114156,13.0014923 32.4052209,12.4031156 C31.971337,11.6834852 29.0650419,12.371716 29.0650419,12.371716 C29.0650419,12.371716 29.0186426,11.7067327 29.8489983,11.4996953 C30.7975573,11.2631856 32.6828496,11.1649288 33,10.5725546 L30.5222424,10.5725546 C30.5222424,10.5725546 31.7059369,9.74183115 31.971337,9.11571685 C30.9873389,9.11571685 30.2439086,10.0623116 30.2439086,10.0623116 L29.8489987,9.11571685 C29.7113641,9.45268004 29.4932543,9.72534838 29.3556197,10.0623116 C29.0499436,10.8106815 28.8247426,11.6233461 28.5190665,12.371716 L24.6832676,13.7283823 C25.4262352,13.1625495 26.4727241,12.9375488 27.2156918,12.371716 C27.7312621,11.9790655 27.9433112,11.2455829 28.4588815,10.8529323 C27.7229725,11.3472393 26.6358094,11.1891782 25.8999004,11.6834852 C25.3181786,12.0742253 23.6125273,14.178126 23.6125273,14.178126 C23.6125273,14.178126 23.9605982,12.761267 24.5059893,11.9056713 C25.0326901,11.0793963 26.6446355,10.1508235 26.981505,9.74183115 C27.5936685,8.99860528 27.9100071,7.74322588 28.5221706,7 C27.82428,7.69247161 26.597791,7.86197788 25.8999004,8.55444949 C25.405761,9.04475194 24.6832676,11.1131734 24.6832676,11.1131734 L23.9841561,8.36161516 C23.834988,9.33530497 22.9765319,10.5260055 22.8273637,11.4996953 C22.6930245,12.3765893 23.1336341,13.9133668 23.1336341,13.9133668 L22.2427589,16.7268709 C21.9814462,17.2174409 21.0234182,17.3334087 20.7621055,17.8239787 C20.242221,18.7999736 20.4190517,20.1505705 19.8991672,21.1265653 C20.3548695,21.1265653 20.1148073,19.9643112 20.2226274,19.3831842 C20.3642932,18.619636 19.8912344,16.7268709 19.8912344,16.7268709 C19.8912344,16.7268709 20.7308575,16.0976887 21.3113579,14.2350417 C21.7174185,12.9321183 21.8684251,10.512688 22.0625489,9.46640229 L20.7621055,12.0882666 C20.7621055,12.0882666 19.6558406,10.0623116 19.5908271,9.55496957 C18.9955643,10.5430984 19.3947517,12.0882666 19.8912344,13.2951023 C20.3877172,14.5019381 19.8912344,14.6529632 19.8912344,14.6529632 C19.6192808,14.4946842 19.3473272,14.3364052 19.0753736,14.1781262 C18.8177916,14.0282115 18.5602096,13.8782969 18.3026276,13.7283823 C18.3711662,13.9438234 18.5718774,14.7700023 18.881024,15.3125249 C19.1810833,15.8391003 19.590827,16.0855687 19.590827,16.0855687 C19.590827,16.0855687 19.7615208,18.3142022 19.8912344,18.7219383 L18.1726006,15.1353903 C18.3139553,16.2683826 18.0312459,17.9310989 18.1726006,19.0640912 C18.3711442,20.6554669 19.1922958,23.3084943 19.1922958,23.3084943 L17.2601691,19.2770622 Z" fill="#57BB63" id="Path-34"/><polygon fill="#2B98F0" id="Triangle-1" points="71 15.7039668 72 15 72 28 71 28 "/><polygon fill="#F1453D" id="Path" points="70 16.7039668 71 16 71 29 70 29 "/><polygon fill="#2B98F0" id="Triangle-1" points="66 7.70396678 67 7 67 20 66 20 "/><polygon fill="#F1453D" id="Path" points="65 8.70396678 66 8 66 21 65 21 "/><g id="Group" transform="translate(14.500000, 18.500000) scale(-1, 1) translate(-14.500000, -18.500000) translate(11.000000, 6.000000)"><polygon fill="#2B98F0" id="Triangle-1" points="6 11.7039668 7 11 7 24 6 24 "/><polygon fill="#F1453D" id="Path" points="5 12.7039668 6 12 6 25 5 25 "/><polygon fill="#2B98F0" id="Triangle-1" points="1 0.703966776 2 0 2 13 1 13 "/><polygon fill="#F1453D" id="Path" points="0 1.70396678 1 1 1 14 0 14 "/></g></g><g id="oval" transform="translate(19.000000, 22.000000)"><ellipse cx="22" cy="23" fill="#AFBAC0" id="Oval-1" rx="17" ry="23" stroke="#E5B731" stroke-width="0.1"/><path d="M22,44 C30.2842717,44 37,34.5979803 37,23 C37,11.4020197 30.2842717,2 22,2 C13.7157283,2 7,11.4020197 7,23 C7,34.5979803 13.7157283,44 22,44 Z" fill="#4086CD" id="Oval-1" stroke="#262626" stroke-width="0.1"/><path d="M7,24.370464 C7.24069702,31.5936716 9.36336923,34.8724005 9.36336923,34.8724005 C10.4511228,35.6471008 13.6516335,32.6031857 15.5810572,33.5199426 C15.5810572,32.6031857 11.1295473,31.7716013 11.1295473,31.7716013 C11.1295473,31.7716013 14.597185,31.5668185 16.083997,31.1544854 C16.083997,30.7993263 14.504163,30.6900617 13.3282931,30.3347391 C12.5938514,30.1128065 12.0478588,29.5380539 12.0478588,29.5380539 C12.0478588,29.5380539 13.6743879,29.9091564 14.4483653,29.9056483 C15.3251016,29.9016744 17,29.5156077 17,29.5156077 C17,29.5156077 14.8919849,28.1803851 14.2502981,27.4359549 C13.9754176,27.117062 14.2502981,26.3256382 14.2502981,26.3256382 C14.2502981,26.3256382 13.3100414,26.233072 12.8549018,25.9478969 C12.0728012,25.4578593 10.5385776,24 10.5385776,24 C10.5385776,24 8.52497878,24.370464 7,24.370464 Z M25.3078385,23 L15,25.8410637 C15,25.8410637 15.5338585,25.8194934 15.9250314,26.2996054 C16.2981468,26.7575543 16.5135644,27.7080631 17.1389633,28.1089505 C17.8802628,28.5841314 19.0100713,28.5597413 19.7725155,28.7128276 C20.1212168,28.7828411 20.2230243,29.0490435 20.4768319,29.1354436 C21.934869,29.631782 24.6775246,29.1354436 24.6775246,29.1354436 C24.6775246,29.1354436 21.0635546,30.2755805 21.5556851,30.5109051 C22.8278734,31.119234 30.1341593,31.5305397 30.1341593,31.5305397 C30.1341593,31.5305397 26.9069439,32.8604689 27.3571263,33.1858945 C27.8019782,33.5074668 29.2816349,33.5945719 30.6874008,33.9022841 C31.6409789,34.1110156 32.394059,34.7108194 33.1003996,34.9114676 C33.8016355,35.1106657 34.7332102,34.9114673 34.7332102,34.9114673 C34.7332102,34.9114673 35.8764,32.4057179 36.3378106,30.510905 C36.6839646,29.0894017 37,25.3439128 37,25.3439128 L25.3078385,23 Z" fill="#57BB63" id="Path-15" stroke="#262626" stroke-width="0.1"/><path d="M7.52218171,19.5254952 C6.92018266,21.8152052 7.00397313,23.3145966 7.00397319,24.6813151 C7.00397321,24.8343989 9.04767228,24.870814 10.6654439,25.0748551 C11.547654,25.1861236 12.7993566,25.6173693 12.7993566,25.6173693 C12.7993566,25.6173693 11.1007541,24.1946564 11.5500608,23.7096037 C13.304852,21.8152052 15.4213677,21.3853344 15.4213677,21.3853344 C15.4213677,21.3853344 12.1004032,22.9738159 12.7993566,24.0718232 C13.1221843,24.5789631 14.0858801,25.5422861 14.9457425,25.8095641 C16.2926682,26.2282399 17.4876879,25.8288388 17.8763028,25.8095641 C20.2150247,25.6935668 22.0046245,25.0748551 22.0046245,25.0748551 C22.0046245,25.0748551 23.6457728,25.0917421 25.4723556,25.0748551 C26.7238967,25.0632844 27.9007403,25.1951198 29.0635065,25.2838404 C30.4716261,25.3912818 30.556642,25.7713248 31.6078879,25.8095641 C32.2673826,25.8335533 32.882356,25.4705344 33.5418507,25.4945236 C34.0901456,25.5144679 34.4413243,25.597425 34.9896192,25.6173693 C35.5670527,25.6383735 36.919036,25.6173693 36.919036,25.6173693 C36.919036,25.6173693 37.1253363,22.8650225 36.8793185,21.9358364 L34.9896192,20.7464783 L32.6988061,21.8152052 L16.6033735,18 L7.52218171,19.5254952 Z" fill="#4D7277" id="Path-14" stroke="#262626" stroke-width="0.1"/><path d="M10.5807488,20.3848742 C9.67495167,20.3841547 8.00000007,20.3848743 8,20.1142057 C7.99999996,19.8435372 11.5507048,18.1852659 12.3096698,17.3659876 C13.0686348,16.5467093 15.7844111,14.7541542 16.6444376,15.0282166 C17.5044641,15.3022789 18.8825144,15.634838 18.8825144,15.634838 L20.3258195,16.349727 C20.3258195,16.349727 22.1526228,16.0590205 22.7546415,16.349727 C23.35666,16.6404335 23.7423334,18.0320752 24.5049795,18.0320752 C25.2676255,18.0320753 27.4352604,20.1096811 27.4352604,20.1096811 L28.8226806,20.1142056 C28.8226806,20.1142056 29.773562,20.5036461 30.4435127,20.9564304 C31.1134633,21.4092147 33,22 33,22 C33,22 27.9419064,21.9014283 27.3803793,21.4783767 C27.1349987,21.2935082 26.3844828,21.7437058 25.5846976,21.7643971 C24.5542606,21.7910557 23.4610679,21.4240813 23.4610679,21.4240813 C23.4610679,21.4240813 22.6176802,21.8367209 21.6844606,21.7643971 C20.3848385,21.6636776 18.8718059,20.9564302 18.8718059,20.9564302 C18.8718059,20.9564302 17.3784719,21.6383539 16.1754387,21.4240811 C14.9724055,21.2098083 13.4399186,20.1142057 13.4399186,20.1142057 C13.4399186,20.1142057 11.5734797,20.3856629 10.5807488,20.3848742 Z" fill="#FFFFFF" id="Path-13" stroke="#262626" stroke-width="0.1"/><path d="M8.14657548,11.7994443 C8.14657548,11.7994443 13.2910696,7.99999968 21.8281166,8 C30.3651636,8.00000031 35.2444564,11.419876 35.2444564,11.419876 L37,16 C37,16 30.7785758,11.4198764 21.8281166,11.419876 C12.8776574,11.4198757 7,16 7,16 L8.14657548,11.7994443 Z" fill="#AFBAC0" id="Path-11"/><path d="M21.488859,7.84274973 L22,6 L22.511141,7.84274973 L23.7996084,6.40482381 L23.438031,8.23848244 L25.1903524,7.48271844 L24.0422686,9.02944855 L26,9.10019579 L24.272232,10 L26,10.8998042 L24.0422686,10.9705515 L25.1903524,12.5172816 L23.438031,11.7615176 L23.7996084,13.5951762 L22.511141,12.1572503 L22,14 L21.488859,12.1572503 L20.2003916,13.5951762 L20.561969,11.7615176 L18.8096476,12.5172816 L19.9577314,10.9705515 L18,10.8998042 L19.727768,10 L18,9.10019579 L19.9577314,9.02944855 L18.8096476,7.48271844 L20.561969,8.23848244 L20.2003916,6.40482381 L21.488859,7.84274973 L21.488859,7.84274973 Z" fill="#E5B731" id="Triangle-1"/><path d="M15,1.90724597 C15,1.90724597 19.178628,-0.0110101703 22.2453151,4.7623958e-05 C25.3120023,0.0111053453 29,1.90724597 29,1.90724597 L29,5 C29,5 26.5695111,2.62082641 22.2453151,2.59086795 C17.9211192,2.5609094 15.2188482,5 15.2188482,5 L15,1.90724597 Z" fill="#C27200" id="Path-36" stroke="#262626" stroke-width="0.1"/><path d="M7.8399606,49.4814871 L7.8399606,49.0975559 L7.13249533,49.0975559 C7.13249533,49.0975559 7.53338675,45.9760499 9.4642261,46.1154716 C9.4642261,46.1154716 9.35613649,43.9999999 6.40741854,44 C3.45870059,44.0000001 3.38449853,46.1154716 3.38449853,46.1154716 C5.33703926,46.8481977 6.24265423,49.0975559 6.145416,49.0975559 C5.90027377,49.0975559 5.50464076,49.0975559 5.50464076,49.0975559 L5.50464076,49.4814871 L4.7905816,49.4814871 L3.83613782,48.8311466 L0,50.1386462 L3.83613782,51.5992851 L4.7905816,50.7958054 L5.50464076,50.7958054 L5.50464076,51.4857744 L6.64963942,53 L7.8399606,51.4857744 L7.8399606,50.7958054 L40,50.7958054 L40,49.4814871 L7.8399606,49.4814871 Z" fill="#AFBAC0" id="Rectangle-2" stroke="#262626" stroke-width="0.1"/><rect fill="#C27200" height="8" id="Rectangle-1" rx="2" stroke="#262626" stroke-width="0.1" width="24" x="10" y="46"/><path d="M18.5360068,44.6087588 C18.6411994,44.1777314 18.5360068,43.0224556 18.5360068,43.0224556 C18.5360068,43.0224556 20.8644544,43.5004743 22,43.4968719 C23.2239107,43.4929891 25.6143759,43 25.6143759,43 C25.6143759,43 25.550723,43.8699212 25.6143759,44.2977321 C25.6792643,44.733847 26,45.5917775 26,45.5917775 C26,45.5917775 24.6613437,46.3281227 24.1366871,46.8020333 C23.4036194,47.4641969 22.2268272,49 22.2268272,49 C22.2268272,49 21.052065,47.454195 20.3230542,46.8020333 C19.6431227,46.1937771 18,45.2187465 18,45.2187465 C18,45.2187465 18.4625305,44.9098284 18.5360068,44.6087588 Z" fill="#C27200" id="Path-35" stroke="#262626" stroke-width="0.1"/></g><g id="ship" transform="translate(33.000000, 57.000000)"><path d="M7,1.78289795 L6.95679497,1.17512471 L6.80710483,1.17512471 L6.80710483,1.25627154 L6.38029152,1.21569813 L6.35890722,1.35770509 L6.25198569,1.35770509 L6.22012743,1.17512471 L6.08091123,1.18547507 L6.08091123,1.25627154 L5.92074714,1.25627154 L5.91070961,1.11426458 L5.77149341,1.11426458 L5.77149341,1.00289469 L5.60085537,0.992544326 L5.56856071,0.608338898 L5.48302348,0.608338898 L5.48302348,0.0808844635 L5.365628,0.0709481162 L5.39748625,1.19541142 L5.33333333,1.20534776 L5.33333333,1.32706802 L5.4079602,1.32706802 L5.37610195,1.70216513 L7,1.78289795 Z M5.33333333,0.976439572 L5.21032521,1.00827676 L5.12551979,1.00827676 L5.05924134,0.944581462 L5.04997533,0.992575716 L4.73825628,1.00826421 L4.70033888,0.848542752 L4.51162543,0.879919748 L4.5020817,0.99212807 L4.26619241,1.00781657 L4.22856535,0.864252168 L4.16228438,0.864252168 L4.16228438,0.0641387639 L4.05866669,0.080329294 L4.01119798,1.03968305 L3.91684378,1.05537154 L3.91684378,0.927491458 L3.79412348,0.911300928 L3.77533899,1.15138097 L3.63351608,1.11954378 L3.64308506,0.895624981 L3.51081345,0.895624981 L3.49202896,1.15138934 L2.6894262,1.18276633 L2.72734613,0.0318371922 L2.595072,0 L2.60433801,1.1514228 C2.60433801,1.1514228 2.08509324,0.863808707 2,0.719759009 L2.3117241,1.34251708 C2.31149434,1.34419052 3.3502111,1.67961061 5.32415317,1.71194983 L5.33333333,0.976439572 Z" fill="#2F2311" id="polygon5597"/><path d="M6.99385511,1.47284092 L4.73475383,1.44219727 C4.73475383,1.44219727 3.18758017,1.40194733 2.42889364,1.32144535 C1.67042962,1.24094547 0.808354658,1.00710155 0.808354658,1.00710155 C0.815817607,1.25699695 0.977881744,1.38589585 1.11038945,1.51504354 C1.12756014,1.53159472 1.15959766,1.54961337 1.20226052,1.56788503 C1.48781382,1.69159929 2.26726861,1.84469665 2.51715531,1.89358694 C2.80428784,1.95013715 3.82821033,2.01433886 4.5207582,2.00643857 C5.21285515,1.99853196 12.2473658,1.89358694 12.2473658,1.89358694 C12.5200489,1.94173927 15.9746716,1.66813879 15.9746716,1.66813879 C15.9845172,1.65209363 15.9963319,1.62344428 16.0089736,1.5898612 C16.0439648,1.49676977 16.0848239,1.359473 16.1010691,1.30342037 C16.105795,1.28788124 16.1083548,1.27872644 16.1083548,1.27872644 L13.0259778,1.32885226 L11.9899903,1.36413949 L11.9899903,0.694702134 C10.3718127,0.717849237 7.00821758,0.694702134 7.00821758,0.694702134 L6.99385511,1.47284092 Z" fill="#FFE600" id="path5365"/><path d="M15.9484343,1.61913131 C15.9484343,1.61913131 12.4862418,1.94454327 12.2129612,1.88732647 C12.2129612,1.88732647 5.16348648,2.01173925 4.46942308,2.02142279 C3.77535769,2.0308182 2.74919158,1.9542243 2.46165486,1.88732647 C2.21099564,1.8289321 1.42960596,1.64700938 1.1436539,1.5 L1,1.52317535 C1,1.52317535 1.31015815,1.84712162 1.52235917,2.00879786 C1.58773694,2.0583881 1.64429546,2.09330646 1.67913441,2.09771103 C1.82640758,2.1170781 2.18113172,2.30839123 2.35826881,2.30839123 C2.53540394,2.30839123 4.69089921,2.5 4.69089921,2.5 C4.69089921,2.5 8.11620822,2.46155899 8.7066606,2.48063293 C9.29711496,2.5 13.5490585,2.44248505 13.5490585,2.44248505 C13.5490585,2.44248505 13.1947863,2.51936206 13.6081055,2.44248505 C14.0216556,2.36560553 15.3652066,2.23180234 15.5570438,2.17428989 C15.6176873,2.15610038 15.6844287,2.08420669 15.7470851,1.99471226 C15.8826006,1.8007584 16,1.52346598 16,1.52346598" fill="#034EA2" id="path5665"/><path d="M8.68222669,2.53656782 C8.09809315,2.51792474 4.7094408,2.55578262 4.7094408,2.55578262 C4.7094408,2.55578262 2.577013,2.36568036 2.40154901,2.36568036 C2.2265321,2.36568036 1.87582668,2.17615976 1.7296825,2.15694495 C1.69544091,2.15229661 1.63948766,2.11764285 1.5750321,2.068445 L1.67283705,2.17237397 L1.6547196,2.2434066 C1.74580664,2.48009171 2.48257774,2.98606247 2.48257774,2.98606247 L4.85246323,3.068445 C4.85246323,3.068445 15.3474121,2.74937735 15.3474121,2.67834473 C15.3474121,2.60730961 15.5750321,2.26698885 15.5750321,2.26698885 C15.5750321,2.26698885 15.5195279,2.21487771 15.4593186,2.23263587 C15.2690659,2.28969364 9.26658474,2.55578013 8.68222669,2.53656782 Z" fill="#ED1C24" id="path6031"/></g><g id="bird" transform="translate(7.000000, 0.000000)"><path d="M41.6959121,15.4193281 C41.8831288,15.3060628 41.8792552,14.4098584 41.8580565,13.8540081 C42.3747561,14.6313979 43.1603777,15.0402307 43.4852471,14.9963078 C43.7527329,14.9601626 43.7263547,14.107305 43.6780081,13.5352175 C44.3910073,14.3626369 45.110902,14.5251381 45.4486417,14.403255 C45.709866,14.3091157 45.5575734,13.6291559 45.3898821,13.0901385 C46.3888137,13.6953454 47.1631325,13.3497777 47.3332378,13.2074009 C47.489944,13.0761155 47.0782321,12.2829442 46.7698593,11.7422407 C47.8526859,12.4424788 48.8815805,12.4394403 49.1414034,12.2556571 C49.3614336,12.0999891 48.8785299,11.3066116 48.436299,10.6704471 C49.7443949,11.386819 50.8967692,11.4165881 51.0207284,11.2003794 C51.1225624,11.0233215 50.635274,10.2836149 50.1974212,9.68026031 C53.3097114,11.7781542 53.6218834,10.5627068 53.6218834,10.5627068 L52.8875384,9.54854475 C54.3672801,10.0175121 55.5039541,10.1329642 55.6159304,10.0417824 C55.6966218,9.97614183 55.4685229,9.7156099 55.1602289,9.42219536 C57.5859328,10.2177776 58.295161,9.71307486 58.5437195,9.62893965 C58.7664949,9.55331373 58.2133027,9.09352629 57.7323532,8.7359574 C59.1187297,9.20428281 60.0808647,9.45522666 60.0808647,9.45522666 C61.9255398,9.52300851 61.456885,9.00132434 60.6195686,8.5004176 C62.6484165,9.12989751 64.1119096,9.37063888 64.0304188,9.12642647 C63.926388,8.81393581 63.1032907,8.21852492 62.3914885,7.75058031 C63.9081104,8.41395208 64.9442296,8.71842908 65.6168178,8.86325575 C67.0260824,9.16671482 66.3841776,8.65120373 66.3841776,8.65120373 L64.5655512,7.65197299 C65.3997682,7.96258887 66.02768,8.13567119 66.4864095,8.2344642 C67.8959224,8.53792142 67.2539985,8.02241218 67.2539985,8.02241218 L64.7215514,6.63097796 C65.8574151,7.40293444 69,7.96847861 69,7.96847861 C69,7.96847861 66.1389777,6.10008059 65.4103678,5.8312783 C64.681968,5.56247786 58.0397409,2.99250885 58.0397409,2.99250885 L57.7271069,3.0706182 L54.3522568,2.1422516 L48.947358,1.24064631 L43.6556054,1.43570506 L41.9056964,4.4198645 L38.6386359,5.73663193 L36.5855951,6.05787714 L30.4921219,6.52192441 L28.5964909,5.85824286 L26.9022845,4.94820909 L26.2525029,3.38219967 L25.0277905,1.33215527 L19.7111705,1.12337012 L16.869324,1.30884115 L16.7061686,1 C16.7061686,1 15.95404,1.31194729 14.8315165,1.77587472 L14.5840443,1.68683829 L12.5613831,2.66308207 L10.9317934,2.61649043 C5.47334208,4.46561168 0,8.14890694 0,8.14890694 C0.0774487235,8.12335535 0.426740114,7.99115745 0.967556537,7.78372129 C1.19244301,7.7574044 1.76715867,7.685234 2.45697048,7.56109266 C2.45365601,7.69209341 2.62070307,7.84878963 3.41667829,7.86819236 C3.76604893,7.8767087 4.20868188,7.85967196 4.75470844,7.7861019 C4.53949017,7.94782399 4.38389755,8.09586518 4.33532528,8.21128878 C4.22719668,8.46774694 5.96700999,8.3009899 8.30704747,7.73457335 C7.56147889,8.17060132 7.25634258,8.61021444 8.96555126,8.64362285 C8.96555126,8.64362285 10.0572769,8.42353166 11.6013105,7.98722091 C11.1614053,8.36975881 10.702226,8.82291857 10.9162495,8.8844837 C11.1806517,8.96064743 11.9741606,9.4738247 14.6339546,8.3848564 C14.1751981,8.79533222 13.7046197,9.26033492 13.8171199,9.349958 C13.9319095,9.44152485 15.0960885,9.31294095 16.5986028,8.81681484 L15.7816126,9.91701872 C15.7816126,9.91701872 16.050036,11.1438359 19.235153,9.17150877 C18.7759636,9.75705822 18.2624515,10.476904 18.3578027,10.6577943 C18.4727505,10.8758773 19.5962892,10.8943918 20.9063847,10.2571934 C20.4586084,10.8794725 19.9903791,11.627761 20.1979385,11.7869333 C20.451131,11.9809846 21.4793234,12.0250253 22.5864812,11.368429 C22.2590199,11.8965027 21.8194508,12.6724965 21.9713017,12.80994 C22.1817184,13.0000213 23.3640113,13.5602411 24.8146622,12.0614433 C24.7627393,12.365576 24.3893628,14.6577082 24.9142287,14.7482989 C25.455138,14.841869 26.949768,14.0811159 27.6464898,12.5956694 C27.6556382,12.6010653 27.4584345,13.1452373 27.4584345,13.1452373 C27.4584345,13.1452373 27.2576739,15.0680016 27.5254305,15.2443149 C27.7732285,15.4076884 28.3647482,15.4803432 29.0879184,14.287731 C29.065506,14.9595186 29.0564635,15.7453704 29.1313057,15.8442995 C25.9623975,17.9785383 24.7178708,26.2725875 24.9142294,24.8332874 C24.9142294,24.8332874 33.8526913,19.8255324 36.585594,17.1276813 L40.0446307,14.2484217 C40.7930854,15.6258769 41.4308982,15.5795739 41.6959121,15.4193281 Z" fill="#452C25" id="path6119" stroke="#262626" stroke-width="0.1"/><path d="M30.0106445,6.71143622 C28.657017,6.789481 27.3222537,5.88712166 27.3222537,5.88712166 C25.645464,5.55739545 25.5478366,4.03606851 25.5478366,4.03606851 C24.8769469,3.77966472 24.2999548,2.05096476 24.2999548,2.05096476 C23.2607091,2.67353127 21.9601718,2.05772471 21.9601718,2.05772471 C21.9601718,2.05772471 21.9601718,1.80132093 20.7866632,2.05772471 C19.6129307,2.3141285 19.8141107,1.83798214 19.8141107,1.83798214 C19.8141107,1.83798214 20.2836022,1.36161109 18.2048946,1.83798214 C16.1261851,2.3141285 18.3727271,1.21519094 18.3727271,1.21519094 C17.769189,1.3982723 15.7909585,1.54491714 15.7909585,1.54491714 C15.0650018,1.57775476 14.3282936,1.93716906 13.5259888,2.16658297 C13.0266596,2.30940614 12.1723594,2.47584304 11.7403837,2.66094855 C10.5879343,3.15531028 8.27820904,4.21758663 6.37062178,4.96880346 C3.86278811,5.95640732 1.87534469,6.70784883 2.00610155,6.67613468 C2.16274415,6.63812532 4.72937478,5.00681474 7.94407899,3.5441899 C10.9290841,2.18570095 14.3554979,0.92864968 16.0829663,0.436310167 C18.3246798,-0.309060838 20.1607435,0.0469811661 21.2021823,0.426189445 C21.7050213,0.609270807 24.4791934,0.340495545 25.719399,0.486915697 C26.9600428,0.633335849 27.0892629,2.68051592 27.0892629,2.68051592 C27.3240105,2.82715884 27.4078167,4.75041095 27.4078167,4.75041095 C27.4078167,4.75041095 26.7204686,4.76884718 27.5251886,4.87861189 C28.3299086,4.98859552 29.8050781,6.1608555 29.8050781,6.1608555 C30.3079171,6.1608555 30.3649592,6.14309143 30.3649592,6.14309143 C30.3649592,6.14309143 30.6571852,5.77332979 31.0597614,5.61881306 C31.4619014,5.46407164 31.8309138,5.30933022 32.2832923,5.27514254 C32.7358927,5.24050547 33.3749735,5.23645718 33.8273539,5.28797108 C34.2799524,5.33970199 34.8143841,5.34375028 35.4514879,5.46407933 C36.0885956,5.58440837 36.155505,5.61882075 36.3566869,5.6874208 C36.557865,5.75624363 36.7379858,5.71171054 36.7379858,5.71171054 C37.5663965,5.36421641 39.1027781,4.75019779 39.4564325,4.8205973 C39.4564325,4.8205973 40.0360656,4.67440184 40.3478007,4.4310436 C40.6595548,4.18768537 41.3725705,3.60313014 41.3725705,3.60313014 C41.3725705,3.60313014 40.8804812,0.125938161 44.4007964,0.466685775 C47.9211115,0.807656161 52.5886017,1.26108755 53.5245149,1.40728109 C54.459988,1.55325186 57.8118143,2.51409053 58.6138971,2.90364423 C59.4159799,3.29319792 61.720894,4.32938124 62.746525,4.78461016 C63.1629245,4.96926628 64.7488902,5.67437525 65.9226284,6.1395002 C67.6838768,6.83741328 69,8 69,8 C67.8962486,7.53150084 67.0039886,6.99575168 66.1297181,6.61474587 C65.4226352,6.3066131 64.6830754,6.16334055 64.107622,5.90693677 C62.887379,5.36286827 61.9472937,4.86737923 61.207734,4.52168456 C58.4813872,3.24753944 58.5064003,3.19648261 57.4019982,3.10966525 C56.6407171,3.04961307 57.9489363,4.04148991 57.9489363,4.04148991 C57.9489363,4.04148991 55.4536015,3.06760568 54.6515187,2.72685999 C53.8496464,2.38588768 53.1811834,2.23991691 52.4236342,2.2884983 C51.6660849,2.3373063 51.08667,2.19133553 50.6413151,2.04514199 C50.1957305,1.89894461 47.6556516,1.80178184 47.2098565,1.75297576 C46.7645016,1.70439437 46.4079842,1.60700499 46.4079842,1.60700499 L46.5861377,1.89894461 L45.3384703,1.70439437 L44.9819528,2.23991691 C44.9819528,2.23991691 43.7788382,2.48327706 43.6895414,2.09372337 C43.6004742,1.70439437 42.9765257,3.84648837 42.664561,4.47962499 C42.3525771,5.11253691 40.9291868,4.90269037 40.5726885,5.29224406 C40.2161711,5.68179775 39.4557742,5.9424726 39.2778504,6.03986198 C39.0994845,6.13725137 38.5589135,6.0913682 38.2469392,6.0913682 C37.7827125,6.0913682 38.1782729,6.0983394 37.4167717,6.24363609 C37.4167717,6.24363609 36.7590469,6.23733705 36.5076265,6.13432653 C36.2562079,6.03131602 35.7029064,5.87140093 35.4242836,5.79155478 C35.043865,5.68247183 32.9274197,5.63411514 32.6257607,5.65120898 C32.3238816,5.6683009 31.8135826,5.82506838 31.478356,5.96249127 C31.1433494,6.09991416 30.556266,6.46090322 30.556266,6.54682181" fill="#DCDDDE" id="path7253" stroke="#262626" stroke-width="0.05"/><path d="M38.612058,11.1862872 C38.4504469,11.0381739 38.6767888,10.8902872 38.6767888,10.8902872 C38.6767888,10.8902872 38.2566844,9.81674882 37.9979808,9.63189041 C37.7392772,9.4468054 38.030134,9.29869207 38.030134,9.29869207 C38.030134,9.29869207 37.5776679,8.55835011 37.2544475,8.33652001 C36.9312289,8.11423673 37.2544475,8.07726505 37.2544475,8.07726505 C37.2544475,8.07726505 36.9166331,7.08334072 36.1288917,6.627886 C36.1288917,6.627886 35.6066186,6.43865064 35.0739826,6.27987575 C34.54071,6.12087428 33.2196997,5.97344267 31.6226386,6.00406197 C29.9401175,6.03627129 29.2268312,6.87285196 29.2268312,6.87285196 L29.1193759,8.29297128 L29.3617898,8.1196808 L29.0059937,9.88751599 C28.9497269,10.2919366 29.3076377,10.9946252 29.327522,11.8397564 C29.3336666,12.1071765 29.3495208,12.3870729 29.3782899,12.6737748 C29.4548653,13.4320332 29.6238776,14.2372451 29.9523864,14.9789466 C29.9779798,15.0374661 30.0018848,15.2093951 30.0331911,15.1535967 C30.1154774,15.0052568 30.2999326,15.6541902 30.4659833,15.8869065 C30.4659833,15.8869065 30.5656149,16.769236 30.6451518,16.4421615 C30.6760337,16.3151427 30.9459471,16.9418467 31.1126363,17.3349259 C31.1731323,17.4780484 31.4914868,18.449292 31.47943,18.0069933 C31.4661075,17.5231871 31.7590752,19.0376646 31.7590752,19.254957 L32.1470246,18.6627303 L32.3409956,19.329127 L32.6640056,19.2919287 L32.5671272,19.9211271 C32.5671272,19.9211271 33.472266,19.144042 33.5048418,18.8478153 C33.5367828,18.5518153 33.5693604,18.3297586 33.5693604,18.3297586 L33.8602154,18.0335319 L34.3128937,17.2931919 C34.3128937,17.2931919 35.4445867,18.2186169 35.5736202,18.5518153 C35.7028641,18.884787 35.8325342,19.1810137 35.8325342,19.1810137 L36.1233892,18.884787 L36.3818807,19.5509571 L36.5437021,19.2179853 L36.7006577,19.6804722 L36.817843,19.9571924 C36.8958982,20.0340834 37.0769692,20.0728698 37.4162653,19.4770157 C37.9010968,18.6257586 37.8691558,17.9595886 37.9010968,17.8114752 C37.9334603,17.6633619 38.127435,18.0705036 38.127435,18.0705036 C38.127435,18.0705036 38.5477516,17.2562183 38.4830208,16.7381615 C38.4182919,16.2198782 38.7419256,16.4049632 38.7419256,16.4049632 C38.7419256,16.4049632 38.8064534,15.0354248 38.7419256,14.7022265 C38.6769918,14.3692547 38.967856,14.4434247 38.967856,14.4434247 C38.967856,14.4434247 38.8709628,12.814856 38.7738666,12.629771 C38.6767888,12.4446859 39,12.4077143 39,12.4077143 C39,12.4077143 38.773885,11.3344006 38.612058,11.1862872 L38.612058,11.1862872 Z" fill="#452C25" id="path6255" stroke="#262626" stroke-width="0.1"/><path d="M31.0778847,8.67316643 C31.0778847,8.67316643 30.9655547,7.56145815 31.2839038,7.44150545 C31.2839038,7.44150545 31.3964756,6.42252121 32.7834218,6.56234245 C32.7834218,6.56234245 33.2518688,5.80313423 34.001385,6.20272941 C34.001385,6.20272941 34.713619,5.86323206 35.1259031,6.06290817 C35.5384312,6.26282933 36.0441583,6.60232668 36.0816801,6.68229514 C36.0816801,6.68229514 36.6810941,6.56234245 36.9624092,6.78213424 C37.2437222,7.00192395 37.1125093,7.72115002 37.1125093,7.72115002 C37.1125093,7.72115002 37.7869733,8.22671703 37.8431383,8.67316643 C37.8993033,9.11961584 37.8993033,9.29942131 37.7492054,9.41912895 C37.7492054,9.41912895 38.0491552,9.65903435 37.9929945,9.99853169 C37.9365834,10.3382762 37.6555143,10.8308426 37.5993514,10.8308426 C37.5431842,10.8308426 37.6368753,11.7166284 37.3371673,12.0163866 C37.0372153,12.3161448 36.7561463,12.3759996 36.6251794,12.4159839 C36.4939643,12.4559681 36.1564863,12.9352888 35.8378932,12.9953866 C35.5193002,13.0552394 35.0883771,12.5158209 35.050851,12.3558839 C35.013327,12.1961921 34.582406,12.0163866 34.582406,12.0163866 C34.582406,12.0163866 33.6077419,13.0353708 32.9521608,12.8754339 C32.2960897,12.715742 31.9774967,12.1760785 31.9215798,12.0762415 C31.8651687,11.9764024 31.6777908,11.2373077 31.6777908,11.2373077 C31.6777908,11.2373077 30.9469157,10.8175969 31.0030786,10.4182447 C31.0592458,10.0186474 31.3591999,9.53908165 31.3591999,9.53908165 L31.0778847,8.67316643 L31.0778847,8.67316643 Z" fill="#DCDDDE" id="path6819" stroke="#979797" stroke-width="0.1"/><path d="M26.1177155,10 C26.1177155,10 25.4469795,9.32884771 27.3076499,9 C27.3076499,9 27.8700698,9.17803526 28,9.30131452 C28,9.30131452 27.6755674,9.61639629 26.615302,9.69868548 C26.615302,9.69868548 26.1393273,9.78082014 26.1177155,10 L26.1177155,10 L26.1177155,10 Z" fill="#D9C0B9" id="path7187" stroke="#000000" stroke-width="0.1"/><path d="M26.6056407,8 C26.6056407,8 25.6593271,7.82986115 26.1324839,7.54473039 C26.6056407,7.25959967 26.5083093,7.41074346 26.5083093,7.41074346 C26.5083093,7.41074346 26.5284956,7.00000006 26.9129355,7 C27.2973753,6.99999995 27.3644916,7.32026144 27.3644916,7.32026144 C27.3644916,7.32026144 27.7133163,7.04125816 27.8820069,7.29299428 C28.0506975,7.54473039 27.9889815,7.75857843 27.9889815,7.75857843 L26.6056407,8 Z" fill="#CA4638" id="Path-32" stroke="#262626" stroke-width="0.1"/><path d="M31.0997252,8.30538372 C30.7611231,8.38512655 29.9945785,8.4648675 29.7273728,8.4648675 C29.4599595,8.4648675 29.0499648,8.24557894 28.7648057,8.18577229 C28.4796466,8.12596564 27.5527804,8.02628851 27.2141802,8.38512655 C26.87558,8.74396458 26.6616078,8.86357602 26.5547255,8.98318932 C26.4478414,9.10280262 26.0184365,9.49406266 26.0015248,9.66734725 C25.9846258,9.84041299 26.109243,10.0995739 26.3230094,10.0995739 C26.5369816,10.0995739 26.9864302,10.5670714 26.9858038,10.6647751 C26.9847112,10.8277643 27.5728206,11.0032392 28.1272723,10.9999546 C29.1269953,10.9942682 29.6190282,10.4761558 31.1176749,10.6577662 C31.9336963,10.756566 33.434641,10.0995739 33.702262,9.70086539 C33.9694695,9.30215688 34.1300006,8.88351219 33.8625872,8.42499703 C33.5951721,7.96648186 32.7937661,8.01358196 32.7219528,8 C32.7219528,8 31.4383236,8.22564277 31.0997252,8.30538372 L31.0997252,8.30538372 Z" fill="#DBA05F" id="path7155" stroke="#262626" stroke-width="0.1"/><path d="M26,10.9679613 C26,10.9679613 26.388872,11.1189505 26.6514548,10.7653705 C26.8667142,10.475592 26.9436499,10.6077724 26.9997642,10.6303946 C26.9997642,10.6303946 27.0111227,10.2702057 26.8761784,10 C26.8761784,10 26.6031842,10.4148421 26.4009064,10.5274475 C26.1988974,10.6400551 26.0620624,10.6026893 26,10.9679613 L26,10.9679613 L26,10.9679613 Z" fill="#D9C0B9" id="path7191" stroke="#000000" stroke-width="0.1"/><path d="M29,9.0818671 C29,9.16101011 28.7764735,9.26326554 28.5004539,9.31015338 C28.2239805,9.35687369 28,9.33077 28,9.25162699 C28,9.17231645 28.2235305,9.07006102 28.4995461,9.0231746 C28.7755617,8.97645287 29,9.00255656 29,9.0818671" fill="#000000" id="path7183"/><path d="M37.6478012,19.7526022 C37.6478012,20.0172474 37.6120373,20.4139919 37.4347375,20.6453337 C37.2576941,20.8768968 37.0801381,21.0092194 36.7965606,21.0092194 C36.512729,21.0092194 35.7682765,20.9761392 35.6264888,21.207481 C35.484699,21.4390441 35.3779108,21.5713667 35.3779108,21.5713667 C35.3779108,21.5713667 34.9369234,22.0011933 35.0076891,22.2327565 C35.3779108,21.8027084 35.7327666,22.0011914 35.7327666,22.0011914 C35.7327666,22.0011914 36.1583858,22.0673537 36.5479848,21.8688688 C36.9380964,21.6706091 37.1509037,21.637529 37.3284598,21.637529 C37.5060136,21.637529 37.6478012,21.8027084 37.6478012,21.8027084 C37.6478012,21.8027084 37.754079,22.2986954 37.7183151,22.5964208 C37.6828052,22.8939229 37.6120373,23.4893736 38.0021466,23.4893736 L38.3148964,24 C38.3148964,24 38.8176211,23.4560702 38.7468554,23.5553107 C38.7468554,23.5553107 38.8176211,22.927003 38.6758312,22.5633387 C38.5340436,22.1996763 38.4630239,21.8027084 38.4630239,21.8027084 C38.4630239,21.8027084 39.6688618,22.1665961 39.7751395,22.2986954 C39.8816736,22.431018 40.1652466,22.6625811 40.2715244,22.6295009 C40.3778022,22.5964208 40.6192974,22.6295009 40.8034148,22.9535475 C41.2457315,22.6295009 40.8034147,22.3317756 40.8034147,22.3317756 C40.8034147,22.3317756 40.4488264,21.637529 39.9169272,21.4059639 C39.385028,21.1746241 39.0304307,21.1743989 38.8176211,20.9761392 C38.6048093,20.7776563 38.5690454,20.5463146 38.5340436,20.3147495 C38.4985315,20.0831864 38.5434927,18.0842664 38.5434927,18.0842664 L37.6297922,18 C37.6297944,18 37.6478012,19.4881803 37.6478012,19.7526022 Z" fill="#BD8759" id="path6817" stroke="#000000" stroke-width="0.1"/><path d="M31.8030186,21.0758162 C31.8030186,21.0758162 30.9835685,21.6329053 30.891092,21.8954909 C30.7988554,22.1580765 30.7730133,22.4108725 30.7730133,22.4108725 L30.7730133,23 C30.7730133,23 31.4560025,22.5337197 31.4170022,22.6883532 C31.4170022,22.6883532 31.6550603,22.8087917 32.033488,22.0372092 C32.4114419,21.2654141 32.7692438,20.9323936 33.0374132,20.9547382 C33.3055868,20.9770809 33.6472596,21.2062569 33.8194032,21.3673418 C33.9920205,21.5286375 34.2293651,21.6488652 34.5281235,21.5733229 C34.5281235,21.5733229 34.6822869,21.3673418 34.9120054,21.5714077 C35.1099932,21.4796948 34.9120054,20.9877208 34.9120054,20.9877208 C34.9120054,20.9877208 34.6618535,20.4646773 34.1243254,20.3891368 C33.5867972,20.313382 33.2145354,20.1818766 33.3420975,19.9763206 C33.4699017,19.7707629 34.1575226,18.175463 34.1575226,18.175463 L33.2463075,17 L32.8811588,18.0226778 C32.8811588,18.0226778 32.999949,18.6272196 33.0046918,18.7821324 C33.009449,18.9368326 32.2800844,20.2584818 32.1819178,20.3350869 C32.0839932,20.4119047 30.1302076,21.0753911 29.8976016,21.1407168 C29.6657092,21.2062569 29.1793937,21.7141909 29.1793937,21.7141909 L29,22.1357298 C29,22.1357298 29.4513607,21.8603806 29.5561625,22.0001839 C29.5561625,22.0001839 29.7826027,21.748876 29.9860448,21.8431435 C30.1894848,21.937411 30.5188302,21.7639855 30.5828501,21.6614201 C30.6466322,21.5584278 30.6639424,21.5714079 30.6639424,21.5714079 C30.6639424,21.5714079 30.9745546,21.5226016 31.2410693,21.4830217 L31.8030186,21.0758162 Z" fill="#BD8759" id="path6813" stroke="#000000" stroke-width="0.1"/></g></g></g></g></g></svg>