<?xml version="1.0" ?><svg height="180px" version="1.1" viewBox="0 0 180 180" width="180px" xmlns="http://www.w3.org/2000/svg" xmlns:sketch="http://www.bohemiancoding.com/sketch/ns" xmlns:xlink="http://www.w3.org/1999/xlink"><title/><desc/><defs/><g fill="none" fill-rule="evenodd" id="Page-1" stroke="none" stroke-width="1"><g id="Material" transform="translate(-180.000000, -180.000000)"><g id="Slice" transform="translate(180.000000, 180.000000)"/><g id="circle_ethiopia" transform="translate(180.000000, 180.000000)"><path d="M174.873467,120 L5.12100983,120 C17.475726,154.955772 50.8118738,180 89.9972382,180 C129.182603,180 162.51875,154.955772 174.873463,120 L174.873467,120 Z" fill="#F1453D" id="Rectangle-3-copy-2"/><path d="M5.12100983,120 L174.873467,120 C178.189905,110.616633 179.994476,100.519063 179.994476,90 C179.994476,79.480937 178.189905,69.3833673 174.873463,59.9999996 L5.12100983,60 C1.80457108,69.3833673 0,79.480937 0,90 C0,100.519063 1.80457108,110.616633 5.12101363,120 L5.12100983,120 Z" fill="#FEE94E" id="Rectangle-3-copy-3"/><path d="M5.12100983,60 L174.873467,60 C162.51875,25.0442275 129.182603,0 89.9972382,0 C50.8118738,0 17.475726,25.0442275 5.12101363,59.9999996 L5.12100983,60 Z" fill="#4EAB53" id="Rectangle-3"/><g id="Oval-+-path12-+-Rectangle" transform="translate(48.500000, 48.500000)"><ellipse cx="41.3333333" cy="41.3333333" fill="#2B98F0" id="Oval" rx="41.3333333" ry="41.3333333"/><path d="M10.6195415,30.4811896 L34.7027888,30.4811896 L40.1480986,13.7222429 L41.6003307,18.1917596 L33.6871623,42.5459939 L31.337401,40.8387893 L33.8052554,33.2435037 L14.4215391,33.2435037 L10.6195415,30.4811896 L10.6195415,30.4811896 L10.6195415,30.4811896 L10.6195415,30.4811896 Z M22.6611672,67.5414963 L30.1032936,44.6369707 L15.847282,34.279371 L20.5468088,34.279371 L41.2637608,49.3311152 L38.9139995,51.0383156 L32.453059,46.3441711 L26.4631564,64.7791863 L22.6611672,67.5414963 L22.6611672,67.5414963 L22.6611672,67.5414963 L22.6611672,67.5414963 Z M61.6286713,67.5414963 L42.1449192,53.3857193 L27.8889076,63.743319 L29.3411438,59.2738044 L50.0580876,44.2220603 L50.9556169,46.9843703 L44.4946806,51.6785148 L60.1764434,63.0719817 L61.6286713,67.5414963 L61.6286713,67.5414963 L61.6286713,67.5414963 L61.6286713,67.5414963 Z M73.670297,30.4811896 L54.1865449,44.6369707 L59.6318507,61.3959153 L55.8298572,58.6336053 L47.9166889,34.279371 L50.821153,34.279371 L53.2890156,41.8746565 L68.9707701,30.4811896 L73.670297,30.4811896 L73.670297,30.4811896 L73.670297,30.4811896 L73.670297,30.4811896 Z M42.1449192,7.57666406 L49.5870539,30.4811896 L67.2084492,30.4811896 L63.4064516,33.2435037 L37.7989008,33.2435037 L38.6964259,30.4811896 L46.6825856,30.4811896 L40.692683,12.0461787 L42.1449192,7.57666406 L42.1449192,7.57666406 L42.1449192,7.57666406 L42.1449192,7.57666406 Z" fill="#FEE94E" id="path12"/><path d="M21.0000396,14.8379267 L30.8419705,27.4350236 L32.6180629,26.0473882 L22.7761321,13.4502911 L21.0000396,14.8379267 L21.0000396,14.8379267 L21.0000396,14.8379267 L21.0000396,14.8379267 Z M60.3952476,12.8534032 L51.4560202,26.1063527 L53.3245828,27.366714 L62.26381,14.1137645 L60.3952476,12.8534032 L60.3952476,12.8534032 L60.3952476,12.8534032 L60.3952476,12.8534032 Z M74.4564302,49.7072209 L59.0897531,45.3008972 L58.4684957,47.4674788 L73.8351729,51.8738026 L74.4564302,49.7072209 L74.4564302,49.7072209 L74.4564302,49.7072209 L74.4564302,49.7072209 Z M43.7515111,74.4686563 L43.1936097,58.4924489 L40.941089,58.5711087 L41.4989905,74.5473161 L43.7515111,74.4686563 L43.7515111,74.4686563 L43.7515111,74.4686563 L43.7515111,74.4686563 Z M10.7136449,52.9182473 L25.7355199,47.4507319 L24.9646429,45.3327646 L9.94276782,50.80028 L10.7136449,52.9182473 L10.7136449,52.9182473 L10.7136449,52.9182473 L10.7136449,52.9182473 Z" fill="#FEE94E" id="Rectangle"/></g></g></g></g></svg>