<?xml version="1.0" ?><svg height="180px" version="1.1" viewBox="0 0 180 180" width="180px" xmlns="http://www.w3.org/2000/svg" xmlns:sketch="http://www.bohemiancoding.com/sketch/ns" xmlns:xlink="http://www.w3.org/1999/xlink"><title/><desc/><defs/><g fill="none" fill-rule="evenodd" id="Page-1" stroke="none" stroke-width="1"><g id="Material" transform="translate(-180.000000, -180.000000)"><g id="Slice" transform="translate(180.000000, 180.000000)"/><g id="circle_finland" transform="translate(180.000000, 180.000000)"><circle cx="90" cy="90" fill="#FFFFFF" id="Oval-1-copy-4" r="90"/><path d="M59.9999996,5.12117078 C48.8214053,9.07223656 38.6564375,15.1690819 30,22.916803 L30,157.083197 C38.6564376,164.830918 48.8214054,170.927763 59.9999996,174.878829 L60,5.12116698 L60,5.12116698 L59.9999996,5.12117078 L59.9999996,5.12117078 Z" fill="#2B98F0" id="Oval-1-copy-5"/><path d="M178.755624,105 C179.574018,100.121873 180,95.1106832 180,90 C180,84.8893168 179.574018,79.8781271 178.755624,75 L1.24437643,75 C0.425981881,79.8781271 0,84.8893168 0,90 C0,95.1106832 0.425981881,100.121873 1.24437643,105 L178.755624,105 L178.755624,105 L178.755624,105 L178.755624,105 Z" fill="#2B98F0" id="Oval-1-copy-6"/></g></g></g></svg>