<?xml version="1.0" ?><svg height="180px" version="1.1" viewBox="0 0 180 180" width="180px" xmlns="http://www.w3.org/2000/svg" xmlns:sketch="http://www.bohemiancoding.com/sketch/ns" xmlns:xlink="http://www.w3.org/1999/xlink"><title/><desc/><defs/><g fill="none" fill-rule="evenodd" id="Page-1" stroke="none" stroke-width="1"><g id="Material" transform="translate(-180.000000, -180.000000)"><g id="Slice" transform="translate(180.000000, 180.000000)"/><g id="circle_fiji" transform="translate(180.000000, 180.000000)"><circle cx="90" cy="90" fill="#1EA8EE" id="Oval-15-copy-4" r="90"/><path d="M0.0490579464,93 L94,93 L94,0.0872986002 C92.67394,0.0293019687 91.3403919,0 90,0 C40.2943701,0 0,40.2943701 0,90 C0,91.0039293 0.0164376398,92.0040194 0.0490584628,93.0000158 Z" fill="#2587D7" id="Rectangle-4"/><g id="UK"><path d="M16,64.3976504 L73.204828,93 L94,93 L94,82.602228 L52.9411738,62 L94,62 L94,31 L51.995613,31 L94,10.3974 L94,0.0872986002 L94.0000386,0.0873002869 C92.67394,0.0293019687 91.3403919,0 90,0 C82.2561892,0 74.7408046,0.978008608 67.5706263,2.81724582 L33.78699,19.7099388 C26.594709,25.4692967 20.3055338,32.3096356 15.1657583,39.9846619 C5.5867087,54.2886829 0,71.4919182 0,90 C0,91.0039293 0.0164376398,92.0040194 0.0490584628,93.0000158 L16,93 L16,64.3976504 L16,64.3976504 Z" fill="#FFFFFF" id="Oval-15-copy-5"/><path d="M17.2529958,37 L94,37 L94,56 L11,55.9999987 L11,93 L0.0490584628,93.0000158 C0.0164376398,92.0040194 0,91.0039293 0,90 C0,76.1669484 3.12082343,63.0628047 8.69680372,51.3532333 C11.1077906,46.2901553 13.977792,41.4878069 17.2529958,37 Z M93.8389177,0.0803962802 C92.565936,0.0269770907 91.2861184,0 90,0 C86.1745509,0 82.4048463,0.238670122 78.7049644,0.701932021 L25.4542081,27.2795777 C24.2803472,28.4873857 23.1400934,29.7280296 22.034956,31 L31.8882776,31 L93.8389177,0.0803962802 L93.8389177,0.0803962802 Z M94,93 L32,62 L45.8636683,62 L94,86.0681243 L94,93 L94,93 Z" fill="#F1453D" id="Oval-15-copy-5"/></g><g id="shield" transform="translate(99.000000, 71.000000)"><path d="M0,0 L0,55.8731972 C0,74.1481951 32.9999984,85 32.9999984,85 C32.9999984,85 66,74.1481951 66,55.8731972 L66,0 L0,0 L0,0 L0,0 L0,0 Z" fill="#FFFFFF" id="path1563-1" stroke="#000000"/><path d="M28.4257426,22 L28.4257426,44.6307701 L0,44.6307701 L0,53.8205127 L28.4257426,53.8205127 L28.4257426,83.2506668 L32.9999967,85 L37.5742542,83.2506668 L37.5742542,53.8205127 L66,53.8205127 L66,44.6307701 L37.5742542,44.6307701 L37.5742542,22 L66,22 L66,0 L0,0 L0,22 L28.4257426,22 Z" fill="#F1453D" id="polygon1567"/><path d="M4.50046245,9 C6.43320854,9 8,10.5670499 8,12.5007663 C8,14.432567 6.43320854,16 4.50046245,16 C2.56740806,16 1,14.432567 1,12.4996169 C1.0006166,10.5651341 2.56740806,9 4.50046245,9 C4.50046245,9 2.56740806,9 4.50046245,9 L4.50046245,9 L4.50046245,9 L4.50046245,9 L4.50046245,9 Z" fill="#FFFFFF" id="path1587"/><path d="M64,17.2626299 L63.4635096,15.7828528 C63.4635096,15.7828528 61.9948103,15.1838723 61.8829063,14.4039328 C61.6214727,12.3245266 60.8790141,11.5452357 59.7664614,11.2478534 C58.6516382,10.9507954 57.9101527,11.4340011 57.9101527,11.4340011 C57.5747651,11.9168826 55.9030168,11.9168826 54.9750246,11.9532041 C54.0467049,11.9911471 54.0308112,11.5501002 54.0308112,11.5501002 C53.3097603,11.555289 53.0064843,11.0253842 53.0064843,11.0253842 C52.5345414,10.0829708 52.1832602,9.7304576 51.9500458,9.6111155 C53.1547166,9.628952 54.0619497,9.0731032 55.4216675,7.64651125 C56.9065847,6.0866323 57.9665912,6.68982873 57.9665912,6.68982873 C57.2458646,8.14625625 58.2062928,8.01750948 58.2062928,8.01750948 C60.1741811,7.01607368 58.4657803,4.49043184 57.8718783,4.60199075 C57.2779762,4.71290106 57.1083363,4.3130402 57.1083363,4.3130402 C57.1265004,4.76641042 56.4489137,4.94672076 56.4489137,4.94672076 C56.9571848,2.06207974 55.2354852,1.29738233 55.2354852,1.29738233 C54.9750246,1.55714595 54.8258193,2.07667321 54.8258193,2.07667321 C54.3438213,3.82205127 52.7469968,3.56228765 50.9633446,2.70775937 C49.1813142,1.85420398 44.4278275,3.59958205 42.9429102,4.19337381 C41.4560468,4.78748987 38.7456999,5.71595836 36.294516,4.34190283 C33.8443053,2.96719869 33.2484571,3.22728662 32.283488,3.48769884 C31.3172246,3.74713817 29.6107699,4.15672801 28.9798909,3.82172698 C28.3477145,3.48769884 27.6276367,3.4669437 27.6276367,3.4669437 C27.7995471,3.37095115 27.5309776,2.96784729 27.5309776,2.96784729 C26.788519,1.96576289 27.6276367,1.35154029 27.6276367,1.35154029 C27.6276367,1.35154029 26.245217,1.74069928 26.7950061,4.09965135 L27.0476821,4.45346174 C27.0476821,4.45346174 27.2328913,5.19545821 27.6425572,5.41857603 L27.6276367,5.58104991 C27.6276367,5.58104991 27.9772961,5.41857603 28.0872539,5.90080888 C28.200131,6.38336603 28.7197547,5.93810328 28.9425896,5.53013494 C28.9425896,5.53013494 28.5705494,7.68380565 31.2452168,8.2033329 C31.2452168,8.2033329 30.9461575,7.86898047 31.0580615,7.64618695 C31.1689924,7.42339343 30.72462,7.23627281 30.7622457,6.90321758 C30.7988983,6.57016234 30.0947141,6.42130903 30.6503417,6.16024821 C31.2066181,5.90048458 31.4680517,5.38030873 32.6558525,6.0859837 C33.8436566,6.79165867 34.7732705,6.64377825 34.7732705,6.64377825 C34.7732705,6.64377825 34.0486517,5.15686661 34.4479381,5.15783951 C34.8472245,5.15848811 36.6435267,7.38188313 37.5277304,7.27194572 C38.4122584,7.1629812 40.1206593,6.16024821 40.9750219,6.53157074 C40.9750219,6.53157074 41.0483271,6.0859837 44.3159235,5.52883774 C47.5844929,4.97169179 51.6156313,3.34338572 53.1274704,4.77030201 C53.1274704,4.77030201 53.3042462,5.90048458 53.9348009,6.19786691 C53.9348009,6.19786691 53.8219238,8.53671244 49.7761893,7.23627281 L48.3084631,6.85035681 C48.3084631,6.85035681 48.0830333,6.13981736 40.387607,8.11869082 C40.387607,8.11869082 39.9348013,8.27662451 39.6376882,8.50006663 C39.3396019,8.72188726 38.9309091,8.38818342 37.4083661,8.94468078 C35.8871207,9.5027996 30.2036989,11.3594123 26.7142407,10.6903831 L26.7096996,10.6997878 C25.9409679,10.470184 25.2208901,10.5888775 25.1916977,10.4675896 C25.154072,10.3190606 25.6007149,10.5052083 25.6007149,10.5052083 C25.3412274,10.2075017 25.2293234,10.1835036 25.2293234,10.1835036 C22.2951685,9.8617988 22.8138191,8.53671244 22.8138191,8.53671244 L22.9633488,8.94532938 C23.4463199,8.31456751 22.7761934,6.82927737 22.7761934,6.82927737 L22.7479742,6.83414186 C22.7405139,6.78841567 22.7320806,6.74301379 22.720728,6.69890911 L22.9633488,6.53157074 C24.3749608,5.34301433 26.0094077,5.1202208 26.0094077,5.1202208 C25.0431411,3.93263729 23.0000014,4.56404775 23.0000014,4.56404775 C23.0376271,3.11605201 22.4437251,1.44493845 22.4437251,1.44493845 C20.437238,1.66773197 19.2870596,3.33819693 19.2870596,3.33819693 C19.2127813,1.85355538 17.3181982,1 17.3181982,1 C18.0230311,1.85355538 17.5786587,3.89534288 17.5786587,3.89534288 L17.652937,3.93263729 C17.5355189,3.9297186 17.4667548,3.93263729 17.4667548,3.93263729 L17.424588,4.37044115 L17.3551751,4.34125423 C17.3551751,4.34125423 16.6503422,4.60069355 15.8336053,6.45730623 C15.8336053,6.45730623 15.7508936,6.896083 15.4349676,7.29172797 C15.4323727,7.2404887 15.4378868,7.19411392 15.4313997,7.14060456 C15.4313997,7.14060456 14.5189767,8.33597126 12.4106408,7.14060456 C12.4106408,7.14060456 9.5458987,5.44127697 8.53908721,5.50419101 C7.5322757,5.56678075 6.87025821,6.03896032 6.93448136,6.32207349 C6.93448136,6.32207349 4.63574644,6.13300708 3.84949931,7.45420185 C3.84949931,7.45420185 2.11871766,8.08366651 3.59812079,9.4998809 C3.59812079,9.4998809 3.79630437,10.1154007 4.22672927,10.445213 C4.22672927,10.445213 4.1657497,9.1522322 4.47908086,9.5323109 C4.47908086,9.5323109 4.56049507,9.6597604 4.71521449,9.7489427 C4.75640813,9.9302259 4.89523395,10.4338625 5.20272664,10.6903831 L5.42426409,10.6200102 C5.45799747,10.2976569 5.52773474,9.8903371 5.59941816,9.7191072 C5.63315154,9.7236474 5.66007336,9.7275389 5.67239902,9.7285118 C5.66266824,9.7379165 5.65358618,9.7434296 5.64417975,9.7518614 L6.05319693,10.381326 L6.52481547,10.1296699 C6.74570421,10.0975643 7.02854558,10.3187363 7.02854558,10.3187363 L7.56373856,9.8780138 C7.56049497,9.8731493 7.55725137,9.8721764 7.55400778,9.8669876 C8.08109177,9.955197 8.22510733,8.93365461 8.22510733,8.93365461 C8.69867203,9.0581855 9.1414226,8.91873684 9.5183282,8.69043024 C9.7479746,9.5374996 11.6243936,10.4458616 11.6243936,10.4458616 C11.6243936,10.4458616 11.6568296,10.4429429 11.7051591,10.4390513 C11.546223,10.5405569 11.4518344,10.6167672 11.4518344,10.6167672 C12.3055483,11.2118562 13.9026939,11.0630029 13.9026939,11.0630029 C13.2348379,11.3234151 13.3282534,12.5593192 13.3282534,12.5593192 C12.9380491,12.719523 12.8997747,13.1047904 12.8997747,13.1047904 C14.1998071,13.6233447 15.0879031,13.1939726 15.0879031,13.1939726 C15.1592621,13.6168587 15.0541697,13.6619363 15.0541697,13.6619363 C14.534546,14.7755796 14.3117111,15.8522528 14.3117111,15.8522528 C14.3230637,15.8571173 14.3363624,15.8597117 14.3473906,15.8636033 C14.331497,15.8927902 14.3117111,15.9210043 14.2993854,15.9511641 C14.2993854,15.9511641 12.0334108,16.7375895 11.0262749,17.8392338 C11.0262749,17.8392338 10.931562,17.524015 10.6480719,17.524015 C10.3649062,17.524015 9.4836217,16.8011522 9.0742802,16.6746755 C8.66591173,16.549496 8.06746867,16.8011522 7.90983002,16.6127344 C7.76743625,16.4408558 7.83133505,15.1517667 7.55887317,14.9438909 C7.55984625,14.9438909 7.56406292,14.9448638 7.56406292,14.9448638 L7.28057282,14.1584383 C7.09179566,14.5670553 6.30522417,14.4723599 6.30522417,14.4723599 C6.27408567,14.4911693 6.15309962,14.5793787 5.98183787,14.7071525 C5.82484793,14.7155843 5.64417975,14.6614263 5.64417975,14.6614263 C5.56341427,14.6779656 5.48362186,14.9046507 5.42491281,15.1248498 C5.39344995,15.1481994 5.36133838,15.1725218 5.32955116,15.1968442 L5.32955116,14.9759965 C5.17288558,15.1018246 4.85793262,14.9130825 4.73143246,14.9130825 C4.66980418,14.9130825 4.59357973,15.0933928 4.53162708,15.2785676 C4.21148438,15.3379144 3.78722231,15.353805 3.78722231,15.353805 C3.66137087,15.4167191 3.75511073,16.3922109 3.75511073,16.3922109 C2.84301216,16.8961718 3.28316783,17.650816 3.28316783,17.650816 C3.78689795,20.1054363 7.97275574,19.0037921 8.28770869,19.3193351 C8.60168857,19.6342296 9.3263074,19.6961708 9.7041861,19.6961708 C10.0810917,19.6961708 10.5527102,20.6090729 11.0885519,20.703444 C11.6240693,20.7981393 11.0885519,19.9799325 13.5705499,19.3871137 C16.0515748,18.7942948 16.8786912,17.7769684 16.8786912,17.7769684 C17.6558563,17.6271421 17.872204,16.682783 17.9302643,16.3014072 C17.9377246,16.4771773 17.9584836,16.6717568 17.9867028,16.8932531 C18.0986068,17.7474571 17.5082728,18.05846 17.5082728,18.05846 L19.6584511,17.4131047 C20.5118406,17.1903112 20.4009097,16.4470175 20.4009097,16.4470175 C21.2176466,18.7865116 22.7035369,18.9350406 22.7035369,18.9350406 C23.0006501,18.0435423 22.9639975,17.7834543 22.9639975,17.7834543 L23.6321778,17.7471328 C23.659424,17.2434962 23.2147273,16.8754167 22.957186,16.7041867 L24.003245,17.3385159 L24.4109647,17.2642514 C24.4109647,17.6355739 24.9682141,17.9689535 24.9682141,17.9689535 L25.0434655,17.4873692 C25.5264366,18.1184554 26.4174518,17.8953375 26.4174518,17.8953375 C26.3996121,17.78313 26.3723659,17.6670309 26.3386325,17.5486617 C28.241649,18.722949 31.2812207,17.2272813 31.2812207,17.2272813 C32.0979544,17.4127804 32.209534,16.9298989 32.209534,16.9298989 C33.1378506,17.0408093 33.3532252,16.4064801 33.3532252,16.4064801 C35.53811,16.2174137 37.0758978,14.664345 37.0758978,14.664345 C38.1517978,14.5900805 38.1868287,13.8208429 38.1868287,13.8208429 C38.1868287,13.8208429 39.2656479,14.0335832 40.3058685,12.7337921 C42.7191023,9.2813033 46.3282491,11.0788935 46.3282491,11.0788935 L44.2416452,11.2108833 C38.7833256,11.1742375 41.0460566,14.8858414 41.0460566,14.8858414 L41.3824173,14.8501684 C41.9023653,14.9614031 43.6840714,16.3724287 43.0272437,17.4234823 C43.0168642,17.4419673 43.0025924,17.4588309 42.9905911,17.4756944 C41.877714,18.9989276 39.8167345,17.5460674 39.2293197,16.2608698 C38.6344446,14.9617274 37.4456675,15.2591097 37.4456675,15.2591097 C37.4456675,15.2591097 34.363929,15.7789612 35.6263357,18.2293657 L35.6723947,18.2306629 C35.6957486,18.8286705 36.0710324,19.5100231 37.1702864,20.1871597 C37.7878666,21.0604973 39.8177076,21.1516254 41.3084633,20.8286234 C42.002268,20.6771757 45.6636367,19.1033519 45.6636367,19.1033519 C45.9322063,18.3062246 46.8420343,18.4897779 47.6587712,17.3388402 C48.4755082,16.1879025 46.5072954,15.7789612 46.06195,15.1485237 C45.6156315,14.5164646 46.173854,14.6283478 46.173854,14.6283478 C47.9555601,15.5937864 48.1041167,12.5116472 48.1041167,12.5116472 C48.290299,14.2933468 49.8494945,14.7762282 49.8494945,14.7762282 C50.8157611,13.8120868 50.1109281,11.843591 50.1109281,11.843591 C52.4135554,15.9647847 53.8079763,15.3087275 53.8079763,15.3087275 C52.5682748,14.5414356 53.1923422,13.5143802 53.1923422,13.5143802 C54.3052225,17.8953375 58.8744731,14.0715262 58.8744731,14.0715262 C58.6516382,14.7019637 58.8754462,15.072962 59.2834903,15.4815789 C59.6915344,15.8901958 60.1745055,16.0760193 59.9526437,16.8186643 C59.7291601,17.5609851 57.6136882,17.4131047 57.6136882,17.4131047 C57.6136882,17.4131047 55.5329228,17.3021944 55.7197538,19.0472482 C55.8287385,19.4548922 57.2036979,19.6034212 57.723646,19.4925109 C57.723646,19.4925109 57.5092445,19.53921 58.2779762,19.6420128 C58.5355175,19.6750913 58.8465782,19.6806044 59.1631529,19.6702268 C60.0493028,19.6429857 60.9931886,19.4925109 60.9931886,19.4925109 C62.1800195,19.2333959 61.9951347,18.8234817 61.9951347,18.8234817 C63.813169,18.4884807 64,17.2626299 64,17.2626299 L64,17.2626299 L64,17.2626299 L64,17.2626299 L64,17.2626299 Z" fill="#FEE94E" id="path1603"/><g id="g1749" transform="translate(2.000000, 23.000000)"><path d="M12.4604644,9.20435689 C12.4604644,9.20435689 11.9348122,9.92936026 12.5083064,10.4596783 C12.5083064,10.4596783 11.8866655,11.3744538 12.3659994,12.1473608 C12.3659994,12.1473608 11.9823495,12.9669432 12.0783381,13.8353505 C12.0783381,13.8353505 11.7428349,15.1852509 12.4604644,15.8132186 C12.4604644,15.8132186 13.2268501,16.1992115 13.5623534,15.8614294 C13.5623534,15.8614294 14.2318362,14.8490041 13.800649,13.7865256 C13.800649,13.7865256 14.2793734,12.9190396 13.7531118,11.8095787 C13.7531118,11.8095787 13.8969424,11.1825321 13.46606,10.4599853 C13.46606,10.4599853 13.7531118,9.97695684 13.5132925,9.59157809 C13.5132925,9.59157809 12.5567578,8.5779245 12.4604644,9.20435689 C12.4604644,9.20435689 12.5567578,8.5779245 12.4604644,9.20435689 L12.4604644,9.20435689 L12.4604644,9.20435689 L12.4604644,9.20435689 L12.4604644,9.20435689 Z" fill="#964B36" id="path1751"/><path d="M14.2129755,8.70912199 C14.1218145,8.88421273 14.0748765,9 14.0748765,9 C14.1345496,8.3371504 14.0748765,9 14.0748765,9 C14.0866544,8.86917075 14.0519096,8.70826113 13.988548,8.53424196 C14.054477,9.45952038 13.8181925,10.313808 13.7270911,9.88694962 C13.575336,9.17619829 11.2012685,7.04243528 11.2012685,7.04243528 L11,6 C11,6 11.4480933,6.05245242 12.0491686,6.27503306 C11.2280957,4.91023232 9.36704957,2.08169043 7.9616071,1.92714773 C6.10533931,1.72400111 6,0 6,0 C6,0 6.21169151,0.811617606 7.69690831,0.811617606 C9.18178749,0.811617606 12.0455313,2.78947126 12.3632374,4.31129464 C12.4508228,4.7307432 12.538511,5.01919233 12.6195886,5.21699202 C13.1369837,3.44692158 14.4392122,0.419575696 17.3051341,0.348827776 C21.3588327,0.248710085 20.0254652,0.647279878 21,0 C21,0 18.2806493,1.39436062 16.5858346,1.59269503 C14.8926539,1.7916631 13.5063439,4.97546902 13.5576524,5.57395736 C13.5857915,5.90324056 13.3015142,6.3995989 12.9634205,6.71142805 L12.9634205,6.71142805 C13.013835,6.74166422 13.0643311,6.77313959 13.1147886,6.80590219 C15.6090381,4.7696222 17,7.23427551 17,7.23427551 C15.930592,6.72359816 15.1205009,7.39237964 14.6270446,8.04822781 C14.8156304,8.10505811 15.0586996,8.21626087 15.3710273,8.4033515 C16.7295009,9.2187879 15.4644373,12 15.4644373,12 C15.8755776,10.6972491 14.701358,9.24146409 14.2129755,8.70912199 Z M10.5199302,6.21066604 C10.5199302,6.21066604 12.0225059,11.400312 9.71107734,13 C9.71107734,13 9.76845845,10.3341621 8.38211626,8.73354784 C6.99650972,7.13231604 9.76845845,5.38781939 10.5199302,6.21066604 C10.5199302,6.21066604 9.76845845,5.38781939 10.5199302,6.21066604 Z" fill="#00A651" id="path1761"/><path d="M6.72059148,15.4722892 C6.72059148,15.4722892 6.74779453,16.2313253 7.2192176,16.4616179 C7.2192176,16.4616179 6.96918107,17.0881239 7.3859087,17.4829604 C7.3859087,17.4829604 7.3019844,18.7356282 7.6903513,19 C7.6903513,19 8.6334869,18.9342513 8.9648433,18.6041308 C8.9648433,18.6041308 9.1593161,17.7814114 8.6334869,16.9555938 C8.6334869,16.9555938 8.7156749,16.1645439 8.1889775,15.736661 C8.1889775,15.736661 8.3553791,14.6805508 7.6900619,14.2857143 C7.6900619,14.2857143 7.5798028,13.427883 7.1633646,13.0000001 C7.163654,12.9996558 6.36029574,14.3511188 6,14.2533563 C6,14.2533563 6.1936047,15.2746988 6.72059148,15.4722892 Z" fill="#964B36" id="path1781"/><path d="M4.83644288,9.02110466 L4.96417881,7.1867296 C4.96417881,7.1867296 5.35723237,4.9689687 3.53935967,3.5623318 C2.90135716,3.06858526 2.27537275,2.95457115 1.73150458,3.01461334 C1.27584265,2.95154781 0.826460687,3.09003061 0.464529525,3.48025827 C0.171930208,3.66508835 0,3.8327064 0,3.8327064 C0.147793843,3.69453031 0.292250501,3.59056241 0.4327047,3.51547956 C0.415325219,3.53521915 0.398159033,3.5555599 0.38121553,3.5765076 C-0.84288413,5.0934576 1.27253302,7 1.27253302,7 C1.27253302,7 0.99432855,5.1420399 2.05185993,4.4572168 C2.19924669,4.36175333 2.34341443,4.33001679 2.48239438,4.34608891 L2.48239438,4.34608891 C2.8658383,5.20935861 3.33707713,7.40883854 3.51560322,8.28172864 C2.08799498,7.74764766 0.507248921,7.90563153 0.15247029,9.3419143 C-0.42857732,11.6894566 0.83836861,12.6491985 0.83836861,12.6491985 C0.36351593,12.1698371 0.78695144,10.9434059 0.78695144,10.9434059 C2.1151561,8.16350179 3.8598516,9.29639217 5.07815549,10.7134623 C4.70521211,10.3472224 4.29421486,10.0201991 4,10 C4,10 4.68421053,10.046974 4,10 C4,10 4.99932953,11.890117 5.36875629,11.9837714 C5.48115442,12.0115375 5.58372406,12.0009113 5.67200081,11.972734 L5.67200081,11.972734 C5.82550685,12.0097342 5.95843813,12.0168777 5.9918998,11.9442729 C6.04292766,12.0226324 6.09090032,12.0980179 6.13559668,12.1695785 C5.05743533,11.9354453 3.20254122,11.7645714 2,12.9314689 C2,12.9314689 2.33387913,12.9792763 2.78325598,13.0651296 L2.78325598,13.0651296 C2.76255578,13.0700297 2.74179043,13.075215 2.72095958,13.0806885 C1.39157719,13.4302372 2.30764812,16 2.30764812,16 C2.6629726,13.3984299 5.17337707,14.1283406 5.46886393,14.3499976 C5.76404234,14.5726485 6,14.7943055 6,14.7943055 C5.79183269,14.5033996 5.57384771,14.235252 5.3448831,13.9997791 C5.7459619,13.9874957 6.42020836,13.465 6.77154106,12.9871733 C6.83717311,13.0056281 6.90587362,13.0076201 6.96171656,12.9699052 C7.00938129,12.9382579 7.0140465,12.8293046 6.96718623,12.6402521 C6.99779238,12.5538112 7.00821653,12.475274 6.99323129,12.4095064 C6.99323129,12.4095064 7.1197641,12.9648364 6.99323129,12.4095064 C6.99323129,12.4095064 6.95502732,12.3951587 6.88464202,12.3718345 C6.71173834,11.8827503 6.33535546,11.0929847 5.69477063,9.9826448 C5.4896955,9.62753404 5.19092785,9.30163979 4.83644288,9.02110466 Z M5.063002,7.9786605 C4.98479849,8.5098173 5.00149498,8.9006325 5.00149498,8.9006325 L6.02722458,10 L6.0808665,9.7799159 C5.7022784,8.1861464 7,5 7,5 C6.88181083,5.36002798 6.67737291,5.42782201 6.57497481,5.43807824 C7.99015373,3.13459995 11,2.4570696 11,2.4570696 C7.699809,0.2950338 5,6.5051067 5,6.5051067 L5.04997878,8 L5.063002,7.9786605 L5.063002,7.9786605 Z" fill="#00A651" id="path1791"/><path d="M18.4701974,6.83486426 C18.1044179,8.00131321 18,9 18,9 L19.9994393,8.573179 C19.9994393,8.573179 21.098431,2.5526658 22.7984635,3.0265793 C24.4965869,3.5013984 23.8974551,6.1085267 23.8974551,6.1085267 C23.8974551,6.1085267 22.1983772,2.7899244 20.8486601,5.3025718 L21.8976976,3.3115312 L21.5483366,3.2635361 C20.3348811,3.4557084 19.5224303,4.43198319 18.9851582,5.5261863 C18.8352935,3.89508235 17.5864839,3.04763834 16.8871674,2.3643601 C16.1047862,1.600511 14.1466532,2.2119146 15.4189569,2.6196252 C16.5353433,2.97680271 18.1027905,6.07972045 18.4701974,6.83486426 Z M17.1127535,12.5661872 C16.4675313,13.5059952 16,14.5205033 16,14.5205033 C16.4072527,15.2171266 16,14.5205033 16,14.5205033 C16.4072527,15.2171266 17.3234902,14.9494568 17.3234902,14.9494568 C17.3234902,14.9494568 16.9671036,15.0555018 17.832475,13.5565512 C18.6971985,12.0569187 19.6630061,13.2888814 19.6630061,13.2888814 C20.2740471,12.805712 19.8674425,11.6279651 19.8674425,11.6279651 C19.724862,11.3866762 19.5720587,11.2227106 19.4125094,11.1230023 C19.5660749,10.9895013 19.7429149,10.7573065 19.8791484,10.3542037 C19.918013,10.2383492 19.9820051,10.1308009 20.0640128,10.0313397 C20.4656241,10.1514492 22.8466671,10.9085989 22.9286767,12 C22.9286767,12 23.3943492,9.84177747 21.9459235,9.06807659 C21.9807653,9.05953177 22,9.0553152 22,9.0553152 C22,9.0553152 21.9589235,9.04659038 21.8832736,9.03607089 C21.8577886,9.02362907 21.8317436,9.01159968 21.8051271,9 C21.8051652,9.00003739 21.7709075,9.00555254 21.7118062,9.01675101 C21.2220662,8.97324893 20.1727785,8.97261219 19.0703627,9.554522 C17.9379433,10.1522669 17.3416806,11.7814808 17.1127535,12.5661872 L17.1127535,12.5661872 Z M20,13.6994331 C20,13.6994331 20.8863618,14.4655909 20.5804877,16 C20.5804877,16 21.7729406,12.3293502 20.1369812,12 C20.1371983,12 20.4441578,13.1513301 20,13.6994331 C20,13.6994331 20.4441578,13.1513301 20,13.6994331 Z" fill="#00A651" id="path1827"/><path d="M16.458368,14 C16.458368,14 15.4909449,15.4977484 15.7178489,15.731036 C15.7178489,15.731036 14.6938811,16.9475283 15.0918693,17.5559234 C15.0918693,17.5559234 16.1169245,18.2110952 16.5725449,17.9298391 C16.5725449,17.9298391 17.7665095,16.5736126 17.4254286,15.8242915 C17.4254286,15.8242915 18.2224924,14.93613 17.9390436,14.3748095 C17.9390436,14.3748095 16.7439916,14.4212883 16.458368,14 C16.458368,14 16.7439916,14.4212883 16.458368,14 L16.458368,14 L16.458368,14 L16.458368,14 L16.458368,14 Z" fill="#964B36" id="path1851"/></g><g id="coconut" transform="translate(38.000000, 22.000000)"><path d="M14.4563356,20.1760371 C14.3980888,20.0541006 14.3380463,19.9324079 14.282026,19.8171113 C14.2964973,19.7949685 14.3057063,19.7684641 14.3076797,19.7275333 C14.3076797,19.7198169 14.2639369,19.5661587 14.2609768,19.5594487 C14.2343365,19.5168404 14.1922381,19.5420028 14.1665844,19.4759097 C14.1379707,19.4098165 14.1596777,19.2796432 14.149482,19.2018076 C14.1419174,19.136721 14.1169216,19.1008227 14.1208683,19.0092317 C14.124815,18.9297186 14.1665844,18.8371211 14.161651,18.7673375 C14.1596777,18.7237227 14.109357,18.6254217 14.0942279,18.5885169 C14.0330538,18.4378782 13.9817464,18.2959625 13.9741819,18.1100965 C13.9666173,17.9420119 13.9998356,17.839014 14.0120046,17.6930723 C14.0274626,17.5182743 13.936688,17.4333933 13.936688,17.2720187 C13.9376747,17.1485553 13.9889821,17.0096591 14.0034534,16.8989447 C14.0235159,16.7472995 14.0251603,16.5275482 14.0126624,16.3722125 C14.00148,16.2235868 13.9603684,16.1340088 13.983062,15.9669307 C13.9889821,15.9259999 14.0080579,15.8931211 14.0126624,15.8357509 C14.0116757,15.7948201 14.0116757,15.7552313 14.0116757,15.715307 L14.0116757,15.4754258 C14.0116757,15.3975902 14.0192403,15.3100252 14.0126624,15.2342026 C14.0060845,15.171129 13.9699063,15.1060423 13.9699063,15.0563886 C13.9699063,14.9708365 14.023187,14.9302412 14.0116757,14.8141589 C14.0044401,14.7306198 13.9925999,14.7111609 13.973853,14.6383578 C13.9376747,14.5004681 13.9623417,14.3612363 13.9403059,14.2136171 C13.9297813,14.142827 13.9077454,14.1203486 13.9011676,14.0394935 C13.8919586,13.944212 13.9205723,13.9113332 13.9297813,13.8438981 C13.9393192,13.7767984 13.949186,13.6885624 13.9403059,13.6174368 C13.9297813,13.5318848 13.8899852,13.4714951 13.9011676,13.3782266 L13.8705805,14.4357169 C13.8449268,13.5130969 13.8087486,12.6589185 13.8087486,12.6589185 L12.4333169,12 C12.4333169,12 12.3168887,14.5759552 12.3464891,14.9346027 C12.3741161,15.2942568 12.4921888,17.7517844 12.4333169,18.0510488 C12.3741161,18.3506487 12.2294031,19.8483127 12.2294031,19.8483127 C12.2294031,19.8483127 11.5568163,20.3277396 11.2937017,20.8662142 C11.0296004,21.4056953 11.0888012,21.5855223 11,21.5855223 L11.6535109,21.4815179 L11.1667489,21.8129935 C11.2670613,21.7744078 11.3726361,21.7827986 11.4699885,21.8609697 C11.4811709,21.8703637 11.5538563,21.9337728 11.5630653,21.9337728 C11.588719,21.9337728 11.6242394,21.8670087 11.6554843,21.8552662 C11.7567834,21.8203744 11.8422957,22.0139569 11.9383325,21.999195 C11.9899688,21.9914785 12.0603519,21.9361213 12.1024503,21.8797576 C12.1373129,21.8321169 12.1507976,21.7485745 12.1873047,21.7167021 C12.1940684,21.7108172 12.2027974,21.7074963 12.2127127,21.7059446 C12.2203455,21.7449011 12.2250475,21.7879654 12.2434379,21.8220379 C12.3159486,21.9550504 12.5305674,21.6159035 12.5428683,21.7994802 L12.5426873,21.7227257 C12.5709817,21.72265 12.5992292,21.7222837 12.6273639,21.7213991 C12.6632823,21.720363 12.6972824,21.7051269 12.7302229,21.6814443 C12.7428539,21.6889282 12.7552857,21.6987533 12.767522,21.7115831 C12.7788518,21.7376411 12.7888868,21.7625323 12.7995691,21.7870346 C12.821905,21.8053141 12.8455357,21.8088144 12.8672242,21.7983134 C12.9131908,21.8356503 12.9225784,21.8566522 12.9730769,21.8706536 C13.0200146,21.8827102 13.0714843,21.86832 13.118422,21.8694868 C13.1776607,21.8718203 13.2064707,21.8963226 13.2618249,21.9235474 C13.35829,21.9709963 13.4220606,21.925881 13.5055774,21.8535408 C13.6023662,21.7679772 13.6376505,21.8333167 13.7305548,21.9406601 C13.8001521,22.0203899 13.785909,22.0130003 13.8487084,21.9585507 C13.858096,21.9328816 13.8691021,21.9079904 13.8797844,21.8862106 C13.9108605,21.8706536 13.9425839,21.8605415 13.9743073,21.8535408 C14.0261007,21.8243714 14.0775703,21.8278718 14.1264503,21.8053141 C14.17792,21.7812007 14.2154702,21.7127498 14.2698532,21.7251954 C14.3167909,21.7364743 14.3705265,21.7823675 14.4151983,21.7994802 C14.4582516,21.8173708 14.4770266,21.8274828 14.5129583,21.8589858 C14.5773763,21.6991336 14.7201317,21.6516846 14.8110938,21.5742885 C14.9059404,21.4953366 14.9939891,21.5910123 15.0982233,21.5921791 C15.1535774,21.5921791 15.1759133,21.5536754 15.2154058,21.5381184 C15.2594301,21.5186721 15.3099286,21.5466748 15.3523345,21.5256728 C15.3973299,21.5054487 15.4057464,21.4533327 15.455277,21.4467209 C15.5472102,21.4331086 15.6495021,21.613181 15.7414353,21.6470175 C15.792905,21.6676306 16.0314782,21.7318072 15.9965176,21.5210057 C15.962852,21.3203202 15.8129749,21.4591666 15.7809278,21.3183755 C15.7637712,21.2382569 15.7987317,21.1243018 15.7780144,21.03446 C15.7602104,20.9523967 15.68511,20.8574989 15.6401146,20.8396083 C15.5837893,20.8182174 15.5510947,20.8890019 15.5031859,20.8337745 C15.4636934,20.7898259 15.4488028,20.6253104 15.4141628,20.5599709 C15.3678725,20.6004192 15.3390624,20.637756 15.2782052,20.6229769 C15.2086079,20.6027527 15.2154058,20.5743612 15.1636124,20.4954093 C15.0509618,20.3262268 14.9862201,20.5969189 14.8823097,20.5541371 C14.8033248,20.5238009 14.7301667,20.2850007 14.6683384,20.1877693 C14.6353201,20.1360422 14.5424158,19.9680264 14.4948306,20.0053633 C14.4515739,20.0391761 14.4526013,20.1074888 14.4563356,20.1760371 Z" fill="#964B36" id="path1583"/><path d="M24.9988349,5.777989 C24.9988349,5.777989 25.048594,6.5899487 24.4977355,7.4513039 L24.3471824,6.7926965 L23.9966361,6.8934247 L23.896799,6.4879291 L23.2441896,6.437565 L23.4457777,5.5752412 L22.7434092,6.1331205 L22.8442032,5.5242314 L22.0426355,6.3368368 L22.1434296,4.6118664 L21.2911459,6.0824335 L21.390983,5.0690175 L21.0908337,5.5245543 L20.9099786,4.9337447 L20.6407693,5.5245543 L20.2388691,5.2210783 L20.2388691,5.6265739 L19.5384144,5.0180077 L19.2880242,5.8289988 L18.9374779,4.9676436 L18.8370028,5.5755641 L18.4854996,4.865624 L18.4366974,5.6265739 L17.2833076,5.1190587 L17.5336978,5.8289988 L16.9837962,5.4241489 L17.0836333,5.8289988 L16.3331006,5.6775837 L16.3822218,6.1334433 L15.5806541,5.9810597 L15.7315262,6.3862324 L14.6288523,6.2351401 L15.0282008,6.6913226 L14.9171998,6.8769595 C14.9171998,6.8769595 20.9402806,4.8665925 21.341224,12.4718944 L20.2388691,13.0294508 L20.5399753,12.4224988 L20.2388691,12.2187825 L19.3377832,11.509811 L19.5881735,10.5454676 L19.2880242,10.6474872 L19.2373082,10.0899308 L19.087393,10.1909818 L18.7358898,9.6334286 L18.6360527,9.836496 L18.3856625,9.1762776 L18.1352723,9.6337515 L17.9844002,8.5176701 L17.5844138,9.2285788 L17.5333788,8.8227603 L17.3828257,9.0761951 L16.8820453,8.467306 L16.733087,8.8731244 L16.531499,8.5690028 L16.3819028,8.9234885 L15.8307254,8.4156505 L15.8307254,8.8227603 L15.480498,8.5176701 L15.328669,8.7207408 L14.4786182,8.2642354 L14.4266231,8.6690853 L13.9768776,8.2642354 L13.8260056,8.6690853 C13.8260056,8.6690853 19.2880242,11.8139326 17.5837758,16.9352513 L17.2823507,17.5938587 L17.1834705,15.8708254 L16.68269,16.7828676 L17.0310036,14.805431 L16.68269,15.1599168 L16.6310171,14.4002583 L16.1819096,15.1599168 L16.0291237,14.2985615 L15.8304064,14.5519963 L15.5283433,13.2331671 L15.2779531,13.7916921 L14.8776477,12.3211249 L14.5774984,12.9290454 L14.3768641,11.6625175 L14.1762329,12.4228217 L13.5746585,11.3067403 L13.4754593,11.7622771 L13.1252319,10.850235 L12.9236439,11.1553252 C12.9236439,11.1553252 11.921764,11.1036697 11.6216148,10.850235 C11.3211465,10.5977688 10.4691818,12.3721347 10.4691818,12.3721347 L10.5696569,11.3067403 L10.2194295,12.0157119 L10.2194295,11.3067403 L9.567777,13.4359149 L9.4172239,11.9149837 L9.0666776,13.2331671 L8.9158056,12.8283173 L8.8159684,13.3865194 L8.6153373,13.182803 L8.4405426,13.781361 L8.1136,13.5382573 L8.1136,14.3492485 L7.8134507,13.9434301 L7.5630605,15.1605625 L7.4131453,14.6546615 L7.4131453,15.2112494 L7.1627551,14.9084191 L6.9114079,16.1255515 L6.5611806,15.6186821 L6.5120595,16.4793916 L6.6610177,17.1396133 L6.2607123,16.9365427 L6.4115844,18 C6.4115844,18 4.8582082,15.0601571 6.7126906,12.2200739 C8.5649403,9.381931 11.0701183,8.6206582 11.0701183,8.6206582 L10.8187712,8.3681921 L10.7690121,8.1137888 L9.2663519,8.874093 L9.3170678,8.4166191 L8.9158056,8.7720734 L8.8159684,8.2652039 L8.5646213,8.7217093 L8.5158192,8.5186387 L8.1643159,9.0771636 L7.9630469,8.2652039 L7.7132946,9.2295473 L7.476939,8.5551204 L6.9621239,9.9888797 L6.9621239,8.9244571 L6.5611806,10.0405352 L6.4112654,8.823406 L6.1111162,10.2423145 L6.1111162,8.9748212 L5.6591379,10.2423145 L5.3589886,9.0261538 L5.1583575,10.1916275 L4.8582082,9.2795885 L4.556783,10.6481329 L4.1067185,9.4310037 L3.8563283,11.2570219 L3.556179,10.5461133 L3.505463,11.8649424 L3.1558736,11.0539513 L3.505463,12.7769846 L3.0544417,12.1183772 L3.2053138,13.182803 L2.5546182,12.0163576 L2.6043772,13.3868422 L2.253193,12.9293683 L2.1023209,13.4365606 C2.1023209,13.4365606 1.9533627,8.1635072 5.5089038,7.1484737 C9.0669966,6.1347347 11.3712245,7.453241 11.3712245,7.453241 L10.0191174,6.3381282 L10.1690325,5.9826739 L9.6682521,5.9826739 L9.8685643,5.5768555 L8.8169253,5.6281881 L9.1170746,5.2223697 L8.314869,5.3234207 L8.314869,5.0703089 L7.8140886,5.4748359 L8.0147197,5.0192991 L7.3133082,5.4748359 L7.2705664,4.8004089 L6.9120459,5.3747534 L6.7133286,4.7658643 L5.1092363,6.3875238 L5.5599387,4.7148545 L5.2597894,5.0703089 L5.2100303,4.7148545 L4.759009,5.4254403 L4.6585339,4.9179252 L4.4579028,5.5258457 L4.3070307,4.8165513 L3.9577603,5.5258457 L3.6062571,4.8678839 L3.4566609,5.7302077 L3.2053138,5.2727338 L2.9048455,5.9319869 L2.5048591,5.5258457 L2.4541431,5.9319869 L1.6525754,5.5768555 L1.8532066,6.1857445 L1.2516321,5.6788751 L1.1007601,6.4898662 L0.7511707,6.0840478 L0.5007804,7.0990781 L0.2503902,6.1350576 L0,6.8956846 C0,6.8956846 3.1329079,-1.2523227 11.0589544,4.0636726 C11.0589544,4.0636726 11.922083,4.9179252 12.1227142,5.5261685 C12.3233453,6.1350576 12.1734301,5.628511 12.1734301,5.628511 L12.0225581,0 L12.3230263,2.433942 L12.5233385,1.5716182 L12.4735794,2.8394375 L13.2741902,1.0644259 C13.2741902,1.0644259 12.3233453,4.005883 12.6732537,5.0703089 C12.6732537,5.0703089 13.0247569,1.6733149 14.2279058,1.2671737 L13.1252319,3.7007928 L13.4754593,3.649783 L13.2250691,4.157621 L13.5255373,4.157621 L13.1622323,4.9621552 L12.9743599,5.3747534 L13.1740341,5.7799261 L13.4767351,5.4728988 C13.4767351,5.4728988 19.036996,-2.3855149 24.9988349,5.777989 Z" fill="#00A651" id="path1885"/></g><g id="bird" transform="translate(5.000000, 55.000000)"><path d="M3.07814791,4.06090107 C3.04466035,4.02862354 3.03056641,4.01804691 3.03056641,4.01804691 L2.94710223,4.00000001 C2.94710223,4.00000001 2.79368441,4.18812874 2.66658692,4.43147839 L2.66658692,4.43147839 C2.30475493,4.48339943 1.63440556,4.61153344 1.43562168,4.86688509 C1.15811742,5.22197817 1.4555907,5.47467198 1.05774234,5.60178942 C1.05774234,5.60178942 2.01236745,5.38743637 2.52016961,5.13192844 C2.52663722,5.15381213 2.53476398,5.17512234 2.54469697,5.19575031 C2.75668964,5.63789841 3.21177572,5.67573861 3.10419261,6.00000001 C3.10419261,6.00000001 3.45250385,5.30958683 3.49563583,4.82084302 C3.75326469,5.31949835 3.9339379,5.92240789 3.9339379,5.92240789 C3.9339379,5.92240789 4.0453524,6.39423689 3.9788028,5.01088559 C3.91616185,3.72219571 3.17975514,4.01430769 3.07814791,4.06090107 Z M2.76639878,2.57114633 C3.08053717,2.33784637 3.52047643,2.22053822 3.52047643,2.22053822 L3.57737899,2.28599713 C3.57737899,2.28599713 3.61302661,2.41054471 3.63613276,2.88990116 C3.65122428,3.18742551 3.18613546,3.54770698 2.82932928,3.77916674 C2.80467214,3.95972994 2.77870424,4.08273909 2.77870424,4.08273909 C2.78393391,3.99157051 2.75665202,3.92043514 2.70820919,3.85559227 C2.54744524,3.95430462 2.43076716,4.01547728 2.43076716,4.01547728 C2.55168219,3.92687597 2.55873789,3.81919053 2.53412896,3.68567485 C2.3966089,3.57072991 2.22451423,3.43656001 2.0816287,3.2059503 C1.78472122,2.73082149 2.16084338,1.96981136 2.16084338,1.96981136 L2.23939852,1.99068839 C2.23939852,1.99068839 2.34418649,2.07339955 2.69186131,2.45868351 C2.72073285,2.49071188 2.74541315,2.52859668 2.76639878,2.57114633 L2.76639878,2.57114633 Z M2.47117758,3.67336523 C2.47117758,3.67336523 1.56159533,3.28805045 1.18365904,3.63055979 C0.802679121,3.97273294 0.887159427,4.43591218 0.539255178,4.42589583 C0.539255178,4.42589583 1.89246444,4.67010622 2.1620267,4.27534649 C2.428843,3.88021927 2.47581979,3.76046564 2.47581979,3.76046564 L2.47117758,3.67336523 Z" fill="#00A651" id="path2003"/><path d="M14.8391056,5.26809072 C15.6742904,4.80893892 16.2318545,2.6217344 16.2318545,2.6217344 C16.0320541,3.2134149 14.4951026,3.8031512 14.4951026,3.8031512 C15.6308087,3.1129653 17,0 17,0 C16.6327696,1.1149905 13.6595875,2.0323221 11.7544149,3.0812103 C9.8492424,4.1297744 10.8521907,7.1471506 10.8521907,7.1471506 C10.3181876,6.7861801 9.2818847,5.1806067 9.0820876,3.769452 C8.880309,2.3602414 8.3126211,1.8035562 7.0094818,1.6392726 C5.7056819,1.4749889 4.9375364,2.9169266 4.9375364,2.9169266 L3,3.9016566 L4.9702305,3.9664628 C4.9702305,3.9664628 6.375415,4.4265867 6.375415,5.508202 C6.375415,6.5907894 5.1389847,10.9182227 7.1762545,13.3448904 C8.5943185,15.0311475 13.8266905,16 13.8266905,16 L16.0975956,21 C16.0975956,21 16.6026548,20.1653613 16.7350098,20.3373289 C16.8673647,20.5099775 17.1347086,20.2682013 17.1347086,20.2682013 C17.1347086,20.2682013 17.5018125,20.0975959 17.7003449,20.2682013 C17.9015113,20.4405094 17.9350939,20.2334673 17.9350939,20.2334673 L18.2347033,20.0274467 L18.6676555,20.1313083 C18.6676555,20.1313083 18.4338943,19.5796499 18.6008195,19.751277 C18.7667571,19.9232446 19.2665452,20.0611592 19.2665452,20.0611592 C19.2665452,20.0611592 19.1332025,19.4424164 19.3333812,19.6140435 C19.5329013,19.7866921 19.9668412,19.8558197 19.9668412,19.8558197 C19.9668412,19.8558197 20.4333759,19.9937343 20.1996147,19.9246067 C19.9668412,19.8558197 19.5997373,19.3031397 19.5997373,19.3031397 C19.7334092,19.5449159 20.5993135,19.649462 20.4333759,19.6140435 C20.2664507,19.5793094 19.4002171,18.6489818 19.4002171,18.6489818 C20.4333759,19.5438943 21,19.3031397 21,19.3031397 C19.8009036,19.0981407 16.6023256,15.4452769 16.6023256,15.4452769 C16.435397,13.8951849 14.7621933,11 14.7621933,11 C11.2257172,11.9075664 14.9350677,11.0209796 14.9350677,11.0209796 C16.258131,10.9197034 17.3229553,9.5920101 17.3229553,9.5920101 C16.8064836,10.307336 14.839106,9.4564145 14.839106,9.4564145 C16.9674825,9.2175239 18.258024,7.4137317 18.258024,7.4137317 C17.8384705,8.2303338 14.9675863,8.4682149 14.9675863,8.4682149 C18.0316691,8.0257627 19.2906485,5.165805 19.2906485,5.165805 C18.9673755,5.8128283 16.1296507,6.8006914 16.1296507,6.8006914 C19.6451648,5.2007974 20,2 20,2 C19.5804465,3.9414066 15.5809789,5.27032088 14.8391056,5.50820208 C14.1967479,5.71504858 11,8.9449867 11,8.9449867 L14.8391056,5.26809072 Z" fill="#FFFFFF" id="path2025" stroke="#000000" stroke-width="0.1"/><path d="M6.5,3.85485837 C6.77614239,3.85485837 6.89074707,3.70357162 6.89074707,3.42742923 C6.89074707,3.15128684 6.77614239,3.0792847 6.5,3.0792847 C6.22385761,3.0792847 6.07128906,3.15128684 6.07128906,3.42742923 C6.07128906,3.70357162 6.22385761,3.85485837 6.5,3.85485837 Z" fill="#000000" id="circle2053"/></g><g id="banana" stroke="#000000" stroke-width="0.1" transform="translate(40.000000, 54.000000)"><path d="M12.2034311,3.4929431 C12.2034311,3.4929431 14.5309361,0.3023107 16.5946683,1.1402441 C18.6587323,1.9788675 19.9998264,2.382483 19.9998264,2.382483 C19.9998264,2.382483 20.0389776,4.5313044 18.9414171,4.5313044 C17.846511,4.5313044 16.7967283,2.3852428 15.7987047,3.0230933 C14.7990222,3.6599089 13.9781744,4.5323393 13.9134754,4.8331536 C13.8491082,5.1343129 11.2697748,5.2019271 12.2034311,3.4929431 C12.2034311,3.4929431 11.2697748,5.2019271 12.2034311,3.4929431 L12.2034311,3.4929431 L12.2034311,3.4929431 L12.2034311,3.4929431 L12.2034311,3.4929431 Z" fill="#964B36" id="path1575"/><path d="M6,5.9602308 C6,5.9602308 6.060375,1.8249798 9.4629609,2.0057592 C10.1076911,2.0650871 9.8001852,2.8201983 9.8001852,2.8201983 C9.8001852,2.8201983 10.5362599,2.3083006 10.8725456,3.1218079 C10.8725456,3.1218079 11.9458445,2.6394189 12.0678458,3.6961397 C12.0678458,3.6961397 13.2328022,3.5458008 13.0792056,4.4807595 C13.0792056,4.4807595 13.8759682,4.2999801 13.8462499,4.9640804 C13.8462499,4.9640804 14.7653266,4.6015898 14.6727307,5.5374803 C14.6727307,5.5374803 15.6844034,4.8733801 15.5320581,6.0801291 C15.5320581,6.0801291 16.5743874,5.3567009 16.9407043,6.5637606 C17.3085852,7.7705097 15.8993134,10.3362104 14.5197598,11 L6,5.9602308 Z" fill="#FEE94E" id="path1909"/><path d="M3.98914599,17.1497672 C3.98914599,17.1497672 2.91340039,16.4331479 2.06939069,18.1350312 C1.22448279,19.8365643 0.527179287,22.5941126 0.0325698873,22.9688842 C-0.461740213,23.3429553 4.83315569,20.246011 4.89153879,18.9528739 C4.89153879,18.9528739 5.24004079,17.2846149 4.68764709,17.317889 C4.13495399,17.3536149 4.10561279,17.4219144 3.98914599,17.1497672 C3.98914599,17.1497672 4.10561279,17.4219144 3.98914599,17.1497672 L3.98914599,17.1497672 L3.98914599,17.1497672 L3.98914599,17.1497672 L3.98914599,17.1497672 Z" fill="#964B36" id="path1931"/><path d="M4.0692216,11.1327609 C4.0692216,11.1327609 3.4449868,7.2326629 5.9456518,6.0058255 C5.9456518,6.0058255 6.4076465,5.9132519 6.6698048,6.466166 C6.6698048,6.466166 7.9870316,5.9445311 8.0202248,6.9868531 C8.0202248,6.9868531 8.6776528,6.4961814 8.8426025,7.1710525 C8.8426025,7.1710525 10.2577153,6.8955433 9.9945409,7.8775187 C9.9945409,7.8775187 11.1789951,7.5707304 11.080093,8.5214267 C11.080093,8.5214267 12.2655633,8.1226966 12.0670817,8.9517518 C12.0670817,8.9517518 13.3172448,8.6762426 13.0218934,9.6275708 C13.0218934,9.6275708 14.5694402,9.4746505 14.1084616,10.4872732 C14.1084616,10.4872732 15.2604,10.2114481 14.9965482,11.0401873 C14.9965482,11.0401873 16.5109018,11.286313 15.8189259,12.1763467 C15.1279661,13.0657486 13.3832925,14.4167546 11.6738443,15 L4.0692216,11.1327609 Z" fill="#00A651" id="path1935"/><path d="M2.2560002,15.1801454 C2.2560002,15.1801454 1.2805204,11.8594061 3.1379142,11.0118048 C3.1379142,11.0118048 3.4820679,10.9173044 3.5452005,11.2630535 C3.5452005,11.2630535 3.9550769,10.7295936 4.2700924,11.2004832 C4.2700924,11.2004832 5.2128727,10.7615238 5.4343225,11.4507643 C5.4343225,11.4507643 6.0627348,10.9173044 6.3780741,11.7000777 C6.3780741,11.7000777 6.9757295,11.4507643 6.9757295,12.0767894 C6.9757295,12.0767894 7.7935396,11.7320079 7.7935396,12.4844637 C7.7935396,12.4844637 8.5786503,12.1712898 8.4219519,13.016956 C8.4219519,13.016956 9.6179102,13.2046667 9.271814,13.7687667 C9.271814,13.7687667 10.3431258,14.0500103 9.9322782,14.4899373 C9.9322782,14.4899373 11.0955371,14.3647968 10.466801,15.1478927 C10.466801,15.1478927 11.3477438,14.866649 10.8449492,15.8387458 C10.3408595,16.8095524 8.7690194,17.8748595 7.6679219,18 L2.2560002,15.1801454 Z" fill="#00A651" id="path1953"/><path d="M3.4466675,17.3367702 C3.4466675,17.3367702 1.2395164,15.5347068 2.2776898,15 C2.2776898,15 2.7441105,15.1115784 2.9120908,15.506305 C2.9120908,15.506305 3.4466675,14.8588606 3.7488943,15.5341272 C3.7488943,15.5341272 4.5519641,15.3092315 4.5519641,15.7607617 C4.5519641,15.7607617 5.2527999,15.7607617 5.1863651,16.1551986 C5.1863651,16.1551986 5.9233443,16.098395 5.7897862,16.4928319 C5.7897862,16.4928319 6.5925117,16.4079164 6.5584337,16.7742413 C6.5584337,16.7742413 7.2616791,16.8020634 7.1949001,17.1956308 C7.1949001,17.1956308 8.3976115,17.3645924 7.8630348,17.8726363 C7.8630348,17.8726363 5.7557082,18.2378019 4.2845036,17.7314969 C4.2845036,17.7312071 3.5134465,17.505442 3.4466675,17.3367731 C3.4466675,17.3367731 3.5134465,17.505442 3.4466675,17.3367731 L3.4466675,17.3367702 L3.4466675,17.3367702 L3.4466675,17.3367702 L3.4466675,17.3367702 Z" fill="#00A651" id="path1977"/></g></g></g></g></g></svg>