<?xml version="1.0" ?><svg height="180px" version="1.1" viewBox="0 0 180 180" width="180px" xmlns="http://www.w3.org/2000/svg" xmlns:sketch="http://www.bohemiancoding.com/sketch/ns" xmlns:xlink="http://www.w3.org/1999/xlink"><title/><desc/><defs/><g fill="none" fill-rule="evenodd" id="Page-1" stroke="none" stroke-width="1"><g id="Material" transform="translate(-180.000000, -180.000000)"><g id="Slice" transform="translate(180.000000, 180.000000)"/><g id="circle_gambia" transform="translate(180.000000, 180.000000)"><ellipse cx="89.9972382" cy="90" id="path-1" rx="89.9972382" ry="90"/><path d="M174.873467,120 L5.12100983,120 C17.475726,154.955772 50.8118738,180 89.9972382,180 C129.182603,180 162.51875,154.955772 174.873463,120 L174.873467,120 Z" fill="#4EAB53" id="Rectangle-3-copy-2"/><path d="M5.12100983,120 L174.873467,120 C178.189905,110.616633 179.994476,100.519063 179.994476,90 C179.994476,79.480937 178.189905,69.3833673 174.873463,59.9999996 L5.12100983,60 C1.80457108,69.3833673 0,79.480937 0,90 C0,100.519063 1.80457108,110.616633 5.12101363,120 L5.12100983,120 Z" fill="#FFFFFF" id="Rectangle-3-copy-3"/><path d="M5.12100983,60 L174.873467,60 C162.51875,25.0442275 129.182603,0 89.9972382,0 C50.8118738,0 17.475726,25.0442275 5.12101363,59.9999996 L5.12100983,60 Z" fill="#F1453D" id="Rectangle-3"/><path d="M3.51755828,115 L176.476918,115 C178.767239,107.062752 179.994476,98.6746991 179.994476,90 C179.994476,81.3253009 178.767239,72.9372476 176.476918,65 L3.51755828,65 C1.22723777,72.9372476 0,81.3253009 0,90 C0,98.6746991 1.22723777,107.062752 3.51755828,115 Z" fill="#2B98F0" id="Rectangle-3-copy-3"/></g></g></g></svg>