<?xml version="1.0" ?><svg height="180px" version="1.1" viewBox="0 0 180 180" width="180px" xmlns="http://www.w3.org/2000/svg" xmlns:sketch="http://www.bohemiancoding.com/sketch/ns" xmlns:xlink="http://www.w3.org/1999/xlink"><title/><desc/><defs/><g fill="none" fill-rule="evenodd" id="Page-1" stroke="none" stroke-width="1"><g id="Material" transform="translate(-180.000000, -180.000000)"><g id="Slice" transform="translate(180.000000, 180.000000)"/><g id="circle_guinea_bissau" transform="translate(180.000000, 180.000000)"><path d="M60,174.879484 L60,90 L179.994476,90 C179.994476,139.70563 139.701343,180 89.9972382,180 C79.479186,180 69.3825591,178.19561 59.9999996,174.87948 Z" fill="#4EAB53" id="Rectangle-3-copy-2"/><path d="M60,5.12051622 L60,90 L179.994476,90 C179.994476,40.2943701 139.701343,0 89.9972382,0 C79.479186,0 69.3825591,1.80439039 59.9999996,5.12052001 Z" fill="#FEE94E" id="Rectangle-3-copy-3"/><path d="M60,174.879484 L60,5.12051622 C25.0443384,17.4750916 0,50.812745 0,90 C0,129.187255 25.0443384,162.524908 59.9999996,174.87948 Z" fill="#F1453D" id="Rectangle-3"/><path d="M8,78.5920861 L25.4461175,78.5920861 L30.8352353,62 L36.2243442,78.5920861 L53.6704617,78.5920861 L39.5582896,88.8450912 L44.9474074,105.437175 L30.8352353,95.1841615 L16.7230632,105.437175 L22.1121721,88.8450912 L8,78.5920861 L8,78.5920861 L8,78.5920861 L8,78.5920861 Z" fill="#262626" id="Shape"/></g></g></g></svg>