<?xml version="1.0" ?><svg height="180px" version="1.1" viewBox="0 0 180 180" width="180px" xmlns="http://www.w3.org/2000/svg" xmlns:sketch="http://www.bohemiancoding.com/sketch/ns" xmlns:xlink="http://www.w3.org/1999/xlink"><title/><desc/><defs/><g fill="none" fill-rule="evenodd" id="Page-1" stroke="none" stroke-width="1"><g id="Material" transform="translate(-180.000000, -180.000000)"><g id="Slice" transform="translate(180.000000, 180.000000)"/><g id="circle_guyana" transform="translate(180.000000, 180.000000)"><circle cx="90" cy="90" fill="#FFFFFF" id="Oval-1" r="90"/><path d="M22.2887643,30.6278478 C26.3807963,25.9547851 30.947885,21.7106711 35.9143338,17.9714446 L175.80373,64.6012432 C178.16116,72.6561234 179.425877,81.1798938 179.425877,90 C179.425877,98.8201062 178.16116,107.343877 175.80373,115.398757 L175.80373,115.398757 L35.9143338,162.028555 C31.0270462,158.348929 26.5264893,154.180382 22.4847974,149.59528 L107.223704,90.1802885 L22.2887643,30.6278478 L22.2887643,30.6278478 L22.2887643,30.6278478 L22.2887643,30.6278478 Z" fill="#FEE94E" id="Oval-15-copy-4"/><path d="M19.7048253,33.7933763 C20.5582626,32.7274069 21.435443,31.6812709 22.335565,30.6557699 L22.335565,30.6557699 L107,90 L22.335565,149.34423 C21.435443,148.318729 20.5582626,147.272593 19.7048253,146.206624 L100,90 L19.704836,33.7933852 L19.704836,33.7933852 L19.7048253,33.7933763 L19.7048253,33.7933763 Z" fill="#262626" id="Oval-15-copy-2"/><path d="M19.7048246,33.7933772 C7.37422416,49.1946762 0,68.7361664 0,90 C0,111.263834 7.37422416,130.805324 19.7048246,146.206623 L100,90 L19.7048246,33.7933772 L19.7048246,33.7933772 L19.7048246,33.7933772 L19.7048246,33.7933772 Z" fill="#F1453D" id="Oval-15-copy-3"/><path d="M41.8952438,13.9236858 L174.091136,57.8583661 C161.15214,24.0258182 128.38313,0 90.0027574,0 C72.3102162,0 55.810098,5.10552315 41.8952438,13.9236858 C41.8952438,13.9236858 55.810098,5.10552315 41.8952438,13.9236858 Z M41.7782934,166.002074 C55.7176067,174.865815 72.2606235,180 90.0027574,180 C128.586947,180 161.500019,155.718328 174.295592,121.601808 L41.7782934,166.002074 Z" fill="#4EAB53" id="Rectangle-40-copy" transform="translate(108.278293, 90.000000) scale(1, -1) translate(-108.278293, -90.000000) "/></g></g></g></svg>