<?xml version="1.0" ?><svg height="180px" version="1.1" viewBox="0 0 180 180" width="180px" xmlns="http://www.w3.org/2000/svg" xmlns:sketch="http://www.bohemiancoding.com/sketch/ns" xmlns:xlink="http://www.w3.org/1999/xlink"><title/><desc/><defs/><g fill="none" fill-rule="evenodd" id="Page-1" stroke="none" stroke-width="1"><g id="Material" transform="translate(-180.000000, -180.000000)"><g id="Slice" transform="translate(180.000000, 180.000000)"/><g id="circle_haiti" transform="translate(180.000000, 180.000000)"><path d="M180,90 C180,139.70563 139.70563,180 90,180 C40.2943701,180 0,139.70563 0,90 L180,90 Z" fill="#F1453D" id="Oval-1"/><path d="M180,90 C180,40.2943701 139.70563,0 90,0 C40.2943701,0 0,40.2943701 0,90 L180,90 Z" fill="#2B98F0" id="Oval-1"/><g id="Group" transform="translate(36.000000, 46.000000)"><rect fill="#FFFFFF" height="88" id="Background" width="106" x="1" y="0"/><g id="Small-flag" stroke-width="0.1" transform="translate(0.000000, 60.000000)"><path d="M9,2.76175323 C9,2.76175323 6.41790816,2.72393751 5.95741718,2.89156693 C5.7716082,2.95920503 6.60688052,3.76888681 6.43346733,4.07843257 C5.78836456,5.22995034 1.39902721,5.07215801 1.05203041,4.8202224 C0.458368339,4.38919603 5.14017296,4.01940812 5.17089934,3.72608192 C5.2061695,3.38938206 4.47853963,2.50598127 4.59136067,1.96432869 C4.73774129,1.26155511 6.64044649,1 6.64044649,1 L9,2.76175323 L9,2.76175323 Z" fill="#F1453D" id="path3430" stroke="#D20014"/><path d="M12,5.35343996 L6.51589388,0.1436672 C6.51589388,0.1436672 6.27429403,-0.150254516 6.07217507,0.10271365 C5.87426101,0.3504182 6.14612854,0.63510754 6.14612854,0.63510754 L11.8035469,6 L12,5.35343996 L12,5.35343996 Z" fill="#503200" id="path3426" stroke="#000000"/><path d="M18,9.7826079 C17.8923084,9.673913 13.0461542,5.28260958 13.0461542,5.28260958 L12.7230771,4 C12.7230771,4 11.9746158,4.53043511 11.6999989,4.80434607 C11.4253842,5.07825926 11,5.82608647 11,5.82608647 L12.356922,5.89130432 L16.643078,10 L18,9.7826079 L18,9.7826079 Z" fill="#FEE94E" id="path3428" stroke="#000000"/></g><g id="Small-flag" stroke-width="0.1" transform="translate(93.000000, 64.000000) scale(-1, 1) translate(-93.000000, -64.000000) translate(84.000000, 59.000000)"><path d="M9,2.76175323 C9,2.76175323 6.41790816,2.72393751 5.95741718,2.89156693 C5.7716082,2.95920503 6.60688052,3.76888681 6.43346733,4.07843257 C5.78836456,5.22995034 1.39902721,5.07215801 1.05203041,4.8202224 C0.458368339,4.38919603 5.14017296,4.01940812 5.17089934,3.72608192 C5.2061695,3.38938206 4.47853963,2.50598127 4.59136067,1.96432869 C4.73774129,1.26155511 6.64044649,1 6.64044649,1 L9,2.76175323 L9,2.76175323 Z" fill="#F1453D" id="path3430" stroke="#D20014"/><path d="M12,5.35343996 L6.51589388,0.1436672 C6.51589388,0.1436672 6.27429403,-0.150254516 6.07217507,0.10271365 C5.87426101,0.3504182 6.14612854,0.63510754 6.14612854,0.63510754 L11.8035469,6 L12,5.35343996 L12,5.35343996 Z" fill="#503200" id="path3426" stroke="#000000"/><path d="M18,9.7826079 C17.8923084,9.673913 13.0461542,5.28260958 13.0461542,5.28260958 L12.7230771,4 C12.7230771,4 11.9746158,4.53043511 11.6999989,4.80434607 C11.4253842,5.07825926 11,5.82608647 11,5.82608647 L12.356922,5.89130432 L16.643078,10 L18,9.7826079 L18,9.7826079 Z" fill="#FEE94E" id="path3428" stroke="#000000"/></g><path d="M75.3327603,64 L53.7006385,64.6449879 L32.1661346,64.8965332 C32.1661346,64.8965332 21.1025102,69.1002032 16.5798134,70.0435367 C12.0704345,70.9840942 12.6568183,72.5060737 9.16736248,73.3071755 C6.37239425,73.9488384 6.0500418,74.1511664 4.41011788,74.2617576 C3.41774338,74.3286815 2.19545565,75.1130446 1,75.9774254 L1,88 L107,88 L107,76.5643644 C105.851006,75.9211639 104.756059,75.4786898 103.635437,75.0873421 C102.078272,74.543542 101.028885,73.9488384 98.2339145,73.3071755 C94.7444591,72.5060737 95.3308432,70.9840962 90.8214637,70.0435367 C86.2987664,69.1002011 75.3327624,63.9999979 75.3327603,64 C75.3327603,64 75.3327624,63.9999979 75.3327603,64 L75.3327603,64 L75.3327603,64 Z" fill="#4EAB53" id="Island" stroke="#016A16" stroke-width="0.1"/><path d="M13.4926758,73.0030998 C12.8189422,73.0920386 12.6941211,73.9016253 12.9467773,74.6448806 C10.0120828,75.5054936 7.39032283,76.6271317 4.80273438,77.3854407 C4.6985863,76.8458429 6.08496094,75.2837037 6.08496094,75.2837058 C6.45170333,75.4682496 6.72607402,76.3441577 6.72607422,76.3441556 C6.81775977,74.5448518 8.51611308,73.3480634 8.51611328,73.3480654 C7.50757166,73.2096581 4.4394963,74.4504099 4.07275391,74.9579049 C4.07275391,74.9579049 5.26047616,74.8194996 5.44384766,74.9579049 C5.44384766,74.9579049 3.10498739,77.5922729 3,78.3756198 C3.36381272,79.2316087 7.39892537,79.8704687 7.39892578,79.8704707 C7.33524487,80.0920664 6.21191386,80.9309206 6.21191406,80.9309206 C7.81682561,81.2986447 10.2372696,80.1127296 10.9599609,79.3913518 C10.9599609,79.3913518 9.07213953,79.228986 7.60205078,77.9859364 C7.60205078,77.9859364 7.90519534,78.7599247 7.72265625,79.1294335 C7.72265625,79.1294335 5.42922144,78.4396617 5.18994141,78.0434307 C5.19602845,78.0091242 10.6150358,76.5451965 13.2387695,75.7628247 C13.3359449,76.2518091 13.8569053,77.1756566 14.4829102,76.9574278 C14.8912586,76.8150751 14.7618916,75.9708854 14.6098633,75.3731413 C14.7575246,75.5054016 14.9490343,75.5839516 15.1621094,75.5839536 C15.6234201,75.5839536 16.0000004,75.2113519 16,74.7470926 C16,74.2828312 15.6234199,73.9038433 15.1621094,73.9038433 C14.7931948,73.9038433 14.4857147,74.1448143 14.375,74.478786 C14.270533,73.9628442 13.9979758,72.9363962 13.4926758,73.0030998 C13.4926758,73.0030998 13.9979758,72.9363962 13.4926758,73.0030998 L13.4926758,73.0030998 L13.4926758,73.0030998 Z" fill="#FEE94E" id="Anchor-left" stroke="#000000" stroke-width="0.1"/><g fill="#FFFFFF" id="Banner" stroke="#000000" stroke-width="0.1" transform="translate(12.000000, 77.000000)"><g id="g3765"><g id="g3753"><path d="M3.31764541,6.11143953 L0.0465952,4.09566538 C13.5358935,5.45384436 16.2906444,0.284668532 19.550231,0.00817742156 C21.5539528,-0.163761917 21.8668431,2.44628559 17.9841554,1.20466339 L18.9882578,3.93440275 C18.9882578,3.93440275 9.4122218,9.8528051 0,7.40808599 L3.31764541,6.11143953 L3.31764541,6.11143953 Z" id="path3741"/></g><g id="use3757" transform="translate(72.000000, 4.000000) scale(-1, 1) translate(-72.000000, -4.000000) translate(61.000000, 0.000000)"><path d="M3.48948719,5.94349399 L0.401706403,3.9751904 C15.9021102,4.51468715 12.3730352,1.00121774 20.1283841,0.0152890576 C22.1324169,-0.238425351 23.6388562,2.77022057 18.5573546,1.29153261 L19.5646332,4.20323601 L17.1268239,4.20606273 C11.8468147,8.26782129 4.72099743,8.63041659 0,7.32657472 L3.48948719,5.94349399 L3.48948719,5.94349399 Z" id="path3763"/></g><path d="M18,1 L18.0000021,4.66666716 C18.0000021,4.66666716 26.6190884,8 41.999999,8 C57.4470936,8 66,4.66666716 66,4.66666716 L66,1 C66,1 59.476538,4.13333349 41.999999,4.13333349 C24.5897353,4.13333349 18,1 18,1 L18,1 L18,1 Z" id="path3745"/></g></g><path d="M33.3556025,32.2115958 L45,45.414798 L45.7480469,56.9726562 L38.9244368,50.1420653 L38.3710439,55.3314461 C41.4933278,56.8846767 43.7134001,57.9840365 43.7740879,58 L68.2020869,61.0835103 L67,58.5075306 C67.0262163,58.5006346 67.3648343,58.2992882 67.9371931,57.952305 L67.3952644,53.6045708 L65.5397139,55.7480469 L63,45.414798 L74.8292349,32.0020147 L72.8496491,31.9397902 L72,30.9789763 C74.1713289,28.5924404 76.2167836,31.3199085 76.2167836,31.3199085 L81,34.8222298 L80.3391611,36 C80.1384417,35.9239646 79.0438031,34.9674903 77.9807646,34.0128523 C79.2257996,36.7639342 79.0016757,39.7019691 78.9534351,40.1908969 L81.5188735,37.9926405 L80.2719229,37.9498292 L79.56418,37.0548748 C81.1109003,34.2145113 83.6464797,37.2097097 83.6464797,37.2097097 L87.5483499,40.5418201 L87.56418,41.8314197 C87.2422976,41.6982377 84.4621898,39.2448337 83.4665166,38.3612257 C84.6141834,41.4674646 83.6071504,46.8486726 83.24637,48.5285567 C83.9635701,48.085365 84.617029,47.6814489 85.1808915,47.3328531 L84.8048247,46.8624558 C86.3547809,43.8463763 89.0998174,47.2465603 89.0998174,47.2465603 L93.8048247,50.9558636 L93.560071,52.6147918 C93.1433931,52.4401986 88.6831394,48.0496919 88.6831394,48.0496919 L87.9495667,48.0241867 C88.2217147,50.3409195 87.326815,52.754189 86.8339384,53.221315 C86.7967167,55.0178623 87.4956509,55.9840208 86.0579348,59.7360752 C85.6339099,62.175608 84.5990042,64.4231415 83.0925459,65.7580948 C81.3061699,73.2390969 74.4422611,73.927561 71.5220839,68.189201 L71.5220838,68.1892011 L50.0032539,69.5143223 L39.9453125,62.7805996 L33.708752,66.7033444 C30.93746,72.9601725 23.7427471,72.4439518 21.9074541,64.7580948 C20.4009958,63.4231415 19.3660901,61.175608 18.9420652,58.7360752 C17.5043491,54.9840208 18.2032833,54.0178623 18.1660616,52.221315 C17.832954,51.9056108 17.3162163,50.7009765 17.1002235,49.2379911 C15.7472598,50.5517733 13.7146618,52.4996754 13.439929,52.6147918 L13.1951753,50.9558636 L17.0001229,47.9561436 C16.994638,46.9477196 17.172125,45.9053899 17.6638176,45 C17.6638176,45 18.3454625,45.3406768 19.4884846,45.9117321 C20.3643233,45.4489532 21.4266551,45.3669825 22.1951753,46.8624558 L21.965886,47.1492588 C22.2215876,47.2769698 22.4855956,47.4088238 22.757033,47.5443816 C22.4804763,46.2600037 21.8100425,42.7388853 22.0515291,39.7671607 C20.831337,40.8441129 18.781494,42.6338367 18.5078815,42.7470466 L18.5237115,41.457447 L22.2728122,38.2557984 C22.4766046,37.3502554 22.8099536,36.5628877 23.3226821,36 L24.2888419,36.8278768 C25.0282467,36.6128213 25.8559126,36.7732402 26.5078815,37.9705016 L26.1501864,38.4228139 L33.5596347,44.7717747 L29.054141,40.2616717 C29.054141,40.2616717 28.4849135,35.6348174 31.0378968,32.2963693 L30.7832165,32 C30.7832165,32 26.9297531,34.8981314 26.6608389,35 L26,33.8222298 L30.7832164,30.3199085 C30.7832164,30.3199085 32.8286711,27.5924404 35,29.9789763 L34.1503509,30.9397902 L33.3556025,32.2115958 L33.3556025,32.2115958 Z" fill="#4054B2" id="path3038" stroke="#000000" stroke-width="0.1"/><path d="M52,57.158983 L66.0733334,43.5 C69.9093358,43.6434218 66.8655051,49.8133827 66.6723265,50.5878614 L66.3326609,50.9553021 L70.219488,48.5 C74.8675894,49.1505982 71.2136008,55.9735242 70.9364614,56.7251965 L66.5985371,60.1769556 L71.0284772,57.5 C75.5407152,58.1528359 70.9328435,66.784669 70.6638049,67.5389267 L57.1182668,72.5 L57.0912028,71.0073393 L51.8817332,72 L38.3361951,67.0389267 C38.0671565,66.284669 33.4592848,57.6528359 37.9715228,57 L39.2123132,57.7497936 L38.524717,57.2251965 C38.2648989,56.4735242 34.8392845,49.6505982 39.1968796,49 L45.5235979,54.3919574 L42.3276735,51.0878614 C42.1344949,50.3133827 39.0906642,44.1434218 42.9266666,44 L52,53.9022213 L52,57.158983 L52,57.158983 Z" fill="#F1453D" id="path3019" stroke="#000000" stroke-width="0.1"/><g fill="#FEE94E" id="Anchor-right" stroke="#000000" stroke-width="0.1" transform="translate(91.000000, 70.000000)"><path d="M2.04623553,4.60084052 L10.1999214,8.41986551 C10.1999214,8.41986551 9.59962209,9.40421326 10.0318376,10 L11.2804622,9.97409623 C11.0883664,8.18673379 13,7.71732182 13,7.71732182 C12.5667176,6.74772353 11.4132716,5.88099819 11.1731519,4.01592222 C11.3955747,3.94315702 12.8677941,4.53046248 12.8677941,4.53046248 C12.6932284,3.87489576 9.33140188,0.235960292 8.32271366,0 C8.32271366,0 9.81370104,3.12908357 9.28101134,5.00117876 C9.28101134,5.00117876 9.84517942,4.20874956 10.2582274,4.15747084 C10.2582274,4.15747084 10.6401491,6.44305092 10.4374809,6.89713128 L2.75619547,3.26500616 C2.73232925,3.25642398 2.70501065,3.24587486 2.67460003,3.23364359 L2.9163858,2.70756557 C3.23386163,2.19985361 2.57774309,1.64378605 2.11211187,2.29656065 L1.79339866,2.86202272 C1.03765116,2.56052147 0.140161514,2.28900153 0.0188264703,2.7728345 C-0.118469643,3.32031214 0.521311652,3.80694615 1.08821347,4.12862488 C0.716469991,5.040556 1.61411994,5.27911125 2.02745165,4.64171052 C2.02745165,4.64171052 1.60415054,5.29448511 2.02745165,4.64171052 L2.04623553,4.60084052 L2.04623553,4.60084052 Z" id="path3723"/></g><path d="M28.64179,36 C28.7910432,34.9319379 30.641791,32.2617786 30.9104472,32.1675372 C32.299999,32.6225118 33.5925492,33.494822 35,30.031411 C33.7761196,31.7277455 31.2985065,30 31.2985065,30 L30.2238794,30.9738207 L30.2537316,31.4450255 L27,34.7434552 L28.64179,36 L28.64179,36 Z M20.7287262,43.7347349 C20.7740306,42.6358238 22.9037454,39.6982757 23.2030785,39.6082032 C24.9292174,40.3724726 26.3761936,41.3591645 27.6643161,37.9177256 C26.3006855,39.5390211 23.5333288,37.7347349 23.5333288,37.7347349 L22.3359942,38.6654777 L22.3760898,39.2688075 L18.6643161,42.530552 L20.7287262,43.7347349 L20.7287262,43.7347349 Z M15.5161333,55.2787248 C15.6472656,54.0105059 17.5654639,50.4180665 17.8631556,50.3164828 C19.4599029,51.4266891 20.8842889,52.0458283 22.4438517,48.3125831 C20.87071,49.8253078 18.3423147,48.2787248 18.3423147,48.2787248 L17.1515459,49.3284158 L17.1846244,49.8363322 L13.4438517,53.845083 L15.5161333,55.2787248 L15.5161333,55.2787248 Z M78.35821,37 C78.2089568,35.9319379 76.358209,33.2617786 76.0895528,33.1675372 C74.700001,33.6225118 73.4074508,34.494822 72,31.031411 C73.2238804,32.7277455 75.7014935,31 75.7014935,31 L76.7761206,31.9738207 L76.7462684,32.4450255 L80,35.7434552 L78.35821,37 L78.35821,37 Z M86.3433353,43.8191081 C86.2980309,42.5370451 84.168316,39.1099056 83.8689829,39.004821 C82.142844,39.8964687 80.6958678,41.0476093 79.4077454,37.0325972 C80.7713759,38.9241086 83.5387326,36.8191081 83.5387326,36.8191081 L84.7360672,37.9049746 L84.6959716,38.6088594 L88.4077454,42.414228 L86.3433353,43.8191081 L86.3433353,43.8191081 Z M91.4401715,53.5710965 C91.3090392,52.3028776 89.3908408,48.7104382 89.0931492,48.6088545 C87.4964018,49.7190608 86.0720158,50.3382 84.512453,46.6049548 C86.0855948,48.1176795 88.6139901,46.5710965 88.6139901,46.5710965 L89.8047589,47.6207875 L89.7716803,48.1287039 L93.512453,52.1374546 L91.4401715,53.5710965 L91.4401715,53.5710965 Z" fill="#F1453D" id="path3046" stroke="#D20014" stroke-width="0.1"/><path d="M50.9811293,15.498862 L51.2265061,15.5331826 L52.0084634,24.1809893 L53.6334634,24.1809893 L54.2697234,17.2307766 L54.6625765,17.3689321 L54.5521488,18.4951457 L55.4723941,18.6893206 L54.1104298,20.3980585 L54.8098175,20.2427187 C54.9570565,20.786408 54.441719,22.6504858 54.441719,22.6504858 L55.8036813,21.0194177 C55.9141111,22.2621358 54.4785283,24.2427199 54.4785283,24.2427199 L56.4662579,23.5825252 L54.3312893,27.0776705 L56.2085891,25.4077676 L54.29448,28.5922338 C55.2147253,28.8252441 56.7239266,26.3398071 56.7239266,26.3398071 L55.3619643,30.2621366 L57.7914109,27.5048548 C58.1227002,27.8932047 57.8282222,31 57.8282222,31 C58.9325157,28.9805816 59.0061362,28.7475733 58.7852767,26.1067967 L59.705522,27.23301 C59.8895702,25.058252 58.674847,23.6213596 58.674847,23.6213596 L59.9263815,24.8252438 C59.6687127,23.5825252 57.8282222,21.5242724 57.8282222,21.5242724 L60,22.572815 C59.9669026,22.2785041 59.9028313,22.0079008 59.8162893,21.7597706 L59.8162893,21.7597706 L60.3797152,21.2455691 L60.2531325,22.7312885 L60.7462107,22.7041189 L60.9252229,25.0730334 L61.407287,23.2617624 C61.6857656,23.5530807 61.9635004,26 61.9635004,26 C62.6976721,23.2033536 62.3439396,22.8686139 63.9863475,25.299625 C64.1428469,23.7148757 62.9393292,20.7992082 61.1243006,18.404557 L61.6029948,17.9185238 C62.0395109,18.1869255 62.334652,19.5716186 62.334652,19.5716186 L62.8974641,18.1634267 L63.0100282,20.0001985 L63.5165593,18.7144582 L64.0793714,20.4287787 L64.1919334,18.7144582 C64.6094698,18.8383359 65.5426837,21.5920676 65.5426837,21.5920676 C65.7514519,21.6540064 66.1054978,20.0614244 66.1054978,20.0614244 L66.6683099,21.5308419 L67.005998,20.1838758 L67.231122,21.5920676 C67.838447,20.6423382 68.2029492,20.7448565 68.5255913,21.6532933 L68.6381533,20.4900044 L69.1643201,22 L69.5949345,20.4900044 C69.5949345,20.4900044 70.1308808,20.7393012 71,21.2866522 C69.4485394,18.6155857 64.7355189,16.0291296 61.0829828,14.7789114 L61.0829828,14.7789114 L61.4458597,13.8852295 L62.4777083,15.2440675 L62.7643311,14.132291 L63.9681535,15.6764248 C64.5987259,15.2440673 65.6878991,15.9852518 65.6878991,15.9852518 L66.3184715,14.8117099 L67.0063706,16.6029053 L67.7515921,15.9234863 L69.3566886,18.27057 L69.5859869,15.9234863 L70.6178355,19.3823465 L71.3057325,17.2823243 L71.5923574,20 L72.4522302,18.0852741 C72.4522302,18.0852741 73.5987259,19.629408 74,19.8147041 C73.4521834,14.8884621 71.1910812,15.3675981 66.9490439,12.7116877 C66.9490439,12.7116877 66.8538553,12.6807422 66.6788923,12.631757 L66.5585824,11.9440485 L68.504086,12.878572 L68.2179838,11.3210328 L70.3923712,14 L70.3351507,12.3801595 L72.1089908,14 L71.3079025,12.00635 L73.5395104,13.9376985 L73.4250674,12.442461 C73.4250674,12.442461 74.6839235,14.0623017 76,13.6884922 C73.7481159,9.19972974 65.5050204,9.52159313 60.0300363,10.9350284 L60.0300363,10.9350284 C61.2122928,10.1309371 62.9919575,9.25720906 64.3987669,9.37256585 C64.6917753,9.39659228 64.2611146,8.93742562 64.5981016,8.69862367 L65.8949118,9.30168671 C65.8949118,9.30168671 65.7533921,8.12564334 65.2974685,7.6098313 C65.5929774,7.63152017 67.0897468,8.87873492 67.2879745,8.80231824 C67.2879745,8.80231824 66.8646442,8.0710395 66.481013,7.76537315 C66.7783545,7.65074832 69.4398744,8.90601281 69.4398744,8.90601281 C69.4398744,8.90601281 68.7905757,7.93595179 68.4799998,7.54434507 C68.9755689,7.62076156 69.9331451,8.28458644 71,8.07645666 C69.3985401,6.89317983 62.7119939,2.74903367 54.199112,11.0938523 L54.199112,11.0938523 L50.9295767,11.220816 C42.3554491,2.70723907 35.6095209,6.88722373 34,8.07645666 C35.0668549,8.28458644 36.0244311,7.62076156 36.5200002,7.54434507 C36.2094243,7.93595179 35.5601256,8.90601281 35.5601256,8.90601281 C35.5601256,8.90601281 38.2216455,7.65074832 38.518987,7.76537315 C38.1353558,8.0710395 37.7120255,8.80231824 37.7120255,8.80231824 C37.9102532,8.87873492 39.4070226,7.63152017 39.7025315,7.6098313 C39.38298,7.97135788 39.2178777,8.65721935 39.1476991,9.03517282 C34.830945,8.80858479 30.5309335,9.63682689 29,12.6884922 C30.3160765,13.0623017 31.5749326,11.442461 31.5749326,11.442461 L31.4604896,12.9376985 L33.6920975,11.00635 L32.8910092,13 L34.6648493,11.3801595 L34.6076288,13 L36.7820162,10.3210328 L36.495914,11.878572 L38.4414176,10.9440485 L38.3211077,11.631757 C38.1461447,11.6807422 38.0509561,11.7116877 38.0509561,11.7116877 C33.8089188,14.3675981 31.5478166,13.8884621 31,18.8147041 C31.4012741,18.629408 32.5477698,17.0852741 32.5477698,17.0852741 L33.4076426,19 L33.6942675,16.2823243 L34.3821645,18.3823465 L35.4140131,14.9234863 L35.6433114,17.27057 L37.2484079,14.9234863 L37.9936294,15.6029053 L38.6815285,13.8117099 L39.3121009,14.9852518 C39.3121009,14.9852518 40.4012741,14.2440673 41.0318465,14.6764248 L42.2356689,13.132291 L42.5222917,14.2440675 L43.5541403,12.8852295 L43.9170172,13.7789114 C40.2644811,15.0291296 35.5514606,17.6155857 34,20.2866522 C34.8691192,19.7393012 35.4050655,19.4900044 35.4050655,19.4900044 L35.8356799,21 L36.3618467,19.4900044 L36.4744087,20.6532933 C36.7970508,19.7448565 37.161553,19.6423382 37.768878,20.5920676 L37.994002,19.1838758 L38.3316901,20.5308419 L38.8945022,19.0614244 C38.8945022,19.0614244 39.2485481,20.6540064 39.4573163,20.5920676 C39.4573163,20.5920676 40.3905302,17.8383359 40.8080666,17.7144582 L40.9206286,19.4287787 L41.4834407,17.7144582 L41.9899718,19.0001985 L42.1025359,17.1634267 L42.665348,18.5716186 C42.665348,18.5716186 42.9604891,17.1869255 43.3970052,16.9185238 L43.8756994,17.404557 C42.0606708,19.7992082 40.8571531,22.7148757 41.0136525,24.299625 C42.6560604,21.8686139 42.3023279,22.2033536 43.0364996,25 C43.0364996,25 43.3142344,22.5530807 43.592713,22.2617624 L44.0747771,24.0730334 L44.2537893,21.7041189 L44.7468675,21.7312885 L44.6202848,20.2455691 L45.1837107,20.7597706 C45.0971687,21.0079008 45.0330974,21.2785041 45,21.572815 L47.1717778,20.5242724 C47.1717778,20.5242724 45.3312873,22.5825252 45.0736185,23.8252438 L46.325153,22.6213596 C46.325153,22.6213596 45.1104298,24.058252 45.294478,26.23301 L46.2147233,25.1067967 C45.9938638,27.7475733 46.0674843,27.9805816 47.1717778,30 C47.1717778,30 46.8772998,26.8932047 47.2085891,26.5048548 L49.6380357,29.2621366 L48.2760734,25.3398071 C48.2760734,25.3398071 49.7852747,27.8252441 50.70552,27.5922338 L48.7914109,24.4077676 L50.6687107,26.0776705 L48.5337421,22.5825252 L50.5214717,23.2427199 C50.5214717,23.2427199 49.0858889,21.2621358 49.1963187,20.0194177 L50.558281,21.6504858 C50.558281,21.6504858 50.0429435,19.786408 50.1901825,19.2427187 L50.8895702,19.3980585 L49.5276059,17.6893206 L50.4478512,17.4951457 L50.3374235,16.3689321 L51,16.1359224 L50.9811293,15.498862 L50.9811293,15.498862 Z" fill="#4EAB53" id="path3811" stroke="#000000" stroke-width="0.1"/><path d="M26.0937501,63.2920274 L26.3080848,65.5979591 L36.8098305,67.6741391 L37.8085489,69.5224837 L49.9835939,72.9705606 L49.8799367,74.357194 L67.9236298,71.5224837 L68.9223482,69.6741391 L79.4240939,67.5979591 L79.7851286,63.7137455 L88.4539723,62.6950971 L89.4539723,62.5486021 L88.7267021,57.5486021 L87.4539723,57.9749595 L87.5622019,58.5799638 L66.8799367,60.8897886 L66.4078793,64.991702 L67.9236302,64.991702 L65.7302365,68.6936864 L55.3580746,70.6542959 L55.0054898,65.8490247 L89.4539744,46.2805078 L90.0093632,47.3414347 L91.991163,46.6296864 C91.8515328,46.1879214 91.6918782,45.7392619 91.478387,45.2753652 L91.7517831,45.0902589 L93.0109966,45.2503176 L95.9284452,41.7873399 L91.6067904,43.1256753 L91.3067157,44.1164422 L90.9782384,44.3388409 C90.7436002,43.956052 90.4620756,43.56049 90.1172976,43.1481168 L88.5050598,44.4678512 L89.0121207,45.4364601 L58.9796081,61.8784101 L54.2940197,64.4436371 C54.32486,63.8291338 54.3563934,63.1951795 54.388197,62.5486021 L85.5497009,35.6616872 L86.2973199,36.5971487 L88.1069005,35.520332 C87.885543,35.1133262 87.6432134,34.7033734 87.345129,34.2887358 L87.5781822,34.0548639 L88.844801,33.9717126 L91.0478805,30.0156842 L87.0609931,32.1540413 L86.9554789,33.1838619 L86.6754723,33.4648509 C86.3721055,33.133866 86.0202766,32.799289 85.6031486,32.460279 L84.2723493,34.0633956 L84.9549133,34.9174568 L54.498597,60.2730183 C54.5621256,58.944013 54.624791,57.5961138 54.683242,56.283428 L76.6232234,30.0561183 L77.5079765,30.8631093 L79.1268269,29.5164693 C78.8445249,29.1491023 78.541048,28.7821054 78.1817699,28.4192034 L78.3753682,28.1517533 L79.6133851,27.8714829 L81.1704818,23.6195222 L77.5671924,26.3552391 L77.6240768,27.388887 L77.3914739,27.7102192 C77.0400646,27.4307663 76.6402278,27.1553467 76.1752025,26.8857637 L75.1115703,28.6773261 L75.9193354,29.4140958 L64.6191734,42.3677931 L66.8799367,37.247178 L65.7302367,36.9917021 L61.2486451,46.2315256 L59.2103693,48.5680591 L63.8799367,35.1035886 L62.1840596,34.9917021 L57.1553229,50.9238173 L54.7974241,53.6267438 C54.8023002,53.5084043 54.8071167,53.3907287 54.8118706,53.2737641 L58.8799367,36.0289122 L57.466145,35.9917021 L54.9965338,47.610584 C55.0025847,47.2553411 55.0056896,46.9402656 55.0054899,46.6711454 C55.0025942,42.7729104 52.7886496,6.02059074 52.7886496,6.02059074 C52.7886496,6.02059074 50.4783068,42.7830384 50.578244,46.6711454 C50.5864318,46.9896981 50.5950759,47.3725909 50.6040839,47.8102343 L48.2937284,35.9917021 L46.8799367,36.0289122 L49.8825008,51.4349133 L49.4103249,50.9052189 L44.5758138,34.9917021 L42.8799367,35.1035886 L46.9623967,48.1590942 L46.3756458,47.5008677 L42.0296366,36.9917021 L40.8799367,37.247178 L43.1220695,43.8509541 L30.2528827,29.4140958 L31.0606478,28.6773261 L29.9970156,26.8857637 C29.5319903,27.1553467 29.1321536,27.4307663 28.7807442,27.7102192 L28.5481414,27.388887 L28.6050257,26.3552391 L25.0017363,23.6195222 L26.558833,27.8714829 L27.7968499,28.1517533 L27.9904482,28.4192034 C27.6311701,28.7821054 27.3276932,29.1491023 27.0453913,29.5164693 L28.6642417,30.8631093 L29.5489947,30.0561183 L50.7210828,54.8940949 C50.7394805,56.1619973 50.757883,57.4833298 50.7757837,58.8055915 L23.7413934,35.9174568 L24.4239573,35.0633956 L23.0931581,33.460279 C22.6760301,33.799289 22.3242011,34.133866 22.0208343,34.4648509 L21.7408277,34.1838619 L21.6353136,33.1540413 L17.6484262,31.0156842 L19.8515057,34.9717126 L21.1181245,35.0548639 L21.3511777,35.2887358 C21.0530933,35.7033734 20.8107637,36.1133262 20.5894062,36.520332 L22.3989867,37.5971487 L23.1466058,36.6616872 L50.8046004,60.9657564 C50.8179734,61.9823518 50.8308758,62.9821663 50.8430696,63.9405284 L16.2407755,43.2622105 L16.8461612,42.197914 L15.2809636,40.8227173 C14.9735233,41.1653843 14.7128848,41.4973462 14.4886828,41.8207797 L14.1175784,41.5501624 L13.8522638,40.5495266 L9.57994886,39.0611828 L12.374764,42.6238685 L13.6387964,42.5078532 L13.9372623,42.725502 C13.6620554,43.2439802 13.4615132,43.7443128 13.2867347,44.2367691 L15.2424876,45.0172476 L15.7737436,44.0832747 L50.8671207,65.8490255 C50.8690898,66.0067578 50.8710316,66.1626547 50.8729446,66.3165788 L49.3234156,67.164902 L48.1410689,69.7328585 L41.6896281,67.7591796 L40.0511907,64.8687663 L41.1394302,64.9917021 L41.8799367,60.8897901 L16.771707,58.0230638 L16.8799367,57.4180595 L15.6072069,56.9917021 L14.8799367,61.9917021 L15.9017383,61.9917021 L26.0937501,63.2920274 L26.0937501,63.2920274 Z" fill="#FEE94E" id="path3013" stroke="#000000" stroke-width="0.1"/><path d="M81.3769335,61.1958025 C80.4428981,60.3442636 79.2599048,59.7612065 77.9504118,59.5690892 L77.9504118,59.5690892 L77.3300137,65.0557355 C77.3812725,65.0736487 77.4306277,65.0956178 77.4776945,65.1212582 L81.3769335,61.1958025 L81.3769335,61.1958025 Z M82.6354492,62.7602432 C83.038534,63.4594942 83.3152212,64.2406693 83.4342286,65.0724863 L83.4342286,65.0724863 L77.9739051,65.77206 C77.9704965,65.7574391 77.9667672,65.7429416 77.9627249,65.728575 L82.6354492,62.7602432 L82.6354492,62.7602432 Z M73.087423,71.189858 C73.9382229,71.8324653 74.951798,72.2707996 76.0549872,72.431701 L76.0549872,72.431701 L76.5890656,66.9119349 C76.5835631,66.9094515 76.5780871,66.9069197 76.5726381,66.9043402 L73.087423,71.189858 L73.087423,71.189858 Z M71.7599325,69.8452041 C71.1449827,69.0088575 70.7253587,68.0201349 70.5685143,66.9464888 L70.5685143,66.9464888 L75.9953541,66.3555067 L71.7599325,69.8452041 L71.7599325,69.8452041 Z M80.3126145,71.5928202 C79.598004,72.01722 78.7952472,72.3085678 77.9385713,72.4326371 L77.9385713,72.4326371 L77.3438077,66.9393294 C77.3467616,66.938248 77.3497089,66.937153 77.3526496,66.9360445 L80.3126145,71.5928202 L80.3126145,71.5928202 Z M81.7842527,70.398717 C82.6456168,69.462426 83.2359082,68.2729106 83.4302264,66.9550685 L77.8671637,66.4983603 C77.8617723,66.5077214 77.8562336,66.516987 77.8505509,66.5261539 L81.7842527,70.398717 L81.7842527,70.398717 Z M73.1205808,60.7852668 C73.9680549,60.153579 74.9745175,59.7235121 76.068724,59.5663108 L76.068724,59.5663108 L76.7325128,65.0361759 C76.6564736,65.057233 76.5840734,65.0870471 76.5164662,65.1244645 L73.1205808,60.7852668 L73.1205808,60.7852668 Z M71.7399479,62.1821295 C71.1324248,63.0174196 70.7189293,64.0027802 70.5658692,65.0718032 L76.0277999,65.7648677 C76.0323799,65.7458632 76.0375025,65.7270703 76.0431507,65.7085062 L71.7399479,62.1821295 L71.7399479,62.1821295 Z M85,65.9999989 C85,70.4160125 81.4159926,74 77.0000011,74 C72.5840074,74 69,70.4160125 69,65.9999989 C69,61.5840074 72.5840074,58 77.0000011,58 C81.4159926,58 85,61.5840074 85,65.9999989 C85,65.9999989 85,61.5840074 85,65.9999989 L85,65.9999989 L85,65.9999989 Z" fill="#FEE94E" id="use3874" stroke="#000000" stroke-width="0.1"/><path d="M28.3769335,61.1958025 C27.4428981,60.3442636 26.2599048,59.7612065 24.9504118,59.5690892 L24.9504118,59.5690892 L24.3300137,65.0557355 C24.3812725,65.0736487 24.4306277,65.0956178 24.4776945,65.1212582 L28.3769335,61.1958025 L28.3769335,61.1958025 Z M29.6354492,62.7602432 C30.038534,63.4594942 30.3152212,64.2406693 30.4342286,65.0724863 L30.4342286,65.0724863 L24.9739051,65.77206 C24.9704965,65.7574391 24.9667672,65.7429416 24.9627249,65.728575 L29.6354492,62.7602432 L29.6354492,62.7602432 Z M20.087423,71.189858 C20.9382229,71.8324653 21.951798,72.2707996 23.0549872,72.431701 L23.0549872,72.431701 L23.5890656,66.9119349 C23.5835631,66.9094515 23.5780871,66.9069197 23.5726381,66.9043402 L20.087423,71.189858 L20.087423,71.189858 Z M18.7599325,69.8452041 C18.1449827,69.0088575 17.7253587,68.0201349 17.5685143,66.9464888 L17.5685143,66.9464888 L22.9953541,66.3555067 L18.7599325,69.8452041 L18.7599325,69.8452041 Z M27.3126145,71.5928202 C26.598004,72.01722 25.7952472,72.3085678 24.9385713,72.4326371 L24.9385713,72.4326371 L24.3438077,66.9393294 C24.3467616,66.938248 24.3497089,66.937153 24.3526496,66.9360445 L27.3126145,71.5928202 L27.3126145,71.5928202 Z M28.7842527,70.398717 C29.6456168,69.462426 30.2359082,68.2729106 30.4302264,66.9550685 L24.8671637,66.4983603 C24.8617723,66.5077214 24.8562336,66.516987 24.8505509,66.5261539 L28.7842527,70.398717 L28.7842527,70.398717 Z M20.1205808,60.7852668 C20.9680549,60.153579 21.9745175,59.7235121 23.068724,59.5663108 L23.068724,59.5663108 L23.7325128,65.0361759 C23.6564736,65.057233 23.5840734,65.0870471 23.5164662,65.1244645 L20.1205808,60.7852668 L20.1205808,60.7852668 Z M18.7399479,62.1821295 C18.1324248,63.0174196 17.7189293,64.0027802 17.5658692,65.0718032 L23.0277999,65.7648677 C23.0323799,65.7458632 23.0375025,65.7270703 23.0431507,65.7085062 L18.7399479,62.1821295 L18.7399479,62.1821295 Z M32,65.9999989 C32,70.4160125 28.4159926,74 24.0000011,74 C19.5840074,74 16,70.4160125 16,65.9999989 C16,61.5840074 19.5840074,58 24.0000011,58 C28.4159926,58 32,61.5840074 32,65.9999989 C32,65.9999989 32,61.5840074 32,65.9999989 L32,65.9999989 L32,65.9999989 Z" fill="#FEE94E" id="use3874" stroke="#000000" stroke-width="0.1"/><g id="Drum" stroke-width="0.1" transform="translate(47.700012, 64.000000)"><path d="M10,11.4034099 C10,12.2847287 7.75999919,13 4.99999898,13 C2.23999878,13 0,12.2847287 0,11.4034099 L6.63256838e-08,1.87045087 C6.63256838e-08,1.87045087 -1.90734858e-06,0.0747079863 4.99999905,0.0747070277 C10,0.0747070277 10.0000001,1.87045087 10.0000001,1.87045087 L10,11.4034099 L10,11.4034099 Z" fill="#4054B2" id="path2539" stroke="#0A328C"/><path d="M10,2 L10,10.2480311 C10,11.2151192 7.75999919,12 4.99999898,12 C2.23999878,12 0,11.2151192 0,10.2480311 L0,2 C0,2.96708594 2.23999878,3.75196886 4.99999898,3.75196886 C7.75999919,3.75196886 10,2.96708594 10,2 C10,2 10,2.96708594 10,2 L10,2 L10,2 Z" fill="#FEE94E" id="path2499" stroke="#000000"/><path d="M0,2 L0,3.19793103 L2.42693774,10.7765517 L4.36467598,4.94827586 L6.49301144,11 L8.05033596,5.28793909 L10,9.1279086 L10,7.00275862 L8.18932656,3.27862069 C7.98621601,3.33463768 7.76963659,3.38266417 7.54129606,3.42758621 L6.41677255,7.64827586 L4.83481576,3.65724138 C4.56989682,3.65434152 4.30633799,3.64850406 4.05336722,3.63241379 L2.46505718,7.64827586 L0.6480305,2.81310345 C0.23737332,2.57212292 0,2.29646124 0,2 C0,2 0,2.29646124 0,2 L0,2 L0,2 Z" fill="#F1453D" id="path3288" stroke="#D20014"/><path d="M5.19998268,3 C3.26698579,3 1.6999819,2.55228437 1.6999819,2 C1.6999819,1.44771563 3.26698579,1 5.19998268,1 C7.13297801,1 8.6999819,1.44771563 8.6999819,2 C8.6999819,2.55228437 7.13297801,3 5.19998268,3 L5.19998268,3 L5.19998268,3 Z" fill="#FFFFFF" id="use3273" stroke="#FFFFFF"/></g><path d="M37,30 L40.3064525,39 L42,39 L37,30 L37,30 Z M41,28 L42.6595753,37 L44,37 L41,28 L41,28 Z M45,28 L45.9655174,38 L47,37.9206354 L45,28 L45,28 Z M70,30 L66.6935475,39 L65,39 L70,30 L70,30 Z M64,28 L62.3404247,37 L61,37 L64,28 L64,28 Z M59,28 L58.0344826,38 L57,37.9206354 L59,28 L59,28 Z" fill="#FFFFFF" id="path2970" stroke="#000000" stroke-width="0.1"/><g id="Hat-on-pole" stroke-width="0.1" transform="translate(50.000000, 1.000000)"><path d="M2.43826066,6.68493097 C1.5397242,6.29227909 -0.493108249,5.09375124 0.109959309,4.37830566 L1.04127791,2.90599153 C2.36065158,0.146160513 1.01728784,1.21541591 0.876927851,0.353980397 C0.74214362,-0.473230447 5.92205897,0.17275282 5.99919227,2.04714153 C6.02043937,2.56345848 5.61497735,2.26044546 5.67049216,5.21261684 L4.68438941,6.97939384 C3.94683861,7.04321762 3.07347195,6.96251208 2.43826066,6.68493097 C2.43826066,6.68493097 3.07347195,6.96251208 2.43826066,6.68493097 L2.43826066,6.68493097 L2.43826066,6.68493097 Z" fill="#4054B2" id="path3710" stroke="#0A328C"/><path d="M4.10677669,7 C4.80319955,6.57630269 5.25906905,5.31274634 4.83839192,4.5621302 C3.69550886,3.05678456 2.95580192,3.67793444 1.03872435,3 C0.656401819,3.42330676 -0.148634898,4.23785648 0.0239074782,4.8461537 C2.5459709,6.08044239 1.56670612,5.02917904 2.40118588,5.18294344 C2.85103,5.26583352 3.14172312,5.82028682 4.10677669,7 C4.10677669,7 3.14172312,5.82028682 4.10677669,7 L4.10677669,7 L4.10677669,7 Z" fill="#F1453D" id="path3712" stroke="#D20014"/></g></g></g></g></g></svg>