<?xml version="1.0" ?><svg height="180px" version="1.1" viewBox="0 0 180 180" width="180px" xmlns="http://www.w3.org/2000/svg" xmlns:sketch="http://www.bohemiancoding.com/sketch/ns" xmlns:xlink="http://www.w3.org/1999/xlink"><title/><desc/><defs/><g fill="none" fill-rule="evenodd" id="Page-1" stroke="none" stroke-width="1"><g id="Material" transform="translate(-180.000000, -180.000000)"><g id="Slice" transform="translate(180.000000, 180.000000)"/><g id="circle_israel" transform="translate(180.000000, 180.000000)"><ellipse cx="89.9972382" cy="90" fill="#FFFFFF" id="path-1" rx="89.9972382" ry="90"/><path d="M29.906256,157 L150.08822,157 C157.420608,150.418928 163.666637,142.651618 168.524387,134 L11.4700893,134 C16.3278395,142.651618 22.5738685,150.418928 29.906256,157 Z M11.4700893,46 L168.524387,46 C163.666637,37.3483822 157.420608,29.5810724 150.08822,23 L29.906256,23 C22.5738685,29.5810724 16.3278395,37.3483822 11.4700893,46 Z" fill="#2B98F0" id="Rectangle-3-copy-5"/><path d="M91.2617443,51.7216797 L57.0716521,109.777797 L125.451837,109.777797 L91.2617443,51.7216797 L91.2617443,51.7216797 L91.2617443,51.7216797 L91.2617443,51.7216797 Z M91.2617443,60.57088 L65.1163797,104.966735 L117.407109,104.966735 L91.2617443,60.57088 L91.2617443,60.57088 L91.2617443,60.57088 L91.2617443,60.57088 Z" fill="#2B98F0" id="triangle"/><path d="M91.2617432,70.49271 L57.071651,128.548827 L125.451836,128.548827 L91.2617432,70.49271 L91.2617432,70.49271 L91.2617432,70.49271 L91.2617432,70.49271 Z M91.2617432,79.3419104 L65.1163786,123.737765 L117.407108,123.737765 L91.2617432,79.3419104 L91.2617432,79.3419104 L91.2617432,79.3419104 L91.2617432,79.3419104 Z" fill="#2B98F0" id="triangle-copy" transform="translate(91.261743, 99.520769) rotate(180.000000) translate(-91.261743, -99.520769) "/></g></g></g></svg>