<?xml version="1.0" ?><svg height="180px" version="1.1" viewBox="0 0 180 180" width="180px" xmlns="http://www.w3.org/2000/svg" xmlns:sketch="http://www.bohemiancoding.com/sketch/ns" xmlns:xlink="http://www.w3.org/1999/xlink"><title/><desc/><defs/><g fill="none" fill-rule="evenodd" id="Page-1" stroke="none" stroke-width="1"><g id="Material" transform="translate(-180.000000, -180.000000)"><g id="Slice" transform="translate(180.000000, 180.000000)"/><g id="circle_iraq" transform="translate(180.000000, 180.000000)"><path d="M174.873467,120 L5.12100983,120 C17.475726,154.955772 50.8118738,180 89.9972382,180 C129.182603,180 162.51875,154.955772 174.873463,120 L174.873467,120 Z" fill="#262626" id="Rectangle-3-copy-2"/><path d="M5.12100983,120 L174.873467,120 C178.189905,110.616633 179.994476,100.519063 179.994476,90 C179.994476,79.480937 178.189905,69.3833673 174.873463,59.9999996 L5.12100983,60 C1.80457108,69.3833673 0,79.480937 0,90 C0,100.519063 1.80457108,110.616633 5.12101363,120 L5.12100983,120 Z" fill="#FFFFFF" id="Rectangle-3-copy-3"/><path d="M5.12100983,60 L174.873467,60 C162.51875,25.0442275 129.182603,0 89.9972382,0 C50.8118738,0 17.475726,25.0442275 5.12101363,59.9999996 L5.12100983,60 Z" fill="#F1453D" id="Rectangle-3"/><path d="M35.742091,113.242091 L34,111.484182 L35.7579089,109.742091 L37.515818,108 L39.257909,109.757909 L41,111.515818 L39.242091,113.257909 L37.4841819,115 L35.7442001,113.238927 L35.742091,113.242091 L35.742091,113.242091 L35.742091,113.242091 L35.742091,113.242091 Z M24.4307148,112.67116 C23.8147492,112.440657 22.8151013,111.681166 22.1597305,110.947169 C20.9246884,109.56309 20.643667,108.917258 21.4732503,109.37189 C22.7103664,110.050651 25.1607481,110.491475 26.0328475,110.194052 C29.2495568,109.093587 29.9806271,104.694915 27.4120298,101.904451 C26.9080579,101.357405 26.4953402,100.721132 26.4953402,100.49063 C26.4953402,100.260127 27.0314584,99.8288638 27.6857923,99.5325031 C28.6024818,99.1171732 29.0504568,98.6646655 29.637387,97.5610142 C30.232613,96.4403672 30.4773401,96.1960555 30.7635463,96.4393049 C31.1721161,96.7866524 32.5523353,100.160278 32.5523353,100.812484 C32.5523353,101.156645 33.0511222,101.232063 35.3086258,101.232063 L38.0649163,101.232063 L37.63457,100.174087 C37.3981387,99.5930499 37.0082346,98.8101904 36.7686924,98.435225 C36.3808622,97.8276325 36.3787882,97.7203479 36.7510638,97.4484183 C36.9802362,97.2805869 37.7434528,96.7303545 38.4475616,96.2257978 C39.1506335,95.721241 39.8080783,95.0870929 39.9065912,94.8162257 C40.1502814,94.1448997 41.6746407,92.2084641 41.9577359,92.2084641 C42.0832105,92.2084641 42.1869083,94.2383755 42.1869083,96.7197322 L42.1869083,101.231 L76.5949127,101.231 L76.5949127,88.3058509 L75.6377809,87.6993205 L74.6806492,87.0927903 L73.7110737,87.8501565 L72.7414983,88.6075227 L72.7414983,97.8456904 L58.2901572,97.8456904 C50.3406753,97.8456904 43.8377792,97.7947036 43.8377792,97.7330945 C43.8377792,97.6343077 51.0292294,87.6855117 51.9085877,86.5669891 C52.091096,86.3343619 52.5432189,85.7002138 52.9123834,85.157417 C53.281548,84.6146203 53.6579714,84.1068768 53.7471516,84.0293344 C53.8384058,83.951792 54.2106813,83.4440487 54.5777719,82.9012519 C54.9438256,82.3584551 55.371061,81.7657337 55.5276448,81.5851556 C55.6842287,81.4035151 58.2891202,77.8270048 61.3170992,73.6365286 C64.3450783,69.4460524 66.9126387,66.0097557 67.0246324,66.0001956 C67.1355892,65.9906356 67.29321,66.3326719 67.3751313,66.758624 C67.8293282,69.1188872 68.1777531,70.4402946 68.5375849,71.1668563 C68.9980037,72.0963028 68.7283891,72.4436503 67.5120126,72.4818904 C66.9364891,72.4999482 65.6101928,74.1676409 59.391429,82.6951803 C55.3036573,88.3005398 51.9179204,92.9870748 51.8671085,93.1102929 C51.8162965,93.233511 55.5017203,93.3344223 60.0561326,93.3344223 L68.3374479,93.3344223 L68.3415959,90.3028331 C68.3436698,88.6362027 68.436998,87.1405905 68.5479547,86.9801945 C69.0674813,86.2302639 74.542731,82.3117172 74.9243393,82.4158152 C75.1618076,82.4806109 76.6260221,83.5237155 78.1783799,84.7335894 L81,86.9345189 L81,105.742268 L33.1848925,105.742268 L32.7047713,107.560797 C32.1282108,109.740482 31.1855968,111.312574 29.9194453,112.200594 C28.7165495,113.029129 26.010034,113.262819 24.4234559,112.667973 C24.4234559,112.667973 26.010034,113.262819 24.4234559,112.667973 L24.4307148,112.67116 L24.4307148,112.67116 L24.4307148,112.67116 L24.4307148,112.67116 Z M84,90.103786 C84,79.6952293 84.0972097,75.1481687 84.3217974,75.013161 C84.498339,74.9073149 85.2659601,75.4516662 86.0268769,76.2228303 C86.7877937,76.9939945 88.1442593,78.2328256 89.0426105,78.9748281 C90.4594131,80.1477754 90.6069035,80.3637878 90.1700188,80.6208424 C88.7096394,81.4784116 88.7465121,81.2083962 88.7465121,91.1028434 L88.7465121,100.400016 L91.5857041,100.400016 C94.1064506,100.400016 94.5723865,100.316852 95.7377847,99.6558536 C97.1847559,98.8360866 97.2808482,98.9440928 96.5646254,100.580387 C96.2964609,101.190622 95.9970105,102.400291 95.8964488,103.267581 L95.7154378,104.844471 L89.8571602,104.922236 L84,105 L84,90.0951455 L84,90.103786 L84,90.103786 L84,90.103786 L84,90.103786 Z" fill="#4EAB53" id="path4318"/><path d="M114.130343,100.502565 C114.27764,96.5056447 114.702578,95.1493074 116.211584,93.8619714 C117.37301,92.8712376 119.034613,92.4016174 120.95796,92.5221121 L122.398086,92.6127405 L122.484981,90.9773088 C122.59413,88.9052127 122.401265,88.165767 121.692329,87.9464049 C120.841394,87.6837883 121.015184,86.8248777 122.046267,86.1997474 C122.550682,85.8938763 123.786287,84.8341413 124.790878,83.8444374 C125.79547,82.8547334 126.717405,82.0452566 126.83821,82.0452566 C126.959015,82.0452566 127.058626,85.9968632 127.058626,90.826948 L127.058626,99.6096693 L131.01129,99.6096693 L131.01129,90.5725704 C131.01129,82.7229102 130.953007,81.4788287 130.567278,81.1039564 C130.323548,80.8670867 130.005639,80.6724414 129.861521,80.6724414 C129.227822,80.6724414 129.676074,79.5735714 130.516412,79.0637864 C131.021888,78.7579153 132.250074,77.7043596 133.248307,76.7218647 C134.24548,75.7393698 135.167415,74.9988941 135.295639,75.0761343 C135.423862,75.1533744 135.528771,80.7043674 135.528771,87.4129329 L135.528771,99.6096693 L139.481436,99.6096693 L139.481436,74.6322608 L138.775679,74.0359668 C138.38783,73.7084685 138.069921,73.2903417 138.069921,73.108055 C138.069921,72.9257682 138.948409,72.087455 140.02188,71.2439924 C141.095352,70.4005299 142.24724,69.3377052 142.582105,68.8804435 C144.023291,66.9123642 143.999977,66.6188516 143.999977,86.0246697 L143.999977,104 L114,104 L114.180148,100.498446 L114.130343,100.502565 L114.130343,100.502565 L114.130343,100.502565 L114.130343,100.502565 Z M122,97.9999999 L122,96 L120.879357,96 C119.374799,96 118,97.4064665 118,98.9468822 L118,100 L122,100 L122,98.0023094 L122,97.9999999 L122,97.9999999 L122,97.9999999 L122,97.9999999 Z M147.001115,90.5999166 C147.001115,80.5387866 147.098046,76.1426323 147.323104,76.0126301 C147.500252,75.9107084 148.269015,76.4369572 149.029979,77.1826499 C149.792056,77.9283424 151.149088,79.1254027 152.047092,79.8430148 C153.465403,80.9766339 153.613584,81.1856775 153.175724,81.4342417 C151.713961,82.2631357 151.750728,82.0031313 151.750728,91.5671329 L151.750728,100.554965 L154.650856,100.554965 C157.28136,100.554965 157.655714,100.488404 158.681844,99.8373527 C159.304653,99.4431861 159.886239,99.1883818 159.97537,99.2715832 C160.064502,99.3547846 159.904065,99.9579947 159.617729,100.612166 C159.331392,101.266337 159.013861,102.487318 158.912473,103.325572 L158.727525,104.850237 L152.863763,104.925119 L147,105 L147,90.5957566 L147.001115,90.5999166 L147.001115,90.5999166 L147.001115,90.5999166 L147.001115,90.5999166 Z M124.52051,75.6127151 C123.983267,75.4073109 123.366008,75.0430766 123.149967,74.8042345 C122.818476,74.438806 122.983079,74.4029797 124.187877,74.5833055 C126.352855,74.9057424 127.679961,74.5224007 128.887045,73.2219053 L129.948959,72.0802398 L131.424665,72.6271883 C132.236246,72.9281294 133.084405,73.1000958 133.310734,73.0093358 C133.895987,72.7740762 134.956758,71.0173923 134.850451,70.4585017 C134.721284,69.7766073 135.320254,69.8805037 135.690609,70.6030011 C136.417604,72.0217235 135.810632,73.821399 134.421799,74.3695418 C133.741672,74.6382392 133.084405,74.6454045 131.982484,74.399397 C130.629087,74.0960675 130.407331,74.1283112 129.814076,74.7086976 C128.488113,76.0103873 126.464876,76.3567084 124.521654,75.6162978 C124.521654,75.6162978 126.464876,76.3567084 124.521654,75.6162978 L124.52051,75.6127151 L124.52051,75.6127151 L124.52051,75.6127151 L124.52051,75.6127151 Z M129.435329,69.8402234 C128.675392,69.4465736 127.071475,67.4288942 127.011106,66.7871912 C126.957839,66.2371601 127.086863,66.0690951 127.601773,66.0124742 C128.503755,65.9145112 128.920418,66.3701742 129.614068,68.2134974 C130.182246,69.7233867 130.123061,70.1997208 129.436513,69.8402234 C129.436513,69.8402234 130.123061,70.1997208 129.436513,69.8402234 L129.435329,69.8402234 L129.435329,69.8402234 L129.435329,69.8402234 L129.435329,69.8402234 Z" fill="#4EAB53" id="path4320"/></g></g></g></svg>