<?xml version="1.0" ?><svg height="180px" version="1.1" viewBox="0 0 180 180" width="180px" xmlns="http://www.w3.org/2000/svg" xmlns:sketch="http://www.bohemiancoding.com/sketch/ns" xmlns:xlink="http://www.w3.org/1999/xlink"><title/><desc/><defs/><g fill="none" fill-rule="evenodd" id="Page-1" stroke="none" stroke-width="1"><g id="Material" transform="translate(-180.000000, -180.000000)"><g id="Slice" transform="translate(180.000000, 180.000000)"/><g id="circle_jamaica" transform="translate(180.000000, 180.000000)"><path d="M180,90 C180,80.4327716 178.507187,71.2142087 175.741783,62.5645342 L129.601074,90.3530273 L175.725716,117.485669 C178.501404,108.821465 180,99.5857404 180,90 Z M-2.84217094e-14,90 C-2.84217094e-14,99.5672284 1.49281327,108.785791 4.25821678,117.435466 L50.3989258,89.6469727 L4.27428375,62.5143308 C1.49859586,71.1785353 -2.84217094e-14,80.4142597 -2.84217094e-14,90 Z" fill="#262626" id="Rectangle-3-copy-2"/><path d="M23.9788708,151.166036 C40.4168092,168.900357 63.9121736,180 90,180 C116.087826,180 139.583191,168.900357 156.021129,151.166036 L90,113.076923 L23.9788708,151.166036 L23.9788708,151.166036 Z M23.9788707,28.833964 C40.4168091,11.0996427 63.9121736,2.27373675e-13 90,2.27373675e-13 C116.087826,2.27373675e-13 139.583191,11.0996427 156.021129,28.8339639 L90,66.9230769 L23.9788708,28.8339639 L23.9788707,28.833964 L23.9788707,28.833964 Z" fill="#4EAB53" id="Rectangle-3-copy-3"/><path d="M90,113.076923 L156.021129,151.166036 C164.862608,141.627272 171.662342,130.169065 175.725546,117.486201 L129.6,90.3530273 L175.74161,62.5639917 C171.680276,49.8611657 164.87427,38.3853103 156.021129,28.8339639 L90,66.9230769 L23.9788708,28.8339639 L23.9788709,28.8339639 C15.1372684,38.3728619 8.33746784,49.8312557 4.27428374,62.5143308 L50.3989258,89.6469727 L4.25821678,117.435466 C8.31952991,130.138508 15.1256039,141.614554 23.9788708,151.166036 L90,113.076923 L90,113.076923 Z" fill="#FEE94E" id="Rectangle-3-copy-4"/></g></g></g></svg>