<?xml version="1.0" ?><svg height="180px" version="1.1" viewBox="0 0 180 180" width="180px" xmlns="http://www.w3.org/2000/svg" xmlns:sketch="http://www.bohemiancoding.com/sketch/ns" xmlns:xlink="http://www.w3.org/1999/xlink"><title/><desc/><defs/><g fill="none" fill-rule="evenodd" id="Page-1" stroke="none" stroke-width="1"><g id="Material" transform="translate(-180.000000, -180.000000)"><g id="Slice" transform="translate(180.000000, 180.000000)"/><g id="circle_jordan" transform="translate(179.000000, 180.000000)"><path d="M175.873467,120 L61,120 L17.3938522,141.803074 C33.6842852,164.908013 60.5783535,180 90.9972382,180 C130.182603,180 163.51875,154.955772 175.873463,120 Z" fill="#4EAB53" id="Rectangle-3-copy-4"/><path d="M6.12100983,120 L175.873467,120 C179.189905,110.616633 180.994476,100.519063 180.994476,90 C180.994476,79.480937 179.189905,69.3833673 175.873463,59.9999996 L6.12100983,60 C2.80457108,69.3833673 1,79.480937 1,90 C1,100.519063 2.80457108,110.616633 6.12101363,120 Z" fill="#FFFFFF" id="Rectangle-3-copy-2"/><path d="M175.873467,60 L61,60 L17.3938522,38.1969261 C33.6842852,15.0919874 60.5783535,0 90.9972382,0 C130.182603,0 163.51875,25.0442275 175.873463,59.9999996 Z" fill="#262626" id="Rectangle-3-copy-3"/><path d="M17.3938522,38.1969261 L121,90 L17.3938522,141.803074 C7.06590671,127.154811 1,109.285812 1,90 C1,70.7141882 7.06590671,52.8451892 17.3938522,38.1969261 Z" fill="#F1453D" id="Triangle-18-copy"/><path d="M43.5,73 L46.9614368,84.0390701 L57.5339103,79.9321793 L51.2777777,89.5907837 L61,95.5086446 L49.7372934,96.5136572 L51.2882328,108 L43.5,99.5946257 L35.7117672,108 L37.2627066,96.5136572 L26,95.5086446 L35.7222223,89.5907837 L29.4660897,79.9321793 L40.0385632,84.0390701 L43.5,73 L43.5,73 L43.5,73 L43.5,73 Z" fill="#FFFFFF" id="Star7"/></g></g></g></svg>