<?xml version="1.0" ?><svg height="180px" version="1.1" viewBox="0 0 180 180" width="180px" xmlns="http://www.w3.org/2000/svg" xmlns:sketch="http://www.bohemiancoding.com/sketch/ns" xmlns:xlink="http://www.w3.org/1999/xlink"><title/><desc/><defs/><g fill="none" fill-rule="evenodd" id="Page-1" stroke="none" stroke-width="1"><g id="Material" transform="translate(-180.000000, -180.000000)"><g id="Slice" transform="translate(180.000000, 180.000000)"/><g id="circle_cambodia" transform="translate(180.000000, 180.000000)"><path d="M167.959589,135.000025 C152.398162,161.901074 123.312698,180 90,180 C56.6873022,180 27.6018377,161.901074 12.0404109,135.000025 L167.959604,135 L167.959604,135 L167.959589,135.000025 L167.959589,135.000025 Z M167.959589,44.9999749 C152.398162,18.0989265 123.312698,0 90,0 C56.6873022,0 27.6018377,18.0989265 12.0404109,44.9999749 L167.959604,45 L167.959604,45 L167.959589,44.9999749 L167.959589,44.9999749 Z" fill="#2B98F0" id="1024-copy"/><path d="M167.959589,135.000025 C175.617252,121.762218 180,106.392932 180,90.0000001 C180,73.6070679 175.617252,58.237782 167.959589,44.999975 L12.0403964,45.0000001 C4.38274789,58.237782 0,73.6070679 0,90.0000001 C0,106.392932 4.38274789,121.762218 12.0404109,135.000025 L167.959604,135 L167.959604,135 L167.959589,135.000025 L167.959589,135.000025 Z" fill="#F1453D" id="1024-copy-2" transform="translate(90.000000, 90.000000) scale(1, -1) translate(-90.000000, -90.000000) "/><g id="temple-3" stroke="#000000" stroke-width="0.1" transform="translate(42.000000, 58.000000)"><path d="M47.7006273,2.71409083 C47.7006273,2.71409083 47.6461635,0.0291828511 48.5497141,0 C49.4532646,0.0291746903 49.3988009,2.71409083 49.3988009,2.71409083 L49.3988009,2.71409083 L47.7006273,2.71409083 L47.7006273,2.71409083 L47.7006273,2.71409083 L47.7006273,2.71409083 Z" fill="#FFFFFF" id="path4053"/><path d="M85.2413269,42.7847948 L85.2413269,34.9843358 C85.493953,33.994936 86.3275535,33.1196006 86.9543195,32.944238 L86.9543195,25.6287052 C86.0067386,25.6287052 85.5426919,26.873023 85.5426919,26.873023 L83.9313788,34.024289 L83.9313788,42.7247938 L85.2413269,42.7847948 L85.2413269,42.7847948 L85.2413269,42.7847948 L85.2413269,42.7847948 Z" fill="#FFFFFF" id="path5298"/><path d="M70.8777985,27.3372855 L68.5541557,27.3372855 L68.5541557,32.3000729 L70.8777985,32.3000729 L70.8777985,27.3372855 L70.8777985,27.3372855 L70.8777985,27.3372855 L70.8777985,27.3372855 Z" fill="#FFFFFF" id="path4002"/><path d="M27.5482274,27.3372855 L70.4797941,27.3372855 L70.4797941,43.9836839 L27.5482274,43.9836839 L27.5482274,27.3372855 L27.5482274,27.3372855 L27.5482274,27.3372855 L27.5482274,27.3372855 Z" fill="#FFFFFF" id="rect4016"/><path d="M12.1754166,42.849121 L12.1754166,35.0786637 C11.9227904,34.0892639 11.0891899,33.2139285 10.4624239,33.0385658 L10.4624239,26.198232 L11.8740515,26.9673509 L13.4853646,34.1186169 L13.4853646,42.849121 L12.1754166,42.849121 L12.1754166,42.849121 L12.1754166,42.849121 L12.1754166,42.849121 Z" fill="#FFFFFF" id="path3912"/><path d="M12.1754166,42.7847948 L12.1754166,34.9843358 C11.9227904,33.994936 11.0891899,33.1196006 10.4624239,32.944238 L10.4624239,25.6287052 C11.4100048,25.6287052 11.8740515,26.873023 11.8740515,26.873023 L13.4853646,34.024289 L13.4853646,42.7247938 L12.1754166,42.7847948 L12.1754166,42.7847948 L12.1754166,42.7847948 L12.1754166,42.7847948 Z" fill="#FFFFFF" id="path3963"/><path d="M10.4624239,44.7365584 C11.1265263,44.3956626 11.8840582,43.6023275 12.1317847,42.7145087 L84.9701957,42.7145087 C85.2179222,43.6023275 85.9754541,44.3956626 86.6395565,44.7365584 C86.6395565,44.7365584 85.9754541,44.3956626 86.6395565,44.7365584 L10.4624239,44.7365584 L10.4624239,44.7365584 L10.4624239,44.7365584 L10.4624239,44.7365584 Z" fill="#FFFFFF" id="path3923"/><rect fill="#FFFFFF" height="6.27090561" id="rect3953" width="1.35297102" x="67.9846289" y="36.4497141"/><rect fill="#FFFFFF" height="1.93511759" id="rect4008" width="42.9315667" x="27.5482274" y="33.0325534"/><rect fill="#FFFFFF" height="1.70652745" id="rect4010" width="42.9315667" x="27.5482274" y="30.7544462"/><path d="M70.8777985,27.3372855 L68.5541557,27.3372855 L68.5541557,32.3000729 L70.8777985,32.3000729 L70.8777985,27.3372855 L70.8777985,27.3372855 L70.8777985,27.3372855 L70.8777985,27.3372855 Z" fill="#FFFFFF" id="path3968"/><path d="M86.2238462,44.9040049 C85.5712312,44.6070056 84.6210001,43.7944154 84.6210001,42.9767834 L84.6210001,33.2647204 L85.0681363,32.4630266 L68.6490944,32.4630266 L69.2897929,33.2647204 L69.2897929,42.9767834 C69.2897929,43.7944154 68.6372439,44.6070056 67.9846289,44.9040049 C67.9846289,44.9040049 68.6372439,44.6070056 67.9846289,44.9040049 L86.2238462,44.9040049 L86.2238462,44.9040049 L86.2238462,44.9040049 L86.2238462,44.9040049 Z" fill="#FFFFFF" id="path3933"/><rect fill="#FFFFFF" height="6.27090561" id="rect3951" width="1.35297102" x="38.9387631" y="36.4497141"/><rect fill="#FFFFFF" height="6.27090561" id="rect3955" width="1.35297102" x="57.1636201" y="36.4497141"/><path d="M59.1667488,44.9040049 C58.4022166,44.6070056 57.2890327,43.7944154 57.2890327,42.9767834 L57.2890327,33.7399193 L58.2844141,32.4630266 L38.3745063,32.4630598 L39.3286962,33.7399193 L39.3286962,42.9767834 C39.3286962,43.7944154 38.5642418,44.6070056 37.7997095,44.9040049 C37.7997095,44.9040049 38.5642418,44.6070056 37.7997095,44.9040049 L59.1667488,44.9040049 L59.1667488,44.9040049 L59.1667488,44.9040049 L59.1667488,44.9040049 Z" fill="#FFFFFF" id="path3937"/><rect fill="#FFFFFF" height="6.27090561" id="rect3939" width="1.35297102" x="42.3559237" y="36.4497141"/><rect fill="#FFFFFF" height="6.27090561" id="rect3941" width="1.35297102" x="53.7464594" y="36.4497141"/><path d="M38.3692363,22 L38.3692363,27.5687372 L38.3692363,30.2343061 L38.3692363,32.5137759 L58.7497456,32.5137759 L58.7497456,30.2491561 L58.7792964,22 C57.9456747,22.3300162 57.7993188,23.0914725 57.7993188,23.0914725 L57.7993188,27.5687372 L39.4081599,27.5687372 L39.4081599,23.0914725 C39.4081599,23.0914725 39.202858,22.3300162 38.3692363,22 C38.3692363,22 39.202858,22.3300162 38.3692363,22 L38.3692363,22 L38.3692363,22 L38.3692363,22 L38.3692363,22 Z" fill="#FFFFFF" id="rect4125"/><path d="M55.6261852,44.8653575 C54.9601494,44.5683582 53.5091129,43.7557681 53.5091129,42.9381361 L53.5091129,32.6008657 C53.6515312,32.0237652 54.428112,31.683183 54.9279743,31.323973 L41.4137334,31.323973 C42.0569241,31.6671474 42.7738775,31.9520505 43.0301371,32.6008657 L43.0301371,42.9381361 C43.0301371,43.7557681 41.882906,44.5683582 41.2168702,44.8653575 C41.2168702,44.8653575 41.882906,44.5683582 41.2168702,44.8653575 L55.6261852,44.8653575 L55.6261852,44.8653575 L55.6261852,44.8653575 L55.6261852,44.8653575 Z" fill="#FFFFFF" id="path3935"/><path d="M57.8658306,30.9527961 L57.8657316,23.5066287 L56.013242,23.5065979 L56.013242,22.7810713 L41.3609444,22.7810713 L41.3609444,23.5065979 L39.5082898,23.5065289 L39.5083559,30.9527961 L57.8658306,30.9527961 L57.8658306,30.9527961 L57.8658306,30.9527961 L57.8658306,30.9527961 Z" fill="#FFFFFF" id="path3868"/><rect fill="#FFFFFF" height="6.27090561" id="rect3943" width="1.35297102" x="27.5482274" y="36.4497141"/><path d="M11.0319507,44.9040049 C11.6845657,44.6070056 12.6347968,43.7944154 12.6347968,42.9767834 L12.6347968,33.2647204 L12.1876606,32.4630266 L28.6067025,32.4630266 L27.966004,33.2647204 L27.966004,42.9767834 C27.966004,43.7944154 28.618553,44.6070056 29.271168,44.9040049 C29.271168,44.9040049 28.618553,44.6070056 29.271168,44.9040049 L11.0319507,44.9040049 L11.0319507,44.9040049 L11.0319507,44.9040049 L11.0319507,44.9040049 Z" fill="#FFFFFF" id="path3324"/><rect fill="#FFFFFF" height="5.66420111" id="rect4007" width="1.5157548" x="12.7405311" y="25.6287052"/><rect fill="#FFFFFF" height="1.19320574" id="rect4009" width="1.5157548" x="12.7405311" y="24.4896516"/><path d="M26.0863742,44.9040049 C25.4337592,44.6070056 24.4835281,43.7944154 24.4835281,42.9767834 L24.4835281,33.739974 L25.848817,32.4630266 L14.6866686,32.4630598 L16.0519976,33.739974 L16.0519976,42.9767834 C16.0519976,43.7944154 15.1017264,44.6070056 14.4491114,44.9040049 C14.4491114,44.9040049 15.1017264,44.6070056 14.4491114,44.9040049 L26.0863742,44.9040049 L26.0863742,44.9040049 L26.0863742,44.9040049 L26.0863742,44.9040049 Z" fill="#FFFFFF" id="path3905"/><path d="M24.6678209,44.5867772 C24.0152059,44.2897779 23.0649748,43.4771878 23.0649748,42.6595558 L23.0649748,34.3095007 L23.9586956,33.0325534 L16.8669185,33.0325534 L17.7605779,34.3095007 L17.7605779,42.6595558 C17.7605779,43.4771878 16.8103068,44.2897779 16.1576918,44.5867772 C16.1576918,44.5867772 16.8103068,44.2897779 16.1576918,44.5867772 L24.6678209,44.5867772 L24.6678209,44.5867772 L24.6678209,44.5867772 L24.6678209,44.5867772 Z" fill="#FFFFFF" id="path3901"/><path d="M82.4695256,44.9040049 C81.816913,44.6070056 80.8666819,43.7944154 80.8666819,42.9767834 L80.8666819,33.739974 L82.2319684,32.4630266 L71.06982,32.4630266 L72.435149,33.739974 L72.435149,42.9767834 C72.435149,43.7944154 71.4848778,44.6070056 70.8322629,44.9040049 C70.8322629,44.9040049 71.4848778,44.6070056 70.8322629,44.9040049 L82.4695256,44.9040049 L82.4695256,44.9040049 L82.4695256,44.9040049 L82.4695256,44.9040049 Z" fill="#FFFFFF" id="path3913"/><path d="M81.0509723,44.5867772 C80.3983574,44.2897779 79.4481286,43.4771878 79.4481286,42.6595558 L79.4481286,34.3095007 L80.341847,33.0325534 L73.2499686,33.0325534 L74.1437294,34.3095007 L74.1437294,42.6595558 C74.1437294,43.4771878 73.1934582,44.2897779 72.5408432,44.5867772 C72.5408432,44.5867772 73.1934582,44.2897779 72.5408432,44.5867772 L81.0509723,44.5867772 L81.0509723,44.5867772 L81.0509723,44.5867772 L81.0509723,44.5867772 Z" fill="#FFFFFF" id="path3903"/><path d="M18.4357989,33.03257 L21.824252,33.0325534 L21.824245,44.5867939 L18.4358343,44.5867939 L18.4357989,33.03257 L18.4357989,33.03257 L18.4357989,33.03257 L18.4357989,33.03257 Z" fill="#FFFFFF" id="path3887"/><path d="M52.8723578,44.5867772 C52.2197428,44.2897779 51.2694457,43.4772401 51.2694457,42.6596081 L51.2694457,33.8342139 L51.8053452,33.0325534 L45.1315167,33.0325534 L45.6673903,33.8343018 L45.6673903,42.6595558 C45.6673903,43.4771878 44.7171191,44.2897779 44.0645041,44.5867772 C44.0645041,44.5867772 44.7171191,44.2897779 44.0645041,44.5867772 L52.8723578,44.5867772 L52.8723578,44.5867772 L52.8723578,44.5867772 L52.8723578,44.5867772 Z" fill="#FFFFFF" id="path3897"/><path d="M46.912138,33.03257 L50.2944089,33.0325534 L50.2944089,44.580564 L46.912138,44.580564 L46.912138,33.03257 L46.912138,33.03257 L46.912138,33.03257 L46.912138,33.03257 Z" fill="#FFFFFF" id="path3891"/><path d="M75.3884771,33.0325534 L78.7769302,33.0325534 L78.7769232,44.5867939 L75.3885125,44.5867939 L75.3884771,33.0325534 L75.3884771,33.0325534 L75.3884771,33.0325534 L75.3884771,33.0325534 Z" fill="#FFFFFF" id="path3893"/><rect fill="#FFFFFF" height="2.52012285" id="rect4019" width="6.78806992" x="45.2035577" y="28.4763391"/><path d="M52.0177405,30.4885389 C52.0258515,29.7277668 54.2199592,29.6936262 55.3495701,29.0458659 L41.786397,29.0458659 C42.9160079,29.6936262 45.0592805,29.7469031 45.0592805,30.4885389 L45.5182508,31.9642335 L51.1328193,32.1914783 L52.0177405,30.4885389 L52.0177405,30.4885389 L52.0177405,30.4885389 L52.0177405,30.4885389 Z" fill="#FFFFFF" id="path3876"/><path d="M54.6703257,22.5130903 C54.6703257,20.6508238 54.7477807,19.9334374 55.3155582,19.9334374 L55.3155606,25.8564544 C53.9230434,26.3655967 52.9292818,28.1560773 52.9292818,28.1560773 L44.1726758,28.1559752 C44.1726758,28.1559752 43.1789142,26.3655967 41.786397,25.8564544 L41.786397,19.9334374 C42.4865861,19.9334374 42.4911768,20.6829995 42.4911768,22.5130879 C42.4911768,22.5130879 42.4911768,20.6829995 42.4911768,22.5130879 L54.6703257,22.5130903 L54.6703257,22.5130903 L54.6703257,22.5130903 L54.6703257,22.5130903 Z" fill="#FFFFFF" id="path4078"/><path d="M45.0750063,28.3953429 L51.6178167,28.3953429 C51.6048957,27.0305598 51.500217,24.7153812 52.6283189,23.3505981 L44.0645041,23.3505981 C45.192606,24.7153812 45.0879273,27.0305598 45.0750063,28.3953429 Z" fill="#FFFFFF" id="path4023"/><rect fill="#FFFFFF" height="6.27090561" id="rect3927" width="1.35297102" x="13.8795846" y="36.4497141"/><path d="M10.4624239,44.7365584 C11.1265263,44.3956626 11.8840888,43.6024059 12.1318154,42.7145871 L84.9701957,42.7145087 C85.2179222,43.6023275 85.9754541,44.3956626 86.6395565,44.7365584 C86.6395565,44.7365584 85.9754541,44.3956626 86.6395565,44.7365584 L10.4624239,44.7365584 L10.4624239,44.7365584 L10.4624239,44.7365584 L10.4624239,44.7365584 Z" id="path3929"/><rect fill="#FFFFFF" height="6.27090561" id="rect3931" width="1.35297102" x="25.8396471" y="36.4497141"/><path d="M12.1710043,24.0790106 L12.1710349,32.4724822 L13.1183494,32.4724822 L13.1183494,24.0577953 C12.7769435,23.8841149 12.4563573,23.8573018 12.1710043,24.0790129 C12.1710043,24.0790129 12.4563573,23.8573018 12.1710043,24.0790129 L12.1710043,24.0790106 L12.1710043,24.0790106 L12.1710043,24.0790106 L12.1710043,24.0790106 Z" fill="#FFFFFF" id="path3971"/><path d="M12.1710043,29.0458659 C13.3451666,29.6508606 14.5080702,30.3507573 14.8024891,32.0084935 L12.1710043,32.0084935 L12.1710043,29.0458659 L12.1710043,29.0458659 L12.1710043,29.0458659 L12.1710043,29.0458659 Z" fill="#FFFFFF" id="path3973"/><path d="M26.4091738,27.3372855 L28.7328166,27.3372855 L28.7328166,32.3000729 L26.4091738,32.3000729 L26.4091738,27.3372855 L26.4091738,27.3372855 L26.4091738,27.3372855 L26.4091738,27.3372855 Z" fill="#FFFFFF" id="rect3864"/><path d="M28.1177542,26.8714342 L28.1177754,32.3482655 L28.8856204,32.3482655 L28.8856204,26.8575892 C28.6457361,26.7442614 28.3182556,26.7267646 28.1177542,26.8714413 C28.1177542,26.8714413 28.3182556,26.7267646 28.1177542,26.8714413 L28.1177542,26.8714342 L28.1177542,26.8714342 L28.1177542,26.8714342 L28.1177542,26.8714342 Z" fill="#FFFFFF" id="path3977"/><path d="M46.912138,1.70858035 L50.3294983,1.70858035 L50.2437955,3.67227642 L46.9978408,3.67227642 L46.912138,1.70858035 Z" fill="#FFFFFF" id="path3918"/><path d="M46.1287099,4.5505291 L46,2.84763391 L51.1322227,2.84763391 L51.0035129,4.5505291 L46.1287099,4.5505291 L46.1287099,4.5505291 L46.1287099,4.5505291 L46.1287099,4.5505291 Z" fill="#FFFFFF" id="path3916"/><path d="M45.9229323,5.17468475 L45.7730844,3.98668747 L51.7481032,3.98668747 L51.5982553,5.17468475 L45.9229323,5.17468475 L45.9229323,5.17468475 L45.9229323,5.17468475 L45.9229323,5.17468475 Z" fill="#FFFFFF" id="path3144"/><path d="M42.9551682,22.6062798 L42.9551682,20.5018305 C42.9253957,19.4495596 41.9142757,19.3734636 41.8845056,18.606293 C41.8845056,18.606293 41.7539544,17.4556891 42.0548714,16.9304731 C42.4640016,18.4691244 43.2078038,18.1864666 43.2078038,17.5538367 C43.2078038,17.0016318 42.7864057,16.4882008 41.922125,15.1473581 C41.6459511,14.7189022 41.8168639,13.3759378 42.2039035,12.8959132 C42.3540814,14.0633558 42.5257417,14.6217596 43.0231825,14.6217596 C43.3265989,14.6217596 43.5744079,14.4224921 43.5744079,13.837824 C43.5744079,13.0940545 43.0745551,12.7184383 42.8288586,12.0415911 C42.542131,11.2517155 42.7395436,10.4465622 43.2158982,9.99653936 C43.4201037,11.1481483 43.3593611,11.6073377 43.8668674,11.6073377 C44.8904557,11.2810068 43.8671032,9.78765617 43.6483946,9.41102778 C43.3967658,8.97183944 43.9867259,8.0957461 43.9867259,8.0957461 C44.3119523,9.11830525 44.4165886,9.20161237 44.7675886,9.1068387 C45.2103958,8.9872739 45.1532818,8.3252244 44.6129284,7.79024072 C44.2717064,7.45240518 44.3078921,6.94946654 44.6742252,6.54559499 C45.0420059,7.27003097 45.5128408,7.22601567 45.5581514,6.7958181 L45.2624876,5.12574104 L51.7718874,5.12574104 L51.4486439,6.74096589 C51.3561199,7.20330592 51.9753054,7.30364654 52.3601498,6.54559499 C52.7264828,6.94946654 52.7626686,7.45240518 52.4214466,7.79024072 C51.8810931,8.3252244 51.8239792,8.9872739 52.2667864,9.1068387 C52.6177864,9.20161237 52.7224226,9.11831475 53.0476491,8.0957461 C53.0476491,8.0957461 53.5769325,8.69290006 53.3859804,9.41102778 C53.1672718,9.78765617 52.1439193,11.2810068 53.1675075,11.6073377 C53.6750139,11.6073377 53.6142712,11.1481483 53.8184767,9.99653936 C54.2948313,10.4465622 54.4922439,11.2517155 54.2055163,12.0415911 C53.9598199,12.7184383 53.459967,13.0940545 53.459967,13.837824 C53.459967,14.4224921 53.7077761,14.6217596 54.0111925,14.6217596 C54.5086333,14.6217596 54.6802935,14.0633558 54.8304715,12.8959132 C55.2175111,13.3759378 55.3884239,14.7189022 55.11225,15.1473581 C54.2479693,16.4882008 53.8265712,17.0016318 53.8265712,17.5538367 C53.8265712,18.1864666 54.5703733,18.4691244 54.9795035,16.9304731 C55.2804206,17.4556891 55.1498693,18.606293 55.1498693,18.606293 C55.1200992,19.3734636 54.1089793,19.4495596 54.0792068,20.5018305 L54.0792068,22.6062798 L42.9551682,22.6062798 L42.9551682,22.6062798 L42.9551682,22.6062798 L42.9551682,22.6062798 Z" fill="#FFFFFF" id="path4132"/><path d="M47.8086528,7.87159329 L46.912138,7.40630465 L46.912138,6.07675038 C47.2786384,6.18780911 47.6900392,6.23315735 47.7302593,6.82168882 C47.8578633,5.98158704 48.0879791,6.02268937 48.4494408,5.69526782 C48.8109025,6.02268937 49.0410184,5.98158704 49.1686224,6.82168882 C49.2088424,6.23315735 49.6202432,6.18780911 49.9867436,6.07675038 L49.9867436,7.40630465 L49.0902289,7.87159329 L47.8086528,7.87159329 L47.8086528,7.87159329 L47.8086528,7.87159329 L47.8086528,7.87159329 Z" fill="#FFFFFF" id="path4031"/><path d="M44.9474284,9 L52.0964356,9" id="path4060"/><path d="M47.8313991,10.0303192 L46.3426112,8.99902349 L46.3426112,7.77372072 C46.8645665,7.89550232 47.4504711,7.94522951 47.5077501,8.59058765 C47.6894807,7.66936704 48.0172017,7.19335792 48.5319844,6.83432139 C49.0467671,7.19335792 49.3744881,7.66936704 49.5562187,8.59058765 C49.6134977,7.94522951 50.1994023,7.89550232 50.7213575,7.77372072 L50.7213575,8.99902349 L49.2325696,10.0303192 L47.8313991,10.0303192 L47.8313991,10.0303192 L47.8313991,10.0303192 L47.8313991,10.0303192 Z" fill="#FFFFFF" id="path4029"/><path d="M44.3166104,11 L52.7538253,11" id="path4058"/><path d="M48.0545145,13.8076575 L46.3426112,12.2925832 L46.3426112,10.4924964 C46.9427902,10.6714064 47.6164984,10.7444612 47.6823623,11.6925543 C47.8913284,10.3391901 48.2681632,9.63988742 48.8600921,9.11242851 C49.452021,9.63988742 49.8288558,10.3391901 50.0378218,11.6925543 C50.1036857,10.7444612 50.777394,10.6714064 51.3775729,10.4924964 L51.3775729,12.2925832 L49.6656696,13.8076575 L48.0545145,13.8076575 L48.0545145,13.8076575 L48.0545145,13.8076575 L48.0545145,13.8076575 Z" fill="#FFFFFF" id="path4025"/><path d="M51.1917444,15.3772231 L49.6435885,17.5349778 L47.8907672,17.5349778 L46.3426112,15.3772231 L51.1917444,15.3772231 L51.1917444,15.3772231 L51.1917444,15.3772231 L51.1917444,15.3772231 Z" fill="#FFFFFF" id="path4037"/><path d="M45.2035577,18.3639106 C45.9779009,18.7904182 46.2638693,19.6400478 46.3465894,21.2351479 L50.7037025,21.2351479 C50.7864226,19.6400478 51.0723863,18.7904182 51.8467295,18.3639106 C51.8467295,18.3639106 51.0723863,18.7904182 51.8467295,18.3639106 L45.2035577,18.3639106 L45.2035577,18.3639106 L45.2035577,18.3639106 L45.2035577,18.3639106 Z" fill="#FFFFFF" id="path4033"/><path d="M43.5824473,14 L53.4138522,14" id="path4062"/><path d="M43,18 L53.9254505,18" id="path4064"/><path d="M51.9808388,15.5242316 L51.9808388,13.356626 C51.2452797,13.5606764 50.7687435,13.999544 50.5564978,14.5950585 C50.5564978,13.8755171 49.6169053,12.2162745 48.592098,11.3905356 C47.5643694,12.3148617 46.6086917,13.8160008 46.6278987,14.5950585 C46.4531072,14.0279181 45.9391168,13.5606764 45.2035577,13.356626 L45.2035577,15.5242886 L51.9808388,15.5242316 L51.9808388,15.5242316 L51.9808388,15.5242316 L51.9808388,15.5242316 Z" fill="#FFFFFF" id="path4017"/><path d="M52.0633093,18.9415396 L52.0632315,16.7737867 C51.2569159,16.9778371 50.7345433,17.4167047 50.501881,18.0122192 C50.501881,17.2926777 49.4720162,15.6334352 48.34863,14.8076963 C47.2220418,15.7320224 46.1743282,17.2331615 46.1953813,18.0122192 C46.0037785,17.4450788 45.4403464,16.9778371 44.6340309,16.7737867 L44.6340309,18.9414493 L52.0633093,18.9415396 L52.0633093,18.9415396 L52.0633093,18.9415396 L52.0633093,18.9415396 Z" fill="#FFFFFF" id="path4015"/><path d="M53.3073747,23.3742502 L53.3073747,20.8741171 C52.3042148,21.1349965 51.6805093,21.8826769 51.3648557,22.3185745 C51.3648557,20.9646805 49.8478492,18.9008512 48.6859382,18.224857 C47.493854,18.9184075 46.0070231,21.0513235 46.0070231,22.3185745 C45.6830251,21.8853808 45.067664,21.1349965 44.0645041,20.8741171 L44.0645041,23.3742502 L53.3073747,23.3742502 L53.3073747,23.3742502 L53.3073747,23.3742502 L53.3073747,23.3742502 Z" fill="#FFFFFF" id="path4013"/><path d="M52.7903566,29.1097552 L52.7903566,26.5392451 C51.9051241,26.8887278 51.6405319,27.7482391 51.3619836,28.3321825 C51.4713167,25.7248967 49.9052388,22.9224136 48.7121925,22.2115445 C47.5191486,22.9224136 45.9232983,25.7849001 46.0624038,28.3321825 C45.776492,27.7518624 45.5192634,26.8887278 44.6340309,26.5392451 L44.6340309,29.1098004 L52.7903566,29.1097552 L52.7903566,29.1097552 L52.7903566,29.1097552 L52.7903566,29.1097552 Z" fill="#FFFFFF" id="path4011"/><rect fill="#FFFFFF" height="6.27090561" id="rect4066" width="1.35297102" x="70.2627361" y="36.4497141"/><rect fill="#FFFFFF" height="6.27090561" id="rect4068" width="1.35297102" x="81.6532717" y="36.4497141"/><path d="M39.5082898,29 L57.8657316,29" id="path3870"/><rect height="2.52012285" id="rect3355" width="6.80413837" x="45.2035577" y="29.0458659"/><path d="M52.1190224,32.9726592 L52.1190224,30.4021039 C51.191686,30.6243022 51.1344046,30.9689212 50.8395118,31.5446579 C50.9488449,29.987424 49.8543351,28.2108691 48.6612889,27.5 C47.468245,28.2108691 46.3737352,29.987424 46.4830683,31.5446579 C46.1881755,30.9689212 46.1519473,30.6243022 45.2035577,30.4021039 L45.2035577,32.9726592 L52.1190224,32.9726592 L52.1190224,32.9726592 L52.1190224,32.9726592 L52.1190224,32.9726592 Z" fill="#FFFFFF" id="path3917"/><path d="M12.7405311,25.6287052 L14.370332,25.6287052 L14.370332,32.3287052 L12.7405311,32.3287052 L12.7405311,25.6287052 L12.7405311,25.6287052 L12.7405311,25.6287052 L12.7405311,25.6287052 Z" fill="#FFFFFF" id="rect3914"/><path d="M12.7405311,24.4896516 L14.3607049,24.4896516 L14.3607049,25.6828571 L12.7405311,25.6828571 L12.7405311,24.4896516 L12.7405311,24.4896516 L12.7405311,24.4896516 L12.7405311,24.4896516 Z" fill="#FFFFFF" id="rect3916"/><path d="M82.6999969,25.6287052 L84.6999969,25.6287052 L84.6999969,32.3287052 L82.6999969,32.3287052 L82.6999969,25.6287052 L82.6999969,25.6287052 L82.6999969,25.6287052 L82.6999969,25.6287052 Z" fill="#FFFFFF" id="rect3914-2"/><path d="M82.6999969,24.4896516 L84.6999969,24.4896516 L84.6999969,25.6828571 L82.6999969,25.6828571 L82.6999969,24.4896516 L82.6999969,24.4896516 L82.6999969,24.4896516 L82.6999969,24.4896516 Z" fill="#FFFFFF" id="rect3916-2"/><path d="M26.4091738,27.3372855 L28.7328166,27.3372855 L28.7328166,32.3000729 L26.4091738,32.3000729 L26.4091738,27.3372855 L26.4091738,27.3372855 L26.4091738,27.3372855 L26.4091738,27.3372855 Z" fill="#FFFFFF" id="path3938"/><path d="M14.4491114,32.4326308 L14.4491114,21.4304835 C14.9139362,21.4304835 14.985631,23.0430615 16.0520542,23.0430615 C16.6072361,23.0430615 16.5482052,22.3751053 16.2364939,21.8310477 C15.9604638,21.3492673 15.6188481,20.6838652 16.0829419,19.4443017 C16.4009604,20.392775 17.2569274,20.6937161 17.0987705,20.0989215 C16.8269892,19.0768067 16.0445421,18.9090876 16.6316115,17.3229734 C16.8355128,18.6461743 17.677802,18.5878626 17.4732263,17.8184942 C17.2427874,16.9518621 16.7665743,16.596696 17.354127,15.3750119 C17.683126,16.7623005 18.1282156,16.6809274 18.1282156,15.8202329 C18.1282156,14.5478261 18.0797384,13.1755585 19.7136891,12.6664162 C19.7136891,12.6664162 19.8080098,11.5 20.3973969,11.5 C20.9867841,11.5 21.0811048,12.6664162 21.0811048,12.6664162 C22.7150555,13.1755585 22.6665783,14.5478261 22.6665783,15.8202329 C22.6665783,16.6809274 23.1116679,16.7623005 23.4406669,15.3750119 C24.0282196,16.596696 23.5520065,16.9518621 23.3215676,17.8184942 C23.1169919,18.5878626 23.9592811,18.6461743 24.1631824,17.3229734 C24.7502518,18.9090876 23.9678046,19.0768067 23.6960234,20.0989215 C23.5378665,20.6937161 24.3938335,20.392775 24.711852,19.4443017 C25.1759458,20.6838652 24.83433,21.3492673 24.5583,21.8310477 C24.2465887,22.3751053 24.1875578,23.0430615 24.7427397,23.0430615 C25.8091628,23.0430615 25.8808577,21.4304835 26.3456825,21.4304835 L26.3456825,32.4326308 L14.4491114,32.4326308 L14.4491114,32.4326308 L14.4491114,32.4326308 L14.4491114,32.4326308 Z" fill="#FFFFFF" id="path3931"/><path d="M21.3980768,16.319479 L22.0824849,15.7398432 L22.0824849,14.9974899 C21.832101,15.0219911 21.6955019,15.1087791 21.510567,15.3530551 C21.3532754,14.8609961 21.0074297,14.4767574 20.5439065,14.2381696 C20.0803832,14.4767574 19.7345351,14.8435254 19.5772436,15.3355844 C19.3923087,15.0913084 19.2557119,15.0219911 19.0053257,14.9974899 L19.0053257,15.7398432 L19.6897338,16.319479 L21.3980768,16.319479 L21.3980768,16.319479 L21.3980768,16.319479 L21.3980768,16.319479 Z" fill="#FFFFFF" id="path3920"/><path d="M21.7643838,18.3757553 L22.0824849,17.6818365 L22.0824849,16.7168264 C21.832101,16.7416745 21.6955019,16.8296909 21.510567,17.0774263 C21.3532754,16.5783985 21.0074297,16.1887164 20.5439065,15.9467499 C20.0803832,16.1887164 19.7345351,16.5606808 19.5772436,17.0597085 C19.3923087,16.8119731 19.2557119,16.7416745 19.0053257,16.7168264 L19.0053257,17.6818365 L19.3234267,18.3757553 L21.7643838,18.3757553 L21.7643838,18.3757553 L21.7643838,18.3757553 L21.7643838,18.3757553 Z" fill="#FFFFFF" id="path3922"/><path d="M21.9542839,20.9663761 L22.9709307,19.7169973 L22.9709307,18.4840629 C22.5990002,18.526137 22.3960915,18.6751736 22.1213818,19.0946507 C21.8877339,18.249671 21.3740004,18.065042 20.6854661,17.6553302 C19.9969318,18.065042 19.4831983,18.2196693 19.2495504,19.064649 C18.9748408,18.6451719 18.7719321,18.526137 18.4000015,18.4840629 L18.4000015,19.7169973 L19.4166483,20.9663761 L21.9542839,20.9663761 L21.9542839,20.9663761 L21.9542839,20.9663761 L21.9542839,20.9663761 Z" fill="#FFFFFF" id="path3924"/><path d="M22.2541079,23.5037651 C22.2541079,23.5037651 23.4388876,22.4622312 23.5091795,21.8905052 L23.5091795,20.5724103 C23.0500207,20.6267398 22.6157535,20.7466539 22.2766206,21.2883046 C21.9881764,20.1972218 21.5377369,19.8929519 20.6877258,19.3639106 C19.8377147,19.8929519 19.3872752,20.1972218 19.0988311,21.2883046 C18.7596981,20.7466539 18.325431,20.6267398 17.8662721,20.5724103 L17.8662721,21.8905052 C18.0158535,22.4622312 19.1213437,23.5037651 19.1213437,23.5037651 L19.1213437,23.5037651 L22.2541079,23.5037651 L22.2541079,23.5037651 L22.2541079,23.5037651 L22.2541079,23.5037651 Z" fill="#FFFFFF" id="path3926"/><path d="M22.5303601,28.0049611 C22.5303601,28.0049611 24.1530356,26.1948881 24.1902565,25.489662 L24.1902565,23.4345622 C23.5829969,23.5192664 23.0086552,23.9401191 22.5601326,24.7846284 C22.1786528,23.0834733 21.5829207,21.897346 20.4587375,21.0724909 C19.3345544,21.897346 18.7388223,23.0834733 18.3573425,24.7846284 C17.9088199,23.9401191 17.3344781,23.5192664 16.7272186,23.4345622 L16.7272186,25.489662 C16.8437289,26.1948881 18.387115,28.0049611 18.387115,28.0049611 L18.387115,28.0049611 L22.5303601,28.0049611 L22.5303601,28.0049611 L22.5303601,28.0049611 L22.5303601,28.0049611 Z" fill="#FFFFFF" id="path3928"/><path d="M22.5303601,30.7347798 C22.5303601,30.7347798 23.9172515,29.3123147 24.1902565,28.6946796 L24.1902565,26.6395798 C23.5829969,26.724284 23.0086552,27.1451368 22.5601326,27.989646 C22.1786528,26.288491 21.5829207,25.3145066 20.4587375,24.4896516 C19.3345544,25.3145066 18.7388223,26.288491 18.3573425,27.989646 C17.9088199,27.1451368 17.3344781,26.724284 16.7272186,26.6395798 L16.7272186,28.6946796 C17.079513,29.3123147 18.387115,30.7347798 18.387115,30.7347798 L18.387115,30.7347798 L22.5303601,30.7347798 L22.5303601,30.7347798 L22.5303601,30.7347798 L22.5303601,30.7347798 Z" fill="#FFFFFF" id="path3930"/><path d="M23.2706816,32.3321022 C22.8657813,30.5575954 22.5177051,29.2413063 20.5684261,27.9068123 C18.6191496,29.2413063 18.2711723,30.5575954 17.8662721,32.3321022 C17.8662721,32.3321022 18.2711723,30.5575954 17.8662721,32.3321022 L23.2706816,32.3321022 L23.2706816,32.3321022 L23.2706816,32.3321022 L23.2706816,32.3321022 Z" fill="#FFFFFF" id="path3932"/><path d="M24.0934318,33.0929283 L24.0934318,30.5223731 C23.2081993,30.8718557 22.4082239,31.3892071 22.1133311,31.9649439 C21.7836979,30.5378123 21.1487243,29.9091217 20.3577371,29.0458659 C19.5667498,29.9091217 19.0370349,30.5378123 18.7074017,31.9649439 C18.4125089,31.3892071 17.612451,30.8718557 16.7272186,30.5223731 L16.7273011,33.0929283 L24.0934318,33.0929283 L24.0934318,33.0929283 L24.0934318,33.0929283 L24.0934318,33.0929283 Z" fill="#FFFFFF" id="path3911"/><path d="M12.1710043,24.0790106 L12.1710349,32.4724822 L13.1183494,32.4724822 L13.1182763,24.0577953 C12.7768704,23.8841149 12.4563573,23.8573018 12.1710043,24.0790129 C12.1710043,24.0790129 12.4563573,23.8573018 12.1710043,24.0790129 L12.1710043,24.0790106 L12.1710043,24.0790106 L12.1710043,24.0790106 L12.1710043,24.0790106 Z" fill="#FFFFFF" id="path3934"/><path d="M12.1710043,29.5 C13.3451666,30.1049947 14.5080702,30.8048914 14.8024891,32.4626276 L12.1710043,32.4626276 L12.1710043,29.5 L12.1710043,29.5 L12.1710043,29.5 L12.1710043,29.5 Z" fill="#FFFFFF" id="path3936"/><path d="M28.1177542,26.8714342 L28.1177754,32.3482655 L28.8856204,32.3482655 L28.8856204,26.8575892 C28.6457361,26.7442614 28.3182556,26.7267646 28.1177542,26.8714413 C28.1177542,26.8714413 28.3182556,26.7267646 28.1177542,26.8714413 L28.1177542,26.8714342 L28.1177542,26.8714342 L28.1177542,26.8714342 L28.1177542,26.8714342 Z" fill="#FFFFFF" id="path3940"/><path d="M29.0406587,29.5 C27.8664964,30.1049947 26.7035927,30.8048914 26.4091738,32.4626276 L29.0406587,32.4626276 L29.0406587,29.5 L29.0406587,29.5 L29.0406587,29.5 L29.0406587,29.5 Z" fill="#FFFFFF" id="path3942"/><path d="M85.4482507,24.0790106 L85.4482201,32.4724822 L84.5009056,32.4724822 L84.5009056,24.0577953 C84.8423116,23.8841149 85.1628977,23.8573018 85.4482507,24.0790129 C85.4482507,24.0790129 85.1628977,23.8573018 85.4482507,24.0790129 L85.4482507,24.0790106 L85.4482507,24.0790106 L85.4482507,24.0790106 L85.4482507,24.0790106 Z" fill="#FFFFFF" id="path3964"/><path d="M70.8322629,32.4326308 L70.8322629,21.4304835 C71.2970876,21.4304835 71.3687825,23.0430615 72.4352056,23.0430615 C72.9903875,23.0430615 72.9313566,22.3751053 72.6196454,21.8310477 C72.3436153,21.3492673 72.0019995,20.6838652 72.4660933,19.4443017 C72.7841118,20.392775 73.6400788,20.6937161 73.4819219,20.0989215 C73.2101407,19.0768067 72.4276935,18.9090876 73.0147629,17.3229734 C73.2186643,18.6461743 74.0609534,18.5878626 73.8563777,17.8184942 C73.6259388,16.9518621 73.1497257,16.596696 73.7372784,15.3750119 C74.0662774,16.7623005 74.511367,16.6809274 74.511367,15.8202329 C74.511367,14.5478261 74.4628898,13.1755585 76.0968405,12.6664162 C76.0968405,12.6664162 76.1911612,11.5 76.7805484,11.5 C77.3699355,11.5 77.4642562,12.6664162 77.4642562,12.6664162 C79.0982069,13.1755585 79.0497297,14.5478261 79.0497297,15.8202329 C79.0497297,16.6809274 79.4948193,16.7623005 79.8238183,15.3750119 C80.411371,16.596696 79.9351579,16.9518621 79.7047191,17.8184942 C79.5001433,18.5878626 80.3424325,18.6461743 80.5463338,17.3229734 C81.1334032,18.9090876 80.3509561,19.0768067 80.0791748,20.0989215 C79.9210179,20.6937161 80.7769849,20.392775 81.0950034,19.4443017 C81.5590972,20.6838652 81.2174815,21.3492673 80.9414514,21.8310477 C80.6297401,22.3751053 80.5707092,23.0430615 81.1258911,23.0430615 C82.1923143,23.0430615 82.2640091,21.4304835 82.7288339,21.4304835 L82.7288339,32.4326308 L70.8322629,32.4326308 L70.8322629,32.4326308 L70.8322629,32.4326308 L70.8322629,32.4326308 Z" fill="#FFFFFF" id="path3939"/><path d="M77.7812282,16.319479 L78.4656363,15.7398432 L78.4656363,14.9974899 C78.2152525,15.0219911 78.0786533,15.1087791 77.8937184,15.3530551 C77.7364268,14.8609961 77.3905811,14.4767574 76.9270579,14.2381696 C76.4635347,14.4767574 76.1176866,14.8435254 75.960395,15.3355844 C75.7754601,15.0913084 75.6388633,15.0219911 75.3884771,14.9974899 L75.3884771,15.7398432 L76.0728852,16.319479 L77.7812282,16.319479 L77.7812282,16.319479 L77.7812282,16.319479 L77.7812282,16.319479 Z" fill="#FFFFFF" id="path3331"/><path d="M78.1475353,18.3757553 L78.4656363,17.6818365 L78.4656363,16.7168264 C78.2152525,16.7416745 78.0786533,16.8296909 77.8937184,17.0774263 C77.7364268,16.5783985 77.3905811,16.1887164 76.9270579,15.9467499 C76.4635347,16.1887164 76.1176866,16.5606808 75.960395,17.0597085 C75.7754601,16.8119731 75.6388633,16.7416745 75.3884771,16.7168264 L75.3884771,17.6818365 L75.7065781,18.3757553 L78.1475353,18.3757553 L78.1475353,18.3757553 L78.1475353,18.3757553 L78.1475353,18.3757553 Z" fill="#FFFFFF" id="path3333"/><path d="M78.3732328,20.9663761 L79.3898795,19.7169973 L79.3898795,18.4840629 C79.017949,18.526137 78.8150403,18.6751736 78.5403306,19.0946507 C78.3066827,18.249671 77.7929493,18.065042 77.1044149,17.6553302 C76.4158806,18.065042 75.9021471,18.2196693 75.6684993,19.064649 C75.3937896,18.6451719 75.1908809,18.526137 74.8189503,18.4840629 L74.8189503,19.7169973 L75.8355971,20.9663761 L78.3732328,20.9663761 L78.3732328,20.9663761 L78.3732328,20.9663761 L78.3732328,20.9663761 Z" fill="#FFFFFF" id="path3335"/><path d="M78.6372593,23.5037651 C78.6372593,23.5037651 79.822039,22.4622312 79.8923309,21.8905052 L79.8923309,20.5724103 C79.4331721,20.6267398 78.998905,20.7466539 78.659772,21.2883046 C78.3713279,20.1972218 77.9208883,19.8929519 77.0708772,19.3639106 C76.2208662,19.8929519 75.7704266,20.1972218 75.4819825,21.2883046 C75.1428495,20.7466539 74.7085824,20.6267398 74.2494235,20.5724103 L74.2494235,21.8905052 C74.399005,22.4622312 75.5044952,23.5037651 75.5044952,23.5037651 L75.5044952,23.5037651 L78.6372593,23.5037651 L78.6372593,23.5037651 L78.6372593,23.5037651 L78.6372593,23.5037651 Z" fill="#FFFFFF" id="path3337"/><path d="M78.9135115,28.0049611 C78.9135115,28.0049611 80.5361871,26.1948881 80.5734079,25.489662 L80.5734079,23.4345622 C79.9661484,23.5192664 79.3918066,23.9401191 78.943284,24.7846284 C78.5618042,23.0834733 77.9660721,21.897346 76.841889,21.0724909 C75.7177058,21.897346 75.1219737,23.0834733 74.7404939,24.7846284 C74.2919713,23.9401191 73.7176295,23.5192664 73.11037,23.4345622 L73.11037,25.489662 C73.2268803,26.1948881 74.7702664,28.0049611 74.7702664,28.0049611 L74.7702664,28.0049611 L78.9135115,28.0049611 L78.9135115,28.0049611 L78.9135115,28.0049611 L78.9135115,28.0049611 Z" fill="#FFFFFF" id="path3339"/><path d="M78.9135115,30.7347798 C78.9135115,30.7347798 80.300403,29.3123147 80.5734079,28.6946796 L80.5734079,26.6395798 C79.9661484,26.724284 79.3918066,27.1451368 78.943284,27.989646 C78.5618042,26.288491 77.9660721,25.3145066 76.841889,24.4896516 C75.7177058,25.3145066 75.1219737,26.288491 74.7404939,27.989646 C74.2919713,27.1451368 73.7176295,26.724284 73.11037,26.6395798 L73.11037,28.6946796 C73.4626644,29.3123147 74.7702664,30.7347798 74.7702664,30.7347798 L74.7702664,30.7347798 L78.9135115,30.7347798 L78.9135115,30.7347798 L78.9135115,30.7347798 L78.9135115,30.7347798 Z" fill="#FFFFFF" id="path3341"/><path d="M79.653833,32.3321022 C79.2489328,30.5575954 78.9008565,29.2413063 76.9515776,27.9068123 C75.002301,29.2413063 74.6543238,30.5575954 74.2494235,32.3321022 C74.2494235,32.3321022 74.6543238,30.5575954 74.2494235,32.3321022 L79.653833,32.3321022 L79.653833,32.3321022 L79.653833,32.3321022 L79.653833,32.3321022 Z" fill="#FFFFFF" id="path3343"/><path d="M85.4923253,29.5 C84.2268485,30.1049947 83.1096411,30.8048914 82.7923253,32.4626276 L85.4923253,32.4626276 L85.4923253,29.5 L85.4923253,29.5 L85.4923253,29.5 L85.4923253,29.5 Z" fill="#FFFFFF" id="path3966"/><path d="M69.322022,26.8714342 L69.3220008,32.3482655 L68.5541557,32.3482655 L68.5541557,26.8575892 C68.7940401,26.7442614 69.1215206,26.7267646 69.322022,26.8714413 C69.322022,26.8714413 69.1215206,26.7267646 69.322022,26.8714413 L69.322022,26.8714342 L69.322022,26.8714342 L69.322022,26.8714342 L69.322022,26.8714342 Z" fill="#FFFFFF" id="path3970"/><path d="M69.322022,26.8714342 L69.3220008,32.3482655 L68.5541557,32.3482655 L68.5541557,26.8575892 C68.7940401,26.7442614 69.1215206,26.7267646 69.322022,26.8714413 C69.322022,26.8714413 69.1215206,26.7267646 69.322022,26.8714413 L69.322022,26.8714342 L69.322022,26.8714342 L69.322022,26.8714342 L69.322022,26.8714342 Z" fill="#FFFFFF" id="path4004"/><path d="M68.5541557,29.5 C69.728318,30.1049947 70.8912217,30.8048914 71.1856405,32.4626276 L68.5541557,32.4626276 L68.5541557,29.5 L68.5541557,29.5 L68.5541557,29.5 L68.5541557,29.5 Z" fill="#FFFFFF" id="path4006"/><path d="M55.4550397,21.7400239 C55.4550397,19.6041236 57.2851958,19.3639106 57.2851958,19.3639106 L57.2851958,21.2647062 C56.5886071,21.2347045 56.2527421,21.8646163 56.2527421,22.802217 C56.2527421,23.7398178 56.8136277,23.7547485 56.8136277,23.7547485 L56.8136277,29.1493134 L55.4550397,29.1493134 L55.4550397,21.7400239 L55.4550397,21.7400239 L55.4550397,21.7400239 L55.4550397,21.7400239 Z" fill="#FFFFFF" id="rect3321"/><path d="M41.9079727,21.7400239 C41.9079727,19.6041236 40.0778166,19.3639106 40.0778166,19.3639106 L40.0778166,21.2647062 C40.7744053,21.2347045 41.1102703,21.8646163 41.1102703,22.802217 C41.1102703,23.7398178 40.5493848,23.7547485 40.5493848,23.7547485 L40.5493848,29.1493134 L41.9079727,29.1493134 L41.9079727,21.7400239 L41.9079727,21.7400239 L41.9079727,21.7400239 L41.9079727,21.7400239 Z" fill="#FFFFFF" id="path4325"/><path d="M80.4765832,33.0929283 L80.4765832,30.5223731 C79.5913507,30.8718557 78.7913754,31.3892071 78.4964826,31.9649439 C78.1668493,30.5378123 77.5318757,29.9091217 76.7408885,29.0458659 C75.9499012,29.9091217 75.4201864,30.5378123 75.0905531,31.9649439 C74.7956603,31.3892071 73.9956025,30.8718557 73.11037,30.5223731 L73.1104525,33.0929283 L80.4765832,33.0929283 L80.4765832,33.0929283 L80.4765832,33.0929283 L80.4765832,33.0929283 Z" fill="#FFFFFF" id="path5240"/><path d="M2.489049,54.1050443 L95.0397619,54.1050443 L95.0398279,58.8687708 L2.48911738,58.8687779 L2.489049,54.1050443 L2.489049,54.1050443 L2.489049,54.1050443 L2.489049,54.1050443 Z" fill="#FFFFFF" id="path4136"/><path d="M-0.358584911,58.6612586 L97.0707695,58.6612586 L97.0708403,63.4179616 L-0.358514176,63.4179688 L-0.358584911,58.6612586 L-0.358584911,58.6612586 L-0.358584911,58.6612586 L-0.358584911,58.6612586 Z" fill="#FFFFFF" id="rect2997"/><path d="M7.04526326,46.6999969 L89.8757724,46.6999969 L89.8758313,50.1999942 L7.0453222,50.1999969 L7.04526326,46.6999969 L7.04526326,46.6999969 L7.04526326,46.6999969 L7.04526326,46.6999969 Z" fill="#FFFFFF" id="path4138"/><path d="M4.76715613,50.1183568 L92.441076,50.1183568 L92.4411396,54.1562574 L4.76721979,54.1562598 L4.76715613,50.1183568 L4.76715613,50.1183568 L4.76715613,50.1183568 L4.76715613,50.1183568 Z" fill="#FFFFFF" id="path4140"/><path d="M8.7538436,44.423089 L88.6901974,44.423089 L88.6902563,46.7701748 L8.75390019,46.7701748 L8.7538436,44.423089 L8.7538436,44.423089 L8.7538436,44.423089 L8.7538436,44.423089 Z" fill="#FFFFFF" id="path4134"/><path d="M17,44.423089 L23.0380981,44.423089 L23.0380981,63.4064063 L17,63.4064063 L17,44.423089 L17,44.423089 L17,44.423089 L17,44.423089 Z" fill="#FFFFFF" id="path3823"/><path d="M18.4357989,44.423089 L21.7998059,44.423089 L21.7997989,63.4068862 L18.4358343,63.4068862 L18.4357989,44.423089 L18.4357989,44.423089 L18.4357989,44.423089 L18.4357989,44.423089 Z" fill="#FFFFFF" id="path3825"/><path d="M18.4357989,44.423089 L21.7998059,44.423089 L21.7997989,45.923089 L18.4358343,45.923089 L18.4357989,44.423089 L18.4357989,44.423089 L18.4357989,44.423089 L18.4357989,44.423089 Z" fill="#FFFFFF" id="path4502-2"/><path d="M18.4357989,47.423089 L21.7998059,47.423089 L21.7997989,48.923089 L18.4358343,48.923089 L18.4357989,47.423089 L18.4357989,47.423089 L18.4357989,47.423089 L18.4357989,47.423089 Z" fill="#FFFFFF" id="path4502-3"/><path d="M18.4357989,50.423089 L21.7998059,50.423089 L21.7997989,51.923089 L18.4358343,51.923089 L18.4357989,50.423089 L18.4357989,50.423089 L18.4357989,50.423089 L18.4357989,50.423089 Z" fill="#FFFFFF" id="path4502-4"/><path d="M18.4357989,53.423089 L21.7998059,53.423089 L21.7997989,54.923089 L18.4358343,54.923089 L18.4357989,53.423089 L18.4357989,53.423089 L18.4357989,53.423089 L18.4357989,53.423089 Z" fill="#FFFFFF" id="path4502-5"/><path d="M18.4357989,56.423089 L21.7998059,56.423089 L21.7997989,57.923089 L18.4358343,57.923089 L18.4357989,56.423089 L18.4357989,56.423089 L18.4357989,56.423089 L18.4357989,56.423089 Z" fill="#FFFFFF" id="path4502-6"/><path d="M18.4357989,59.423089 L21.7998059,59.423089 L21.7997989,60.923089 L18.4358343,60.923089 L18.4357989,59.423089 L18.4357989,59.423089 L18.4357989,59.423089 L18.4357989,59.423089 Z" fill="#FFFFFF" id="path4502-7"/><path d="M18.4357989,62.423089 L21.7998059,62.423089 L21.7997989,63.423089 L18.4358343,63.423089 L18.4357989,62.423089 L18.4357989,62.423089 L18.4357989,62.423089 L18.4357989,62.423089 Z" fill="#FFFFFF" id="path4502-8"/><path d="M45.5,44.423089 L51.5380981,44.423089 L51.5380981,63.4064063 L45.5,63.4064063 L45.5,44.423089 L45.5,44.423089 L45.5,44.423089 L45.5,44.423089 Z" fill="#FFFFFF" id="path3823"/><path d="M46.9357989,44.423089 L50.2998059,44.423089 L50.2997989,63.4068862 L46.9358343,63.4068862 L46.9357989,44.423089 L46.9357989,44.423089 L46.9357989,44.423089 L46.9357989,44.423089 Z" fill="#FFFFFF" id="path3825"/><path d="M46.9357989,44.423089 L50.2998059,44.423089 L50.2997989,45.923089 L46.9358343,45.923089 L46.9357989,44.423089 L46.9357989,44.423089 L46.9357989,44.423089 L46.9357989,44.423089 Z" fill="#FFFFFF" id="path4502-2"/><path d="M46.9357989,47.423089 L50.2998059,47.423089 L50.2997989,48.923089 L46.9358343,48.923089 L46.9357989,47.423089 L46.9357989,47.423089 L46.9357989,47.423089 L46.9357989,47.423089 Z" fill="#FFFFFF" id="path4502-3"/><path d="M46.9357989,50.423089 L50.2998059,50.423089 L50.2997989,51.923089 L46.9358343,51.923089 L46.9357989,50.423089 L46.9357989,50.423089 L46.9357989,50.423089 L46.9357989,50.423089 Z" fill="#FFFFFF" id="path4502-4"/><path d="M46.9357989,53.423089 L50.2998059,53.423089 L50.2997989,54.923089 L46.9358343,54.923089 L46.9357989,53.423089 L46.9357989,53.423089 L46.9357989,53.423089 L46.9357989,53.423089 Z" fill="#FFFFFF" id="path4502-5"/><path d="M46.9357989,56.423089 L50.2998059,56.423089 L50.2997989,57.923089 L46.9358343,57.923089 L46.9357989,56.423089 L46.9357989,56.423089 L46.9357989,56.423089 L46.9357989,56.423089 Z" fill="#FFFFFF" id="path4502-6"/><path d="M46.9357989,59.423089 L50.2998059,59.423089 L50.2997989,60.923089 L46.9358343,60.923089 L46.9357989,59.423089 L46.9357989,59.423089 L46.9357989,59.423089 L46.9357989,59.423089 Z" fill="#FFFFFF" id="path4502-7"/><path d="M46.9357989,62.423089 L50.2998059,62.423089 L50.2997989,63.423089 L46.9358343,63.423089 L46.9357989,62.423089 L46.9357989,62.423089 L46.9357989,62.423089 L46.9357989,62.423089 Z" fill="#FFFFFF" id="path4502-8"/><path d="M74,44.423089 L80.0380981,44.423089 L80.0380981,63.4064063 L74,63.4064063 L74,44.423089 L74,44.423089 L74,44.423089 L74,44.423089 Z" fill="#FFFFFF" id="path3823"/><path d="M75.4357989,44.423089 L78.7998059,44.423089 L78.7997989,63.4068862 L75.4358343,63.4068862 L75.4357989,44.423089 L75.4357989,44.423089 L75.4357989,44.423089 L75.4357989,44.423089 Z" fill="#FFFFFF" id="path3825"/><path d="M75.4357989,44.423089 L78.7998059,44.423089 L78.7997989,45.923089 L75.4358343,45.923089 L75.4357989,44.423089 L75.4357989,44.423089 L75.4357989,44.423089 L75.4357989,44.423089 Z" fill="#FFFFFF" id="path4502-2"/><path d="M75.4357989,47.423089 L78.7998059,47.423089 L78.7997989,48.923089 L75.4358343,48.923089 L75.4357989,47.423089 L75.4357989,47.423089 L75.4357989,47.423089 L75.4357989,47.423089 Z" fill="#FFFFFF" id="path4502-3"/><path d="M75.4357989,50.423089 L78.7998059,50.423089 L78.7997989,51.923089 L75.4358343,51.923089 L75.4357989,50.423089 L75.4357989,50.423089 L75.4357989,50.423089 L75.4357989,50.423089 Z" fill="#FFFFFF" id="path4502-4"/><path d="M75.4357989,53.423089 L78.7998059,53.423089 L78.7997989,54.923089 L75.4358343,54.923089 L75.4357989,53.423089 L75.4357989,53.423089 L75.4357989,53.423089 L75.4357989,53.423089 Z" fill="#FFFFFF" id="path4502-5"/><path d="M75.4357989,56.423089 L78.7998059,56.423089 L78.7997989,57.923089 L75.4358343,57.923089 L75.4357989,56.423089 L75.4357989,56.423089 L75.4357989,56.423089 L75.4357989,56.423089 Z" fill="#FFFFFF" id="path4502-6"/><path d="M75.4357989,59.423089 L78.7998059,59.423089 L78.7997989,60.923089 L75.4358343,60.923089 L75.4357989,59.423089 L75.4357989,59.423089 L75.4357989,59.423089 L75.4357989,59.423089 Z" fill="#FFFFFF" id="path4502-7"/><path d="M75.4357989,62.423089 L78.7998059,62.423089 L78.7997989,63.423089 L75.4358343,63.423089 L75.4357989,62.423089 L75.4357989,62.423089 L75.4357989,62.423089 L75.4357989,62.423089 Z" fill="#FFFFFF" id="path4502-8"/><rect fill="#FFFFFF" height="6.27090561" id="rect4518" width="1.35297102" x="30.3958613" y="36.4497141"/><rect fill="#FFFFFF" height="6.27090561" id="rect4520" width="1.35297102" x="33.2434952" y="36.4497141"/><rect fill="#FFFFFF" height="6.27090561" id="rect4522" width="1.35297102" x="36.0911291" y="36.4497141"/><rect fill="#FFFFFF" height="6.27090561" id="rect4524" width="1.35297102" x="59.4417272" y="36.4497141"/><rect fill="#FFFFFF" height="6.27090561" id="rect4526" width="1.35297102" x="62.2893611" y="36.4497141"/><rect fill="#FFFFFF" height="6.27090561" id="rect4528" width="1.35297102" x="65.136995" y="36.4497141"/></g></g></g></g></svg>