<?xml version="1.0" ?><svg height="180px" version="1.1" viewBox="0 0 180 180" width="180px" xmlns="http://www.w3.org/2000/svg" xmlns:sketch="http://www.bohemiancoding.com/sketch/ns" xmlns:xlink="http://www.w3.org/1999/xlink"><title/><desc/><defs/><g fill="none" fill-rule="evenodd" id="Page-1" stroke="none" stroke-width="1"><g id="Material" transform="translate(-180.000000, -180.000000)"><g id="Slice" transform="translate(180.000000, 180.000000)"/><g id="circle_saint_kitts_and_nevis" transform="translate(270.000000, 270.000000) scale(-1, 1) translate(-270.000000, -270.000000) translate(180.000000, 180.000000)"><path d="M171.090431,129.090431 L50.9095686,8.90956858 C62.731415,3.20027277 75.9919754,0 90,0 C139.70563,0 180,40.2943701 180,90 C180,104.008025 176.799727,117.268585 171.090431,129.090431 Z" fill="#4EAB53" id="Path-158"/><path d="M129.090431,171.090431 L8.90956858,50.9095686 C3.20027277,62.731415 0,75.9919754 0,90 C0,139.70563 40.2943701,180 90,180 C104.008025,180 117.268585,176.799727 129.090431,171.090431 Z" fill="#F1453D" id="Path-158"/><path d="M8.90956858,50.9095686 L129.090431,171.090431 C147.395003,162.250339 162.250339,147.395003 171.090431,129.090431 L50.9095686,8.90956858 C32.6049966,17.7496611 17.7496611,32.6049966 8.90956858,50.9095686 Z" fill="#FEE94E" id="Path-160"/><path d="M166.088986,138.088986 L41.9110142,13.9110142 C30.4294505,21.182692 20.7069022,30.9814812 13.5253755,42.5253755 L137.474624,166.474624 C149.018519,159.293098 158.817308,149.570549 166.088986,138.088986 Z" fill="#262626" id="Path-160"/><path d="M57.2642214,56.8950655 L54.5045572,65.7729542 L49.1365408,58.1823635 L39.8403827,58.3011849 L45.400656,50.8502749 L42.4149794,42.0458228 L51.2194347,45.0314991 L58.6703477,39.4712298 L58.5515208,48.7673862 L66.142111,54.1354018 L57.2642214,56.8950655 Z M135.264222,135.895065 L132.504557,144.772955 L127.136541,137.182364 L117.840383,137.301185 L123.400656,129.850275 L120.414979,121.045823 L129.219435,124.031499 L136.670347,118.47123 L136.551521,127.767386 L144.142111,133.135401 L135.264222,135.895065 Z" fill="#FFFFFF" id="Star-30"/></g></g></g></svg>