<?xml version="1.0" ?><svg height="180px" version="1.1" viewBox="0 0 180 180" width="180px" xmlns="http://www.w3.org/2000/svg" xmlns:sketch="http://www.bohemiancoding.com/sketch/ns" xmlns:xlink="http://www.w3.org/1999/xlink"><title/><desc/><defs/><g fill="none" fill-rule="evenodd" id="Page-1" stroke="none" stroke-width="1"><g id="Material" transform="translate(-180.000000, -180.000000)"><g id="Slice" transform="translate(180.000000, 180.000000)"/><g id="circle_south_korea" transform="translate(180.000000, 180.000000)"><circle cx="90" cy="90" fill="#FFFFFF" id="1024-copy" r="90" transform="translate(90.000000, 90.000000) scale(1, -1) translate(-90.000000, -90.000000) "/><g id="Group-2" transform="translate(27.000000, 41.000000)"><path d="M2,9 L2,14 L32,14 L32,9 L2,9 Z M2,16 L2,21 L32,21 L32,16 L2,16 Z M2,23 L2,28 L32,28 L32,23 L2,23 Z" fill="#000000" id="Rectangle-4" transform="translate(17.000000, 18.500000) rotate(-56.000000) translate(-17.000000, -18.500000) "/><path d="M2,70 L2,75 L32,75 L32,70 L2,70 Z M2,77 L2,82 L16,82 L16,77 L2,77 Z M18,77 L18,82 L32,82 L32,77 L18,77 Z M2,84 L2,89 L32,89 L32,84 L2,84 Z" fill="#000000" id="Rectangle-5" transform="translate(17.000000, 79.500000) scale(-1, 1) rotate(-56.000000) translate(-17.000000, -79.500000) "/><path d="M94,9 L94,14 L108,14 L108,9 L94,9 Z M110,9 L110,14 L124,14 L124,9 L110,9 Z M94,16 L94,21 L124,21 L124,16 L94,16 Z M94,23 L94,28 L108,28 L108,23 L94,23 Z M110,23 L110,28 L124,28 L124,23 L110,23 Z" fill="#000000" id="Rectangle-5" transform="translate(109.000000, 18.500000) scale(-1, 1) rotate(-56.000000) translate(-109.000000, -18.500000) "/><path d="M94,70 L94,75 L108,75 L108,70 L94,70 Z M110,70 L110,75 L124,75 L124,70 L110,70 Z M94,77 L94,82 L108,82 L108,77 L94,77 Z M110,77 L110,82 L124,82 L124,77 L110,77 Z M94,84 L94,89 L108,89 L108,84 L94,84 Z M110,84 L110,89 L124,89 L124,84 L110,84 Z" fill="#000000" id="Rectangle-6" transform="translate(109.000000, 79.500000) scale(-1, -1) rotate(-56.000000) translate(-109.000000, -79.500000) "/><circle cx="63" cy="49" fill="#F1453D" id="Oval-2" r="30"/><g fill="#2B98F0" id="Oval-2-+-Oval-2" transform="translate(58.601581, 55.095401) rotate(32.000000) translate(-58.601581, -55.095401) translate(28.101581, 32.595401)"><path d="M61,15.2564103 C61,31.6833422 47.5685434,45 31,45 C14.4314567,45 1,31.6833422 1,15.2564103 C1,23.4698761 7.71572838,30.1282051 16,30.1282051 C24.2842716,30.1282051 31,23.4698761 31,15.2564103 C31,7.04294437 37.7157284,0.384615385 46,0.384615385 C54.2842713,0.384615385 61,7.04294437 61,15.2564103 C61,15.2564103 61,7.04294437 61,15.2564103 L61,15.2564103 L61,15.2564103 Z" id="Oval-2"/></g></g></g></g></g></svg>