<?xml version="1.0" ?><svg height="180px" version="1.1" viewBox="0 0 180 180" width="180px" xmlns="http://www.w3.org/2000/svg" xmlns:sketch="http://www.bohemiancoding.com/sketch/ns" xmlns:xlink="http://www.w3.org/1999/xlink"><title/><desc/><defs/><g fill="none" fill-rule="evenodd" id="Page-1" stroke="none" stroke-width="1"><g id="Material" transform="translate(-180.000000, -180.000000)"><g id="Slice" transform="translate(180.000000, 180.000000)"/><g id="circle_cayman_islands" transform="translate(180.000000, 180.000000)"><circle cx="90" cy="90" fill="#2B98F0" id="Oval-15-copy-4" r="90"/><g id="UK"><path d="M22.034956,31 C14.2537027,39.9559217 8.21335943,50.4648712 4.44077468,62 L94,62 L94,31 L22.034956,31 L22.034956,31 L22.034956,31 L22.034956,31 Z" fill="#FFFFFF" id="Oval-15-copy-5"/><path d="M13.4345337,42.6717104 C10.1805883,47.9246208 7.45212813,53.5372699 5.32255251,59.4362582 L73.1482631,93 L94,93 L94,82.6812521 L13.4345337,42.6717104 L13.4345337,42.6717104 L13.4345337,42.6717104 L13.4345337,42.6717104 Z" fill="#FFFFFF" id="Oval-15-copy-5"/><path d="M94.0000386,0.0873002869 C92.67394,0.0293019687 91.3403919,0 90,0 C82.1990496,0 74.629909,0.992494787 67.4119623,2.85810017 L34.4308871,19.1991114 C23.4023557,27.8670672 14.4490714,39.05628 8.43950289,51.8982811 L94,10.3146583 L94,0.0872986002 L94,0.0872986002 L94.0000386,0.0873002869 L94.0000386,0.0873002869 Z" fill="#FFFFFF" id="Oval-15-copy-5"/><path d="M16,38.7607807 C5.91185383,53.3026912 0,70.9609515 0,90 C0,91.0039293 0.0164376398,92.0040194 0.0490584628,93.0000158 L16,93 L16,38.7607807 L16,38.7607807 L16,38.7607807 L16,38.7607807 Z" fill="#FFFFFF" id="Oval-15-copy-5"/><path d="M17.2529958,37 C12.9908238,42.8401877 9.41486216,49.2130514 6.64370346,55.9999986 L94,56 L94,37 L17.2529958,37 L17.2529958,37 L17.2529958,37 L17.2529958,37 Z" fill="#F1453D" id="Oval-15-copy-5"/><path d="M10.9999966,46.8485332 C3.98708297,59.660287 0,74.3645266 0,90 C0,91.0039293 0.0164376398,92.0040194 0.0490584628,93.0000158 L11,93 L11,46.8485271 L11,46.8485271 L10.9999966,46.8485332 L10.9999966,46.8485332 Z" fill="#F1453D" id="Oval-15-copy-5"/><path d="M93.8389177,0.0803962802 C92.565936,0.0269770907 91.2861184,0 90,0 C86.1745509,0 82.4048463,0.238670122 78.7049644,0.701932021 L25.4542081,27.2795777 C24.2803472,28.4873857 23.1400934,29.7280296 22.034956,31 L31.8882776,31 L93.8389177,0.0803962802 L93.8389177,0.0803962802 L93.8389177,0.0803962802 L93.8389177,0.0803962802 Z" fill="#F1453D" id="Oval-15-copy-5"/><path d="M94,93 L32,62 L45.8636683,62 L94,86.0681243 L94,93 L94,93 L94,93 L94,93 Z" fill="#F1453D" id="Oval-15-copy-5"/></g><g id="Cayman_Islands" transform="translate(93.000000, 55.000000)"><g id="motto" transform="translate(0.000000, 58.339426)"><g fill="#FEE94E" id="motto1" stroke="#000000" stroke-width="0.1" transform="translate(1.973890, 0.219321)"><path d="M0.530099217,16.3532428 C1.16072428,18.0349448 5.68030809,20.2421796 10.9356376,17.4043065 C14.5092564,15.4072844 16.8216031,12.5694157 19.0288292,7.52430548 C19.6594521,6.26302903 19.9747636,4.68642141 18.5032809,3.74046736 C17.3471098,2.8996164 15.4551995,1.95365577 14.6143441,1.11280261 C14.1939296,0.692377128 13.7734844,0.377056919 13.458173,0.0617367102 C13.6683813,0.271951645 13.8785897,0.482164386 14.088798,0.797482402 C16.190932,3.32002653 13.9836927,6.99876595 11.6713526,9.20599206 C9.98966162,10.7825865 6.94156042,14.671519 2.5271082,10.9927993 C1.58114538,10.1519483 -0.62609389,13.620464 0.530077285,16.3532275 L0.530099217,16.3532428 Z" id="Shape"/><path d="M64.4343603,16.3532428 C63.6986037,18.0349448 59.1790308,20.2421796 54.0288219,17.4043065 C50.4552031,15.4072844 48.1428564,12.5694157 45.8305097,7.52430548 C45.3049614,6.26302903 44.9896499,4.68642141 46.4611325,3.74046736 C47.6173037,2.8996164 49.5092359,1.95365577 50.3500693,1.11280261 C50.7705124,0.692377128 51.0858238,0.377056919 51.5062405,0.0617367102 C51.2960322,0.271951645 51.0858238,0.482164386 50.8756155,0.797482402 C48.7734815,3.32002653 50.9807207,6.99876595 53.1879622,9.20599206 C54.8696488,10.7825865 58.0228531,14.671519 62.4373272,10.9927993 C63.3833032,10.1519483 65.4854087,13.620464 64.4343559,16.3532275 L64.4343603,16.3532428 Z" id="Shape"/><path d="M32.4825587,25.392564 C40.8910684,25.392564 53.8191728,21.6087258 60.7561253,8.36532533 C61.9122987,6.15809922 60.7561253,5.00192585 59.3897546,4.26616919 C57.9182632,3.63553097 56.1314319,2.16403958 55.1854997,1.21808773 C56.8671885,2.89979405 56.5518924,4.0559718 55.3957191,5.9478799 C50.0352689,14.8819269 42.6778339,19.4014997 32.4825807,19.4014997 C22.2872397,19.4014997 14.9298047,14.8819269 9.5694423,5.9478799 C8.41327112,4.05596084 8.09793117,2.89979843 9.67454538,1.21808773 C8.83368564,2.16404616 6.94176,3.63553316 5.47026862,4.26616919 C4.10388909,5.00191488 2.94772449,6.15808386 4.10388909,8.36532533 C11.0409074,21.6087478 24.0741105,25.392564 32.4827298,25.392564 L32.4825587,25.392564 Z" id="Shape"/></g><g fill="#F1453D" id="motto2" stroke="#000000" stroke-width="0.1"><path d="M15.0116554,7.84884595 C14.8014426,6.79778225 13.4350587,7.21820773 13.0146332,8.47948418 C12.4891025,7.74374068 11.9635695,7.00799499 11.543144,6.16713744 C10.2818654,4.27522277 10.0716526,3.01393535 11.858462,1.22712595 C12.6993152,0.386274987 14.3810062,-0.559683446 15.5371795,0.491382454 C17.954625,2.4884046 16.6933507,5.74671196 15.0116466,7.84883937 L15.0116554,7.84884595 Z" id="Shape"/><path d="M53.7959687,7.84884595 C54.0061814,6.79778225 55.4776706,7.21820773 55.8980961,8.47948418 C56.4236246,7.74374068 56.949162,7.00799499 57.3695787,6.16713744 C58.6308727,4.27522277 58.8410701,3.01393535 56.949162,1.22712595 C56.2134163,0.386274987 54.5317166,-0.559683446 53.2704445,0.491382454 C50.9580978,2.4884046 52.1142733,5.74671196 53.7959774,7.84883937 L53.7959687,7.84884595 Z" id="Shape"/><path d="M2.50398956,16.572564 C1.45292366,14.9959673 0.612072689,10.8968178 0.401859948,9.84574308 C0.0865397389,8.89978465 -0.0185655352,8.05893368 1.13760564,7.63851697 C2.29377681,7.21809149 3.34483175,8.68958068 3.87036909,9.95086371 C4.39589984,11.2121402 5.236753,13.1040658 6.18271582,15.4163906 C3.87036909,14.0500067 1.97846099,14.9959629 2.50399833,16.5725596 L2.50398956,16.572564 Z" id="Shape"/><path d="M66.4082507,16.572564 C67.3542047,14.9959673 68.1950601,10.8968178 68.5103781,9.84574308 C68.7205974,8.89978465 68.9307948,8.05893368 67.7746214,7.63851697 C66.61847,7.21809149 65.5673953,8.68958068 65.041858,9.95086371 C64.5163206,11.2121402 63.6754872,13.1040658 62.7295112,15.4163906 C65.041858,14.0500067 66.8286674,14.9959629 66.4082507,16.5725596 L66.4082507,16.572564 Z" id="Shape"/></g><g fill="#00493D" id="Group" transform="translate(7.018277, 5.263708)"><path d="M1.58196345,1.84931593 L0.741110287,2.26974141 C0.530897546,2.37484888 0.530897546,2.58506162 0.530897546,2.69016909 L0.425792272,2.69016909 L0.00536678851,1.74421065 L0.110472063,1.74421065 C0.110472063,1.84931593 0.21557953,1.95442339 0.425792272,1.84931593 L2.21260167,0.903357493 C2.42281441,0.798252219 2.42281441,0.693144752 2.31770695,0.588039478 L2.42281441,0.48293201 L2.94834736,1.53399791 L2.8432399,1.53399791 C2.73813462,1.42889044 2.63302715,1.32378517 2.42281441,1.42889044 L1.68706872,1.84931593 L2.00238893,2.47995634 L2.8432399,2.16463614 C3.05345264,2.05952867 2.94834736,1.84931593 2.94834736,1.74421065 L3.05345264,1.74421065 L3.47387812,2.69016909 C3.36877285,2.58506162 3.26366538,2.47995634 3.05345264,2.58506162 L1.26664324,3.53102005 C1.0564305,3.63612533 1.0564305,3.74123279 1.16153796,3.84633807 L1.0564305,3.95144554 L0.530897546,3.0054871 L0.636005013,2.90038183 C0.741110287,3.0054871 0.846217755,3.11059457 1.0564305,3.0054871 L1.89728146,2.58506162 L1.58196345,1.84931593 L1.58196345,1.84931593 Z" id="Shape"/><path d="M3.36877285,3.21568668 C3.57898559,3.11058141 3.57898559,3.00547394 3.47387812,2.7952612 L3.57898559,2.7952612 L4.6300493,4.37185786 L3.8943036,4.89739081 L3.8943036,4.79228334 C4.31473128,4.47696533 4.31473128,4.05653984 4.20962381,3.95143238 C4.10451854,3.84632491 3.99941107,3.74121963 3.99941107,3.63611217 C3.8943036,3.63611217 3.8943036,3.53100689 3.68409086,3.74121963 C3.57898559,3.84632491 2.94834736,4.26675258 2.94834736,4.26675258 C3.05345264,4.37185786 3.1585601,4.68717807 3.68409086,4.37185786 L3.78919833,4.37185786 L2.63302715,5.21270883 L2.63302715,5.10760355 C3.1585601,4.68717807 2.94834736,4.37185786 2.8432399,4.26675258 L2.1074942,4.79228334 C1.89728146,4.89739081 1.89728146,5.00249608 1.89728146,5.10760355 C2.00238893,5.10760355 2.00238893,5.21270883 2.1074942,5.31781629 C2.21260167,5.52802903 2.52792188,5.73824178 3.05345264,5.52802903 L3.1585601,5.6331365 L2.31770695,5.94845452 L1.26664324,4.26675258 L1.3717507,4.26675258 C1.47685598,4.37185786 1.58196345,4.47696533 1.79217619,4.37185786 L3.36877285,3.21568668 L3.36877285,3.21568668 Z" id="Shape"/><path d="M5.05030809,7.20974413 L4.3145646,7.84038235 C4.20945713,7.94548762 4.20945713,8.15570037 4.3145646,8.26080783 L4.20945713,8.26080783 L3.47371144,7.52506214 L3.5788189,7.41995687 C3.68392418,7.52506214 3.78903164,7.63016961 3.99924439,7.41995687 L5.3656283,6.05357295 C5.57584104,5.94846548 5.57584104,5.84336021 5.47073577,5.63314747 L6.20647927,6.47399843 C6.10137399,6.36889097 5.89116125,6.36889097 5.78605379,6.47399843 L5.15541556,7.10463666 L5.68094851,7.63016961 L6.31158674,7.10463666 C6.52179948,6.89442392 6.41669201,6.78931645 6.31158674,6.68421117 L6.41669201,6.57910371 L7.1524377,7.41995687 L7.04733243,7.41995687 C6.94222496,7.41995687 6.83711749,7.3148494 6.62690475,7.52506214 L5.26052084,8.78634078 C5.05030809,8.99655352 5.05030809,9.1016588 5.15541556,9.20676627 L5.15541556,9.31187154 L4.41966987,8.47102057 C4.52477734,8.47102057 4.73499008,8.57612804 4.84009535,8.47102057 L5.57584104,7.73527488 L5.05030809,7.20974413 L5.05030809,7.20974413 Z" id="Shape"/><path d="M6.94232804,9.73231018 L7.36275352,8.78635394 C7.36275352,8.78635394 7.04743551,8.89145922 6.52190256,9.20677943 L6.62700783,9.41699217 L6.52190256,9.52209744 L6.31168982,9.3118847 C6.20658235,9.41699217 6.10147708,9.41699217 5.99636961,9.52209744 C5.68105159,9.73231018 5.78615687,9.83741765 5.89126433,9.94252292 L5.89126433,10.0476304 L5.36573138,9.52209744 L5.47083885,9.52209744 L5.89126433,9.41699217 L7.99339175,8.26082099 L8.09849922,8.36592627 C8.09849922,8.36592627 7.99339175,8.47103373 7.04743551,10.5731743 C7.04743551,10.783387 6.94232804,10.8884923 7.04743551,11.0987051 L6.20658235,10.3629616 L6.31168982,10.2578541 C6.41679509,10.4680668 6.62700783,10.4680668 6.7321153,10.2578541 C6.7321153,10.1527488 6.83722057,9.94253389 6.83722057,9.83742862 L6.52190256,9.52210841 L6.62700783,9.41700313 L6.94232804,9.73231018 Z" id="Shape"/><path d="M7.46788512,11.5191854 L7.57299039,11.4140779 C7.67809786,11.5191854 7.78320313,11.5191854 7.99341587,11.4140779 L9.35979979,9.62726851 L9.25469452,9.52216104 C9.04448178,9.41705577 8.72916157,9.41705577 8.41384355,9.73237379 L8.41384355,9.62726851 L8.83426903,9.10173556 L10.4108657,10.2579067 L9.88533274,10.888545 L9.78022527,10.888545 C10.0955455,10.5732269 9.99044021,10.1528015 9.78022527,10.047694 L9.78022527,9.94258653 L8.41384355,11.7293981 C8.20362862,11.8345034 8.30873608,12.0447161 8.41384355,12.1498236 L8.30873608,12.1498236 L7.46788512,11.5191854 L7.46788512,11.5191854 Z" id="Shape"/><path d="M10.2006266,11.939624 L9.67509368,12.6753675 C9.56998621,12.8855803 9.67509368,12.9906877 9.78019896,13.0957952 L9.67509368,13.2009005 L8.83424272,12.5702622 L8.83424272,12.4651548 C9.04445546,12.5702622 9.14956073,12.5702622 9.2546682,12.3600495 L10.4108394,10.7834528 C10.5159446,10.5732401 10.4108394,10.4681326 10.3057319,10.3630274 L10.4108394,10.2579199 L11.2516903,10.8885581 L11.2516903,10.9936656 C11.0414776,10.8885581 10.9363701,10.8885581 10.8312649,11.0987709 L10.3057319,11.8345166 L10.9363701,12.254942 L11.4619031,11.5191985 C11.5670105,11.3089836 11.4619031,11.2038783 11.3567956,11.0987709 L11.4619031,10.9936656 L12.302754,11.6243038 L12.302754,11.7294113 C12.1976488,11.6243038 11.987436,11.6243038 11.8823286,11.8345166 L10.8312649,13.5162207 C10.6210521,13.621326 10.7261574,13.7264334 10.8312649,13.8315387 L10.8312649,13.9366462 L9.88530642,13.3060079 L9.99041389,13.3060079 C10.0955192,13.3060079 10.2006266,13.3060079 10.3057319,13.2009005 L10.8312649,12.3600495 L10.2006266,11.939624 L10.2006266,11.939624 Z" id="Shape"/><path d="M12.3028198,14.8824752 L12.4079273,14.7773677 C12.5130326,14.8824752 12.7232453,14.8824752 12.8283528,14.6722625 L13.6692038,12.8854509 C13.7743112,12.6752381 13.6692038,12.5701328 13.5640985,12.4650254 L15.3509079,13.3058785 L14.9304824,14.1467295 L14.8253749,14.041622 C15.1406951,13.6211966 14.8253749,13.2007711 14.7202697,13.0956658 C14.6151622,13.0956658 14.5100569,12.9905583 14.4049495,12.9905583 C14.299842,12.9905583 14.299842,12.9905583 14.1947367,13.2007711 C14.0896292,13.3058785 13.7743112,13.9365168 13.7743112,13.9365168 C13.8794165,14.041622 14.0896292,14.2518348 14.5100569,13.726304 L14.6151622,13.726304 L13.984524,14.9875805 L13.8794165,14.8824752 C14.1947367,14.2518348 13.7743112,14.1467295 13.6692038,14.1467295 L13.2487783,14.9875805 C13.143673,15.1977932 13.2487783,15.3029007 13.3538857,15.3029007 L13.3538857,15.408006 L12.3028198,14.8824752 L12.3028198,14.8824752 Z" id="Shape"/><path d="M15.3507258,16.3541201 C15.0354056,16.1439074 15.0354056,15.5132691 15.3507258,14.8826309 C15.5609386,14.2519905 15.9813641,13.7264597 16.4017896,13.9366725 C16.7171098,14.0417778 16.6120023,14.6724182 16.4017896,15.3030564 C16.0864715,16.0388021 15.6660439,16.4592276 15.3507258,16.3541201 L15.2456184,16.3541201 C15.9813641,16.6694403 16.506897,16.2490148 16.822215,15.5132691 C17.1375352,14.8826309 17.0324278,14.1468852 16.4017896,13.831565 C15.7711513,13.516247 15.1405131,13.9366725 14.8251929,14.6724182 C14.5098749,15.4081617 14.6149802,16.1439074 15.2456184,16.3541201 L15.3507258,16.3541201 L15.3507258,16.3541201 Z" id="Shape"/><path d="M18.6091802,16.5642298 L19.0296078,15.3029533 C19.1347131,15.0927406 19.0296078,14.9876331 18.9245004,14.8825278 L19.4500333,14.9876331 L19.4500333,15.0927406 C19.3449258,15.0927406 19.2398206,15.0927406 19.1347131,15.3029533 L18.7142876,16.5642298 C18.5040749,17.0897627 18.1887547,17.5101882 17.5581164,17.2999755 C17.137691,17.194868 16.8223708,16.6693372 17.0325835,16.1438043 L17.5581164,14.7774204 C17.6632239,14.5672076 17.5581164,14.4621023 17.4530112,14.3569949 L17.4530112,14.2518874 L18.3989674,14.6723151 L18.3989674,14.7774204 C18.2938621,14.6723151 18.0836494,14.6723151 18.0836494,14.8825278 L17.5581164,16.2489117 C17.4530112,16.6693372 17.4530112,17.0897627 17.7683292,17.194868 C18.0836494,17.2999755 18.3989674,17.0897627 18.6091802,16.5642298 L18.6091802,16.5642298 Z" id="Shape"/><path d="M19.5551123,15.197859 C19.5551123,15.0927537 19.5551123,15.0927537 19.450007,15.0927537 L20.1857505,15.197859 L20.8163909,17.1948811 L21.1317089,15.9336047 C21.2368164,15.723392 21.1317089,15.6182845 21.0266037,15.5131792 L21.6572419,15.6182845 L21.5521344,15.723392 C21.4470291,15.723392 21.3419217,15.723392 21.2368164,15.9336047 L20.7112834,18.2459514 L20.6061782,18.2459514 L19.765325,15.7234073 L19.2397943,17.4051092 C19.2397943,17.7204295 19.3448995,17.7204295 19.450007,17.8255369 L19.450007,17.9306422 L18.8193666,17.7204295 L18.8193666,17.6153242 C18.924474,17.7204295 19.1346868,17.6153242 19.1346868,17.4051092 L19.6602197,15.5131946 L19.5551123,15.1978744 L19.5551123,15.197859 Z" id="Shape"/><path d="M22.2878801,18.4562234 C22.2878801,18.4562234 22.1457662,18.5243222 22.0776674,18.4562234 C22.0095686,18.3881246 21.9725621,18.3511159 22.0776674,18.2460107 L22.3929876,16.143881 C22.4980928,16.0387758 22.4980928,15.9336683 22.6032003,16.0387758 L22.8134131,16.0387758 C23.0236258,16.0387758 23.2338385,16.4592013 23.1287311,17.3000522 L23.4440513,17.4051575 C23.654264,16.3540938 23.2338385,15.9336683 22.7083056,15.8285608 C22.2878801,15.7234556 21.6572419,15.6183481 21.6572419,15.6183481 L21.6572419,15.7234556 C21.7623472,15.8285608 21.9725621,15.8285608 21.8674546,16.143881 L21.5521344,18.0357979 C21.4470291,18.2460107 21.3419217,18.3511159 21.2368164,18.3511159 L21.1317089,18.3511159 L22.1827748,18.5613287 C22.7083056,18.6664361 23.2338385,18.5613287 23.4440513,17.4051575 L23.1287311,17.3000522 C22.9185183,18.2460107 22.4980928,18.4562234 22.2878801,18.4562234 Z" id="Shape"/><path d="M24.0746632,16.4591749 C24.0746632,16.2489622 23.8644504,16.1438547 23.7593452,16.1438547 L23.7593452,16.0387495 L25.6512598,16.2489622 L25.5461546,17.0898132 C25.5461546,16.5642802 25.2308344,16.3540675 25.0206216,16.3540675 C24.9155163,16.2489622 24.8104089,16.2489622 24.7053014,16.2489622 C24.6001961,16.2489622 24.6001961,16.2489622 24.6001961,16.5642802 C24.6001961,16.6693877 24.4950887,17.4051312 24.4950887,17.4051312 C24.6001961,17.4051312 24.9155163,17.5102386 25.1257291,16.8796004 L25.0206216,18.2459843 L24.9155163,18.2459843 C24.9155163,17.6153461 24.6001961,17.6153461 24.4950887,17.6153461 L24.3899834,18.5613023 C24.3899834,18.7715151 24.3899834,18.7715151 24.4950887,18.7715151 L24.7053014,18.8766226 C25.0206216,18.8766226 25.3359418,18.7715151 25.5461546,18.1408769 L25.6512598,18.1408769 L25.4410471,18.98173 L23.444025,18.7715151 C23.6542377,18.7715151 23.7593452,18.6664098 23.8644504,18.4561971 L24.0746632,16.4591749 L24.0746632,16.4591749 Z" id="Shape"/><path d="M27.5432272,17.7204909 C27.5432272,18.6664493 27.2279069,18.9817695 26.9125889,18.9817695 C26.8074815,18.876662 26.8074815,18.876662 26.7023762,18.876662 L26.5972687,18.7715546 L26.7023762,16.5643285 C26.7023762,16.4592232 26.7023762,16.4592232 26.8074815,16.4592232 L27.0176942,16.4592232 C27.2279069,16.4592232 27.5432272,16.7745412 27.5432272,17.7204996 L27.9636526,17.7204996 C27.9636526,16.6694359 27.4381197,16.3541157 26.9125889,16.3541157 C26.4921634,16.2490104 25.861523,16.2490104 25.861523,16.2490104 L25.861523,16.3541157 C25.9666305,16.3541157 26.1768432,16.4592232 26.1768432,16.6694359 L26.0717358,18.6664581 C26.0717358,18.8766708 25.9666305,18.9817783 25.861523,18.9817783 L25.861523,19.0868836 L26.8074815,19.0868836 C27.3330144,19.0868836 27.8585452,18.8766708 27.9636526,17.7204996 L27.5432272,17.7204996 L27.5432272,17.7204909 Z" id="Shape"/><path d="M30.5913525,18.5613681 C30.5913525,18.7715809 30.6964599,18.7715809 30.9066727,18.7715809 L30.9066727,18.8766884 L29.7505015,18.9817958 C29.855609,18.8766884 30.0658217,18.7715809 30.0658217,18.5613681 L29.855609,16.564346 C29.7505015,16.3541333 29.6453962,16.3541333 29.4351835,16.3541333 L29.4351835,16.249028 L30.5913525,16.1439205 C30.4862472,16.249028 30.2760345,16.3541333 30.3811397,16.564346 L30.5913525,18.5613681 L30.5913525,18.5613681 Z" id="Shape"/><path d="M31.6423394,18.7714778 L31.6423394,18.6663725 C31.7474447,18.6663725 31.8525522,18.5612651 31.8525522,18.3510523 L31.4321267,16.1438262 L31.3270192,16.1438262 C31.1168065,16.2489337 30.9065937,16.4591464 31.0117012,16.8795719 L30.9065937,16.8795719 L30.8014863,16.1438262 L32.6934031,15.828506 L32.7985106,16.5642517 L32.6934031,16.5642517 C32.6934031,16.1438262 32.3780829,16.0387209 32.0627649,16.0387209 L31.9576574,16.0387209 L32.3780829,18.245947 C32.3780829,18.4561598 32.4831904,18.5612651 32.6934031,18.5612651 L32.6934031,18.6663725 L31.6423394,18.7714778 L31.6423394,18.7714778 Z" id="Shape"/><path d="M36.1618903,16.6692846 L35.7414649,15.408006 C35.7414649,15.1977932 35.5312521,15.1977932 35.4261446,15.1977932 L35.4261446,15.0926879 L35.9516776,14.8824752 L35.9516776,14.9875805 C35.8465701,15.0926879 35.8465701,15.0926879 35.8465701,15.3029007 L36.2669956,16.6692846 C36.3721031,17.0897101 36.3721031,17.7203483 35.7414649,17.930561 C35.3210372,18.0356685 34.7955064,17.8254558 34.690399,17.1948154 L34.2699735,15.8284314 C34.1648682,15.6182187 34.0597607,15.6182187 33.9546555,15.6182187 L33.849548,15.5131134 L34.9006117,15.1977932 L34.9006117,15.3029007 C34.7955064,15.408006 34.690399,15.5131134 34.7955064,15.7233262 L35.1108244,17.0897101 C35.2159319,17.5101356 35.5312521,17.7203483 35.8465701,17.7203483 C36.1618903,17.615243 36.2669956,17.1948154 36.1618903,16.6692846 L36.1618903,16.6692846 Z" id="Shape"/><path d="M37.3181514,15.9336815 C37.8436822,15.7234687 37.7385769,15.4081485 37.6334695,15.0928305 C37.5283642,14.7775103 37.3181514,14.5672975 37.1079387,14.672405 C37.0028312,14.672405 36.8977238,14.7775103 37.0028312,14.8826178 L37.3181514,15.9336815 L37.4232567,16.0387889 L37.6334695,16.8796399 C37.7385769,17.0898526 37.9487897,17.0898526 38.0538949,16.9847452 L38.0538949,17.0898526 L37.1079387,17.5102781 L37.0028312,17.4051707 C37.213044,17.3000654 37.213044,17.1949579 37.213044,16.9847452 L36.4772983,15.1979358 C36.372193,14.8826178 36.2670855,14.987723 36.0568728,14.987723 L36.0568728,14.8826178 L37.1079387,14.4621923 C37.5283642,14.3570848 37.9487897,14.4621923 38.1590024,14.8826178 C38.2641077,15.4081485 38.0538949,15.7234687 37.6334695,15.9336815 C37.5283642,15.9336815 37.4232567,16.0387889 37.4232567,16.0387889 L37.3181514,15.9336815 L37.3181514,15.9336815 Z" id="Shape"/><path d="M39.9458381,16.248846 C39.6305179,16.3539512 39.2100924,15.9335257 38.8947744,15.1977801 C38.5794542,14.5671418 38.5794542,13.9365036 38.8947744,13.8313961 C39.2100924,13.7262909 39.6305179,14.1467163 39.9458381,14.7773546 C40.2611583,15.4079928 40.2611583,16.0386332 39.9458381,16.248846 C40.5764763,16.0386332 40.7866891,15.3028875 40.4713711,14.5671418 C40.1560509,13.9365036 39.5254126,13.5160781 38.8947744,13.7262909 C38.264134,14.0416089 38.0539213,14.7773546 38.3692415,15.4079928 C38.6845617,16.1437385 39.3151999,16.564164 39.9458381,16.248846 L39.9458381,16.248846 Z" id="Shape"/><path d="M40.050893,13.3059948 L39.9457855,13.3059948 L39.840678,13.3059948 L40.4713184,12.8855671 L42.3632331,13.936633 L41.7325949,12.7804618 C41.6274896,12.5702491 41.4172747,12.5702491 41.3121694,12.5702491 L41.3121694,12.4651416 L41.8377023,12.2549289 C41.7325949,12.3600363 41.6274896,12.4651416 41.8377023,12.6753544 L42.8887661,14.777484 L42.7836586,14.8825914 L40.4713119,13.6213128 L41.3121628,15.1979095 C41.4172681,15.4081222 41.627483,15.4081222 41.7325883,15.3030169 L41.7325883,15.4081222 L41.2070554,15.7234424 L41.2070554,15.6183349 C41.3121628,15.5132297 41.3121628,15.4081222 41.2070554,15.1979095 L40.3662044,13.5162075 L40.0508864,13.3059948 L40.050893,13.3059948 Z" id="Shape"/><path d="M44.7805535,13.6213786 L44.7805535,13.5162733 C44.7805535,13.4111658 44.8856588,13.3060606 44.7805535,13.0958478 L43.5192749,11.3090362 L43.4141696,11.3090362 C43.2039569,11.4141437 43.0988494,11.8345692 43.4141696,12.1498894 L43.3090621,12.2549947 L42.8886367,11.5192512 L44.4652333,10.4681853 L44.8856588,11.0988235 C44.5703408,10.7835055 44.2550206,10.7835055 44.0448078,10.8886108 L43.9397004,10.9937182 L45.200979,12.7805276 C45.3060843,12.9907404 45.516297,12.9907404 45.6214045,12.8856329 L45.6214045,12.9907404 L44.7805535,13.6213786 L44.7805535,13.6213786 Z" id="Shape"/><path d="M45.9368146,11.0987467 L46.5674528,11.8344924 C46.6725581,11.9395999 46.8827709,11.9395999 46.9878783,11.8344924 L46.9878783,11.9395999 L46.1470274,12.6753434 L46.1470274,12.5702381 C46.2521326,12.4651307 46.2521326,12.3600254 46.1470274,12.1498126 L44.8857487,10.573216 C44.7806434,10.3630032 44.675536,10.4681085 44.4653232,10.4681085 L45.3061742,9.73236282 L45.3061742,9.83747029 C45.3061742,9.94257556 45.2010689,10.047683 45.3061742,10.2578958 L45.8317072,10.888534 L46.4623454,10.4681085 L45.9368146,9.73236282 C45.8317072,9.52215008 45.6214944,9.62725755 45.5163869,9.62725755 L46.3572401,8.89151185 L46.3572401,8.99661932 C46.2521326,9.1017246 46.2521326,9.20683206 46.3572401,9.4170448 L47.6185166,10.9936415 C47.723624,11.0987467 47.8287293,11.0987467 47.9338368,10.9936415 L48.038942,11.0987467 L47.1980911,11.8344924 L47.0929836,11.7293872 C47.1980911,11.6242797 47.3031963,11.5191744 47.1980911,11.3089595 L46.5674528,10.573216 L45.9368146,11.0987467 L45.9368146,11.0987467 Z" id="Shape"/><path d="M46.8827467,8.89149869 C46.7776415,8.78639342 46.5674287,8.78639342 46.4623213,8.89149869 L46.4623213,8.78639342 L47.8287052,7.52511478 L48.4593434,8.155753 L48.3542381,8.155753 C48.0389179,7.73532752 47.6184924,7.94554026 47.4082797,8.05064773 C47.4082797,8.155753 47.3031722,8.155753 47.1980669,8.26086047 C47.1980669,8.26086047 47.1980669,8.36596574 47.3031722,8.57618068 C47.4082797,8.68128595 47.9338126,9.2068189 47.9338126,9.2068189 C48.0389179,9.10171144 48.3542381,8.89149869 47.9338126,8.36596574 L48.0389179,8.36596574 L48.8797689,9.31192418 L48.8797689,9.41703164 C48.3542381,8.89149869 48.1440254,9.2068189 48.0389179,9.31192418 L48.6695561,9.9425624 C48.7746636,10.1527773 48.8797689,10.1527773 48.8797689,10.1527773 C48.9848763,10.0476699 49.0899838,9.9425624 49.1950891,9.83745713 C49.3001966,9.73234966 49.4052974,9.41703164 49.1950891,8.78639342 L49.3001966,8.78639342 L49.7206155,9.52213692 L48.3542381,10.8885208 L48.2491307,10.7834156 C48.3542381,10.6783081 48.4593434,10.5732028 48.2491307,10.3629901 L46.8827467,8.89149869 L46.8827467,8.89149869 Z" id="Shape"/><path d="M49.404282,5.9484282 C49.2991811,6.05353567 49.2991811,6.26374841 49.5094026,6.36885368 C49.7196,6.57906642 49.9298193,6.57906642 50.350236,6.36885368 C50.5604554,6.26374841 50.980894,6.15864094 51.296212,6.47396115 C51.8217274,6.9994941 51.61153,7.41991958 51.5064094,7.63013232 C51.4013107,7.7352376 51.1910914,7.84034507 51.0859927,7.94545034 C50.980894,7.94545034 50.980894,7.94545034 50.980894,8.05055781 L50.980894,8.15566308 L50.2451373,7.52502486 L50.350236,7.52502486 C50.7706747,7.7352376 51.1910914,7.84034507 51.4013107,7.52502486 C51.61153,7.31481211 51.4013107,7.10459937 51.296212,6.9994941 C51.0859927,6.78927916 50.8757734,6.78927916 50.5604554,6.9994941 C50.2451373,7.10459937 49.8247206,7.10459937 49.5094026,6.89438663 C49.0889684,6.47396115 49.0889684,6.15864094 49.2991811,5.84332292 C49.404282,5.73821546 49.6145013,5.63311018 49.7196,5.52800272 C49.8247206,5.52800272 49.8247206,5.52800272 49.7196,5.31778997 L50.4553567,5.84332292 L50.350236,5.84332292 C49.8247206,5.63311018 49.5094026,5.73821546 49.404282,5.9484282 L49.404282,5.9484282 Z" id="Shape"/><path d="M50.3517493,5.10755091 C50.141552,5.00244345 50.0364313,5.10755091 49.9313326,5.21265619 L49.8262339,5.21265619 L50.9824073,3.53095426 L51.718142,4.05648721 L51.6130433,4.16159248 C51.1926047,3.84627227 50.772188,4.05648721 50.6670674,4.16159248 C50.6670674,4.26669995 50.5619687,4.37180522 50.5619687,4.47691269 C50.45687,4.47691269 50.45687,4.58201796 50.6670674,4.68712543 C50.772188,4.7922307 51.402824,5.21265619 51.402824,5.21265619 C51.5079227,5.10755091 51.718142,4.89733817 51.2977253,4.47691269 L51.2977253,4.37180522 L52.3487781,5.21265619 C51.718142,4.89733817 51.6130433,5.21265619 51.5079227,5.31776366 L52.2436794,5.84329661 C52.4538768,5.94840188 52.5589974,5.94840188 52.5589974,5.94840188 C52.5589974,5.84329661 52.6640961,5.73818914 52.7692167,5.63308386 C52.8743154,5.42286893 52.9794141,5.10755091 52.5589974,4.68712543 L52.6640961,4.58201796 L53.1896334,5.21265619 L52.1385587,6.78925285 L52.0334601,6.78925285 C52.1385587,6.5790401 52.1385587,6.47393483 51.9283614,6.26372209 L50.3517493,5.10755091 L50.3517493,5.10755091 Z" id="Shape"/><path d="M53.189765,3.21568668 L52.874447,3.74121963 C52.4540084,3.32079415 52.243811,3.00547394 52.243811,3.00547394 L53.189765,3.21568668 L53.3999843,3.21568668 C53.505083,3.21568668 53.7153023,3.32079415 53.820401,3.32079415 C54.1357191,3.42589943 54.0306204,3.53100689 53.9254997,3.74121963 L54.0306204,3.74121963 L54.5561577,2.7952612 C54.3459384,3.00547394 54.2408178,2.90036867 54.0306204,2.90036867 C51.8233723,2.47994319 51.6131749,2.37483572 51.6131749,2.37483572 L51.6131749,2.47994319 L53.2948637,4.37185786 C53.3999843,4.47696533 53.3999843,4.68717807 53.3999843,4.79228334 L53.505083,4.79228334 L53.820401,4.26675258 L53.7153023,4.16164512 C53.6101817,4.37185786 53.505083,4.47696533 53.2948637,4.16164512 C53.189765,4.05653984 53.0846663,3.95143238 53.0846663,3.95143238 L53.3999843,3.21568668 L53.189765,3.21568668 L53.189765,3.21568668 Z" id="Shape"/><path d="M52.5581201,0.903383812 C52.4529995,1.00849128 52.4529995,1.21870402 52.7683394,1.32381149 C53.0836574,1.42891676 53.1887561,1.32381149 53.5040742,1.11359875 C53.8193922,0.903383812 54.1347102,0.69317107 54.5551488,0.903383812 C55.1857849,1.21870402 55.0806642,1.74423697 54.9755655,1.95444971 C54.8704668,2.05955499 54.7653462,2.26976773 54.6602475,2.3748752 L54.6602475,2.47998266 L54.6602475,2.58508794 L53.8193922,2.16466245 C54.3449295,2.26976773 54.7653462,2.16466245 54.8704668,1.84934225 C54.9755655,1.6391295 54.7653462,1.42891676 54.6602475,1.32381149 C54.4500282,1.21870402 54.2398089,1.32381149 53.9244909,1.53402423 C53.6091728,1.84934225 53.2938548,1.95444971 52.8734381,1.74423697 C52.4529995,1.53402423 52.2428021,1.21870402 52.4529995,0.903383812 C52.4529995,0.69317107 52.6632188,0.588065796 52.7683394,0.482958329 C52.7683394,0.377853055 52.7683394,0.377853055 52.6632188,0.272745587 L52.6632188,0.167640313 L53.5040742,0.588065796 L53.3989755,0.588065796 C52.8734381,0.482958329 52.5581201,0.69317107 52.5581201,0.903383812 L52.5581201,0.903383812 Z" id="Shape"/></g></g><g id="crest" transform="translate(17.984334, 0.000000)"><g id="rope" stroke="#000000" stroke-width="0.1" transform="translate(4.167102, 21.493473)"><path d="M4.21162402,5.80543081 C2.8452401,6.12075102 1.89927728,6.22585629 0.638005222,5.06968512 C-0.202845744,4.22883415 0.00736699739,2.75733838 0.848217963,2.23180104 C1.7941764,1.60116282 2.63502736,1.18073734 3.79120073,1.49605535 C4.94737191,1.81137556 7.99545556,4.64925744 7.25972084,4.75435614 C6.52397514,4.75435614 5.36780397,5.49009963 4.21163937,5.80541984 L4.21162402,5.80543081 Z" fill="#FFFFFF" id="Shape"/><path d="M7.47007833,0.760167102 C7.89050381,0.444849086 8.41603676,0.234636345 9.78242507,0.129528877 C11.0437015,0.0244236031 11.9896512,0.0244236031 12.3049692,0.970379843 C12.7253947,2.12655102 13.0407149,3.49292397 13.8815658,4.12358193 C13.3560351,4.43889995 10.7283638,4.75422016 9.78240971,4.22868721 C8.52113107,3.59804898 8.20581086,1.18060574 7.47006298,0.760167102 L7.47007833,0.760167102 Z" fill="#FFFFFF" id="Shape"/><path d="M16.5091802,0.865441253 C16.9296056,0.550121044 17.4551386,0.550121044 18.8215269,0.655228512 C20.1879086,0.760333786 20.7134416,0.865441253 21.028753,1.81139969 C21.344071,2.86246339 21.028753,4.22884512 21.6593912,5.17479916 C21.028753,5.38501191 18.9266278,5.38501191 18.1908711,4.64926621 C17.0346999,3.80841525 17.1398074,1.39096543 16.5091692,0.865428094 L16.5091802,0.865441253 Z" fill="#FFFFFF" id="Shape"/><path d="M22.8155405,1.49598956 C21.869582,1.28577681 21.2389438,1.18067154 20.8185183,1.49598956 C21.3440491,2.12662778 20.9236236,4.64919164 21.9746895,5.49002507 C22.710433,6.01555802 24.6023543,6.12066548 25.022771,4.96449431 C25.5483039,3.91342841 25.5483039,2.33682956 22.8155449,1.4959742 L22.8155405,1.49598956 Z" fill="#073163" id="Shape"/><path d="M11.9896292,0.445002611 C12.3049473,0.129682402 12.9355877,0.0245771279 14.1968554,0.0245771279 C15.5632393,0.0245771279 16.4040815,0.234789869 16.8245201,1.07564084 C17.2449456,2.12670454 17.1398403,3.49308627 17.875586,4.33394162 C17.5602658,4.7543671 14.7223839,4.7543671 13.8815286,4.12372888 C12.7253574,3.38798319 12.6202521,0.970526789 11.9896139,0.445011384 L11.9896292,0.445002611 Z" fill="#073163" id="Shape"/><path d="M3.05558225,1.39093473 C3.05558225,0.865401775 3.79132794,0.760294308 5.683247,0.655189034 C7.57516167,0.444976292 7.68026914,0.550081567 8.31091175,1.91646548 C8.62623196,2.65221117 9.04665744,3.91348762 9.88750841,4.33391091 C7.57516167,4.85944167 6.83942695,5.17476188 5.57815488,4.43901619 C4.63219645,3.91348324 3.58113274,2.65220679 3.37092877,2.12666945 C3.26582131,1.81135144 3.26582131,1.49603123 3.05560856,1.39092595 L3.05558225,1.39093473 Z" fill="#073163" id="Shape"/></g><g id="pineapple" stroke="#000000" stroke-width="0.1" transform="translate(4.825065, 0.000000)"><path d="M7.44266319,12.1635509 C5.23543708,10.4818468 2.60777232,8.90525013 0.190326893,8.58993211 C1.76692355,9.53589055 6.18139112,13.0044063 7.33756449,14.1605796" fill="#FEE94E" id="Shape"/><path d="M8.70397911,10.5868512 C6.07631436,8.80004178 3.0282329,6.80301305 0.0852501305,6.59281567 C2.29249817,7.74898684 5.55077702,10.4817525 7.33758642,12.6889786" fill="#FEE94E" id="Shape"/><path d="M12.0672689,7.644 C13.5387603,4.38569922 15.1153504,2.59888982 17.2174778,0.601861097 C16.1664119,2.80908721 15.0102298,7.32868198 14.4847144,9.11549138" fill="#FEE94E" id="Shape"/><path d="M14.3797911,7.11850653 C15.430857,4.80615979 17.0074559,2.809153 19.7402193,1.54785901 C18.3738354,2.91424292 16.2716992,7.0133859 15.7461619,9.22063394" fill="#FEE94E" id="Shape"/><path d="M15.3257232,9.22048042 C16.5869997,7.43367102 19.1095614,4.07027154 23.6291342,2.28346214 C21.0014695,4.91112689 17.1125326,9.74601775 16.1665786,11.6379258" fill="#FEE94E" id="Shape"/><path d="M16.7971488,11.5327833 C18.6890635,10.4817174 22.472895,8.80001984 25.2056585,9.32555718 C23.5239566,9.9561954 18.4788376,12.2685399 16.2716115,14.3706674" fill="#FEE94E" id="Shape"/><path d="M16.3767102,10.7971802 C18.1635218,8.90526329 21.4218204,6.06738799 24.8903405,4.91121462 C22.3677963,7.32866005 17.0073681,12.7941869 16.2716115,13.6350423" fill="#FEE94E" id="Shape"/><path d="M11.3316658,9.64091906 C10.0703872,5.75198225 8.17846371,2.07326475 5.34060157,0.917091384 C6.91719822,3.22943812 8.91422037,6.5928376 9.96529504,11.6379478" fill="#FEE94E" id="Shape"/><path d="M8.91408877,9.53586423 C6.81196136,7.0133201 3.97407728,4.49075405 0.715776501,3.96521671 C2.92300261,5.22649535 6.60174204,8.9052282 7.96811279,12.478847" fill="#FEE94E" id="Shape"/><path d="M10.0703499,9.4308094 C7.44268512,4.70101723 5.4456564,3.86016188 4.28950496,2.91420783 C5.23546339,4.70101723 7.54780574,9.4308094 8.91419843,11.4278381" fill="#FEE94E" id="Shape"/><path d="M4.8149765,9.11542559 C6.07625295,9.85116909 7.96817859,11.6379697 8.59881462,12.7941431" id="Shape"/><path d="M4.8149765,11.3226736 C5.44561473,11.8482044 6.6017859,12.4788448 7.65286057,13.424801" fill="#F9D050" id="Shape"/><path d="M17.3226423,12.899154 C18.3737082,12.0583031 20.6860418,10.6919279 21.8422151,10.2714893" fill="#F9D050" id="Shape"/><path d="M16.5870392,12.1635509 C17.6381051,10.797167 19.7402413,8.90525013 20.475976,8.2746141" fill="#F9D050" id="Shape"/><path d="M19.5298903,5.64686162 C18.5839341,6.69792533 16.3766883,9.32557911 15.5358548,10.5868731" fill="#F9D050" id="Shape"/><path d="M16.7971488,4.7009295 C16.0614031,5.64688794 14.5899008,8.379647 14.1694841,9.32562298" fill="#F9D050" id="Shape"/><path d="M8.49365013,4.91125849 C9.12429055,6.59296261 10.2804595,9.43083133 10.7008982,10.5870047" fill="#F9D050" id="Shape"/><path d="M7.54771802,6.69806789 C7.96814569,7.32870611 8.80899666,8.80019749 9.12431687,9.85126997" fill="#F9D050" id="Shape"/><path d="M11.1213368,6.17235509 C11.1213368,5.22639666 11.751975,4.17533076 12.3826133,4.17533076 C13.118359,4.17533076 13.6438919,5.4366094 13.6438919,6.17235509 C13.6438919,7.01320606 13.0132515,7.74895175 12.3826133,7.74895175 C11.751975,7.74895175 11.1213368,7.11831133 11.1213368,6.17235509 L11.1213368,6.17235509 Z" fill="#FEE94E" id="Shape"/><path d="M9.75496606,7.01323238 C9.86007133,5.96216648 10.595817,5.12131551 11.2264552,5.22642298 C11.8570935,5.33152825 12.1724137,6.59280689 12.0673062,7.32855039 C11.9622009,8.16940355 11.2264552,8.80004178 10.7009245,8.69493431 C10.1753915,8.69493431 9.64985859,7.95919081 9.75496606,7.01323238 L9.75496606,7.01323238 Z" fill="#FEE94E" id="Shape"/><path d="M12.5929817,7.32861619 C12.382769,6.38265995 12.8031945,5.33159405 13.4338327,5.22648877 C14.0644731,5.12138131 14.6951113,6.17244721 14.8002166,7.01329817 C15.0104293,7.85414914 14.4848986,8.6950001 13.9593656,8.6950001 C13.4338327,8.80010757 12.6980892,8.27457462 12.5929817,7.32861619 L12.5929817,7.32861619 Z" fill="#FEE94E" id="Shape"/><path d="M11.016282,8.16949347 C11.016282,7.11842757 11.6469202,6.17247133 12.2775606,6.17247133 C13.0133041,6.17247133 13.5388371,7.32864031 13.5388371,8.16949347 C13.5388371,9.01034444 12.9081989,9.74609013 12.2775606,9.74609013 C11.6469202,9.74609013 11.016282,9.11545191 11.016282,8.16949347 L11.016282,8.16949347 Z" fill="#FEE94E" id="Shape"/><path d="M9.12441775,8.69498695 C9.12441775,7.7490307 9.86016125,6.6979648 10.4907995,6.6979648 C11.1214399,6.6979648 11.7520781,7.95924345 11.7520781,8.69498695 C11.7520781,9.5358401 11.0163324,10.2715836 10.4907995,10.2715836 C9.86016125,10.2715836 9.12441775,9.64094538 9.12441775,8.69498695 L9.12441775,8.69498695 Z" fill="#FEE94E" id="Shape"/><path d="M13.0134204,8.2745483 C13.0134204,7.32858987 13.6440608,6.27752616 14.274699,6.27752616 C15.0104425,6.27752616 15.5359755,7.5388048 15.5359755,8.2745483 C15.5359755,9.11540146 14.9053372,9.85114496 14.274699,9.85114496 C13.6440608,9.85114496 13.0134204,9.22050674 13.0134204,8.2745483 L13.0134204,8.2745483 Z" fill="#FEE94E" id="Shape"/><path d="M12.5929817,9.11542559 C12.5929817,8.06435969 13.3287274,7.11840125 13.9593656,7.11840125 C14.5900039,7.11840125 15.2206443,8.27457243 15.2206443,9.11542559 C15.2206443,9.95627655 14.5900039,10.6920222 13.9593656,10.6920222 C13.3287274,10.6920222 12.5929817,10.0613818 12.5929817,9.11542559 L12.5929817,9.11542559 Z" fill="#FEE94E" id="Shape"/><path d="M10.9112272,10.0613577 C10.9112272,9.01029399 11.5418654,8.06433556 12.1725036,8.06433556 C12.9082493,8.06433556 13.4337801,9.3256142 13.4337801,10.0613577 C13.4337801,10.9022109 12.8031418,11.6379544 12.1725036,11.6379544 C11.5418654,11.6379544 10.9112272,11.0073161 10.9112272,10.0613577 L10.9112272,10.0613577 Z" fill="#FEE94E" id="Shape"/><path d="M8.28354047,10.0613577 C8.28354047,9.01029399 8.80907342,8.06433556 9.33460637,8.06433556 C9.86013713,8.06433556 10.2805626,9.3256142 10.2805626,10.0613577 C10.2805626,10.9022109 9.75503185,11.6379544 9.33460637,11.6379544 C8.80907342,11.6379544 8.28354047,11.0073161 8.28354047,10.0613577 L8.28354047,10.0613577 Z" fill="#FEE94E" id="Shape"/><path d="M14.1694621,9.85124804 C14.1694621,8.90528961 14.6949951,7.95933337 15.220528,7.95933337 C15.7460588,7.95933337 16.2715917,9.11550454 16.2715917,9.85124804 C16.2715917,10.7972065 15.6409535,11.4278447 15.220528,11.4278447 C14.6949951,11.4278447 14.1694621,10.7972065 14.1694621,9.85124804 L14.1694621,9.85124804 Z" fill="#FEE94E" id="Shape"/><path d="M14.8002298,11.6380574 C15.0104425,10.5869937 15.6410829,9.74614277 16.0615084,9.85124804 C16.4819339,9.95635551 16.5870392,11.217632 16.3768264,11.9533777 C16.2717211,12.8993361 15.6410829,13.4248668 15.2206574,13.3197616 C14.8002298,13.2146541 14.590017,12.4789106 14.8002298,11.6380574 L14.8002298,11.6380574 Z" fill="#FEE94E" id="Shape"/><path d="M12.8030914,11.3226736 C12.9081989,10.3767152 13.5388371,9.43075676 14.06437,9.53586423 C14.6950083,9.53586423 15.0103263,10.7971407 14.905221,11.5328864 C14.8001135,12.4788448 14.2745828,13.109483 13.7490498,13.0043756 C13.2235169,13.0043756 12.6979861,12.2686321 12.8030914,11.3226736 L12.8030914,11.3226736 Z" fill="#FEE94E" id="Shape"/><path d="M9.86024021,11.6380574 C9.54492219,10.5869937 8.91428178,9.85124804 8.49385629,9.95635551 C8.07343081,10.0614608 7.96832554,11.3227394 8.17853828,12.0584851 C8.38875102,12.8993361 9.01938924,13.4248668 9.43981473,13.3197616 C9.75513493,13.2146541 10.070453,12.4789106 9.86024021,11.6380574 L9.86024021,11.6380574 Z" fill="#FEE94E" id="Shape"/><path d="M9.12441775,11.4277285 C9.12441775,10.48177 9.64994851,9.53581379 10.1754815,9.53581379 C10.8061197,9.53581379 11.2265452,10.691985 11.2265452,11.4277285 C11.2265452,12.3736869 10.7010144,13.0043251 10.1754815,13.0043251 C9.75505598,13.0043251 9.12441775,12.3736869 9.12441775,11.4277285 L9.12441775,11.4277285 Z" fill="#FEE94E" id="Shape"/><path d="M10.7008982,11.8481671 C10.7008982,10.7971034 11.3315364,9.85114496 11.9621746,9.85114496 C12.6979203,9.85114496 13.2234511,11.0073161 13.2234511,11.8481671 C13.2234511,12.6890203 12.5928128,13.4247638 11.9621746,13.4247638 C11.3315364,13.4247638 10.7008982,12.7941255 10.7008982,11.8481671 L10.7008982,11.8481671 Z" fill="#FEE94E" id="Shape"/><path d="M11.226611,0.28643342 C11.0163982,1.12728439 10.2806525,1.86303008 10.8061855,3.01919687 C9.86022705,2.70387666 9.01937608,2.59876919 8.28364136,3.43962235 C9.22959979,3.33451488 10.0704508,3.64983509 10.4908675,4.28047332 C9.6500165,4.17536585 9.22959102,4.59579352 9.01937828,5.12132428 C9.75512397,4.91111154 10.4908675,4.7008988 10.8061877,4.80600627 C10.4908675,5.12132428 9.96533671,5.64685723 9.86022924,6.06728272 C10.4908675,5.54174977 11.2266132,5.64685723 11.6470386,5.33153702 C11.3317206,6.06728272 11.9623589,6.80302841 12.4878918,7.53878507 C12.3827843,6.48771916 13.0134226,5.75197347 12.6981045,5.22643833 C13.644063,5.43665107 13.7491683,6.27750204 15.11555,6.27750204 C14.590017,5.96218183 14.274699,4.91111812 13.6440608,4.91111812 C13.9593788,4.80601285 15.2206574,4.70090538 15.4308702,4.91111812 C15.2206574,4.49069264 14.4849117,4.07026715 14.0644863,4.07026715 C14.4849117,3.64984167 15.2206574,2.80898851 15.7461882,2.59877577 C15.0104425,2.70388324 13.8542735,2.80898851 13.4338415,3.43962893 C14.4849074,2.59877577 14.2746946,1.0221835 15.4308658,0.811964178 C14.8002254,0.706858903 13.8542691,1.12728439 13.1185191,1.86303008 C13.4338371,1.23238966 13.4338371,0.391538695 13.8542648,0.181325953 C13.0134116,0.391538695 12.0674532,1.4426024 11.7521351,1.96813535 C11.7521351,1.4426024 11.4368149,0.601751436 11.2266022,0.28643342 L11.226611,0.28643342 Z" fill="#FEE94E" id="Shape"/><path d="M11.7521044,1.96818799 C11.7521044,2.2835082 11.7521044,2.91414642 11.646997,3.12435916" fill="#F9D050" id="Shape"/><path d="M13.1184752,1.86313316 C12.9082625,2.0733459 12.487837,2.8090894 12.487837,3.43972982" fill="#F9D050" id="Shape"/><path d="M13.7490235,3.12444909 C13.4337033,3.33466183 13.1183853,3.64998204 13.0132778,4.07040752" id="Shape"/></g><g id="turtle" transform="translate(0.000000, 11.185379)"><path d="M7.43279373,2.34454308 C6.69705023,2.34454308 6.06640982,2.02922287 5.64598433,1.50369211 C4.91023864,0.557733681 2.91322089,0.137308198 2.07236554,0.978159164 C1.75704533,1.18837191 1.33661984,1.18837191 1.02130183,1.29347937 C0.495768877,1.29347937 -0.134869347,1.81901013 0.0753433943,2.87007603 C0.495768877,2.55475582 0.600876345,2.87007603 0.91619436,2.87007603 C1.1264071,2.76496856 1.02130183,2.97518131 1.02130183,3.18539405 C1.02130183,3.710927 2.177473,4.7619907 3.22852794,4.65688543 C4.38469911,4.65688543 4.91022987,5.07731091 5.1204448,5.28752366 C5.43576282,5.60284386 5.22555008,5.4977364 5.43576282,6.02326935 C5.75108303,6.33858736 5.8561883,6.44369483 5.33065755,6.86412031 C4.59491185,7.49475854 4.0693789,8.96624992 5.33065755,10.1224211 C6.69704146,11.1734848 10.1655484,12.7500858 14.0544852,9.70199342 C17.8383233,6.75901065 23.7242669,8.44071697 24.1447056,9.49178068 C24.6702385,10.5428466 24.8804513,11.1734848 24.9855587,11.6990287 C25.090664,12.1194542 25.616197,12.5398797 26.3519427,12.4347722 C27.0876862,12.4347722 27.9285393,12.7500924 28.3489648,13.0654126 C28.8744956,13.3807307 29.6102413,13.2756254 29.4000285,12.3296669 C28.979603,9.38668418 27.1928024,8.96626747 26.9825831,7.59987478 C28.0336468,7.70498005 28.7693925,7.70498005 29.1898092,7.28455457 C29.5051294,6.86412909 29.9255549,6.12838339 30.3459804,5.91817065 C30.6613006,5.70795791 30.6613006,5.49774517 30.2408729,5.60285264 C29.7153421,5.70795791 29.4000219,5.91817065 28.4540635,5.81306538 C23.6191726,5.28753243 10.0604322,1.60881055 7.43276742,2.34454527 L7.43279373,2.34454308 Z" fill="#4EAB53" id="Shape" stroke="#000000" stroke-width="0.1"/><path d="M28.8745065,5.91816188 C28.3489758,6.23348209 27.8234428,6.75901285 26.8774844,8.02029149 C25.8264207,9.3866754 22.6732296,10.7530549 18.7842927,10.7530549 C15.0004546,10.7530549 12.6881298,10.1224167 11.0064191,8.75603279 C10.0604607,8.0202871 9.32471499,7.59986162 8.69407238,7.28454141 C7.5379012,6.75900846 7.32768846,5.60283948 7.64300648,4.65687666 C7.32768846,5.18240742 7.11747572,5.70794037 6.48683749,5.60283509 C6.06640982,5.60283509 5.22555885,5.60283509 5.43577159,6.02326057 C5.33066632,5.81304783 5.33066632,5.49772762 5.22555885,5.39262235 C5.12045358,5.28751488 5.01534611,5.18240742 5.01534611,5.18240742 C5.33066632,5.39262235 6.06640982,4.76198193 6.59194277,4.76198193 C7.01236825,4.8670894 7.5379012,4.34155645 7.43279373,3.71091822 C7.32768846,3.18538527 7.22258099,2.76495979 7.11747572,2.34453431 C7.95832668,1.92410883 18.9945055,3.92113097 21.2017316,4.13134371 C23.4089796,4.23645117 29.7153619,5.18240742 28.8745065,5.91815311 L28.8745065,5.91816188 Z" fill="#000000" id="Shape" stroke="#000000" stroke-width="0.1"/><path d="M8.90443864,1.92410444 C9.95550235,0.873040731 11.2167854,0.347507781 12.4780574,0.662825796 L12.7933777,0.662825796 C13.4240159,0.137295039 14.8955051,0.0321875718 15.7363604,0.452613055 L16.1567859,0.452613055 C17.4180623,0.0321875718 19.8355034,0.452613055 20.6763587,1.29346621 L20.9916768,1.50367896 C23.8295608,1.29346621 25.5112496,2.55474266 27.5082783,4.55176042 C27.7184911,4.76197316 28.0338091,5.18239864 28.559342,5.28750611 C29.1899803,5.39261358 29.2950877,5.70793159 28.7695548,6.0232518 C28.1389166,6.33856982 27.6133836,6.86410277 26.5623287,8.02027394 C25.6163702,9.28155039 22.5682712,10.5428181 18.784455,10.5428181 C15.1057375,10.5428181 12.8984895,9.91217984 11.2168007,8.6509012 C10.2708423,7.91515551 9.53509661,7.49473003 9.00955269,7.17941201 C8.37891446,6.96919927 7.5380635,6.12834611 7.85338151,5.28749514 C8.06359645,4.44664418 7.5380635,3.39557828 7.11763802,2.34451238 C7.43295603,2.13429963 8.27380919,1.81897943 8.69423467,2.02919217 L8.90444742,1.92408689 L8.90443864,1.92410444 Z" fill="#4EAB53" id="Shape" stroke="#000000" stroke-width="0.1"/><g fill="#00493D" id="Group" stroke="#000000" stroke-width="0.1" transform="translate(8.553525, 0.000000)"><path d="M18.954611,4.55179112 C16.9575866,2.55476898 15.2758935,1.29349034 12.4380094,1.50370966 C12.4380094,1.60881493 12.4380094,1.92413514 12.3329041,2.13434789 C14.0146061,2.76498611 16.4320603,4.65689201 17.483113,6.0232847 C17.9035385,5.60285922 18.6392842,5.07732627 18.9546044,4.55179332 L18.954611,4.55179112 Z" id="Shape"/><path d="M12.1227572,1.29355614 C11.281904,0.452702977 8.8644564,0.0322774935 7.60318433,0.452702977 C7.60318433,0.873130653 7.60318433,1.50376888 7.39297159,1.92419436 C8.12871509,2.23951238 8.75935551,2.97525807 9.38999373,3.71100376 C9.81041922,3.60589629 10.8614829,3.29057828 11.3870159,3.18547081 C11.5972286,2.76504533 12.0176541,1.81908689 12.1227616,1.29355614 L12.1227572,1.29355614 Z" id="Shape"/><path d="M7.18276762,0.452678851 C6.34191446,0.0322533681 4.87042089,0.137360836 4.23978486,0.662891593 C4.02957211,1.08331927 3.92446465,1.92417023 3.92446465,2.34459572 C4.34489013,2.34459572 4.97552836,2.65991593 5.1857411,2.87012867 C5.81638151,2.65991593 6.65723248,2.23948825 6.97255269,1.92417023 C7.07765796,1.50374475 7.2878707,0.873106527 7.18276543,0.452678851 L7.18276762,0.452678851 Z" id="Shape"/><path d="M0.350913838,1.92410444 C1.40197755,0.873040731 2.66326057,0.347507781 3.92453264,0.662825796 C3.7143199,0.978146005 3.60921243,1.60878423 3.60921243,2.23942245 C2.45304345,2.13431718 0.981547676,2.44963739 0.350911645,2.87006287 L0.350911645,1.92410444 L0.350913838,1.92410444 Z" id="Shape"/><path d="M17.0627467,6.23354569 C16.1167883,4.86716178 13.804446,3.29056292 12.2278559,2.5548282 C12.2278559,2.65993567 12.0176431,3.08036115 11.9125379,3.39567916 C12.5431761,4.3416376 13.8044525,6.44376063 14.3299833,7.59993399 C14.8555162,7.38972125 16.3270054,6.75908084 17.0627467,6.23355008 L17.0627467,6.23354569 Z" id="Shape"/><path d="M9.07463185,8.54584856 C9.2848446,7.07435718 9.38995206,4.97222977 9.38995206,4.23649504 C9.91548501,4.13138757 10.9665487,3.81606956 11.3869742,3.71096209 C11.9125072,4.55181305 13.1737836,6.75904355 13.6993209,7.81011822 C12.4380423,8.12543624 10.3359215,8.65096919 9.07462747,8.54586392 L9.07463185,8.54584856 Z" id="Shape"/><path d="M5.39595822,3.50058486 C5.92148898,3.29037211 6.65723467,2.86994663 7.18276762,2.44952115 C7.60319311,2.76483916 8.44404407,3.50058486 8.75936428,3.92101034 C8.75936428,4.86696877 8.44404407,7.59972783 8.33893661,8.54570381 C7.49808564,8.54570381 6.1317105,8.33549107 5.39595384,7.91506339 C5.50105911,6.33846674 5.60616658,4.55166392 5.39595384,3.50058924 L5.39595822,3.50058486 Z" id="Shape"/><path d="M0.140584856,4.76190078 C0.245690131,4.55168804 0.350797598,3.81594454 0.350797598,3.50062433 C1.19164856,2.97509138 3.29378037,2.44956063 4.87037044,3.29041159 C4.97547572,4.3414753 4.87037044,6.96912909 4.76526298,7.59976512 C3.39887906,6.54869922 1.19164418,5.07722099 0.140569504,4.76188104 L0.140584856,4.76190078 Z" id="Shape"/></g><g id="Group" transform="translate(0.877285, 0.877285)"><path d="M2.5614517,1.99275196 C2.35123896,1.99275196 2.24613149,1.36211154 1.82570601,1.36211154 C1.72060073,1.36211154 1.40528052,1.46721901 1.30017525,1.36211154 C1.30017525,1.57232648 1.40528052,1.78253922 1.51038799,1.88764449 C1.61549326,2.2029647 2.14102621,1.99275196 2.5614517,1.99275196 L2.5614517,1.99275196 Z" fill="#000000" id="Shape"/><path d="M2.5614517,3.77956136 C3.82272815,3.77956136 4.03294089,2.2029647 4.66358131,2.09785723" id="Shape" stroke="#000000" stroke-width="0.1"/><path d="M3.29727415,3.88461619 C4.24323258,4.30504167 4.97897608,2.09780679 5.71471958,2.20291426" id="Shape" stroke="#000000" stroke-width="0.1"/><path d="M1.40540992,1.15187467 C1.72073013,1.15187467 1.93094287,0.731449191 2.45647363,1.25698214 C2.66668856,1.46719488 2.98200658,1.57230235 3.19221932,1.57230235" id="Shape" stroke="#000000" stroke-width="0.1"/><path d="M2.98189034,2.72857441 C2.56146486,3.35921483 1.82571916,3.77964031 1.40529368,3.56942757" id="Shape" stroke="#000000" stroke-width="0.1"/><path d="M1.19508094,0.100887728 C0.879760731,0.31110047 0.66954799,0.731525953 0.459335248,1.04684616" id="Shape" stroke="#000000" stroke-width="0.1"/><path d="M0,1.67736815 L0,2.2029011" id="Shape" stroke="#000000" stroke-width="0.1"/></g></g></g><g id="shield" transform="translate(14.475196, 27.195822)"><path d="M39.6361567,0.20813577 L39.6361567,20.7038945 C39.6361567,38.4668898 31.227647,44.562965 19.9812533,49.3978997 C8.73488146,44.5630089 0.221251175,38.466824 0.221251175,20.7038945 L0.221251175,0.20813577 L39.6361128,0.20813577 L39.6361567,0.20813577 Z" fill="#FFFFFF"/><path d="M19.9812533,17.5507363 C20.9272183,17.5507363 22.3986987,16.7098853 23.6599708,15.4486089 C25.0263503,13.9771197 27.3386883,13.4515867 29.7561775,15.4486089 C32.173623,17.4456332 33.6451144,16.6047801 34.9063864,15.4486089 C36.1676629,14.2924399 37.2187332,13.8720122 39.6361786,13.8720122 L39.6361786,0.208173055 L0.221316971,0.208173055 L0.221316971,13.8720122 C2.6387624,13.8720122 3.68983708,14.2924399 4.95110914,15.4486089 C6.21238559,16.6047801 7.68389452,17.4456332 10.1013399,15.4486089 C12.6238841,13.4515867 14.8311321,13.9771197 16.3026016,15.4486089 C17.4587727,16.7098853 18.9302444,17.5507363 19.9813191,17.5507363 L19.9812533,17.5507363 Z" fill="#F1453D" id="Shape"/><g fill="#0B50A0" id="Group" transform="translate(0.219321, 19.300261)"><path d="M19.7619321,8.76100261 C21.0232108,8.76100261 23.5457702,7.39461869 24.1764063,7.07930068 C26.488753,5.71291676 28.1704418,6.97419321 29.5368345,7.60483363 C31.0083258,8.23547185 33.7410893,8.97121535 35.4228,7.60483363 C37.1045041,6.23844971 38.0504648,6.34355499 39.2066381,6.34355499 C39.4168509,4.76695833 39.4168509,3.1903529 39.4168509,1.4035435 L39.4168509,0.14226705 C37.9453617,-0.173053159 37.2096248,0.247372324 35.6330127,1.61375624 C34.0564161,2.98014016 32.2696133,2.66481995 29.9572665,1.82396898 C27.7500404,0.878010548 25.5427924,-0.80369577 23.3355663,1.82396898 C22.7049258,2.55971467 21.2334367,3.61077838 19.7619475,3.61077838 C18.1853508,3.61077838 16.8189647,2.55971467 16.1883287,1.82396898 C13.8759819,-0.80369577 11.7738545,0.878010548 9.56662841,1.82396898 C7.25428167,2.66481995 5.36237358,2.98014016 3.7857835,1.61375624 C2.31429431,0.247372324 1.57855739,-0.173053159 0.00194537859,0.14226705 L0.00194537859,1.4035435 C0.00194537859,3.1903529 0.107050653,4.76694298 0.317263394,6.34355499 C1.47343457,6.34355499 2.31428773,6.23844971 3.99598089,7.60483363 C5.67768501,8.97121535 8.51555373,8.23547185 9.88194642,7.60483363 C11.3534378,6.97419321 13.0351485,5.71291676 15.3474733,7.07930068 C15.9781115,7.39461869 18.3955548,8.76100261 19.7619475,8.76100261 L19.7619321,8.76100261 Z" id="Shape"/><path d="M19.7619321,13.2805535 C21.3385288,13.2805535 23.2304522,12.6499153 24.912141,11.7039569 C27.0142684,10.5477879 28.4857598,11.0733186 30.5878872,12.1243845 C32.7951352,13.1754483 34.5819446,12.860128 35.8432167,12.1243845 C36.4738549,11.7039569 36.9993879,10.8631059 38.3657608,11.1784261 C37.7351226,13.8060909 36.7891642,16.1184376 35.6329974,18.0103457 C33.5308678,18.5358786 32.3746966,18.5358786 30.1674705,17.5899202 C27.9602444,16.5388565 25.227459,15.9082183 23.7559676,16.8541767 C22.3895837,17.6950277 20.9180836,18.1154532 19.7619102,18.1154532 C18.605739,18.1154532 17.1342454,17.6950277 15.7678747,16.8541767 C14.2963855,15.9082183 11.5636198,16.5388565 9.3563718,17.5899202 C7.14914569,18.5358786 5.99297232,18.5358786 3.89084491,18.0103457 C2.73467373,16.118431 1.7887153,13.8060909 1.15808146,11.1784261 C2.52446538,10.8631059 3.04999614,11.7039569 3.68062559,12.1243845 C4.83679676,12.860128 6.72870705,13.1754483 8.83083446,12.1243845 C11.0380606,11.0733186 12.509552,10.5477879 14.6116794,11.7039569 C16.2933835,12.6499153 18.1852982,13.2805535 19.7618883,13.2805535 L19.7619321,13.2805535 Z" id="Shape"/><path d="M19.7619321,30.0976606 C23.9661869,28.3108512 27.8551238,26.3138225 31.0083258,23.581059 C30.1674727,23.2657388 29.6419419,23.4759515 28.9061962,22.9504208 C28.1704505,22.4248878 25.9632135,22.2146751 24.0713054,23.2657388 C22.0742832,24.2116972 21.2334213,24.42191 19.7619519,24.42191 C18.2904627,24.42191 17.4496051,24.2116972 15.4525983,23.2657388 C13.5606837,22.2146751 11.3534422,22.4248878 10.6177075,22.9504208 C9.88196178,23.4759515 9.35642883,23.2657388 8.51557786,23.581059 C11.6687799,26.3138225 15.4525961,28.3108512 19.7619716,30.0976606 L19.7619321,30.0976606 Z" id="Shape"/></g><g id="lion" transform="translate(1.631854, 0.877285)"><path d="M15.6164386,4.48116971 C15.7215461,4.69138245 15.5113334,5.2169154 15.6164386,5.42712815 C15.8266536,5.84755363 15.8266536,6.05776637 16.1419716,6.26797911 L16.8777173,6.26797911 C19.190064,6.26797911 21.9228275,5.32202068 24.2351742,5.32202068 C26.4424222,5.32202068 27.808793,6.05776637 29.0700651,6.05776637 C29.8058108,6.05776637 30.436449,5.53223342 30.436449,5.00670266 C30.436449,4.48116971 29.595598,4.1658495 27.8087842,4.1658495 C25.2862401,4.1658495 23.9198474,4.79648773 21.81772,4.79648773 C18.6645179,4.79648773 18.1390025,3.64031875 18.1390025,3.1147858 C18.1390025,2.58925285 18.6645355,1.85350715 20.3462505,1.85350715 C20.8717813,1.85350715 21.2922068,1.74840188 21.5024195,1.53818914 C21.607527,1.3279764 21.9228472,0.907550914 22.5534854,0.592230705 C23.2892289,0.171805222 24.7607115,0.592230705 25.4964682,0.0666977546 C25.4964682,0.487125431 24.86583,1.11776366 24.340297,1.3279764 C25.3913607,1.01265619 26.5475231,1.01265619 26.7577425,1.85350715 C26.2322095,1.53818914 25.3913585,1.74840188 25.0760405,1.85350715 C24.6556128,1.95861462 24.4454001,2.06372209 24.0249746,2.16882736 C24.4454001,2.06372209 24.6556128,2.90457305 25.2862533,2.90457305 C24.6556128,3.43010381 23.6045491,3.43010381 22.5534898,3.00967833 C22.2381696,2.90457305 21.3973186,2.58925285 20.8717857,2.58925285 C19.820722,2.58925285 19.1900838,2.79946559 19.1900838,3.21989107 C19.1900838,3.74542402 19.820722,4.06074423 21.7126279,4.06074423 C23.6045448,4.06074423 24.6556107,3.53521128 27.4934947,3.53521128 C27.283282,3.21989107 27.5986,2.90457305 27.1781745,2.58925285 C28.2292404,2.58925285 29.3854226,2.90457305 29.8058393,3.64031875 C29.7007318,2.90457305 30.33137,2.27393483 30.1211573,1.64329441 C30.7517955,1.74840188 31.2773285,2.3790401 31.3824359,2.90457305 C31.3824359,2.58925285 31.8028614,2.58925285 31.8028614,2.27393483 C32.4334996,2.58925285 32.7488198,3.32499854 32.6437124,3.95563676 C32.9590326,3.43010381 33.2743506,3.64031875 33.4845633,3.00967833 C33.6947761,3.43010381 33.5896708,4.69138245 32.8539251,5.11180794 C33.4845633,4.69138245 34.4305218,4.69138245 35.0611512,5.42712815 C34.430513,5.32202068 34.115195,5.63734089 33.7998748,5.74244616 C32.5385983,6.47819185 30.4364753,6.89861734 28.8598633,6.79351206 C27.1781592,6.6884046 26.9679464,6.37308439 25.9168805,6.37308439 C26.5475187,6.47819185 27.8087952,7.7394683 28.964962,7.7394683 C29.7007077,7.7394683 30.2262406,7.7394683 30.5415586,7.63436303 C30.8568789,7.52925556 31.3824118,7.63436303 31.8028373,7.84457577 C32.1181553,8.15989598 32.7487957,8.47521399 33.1692212,8.37010872 C33.0641137,8.7905342 32.853901,9.00074695 32.538583,9.10585222 C33.0641137,9.42117243 32.7487957,9.63138517 33.2743265,10.0518107 C33.0641137,10.0518107 32.853901,10.2620234 32.538583,10.1569181 C32.853901,10.4722361 32.853901,10.8926616 33.1692212,11.1028766 C33.0641137,11.1028766 32.7487957,11.2079818 32.538583,11.1028766 C32.853901,11.523302 32.538583,12.0488328 32.853901,12.2590455 C33.1692212,12.6794732 32.538583,13.205004 32.01305,12.7845785 C32.1181553,13.0998987 31.8028373,13.4152167 31.4875171,13.3101114 C31.1721991,13.205004 30.9619863,12.889686 31.0670916,12.7845785 C31.0670916,12.6794732 31.0670916,12.6794732 31.1721991,12.5743657 C30.9619863,12.889686 30.5415586,12.889686 30.3313459,12.7845785 C30.2262406,12.6794732 30.1211332,12.5743657 30.1211332,12.4692605 C29.3853897,12.6794732 29.0700695,12.0488328 29.1751747,11.7335148 C29.2802822,11.4181946 29.9109204,11.3130893 30.1211332,11.4181946 C30.3313459,11.523302 30.5415586,11.6284073 30.7517714,11.4181946 C30.9619863,11.3130893 31.0670916,11.1028766 31.0670916,10.8926616 C31.0670916,10.5773436 30.7517714,9.63138517 29.3853897,9.73649264 C27.8087908,9.84159791 25.2862335,9.42117243 24.0249615,9.00074695 C23.9198562,8.89563948 23.8147487,8.89563948 23.7096434,8.7905342 C23.7096434,9.21095969 23.2892158,9.42117243 23.2892158,9.84159791 C23.2892158,10.3671309 23.4994307,10.7875563 24.1300689,10.9977691 C23.8147487,11.523302 23.2892158,11.4181946 23.079003,11.1028766 C23.079003,11.4181946 22.6585775,11.6284073 22.6585775,12.0488328 C22.5534723,11.8386201 22.4483648,11.7335148 22.3432595,11.523302 C22.0279393,12.2590455 21.1870884,12.6794732 20.7666629,12.4692605 C20.2411299,12.889686 19.6104917,12.7845785 19.400279,12.364153 C19.0849587,12.5743657 18.6645333,12.5743657 18.4543205,12.364153 C18.4543205,12.6794732 18.2441078,12.5743657 18.1390003,12.9947912 C18.1390003,13.205004 17.7185748,13.3101114 17.5083621,13.205004 C17.2981493,13.0998987 17.1930419,12.6794732 17.4032568,12.4692605 C17.0879366,12.6794732 16.7726164,12.6794732 16.5624037,12.4692605 C16.5624037,12.2590455 16.5624037,11.9437275 16.7726164,11.8386201 L16.9828291,11.8386201 C16.7726164,11.7335148 16.4572984,11.8386201 16.2470856,11.7335148 C16.0368729,11.523302 16.0368729,11.3130893 16.1419782,11.1028766 C16.2470856,10.9977691 16.5624037,10.7875563 16.7726164,10.9977691 L16.8777239,11.1028766 C16.8777239,10.8926616 16.9828291,10.6824489 17.0879366,10.6824489 C17.2981493,10.5773436 17.6134696,10.5773436 17.9287876,10.8926616 C18.1390003,11.2079818 18.3492131,11.2079818 18.9798535,11.1028766 C19.5053842,11.1028766 20.3462374,10.5773436 20.9768756,10.0518107 C19.1900662,9.73649264 20.2411299,8.58032146 20.7666629,8.15989598 C20.3462374,8.05478851 19.715597,8.05478851 19.2951715,8.26500125 C17.0879454,9.42117243 14.7755986,10.7875454 13.3041073,10.3671309 C13.3041073,10.5773436 13.4092125,10.7875563 13.51432,10.9977691 C13.1989998,10.9977691 12.5683616,10.9977691 12.3581488,10.6824489 C12.2530414,10.8926616 12.0428286,11.4181946 12.2530414,11.8386201 C12.0428286,11.6284073 11.4121904,11.4181946 11.0968702,11.3130893 C11.3070829,11.523302 11.0968702,11.9437275 11.2019777,12.2590455 C10.8866574,11.9437275 10.3611267,11.7335148 10.1509139,11.9437275 C9.9407012,12.1539403 9.52027352,12.2590455 9.20495551,12.1539403 C8.99474277,12.4692605 8.67942256,12.6794732 8.36410454,12.7845785 C8.36410454,12.5743657 8.36410454,12.2590455 8.25899708,12.1539403 C8.15388961,12.4692605 7.83857159,12.889686 7.41814611,13.0998987 C7.41814611,12.889686 7.41814611,12.5743657 7.31303864,12.364153 C7.31303864,12.7845785 6.47218768,12.9947912 6.36708021,13.3101114 C6.47218768,12.9947912 6.47218768,12.6794732 6.47218768,12.4692605 C6.26197493,12.7845785 5.94665473,13.0998987 5.42112397,13.205004 C5.52622924,12.9947912 5.63133671,12.7845785 5.52622924,12.5743657 C5.42112397,12.9947912 4.79048355,13.205004 4.26495279,13.0998987 C4.26495279,13.3101114 3.84452731,13.6254295 3.31899436,13.3101114 C3.00367415,13.205004 2.79346141,12.889686 3.00367415,12.6794732 C2.58324867,12.6794732 2.16282319,12.2590455 2.37303593,11.9437275 C2.37303593,11.8386201 2.47814339,11.7335148 2.47814339,11.6284073 C2.16282319,11.4181946 2.05771572,10.9977691 2.37303593,10.6824489 C2.47814339,10.5773436 2.79346141,10.5773436 3.00367415,10.5773436 C3.00367415,9.73649264 3.73941984,9.73649264 4.05474005,10.3671309 C4.26495279,10.6824489 4.89559102,11.2079818 5.42112397,11.1028766 C5.63133671,11.1028766 5.73644198,10.9977691 5.94665473,10.9977691 C6.57729295,10.7875563 7.83857159,10.2620234 8.57431948,9.63138517 C8.67942475,9.31606496 8.67942475,9.10585222 8.67942475,8.89563948 C8.25899927,9.10585222 7.83857379,9.31606496 7.62836104,9.63138517 L7.62836104,9.31606496 C7.31304084,9.31606496 6.78750789,9.21095969 6.57729514,9.21095969 C6.68240261,9.10585222 6.78750789,8.58032146 6.99772282,8.47521399 C6.47218987,8.58032146 5.94665692,8.47521399 5.52623144,8.37010872 C5.73644418,8.15989598 5.73644418,7.84457577 5.84155164,7.52925556 C5.6313389,7.63436303 5.10580595,7.42415029 4.68538047,7.52925556 C4.79048574,7.21393755 4.89559321,6.79351206 5.21091123,6.6884046 C4.79048574,6.79351206 4.26495499,6.6884046 3.73942204,6.47819185 C4.15984752,6.47819185 4.37006026,5.9526589 4.68538047,5.9526589 C3.8445295,5.9526589 3.63431457,5.53223342 3.21388909,5.32202068 C3.5292093,5.42712815 3.73942204,5.11180794 4.05474225,5.11180794 C3.73942204,5.00670266 3.21388909,4.48116971 3.42410183,4.1658495 C3.31899655,4.27095697 3.21388909,4.48116971 3.00367634,4.58627499 C2.7934636,4.69138245 2.37303812,4.58627499 2.05771791,4.27095697 C1.84750517,3.85053149 1.95261264,3.32499854 2.37303812,3.21989107 C1.84750517,3.1147858 1.84750517,2.58925285 2.05771791,2.3790401 C2.16282538,2.16882736 2.58325086,1.85350715 2.7934636,2.16882736 C2.89857107,2.27393483 3.00367634,2.48414757 3.10878381,2.58925285 C3.00367634,2.3790401 3.00367634,1.95861462 3.00367634,1.64329441 C3.10878381,1.3279764 3.31899655,1.3279764 3.63431457,1.22286893 C3.94963478,1.22286893 4.15984752,1.53818914 4.15984752,1.85350715 C4.15984752,2.16882736 4.26495499,2.3790401 4.37006026,2.79946559 C4.37006026,2.69436031 4.47516773,2.48414757 4.47516773,2.3790401 C4.47516773,1.95861462 5.00069849,2.06372209 5.31601869,2.16882736 C5.6313389,2.27393483 5.73644418,2.90457305 5.31601869,3.21989107 C5.10580595,3.43010381 5.21091123,3.74542402 5.42112616,3.95563676 C6.15686966,5.11180794 7.4181483,6.05776637 8.46920762,6.16286287 C8.46920762,5.74243739 8.67942037,5.32201191 8.99474057,5.00669389 C8.99474057,4.79647896 9.09984585,4.48116094 9.20495332,4.2709482 C9.31005859,3.64030997 9.6253788,3.32498977 10.0458043,3.53520251 C9.94069901,3.43009504 9.83559154,3.32498977 9.83559154,3.2198823 C9.52027133,2.90456428 9.20495332,2.37903133 9.41516606,1.95860585 C9.6253788,1.53818037 10.256017,1.64328564 10.4662298,1.85349838 C10.3611245,1.22286016 11.096868,0.697329399 11.096868,0.382009191 C11.2019755,0.697329399 11.4121882,1.11775488 11.3070807,1.4330729 C11.4121882,1.01264742 12.1479339,0.487116658 12.6734646,0.276901723 C12.4632519,0.592221932 13.0938923,1.11775488 12.9887849,1.4330729 C13.1989976,0.907542141 14.0398486,0.592221932 14.670489,0.592221932 C14.4602762,0.802434674 14.4602762,1.22286016 14.4602762,1.4330729 C14.7755943,1.4330729 15.3011272,1.32796762 15.5113399,1.01264742 C15.5113399,1.4330729 15.3011272,1.85349838 15.0909145,2.06371332 C15.1960197,1.95860585 15.6164452,1.95860585 15.9317654,1.95860585 C15.6164452,2.27392606 15.7215527,2.58924407 15.4062325,2.79945681 C15.8266602,2.58924407 16.3521909,2.58924407 16.4572984,3.00966956 C16.6675111,3.32498977 16.3521909,3.85052272 16.1419782,4.16584073 C15.9317654,4.2709482 15.7215527,4.48116094 15.6164452,4.48116094 L15.6164386,4.48116971 Z" fill="#FEE94E" id="Shape" stroke="#000000" stroke-width="0.1"/><g id="Group" stroke="#000000" stroke-width="0.1" transform="translate(2.315927, 1.535248)"><g id="Shape"><path d="M6.78404178,4.20701828 C6.04829828,4.52233849 5.83808334,5.25808418 5.73297807,5.67850966"/><path d="M6.67898695,4.94284073 C5.62792104,5.57347896 5.20749556,6.09901191 5.4177083,7.25518747"/><path d="M7.20448042,8.09602089 C7.83512084,7.88580815 8.25554632,7.6755954 8.78107708,6.72963697"/><path d="M8.46579634,7.15008877 C8.2555836,7.57051426 8.46579634,8.30625995 8.15047614,8.62158016 C8.67600909,8.30625995 9.09643457,7.88583446 9.20154204,7.15008877"/><path d="M8.67590601,8.30613055 C9.09633149,8.09591781 9.72696971,7.46527958 10.0422899,6.72953389 C9.93718245,7.0448541 10.0422899,7.57038486 9.83207718,7.88570507 C10.3576079,7.36017211 10.5678229,7.0448541 10.6729281,6.51932115 C10.6729281,6.62442862 10.7780356,6.83464136 10.7780356,6.93974663 C10.9882484,6.72953389 11.1984611,6.51932115 11.1984611,6.09889567"/><path d="M11.1985379,6.41426632 L11.1985379,6.93979708 C11.6189633,6.62447906 11.7240686,6.20405138 11.7240686,5.67852063"/><path d="M11.6189765,6.30921149 C12.2496147,5.88878601 12.3547222,5.25814778 12.3547222,4.31218935"/><path d="M12.3545796,5.36327937 C12.7750051,5.04796136 12.8801104,4.83774642 12.8801104,3.89179018"/><path d="M11.5137023,1.05383812 C11.3034896,1.05383812 11.0932769,1.15894559 11.0932769,1.4742636 C11.0932769,1.68447634 10.7779589,1.99979655 10.7779589,2.31511676 C10.6728514,2.73554225 10.4626386,2.84064752 10.1473184,2.73554225 C9.83200042,2.5253295 9.83200042,2.5253295 9.83200042,2.2100093 C9.83200042,1.78958381 10.3575312,1.68447634 10.3575312,1.26405086 C10.4626386,1.05383812 10.5677461,0.738520104 10.6728514,0.738520104 C10.1473184,1.05383812 9.41157493,0.843625379 9.30646747,0.212987154"/><path d="M12.4598538,1.36922193 C12.249641,1.47432721 12.0394283,1.15900919 11.7241081,1.26411446 C11.6190028,1.26411446 11.3036826,1.36922193 11.1985773,1.26411446"/><path d="M10.9882089,1.8947154 C11.0933142,1.99982287 11.6188471,2.21003561 12.1443801,1.99982287 C11.7239524,2.10493034 11.4086344,1.57939739 11.8290598,1.26407718"/><path d="M10.0422768,0.84372846 C9.62185128,0.84372846 9.30653107,1.15904867 9.41163854,1.47436668 C9.51674381,1.78968689 9.9371693,1.78968689 10.2524895,1.57947415"/><path d="M9.30645431,6.09910183 C9.41156178,5.99399436 9.51666705,5.78378162 9.51666705,5.67867634 C9.72687979,5.67867634 9.93709253,5.57356888 10.0422,5.4684636 C10.4626255,5.4684636 10.7779457,5.15314339 10.883051,4.83782319 C11.0932637,4.83782319 11.1983712,4.31229243 11.3034764,4.10207969 C11.4085839,4.20718496 11.6187967,4.10207969 11.7239019,3.6816542 C11.9341147,3.78675948 12.2494349,3.6816542 12.3545423,3.36633399"/><path d="M8.0453577,2.63053786 C8.0453577,2.73564533 7.83514496,2.94585807 7.62493222,3.05096334 C7.73003749,3.26117608 7.62493222,3.78670903 7.41471728,3.8918165 C7.51982475,4.10202924 7.41471728,4.41734726 7.30961201,4.62756 C7.30961201,4.73266747 7.41471728,5.04798768 7.41471728,5.15309295"/><path d="M8.46579634,0.528344648 C8.2555836,1.0538754 8.36068888,1.68451363 8.78111436,1.7896211"/><path d="M8.67590601,2.21009922 C8.57079854,2.73563217 8.57079854,3.47137786 8.46569326,3.78669587 C8.3605858,3.99690862 8.15037305,4.73265431 8.99122402,4.94286705 C9.93718245,5.15307979 10.4627154,5.04797452 10.9882484,3.47137786"/><path d="M12.5649086,7.57052742 C12.5649086,7.67563488 12.4598011,7.88584762 12.2495884,7.88584762"/><path d="M13.3005117,7.36019843 C13.3005117,7.57041117 13.090299,7.88573138 12.9851937,7.99083885"/><path d="M14.0363342,7.15008877 C14.0363342,7.36030151 14.0363342,7.67562172 13.8261215,7.780727"/><path d="M7.62491906,0.633399478 C7.73002433,0.633399478 7.8351318,0.843612219 7.94023708,1.05382496 C7.62491906,0.843612219 7.30959885,1.36914517 7.51981159,1.68446319"/><path d="M7.30953525,2.42020888 C7.20442778,2.52531634 6.99421504,2.63042162 6.88910977,2.73552909"/><path d="M6.99415144,3.36614099 C6.88904616,3.36614099 6.78393869,3.47124846 6.67883342,3.47124846"/><path d="M1.94910705,1.47427676 C1.94910705,1.36917149 1.94910705,1.36917149 2.05421232,1.26406402"/><path d="M1.00317493,1.15889295 C0.898067467,1.15889295 0.898067467,1.15889295 0.792962193,1.05378548"/><path d="M1.10822977,2.41253264 L1.31844251,2.41253264"/><path d="M0.687791123,1.99977023 C0.477578381,1.78955749 0.162260366,1.68445003 0.0571528982,1.68445003"/></g><path d="M6.46865796,5.88877285 C5.73291227,6.51941107 5.41759206,7.04494402 5.31248679,7.78068752" id="Shape"/><path d="M7.20448042,6.41426632 C6.99426768,6.8346918 6.67894966,7.15000982 6.36362945,7.36022256" id="Shape"/><path d="M3.10536815,9.56744648 C2.26451499,9.77765922 1.63387676,9.67255175 1.00323854,9.25212627 C0.89813107,9.1470188 0.793025796,9.1470188 0.687918329,9.04191352" id="Shape"/><path d="M6.2585483,8.09602089 C6.15344084,8.51644637 6.04833556,9.04197932 5.83812063,9.1470846 C6.67897379,8.72665911 7.41471728,8.09602089 7.51982475,7.15006245" id="Shape"/><path d="M0.16229765,10.0931593 C0.477615666,9.98805399 0.792935875,10.1982667 1.00314862,9.98805399" id="Shape"/><path d="M18.4508303,6.6245953 C18.661043,6.72970057 18.976361,6.83480804 19.0814685,6.93991332 C19.1865738,6.72970057 19.6070015,6.41438256 19.9223195,6.30927509" id="Shape"/><path d="M10.9882089,8.83184334 C10.8831014,8.41141786 11.0933142,7.88588491 11.7239524,7.67567217" id="Shape"/><path d="M6.88909661,10.6186527 C6.99420188,10.40844 6.99420188,10.0931198 7.09930935,9.88290705" id="Shape"/><path d="M2.26449086,10.9338172 C2.15938559,11.14403 1.94917285,11.3542427 1.94917285,11.5644555" id="Shape"/><path d="M0.687791123,11.1441462 C0.643490483,11.1810635 0.687791123,11.0390387 0.79289859,11.0390387 C1.00311133,10.9339335 1.31842935,10.7237185 1.42353681,10.5135058" id="Shape"/><path d="M14.9822663,9.67272063 C14.7720536,9.77782809 14.6669461,9.67272063 14.5618408,9.56761535" id="Shape"/><path d="M14.8772115,10.1982141 C14.8772115,10.1982141 14.7721062,10.3033194 14.6669987,10.3033194" id="Shape"/><path d="M15.402705,10.7237076 C15.2975997,10.828815 15.1924922,10.9339225 15.0873869,10.9339225" id="Shape"/><path d="M18.4508303,10.9338172 C18.661043,10.8287098 18.7661483,10.618497 18.8712558,10.1980715" id="Shape"/><path d="M17.0844595,10.8287624 C17.3997775,10.7236549 17.6099903,10.5134422 17.9253105,10.1981242" id="Shape"/><path d="M20.0273107,9.98788512 C20.0273107,9.77767238 20.0273107,9.56745963 20.132416,9.3572447" id="Shape"/><path d="M27.8053159,10.9338172 C27.5951032,10.7236023 27.5951032,10.4082843 27.9104234,10.1980715 C28.1206361,10.0929641 28.2257414,9.9878588 28.4359542,9.88275133" id="Shape"/><path d="M21.3939008,7.2551436 C19.7121967,6.51939791 19.8173041,5.57343948 18.450918,5.67854695" id="Shape"/><path d="M28.8563029,10.5133786 C29.0813029,10.6184861 28.8563029,10.9338063 28.8563029,11.0389115" id="Shape"/><path d="M29.802235,10.5133786 C29.6971297,10.8286988 29.6971297,10.9338063 29.6971297,11.2491243" id="Shape"/><path d="M21.7090653,0.438642298 L20.8682143,0.438642298" id="Shape"/><path d="M12.8800731,4.20701828 C12.8800731,4.41723102 13.1953933,4.8376565 14.0362443,4.8376565 C13.931139,4.8376565 13.8260315,4.73255123 13.8260315,4.73255123" id="Shape"/><path d="M13.3005117,2.94592167 C13.1954065,3.05102695 13.090299,2.94592167 13.090299,2.94592167 C12.8800863,2.73570893 13.1954065,2.31528345 13.5107267,2.1050707 C13.1954065,2.21017598 12.9851937,2.21017598 12.774981,2.21017598 C12.5647683,2.8408142 11.9341278,3.15613441 11.5137023,2.73570893 C11.4085971,3.15613441 10.8830641,3.68166736 10.4626386,3.5765599 C10.0422132,3.36634715 9.93710569,3.05102695 10.0422132,2.73570893 C9.51668021,3.36634715 8.88604198,2.94592167 8.67582924,2.73570893 C8.57072178,2.52549619 8.67582924,1.99996324 8.88604198,1.36932501" id="Shape"/></g><g fill="#073163" id="Group" transform="translate(1.000000, 0.657963)"><path d="M11.7786423,4.45375457 C11.3582168,4.24354183 11.2531093,3.92822162 11.3582168,3.6129036 C11.2531093,3.82311634 11.0428966,3.92822162 10.8326839,3.92822162 C10.4122584,4.87418005 9.88672543,5.71503102 9.25608721,5.71503102 C8.52034151,5.82013849 8.62544898,6.55588418 9.15098193,6.55588418 C10.3071509,6.76609692 10.8326839,6.34567144 11.7786467,4.45375457 L11.7786423,4.45375457 Z" id="Shape"/><path d="M1.37316971,1.93112272 C1.68848992,1.6158047 1.47827718,1.30048449 1.26806225,1.19537702 C0.95274423,1.09027175 0.322106005,1.19537702 0.00678579634,1.72090997 C0.322106005,1.6158047 0.637424021,1.6158047 0.742531488,1.82601744 C0.847636762,2.03623018 1.0578495,2.24644292 1.37316971,1.93112272 L1.37316971,1.93112272 Z" id="Shape"/><path d="M1.89866319,0.0392584856 C2.63440668,0.0392584856 2.84462162,0.14436376 2.94972689,0.459683969 C3.05483436,0.66989671 2.84462162,0.985214726 2.63440668,0.985214726 C2.31908867,0.985214726 2.00376846,0.775001984 2.10887593,0.66989671 C2.2139812,0.459683969 2.2139812,0.14436376 1.89866319,0.0392584856 L1.89866319,0.0392584856 Z" id="Shape"/><path d="M4.0008564,1.72101305 C4.52638935,1.82612052 4.73660209,1.51080031 4.42128407,1.09037483 C4.31617661,0.775054621 4.0008564,0.56484188 3.47532564,0.669949347 C4.0008564,0.985267363 3.47532564,1.51080031 4.0008564,1.72101305 L4.0008564,1.72101305 Z" id="Shape"/><path d="M0.111853786,3.50782245 C0.427171802,4.0333554 0.952704752,4.0333554 1.16291749,3.92824794 C1.4782377,3.82314266 1.58334298,3.50782245 1.4782377,3.29760971 C1.26802277,2.9822917 0.952704752,2.87718423 0.847597285,3.29760971 C0.637384543,3.7180352 0.322066527,3.61292992 0.111853786,3.50782245 L0.111853786,3.50782245 Z" id="Shape"/><path d="M1.6883342,9.9192376 C1.47812146,9.49881211 0.847481044,9.49881211 0.321950287,9.9192376 C0.532163029,9.81413013 0.952588512,9.9192376 1.05769379,10.1294503 C1.16280125,10.3396631 1.37301399,10.3396631 1.47812146,10.3396631 C1.58322674,10.2345556 1.79343948,10.1294503 1.6883342,9.9192376 L1.6883342,9.9192376 Z" id="Shape"/><path d="M2.52921149,9.2886893 C2.52921149,8.76315634 1.7934658,8.65804888 1.37304031,8.86826381 C1.58325305,8.86826381 1.89857326,9.07847655 1.89857326,9.2886893 C2.00367854,9.49890204 2.21389128,9.60400731 2.31899875,9.60400731 C2.52921149,9.49890204 2.63431676,9.39379457 2.52921149,9.2886893 L2.52921149,9.2886893 Z" id="Shape"/><path d="M1.47822454,11.1805535 C0.847584125,11.0754483 0.53226611,11.8111939 0.53226611,12.3367247 C0.637371384,12.0214067 0.952691593,11.8111939 1.26800961,11.9162992 C1.58332982,11.9162992 1.68843728,11.8111939 1.68843728,11.600979 C1.79354256,11.3907663 1.68843728,11.285661 1.47822454,11.1805535 L1.47822454,11.1805535 Z" id="Shape"/><path d="M1.58327937,12.9673629 C1.79349211,13.0724704 2.00370486,12.8622577 2.10881232,12.5469374 C2.10881232,12.3367247 2.52923781,12.3367247 2.63434308,12.4418322 C2.84455802,12.5469374 2.84455802,12.9673629 2.52923781,13.1775757 C2.31902507,13.2826831 1.79349211,13.3877906 1.58327937,12.9673629 L1.58327937,12.9673629 Z" id="Shape"/><path d="M16.1931384,9.81418277 C15.9829256,9.70907749 15.4573949,9.49886475 15.0369694,9.81418277 C15.3522874,9.70907749 15.5625002,9.91929023 15.6676076,10.129503 C15.6676076,10.3397157 15.9829256,10.4448232 16.0880331,10.2346083 C16.1931384,10.129503 16.2982458,9.91929023 16.1931384,9.81418277 L16.1931384,9.81418277 Z" id="Shape"/><path d="M15.2472063,10.5500052 C14.8267808,10.3397925 14.3012478,10.8653254 14.1961404,11.2857509 C14.3012478,11.1806434 14.7216733,10.9704307 14.9318861,10.9704307 C15.1420988,11.0755382 15.3523115,10.9704307 15.3523115,10.760218 C15.457419,10.6551127 15.457419,10.5500052 15.2472063,10.5500052 L15.2472063,10.5500052 Z" id="Shape"/><path d="M15.7726997,11.3906632 C15.4573817,11.3906632 15.0369562,11.8110909 15.0369562,12.2315163 C15.1420615,12.0213036 15.3522743,11.9161961 15.562487,12.0213036 C15.7726997,12.0213036 16.0880199,11.9161961 16.0880199,11.7059834 C16.0880199,11.4957707 15.9829125,11.3906632 15.7726997,11.3906632 L15.7726997,11.3906632 Z" id="Shape"/><path d="M16.7186319,12.2315405 C16.5084191,12.126433 16.1930989,12.2315405 16.1930989,12.5468585 C16.1930989,12.8621787 16.1930989,13.1774967 16.0879936,13.2826042 C16.2982064,13.0723914 16.5084191,12.967284 16.7186319,12.8621787 C16.8237393,12.7570712 16.9288446,12.4417532 16.7186319,12.2315405 L16.7186319,12.2315405 Z" id="Shape"/><path d="M28.5957493,11.2856084 C28.3855366,11.0753956 28.0702164,11.1805009 27.9651089,11.3907136 C27.8600037,11.6009264 27.7548962,12.1264593 27.9651089,12.5468848 C27.9651089,12.3366721 28.1753217,12.021354 28.3855366,12.021354 C28.7008546,11.9162466 28.8059621,11.4958211 28.5957493,11.2856084 L28.5957493,11.2856084 Z" id="Shape"/><path d="M29.2262977,11.706047 C28.8058722,11.9162597 28.8058722,12.6520054 29.1211902,13.0724309 C29.1211902,12.8622182 29.2262977,12.546898 29.4365104,12.4417927 C29.7518284,12.4417927 29.8569359,12.0213672 29.7518284,11.8111545 C29.5416157,11.6009395 29.3314029,11.706047 29.2262977,11.706047 L29.2262977,11.706047 Z" id="Shape"/><path d="M30.4876136,12.1264856 C30.2774008,12.0213804 30.0671881,12.2315931 30.0671881,12.4418058 C29.9620828,12.7571239 30.1722956,13.1775493 30.4876136,13.3877643 C30.4876136,13.1775493 30.592721,12.9673366 30.6978263,12.8622313 C31.0131465,12.6520186 30.9080391,12.2315931 30.4876136,12.1264856 L30.4876136,12.1264856 Z" id="Shape"/><path d="M31.4335457,12.0214308 C31.223333,12.0214308 31.0131202,12.3367488 31.223333,12.652069 C31.3284382,12.8622818 31.5386532,12.967387 31.9590786,12.8622818 C31.8539712,12.8622818 31.6437584,12.5469616 31.7488659,12.4418563 C31.8539712,12.2316436 31.7488659,12.0214308 31.4335457,12.0214308 L31.4335457,12.0214308 Z" id="Shape"/></g></g><g id="star-link" transform="translate(1.556445, 17.107050)"><polygon fill="#4EAB53" id="Star-1" points="8.55425418 11.682141 4.10673026 15.003998 5.89164354 9.74764117 1.35800931 6.54430483 6.9086703 6.61755464 8.55425418 1.31592689 10.199838 6.61755464 15.750499 6.54430483 11.2168648 9.74764117 13.0017781 15.003998 "/><path d="M8.55425418,12.169034 L3.33324784,16.0686053 L5.42858082,9.89809936 L0.106488462,6.13766106 L6.6224818,6.22364996 L8.55425418,0 L10.4860265,6.22364996 L17.0020199,6.13766106 L11.6799275,9.89809936 L13.7752605,16.0686053 L8.55425418,12.169034 Z M8.55425418,11.3696084 L4.4290146,14.4507511 L6.08458634,9.57528968 L1.87947633,6.60407916 L7.02791551,6.67202101 L8.55425418,1.75456919 L10.0805928,6.67202101 L15.229032,6.60407916 L11.023922,9.57528968 L12.6794938,14.4507511 L8.55425418,11.3696084 Z" fill="#FEE94E" id="Star-1"/><polygon fill="#4EAB53" id="Star-1" points="28.2931576 11.682141 23.8456337 15.003998 25.6305469 9.74764117 21.0969127 6.54430483 26.6475737 6.61755464 28.2931576 1.31592689 29.9387414 6.61755464 35.4894024 6.54430483 30.9557682 9.74764117 32.7406815 15.003998 "/><path d="M28.2931576,12.169034 L23.0721512,16.0686053 L25.1674842,9.89809936 L19.8453919,6.13766106 L26.3613852,6.22364996 L28.2931576,0 L30.2249299,6.22364996 L36.7409233,6.13766106 L31.4188309,9.89809936 L33.5141639,16.0686053 L28.2931576,12.169034 Z M28.2931576,11.3696084 L24.167918,14.4507511 L25.8234897,9.57528968 L21.6183797,6.60407916 L26.7668189,6.67202101 L28.2931576,1.75456919 L29.8194962,6.67202101 L34.9679354,6.60407916 L30.7628254,9.57528968 L32.4183971,14.4507511 L28.2931576,11.3696084 Z" fill="#FEE94E" id="Star-1"/><polygon fill="#4EAB53" id="Star-1" points="18.4237059 23.0868408 13.976182 26.4086978 15.7610952 21.1523409 11.227461 17.9490046 16.778122 18.0222544 18.4237059 12.7206266 20.0692897 18.0222544 25.6199507 17.9490046 21.0863165 21.1523409 22.8712298 26.4086978 "/><path d="M18.4237059,23.5737337 L13.2026995,27.473305 L15.2980325,21.3027991 L9.97594016,17.5423608 L16.4919335,17.6283497 L18.4237059,11.4046997 L20.3554782,17.6283497 L26.8714716,17.5423608 L21.5493792,21.3027991 L23.6447122,27.473305 L18.4237059,23.5737337 Z M18.4237059,22.7743081 L14.2984663,25.8554509 L15.954038,20.9799894 L11.748928,18.0087789 L16.8973672,18.0767208 L18.4237059,13.1592689 L19.9500445,18.0767208 L25.0984837,18.0087789 L20.8933737,20.9799894 L22.5489455,25.8554509 L18.4237059,22.7743081 Z" fill="#FEE94E" id="Star-1"/></g><path d="M39.4784971,0.365794782 L39.4784977,20.7038945 C39.4784977,29.1048453 37.6078544,35.2075281 33.9033907,39.7999343 C30.7827188,43.6686164 26.5368561,46.4079708 19.9189846,49.2530585 L20.0435215,49.2530584 C13.4039457,46.39866 9.1459111,43.6628206 6.00621279,39.799479 C2.26916581,35.2011107 0.378910183,29.0968458 0.378910183,20.7038945 L0.378910186,0.365794782 L39.4784971,0.365794782 Z M39.7938157,0.20813577 L39.7938157,0.0504767624 L39.6361567,0.0504767624 L39.6361128,0.0504767624 L0.221251175,0.0504767624 L0.0635921671,0.0504767624 L0.0635921671,0.20813577 L0.0635921671,20.7038945 C0.0635921671,29.1653145 1.97561145,35.3398615 5.7615128,39.9983442 C8.93977223,43.9091346 13.236787,46.6700193 19.918985,49.5427411 L19.9812535,49.5695108 L20.0435219,49.542741 C26.7043321,46.6791935 30.9895213,43.9144664 34.1488146,39.9979054 C37.9017518,35.3454068 39.7938157,29.1728428 39.7938157,20.7038945 L39.7938157,0.20813577 L39.7938157,0.20813577 Z" fill="#000000" id="Shape"/></g></g></g></g></g></svg>