<?xml version="1.0" ?><svg height="180px" version="1.1" viewBox="0 0 180 180" width="180px" xmlns="http://www.w3.org/2000/svg" xmlns:sketch="http://www.bohemiancoding.com/sketch/ns" xmlns:xlink="http://www.w3.org/1999/xlink"><title/><desc/><defs/><g fill="none" fill-rule="evenodd" id="Page-1" stroke="none" stroke-width="1"><g id="Material" transform="translate(-180.000000, -180.000000)"><g id="Slice" transform="translate(180.000000, 180.000000)"/><g id="circle_laos" transform="translate(180.000000, 180.000000)"><path d="M167.959589,135.000025 C152.398162,161.901074 123.312698,180 90,180 C56.6873022,180 27.6018377,161.901074 12.0404109,135.000025 L167.959604,135 L167.959604,135 L167.959589,135.000025 L167.959589,135.000025 Z M167.959589,44.9999749 C152.398162,18.0989265 123.312698,0 90,0 C56.6873022,0 27.6018377,18.0989265 12.0404109,44.9999749 L167.959604,45 L167.959604,45 L167.959589,44.9999749 L167.959589,44.9999749 Z" fill="#F1453D" id="1024"/><path d="M167.959589,135.000025 C175.617252,121.762218 180,106.392932 180,90.0000001 C180,73.6070679 175.617252,58.237782 167.959589,44.999975 L12.0403964,45.0000001 C4.38274789,58.237782 0,73.6070679 0,90.0000001 C0,106.392932 4.38274789,121.762218 12.0404109,135.000025 L167.959604,135 L167.959604,135 L167.959589,135.000025 L167.959589,135.000025 Z" fill="#2B98F0" id="1024-copy" transform="translate(90.000000, 90.000000) scale(1, -1) translate(-90.000000, -90.000000) "/><circle cx="90" cy="90" fill="#FFFFFF" id="Oval-127" r="35.8047016"/></g></g></g></svg>