<?xml version="1.0" ?><svg height="180px" version="1.1" viewBox="0 0 180 180" width="180px" xmlns="http://www.w3.org/2000/svg" xmlns:sketch="http://www.bohemiancoding.com/sketch/ns" xmlns:xlink="http://www.w3.org/1999/xlink"><title/><desc/><defs/><g fill="none" fill-rule="evenodd" id="Page-1" stroke="none" stroke-width="1"><g id="Material" transform="translate(-180.000000, -180.000000)"><g id="Slice" transform="translate(180.000000, 180.000000)"/><g id="circle_saint_lucia" transform="translate(180.000000, 180.000000)"><path d="M90.0027574,180 C139.706864,180 180,139.70563 180,90 C180,40.2943701 139.706864,0 90.0027574,0 C40.2986504,0 0.00551488692,40.2943701 0.00551488692,90 C0.00551488692,139.70563 40.2986504,180 90.0027574,180 C90.0027574,180 40.2986504,180 90.0027574,180 L90.0027574,180 L90.0027574,180 Z" fill="#2B98F0" id="Rectangle-40-copy-2" transform="translate(90.002757, 90.000000) scale(1, -1) translate(-90.002757, -90.000000) "/><path d="M43.9944851,20 L135.994485,20 L89.9944851,145 L43.9944851,20 L43.9944851,20 L43.9944851,20 L43.9944851,20 Z" fill="#FFFFFF" id="Rectangle-40-copy-3" transform="translate(89.994485, 82.500000) scale(1, -1) translate(-89.994485, -82.500000) "/><path d="M60,130 L120,130 L90,48.5078125 L60,130 Z" fill="#000000" id="Triangle-copy"/><path d="M44,144.996094 L136,144.996094 L90,104 L44,144.996094 Z" fill="#FEE94E" id="Triangle"/></g></g></g></svg>