<?xml version="1.0" ?><svg height="180px" version="1.1" viewBox="0 0 180 180" width="180px" xmlns="http://www.w3.org/2000/svg" xmlns:sketch="http://www.bohemiancoding.com/sketch/ns" xmlns:xlink="http://www.w3.org/1999/xlink"><title/><desc/><defs/><g fill="none" fill-rule="evenodd" id="Page-1" stroke="none" stroke-width="1"><g id="Material" transform="translate(-180.000000, -180.000000)"><g id="Slice" transform="translate(180.000000, 180.000000)"/><g id="circle_sri_lanka" transform="translate(180.000000, 180.000000)"><circle cx="90" cy="90" fill="#FDC02F" id="Oval-142" r="90"/><path d="M90,10 C134.182782,10 170,45.8172178 170,90 C170,134.182782 134.182782,170 90,170 C79.3909949,170 69.2643134,167.934929 59.9999988,164.18483 L60,15.8151621 C69.2643134,12.0650713 79.3909949,10 90,10 Z" fill="#A03529" id="Oval-142-copy"/><path d="M49.9999777,20.7025875 C42.4718828,25.0573582 35.7192697,30.6036196 30,37.0835104 L30,142.91649 C35.7192697,149.39638 42.4718828,154.942642 49.9999777,159.297413 L50,20.7025746 L49.9999777,20.7025875 Z" fill="#FC5830" id="Oval-142-copy-2"/><path d="M30,37.0835104 C17.5527316,51.1861743 10,69.7110691 10,90 C10,110.288931 17.5527316,128.813826 30,142.91649 L30,37.0835103 L30,37.0835104 Z" fill="#4EAB53" id="Oval-142-copy-3"/><g fill="#FDC02F" id="Group" transform="translate(66.000000, 35.000000)"><path d="M82,95 C82,95 80.918767,97.1327895 79.7242412,98.0018091 C77.9544163,99.2893558 74.325356,99.1963443 72.7852181,100.698475 C70.9396801,102.469811 72.9284326,104.810103 72.9118057,105.013188 L72.8106117,106.249122 C72.8106117,106.249122 74.0550784,106.263653 74.5790036,106.3428 C75.3668971,106.461823 75.6742042,107.082942 77.1411007,106.990694 C80.8293011,106.758753 80.6806393,103.539479 80.8891874,100.788362 C81.0744206,99.7407852 81.5030238,98.3749291 81.7465798,97.3276406 C81.9554189,96.4296296 82,95 82,95 L82,95 L82,95 Z" id="path2389" transform="translate(77.000000, 101.000000) scale(-1, 1) translate(-77.000000, -101.000000) "/><path d="M8.72424125,3.0018091 C6.95441626,4.2893558 3.32535605,4.1963443 1.78521813,5.69847544 C-0.0603199,7.4698114 1.92843259,9.81010315 1.91180575,10.0131875 L1.81061168,11.2491218 C1.81061168,11.2491218 3.05507843,11.2636529 3.57900365,11.3428005 C4.36689708,11.4618232 4.67420418,12.0829415 6.14110066,11.9906943 C9.82930114,11.7587527 9.68063931,8.53947912 9.88918736,5.78836191 C10.0744206,4.74078519 10.5030238,3.37492915 10.7465798,2.32764059 C10.9554189,1.42962963 11,0 11,0 C11,0 9.91876704,2.1327895 8.72424125,3.0018091 L8.72424125,3.0018091 Z" id="path2389" transform="translate(6.000000, 6.000000) scale(1, -1) translate(-6.000000, -6.000000) "/><path d="M82,0 C82,0 80.918767,2.1327895 79.7242412,3.0018091 C77.9544163,4.2893558 74.325356,4.1963443 72.7852181,5.69847544 C70.9396801,7.4698114 72.9284326,9.81010315 72.9118057,10.0131875 L72.8106117,11.2491218 C72.8106117,11.2491218 74.0550784,11.2636529 74.5790036,11.3428005 C75.3668971,11.4618232 75.6742042,12.0829415 77.1411007,11.9906943 C80.8293011,11.7587527 80.6806393,8.53947912 80.8891874,5.78836191 C81.0744206,4.74078519 81.5030238,3.37492915 81.7465798,2.32764059 C81.9554189,1.42962963 82,0 82,0 L82,0 L82,0 Z" id="path2389" transform="translate(77.000000, 6.000000) scale(-1, -1) translate(-77.000000, -6.000000) "/><path d="M11,95 C11,95 9.918767,97.13279 8.7242413,98.001809 C6.9544163,99.289356 3.3253561,99.196344 1.7852181,100.698475 C-0.0603199,102.469811 1.9284326,104.810103 1.9118057,105.013188 L1.8106117,106.249122 C1.8106117,106.249122 3.0550784,106.263653 3.5790037,106.3428 C4.3668971,106.461823 4.6742042,107.082942 6.1411007,106.990694 C9.8293011,106.758753 9.6806393,103.539479 9.8891874,100.788362 C10.0744206,99.740785 10.5030238,98.374929 10.7465798,97.327641 C10.9554189,96.42963 11,95 11,95 L11,95 L11,95 Z" id="path2389"/><path d="M17.0386314,53.4422802 C17.3512216,52.9971647 17.8589546,52.8920267 18.6388775,53.1088015 C20.5853483,53.6498016 20.4067837,55.7103268 18.3426141,56.5274591 C16.6659415,57.1912094 18.3426141,56.5274591 18.3426141,56.5274591 C16.6659415,57.1912094 13.1248898,57.1484499 11.5095347,56.4449608 C9.5395505,55.58703 9.4852342,53.5652734 11.420081,53.1153555 C12.1514455,52.9452885 12.6890822,53.0517219 12.9534047,53.4103243 C12.7750151,52.7728266 12.75,51.4055219 12.75,46.8308701 C12.75,36.8433519 13.3896611,32.1643666 15.2305073,28.6865304 C16.2055151,26.8444496 17.3059772,25.5575888 18.7512584,24.5693479 C19.8732468,23.8022043 19.9341413,23.8054009 19.4999497,24.6087012 C18.4093181,26.626414 17.5818712,35.0371851 17.3739513,46.2189405 C17.2779343,51.3817436 17.2305868,52.8438175 17.0386314,53.4422802 L17.0386314,53.4422802 Z M16.9187722,53.6995967 C16.8260535,54.0721278 16.9810555,54.5424605 17.2509745,54.5424605 C17.3604361,54.5424605 17.4500052,54.6679073 17.4500052,54.8212307 C17.4500052,55.0069299 17.2376973,55.1662698 16.900691,55.2902385 C16.8723395,55.2562715 16.8370171,55.2222931 16.7949497,55.1890664 C16.3693242,54.8528891 16.3920302,54.3528831 16.8588877,53.7805011 C16.8799263,53.7547071 16.8998602,53.7281446 16.9187722,53.6995966 L16.9187722,53.6995967 Z M13.111742,55.3224705 C13.0752313,55.308382 13.0399176,55.2936746 13.0058923,55.2783387 C12.5518303,55.0736808 12.3541379,54.5424605 12.732043,54.5424605 C12.9793096,54.5424605 13.1597629,54.1274322 13.1039526,53.767151 C13.1059191,53.770465 13.1078964,53.7737699 13.1098845,53.7770668 C13.4152363,54.2834258 13.4314637,54.4704385 13.2169774,55.0112483 C13.1742527,55.1189747 13.1386996,55.2252361 13.111742,55.3224705 L13.111742,55.3224705 Z M49.8495796,38.7463225 C49.8820235,36.4238158 49.6932417,35.7099747 49.001037,34.8196461 L48.58859,34.2891326 L49.236966,33.587942 C50.082797,32.6732269 50.471156,31.9400094 50.639614,30.9397072 L50.776651,30.1259648 L50.044937,30.8207415 C49.44579,31.3896429 49.159657,31.5155197 48.465696,31.5155197 C47.778529,31.5155197 47.510105,31.4000657 47.047043,30.9053457 C46.491449,30.3117775 45.506944,29.7406472 44.560217,29.4626939 C44.210481,29.3600198 44.094234,29.4047432 44.094234,29.6419466 C44.094234,29.8157763 43.90105,30.3175501 43.664933,30.7569973 L43.23565,31.5559906 L42.336203,30.6646482 C41.78448,30.1179217 41.129726,29.6923624 40.642682,29.5639457 C39.398265,29.2358443 39.330872,29.2684227 39.330872,30.1979767 C39.330872,31.6079715 38.730422,31.8706674 37.649778,30.9334728 C36.825987,30.2190436 36.142631,30.0637216 34.580537,30.2358723 L33.3740624,30.3688286 L33.5911469,30.9148929 C33.7724635,31.3710182 33.7316018,31.5631102 33.3431213,32.0811516 C32.7130096,32.9213774 31.89373,33.2853508 30.6325581,33.2853508 C30.0516967,33.2853508 29.3248083,33.4058639 29.0172198,33.5531587 C28.7096313,33.7004504 27.9453997,33.8701462 27.3189153,33.9302552 C26.6924293,33.9903722 26.0246896,34.0976596 25.8350659,34.1686853 C25.5383306,34.2798179 25.5057519,34.1882304 25.6013306,33.5115622 C25.7476263,32.4760053 25.0261213,31.7121673 23.901721,31.7121673 C22.4428471,31.7121673 21.7699512,33.0204998 22.3412628,34.7462521 C22.4512165,35.0783991 22.5950892,35.6022163 22.660968,35.9102915 C22.7293338,36.2299055 23.3864697,37.078051 24.1913552,37.8855012 C24.9671821,38.6637932 25.7004071,39.4736358 25.8207742,39.6851463 C25.9411444,39.8966583 26.3390706,40.2360901 26.7050625,40.439437 L27.3705263,40.8091654 L27.282754,40.0953054 C27.1862844,39.3107485 27.3567959,39.187665 27.773153,39.7412946 C27.9219772,39.9392106 28.3000651,40.25911 28.6133073,40.4521785 C29.1067482,40.7563219 29.1828389,40.7625002 29.1828389,40.4984268 C29.1828389,40.3307947 29.28343,39.9445246 29.4063656,39.6400557 L29.629913,39.086471 L30.0177729,39.8396745 C30.231091,40.2539371 30.9248216,41.1954403 31.5593844,41.9319097 C32.7906532,43.3609221 33.5408601,44.9578231 33.1536624,45.3254845 C32.9966159,45.4745913 32.5720973,45.4630509 31.6922407,45.2857593 C31.0101885,45.1483244 30.1665556,45.0756791 29.8174864,45.1243247 C29.1046371,45.2236667 29.0484919,45.1313962 29.4869072,44.5810441 C29.949615,44.0001581 29.876013,43.9043518 28.966997,43.9043518 C27.9153095,43.9043518 25.3043234,43.3988947 24.3020926,43.0012798 C23.3275513,42.6146408 23.1026972,42.7109121 22.815841,43.6376439 C22.6867335,44.0547238 22.4503449,44.8104737 22.2905442,45.3170886 L22,46.2382016 L23.0544,46.1363951 C23.6343305,46.0804006 24.3802096,45.9530999 24.7119275,45.8534997 C25.0436438,45.7539028 25.3451228,45.7009711 25.3818838,45.735873 C25.4186449,45.7707797 25.270793,46.1307042 25.0533359,46.5357065 L24.6579575,47.2720701 L25.3153413,47.1377123 C25.6769207,47.0638147 26.2208962,46.882997 26.5242001,46.7358914 C27.0519583,46.4799237 27.094333,46.4985116 27.5106101,47.1684114 C28.0225043,47.9922334 28.4320098,47.958385 28.5228657,47.0847389 C28.6168083,46.1815594 28.9131293,46.3151539 29.4705666,47.5119994 C30.0065887,48.6628692 30.5642755,49.0692024 30.6714335,48.3869492 C30.7069902,48.1604299 30.9957544,47.7916974 31.3130973,47.5675465 C31.9550139,47.1141456 32.4387435,47.2501742 32.7160963,47.9620538 C33.0031796,48.6989449 32.3629024,49.4584904 30.500447,50.5903859 C26.769721,52.8577335 24.6010654,55.9586926 23.9819524,59.9111934 C23.4235411,63.476207 25.1676142,67.160135 28.6664505,69.806075 C30.3408127,71.072292 33.0006958,72.408674 32.8316797,71.898763 C32.1138629,69.733177 32.1374901,65.601189 32.8717115,64.904052 C32.9818922,64.7994328 32.9439925,65.230585 32.7874849,65.86218 C32.20453,68.214857 32.4577758,70.089464 33.9521265,74.483133 C35.303678,78.456899 35.116602,80.15529 33.2037188,81.277835 C32.5893479,81.63837 32.1938016,81.697779 30.5419309,81.677682 C28.7495591,81.655853 28.5542625,81.692033 27.9788069,82.151742 C27.420933,82.597482 26.697608,84.060901 26.697608,84.743859 C26.697608,85.113814 27.1073597,85.064848 27.9125747,84.598732 C27.9125747,84.598732 27.1073597,85.064848 27.9125747,84.598732 L27.9126754,84.598462 L28.6098863,84.194862 L28.9081554,84.599189 C29.3055234,85.137887 30.405073,85.131792 31.1346755,84.586794 L31.6925686,84.170119 L32.1597098,84.586794 C32.7738952,85.134677 33.920912,85.135403 34.653309,84.588751 C35.166055,84.2058 35.237546,84.198108 35.576573,84.489423 C35.778684,84.663102 36.371475,84.860832 36.893892,84.928813 C37.83476,85.051267 37.849007,85.044542 38.399487,84.216535 C38.860518,83.523094 38.932631,83.242438 38.822618,82.569882 C38.749699,82.124002 38.671143,81.406354 38.648052,80.975125 C38.606279,80.194314 38.610773,80.189457 39.745177,79.793428 C40.371663,79.574716 41.096853,79.281374 41.356706,79.141558 C41.809765,78.897793 43.058823,77.425922 43.058823,77.135827 C43.058823,77.058958 42.570847,76.941203 41.974451,76.874127 C39.602193,76.607355 39.200435,75.330145 40.742606,72.957841 C43.257641,69.088926 44.77531,65.321151 44.785457,62.920961 C44.790015,61.8481258 44.850942,61.4879062 44.98844,61.7212099 C45.550371,62.6746385 44.543686,66.67228 43.018748,69.543046 L42.404729,70.699003 L42.990646,70.563769 C43.312894,70.489395 45.207512,69.687955 47.200876,68.782804 C52.657057,66.305195 54.531111,65.819673 58.062192,65.968789 C61.020488,66.09372 62.280315,66.673163 64.369008,68.869604 C65.475518,70.033191 66.541435,70.865739 68.491326,72.089461 C72.645578,74.696604 72.818819,74.922434 73.016395,77.988453 C73.21656,81.094923 73.116944,81.26345 70.77339,81.782561 C68.770438,82.226238 67.51465,83.16244 67.177861,84.463073 C66.998014,85.157673 67.376492,85.177673 68.386345,84.526964 L69.126447,84.050072 L69.455534,84.526964 C69.888171,85.153937 70.807789,85.156435 71.571418,84.532673 L72.148262,84.061544 L72.737924,84.532673 C73.654128,85.264676 74.872533,85.087162 75.216385,84.171568 C75.282494,83.995588 75.458904,84.051967 75.816135,84.36324 C76.485491,84.946499 78.201337,85.196677 78.386673,84.738074 C78.457398,84.563095 78.323051,84.130961 78.088134,83.777781 C77.089837,82.276963 76.777547,81.561221 76.764541,80.744267 C76.746523,79.607974 77.084638,79.05972 78.373709,78.135613 C79.939605,77.013027 80.423504,75.564714 79.23266,75.564714 C78.497411,75.564714 77.756189,74.913139 77.2835,73.851259 C76.322625,71.692731 76.510943,69.272879 77.953082,65.247295 C79.417897,61.1583698 79.580391,60.4044221 79.586245,57.6697343 C79.591043,55.4586072 79.535465,55.0762336 79.033701,53.8640233 C78.726921,53.1228412 78.104454,52.0192235 77.650443,51.4115461 L76.824953,50.3066776 L77.884801,49.4263481 C81.120949,46.7383656 80.458946,42.3391473 76.563258,40.6441374 C75.371485,40.1255925 75.073712,40.0798027 72.985164,40.0938783 C71.732194,40.1023288 69.82167,40.267639 68.73956,40.4612527 C67.636241,40.6586539 65.768693,40.817308 64.487617,40.8224649 C62.452499,40.8306748 62.107032,40.7803745 61.322733,40.3618242 C60.504947,39.9253996 60.364739,39.7181961 60.204626,38.7094867 C60.171719,38.5021358 60.027121,38.2952884 59.883328,38.2498225 C59.605167,38.1618847 58.320595,39.2796421 58.130804,39.774755 C58.037173,40.0190555 57.960751,40.0021642 57.686052,39.6764296 C57.503616,39.4601199 57.2489,38.9630748 57.119997,38.5718915 C56.795862,37.5880862 57.193894,36.850605 58.347309,36.2979166 L59.242179,35.8691247 L58.714504,35.5408213 C57.625617,34.8633769 55.774121,35.3268014 55.104516,36.4444032 C54.9151,36.760536 54.708495,37.0197556 54.645412,37.0204387 C54.582327,37.0209197 54.222301,36.7195376 53.845331,36.3502486 C52.439435,34.9729445 52.923042,32.9352734 54.803474,32.313158 C55.806202,31.9814135 56.693572,32.2344772 56.878206,32.9048485 C57.160072,33.9283069 58.036284,32.5830056 57.879135,31.3680469 C57.774649,30.560292 57.790349,30.5322948 58.347826,30.5322948 C59.123075,30.5322948 60.773166,31.5524244 61.28353,32.3472245 C61.876321,33.2704093 61.83318,34.7241702 61.180847,35.8076206 L60.668621,36.658367 L61.338659,36.5238393 C62.321196,36.3265728 63.275753,35.7148177 63.758657,34.9729156 C64.269162,34.1885848 64.324066,32.6613786 63.871362,31.837191 C63.432675,31.0384928 63.482982,30.9117003 64.131523,31.1816008 C65.234574,31.6406573 65.824301,32.1469338 66.266649,33.0145684 C66.665011,33.7959391 66.687254,33.9901109 66.471597,34.8033593 C66.338535,35.3051091 66.042481,35.9652516 65.813675,36.2703363 C65.457435,36.7453861 65.445279,36.8250322 65.729115,36.8250322 C66.257724,36.8250322 67.361479,36.3234348 67.7535,35.9050544 C67.951554,35.6936803 68.240296,35.173216 68.395167,34.7484601 L68.676766,33.9761812 L69.000321,34.5648555 C69.457872,35.3972738 70.34738,36.1463388 71.431894,36.6124763 C72.598298,37.113814 73.084055,37.1420614 72.474097,36.673076 C72.06277,36.3568117 71.304835,34.1270471 71.534534,33.908943 C71.669691,33.7806128 73.253382,35.0023031 75.061534,36.62973 C76.771996,38.1692448 77.846818,38.6735105 79.417801,38.6735217 C81.424617,38.6735345 82.593102,36.922054 81.691149,35.265913 C81.165282,34.3003492 79.993791,34.1662127 79.308757,34.9931358 C78.99375,35.3733832 78.907273,35.6758653 78.999539,36.0747005 C79.112549,36.5632808 79.068455,36.6283863 78.624469,36.6283863 C78.041142,36.6283863 76.891265,35.8801199 74.84909,34.1716005 C71.734966,31.5662931 67.951037,29.3579529 65.218812,28.551282 C63.465377,28.0335966 59.71978,27.8315741 57.93735,28.158553 C56.008209,28.5124483 53.726414,29.6193243 52.483341,30.804227 C50.280678,32.9038431 50.245742,35.6978638 52.390353,38.2421209 L53.004684,38.97094 L52.588776,39.6186585 C51.983726,40.5609523 52.035542,41.8290144 52.717266,42.7630693 C53.017522,43.174468 53.32041,43.5108948 53.390349,43.5106767 C53.460286,43.5105163 53.536976,43.2459731 53.560752,42.9229196 C53.620958,42.1056801 53.970795,41.5581261 54.571267,41.3413497 C55.112097,41.1461069 55.461726,41.2383213 57.938053,42.2293136 C60.543157,43.2718329 64.827511,43.3434936 69.383172,42.4207417 C71.616527,41.9683718 74.250004,41.9949804 75.408596,42.481614 C77.532437,43.3736651 78.024574,45.6944528 76.463454,47.45609 C75.787637,48.2187029 75.135864,48.5292667 72.947552,49.131404 C71.282343,49.589601 70.887917,49.6200195 67.103033,49.5821351 C63.869456,49.5497699 62.70736,49.6120277 61.387412,49.888347 C59.954427,50.1883212 59.073059,50.2185698 54.863676,50.1122189 L49.996763,49.989254 L50.536471,50.4373152 C50.833312,50.6837468 51.252695,50.9869505 51.468433,51.1111004 C51.835522,51.3223462 51.823284,51.3507283 51.277672,51.5535573 C50.957014,51.672762 50.245328,51.7702904 49.696132,51.7702904 L48.697627,51.7702904 L48.563258,52.6210641 C48.489344,53.0889928 48.494958,53.6353056 48.575669,53.8350928 C48.694755,54.1297643 48.650371,54.1720808 48.340627,54.0592196 C48.130626,53.9827019 47.54575,53.8322033 47.040914,53.724778 C46.536081,53.6173511 45.856536,53.3986009 45.530805,53.2386656 C44.98306,52.9697112 44.922192,52.9769398 44.720432,53.3349016 C44.540273,53.6545621 42.848886,54.9166591 42.600654,54.9166591 C42.560597,54.9166591 42.508887,54.6733062 42.485752,54.3758784 C42.462619,54.0784473 42.218609,53.3041464 41.943515,52.6552076 C41.668401,52.0062687 41.381148,51.2983321 41.30516,51.0820224 C41.190532,50.755717 41.138631,50.7389684 41.00039,50.983697 C40.908747,51.1459317 40.774937,51.5883887 40.703051,51.9669395 C40.631165,52.3454856 40.376306,52.9604429 40.136688,53.3335114 L39.701028,54.011812 L39.423157,53.4318319 C39.124866,52.8092275 38.629645,52.1635887 38.450355,52.1635887 C38.38984,52.1635887 38.286765,52.3626944 38.221321,52.6060457 C38.084652,53.1142319 36.910339,54.5233656 36.623523,54.5233656 C36.517901,54.5233656 36.431496,54.1251526 36.431496,53.6384485 C36.431496,53.1517444 36.338302,52.7535313 36.224394,52.7535313 C36.110489,52.7535313 36.017291,52.8794787 36.017291,53.0334152 C36.017291,53.4075965 35.014398,54.5233656 34.678063,54.5233656 C34.531289,54.5233656 34.295171,54.6561022 34.153369,54.8183353 C33.7836286,55.2413418 33.4811756,55.1819832 33.636626,54.7169264 C33.7095051,54.4989154 33.662118,53.9900877 33.5313152,53.5861982 C33.4005076,53.1823088 33.2614186,52.7524425 33.2222345,52.6309417 C33.172861,52.4779207 32.8134759,52.5185103 32.0528509,52.7630096 C30.8237139,53.1581023 30.4117247,53.0882038 31.0438644,52.5918274 C31.2749512,52.4103714 31.6264243,51.7818308 31.8249516,51.1950664 C32.0234612,50.6083035 32.3163677,50.0876756 32.4758564,50.0381144 C32.6991736,49.9687115 32.6872889,50.0544766 32.4240807,50.4112791 C32.2361139,50.6660858 32.0817607,51.0097299 32.081057,51.1749391 C32.081057,51.3401484 31.9389004,51.7318367 31.7666936,52.0453574 C31.5945093,52.3588813 31.4862573,52.6463931 31.5261643,52.6842791 C31.5660536,52.7221635 32.0337147,52.5440493 32.5653864,52.2884697 L33.5320589,51.8237834 L33.5359933,52.2394955 C33.5382644,52.4681361 33.6546842,53.0713173 33.794872,53.5798981 L34.049754,54.5045838 L34.707781,54.201364 C35.380285,53.8914705 36.017231,52.7867255 36.017231,51.9301856 C36.017231,51.5067638 36.259145,51.5717603 36.358204,52.0217907 C36.387282,52.1538554 36.53913,52.6495215 36.695656,53.1232693 L36.980258,53.9846261 L37.430789,53.4407779 C37.678585,53.1416599 37.98924,52.5549419 38.121122,52.1369593 C38.350075,51.411352 38.709566,51.0993964 38.709566,51.6263196 C38.709566,52.006033 39.743091,53.3678488 39.942468,53.2508442 C40.038834,53.1943014 40.230712,52.6831855 40.368872,52.1150313 C40.656227,50.9334768 41.119805,50.1298911 41.414367,50.3027506 C41.525125,50.3677487 41.568264,50.4938933 41.510214,50.5830723 C41.452163,50.6722481 41.690207,51.4404348 42.039196,52.2901534 C42.388184,53.1398736 42.738624,53.9953953 42.817967,54.1913164 C42.945435,54.5061151 43.060648,54.4603863 43.808723,53.7980198 C44.27429,53.3857857 44.696864,52.9243175 44.747749,52.7725361 C44.824668,52.5430808 44.928528,52.5514752 45.363878,52.8223346 C45.972697,53.2011131 48.019596,53.8114235 48.17768,53.6613113 C48.23689,53.6050939 48.297592,53.066122 48.312586,52.4635918 L48.339842,51.3680894 L48.928468,51.4904738 C49.25221,51.5577858 49.932936,51.5536487 50.441189,51.4812537 L51.365278,51.3496748 L50.541737,50.7832075 C50.088761,50.4716527 49.630773,50.0684688 49.52397,49.887247 C49.410189,49.6941897 49.007063,49.5302569 48.550402,49.4913494 C47.4947531,49.4014098 45.741553,48.4882792 45.2571412,47.8576906 L45.2571412,47.8576906 C45.1512411,47.7891744 45.0324912,47.707681 44.9092421,47.6181047 L44.111759,47.2863818 L44.108946,48.2150019 C44.106952,48.7257432 44.051902,49.3367421 43.985513,49.5727736 C43.855711,50.034278 43.511203,50.1641061 43.511203,49.7515058 C43.511291,49.4716839 42.694593,48.7133259 41.867028,48.2246975 C41.217122,47.8409522 41.109759,47.8292923 41.1083,48.1422742 C41.106089,48.6174479 40.68615,49.8111894 40.521242,49.8111894 C40.428249,49.8111894 40.290742,49.5779091 40.215646,49.2927931 C40.140545,49.0076755 39.8255,48.4457658 39.515518,48.0441037 L38.951921,47.3138121 L38.513079,47.9904436 C38.103979,48.6212132 37.395307,49.2389915 37.080803,49.2389915 C37.005683,49.2389915 36.990993,48.9067989 37.048136,48.5007852 C37.110225,48.0596533 37.062357,47.7097228 36.929004,47.6312281 C36.806348,47.5589856 36.705992,47.5841888 36.705992,47.6872335 C36.705992,47.9249215 35.721843,49.0482573 35.513601,49.0482573 C35.427795,49.0482573 35.307683,48.7263948 35.246655,48.3330068 C35.185648,47.9396204 35.081947,47.3173535 35.016214,46.9501921 C34.950482,46.5830307 35.09063,46.8320177 35.327676,47.5034934 L35.758672,48.724359 L36.231302,47.980325 C36.491244,47.5711059 36.704389,47.123938 36.70495,46.9866182 C36.70495,46.8492968 36.793438,46.7884544 36.900342,46.8514088 C37.007226,46.9143617 37.156,47.4062608 37.23092,47.9445164 L37.367166,48.9231666 L37.88723,48.3494336 C38.173272,48.0338809 38.508456,47.6114186 38.63207,47.4106295 C38.852644,47.0523503 38.865133,47.0526536 39.303873,47.4270439 C39.549745,47.6368504 39.927759,48.1386924 40.143886,48.5422457 C40.360036,48.9457943 40.565795,49.2462002 40.601164,49.2098099 C40.636511,49.173418 40.715713,48.7574086 40.777181,48.2853439 C40.838629,47.8132792 40.893492,47.4095393 40.899075,47.3881418 C40.929658,47.2711696 42.465656,48.2757681 43.033958,48.7844299 C43.399223,49.1113766 43.746133,49.3331058 43.80484,49.2771564 C43.863566,49.2211992 43.911603,48.7388432 43.911603,48.2052441 C43.911603,47.3783514 43.824495,47.1567248 43.32184,46.704636 C42.743893,46.1848322 42.72772,46.1819767 42.514174,46.5622056 C42.237018,47.0556895 41.910043,47.0628157 41.910043,46.5753632 C41.910043,46.219591 40.817872,44.8521253 40.53373,44.8521253 C40.460072,44.8521253 40.230056,45.1525297 40.022553,45.5196926 C39.815052,45.8868525 39.591918,46.1869132 39.526687,46.1864963 C39.246527,46.18477 37.70683,44.4574371 37.70751,44.1457228 C37.70751,43.8977342 37.811271,43.9611475 38.081202,44.3752922 C38.286301,44.6900019 38.696041,45.1598177 38.99169,45.4193277 C39.590355,45.944802 39.807987,45.8170331 40.039006,44.8044421 C40.104817,44.5159574 40.219207,44.2799274 40.293184,44.2799274 C40.549123,44.2799274 41.889467,45.7122947 42.077972,46.1872584 L42.267221,46.6640916 L42.410571,46.1395753 C42.585849,45.4981801 42.779259,45.4743237 43.059116,46.0595953 C43.176011,46.3040906 43.753419,46.8124072 44.342217,47.189188 L45.1498014,47.5376165 C45.1835849,47.5284614 45.2582183,47.5615489 45.359618,47.628141 L45.4965821,47.6872335 L45.627621,47.1852127 C45.745791,46.8062483 45.902332,46.5884772 45.97549,46.7012766 C46.0707598,46.8481557 45.9345625,47.594754 45.7586976,47.9452901 C45.7732911,47.9584158 45.7880076,47.971795 45.802832,47.9854185 C46.624077,48.7401358 47.765007,49.2138499 48.761481,49.2138499 L49.507113,49.2138499 L49.045854,48.5987819 C48.780885,48.2454655 48.543258,47.5752321 48.487463,47.0238554 C48.398533,46.144969 48.306001,46.0052235 47.390668,45.367227 C46.840874,44.9840035 46.159858,44.4096053 45.877328,44.0907834 L45.363628,43.5111096 L45.101543,44.1993504 C44.957379,44.5778836 44.781194,44.8875927 44.710035,44.8875927 C44.638873,44.8875927 44.361751,44.6663618 44.094234,44.3959723 C43.826701,44.1255811 43.554173,43.9053668 43.488607,43.9066063 C43.423017,43.9077288 43.186029,44.2720565 42.961963,44.7159583 L42.554551,45.5230541 L42.239734,45.0578369 C42.066574,44.8019655 41.657567,44.3492686 41.330844,44.0518375 C41.004118,43.754408 40.832263,43.5110551 40.948964,43.5110551 C41.065646,43.5110551 41.468918,43.8208973 41.845121,44.1995925 L42.529078,44.8881299 L42.807445,44.383675 C42.972629,44.0843181 43.034532,43.6244791 42.959705,43.2526774 C42.850624,42.7107437 42.865951,42.6792461 43.073199,43.0194347 C43.204999,43.235746 43.605121,43.6504591 43.962395,43.9410144 L44.611994,44.4692974 L45.060267,43.6460414 C45.506407,42.8267398 45.509533,42.8251475 45.712517,43.314406 C45.983966,43.9687165 47.948438,45.5832208 49.620917,46.5265104 C49.878697,46.6719003 49.770009,46.1719416 49.293942,45.022276 C49.167858,44.7178071 49.0647,44.168903 49.0647,43.8024923 C49.0647,43.2589006 48.908295,43.016962 48.214873,42.4879206 C47.213804,41.7241387 46.890058,41.1809928 46.70141,39.9487787 C46.624989,39.4496394 46.449801,38.8944928 46.312077,38.7151215 C46.107793,38.4490116 46.074033,38.5979357 46.12869,39.5243259 C46.165532,40.1487567 46.084535,40.9251325 45.948675,41.249602 L45.701683,41.8395446 L45.510755,41.3479241 C45.405753,41.077533 44.941305,40.6073097 44.478618,40.3029835 C44.015949,39.9986573 43.691214,39.698558 43.757011,39.6360966 C43.822786,39.5736353 44.29877,39.8509921 44.814726,40.2524426 C45.600762,40.8640213 45.7739,40.9302381 45.882774,40.66087 C46.010682,40.3443556 45.882614,38.9672776 45.635495,38.0049063 C45.512164,37.5243676 45.522955,37.5269541 46.114212,38.1196515 C46.550288,38.5567881 46.791417,39.0781648 46.978224,39.987808 C47.215542,41.1434242 47.335268,41.3358032 48.401041,42.2740241 C49.04107,42.8374576 49.598052,43.2668091 49.638789,43.228139 C49.679505,43.1894688 49.760277,41.7319606 49.818264,39.9892287 C49.8309939,39.6066968 49.8406197,39.2575331 49.8464814,38.937562 C49.666232,38.8240188 49.3303968,38.5553328 48.85565,38.1291799 C48.85565,38.1291799 50.177435,39.3156701 48.85565,38.1291799 C48.304833,37.6347478 47.925397,37.1630143 48.01243,37.0808819 C48.099463,36.9987513 48.197471,36.9752266 48.230204,37.028601 C48.262938,37.0819755 48.713173,37.5537108 49.230733,38.0768972 C49.5198854,38.3691898 49.724454,38.5925705 49.8495796,38.7463225 L49.8495796,38.7463225 Z M35.002545,40.8154952 L35.033031,40.2343659 L35.117422,40.7956534 C35.16671,41.1234006 35.511217,41.6145538 35.945407,41.9760992 L36.689019,42.5952609 L37.14596,42.0315228 C37.397301,41.7214667 37.606216,41.3521485 37.610246,41.2108221 C37.620822,40.8422951 37.682813,40.8732487 38.558623,41.6837913 C39.336766,42.4039555 39.348895,42.4073968 39.464626,41.9407572 C39.529136,41.6806232 39.506242,41.1908764 39.413752,40.8524314 C39.159499,39.9221274 39.209315,39.781728 39.594582,40.3428043 C39.786525,40.6223526 40.095173,41.0175387 40.280461,41.2209953 C40.602989,41.5751669 40.622669,41.5707869 40.742673,41.1182076 C40.811619,40.8582245 40.869271,40.3823604 40.870797,40.0607416 L40.873657,39.4759749 L41.575267,40.32428 C42.230623,41.1166722 42.291002,41.1459445 42.491023,40.7683825 C42.60881,40.5460714 42.706569,40.0112 42.70828,39.5797817 C42.710512,39.022467 42.765545,38.8818463 42.898431,39.0940546 C43.120349,39.4484207 42.966277,40.4132722 42.556489,41.2355217 L42.262428,41.8255401 L41.876286,41.1841312 C41.382551,40.3639837 41.218184,40.3771473 40.901376,41.2622143 C40.601964,42.0986264 40.407276,42.1622921 40.115537,41.5191751 C39.926748,41.1029755 39.890812,41.1539738 39.756806,42.0283245 L39.607862,43 L38.715471,42.2613149 L37.82306,41.5226299 L37.421877,42.0091281 C37.201223,42.2767046 37.017642,42.6112641 37.01392,42.7525904 C37.005795,43.0589018 36.791147,43.0684715 36.463958,42.7771006 C35.170273,41.6251024 34.973892,41.3614953 35.002545,40.8154952 Z M33.4003869,35.6434645 C33.7597809,35.1142703 33.9239466,35.0424581 34.551493,35.1399524 C34.954055,35.2024913 35.820292,35.6374895 36.476489,36.1066144 C37.234349,36.6484187 38.018237,37.0113756 38.625402,37.1015968 C39.151116,37.1797159 39.581261,37.2091675 39.581261,37.1670471 C39.581261,37.1249286 39.362879,36.6897801 39.095965,36.2000423 C38.462109,35.0370624 38.483813,34.912245 39.19873,35.6090095 C39.932597,36.3242455 40.810402,36.5334247 42.772011,36.4605088 L43.730373,36.4248841 L43.1744,35.7527072 C42.396838,34.8126661 42.636146,34.7283868 43.49483,35.6398545 C44.30017,36.4947016 44.249738,36.5548974 42.554676,36.7618123 C41.834396,36.8497381 41.059805,36.785958 40.415991,36.5857185 C39.452736,36.2861128 39.415347,36.2906742 39.59782,36.6855853 C39.702992,36.9131882 39.873315,37.0994059 39.976313,37.0994059 C40.079332,37.0994059 40.163617,37.214741 40.163617,37.3557033 C40.163617,37.7891889 38.083094,37.407999 37.088896,36.7923584 C34.817629,35.3859186 34.531809,35.26413 33.9912074,35.4724768 C33.690381,35.5884114 33.3892862,35.9277614 33.2855289,36.2678192 C32.9393763,37.4021871 34.254803,38.2839135 34.797365,37.2811978 C34.954618,36.9905537 34.917891,36.7917607 34.641505,36.4380479 C34.263013,35.9536031 34.298519,35.8845795 34.809477,36.1116801 C35.172246,36.2729178 35.221047,37.3380825 34.88359,37.7289601 C34.497468,38.1761797 33.6163249,38.049582 33.2834137,37.4990581 C32.8748334,36.8234198 32.9030566,36.3757913 33.4003869,35.6434645 Z M43.366109,34.530287 C44.994581,34.4976869 45.98356,34.2063255 47.150459,33.4153981 C48.085439,32.7816628 48.33893,32.9063697 47.45147,33.5634756 C46.641871,34.1629169 45.379152,34.6237431 44.160116,34.7646343 C43.569794,34.8328628 42.897035,34.9273771 42.665074,34.9746642 C42.433136,35.021953 42.1848,35.0010981 42.113223,34.9283222 C41.819616,34.6297663 42.04979,34.5566393 43.366109,34.530287 Z M15.4441099,76.591776 C15.6316995,76.367163 15.7852158,76.004459 15.7852158,75.785762 C15.7852158,75.455344 15.9519664,75.36718 16.7719845,75.264061 L17.7587516,75.139976 L17.1006649,74.675604 C16.3188203,74.123935 16.2464888,73.692951 16.9356013,73.691995 C17.6219335,73.691995 18.7842826,73.060929 18.9610018,72.594041 C19.0431326,72.377032 18.9914827,72.087095 18.8441682,71.938239 C18.459413,71.549481 17.7360309,71.608098 17.6016648,72.038933 C17.4572422,72.502072 17.2154391,72.503286 16.6672651,72.043517 C15.8426494,71.351996 15.8241321,69.920611 16.6290307,69.087051 C17.0083727,68.694214 17.0049968,68.668453 16.5213754,68.2629 C16.0011187,67.826626 15.6295758,66.963134 15.8739595,66.758199 C15.9517262,66.692986 16.3627556,66.744954 16.7873646,66.873741 C17.3907183,67.056698 17.6289019,67.059475 17.8774736,66.886417 C18.6304144,66.362402 17.8146707,65.688595 16.6072069,65.837209 C16.1212587,65.897022 15.9205007,65.837209 15.8507126,65.61401 C15.7979256,65.444723 15.3728749,65.223689 14.8939865,65.116511 C14.0382756,64.9249709 14.0322397,64.9273022 14.0322397,65.449335 C14.0322397,66.021383 13.6634534,66.129299 12.9626887,65.762315 C12.3932747,65.464107 11.8410276,65.695613 11.8410276,66.232529 C11.8410276,66.733483 12.4099797,66.980533 13.4296593,66.922359 C14.2117594,66.877725 14.2408578,67.392699 13.4980683,68.132951 L12.9638969,68.665289 L13.3870642,69.203601 C14.0137918,70.000852 13.9610352,71.324966 13.276341,71.982585 L12.7395688,72.498148 L12.3874367,72.084715 C11.8980738,71.510166 11.2287106,71.548679 11.0451584,72.161944 C10.9249676,72.563526 11.0243194,72.747038 11.5922444,73.172562 C11.9739114,73.458532 12.5311402,73.692516 12.8305326,73.692516 C13.5714286,73.692516 13.5424605,74.20843 12.7722935,74.729616 L12.1697114,75.137393 L13.1009772,75.265298 C13.6131725,75.335657 14.0322397,75.468011 14.0322397,75.559388 C14.0322397,75.909854 14.6776487,77 14.8851128,77 C15.0049483,77 15.2564999,76.816232 15.4441099,76.59162 C15.4441099,76.59162 15.2564999,76.816232 15.4441099,76.59162 L15.4441099,76.591776 Z M28.1467283,70.1873443 C28.1467283,70.0716953 27.6836891,69.5381423 27.1177674,69.0016403 C25.926808,67.8726493 24.6313383,65.9712923 24.2956711,64.8596113 C24.1206614,64.2799622 23.1282137,63.6418987 20.7460485,61.2212317 L19.1405499,57.4815956 L16.5995343,57.1319111 C16.5995343,57.1319111 15.455489,57.2895895 15.2086529,57.2935348 C14.7832539,57.3003079 14.7909633,57.3259027 15.3565208,57.7844806 L15.9531965,58.2682765 L17.1603064,59.0072115 C17.1603064,59.0072115 18.7358775,57.630634 19.1405499,58.149414 C19.5452223,58.6681941 17.7910674,59.9861557 17.7910674,59.9861557 C17.7910674,59.9861557 18.8155799,59.1882512 19.1405499,59.6110277 C19.4655199,60.0338042 18.1391802,61.1788344 18.1391802,61.1788344 C18.1391802,61.1788344 18.9637921,60.8369362 19.2545073,61.1788347 C19.5452225,61.5207331 18.5177283,62.8020584 18.5177283,62.8020584 C18.5177283,62.8020584 19.496845,62.5369589 19.1405499,63.478215 C18.7842548,64.419471 17.319937,65.11854 17.319937,65.11854 C17.319937,65.11854 17.3011175,65.055476 17.6901197,65.363266 C18.2530107,65.808676 18.2639322,65.855448 18.2639322,67.820782 C18.2639322,69.463187 18.3272244,69.887087 18.6152337,70.172986 C18.9384353,70.493843 18.9665399,70.494997 18.9665399,70.187344 C18.9665399,69.85129 19.5295689,69.440499 19.9901385,69.440499 C20.1260027,69.440499 20.974835,70.194179 21.8764038,71.115335 C22.7834481,72.04209 23.7325942,72.830705 24.0013292,72.880922 C24.2684643,72.93084 24.5576766,72.983884 24.6440366,72.998801 C24.7303779,73.013744 25.1368871,72.887235 25.5473897,72.717702 C26.3224516,72.397529 28.1467283,70.5549523 28.1467283,70.1873443 Z M17,64.486536 C17,63.8826688 15.7411663,63.2380938 14.2355202,63.0709814 C13.0198931,62.9360574 13,62.9436914 13,63.5445576 C13,64.0419453 13.1911581,64.2376133 14.0303007,64.5991249 C15.3786665,65.179999 17,65.118546 17,64.486536 C17,64.486536 17,65.118546 17,64.486536 Z M18.1854254,64.3496938 C18.9011401,63.7332144 19.2402486,63 18.8096458,63 C18.3144173,63 17,64.1196873 17,64.5415475 C17,65.199995 17.2441381,65.160469 18.1854254,64.3496938 C18.1854254,64.3496938 17.2441381,65.160469 18.1854254,64.3496938 Z M16.2470661,61.876188 C15.0420714,61.2893155 13.6014116,61.0175101 13.2544748,61.3115849 C12.6154236,61.8532455 13.0412279,62.580506 14.0740163,62.7113387 C14.4898196,62.7640038 15.0536352,62.9007527 15.3269172,63.0152304 C16.1206988,63.3476947 16.8755757,63.1961084 16.9465144,62.689979 C16.9920355,62.3650738 16.8056822,62.1482319 16.2470661,61.876188 Z M14.5937875,59.7219476 C13.109719,59.1693319 12.4527856,59.429916 12.9270716,60.3831078 C13.0922894,60.7151551 13.3696015,60.8668401 13.9915043,60.9653638 C14.4540603,61.0386542 15.0862332,61.1819383 15.3963377,61.2837971 C16.2248023,61.5558885 16.7034134,61.4600765 16.7677284,61.0092398 C16.8252001,60.6063681 16.5817211,60.4621964 14.5937875,59.7219476 Z M19.0934531,58.3029128 C19.0934531,57.7057111 17.3866248,58.7622423 17.169053,59.4941016 C16.9080982,60.3719467 17.3311349,60.3348915 18.3077674,59.3943058 C18.7398785,58.9781524 19.0934531,58.4870045 19.0934531,58.3029128 Z M19.0120228,59.7900674 C19.0120228,59.1928657 17.3051945,60.2493969 17.0876227,60.9812562 C16.8266679,61.8591013 17.2497046,61.8220461 18.2263371,60.8814604 C18.6584482,60.465307 19.0120228,59.9741591 19.0120228,59.7900674 Z M19.1296606,61.3815842 C19.1296606,60.7381369 17.4228327,61.8764828 17.205261,62.6650151 C16.9443062,63.6108379 17.3673428,63.5709132 18.3439751,62.5574914 C18.7760861,62.1091123 19.1296606,61.5799314 19.1296606,61.3815842 Z M16.9953469,59.5205823 C17.0698808,58.9851713 16.2475796,58.501656 14.6305103,58.1300079 C13.4440949,57.8573392 12.9208044,58.0119852 13.0096524,58.6089783 C13.0581521,58.9348594 13.4532687,59.1729508 14.5741868,59.5517594 C16.368024,60.1579338 16.9075974,60.1509918 16.9953469,59.5205823 C16.9953469,59.5205823 16.9075974,60.1509918 16.9953469,59.5205823 Z M31.4185625,42.8302471 C29.7486356,42.8302471 28.2534617,42.0211337 25.4858876,40.7722536 C23.8877168,40.0510661 23.335734,39.8853304 23.1440391,40.0691113 C22.6550576,40.5379688 23.0066283,41.7497185 24.2651883,42.3347067 C25.3816958,42.8536545 28.5029438,43.4913088 29.9266978,43.4913088 C30.75268,43.4913088 30.7722031,43.5290461 30.3021627,44.2169013 L29.9564305,44.7228065 L31.1463342,44.7228065 C31.6740606,44.7228063 32.7168953,45.0263377 32.7950726,44.9050479 C32.859869,44.8044285 32.7165554,44.2964379 32.476547,43.7761746 C32.1023647,42.9649853 31.9516437,42.8302471 31.4185625,42.8302471 Z" id="path3018"/></g></g></g></g></svg>