<?xml version="1.0" ?><svg height="180px" version="1.1" viewBox="0 0 180 180" width="180px" xmlns="http://www.w3.org/2000/svg" xmlns:sketch="http://www.bohemiancoding.com/sketch/ns" xmlns:xlink="http://www.w3.org/1999/xlink"><title/><desc/><defs/><g fill="none" fill-rule="evenodd" id="Page-1" stroke="none" stroke-width="1"><g id="Material" transform="translate(-180.000000, -180.000000)"><g id="Slice" transform="translate(180.000000, 180.000000)"/><g id="circle_liberia" transform="translate(180.000000, 180.000000)"><circle cx="90" cy="90" fill="#FFFFFF" id="path-1" r="90"/><path d="M77.0277194,0.927973224 L77.0277194,18 L144.008776,18 C128.965384,6.69761058 110.264848,0 90,0 C85.5948202,0 81.2635607,0.316490361 77.0277194,0.927973224 Z M170.644804,50 L77.0261401,50 L77.0261401,34 L160.460107,34 C164.38941,38.9373397 167.810671,44.2970335 170.644801,49.9999927 Z M179.649302,82 L77.0261401,82 L77.0261401,66 L176.764604,66 C178.189357,71.1621623 179.165765,76.5103376 179.649302,82 Z M3.23539592,114 L176.764604,114 C178.189357,108.837838 179.165765,103.489662 179.649302,98 L0.350697708,98 C0.834235232,103.489662 1.81064331,108.837838 3.23539592,114 Z M19.5398932,146 L160.460107,146 C164.38941,141.06266 167.810671,135.702966 170.644801,130.000007 L9.35519552,130 C12.1893286,135.702966 15.6105896,141.06266 19.5398932,146 Z M144.008776,162 L35.9912238,162 C51.0346164,173.302389 69.7351523,180 90,180 C110.264848,180 128.965384,173.302389 144.008776,162 Z" fill="#F1453D" id="Rectangle-3"/><path d="M0.350697708,82 L77,82 L77,0.931979182 C36.0465608,6.85701162 4.01859663,40.357882 0.350697708,82 Z" fill="#2B98F0" id="Rectangle-21-copy"/><path d="M47.4999996,58.5 L37.8015441,63.7532895 L39.6537838,52.6266448 L31.8075674,44.7467115 L42.6507732,43.1233544 L47.5000002,33 L52.3492301,43.1233569 L63.1924352,44.7467196 L55.3462155,52.6266469 L57.1984556,63.7532897 L47.4999996,58.5 Z" fill="#FFFFFF" id="Star-1"/></g></g></g></svg>