<?xml version="1.0" ?><svg height="180px" version="1.1" viewBox="0 0 180 180" width="180px" xmlns="http://www.w3.org/2000/svg" xmlns:sketch="http://www.bohemiancoding.com/sketch/ns" xmlns:xlink="http://www.w3.org/1999/xlink"><title/><desc/><defs/><g fill="none" fill-rule="evenodd" id="Page-1" stroke="none" stroke-width="1"><g id="Material" transform="translate(-180.000000, -180.000000)"><g id="Slice" transform="translate(180.000000, 180.000000)"/><g id="circle_libya" transform="translate(180.000000, 180.000000)"><path d="M174.873467,120 L5.12100983,120 C17.475726,154.955772 50.8118738,180 89.9972382,180 C129.182603,180 162.51875,154.955772 174.873463,120 L174.873467,120 Z" fill="#4EAB53" id="Rectangle-3-copy-2"/><path d="M5.12100983,120 L174.873467,120 C178.189905,110.616633 179.994476,100.519063 179.994476,90 C179.994476,79.480937 178.189905,69.3833673 174.873463,59.9999996 L5.12100983,60 C1.80457108,69.3833673 0,79.480937 0,90 C0,100.519063 1.80457108,110.616633 5.12101363,120 L5.12100983,120 Z" fill="#262626" id="Rectangle-3-copy-3"/><path d="M5.12100983,60 L174.873467,60 C162.51875,25.0442275 129.182603,0 89.9972382,0 C50.8118738,0 17.475726,25.0442275 5.12101363,59.9999996 L5.12100983,60 Z" fill="#F1453D" id="Rectangle-3"/><path d="M99.5895845,111.655023 C94.9458467,114.402366 89.3928248,116 83.4265674,116 C67.1167703,116 53.895069,104.060928 53.895069,89.3333333 C53.895069,74.6057392 67.1167703,62.6666667 83.4265674,62.6666667 C89.3928248,62.6666667 94.9458467,64.2643012 99.5895845,67.011643 C97.2014062,66.3538522 94.6664264,66 92.0399212,66 C77.7688488,66 66.19986,76.4466886 66.19986,89.3333333 C66.19986,102.219978 77.7688488,112.666667 92.0399212,112.666667 C94.6664264,112.666667 97.2014062,112.312814 99.5895845,111.655023 L99.5895845,111.655023 L99.5895845,111.655023 L99.5895845,111.655023 L99.5895845,111.655023 Z M108.036149,98.7777778 L97.9105457,103.928061 L99.8443634,93.0195863 L91.652577,85.2941616 L102.973349,83.702635 L108.036149,73.7777778 L113.098953,83.7026374 L124.419724,85.2941696 L116.227935,93.0195884 L118.161753,103.928062 L108.036149,98.7777778 L108.036149,98.7777778 L108.036149,98.7777778 L108.036149,98.7777778 Z" fill="#FFFFFF" id="Oval-23"/></g></g></g></svg>