<?xml version="1.0" ?><svg height="180px" version="1.1" viewBox="0 0 180 180" width="180px" xmlns="http://www.w3.org/2000/svg" xmlns:sketch="http://www.bohemiancoding.com/sketch/ns" xmlns:xlink="http://www.w3.org/1999/xlink"><title/><desc/><defs/><g fill="none" fill-rule="evenodd" id="Page-1" stroke="none" stroke-width="1"><g id="Material" transform="translate(-180.000000, -180.000000)"><g id="Slice" transform="translate(180.000000, 180.000000)"/><g id="circle_morocco" transform="translate(180.000000, 180.000000)"><circle cx="90" cy="90" fill="#F1453D" id="Oval-15-copy-4" r="90"/><path d="M89.9850149,44.5 L79.2256152,79.2360537 L44.325,79.2673898 L72.5421999,100.73261 L61.7828002,135.5 C69.0546103,129.923736 82.2228639,119.929935 90.0000001,114.03478 L118.24717,135.484332 L107.4578,100.748278 L135.675,79.2517218 L100.804356,79.2517218 L89.9850149,44.5 L89.9850149,44.5 L89.9850149,44.5 L89.9850149,44.5 Z M89.9850149,68.2840909 L93.416634,79.2360537 L86.5833663,79.2517218 L89.9850149,68.2840909 L89.9850149,68.2840909 L89.9850149,68.2840909 L89.9850149,68.2840909 Z M76.9328741,86.5843664 L74.834941,93.3999656 L65.9187255,86.6157025 L76.9328741,86.5843664 L76.9328741,86.5843664 L76.9328741,86.5843664 L76.9328741,86.5843664 Z M84.3056104,86.5843664 L95.6943899,86.5843664 L99.2159204,97.9280303 L90.0000001,104.947314 L80.7840798,97.9280303 L84.3056104,86.5843664 L84.3056104,86.5843664 L84.3056104,86.5843664 L84.3056104,86.5843664 Z M103.067126,86.5843664 L114.06629,86.5843664 L105.180045,93.3999656 L103.067126,86.5843664 L103.067126,86.5843664 L103.067126,86.5843664 L103.067126,86.5843664 Z M78.5063239,105.292011 L84.0508613,109.475379 L75.1346458,116.259642 L78.5063239,105.292011 L78.5063239,105.292011 L78.5063239,105.292011 L78.5063239,105.292011 Z M101.523647,105.292011 L104.895325,116.259642 L95.9940946,109.491047 L95.9940946,109.475379 L101.523647,105.292011 L101.523647,105.292011 L101.523647,105.292011 L101.523647,105.292011 Z" fill="#4EAB53" id="star"/></g></g></g></svg>