<?xml version="1.0" ?><svg height="180px" version="1.1" viewBox="0 0 180 180" width="180px" xmlns="http://www.w3.org/2000/svg" xmlns:sketch="http://www.bohemiancoding.com/sketch/ns" xmlns:xlink="http://www.w3.org/1999/xlink"><title/><desc/><defs/><g fill="none" fill-rule="evenodd" id="Page-1" stroke="none" stroke-width="1"><g id="Material" transform="translate(-180.000000, -180.000000)"><g id="Slice" transform="translate(180.000000, 180.000000)"/><g id="circle_marshall_islands" transform="translate(180.000000, 180.000000)"><circle cx="90" cy="90" fill="#2B98F0" id="Oval-1" r="90"/><path d="M33.5048685,160.063219 L178.538985,73.7619265 C175.157455,55.2038644 166.084633,38.631343 153.195021,25.9188639 L23.8311318,151.006261 C26.8284878,154.255633 30.0621602,157.283712 33.5048685,160.063219 Z" fill="#FFFFFF" id="Shape"/><path d="M153.189317,25.9132387 L23.7994942,150.971945 C25.1510443,152.43865 26.5507161,153.860329 27.9960043,155.234479 L168.520383,45.9836629 C164.362957,38.5831606 159.189587,31.8300043 153.189317,25.9132387 Z" fill="#FD9727" id="Shape"/><path d="M35,119.5 L33.72,98.212 L29.256,109.94 L31.248,97.556 L23.896,107.724 L29.032,96.276 L19.304,104.196 L27.224,94.468 L15.776,99.596 L25.944,92.252 L13.552,94.244 L25.28,89.78 L4,88.5 L25.28,87.22 L13.552,82.756 L25.944,84.748 L15.776,77.396 L27.224,82.532 L19.304,72.804 L29.032,80.724 L23.896,69.276 L31.248,79.444 L29.256,67.06 L33.72,78.78 L35,57.5 L36.28,78.78 L40.744,67.06 L38.752,79.444 L46.096,69.276 L40.96,80.724 L50.696,72.804 L42.776,82.532 L54.224,77.396 L44.056,84.748 L56.44,82.756 L44.712,87.22 L66,88.5 L44.712,89.78 L56.44,94.244 L44.056,92.252 L54.224,99.596 L42.776,94.468 L50.696,104.196 L40.96,96.276 L46.096,107.724 L38.752,97.556 L40.744,109.94 L36.28,98.212 L35,119.5 L35,119.5 Z" fill="#FFFFFF" id="Shape"/></g></g></g></svg>