<?xml version="1.0" ?><svg height="180px" version="1.1" viewBox="0 0 180 180" width="180px" xmlns="http://www.w3.org/2000/svg" xmlns:sketch="http://www.bohemiancoding.com/sketch/ns" xmlns:xlink="http://www.w3.org/1999/xlink"><title/><desc/><defs/><g fill="none" fill-rule="evenodd" id="Page-1" stroke="none" stroke-width="1"><g id="Material" transform="translate(-180.000000, -180.000000)"><g id="Slice" transform="translate(180.000000, 180.000000)"/><g id="circle_mauritania" transform="translate(180.000000, 180.000000)"><circle cx="90" cy="90" fill="#4EAB53" id="Oval-2" r="90"/><path d="M90.0027615,62 L78.2478695,68.1803406 L80.4928536,55.0901703 L70.9829448,45.8196606 L84.1253171,43.9098287 L90.0027622,32 L95.8802108,43.9098316 L109.022582,45.8196701 L99.5126695,55.0901728 L101.757654,68.1803408 L90.0027615,62 Z M137.906559,41.6376369 C139.268397,46.1866369 140,51.0078809 140,56 C140,83.6142389 117.614239,106 90,106 C62.3857611,106 40,83.6142389 40,56 C40,51.0078809 40.7316032,46.1866369 42.0934408,41.6376369 C42.0314544,42.5842112 42,43.5386236 42,44.5 C42,69.6289574 63.4903307,90 90,90 C116.509669,90 138,69.6289574 138,44.5 C138,43.5386236 137.968546,42.5842112 137.906559,41.6376369 C137.906559,41.6376369 137.968546,42.5842112 137.906559,41.6376369 Z" fill="#FEE94E" id="Star-1"/></g></g></g></svg>