<?xml version="1.0" ?><svg height="180px" version="1.1" viewBox="0 0 180 180" width="180px" xmlns="http://www.w3.org/2000/svg" xmlns:sketch="http://www.bohemiancoding.com/sketch/ns" xmlns:xlink="http://www.w3.org/1999/xlink"><title/><desc/><defs/><g fill="none" fill-rule="evenodd" id="Page-1" stroke="none" stroke-width="1"><g id="Material" transform="translate(-180.000000, -180.000000)"><g id="Slice" transform="translate(180.000000, 180.000000)"/><g id="circle_namibia" transform="translate(270.000000, 270.000000) scale(-1, 1) translate(-270.000000, -270.000000) translate(180.000000, 180.000000)"><circle cx="90" cy="90" fill="#FFFFFF" id="Path" r="90"/><path d="M171.090431,129.090431 L50.9095686,8.90956858 C62.731415,3.20027277 75.9919754,0 90,0 C139.70563,0 180,40.2943701 180,90 C180,104.008025 176.799727,117.268585 171.090431,129.090431 Z" fill="#2B98F0" id="Path-158"/><path d="M129.090431,171.090431 L8.90956858,50.9095686 C3.20027277,62.731415 0,75.9919754 0,90 C0,139.70563 40.2943701,180 90,180 C104.008025,180 117.268585,176.799727 129.090431,171.090431 Z" fill="#4EAB53" id="Path-158"/><path d="M166.088986,138.088986 L41.9110142,13.9110142 C30.4294505,21.182692 20.7069022,30.9814812 13.5253755,42.5253755 L137.474624,166.474624 C149.018519,159.293098 158.817308,149.570549 166.088986,138.088986 Z" fill="#F1453D" id="Path-160"/><path d="M151.464695,52.8862717 L147.714658,42 L143.964621,52.8862717 C145.163206,52.5829154 146.419771,52.4215729 147.714658,52.4215729 C149.009544,52.4215729 150.266109,52.5829154 151.464695,52.8862717 L151.464695,52.8862717 L151.464695,52.8862717 L151.464695,52.8862717 L151.464695,52.8862717 Z M158.178715,56.6034261 L160.357329,45.3875936 L151.667895,52.9392075 C154.154958,53.6056284 156.384752,54.8855629 158.178715,56.6034261 L158.178715,56.6034261 L158.178715,56.6034261 L158.178715,56.6034261 L158.178715,56.6034261 Z M162.167331,63.2095148 L169.612407,54.6426712 L158.400729,56.8204785 C160.1606,58.5770807 161.475913,60.7655425 162.167331,63.2095148 L162.167331,63.2095148 L162.167331,63.2095148 L162.167331,63.2095148 L162.167331,63.2095148 Z M162.2032,71.0045587 L173,67.2853424 L162.269091,63.5888238 C162.560148,64.735812 162.714658,65.9359494 162.714658,67.1715729 C162.714658,68.4973619 162.536776,69.7822967 162.2032,71.0045587 L162.2032,71.0045587 L162.2032,71.0045587 L162.2032,71.0045587 L162.2032,71.0045587 Z M158.206989,77.7125736 L169.612407,79.9280136 L162.11791,71.3043037 C161.388087,73.7679387 160.0223,75.9651393 158.206989,77.7125736 L158.206989,77.7125736 L158.206989,77.7125736 L158.206989,77.7125736 L158.206989,77.7125736 Z M151.984667,81.3153442 L151.575774,81.5514186 L160.357329,89.1830913 L158.141428,77.7753019 C156.430656,79.4022579 154.327301,80.6325221 151.984667,81.3153442 L151.984667,81.3153442 L151.984667,81.3153442 L151.984667,81.3153442 L151.984667,81.3153442 Z M144.447504,81.5706848 L143.925444,81.5706848 L147.714658,92.5706848 L151.503871,81.5706848 L150.981811,81.5706848 C149.930064,81.8004177 148.836749,81.9215729 147.714658,81.9215729 C146.592566,81.9215729 145.499251,81.8004177 144.447504,81.5706848 L144.447504,81.5706848 L144.447504,81.5706848 L144.447504,81.5706848 L144.447504,81.5706848 Z M137.287887,77.7753019 L135.071986,89.1830913 L143.853542,81.5514186 L143.444649,81.3153442 C141.102015,80.6325221 138.998659,79.4022579 137.287887,77.7753019 L137.287887,77.7753019 L137.287887,77.7753019 L137.287887,77.7753019 L137.287887,77.7753019 Z M133.311405,71.3043037 L125.816909,79.9280136 L137.222326,77.7125736 C135.407015,75.9651394 134.041228,73.7679388 133.311405,71.3043037 L133.311405,71.3043037 L133.311405,71.3043037 L133.311405,71.3043037 L133.311405,71.3043037 Z M133.160224,63.5888238 L122.429315,67.2853424 L133.226115,71.0045587 C132.89254,69.7822967 132.714658,68.4973619 132.714658,67.1715729 C132.714658,65.9359494 132.869167,64.735812 133.160224,63.5888238 L133.160224,63.5888238 L133.160224,63.5888238 L133.160224,63.5888238 L133.160224,63.5888238 Z M137.028587,56.8204785 L125.816909,54.6426712 L133.261985,63.2095147 C133.953402,60.7655425 135.268716,58.5770807 137.028587,56.8204785 L137.028587,56.8204785 L137.028587,56.8204785 L137.028587,56.8204785 L137.028587,56.8204785 Z M143.76142,52.9392076 L135.071986,45.3875936 L137.250601,56.6034261 C139.044564,54.8855629 141.274357,53.6056284 143.76142,52.9392076 L143.76142,52.9392076 L143.76142,52.9392076 L143.76142,52.9392076 L143.76142,52.9392076 Z M147.714658,79.9215729 C154.89436,79.9215729 160.714658,74.2132038 160.714658,67.1715729 C160.714658,60.129942 154.89436,54.4215729 147.714658,54.4215729 C140.534956,54.4215729 134.714658,60.129942 134.714658,67.1715729 C134.714658,74.2132038 140.534956,79.9215729 147.714658,79.9215729 C147.714658,79.9215729 140.534956,79.9215729 147.714658,79.9215729 L147.714658,79.9215729 L147.714658,79.9215729 Z" fill="#FEE94E" id="Triangle-5"/></g></g></g></svg>