<?xml version="1.0" ?><svg height="180px" version="1.1" viewBox="0 0 180 180" width="180px" xmlns="http://www.w3.org/2000/svg" xmlns:sketch="http://www.bohemiancoding.com/sketch/ns" xmlns:xlink="http://www.w3.org/1999/xlink"><title/><desc/><defs><linearGradient id="linearGradient-1" x1="-1.12201838%" x2="173.94184%" y1="49.9163207%" y2="49.9163207%"><stop offset="0%" stop-color="#002255"/><stop offset="50%" stop-color="#0044AA"/><stop offset="100%" stop-color="#002255"/></linearGradient><linearGradient id="linearGradient-2" x1="-0.00363773147%" x2="171.202742%" y1="49.9548377%" y2="49.9548377%"><stop offset="0%" stop-color="#002255"/><stop offset="50%" stop-color="#0044AA"/><stop offset="100%" stop-color="#002255"/></linearGradient><linearGradient id="linearGradient-3" x1="-0.0837146461%" x2="100.11341%" y1="49.9857948%" y2="49.9857948%"><stop offset="0%" stop-color="#002255"/><stop offset="50%" stop-color="#0044AA"/><stop offset="100%" stop-color="#002255"/></linearGradient><linearGradient id="linearGradient-4" x1="50.0243825%" x2="50.0243825%" y1="44.4918994%" y2="62.5065184%"><stop offset="0%" stop-color="#F5F549"/><stop offset="100%" stop-color="#97C924"/></linearGradient><linearGradient id="linearGradient-5" x1="50.024472%" x2="50.024472%" y1="44.4780126%" y2="62.491058%"><stop offset="0%" stop-color="#F5F549"/><stop offset="100%" stop-color="#97C924"/></linearGradient><linearGradient id="linearGradient-6" x1="50.0239266%" x2="50.0239266%" y1="44.4780126%" y2="62.491058%"><stop offset="0%" stop-color="#F5F549"/><stop offset="100%" stop-color="#97C924"/></linearGradient><linearGradient id="linearGradient-7" x1="50.0243334%" x2="50.0243334%" y1="44.4780126%" y2="62.491058%"><stop offset="0%" stop-color="#F5F549"/><stop offset="100%" stop-color="#97C924"/></linearGradient><linearGradient id="linearGradient-8" x1="50.0247202%" x2="50.0247202%" y1="44.4919919%" y2="62.5066273%"><stop offset="0%" stop-color="#F5F549"/><stop offset="100%" stop-color="#97C924"/></linearGradient><linearGradient id="linearGradient-9" x1="38.299378%" x2="55.8176394%" y1="75.2751739%" y2="17.2833752%"><stop offset="0%" stop-color="#510000"/><stop offset="29.999718%" stop-color="#8A0000"/><stop offset="100%" stop-color="#AA0000"/></linearGradient><linearGradient id="linearGradient-10" x1="61.0327894%" x2="72.9235312%" y1="65.8424718%" y2="19.6136748%"><stop offset="0%" stop-color="#FF2A2A"/><stop offset="100%" stop-color="#FF0000"/></linearGradient></defs><g fill="none" fill-rule="evenodd" id="Page-1" stroke="none" stroke-width="1"><g id="Material" transform="translate(-180.000000, -180.000000)"><g id="Slice" transform="translate(180.000000, 180.000000)"/><g id="circle_nicaragua" transform="translate(180.000000, 180.000000)"><path d="M174.873467,120 L5.12100983,120 C17.475726,154.955772 50.8118738,180 89.9972382,180 C129.182603,180 162.51875,154.955772 174.873463,120 L174.873467,120 Z" fill="#2B98F0" id="Rectangle-3-copy-2"/><path d="M5.12100983,120 L174.873467,120 C178.189905,110.616633 179.994476,100.519063 179.994476,90 C179.994476,79.480937 178.189905,69.3833673 174.873463,59.9999996 L5.12100983,60 C1.80457108,69.3833673 0,79.480937 0,90 C0,100.519063 1.80457108,110.616633 5.12101363,120 L5.12100983,120 Z" fill="#FFFFFF" id="Rectangle-3-copy-3"/><path d="M5.12100983,60 L174.873467,60 C162.51875,25.0442275 129.182603,0 89.9972382,0 C50.8118738,0 17.475726,25.0442275 5.12101363,59.9999996 L5.12100983,60 Z" fill="#2B98F0" id="Rectangle-3"/><g id="Group" transform="translate(62.000000, 63.000000)"><g transform="translate(6.171753, 4.926391)"><path d="M21.7277061,0 L11.4780406,16.4432174 L1,33.2447636 L21.5038374,33.2427261 L42.4554159,33.2447636 L32.2023699,16.8026021 L21.7277094,0 L21.7277061,0 L21.7277061,0 L21.7277061,0 L21.7277061,0 Z" fill="#E5B731" id="Path"/><g fill="#FFFFFF" id="Path" transform="translate(1.000000, 0.000000)"><path d="M20.7282703,0.87133453 L30.7842551,17.0041457 L40.6175943,32.7755835 L20.5045059,32.7745208 L0.837821664,32.7755835 L10.8971806,16.6448765 L20.7282736,0.87133453 L20.7282703,0.87133453 L20.7282703,0.87133453 L20.7282703,0.87133453 L20.7282703,0.87133453 Z" id="path-3"/></g><path d="M21.744465,0.435667265 L11.7121382,16.5439744 L6.79772591,24.4308797 L36.6912029,24.4308797 L32.0016546,16.9034726 L21.744465,0.435667265 L21.744465,0.435667265 L21.744465,0.435667265 L21.744465,0.435667265 Z" fill="#FFFFFF" id="rect4263-2"/><path d="M6.28641941,29.5587413 C5.36820774,29.5587413 4.30314917,29.7378008 3.43627954,29.809361 L1.43566727,33.0101735 L21.5205503,33.0080512 L42.0532615,33.0101735 L40.0458976,29.7968742 C39.2165288,29.7203972 38.184585,29.5587413 37.3049045,29.5587413 C37.2195268,29.5587413 37.1390491,29.5614828 37.056231,29.5639589 C36.9994164,29.5628093 36.9359805,29.5587413 36.8784502,29.5587413 C36.8402648,29.5587413 36.8077947,29.557857 36.7704312,29.5587413 C36.7330668,29.557857 36.6960957,29.5587413 36.6579112,29.5587413 C36.6002729,29.5587413 36.5470705,29.5628093 36.490256,29.5639589 C36.4074378,29.5615712 36.3280864,29.5587413 36.2427115,29.5587413 C35.0937945,29.5587413 34.1218421,29.8382875 33.02913,29.8384732 C31.9342661,29.8384732 30.9654856,29.5587413 29.8155495,29.5587413 C29.7301708,29.5587413 29.649696,29.5614828 29.5668779,29.5639589 C29.5100634,29.5628093 29.4579834,29.5587413 29.4003479,29.5587413 C29.3621625,29.5587413 29.324068,29.557857 29.2866997,29.5587413 C29.2493363,29.557857 29.2121632,29.5587413 29.1741797,29.5587413 C29.1164437,29.5587413 29.0577165,29.5628093 29.000902,29.5639589 C28.9180838,29.5615712 28.8387324,29.5587413 28.7533575,29.5587413 C27.6046453,29.5587413 26.63351,29.8384732 25.539777,29.8384732 C24.4460392,29.8384732 23.4751096,29.5587413 22.3261958,29.5587413 C22.240817,29.5587413 22.1558418,29.5614828 22.0730231,29.5639589 C22.0163093,29.5628093 21.963106,29.5587413 21.9053659,29.5587413 C21.8672857,29.5587413 21.8303141,29.557857 21.7928456,29.5587413 C21.7554819,29.557857 21.7172825,29.5587413 21.6792019,29.5587413 C21.6215663,29.5587413 21.5682585,29.5628093 21.5115483,29.5639589 C21.4287299,29.5615712 21.3436499,29.5587413 21.2583759,29.5587413 C20.109563,29.5587413 19.1430295,29.8384732 18.0504229,29.8384732 C16.9567864,29.8384732 15.991279,29.5587413 14.8424662,29.5587413 C14.7571918,29.5587413 14.67774,29.5614828 14.5949212,29.5639589 C14.5382073,29.5628093 14.4747747,29.5587413 14.4171391,29.5587413 C14.3789545,29.5587413 14.3464836,29.557857 14.3091196,29.5587413 C14.2717558,29.557857 14.2336572,29.5587413 14.1954722,29.5587413 C14.1378402,29.5587413 14.0856559,29.5628093 14.0289421,29.5639589 C13.9461273,29.5615712 13.8656529,29.5587413 13.780274,29.5587413 C12.630336,29.5587413 11.6616579,29.8385705 10.5666932,29.8384732 C9.47295706,29.8384732 8.50192452,29.5587413 7.35311239,29.5587413 C7.26957708,29.5587413 7.18674822,29.5616596 7.10556737,29.5639589 C7.04793216,29.5628093 6.99749129,29.5587413 6.93903729,29.5587413 C6.89941994,29.5587413 6.85866689,29.557857 6.81976575,29.5587413 C6.78240056,29.557857 6.74430481,29.5587413 6.70612017,29.5587413 C6.64848496,29.5587413 6.59078018,29.5628093 6.53396404,29.5639589 C6.45135057,29.5615712 6.37179714,29.5587413 6.28641941,29.5587413 L6.28641941,29.5587413 L6.28641941,29.5587413 L6.28641941,29.5587413 L6.28641941,29.5587413 Z" fill="#FFFFFF" id="path4911"/><path d="M37.6965889,29.4676583 C37.6965889,29.4676583 38.5644947,29.5119203 38.9287424,29.5497978 C39.292991,29.5876843 39.8749252,29.625374 39.8749252,29.625374 L39.7567243,29.4808028 C39.5727803,29.5412316 38.3408362,29.4244157 37.6965889,29.4676583 C37.6965889,29.4676583 38.3408362,29.4244157 37.6965889,29.4676583 L37.6965889,29.4676583 L37.6965889,29.4676583 L37.6965889,29.4676583 L37.6965889,29.4676583 Z" fill="#FFFFFF" id="path4196-7"/><rect fill="#FF0000" fill-opacity="0" height="2.31238779" id="rect5577-4" width="1.64213046" x="4.35128665" y="9.88629563"/><g transform="translate(7.132855, 0.737283)"><path d="M14.6451227,0 L13.9078396,1.19280862 L14.6451227,17.2591263 L15.3824057,1.19280862 L14.6451227,0 L14.6451227,0 L14.6451227,0 L14.6451227,0 Z M14.6786355,17.2926391 L17.2926391,4.2051692 L16.2399157,2.51346499 L14.6786355,17.2926391 L14.6786355,17.2926391 L14.6786355,17.2926391 L14.6786355,17.2926391 Z M14.6786355,17.3596649 L18.6331538,6.40206939 L17.8629521,5.16098145 L14.6786355,17.3596649 L14.6786355,17.3596649 L14.6786355,17.3596649 L14.6786355,17.3596649 Z M14.6786355,17.2926391 L19.6720527,8.04694313 L19.0647001,7.07121484 L14.6786355,17.2926391 L14.6786355,17.2926391 L14.6786355,17.2926391 L14.6786355,17.2926391 Z M14.6786355,17.2926391 L20.5098743,9.42899161 L20.003725,8.6128067 L14.6786355,17.2926391 L14.6786355,17.2926391 L14.6786355,17.2926391 L14.6786355,17.2926391 Z M14.6786355,17.2926391 L21.2806703,10.6421292 L20.8319452,9.9198085 L14.6786355,17.2926391 L14.6786355,17.2926391 L14.6786355,17.2926391 L14.6786355,17.2926391 Z M14.6786355,17.2926391 L21.9844405,11.7586146 L21.5692873,11.0927588 L14.6786355,17.2926391 L14.6786355,17.2926391 L14.6786355,17.2926391 L14.6786355,17.2926391 Z M14.6786355,17.326152 L22.6546978,12.8117225 L22.2546114,12.1651706 L14.6786355,17.326152 L14.6786355,17.326152 L14.6786355,17.326152 L14.6786355,17.326152 Z M14.6786355,17.2926391 L23.2914423,13.8475063 L22.8922156,13.2040694 L14.6786355,17.2926391 L14.6786355,17.2926391 L14.6786355,17.2926391 L14.6786355,17.2926391 Z M14.6786355,17.2926391 L23.9616996,14.9460496 L23.5460531,14.2764811 L14.6786355,17.2926391 L14.6786355,17.2926391 L14.6786355,17.2926391 L14.6786355,17.2926391 Z M14.6786355,17.2591263 L24.7324955,16.0980265 L24.2793107,15.3824057 L14.6786355,17.2591263 L14.6786355,17.2591263 L14.6786355,17.2591263 L14.6786355,17.2591263 Z M14.6786355,17.284776 L25.5032914,17.4266906 L24.9921703,16.5888689 L14.6786355,17.284776 L14.6786355,17.284776 L14.6786355,17.284776 L14.6786355,17.284776 Z M14.6786355,17.2591263 L26.5086774,18.9347696 L25.8966616,17.9642843 L14.6786355,17.2591263 L14.6786355,17.2591263 L14.6786355,17.2591263 L14.6786355,17.2591263 Z M14.6786355,17.2591263 L27.7151406,20.9120287 L26.9397021,19.6636863 L14.6786355,17.2591263 L14.6786355,17.2591263 L14.6786355,17.2591263 L14.6786355,17.2591263 Z M14.6786355,17.2591263 L29.3572711,23.5260323 L28.2952636,21.8231584 L14.6786355,17.2591263 L14.6786355,17.2591263 L14.6786355,17.2591263 L14.6786355,17.2591263 Z M14.6786355,17.2591263 L25.5699505,23.7941352 L27.9162178,23.7941352 L14.6786355,17.2591263 L14.6786355,17.2591263 L14.6786355,17.2591263 L14.6786355,17.2591263 Z M14.6786355,17.2591263 L22.812929,23.7941352 L24.363854,23.7941352 L14.6786355,17.2591263 L14.6786355,17.2591263 L14.6786355,17.2591263 L14.6786355,17.2591263 Z M14.6786355,17.2591263 L20.8152926,23.7941352 L21.9509276,23.7941352 L14.6786355,17.2591263 L14.6786355,17.2591263 L14.6786355,17.2591263 L14.6786355,17.2591263 Z M14.6786355,17.2591263 L19.2753822,23.7941352 L20.1747457,23.7941352 L14.6786355,17.2591263 L14.6786355,17.2591263 L14.6786355,17.2591263 L14.6786355,17.2591263 Z M14.6786355,17.2591263 L18.0070077,23.7941352 L18.7672053,23.7941352 L14.6786355,17.2591263 L14.6786355,17.2591263 L14.6786355,17.2591263 L14.6786355,17.2591263 Z M14.6786355,17.2591263 L16.8631467,23.7941352 L17.5272292,23.7941352 L14.6786355,17.2591263 L14.6786355,17.2591263 L14.6786355,17.2591263 L14.6786355,17.2591263 Z M14.6786355,17.2591263 L15.840665,23.7941352 L16.4548175,23.7941352 L14.6786355,17.2591263 L14.6786355,17.2591263 L14.6786355,17.2591263 L14.6786355,17.2591263 Z M14.6786355,17.2591263 L14.8725823,23.7941352 L15.4829443,23.7941352 L14.6786355,17.2591263 L14.6786355,17.2591263 L14.6786355,17.2591263 L14.6786355,17.2591263 Z M14.6786355,17.2591263 L13.8743268,23.7941352 L14.4846887,23.7941352 L14.6786355,17.2591263 L14.6786355,17.2591263 L14.6786355,17.2591263 L14.6786355,17.2591263 Z M14.6451227,17.2591263 L12.8689408,23.7941352 L13.4830932,23.7941352 L14.6451227,17.2591263 L14.6451227,17.2591263 L14.6451227,17.2591263 L14.6451227,17.2591263 Z M14.6451227,17.2591263 L11.796529,23.7941352 L12.4606116,23.7941352 L14.6451227,17.2591263 L14.6451227,17.2591263 L14.6451227,17.2591263 L14.6451227,17.2591263 Z M14.6786355,17.2591263 L10.5900658,23.7941352 L11.3493557,23.7941352 L14.6786355,17.2591263 L14.6786355,17.2591263 L14.6786355,17.2591263 L14.6786355,17.2591263 Z M14.6451227,17.2591263 L9.14901257,23.7941352 L10.0494864,23.7941352 L14.6451227,17.2591263 L14.6451227,17.2591263 L14.6451227,17.2591263 L14.6451227,17.2591263 Z M14.6451227,17.2591263 L7.37283064,23.7941352 L8.50753025,23.7941352 L14.6451227,17.2591263 L14.6451227,17.2591263 L14.6451227,17.2591263 L14.6451227,17.2591263 Z M14.6786355,17.2591263 L4.99341712,23.7941352 L6.54452188,23.7941352 L14.6786355,17.2591263 L14.6786355,17.2591263 L14.6786355,17.2591263 L14.6786355,17.2591263 Z M14.6786355,17.2591263 L1.44105326,23.7941352 L3.78732058,23.7941352 L14.6786355,17.2591263 L14.6786355,17.2591263 L14.6786355,17.2591263 L14.6786355,17.2591263 Z M14.6786355,17.2591263 L1.06200575,21.8231584 L0,23.5260323 L14.6786355,17.2591263 L14.6786355,17.2591263 L14.6786355,17.2591263 L14.6786355,17.2591263 Z M14.6786355,17.2591263 L2.41861688,19.66404 L1.64213046,20.9120287 L14.6786355,17.2591263 L14.6786355,17.2591263 L14.6786355,17.2591263 L14.6786355,17.2591263 Z M14.6786355,17.2591263 L3.46066537,17.964714 L2.84859366,18.9347696 L14.6786355,17.2591263 L14.6786355,17.2591263 L14.6786355,17.2591263 L14.6786355,17.2591263 Z M14.6451227,17.284776 L4.33164035,16.5888689 L3.82046679,17.4266906 L14.6451227,17.284776 L14.6451227,17.284776 L14.6451227,17.284776 L14.6451227,17.284776 Z M14.6786355,17.2591263 L5.07801422,15.3824057 L4.71743274,15.9522519 L4.62477558,16.0990459 L14.6786355,17.2591263 L14.6786355,17.2591263 L14.6786355,17.2591263 L14.6786355,17.2591263 Z M14.6451227,17.2926391 L5.77775141,14.2764811 L5.36205865,14.9460496 L14.6451227,17.2926391 L14.6451227,17.2926391 L14.6451227,17.2926391 L14.6451227,17.2926391 Z M14.6786355,17.2926391 L6.4651054,13.2040694 L6.06582885,13.8475063 L14.6786355,17.2926391 L14.6786355,17.2926391 L14.6786355,17.2926391 L14.6786355,17.2926391 Z M14.6786355,17.326152 L7.10159934,12.1651706 L6.70257331,12.8108131 L14.6786355,17.326152 L14.6786355,17.326152 L14.6786355,17.326152 L14.6786355,17.326152 Z M14.6786355,17.2926391 L7.78798378,11.0927588 L7.37283064,11.7586146 L14.6786355,17.2926391 L14.6786355,17.2926391 L14.6786355,17.2926391 L14.6786355,17.2926391 Z M14.6451227,17.2926391 L8.49188858,9.9198085 L8.04308797,10.6422303 L14.6451227,17.2926391 L14.6451227,17.2926391 L14.6451227,17.2926391 L14.6451227,17.2926391 Z M14.6451227,17.2926391 L9.32012937,8.6128067 L8.8138839,9.43095803 L14.6451227,17.2926391 L14.6451227,17.2926391 L14.6451227,17.2926391 L14.6451227,17.2926391 Z M14.6451227,17.2926391 L10.2590581,7.07121484 L9.65170557,8.04694313 L14.6451227,17.2926391 L14.6451227,17.2926391 L14.6451227,17.2926391 L14.6451227,17.2926391 Z M14.6451227,17.3596649 L11.4608061,5.16098145 L10.6906044,6.40113952 L14.6451227,17.3596649 L14.6451227,17.3596649 L14.6451227,17.3596649 L14.6451227,17.3596649 Z M14.6451227,17.2926391 L13.0838425,2.51346499 L12.0311191,4.20711578 L14.6451227,17.2926391 L14.6451227,17.2926391 L14.6451227,17.2926391 L14.6451227,17.2926391 Z" fill="#17C0EB" id="path4332-1" opacity="0.62040818" stroke="#17C0EB" stroke-width="0.5"/><path d="M14.6116115,10.9922202 C11.2192737,10.9922202 8.11722907,12.1444911 5.73436583,14.0500426 L1.24005067,21.2746123 C1.08636188,22.0342612 1.005386,22.817846 1.005386,23.6189093 C1.005386,23.6885247 1.00634109,23.7583003 1.0075488,23.8276481 L2.72373701,23.8276481 C2.72234935,23.7582213 2.7215742,23.6886441 2.7215742,23.6189093 C2.7215742,17.5249178 8.04486843,12.584857 14.6116115,12.584857 C21.1783547,12.584857 26.5016472,17.5249178 26.5016472,23.6189093 C26.5016472,23.6886441 26.5008859,23.7582213 26.4995017,23.8276481 L28.2156881,23.8276481 C28.2168993,23.7583003 28.2178336,23.6885247 28.2178336,23.6189093 C28.2178336,22.8185882 28.1376609,22.0356087 27.9842504,21.2766194 L23.4877759,14.0490391 C21.1050649,12.1440386 18.0034009,10.9922202 14.6116115,10.9922202 L14.6116115,10.9922202 L14.6116115,10.9922202 L14.6116115,10.9922202 L14.6116115,10.9922202 Z" fill="#FF0000" id="path4467-0"/><path d="M14.6456647,11.2268103 C11.0367294,11.2268103 7.76144003,12.5479866 5.35570379,14.6960042 L1.66526034,20.6060381 C1.40955976,21.5605394 1.27348893,22.5585068 1.27348893,23.5860636 C1.27348893,23.6554914 1.27442052,23.7249793 1.27565341,23.7941352 L2.74858407,23.7941352 C2.74719534,23.7249303 2.74641958,23.6555756 2.74641958,23.5860636 C2.74641958,17.5115498 8.07383622,12.5872785 14.6456647,12.5872785 C21.2174931,12.5872785 26.544908,17.5115498 26.544908,23.5860636 C26.544908,23.6555756 26.5441461,23.7249303 26.5427609,23.7941352 L28.0146093,23.7941352 C28.015856,23.7249793 28.0167564,23.6554914 28.0167564,23.5860636 C28.0167564,22.5581697 27.8808096,21.5598233 27.6249885,20.6050377 L23.9345416,14.6960042 C21.5291004,12.5481501 18.2544448,11.2268103 14.6456647,11.2268103 L14.6456647,11.2268103 L14.6456647,11.2268103 L14.6456647,11.2268103 L14.6456647,11.2268103 Z" fill="#FF6600" id="path4464-3"/><path d="M14.6624217,11.4614004 C10.7673035,11.4614004 7.2689497,13.0301151 4.8658816,15.5209964 L2.19498301,19.7955181 C1.77059966,20.9880571 1.54159186,22.2624502 1.54159186,23.5862072 C1.54159186,23.6556235 1.54249882,23.724996 1.54375541,23.7941352 L2.77048647,23.7941352 C2.76909834,23.724978 2.76832293,23.6556711 2.76832293,23.5862072 C2.76832293,17.5158831 8.09343552,12.5950083 14.6624217,12.5950083 C21.2314079,12.5950083 26.5565188,17.5158831 26.5565188,23.5862072 C26.5565188,23.6556711 26.5557572,23.724978 26.5543726,23.7941352 L27.7800201,23.7941352 C27.7812663,23.724996 27.7821664,23.6556235 27.7821664,23.5862072 C27.7821664,22.262005 27.5522835,20.9874035 27.1276917,19.7945185 L24.4578749,15.5199967 C22.0551263,13.0296692 18.5570387,11.4614004 14.6624183,11.4614004 L14.6624183,11.4614004 L14.6624217,11.4614004 L14.6624217,11.4614004 L14.6624217,11.4614004 L14.6624217,11.4614004 Z" fill="#FFFF00" id="path4459-6"/><path d="M14.6451244,11.6959904 C10.1857907,11.6959904 6.25642015,13.7921971 3.9473159,16.9758166 L3.08556601,18.3564637 C2.24756227,19.9347875 1.77618193,21.7097247 1.77618193,23.5863389 C1.77618193,23.6557486 1.77706076,23.7250081 1.77834441,23.7941352 L2.75903092,23.7941352 C2.75764347,23.7250219 2.75686844,23.6557588 2.75686844,23.5863389 C2.75686844,17.5198602 8.07936513,12.6021025 14.6451244,12.6021025 C21.2108837,12.6021025 26.5333787,17.5198602 26.5333787,23.5863389 C26.5333787,23.6557588 26.5326175,23.7250219 26.5312335,23.7941352 L27.5119183,23.7941352 C27.5131984,23.7250081 27.5140634,23.6557486 27.5140634,23.5863389 C27.5140634,21.7129008 27.0443477,19.940773 26.2090026,18.3644559 L25.337525,16.9678245 C23.0276633,13.7885923 19.1008075,11.6959904 14.6451244,11.6959904 L14.6451244,11.6959904 L14.6451244,11.6959904 L14.6451244,11.6959904 L14.6451244,11.6959904 Z" fill="#00FF00" id="path4451-4"/><path d="M14.5953946,11.9305805 C7.62706831,11.9305805 1.97725913,17.1637335 1.97725913,23.6194019 C1.97725913,23.689001 1.9781133,23.758338 1.97942051,23.8276481 L2.71537034,23.8276481 C2.7139836,23.7583851 2.71320896,23.6889721 2.71320896,23.6194019 C2.71320896,17.5397897 8.0329879,12.6113855 14.5953946,12.6113855 C21.1578013,12.6113855 26.4775785,17.5397897 26.4775785,23.6194019 C26.4775785,23.6889721 26.4768177,23.7583851 26.4754344,23.8276481 L27.2103035,23.8276481 C27.2116177,23.758338 27.2124476,23.689001 27.2124476,23.6194019 C27.2124476,17.1637335 21.5637209,11.9305805 14.5953946,11.9305805 L14.5953946,11.9305805 L14.5953946,11.9305805 L14.5953946,11.9305805 L14.5953946,11.9305805 Z" fill="#00CCFF" id="path4366-9"/><path d="M14.6283515,12.1316577 C7.7896305,12.1316577 2.24536206,17.2748908 2.24536206,23.6189524 C2.24536206,23.6887435 2.24618925,23.7581531 2.24752522,23.8276481 L2.73856174,23.8276481 C2.73717386,23.7582356 2.73639859,23.6886725 2.73639859,23.6189524 C2.73639859,17.5262334 8.06056707,12.5871762 14.6283515,12.5871762 C21.196136,12.5871762 26.5203028,17.5262334 26.5203028,23.6189524 C26.5203028,23.6886725 26.5195413,23.7582356 26.5181569,23.8276481 L27.00919,23.8276481 C27.0105398,23.7581531 27.0113704,23.6887435 27.0113704,23.6189524 C27.0113704,17.2748908 21.4671003,12.1316577 14.6283792,12.1316577 L14.6283792,12.1316577 L14.6283515,12.1316577 L14.6283515,12.1316577 L14.6283515,12.1316577 L14.6283515,12.1316577 Z" fill="#0000FF" id="path4495-2"/><path d="M14.6456485,12.3327349 C7.94535929,12.3327349 2.51346499,17.3709192 2.51346499,23.5855638 C2.51346499,23.6552087 2.5142676,23.7247913 2.51562721,23.7941352 L2.76103851,23.7941352 C2.75965123,23.7247641 2.7588763,23.6552427 2.7588763,23.5855638 C2.7588763,17.4964584 8.0807087,12.5603585 14.6456485,12.5603585 C21.2105884,12.5603585 26.532419,17.4964584 26.532419,23.5855638 C26.532419,23.6552427 26.5316579,23.7247641 26.5302741,23.7941352 L26.7746009,23.7941352 C26.7759501,23.7247913 26.7767804,23.6552087 26.7767804,23.5855638 C26.7767804,17.3709192 21.3459655,12.3327349 14.6456762,12.3327349 L14.6456762,12.3327349 L14.6456485,12.3327349 L14.6456485,12.3327349 L14.6456485,12.3327349 L14.6456485,12.3327349 Z" fill="#800080" id="path4436-9"/><path d="M14.6283662,14.1759425 C14.611802,14.1759425 14.5948308,14.1766286 14.5780969,14.1769716 L14.6283662,15.2818671 L14.6786355,14.1769716 C14.6619454,14.1766286 14.6450385,14.1759425 14.6283662,14.1759425 L14.6283662,14.1759425 L14.6283662,14.1759425 L14.6283662,14.1759425 L14.6283662,14.1759425 Z M14.2357129,14.2094554 C14.2044507,14.2132231 14.1732554,14.2171812 14.1424297,14.22194 L14.3435069,15.31538 L14.2357129,14.2094554 L14.2357129,14.2094554 L14.2357129,14.2094554 L14.2357129,14.2094554 Z M15.0210196,14.2094554 L14.9132256,15.31538 L15.1143028,14.22194 C15.0834737,14.2171845 15.0522984,14.2132234 15.0210196,14.2094554 C15.0210196,14.2094554 15.0522984,14.2132234 15.0210196,14.2094554 L15.0210196,14.2094554 L15.0210196,14.2094554 L15.0210196,14.2094554 L15.0210196,14.2094554 Z M13.8356506,14.2764811 C13.8036792,14.2848519 13.7719596,14.2936355 13.7402753,14.3030361 L14.1089168,15.3488929 L13.8356506,14.2764811 L13.8356506,14.2764811 L13.8356506,14.2764811 L13.8356506,14.2764811 Z M15.4210819,14.2764811 L15.1478157,15.3488929 L15.5164572,14.3030361 C15.4847911,14.2936414 15.4530474,14.2848467 15.4210819,14.2764811 C15.4210819,14.2764811 15.4530474,14.2848467 15.4210819,14.2764811 L15.4210819,14.2764811 L15.4210819,14.2764811 L15.4210819,14.2764811 L15.4210819,14.2764811 Z M13.3920787,14.4105326 C13.3627415,14.4230313 13.3333918,14.4359669 13.304608,14.4493601 L13.807301,15.4494315 L13.3920787,14.4105326 L13.3920787,14.4105326 L13.3920787,14.4105326 L13.3920787,14.4105326 Z M15.7969438,14.4105326 L15.3824057,15.4494315 L15.8850987,14.4502891 C15.8560563,14.436572 15.8264121,14.423258 15.7969438,14.4105326 C15.7969438,14.4105326 15.8264121,14.423258 15.7969438,14.4105326 L15.7969438,14.4105326 L15.7969438,14.4105326 L15.7969438,14.4105326 L15.7969438,14.4105326 Z M13.0250953,14.5780969 C12.9948891,14.5946459 12.9654496,14.6119765 12.9359665,14.6293583 L13.6397367,15.5499701 L13.0250953,14.5780969 L13.0250953,14.5780969 L13.0250953,14.5780969 L13.0250953,14.5780969 Z M16.231047,14.5780969 L15.6169958,15.5499701 L16.320766,14.6286386 C16.2912975,14.611165 16.2611583,14.5946908 16.231047,14.5780969 C16.231047,14.5780969 16.2611583,14.5946908 16.231047,14.5780969 L16.231047,14.5780969 L16.231047,14.5780969 L16.231047,14.5780969 L16.231047,14.5780969 Z M12.6777039,14.812687 C12.6517849,14.8324588 12.6260381,14.8522416 12.6008378,14.8727789 L13.4051466,15.6840215 L12.6777039,14.8126887 L12.6777039,14.812687 L12.6777039,14.812687 L12.6777039,14.812687 L12.6777039,14.812687 Z M16.5458338,14.812687 L15.818073,15.6840215 L16.6223818,14.8735258 C16.5971438,14.8527992 16.5716881,14.8325543 16.5458338,14.812687 C16.5458338,14.812687 16.5716881,14.8325543 16.5458338,14.812687 L16.5458338,14.812687 L16.5458338,14.812687 L16.5458338,14.812687 L16.5458338,14.812687 Z M12.4023699,15.1143028 C12.378776,15.137566 12.3554258,15.1612285 12.3327349,15.1851327 L13.2710952,15.8850987 L12.4023699,15.1143028 L12.4023699,15.1143028 L12.4023699,15.1143028 L12.4023699,15.1143028 Z M16.8911402,15.1143028 L16.0526631,15.8850987 L16.9575105,15.185421 C16.9357375,15.1614684 16.9136824,15.1375195 16.8911402,15.1143028 C16.8911402,15.1143028 16.9136824,15.1375195 16.8911402,15.1143028 L16.8911402,15.1143028 L16.8911402,15.1143028 L16.8911402,15.1143028 L16.8911402,15.1143028 Z M12.0854943,15.4159186 C12.066759,15.4410695 12.049071,15.4664598 12.0311191,15.4923279 L13.0365051,16.0526631 L12.0854943,15.4159186 L12.0854943,15.4159186 L12.0854943,15.4159186 L12.0854943,15.4159186 Z M17.1368595,15.4159186 L16.1867145,16.0526631 L17.1921005,15.4919629 C17.1740267,15.4661797 17.1558094,15.4411071 17.1368595,15.4159186 C17.1368595,15.4159186 17.1558094,15.4411071 17.1368595,15.4159186 L17.1368595,15.4159186 L17.1368595,15.4159186 L17.1368595,15.4159186 L17.1368595,15.4159186 Z M11.8730265,15.7510473 C11.8581121,15.7779742 11.8439606,15.805165 11.8300419,15.8324835 L12.9024536,16.2537403 L11.8730265,15.7510473 L11.8730265,15.7510473 L11.8730265,15.7510473 L11.8730265,15.7510473 Z M17.3827242,15.7510473 L16.320766,16.2537403 L17.4266906,15.8329986 C17.4124994,15.8053806 17.3978432,15.7780601 17.3827242,15.7510489 C17.3827242,15.7510489 17.3978432,15.7780601 17.3827242,15.7510489 L17.3827242,15.7510473 L17.3827242,15.7510473 L17.3827242,15.7510473 L17.3827242,15.7510473 Z M11.7261816,16.0861759 C11.715491,16.1150839 11.7056559,16.1442116 11.6959904,16.1735125 L12.8354279,16.4548175 L11.7261816,16.0861759 L11.7261816,16.0861759 L11.7261816,16.0861759 L11.7261816,16.0861759 Z M17.5305212,16.0861759 L16.4213046,16.4548175 L17.5607421,16.1735125 C17.551065,16.1442064 17.5412231,16.1150888 17.5305212,16.0861759 C17.5305212,16.0861759 17.5412231,16.1150888 17.5305212,16.0861759 L17.5305212,16.0861759 L17.5305212,16.0861759 L17.5305212,16.0861759 L17.5305212,16.0861759 Z M11.6123857,16.5218432 C11.6063296,16.5527757 11.6004765,16.5838175 11.5954518,16.6150365 L12.7684022,16.7564333 L11.6123857,16.5218432 L11.6123857,16.5218432 L11.6123857,16.5218432 L11.6123857,16.5218432 Z M17.6123848,16.5218432 L16.4883303,16.7564333 L17.6277678,16.6150365 C17.6230415,16.5837657 17.618082,16.5526509 17.6123848,16.5218432 C17.6123848,16.5218432 17.618082,16.5526509 17.6123848,16.5218432 L17.6123848,16.5218432 L17.6123848,16.5218432 L17.6123848,16.5218432 L17.6123848,16.5218432 Z M11.5652631,16.8904847 C11.5637838,16.9238861 11.5623292,16.9573282 11.561939,16.9910233 L12.7348893,16.9742669 L11.5652649,16.8904847 L11.5652631,16.8904847 L11.5652631,16.8904847 L11.5652631,16.8904847 L11.5652631,16.8904847 Z M17.6914644,16.8904847 L16.5218432,16.9742669 L17.6947935,16.9910233 C17.6944029,16.9573285 17.6929434,16.9238864 17.6914662,16.8904847 C17.6914662,16.8904847 17.6929434,16.9238864 17.6914662,16.8904847 L17.6914644,16.8904847 L17.6914644,16.8904847 L17.6914644,16.8904847 L17.6914644,16.8904847 Z M12.7348893,17.1921005 L11.561939,17.2670361 C11.5651893,17.2980012 11.5687769,17.3289023 11.5730887,17.3596649 L12.7348893,17.1921005 L12.7348893,17.1921005 L12.7348893,17.1921005 L12.7348893,17.1921005 Z M16.5218432,17.1921005 L17.6836332,17.3596649 C17.6879491,17.3289023 17.6915404,17.2980012 17.6947935,17.2670361 L16.5218432,17.1921005 L16.5218432,17.1921005 L16.5218432,17.1921005 L16.5218432,17.1921005 Z M12.801915,17.4266906 L11.6624776,17.6419887 C11.6700875,17.6709667 11.6771456,17.6998012 11.6857314,17.7283064 L12.801915,17.4266906 L12.801915,17.4266906 L12.801915,17.4266906 L12.801915,17.4266906 Z M16.4548175,17.4266906 L17.5710011,17.7283064 C17.579589,17.6997926 17.5866419,17.670973 17.5942549,17.6419887 L16.4548175,17.4266906 L16.4548175,17.4266906 L16.4548175,17.4266906 L16.4548175,17.4266906 Z M12.8689408,17.6612807 L11.7630162,18.0153847 C11.7750623,18.0426674 11.7871837,18.0701809 11.8001428,18.0969479 L12.8689408,17.6612807 L12.8689408,17.6612807 L12.8689408,17.6612807 L12.8689408,17.6612807 Z M16.3877917,17.6612807 L17.4553083,18.0969479 C17.4686544,18.0699161 17.4813965,18.042348 17.4937163,18.0150105 L16.3877917,17.6612807 L16.3877917,17.6612807 L16.3877917,17.6612807 L16.3877917,17.6612807 Z M16.2872531,17.8958707 L17.27572,18.4655895 C17.2929384,18.4403612 17.3098592,18.4149057 17.326152,18.3892251 L16.2872531,17.8958707 L16.2872531,17.8958707 L16.2872531,17.8958707 L16.2872531,17.8958707 Z M13.0029922,17.8958707 L11.9640934,18.3889547 C11.9802616,18.4146946 11.9966102,18.4404275 12.0136183,18.4655895 L13.0029922,17.8958707 L13.0029922,17.8958707 L13.0029922,17.8958707 L13.0029922,17.8958707 Z M13.1370437,18.0969479 L12.1986834,18.6991939 C12.2184689,18.7222873 12.2392494,18.744789 12.2597601,18.7672053 L13.1370437,18.0969479 L13.1370437,18.0969479 L13.1370437,18.0969479 L13.1370437,18.0969479 Z M16.1196888,18.0969479 L16.9958619,18.7672053 C17.0166189,18.7448356 17.0381872,18.7229322 17.0580491,18.7000808 L16.1196888,18.0969479 L16.1196888,18.0969479 L16.1196888,18.0969479 L16.1196888,18.0969479 Z M13.3381209,18.2980251 L12.5002992,19.070825 C12.5235595,19.0928156 12.5473042,19.1145415 12.5713199,19.1358468 L13.3381209,18.2980251 L13.3381209,18.2980251 L13.3381209,18.2980251 L13.3381209,18.2980251 Z M15.9521245,18.2980251 L16.7189255,19.1358468 C16.7429376,19.1145249 16.7667046,19.0927413 16.7899461,19.0707422 L15.9521245,18.2980251 L15.9521245,18.2980251 L15.9521245,18.2980251 L15.9521245,18.2980251 Z M13.5391981,18.4320766 L12.801915,19.2821787 C12.8290183,19.300461 12.8558602,19.3193781 12.8837091,19.336924 L13.5391981,18.4320766 L13.5391981,18.4320766 L13.5391981,18.4320766 L13.5391981,18.4320766 Z M15.7175344,18.4320766 L16.3726435,19.336924 C16.4006006,19.3194732 16.4277457,19.3010502 16.4548175,19.2829652 L15.7175344,18.4320766 L15.7175344,18.4320766 L15.7175344,18.4320766 L15.7175344,18.4320766 Z M13.7067624,18.5661281 L13.1370437,19.5272518 C13.1649714,19.5426149 13.1934028,19.5571427 13.2216448,19.5715141 L13.7067624,18.5661281 L13.7067624,18.5661281 L13.7067624,18.5661281 L13.7067624,18.5661281 Z M15.5164572,18.5661281 L16.0023305,19.5380012 C16.0304156,19.5243529 16.0585494,19.5106041 16.0861759,19.4961013 L15.5164572,18.5661297 L15.5164572,18.5661281 L15.5164572,18.5661281 L15.5164572,18.5661281 L15.5164572,18.5661281 Z M13.9748654,18.6666667 L13.5391981,19.6752861 C13.5695079,19.686163 13.600796,19.6955774 13.6316124,19.7055655 L13.9748654,18.6666683 L13.9748654,18.6666667 L13.9748654,18.6666667 L13.9748654,18.6666667 L13.9748654,18.6666667 Z M15.2818671,18.6666667 L15.6251201,19.7055655 C15.6559411,19.6955754 15.6872208,19.6861636 15.7175344,19.6752861 L15.2818671,18.6666683 L15.2818671,18.6666667 L15.2818671,18.6666667 L15.2818671,18.6666667 L15.2818671,18.6666667 Z M14.2094554,18.7336924 L13.9413525,19.7884213 C13.9707195,19.7949322 14.0004877,19.8004782 14.0303751,19.8061041 L14.2094554,18.7336924 L14.2094554,18.7336924 L14.2094554,18.7336924 L14.2094554,18.7336924 Z M15.0137642,18.7336924 L15.1928446,19.8061041 C15.2227734,19.8004676 15.252465,19.7949339 15.2818671,19.7884213 L15.0137642,18.7336924 L15.0137642,18.7336924 L15.0137642,18.7336924 L15.0137642,18.7336924 Z M14.4775583,18.7672053 L14.3435069,19.8324539 C14.3774596,19.835126 14.4113647,19.837909 14.4454777,19.839617 L14.4775583,18.7672053 L14.4775583,18.7672053 L14.4775583,18.7672053 L14.4775583,18.7672053 Z M14.7791741,18.7672053 L14.8112548,19.839617 C14.8453282,19.8379175 14.8793238,19.8351247 14.9132256,19.8324539 L14.7791741,18.7672069 L14.7791741,18.7672053 L14.7791741,18.7672053 L14.7791741,18.7672053 L14.7791741,18.7672053 Z" fill="#FFFFFF" id="path4433-7"/></g><g id="g4092" transform="translate(1.536206, 24.497905)"><path fill="url(#linearGradient-1)" id="rect4181"/><path fill="url(#linearGradient-2)" id="path5179"/><path fill="url(#linearGradient-3)" id="path4909"/></g><g id="mountain" transform="translate(1.843208, 21.280670)"><path d="M34.4869566,6.93716338 C33.4516206,6.99643752 32.6626334,7.14981271 31.5610077,7.18378648 C31.4840788,7.18618589 31.4116923,7.18467515 31.3373204,7.18485289 C31.3282012,7.18574155 31.3194394,7.18574155 31.3103421,7.18591929 C31.2780088,7.18751889 31.2457041,7.19213996 31.2125507,7.19427277 C31.1862099,7.19516143 31.1616127,7.1957835 31.1361141,7.19640557 C31.0974355,7.19756084 31.059318,7.19987137 31.0214558,7.20058231 C30.9836289,7.20227078 30.9443501,7.20253738 30.9056782,7.20369264 C30.8850422,7.20458131 30.865928,7.20582545 30.8461008,7.20582545 C30.825699,7.20706958 30.8065409,7.20724732 30.7865272,7.20795825 C30.7478553,7.20911352 30.7097235,7.21044652 30.6718727,7.21106859 C30.6340315,7.21266819 30.5958921,7.21302366 30.5572173,7.21417893 C30.5332759,7.21515646 30.5097474,7.21551193 30.4852773,7.21631173 C30.4527136,7.21631173 30.4208869,7.21391233 30.3874811,7.21417893 C30.3783714,7.21506759 30.369601,7.21417893 30.3605037,7.21524533 C30.2862073,7.21968867 30.2139576,7.22541169 30.1368165,7.22778443 C29.0345685,7.26178486 27.9456801,7.09940747 26.9073713,7.10448176 C25.8705823,7.16379146 24.9333494,7.44984476 23.8319235,7.48381853 C23.7564485,7.48612907 23.6809515,7.48568474 23.6082334,7.48595134 C23.5971411,7.48684 23.5867275,7.48684 23.5756362,7.48701774 C23.544017,7.48861734 23.5131166,7.49323841 23.4823385,7.49537122 C23.4566296,7.49625988 23.4309981,7.49688195 23.4059019,7.49750402 C23.3674394,7.49865929 23.3347189,7.49999229 23.2968672,7.50061436 C23.2590384,7.50221396 23.2208866,7.50363583 23.1822128,7.5047911 C23.1603418,7.50567976 23.1393187,7.50683503 23.1170166,7.5069239 C23.0972208,7.50816803 23.07695,7.5069239 23.0563169,7.5079903 C23.0176422,7.50914557 22.985134,7.5114561 22.9472822,7.51216704 C22.9094429,7.51376664 22.8713016,7.51412211 22.8326278,7.51527738 C22.8058865,7.51661038 22.7783537,7.51652151 22.7505705,7.51741018 C22.7191376,7.51741018 22.6889933,7.51509964 22.6583969,7.51527738 C22.6477271,7.51616604 22.6354582,7.51527738 22.6246747,7.51634378 C22.5520244,7.52060938 22.4763706,7.52655457 22.4009855,7.52888288 C21.2993684,7.56285665 20.360254,7.40094137 19.3232895,7.40557133 C18.2879527,7.46484547 17.3538651,7.55029978 16.2523378,7.58427355 C16.1753096,7.58667295 16.1031243,7.58605089 16.0286485,7.58640635 C16.0195273,7.58729502 16.0108691,7.58729502 16.0016709,7.58747275 C15.9693254,7.58907236 15.9371408,7.59262703 15.903877,7.59475983 C15.8775465,7.5956485 15.8530515,7.59733697 15.8274405,7.59787017 C15.7888708,7.5991143 15.7507409,7.60026957 15.7127855,7.60098051 C15.6750615,7.60266898 15.6367004,7.60293558 15.5981307,7.60409084 C15.5773929,7.60497951 15.5573528,7.60622365 15.5374311,7.60622365 C15.5171248,7.60755665 15.49786,7.60764552 15.4778555,7.60835645 C15.4392858,7.60951172 15.4010521,7.61075585 15.3632007,7.61146679 C15.3253723,7.61306639 15.2872235,7.61448826 15.2485458,7.61564353 C15.224808,7.61662106 15.2009757,7.61697653 15.1766055,7.61777633 C15.1440299,7.61777633 15.1121992,7.61528806 15.0788117,7.61564353 C15.0696848,7.61653219 15.0609273,7.61564353 15.051834,7.61670993 C14.977528,7.62115327 14.905173,7.62583655 14.8281447,7.6282004 C13.7267253,7.66217418 12.774762,7.56711337 11.7369598,7.57176999 C10.7005906,7.63107969 9.76415955,7.85130047 8.66263593,7.88527425 C8.58560045,7.88767365 8.51331808,7.88714045 8.4389465,7.88740705 C8.4299295,7.88829572 8.42109163,7.88829572 8.4119689,7.88847345 C8.3785951,7.89007305 8.34569246,7.89362772 8.31305096,7.89576053 C8.28858337,7.8966492 8.2659794,7.89833766 8.24223476,7.89887087 C8.20356068,7.900115 8.16543452,7.90127027 8.12757984,7.9019812 C8.08974428,7.9035808 8.0572194,7.90393627 8.01854532,7.90509154 C7.99739384,7.90598021 7.9749258,7.90713548 7.95334943,7.90713548 C7.93345333,7.90837961 7.91328336,7.90855734 7.89264979,7.90926828 C7.85397581,7.91042355 7.81584965,7.91166768 7.77799497,7.91237862 C7.74015941,7.91397822 7.7076309,7.91433369 7.66896046,7.91548895 C7.64159477,7.91682196 7.61499982,7.91771062 7.58690354,7.91859929 C7.55463723,7.91859929 7.52053685,7.91619989 7.48910973,7.91646649 C7.47998949,7.91735516 7.47001822,7.91646649 7.461008,7.91753289 C7.38659732,7.92197623 7.31435377,7.92664174 7.23731867,7.92902337 C6.13475866,7.9630238 5.19014866,7.80086857 4.15287813,7.80571181 C3.14033167,7.86367073 2.98896858,7.98985268 1.97443585,8.17564648 L1.2010772,9.4171155 C2.10566932,9.27767462 3.46408211,8.91262763 4.58957845,8.91185449 C5.75670375,8.91096582 7.16474704,9.17928132 8.55247728,9.18303149 C10.1667004,9.18738597 10.7753978,8.86349319 12.0775521,8.74307869 C13.3797065,8.62268196 14.6259532,8.89936871 15.8712791,8.90454075 C16.8733736,8.90240795 18.4001127,8.58188322 19.6863632,8.4567499 C20.9726142,8.33161657 22.1516945,8.54367939 23.7021123,8.56596718 C25.2525291,8.58826386 25.4959031,8.21653408 27.390722,8.17773484 C29.4189596,8.13619851 29.6042532,8.4379368 31.4002684,8.4379368 C32.7517471,8.50554665 33.912003,8.18493305 35.117556,8.10562833 C36.32311,8.02632361 36.8822559,8.11836294 37.7636146,8.13802916 L37.1779731,7.17452657 C37.1682181,7.17452657 37.1585855,7.17541523 37.1487474,7.17559297 C36.0473205,7.20955785 35.5238067,6.93269338 34.4869566,6.93732334 C34.4869566,6.93732334 35.5238067,6.93269338 34.4869566,6.93732334 L34.4869566,6.93716338 L34.4869566,6.93716338 L34.4869566,6.93716338 L34.4869566,6.93716338 Z" fill="#97C924" id="path4909-8-8"/><path d="M29.6533764,0 C29.1087752,0 28.9421415,0.25416207 28.9421415,0.25416207 C28.0699008,3.37217593 25.1789322,6.54355003 21.739168,6.54355003 L19.1639737,6.54355003 L19.1639737,9.7183382 C19.1639737,9.71922267 19.1675534,9.7183382 19.1693948,9.7183382 L38.7690006,9.7183382 L36.797328,6.48886309 C33.7034125,6.0617247 31.175477,3.1358979 30.3701346,0.25416207 C30.370039,0.25416207 30.1979775,0 29.6533764,0 L29.6533764,0 L29.6533764,0 L29.6533764,0 L29.6533764,0 Z" fill="url(#linearGradient-4)" id="path4343"/><path d="M29.6576782,0.134051466 C29.4076643,0.134051466 29.2558963,0.187407711 29.1671681,0.238877043 C29.0830458,0.287591304 29.0668762,0.320288946 29.0648291,0.323797011 C29.0648291,0.325745936 29.0600177,0.326720398 29.0592046,0.32875791 C28.6129046,1.900424 27.6715921,3.47900878 26.4019774,4.67147612 C25.1227416,5.87322743 23.5100861,6.68810832 21.7451508,6.68810832 L19.2980251,6.68810832 L19.2980251,9.6181927 L38.7019749,9.6181927 L36.8908848,6.64820851 C35.3962252,6.46756976 34.0297975,5.71419517 32.9185003,4.67147612 C31.6476565,3.47900878 30.7081863,1.90061004 30.2612722,0.32875791 C30.2612722,0.32875791 30.2560494,0.323885598 30.2558485,0.323797011 C30.2536963,0.320253511 30.2336411,0.292995141 30.1480859,0.243899954 C30.0578234,0.192058555 29.907692,0.134051466 29.6576782,0.134051466 L29.6576782,0.134051466 L29.6576782,0.134051466 L29.6576782,0.134051466 L29.6576782,0.134051466 Z" fill="#97C924" id="path4248"/><path d="M25.4754649,0.255180899 C26.3469626,3.37279389 29.2329292,6.54395648 32.6725834,6.54395648 L35.2501496,6.54395648 L35.2501496,9.71833824 C35.2501496,9.71922262 35.2457516,9.71833824 35.2449294,9.71833824 L14.2764139,9.71833824 C14.2746766,9.71833824 14.2710952,9.71922262 14.2710952,9.71833824 L14.2710952,6.54395648 L16.8433427,6.54395648 C20.2829966,6.54395648 23.1736678,3.37270545 24.0458817,0.255180899 C24.0458817,0.255180899 24.2160895,0 24.7606733,0 C25.3052571,0 25.4754649,0.255180899 25.4754649,0.255180899 L25.4754649,0.255180899 L25.4754649,0.255180899 L25.4754649,0.255180899 L25.4754649,0.255180899 Z" fill="url(#linearGradient-5)" id="path4339"/><path d="M24.7603692,0.134051466 C25.0102859,0.134051466 25.1603589,0.192059096 25.2506886,0.24390098 C25.3364153,0.292996625 25.3563641,0.320290686 25.3584094,0.323798783 L25.3640318,0.328759729 C25.8105676,1.90053795 26.7498774,3.47904002 28.0202275,4.6715185 C29.3001929,5.87328104 30.9164166,6.68816954 32.6806661,6.68816954 L35.1160981,6.68816954 L35.1160981,9.6181927 L14.4051466,9.6181927 L14.4051466,6.68816954 L16.8512196,6.68816954 C18.6155717,6.68816954 20.2274978,5.87318359 21.5063388,4.6715185 C22.7754602,3.47904002 23.716408,1.90053795 24.1625336,0.328759729 C24.1635567,0.326722198 24.1673432,0.325836314 24.1679551,0.323798783 C24.1701066,0.32025525 24.1863693,0.287690185 24.270459,0.238878022 C24.3591527,0.18740821 24.5108617,0.134051466 24.7607784,0.134051466 L24.7607784,0.134051466 L24.7603692,0.134051466 L24.7603692,0.134051466 L24.7603692,0.134051466 L24.7603692,0.134051466 Z" fill="#97C924" id="path4224"/><path d="M20.5824299,0.255180899 C21.4539238,3.37279389 24.3398753,6.54395648 27.7795128,6.54395648 L30.3572711,6.54395648 L30.3572711,9.71833824 C30.3572711,9.71922262 30.3526724,9.71833824 30.3518501,9.71833824 L9.38353531,9.71833824 C9.38169294,9.71833824 9.37821664,9.71922262 9.37821664,9.71833824 L9.37821664,6.54395648 L11.9505542,6.54395648 C15.3900888,6.54395648 18.2807466,3.37270545 19.1530582,0.255180899 C19.1530582,0.255180899 19.3232654,0 19.8678464,0 C20.4124276,0 20.5826348,0.255180899 20.5826348,0.255180899 L20.5826348,0.255180899 L20.5824299,0.255180899 L20.5824299,0.255180899 L20.5824299,0.255180899 L20.5824299,0.255180899 Z" fill="url(#linearGradient-6)" id="path4335"/><path d="M19.8676415,0.134051466 C20.1174544,0.134051466 20.2675265,0.192059096 20.3579584,0.24390098 C20.4435823,0.292996625 20.4635303,0.320290686 20.4657809,0.323798783 L20.4712025,0.328759729 C20.917941,1.90053795 21.8570413,3.47904002 23.1273848,4.6715185 C24.4075482,5.87328104 26.023558,6.68816954 27.7880029,6.68816954 L30.2232196,6.68816954 L30.2232196,9.6181927 L9.5122681,9.6181927 L9.5122681,6.68816954 L11.9583281,6.68816954 C13.722671,6.68816954 15.3345891,5.87318359 16.6134228,4.6715185 C17.8825383,3.47904002 18.8233782,1.90053795 19.2696044,0.328759729 C19.2706265,0.326722198 19.274412,0.325836314 19.2750259,0.323798783 C19.2770731,0.32025525 19.2933376,0.287690185 19.3773247,0.238878022 C19.4661198,0.18740821 19.6178283,0.134051466 19.8676415,0.134051466 L19.8676415,0.134051466 L19.8676415,0.134051466 L19.8676415,0.134051466 L19.8676415,0.134051466 Z" fill="#97C924" id="path4187"/><path d="M17.9239976,3.61938959 C17.6038869,4.42231458 16.3943976,5.60998646 15.0999076,6.58317444 C14.7324264,6.59349501 14.5378171,6.61290584 14.2040694,6.59424737 C14.9924523,6.52777435 16.8307815,5.09464799 17.9239976,3.61938959 L17.9239976,3.61938959 L17.9239976,3.61938959 L17.9239976,3.61938959 L17.9239976,3.61938959 Z" fill="#9ECB34" id="path4207"/><path d="M15.7231662,0.255180899 C16.5946593,3.37279389 19.4806116,6.54395648 22.9201462,6.54395648 L25.4979054,6.54395648 L25.4979054,9.71833824 C25.4979054,9.71922262 25.4933067,9.71833824 25.4924845,9.71833824 L4.52416966,9.71833824 C4.52243246,9.71833824 4.51885099,9.71922262 4.51885099,9.71833824 L4.51885099,6.54395648 L7.09118846,6.54395648 C10.5307234,6.54395648 13.4212786,3.37270545 14.2936923,0.255180899 C14.2936923,0.255180899 14.4638995,0 15.0084808,0 C15.5531639,0 15.7232688,0.255180899 15.7231667,0.255180899 L15.7231667,0.255180899 L15.7231662,0.255180899 L15.7231662,0.255180899 L15.7231662,0.255180899 L15.7231662,0.255180899 Z" fill="url(#linearGradient-7)" id="path4545-6-5"/><path d="M14.9760482,0.134051466 C14.7261042,0.134051466 14.576015,0.192058555 14.4856753,0.243899954 C14.4000416,0.292995141 14.3800909,0.320288946 14.3779426,0.323797011 L14.3725205,0.32875791 C13.9257316,1.90052145 12.9865238,3.47900878 11.7160356,4.67147612 C10.4358279,5.87322743 8.81942869,6.68820576 7.05498679,6.68820576 L4.61938959,6.68820576 L4.61938959,9.6181927 L25.3326042,9.6181927 L25.3973668,6.68820576 L22.9509244,6.68820576 C21.1864825,6.68820576 19.5096184,5.87322743 18.2306382,4.67156471 C16.9613778,3.47909737 16.0204308,1.90061004 15.5741536,0.328846498 C15.5731314,0.326897573 15.5693454,0.325923111 15.5687315,0.323885598 C15.5665827,0.320342099 15.5503156,0.287777337 15.4663189,0.23896563 C15.3776161,0.187505158 15.2259922,0.134148912 14.9760486,0.134148912 L14.9760486,0.134148912 L14.9760482,0.134051466 L14.9760482,0.134051466 L14.9760482,0.134051466 L14.9760482,0.134051466 Z" fill="#97C924" id="path4048"/><path d="M10.0884538,0 C9.54408496,0 9.37234034,0.25416207 9.37234034,0.25416207 C8.56892367,3.12766346 5.60596707,6.83409931 2.52560614,7.27430137 L1,9.7183382 L20.5660962,9.7183382 C20.5671177,9.7183382 20.5715141,9.71922267 20.5715141,9.7183382 L20.5715141,6.54355003 L17.992484,6.54355003 C14.5549357,6.54355003 11.6702409,3.37207864 10.7992511,0.25416207 C10.7991431,0.25416207 10.6327202,2.01105805e-14 10.0884534,2.01105805e-14 L10.0884534,2.01105805e-14 L10.0884538,0 L10.0884538,0 L10.0884538,0 L10.0884538,0 Z" fill="url(#linearGradient-8)" id="path4545-6"/><path d="M10.0841778,0.134051466 C9.83431815,0.134051466 9.68427935,0.192057959 9.59396955,0.243898825 C9.50836463,0.292993507 9.48842106,0.320287033 9.4862731,0.323795061 C9.48616794,0.323795061 9.48085277,0.32875591 9.48085277,0.32875591 C9.03421427,1.9005033 7.99035416,3.48968453 6.90619851,4.7547629 C5.82204287,6.01984127 3.80896777,7.29963387 2.43173813,7.43491443 L1.06702573,9.6181927 L20.4374626,9.6181927 L20.4374626,6.68804098 L17.9919442,6.68804098 C16.2279924,6.68804098 14.6164313,5.87307102 13.3378808,4.6714295 C12.0690461,3.47897441 11.128415,1.9005033 10.6822876,0.32875591 C10.6817771,0.326718418 10.6773784,0.325832553 10.6768669,0.323795061 C10.6748201,0.320251598 10.6584572,0.287687171 10.5744887,0.238875966 C10.485611,0.187407163 10.3339362,0.134051466 10.0841782,0.134051466 L10.0841782,0.134051466 L10.0841778,0.134051466 L10.0841778,0.134051466 L10.0841778,0.134051466 L10.0841778,0.134051466 Z" fill="#97C924" id="path4119"/><path d="M9.7133453,0.569718731 C9.5168208,3.23454598 7.912213,6.59666792 6.10065127,7.17612617 C5.50985156,7.36499154 4.47651392,7.43071652 4.11669659,7.47336924 C7.28634128,6.07906275 9.15935541,2.80176891 9.7133453,0.569718731 L9.7133453,0.569718731 L9.7133453,0.569718731 L9.7133453,0.569718731 L9.7133453,0.569718731 Z" fill="#93BC30" id="path4078"/><path d="M10.3165769,0.569718731 C10.4479629,2.34953897 11.0431441,4.46080795 12.4363712,5.8233263 C12.9489109,6.21762959 13.6041015,6.5753953 14.2375823,6.48829444 C12.0776446,4.8630665 10.7648057,2.37453744 10.3165769,0.569718731 C10.3165769,0.569718731 10.7648057,2.37453744 10.3165769,0.569718731 L10.3165769,0.569718731 L10.3165769,0.569718731 L10.3165769,0.569718731 L10.3165769,0.569718731 Z" fill="#C6CB24" id="path4054"/><path d="M11.6570916,3.01615799 C12.4101422,4.74119964 14.3177135,6.3526116 16.2800724,7.4355781 C16.645732,7.44591614 16.7540831,7.43655339 17.0861759,7.41784563 C15.6816927,6.71714693 13.4184602,5.71726593 11.6570916,3.01615799 L11.6570916,3.01615799 L11.6570916,3.01615799 L11.6570916,3.01615799 L11.6570916,3.01615799 Z" fill="#9ECB34" id="path4104"/><path d="M19.8007181,1.94374626 C20.5537546,3.66878791 22.4612901,5.28019987 24.423612,6.36316637 C24.7892647,6.37350441 24.8976138,6.36414166 25.2298025,6.3454339 C23.8253456,5.6447352 21.5621561,4.64495173 19.8007181,1.94374626 C19.8007181,1.94374626 21.5621561,4.64495173 19.8007181,1.94374626 L19.8007181,1.94374626 L19.8007181,1.94374626 L19.8007181,1.94374626 L19.8007181,1.94374626 Z" fill="#9ECB34" id="path4169"/></g><g id="path3549-7-+-path3551-8-+-path3562-8" transform="translate(20.353077, 15.666717)"><path d="M0.632214207,0.0428765408 C0.4618539,0.0430344407 0.194868306,0.0535385672 0.076230549,0.047884153 C0.00798739259,0.044631498 -0.00351401009,0.038383951 0.0656519595,0.0331362971 C0.2255012,0.0210079007 0.387398635,0.0150607836 0.685804891,0.00858881723 C1.36614325,-0.00616668171 1.79853747,-0.00142380377 2.13761502,0.0197826643 C2.45184415,0.0384573578 2.75335646,0.0590705252 2.7802981,0.0763671212 C2.78862593,0.0816434996 2.86110052,0.0911955228 2.73559793,0.0959572984 C2.34995207,0.110590425 1.4205217,0.0808405615 0.876557118,0.0855482478 C0.693682564,0.0871308588 0.482470896,0.0920431433 0.309882332,0.0878425007 C0.175624276,0.0845745593 0.287824848,0.0773411457 0.387893803,0.0742110312 C0.563048237,0.0687333305 0.817384539,0.0492971057 0.782790301,0.0408792741 C0.763433733,0.0361726795 0.759900034,0.0427581999 0.632326745,0.0428765408 C0.632326745,0.0428765408 0.759900034,0.0427581999 0.632326745,0.0428765408 L0.632214207,0.0428765408 L0.632214207,0.0428765408 L0.632214207,0.0428765408 L0.632214207,0.0428765408 Z" fill="#FF0000" id="path3549-7"/><path d="M0.150115623,0.042071564 C0.194140561,0.0426665124 0.369092427,0.0452677092 0.540240501,0.0389710212 C0.614110567,0.036770122 0.697006195,0.0359516373 0.733986243,0.0352408995 C0.646679118,0.0375213164 0.58426544,0.0409495323 0.538372367,0.0422889459 C0.42250305,0.0456708789 0.242329413,0.0534285142 0.154684673,0.0612880704 C0.0670399333,0.0691475445 0.0316129121,0.0785053036 0.0473682583,0.079628074 C0.0631236044,0.0807508441 0.169224607,0.087642973 0.495247734,0.0923027732 C1.07637242,0.10060891 1.18686241,0.117400242 1.77644997,0.117400242 C2.23808162,0.117400242 2.16398647,0.106534925 2.53349436,0.108841847 C2.85373302,0.110841039 3.02393577,0.101673416 2.71540108,0.0961649324 C2.32311547,0.091341829 1.54457629,0.0941892932 1.17817447,0.0965063096 C1.05989683,0.0544793985 1.16241912,0.0692350223 1.13473473,0.0511695977 C1.10702782,0.0331041731 0.956519254,0.032021531 1.15544175,0.0174002423 C0.990123156,0.0263785476 0.790120291,0.0249591238 0.582037184,0.0257056404 C0.272062002,0.0302873999 0.305665905,0.0367808722 0.150115623,0.042071564 C0.150115623,0.042071564 0.305665905,0.0367808722 0.150115623,0.042071564 L0.150115623,0.042071564 L0.150115623,0.042071564 Z" fill="url(#linearGradient-9)" id="path3551-8"/><path d="M1.19608354,0.0579262959 C0.856484943,0.053703547 0.494532919,0.0445680138 0.244013341,0.0483444531 C0.15434703,0.0499972909 0.162181396,0.0537143043 0.133633162,0.0590571357 C0.121773673,0.0653427171 -0.0350298792,0.0745997475 0.0950645931,0.0715715858 C0.288971524,0.0670580922 0.799660246,0.0802022348 0.970737596,0.0846011989 C1.05178872,0.0866852941 1.22312794,0.0907707351 1.27669205,0.0966357636 C1.33025583,0.102500792 1.30271292,0.117319035 1.28834875,0.123675079 C1.27327976,0.130342704 1.32201908,0.145290196 1.48239587,0.147079504 C1.65530343,0.149008619 1.78736352,0.143281364 1.85462148,0.1325936 C1.9199416,0.122213814 1.96924522,0.116253059 2.06888812,0.110033552 C2.16853101,0.103814044 2.28272874,0.101130402 2.44225988,0.0998757905 C2.60179103,0.0986211798 2.83329569,0.105316038 2.83329569,0.0974805528 C2.83329569,0.0923337897 2.72471635,0.0874118971 2.77085709,0.0803568419 C2.80719786,0.0748002569 2.65731308,0.0759084253 2.53272298,0.0736164142 C2.23967134,0.0698621549 1.9755815,0.0686790962 1.77236799,0.0664683847 C1.56915448,0.0642576599 1.36900803,0.0600765315 1.19608354,0.0579262959 C1.19608354,0.0579262959 1.36900803,0.0600765315 1.19608354,0.0579262959 L1.19608354,0.0579262959 L1.19608354,0.0579262959 Z" fill="url(#linearGradient-10)" id="path3560-3"/><path d="M1.01965732,0.140217806 C0.92485033,0.13501939 0.347902808,0.0969646801 0.136789574,0.108869502 C0.0700735446,0.11263163 0.0446739343,0.108394358 0.043759296,0.101338475 C0.0427079877,0.0942829138 0.0754247042,0.0839533758 0.0971447352,0.0759882689 C0.118864766,0.0680231619 0.153988979,0.0528139412 0.246977204,0.0449074216 C0.446399889,0.0279523165 0.905211889,0.0617378283 1.14882107,0.0708626297 C1.12802619,0.0836003501 1.0124138,0.139794906 1.01965732,0.140217806 C1.01965732,0.140217806 1.0124138,0.139794906 1.01965732,0.140217806 L1.01965732,0.140217806 L1.01965732,0.140217806 L1.01965732,0.140217806 L1.01965732,0.140217806 Z" fill="#910000" id="path3562-8"/></g></g><g fill="#C8A400" id="letter"><rect height="2.11806446" id="rect5081-7" transform="translate(53.563592, 33.282490) rotate(14.748927) translate(-53.563592, -33.282490) " width="0.544377942" x="53.2914028" y="32.2234575"/><path d="M20.2280722,51.2207221 L18.623977,54.521751 L19.1458831,54.521751 L19.6403798,53.497093 L19.6425553,53.497093 L21.3376564,53.497093 L21.8321498,54.521751 L22.3540555,54.521751 L20.749964,51.2207221 L20.2280583,51.2207221 L20.2280722,51.2207221 L20.2280722,51.2207221 L20.2280722,51.2207221 L20.2280722,51.2207221 Z M20.4890216,51.7412018 L21.1128983,53.0325037 L19.8651486,53.0325037 L20.4890216,51.7412018 L20.4890216,51.7412018 L20.4890216,51.7412018 L20.4890216,51.7412018 Z" id="path3225-4-7" transform="translate(20.489016, 52.871237) rotate(18.000000) translate(-20.489016, -52.871237) "/><path d="M49.1929471,39.3673867 L52.237975,41.1965671 L53.8359158,38.9137318 L53.403274,38.6538388 L52.125059,40.4799056 L52.0923203,40.5266781 L52.0537885,40.5035326 L49.4799383,38.9573921 L49.1929471,39.3673867 L49.1929471,39.3673867 L49.1929471,39.3673867 L49.1929471,39.3673867 Z" id="path4160-4-5" transform="translate(51.514431, 39.925203) rotate(-8.000000) translate(-51.514431, -39.925203) "/><path d="M5.54259529,39.0417084 L2.95602409,41.2824122 L3.30143777,41.6245963 L5.48122301,39.7362876 L4.33767881,42.6511441 L4.73380861,43.0435731 L7.85896459,42.164726 L5.71846088,44.0190114 L6.06387456,44.3611955 L8.65044577,42.1204917 L8.12577013,41.6007206 L4.94987345,42.4796751 L6.13898391,39.6325187 L5.54259529,39.0417084 L5.54259529,39.0417084 L5.54259529,39.0417084 L5.54259529,39.0417084 Z" id="path4156-0" transform="translate(5.803235, 41.701452) rotate(13.000000) translate(-5.803235, -41.701452) "/><path d="M6.73648511,46.8249994 L9.88308155,46.8249994 L9.88308155,46.3445141 L7.25996604,46.3445141 L7.20636482,46.3445141 L7.20636482,46.3017227 L7.20636482,45.3578681 L7.20636482,45.3150768 L7.25996604,45.3150768 L9.61848932,45.3150768 L9.61848932,44.8370366 L7.25996604,44.8370366 L7.20636482,44.8370366 L7.20636482,44.7942452 L7.20636482,43.9677612 L7.20636482,43.9261924 L7.25996604,43.9261924 L9.78271888,43.9261924 L9.78271888,43.4432619 L6.73648511,43.4432619 L6.73648511,46.8249994 L6.73648511,46.8249994 L6.73648511,46.8249994 L6.73648511,46.8249994 Z" id="path3761-7" transform="translate(8.309783, 45.134131) rotate(50.000000) translate(-8.309783, -45.134131) "/><path d="M14.3958608,48.2227588 L13.0245509,51.3355206 L13.5285697,51.5260789 L14.8998797,48.4133171 L14.3958608,48.2227588 L14.3958608,48.2227588 L14.3958608,48.2227588 L14.3958608,48.2227588 Z" id="path3799-5" transform="translate(13.962215, 49.874419) rotate(9.000000) translate(-13.962215, -49.874419) "/><path d="M16.5676228,49.4878542 C16.1452644,49.4878577 15.7618187,49.558384 15.4115174,49.7030863 C15.0625721,49.8472306 14.7933289,50.058059 14.6036484,50.3366755 C14.4140253,50.6152073 14.3194226,50.9418245 14.3194226,51.3200169 C14.3194226,51.6665507 14.4050448,51.9901534 14.5741995,52.2912514 C14.7426824,52.5911393 14.9842426,52.8166504 15.3039725,52.9732679 C15.6219817,53.1290481 16.0396614,53.2086779 16.5586628,53.2086779 C17.0570155,53.2086779 17.4718725,53.107131 17.8133531,52.9033175 C18.1409492,52.7077796 18.3714516,52.4252759 18.5072696,52.0544961 L17.977231,51.9536061 C17.705251,52.6560326 17.1239802,52.7056781 16.503608,52.7109538 C15.5441847,52.700429 14.8853095,52.2359316 14.8661071,51.3186717 C14.8821507,50.3084302 15.7218899,50.0017689 16.5535416,49.9855783 C17.1370003,49.9851306 17.6627042,50.0657922 17.9004132,50.574776 L18.4189312,50.4833023 C18.288005,50.1741026 18.0729644,49.9323772 17.7659801,49.7595847 C17.4436609,49.5781712 17.0467445,49.4878577 16.5676228,49.4878542 C16.5676228,49.4878542 17.0467445,49.4878577 16.5676228,49.4878542 L16.5676228,49.4878542 L16.5676228,49.4878542 L16.5676228,49.4878542 L16.5676228,49.4878542 Z" id="path3805-0" transform="translate(16.413346, 51.348266) rotate(30.000000) translate(-16.413346, -51.348266) "/><path d="M32.111311,51.6892845 C31.7534365,51.6892883 31.4285342,51.7626745 31.1317152,51.9132448 C30.8360459,52.063234 30.6079098,52.2826118 30.447189,52.5725266 C30.2865165,52.8623534 30.2063577,53.2022155 30.2063577,53.595744 C30.2063577,53.9563301 30.2789072,54.2930554 30.4222361,54.6063631 C30.5649955,54.9184119 30.7696753,55.1530678 31.0405901,55.3160363 C31.3100468,55.4781338 31.6639567,55.5609928 32.103719,55.5609928 C32.5259853,55.5609928 32.8775034,55.4553277 33.1668479,55.2432495 C33.444428,55.0397821 33.6397381,54.7458226 33.7548197,54.3600074 L33.3057057,54.2550262 C33.0752504,54.9859369 32.5827259,55.0375956 32.0570699,55.0430852 C31.2441277,55.0321333 30.6858468,54.5488001 30.6695762,53.5943443 C30.6831703,52.5431359 31.3947012,52.2240392 32.0993795,52.2071921 C32.5937582,52.2067253 33.0391997,52.2906587 33.2406159,52.8202825 L33.6799685,52.7250993 C33.5690317,52.4033614 33.3868229,52.1518338 33.1267076,51.9720341 C32.8535989,51.7832641 32.5172821,51.6892883 32.111311,51.6892845 C32.111311,51.6892845 32.5172821,51.6892883 32.111311,51.6892845 L32.111311,51.6892845 L32.111311,51.6892845 L32.111311,51.6892845 L32.111311,51.6892845 Z" id="path3881-4" transform="translate(31.980589, 53.625139) rotate(-16.000000) translate(-31.980589, -53.625139) "/><path d="M34.631877,50.7634363 L34.631877,54.2152615 L37.6249085,54.2152615 L37.6249085,53.724818 L35.1298102,53.724818 L35.0788249,53.724818 L35.0788249,53.6811397 L35.0788249,52.7177234 L35.0788249,52.6740452 L35.1298102,52.6740452 L37.3732293,52.6740452 L37.3732293,52.1860975 L35.1298102,52.1860975 L35.0788249,52.1860975 L35.0788249,52.1424192 L35.0788249,51.298806 L35.0788249,51.2563757 L35.1298102,51.2563757 L37.5294438,51.2563757 L37.5294438,50.7634363 L34.631877,50.7634363 L34.631877,50.7634363 L34.631877,50.7634363 L34.631877,50.7634363 Z" id="path3919-6" transform="translate(36.128393, 52.489349) rotate(-24.000000) translate(-36.128393, -52.489349) "/><path d="M37.5233033,50.0427764 L39.0469664,53.0941373 L39.5013098,52.8994391 L38.2932837,50.480198 L38.2304816,50.3544343 L38.3821957,50.4153107 L41.8415643,51.8965833 L42.4365067,51.6416371 L40.9128435,48.5902763 L40.4573449,48.7854725 L41.6648178,51.2036129 L41.7265138,51.3271665 L41.5765081,51.2668982 L38.1170822,49.7883275 L37.5233033,50.0427764 L37.5233033,50.0427764 L37.5233033,50.0427764 L37.5233033,50.0427764 Z" id="path3953-0" transform="translate(39.979905, 50.842207) rotate(-6.000000) translate(-39.979905, -50.842207) "/><path d="M41.1878123,48.2013541 L41.47212,48.6015347 L42.7683042,47.8112623 L42.8175003,47.7812682 L42.8420328,47.8157993 L44.5283817,50.1894455 L44.9690002,49.9208051 L43.2826514,47.5471588 L43.2581189,47.5126277 L43.3083802,47.4819827 L44.6109843,46.6877962 L44.3266725,46.287616 L41.1878123,48.2013541 L41.1878123,48.2013541 L41.1878123,48.2013541 L41.1878123,48.2013541 Z" id="path4168-1" transform="translate(43.078406, 48.238531) rotate(-8.000000) translate(-43.078406, -48.238531) "/><path d="M49.4059847,40.5230432 L47.5329093,43.8854702 L48.1423303,43.8854702 L48.7197459,42.8417539 L48.722286,42.8417539 L50.7016281,42.8417539 L51.2790397,43.8854702 L51.8884607,43.8854702 L50.0153893,40.5230432 L49.4059683,40.5230432 L49.4059847,40.5230432 L49.4059847,40.5230432 L49.4059847,40.5230432 L49.4059847,40.5230432 Z M49.7106911,41.0532036 L50.4391817,42.3685234 L48.9822046,42.3685234 L49.7106911,41.0532036 L49.7106911,41.0532036 L49.7106911,41.0532036 L49.7106911,41.0532036 Z" id="path4213-3-0" transform="translate(49.710685, 42.204257) rotate(-55.000000) translate(-49.710685, -42.204257) "/><path d="M10.4336114,45.6010484 L8.72427864,48.5672686 L9.19073664,48.7979489 L9.19184282,48.798503 L9.84301992,47.6685138 L9.8641233,47.6318957 L9.91607669,47.6575905 L11.1787848,48.2820483 C11.2578354,48.3211421 11.3347228,48.3564986 11.4099509,48.3896444 C11.4557999,48.5967435 11.6869374,49.6418634 11.7872921,50.0820547 L12.3802434,50.3752927 L11.9809467,48.5900163 C12.5608779,48.7291274 12.9944251,48.597703 13.2930065,48.098777 C13.2970216,48.0917727 13.300127,48.0843304 13.3039454,48.0772969 C13.3099433,48.0678526 13.3162854,48.0583783 13.3219474,48.0485552 C13.4147392,47.8875223 13.4407916,47.7129966 13.4023787,47.5236574 C13.3640517,47.3347599 13.2671958,47.1710004 13.1074517,47.0255523 C12.9476379,46.8800651 12.6760021,46.7100023 12.294904,46.521536 L12.1650185,46.4573019 L10.433595,45.6010446 L10.4336114,45.6010484 L10.4336114,45.6010484 L10.4336114,45.6010484 L10.4336114,45.6010484 Z M10.6575997,46.254986 L10.7095613,46.2806812 L11.9688812,46.9034641 C12.4802663,47.1563634 13.0168723,47.5000759 12.7770697,47.9162204 C12.5372589,48.3323645 11.8369594,48.0617945 11.4302964,47.8632633 L10.1596853,47.2348945 L10.1077279,47.2091993 L10.1294294,47.1715333 L10.6365045,46.2916045 L10.6575997,46.254986 L10.6575997,46.254986 L10.6575997,46.254986 L10.6575997,46.254986 Z" id="path4162-1-8" transform="translate(11.071882, 47.988169) rotate(13.000000) translate(-11.071882, -47.988169) "/><path d="M44.4315354,45.5769488 L46.8911709,48.0496134 L47.2800122,47.7176729 L47.2809545,47.7168872 L46.3439497,46.7749173 L46.3135872,46.7443903 L46.3568961,46.7074203 L47.4094962,45.8088542 C47.4753915,45.7526006 47.536772,45.6970073 47.595342,45.6421359 C47.8215222,45.670295 48.9628417,45.8126051 49.4445363,45.8699192 L49.9388249,45.4479644 L47.9877558,45.2087758 C48.3206697,44.7474087 48.3296257,44.3249044 47.919558,43.8993163 C47.9137404,43.8934962 47.9071812,43.8883273 47.9012693,43.8826693 C47.8936203,43.8743104 47.8860573,43.8656407 47.8779085,43.8574512 C47.7443766,43.7232182 47.575099,43.6429094 47.369469,43.6141005 C47.1643185,43.5853623 46.9655018,43.6161007 46.7646161,43.7078749 C46.5636731,43.7996987 46.3008211,43.9812234 45.9831356,44.2524204 L45.8748656,44.3448489 L44.4315354,45.5769609 L44.4315354,45.5769488 L44.4315354,45.5769488 L44.4315354,45.5769488 L44.4315354,45.5769488 Z M45.171817,45.5965805 L45.215134,45.5596026 L46.2649114,44.663448 C46.6912029,44.2995375 47.2183654,43.9434989 47.563439,44.2903942 C47.9085127,44.6372959 47.4019414,45.1606103 47.0655779,45.4508493 L46.0063858,46.3550386 L45.9630728,46.3920119 L45.9318377,46.3606169 L45.2021877,45.6270999 L45.171817,45.5965805 L45.171817,45.5965805 L45.171817,45.5965805 L45.171817,45.5965805 Z" id="path5862-3" transform="translate(47.185180, 45.826661) rotate(-7.000000) translate(-47.185180, -45.826661) "/><path d="M3.44847873,35.8540934 L1.85758402,39.2821358 L2.37519494,39.2821358 L2.86562242,38.2180521 L2.86778,38.2180521 L4.54893254,38.2180521 L5.03935636,39.2821358 L5.55696769,39.2821358 L3.96607624,35.8540934 L3.44846491,35.8540934 L3.44847873,35.8540934 L3.44847873,35.8540934 L3.44847873,35.8540934 L3.44847873,35.8540934 Z M3.70728114,36.3945996 L4.32602393,37.7355869 L3.0885416,37.7355869 L3.70728114,36.3945996 L3.70728114,36.3945996 L3.70728114,36.3945996 L3.70728114,36.3945996 Z" id="path4378-8-1" transform="translate(3.707276, 37.568115) rotate(68.000000) translate(-3.707276, -37.568115) "/><path d="M39.8970073,2.79193957 L38.2472442,5.78649609 L37.7623582,5.55725082 L39.4121213,2.5626943 L39.8970073,2.79193957 L39.8970073,2.79193957 L39.8970073,2.79193957 L39.8970073,2.79193957 Z" id="path3540-4" transform="translate(38.829683, 4.174595) rotate(-3.000000) translate(-38.829683, -4.174595) "/><path d="M22.2987113,0.532929572 L22.5252233,3.88838233 L24.2272553,3.78977884 C24.5188146,3.7728881 24.7745788,3.73786667 24.9938352,3.6869132 C25.2133742,3.6358861 25.3981671,3.56955394 25.5474107,3.48799377 C25.6966133,3.40645144 25.8317184,3.29762712 25.9550734,3.16113369 C26.0770273,3.02619028 26.1748788,2.85674464 26.2466368,2.65344919 C26.3178663,2.45160622 26.3458813,2.22338948 26.3284733,1.96549514 C26.3080582,1.66308232 26.2267666,1.39780758 26.0863396,1.17208589 C25.9461503,0.946741846 25.7465633,0.768513049 25.4868988,0.634423585 C25.2892702,0.531200799 25.0555639,0.466149185 24.7809209,0.437845496 L24.7796508,0.437921403 C24.5858079,0.417519974 24.2987429,0.417065673 23.9215287,0.438919575 L22.2987235,0.532933368 L22.2987113,0.532929572 L22.2987113,0.532929572 L22.2987113,0.532929572 L22.2987113,0.532929572 Z M22.8573506,0.979179791 L22.9174036,0.975699472 L23.9434761,0.916256221 C24.33099,0.893806451 24.615482,0.899574977 24.8057976,0.939369414 C25.4092534,1.10881429 25.7508856,1.54254599 25.7810842,1.98989723 C25.8112828,2.4372481 25.6337744,2.75231038 25.3419488,2.99083334 C25.2307904,3.07979669 25.0803463,3.15080128 24.8933575,3.20558994 C24.7034312,3.2612371 24.445135,3.27305993 24.1221522,3.31603258 L23.0794666,3.37643833 L23.0194095,3.37991865 L23.0166235,3.33867553 L22.8602103,1.02163893 L22.8573506,0.979179791 L22.8573506,0.979179791 L22.8573506,0.979179791 L22.8573506,0.979179791 Z" id="path4150-6" transform="translate(24.316102, 2.155478) rotate(-3.000000) translate(-24.316102, -2.155478) "/><path d="M27.2133263,0.00733604677 L27.2133263,3.54121441 L30.2063578,3.54121441 L30.2063578,3.03911252 L27.7112595,3.03911252 L27.6602742,3.03911252 L27.6602742,2.99439602 L27.6602742,2.00807843 L27.6602742,1.96336192 L27.7112595,1.96336192 L29.9546786,1.96336192 L29.9546786,1.46381521 L27.7112595,1.46381521 L27.6602742,1.46381521 L27.6602742,1.4190987 L27.6602742,0.555432023 L27.6602742,0.511993103 L27.7112595,0.511993103 L30.1108931,0.511993103 L30.1108931,0.00733604677 L27.2133263,0.00733604677 L27.2133263,0.00733604677 L27.2133263,0.00733604677 L27.2133263,0.00733604677 Z" id="path4040-2-5"/><path d="M34.6292343,0.829209598 L33.2843165,4.04826655 L33.7626242,4.22048479 L34.8289192,1.66828416 L34.884349,1.53560825 L34.9438515,1.68288773 L36.2262942,5.10755817 L36.8526021,5.33307066 L38.1975199,2.11401371 L37.7179862,1.9413558 L36.652174,4.49239335 L36.5977225,4.6227396 L36.538959,4.47706675 L35.2543204,1.05428243 L34.6292343,0.829209598 L34.6292343,0.829209598 L34.6292343,0.829209598 L34.6292343,0.829209598 Z" id="path4164-2"/><path d="M41.555408,3.78355671 C41.1677574,3.78355992 40.8158218,3.84914531 40.4943069,3.9837099 C40.1740367,4.11775569 39.9269188,4.31381375 39.7528256,4.57291085 C39.5787849,4.83192909 39.4919564,5.13566396 39.4919564,5.48736073 C39.4919564,5.80961697 39.5705424,6.11054849 39.7257967,6.39055199 C39.8804343,6.66943023 40.102144,6.87914233 40.3955997,7.02478741 C40.6874761,7.16965388 41.0708325,7.24370495 41.5471843,7.24370495 C42.0045843,7.24370495 42.3853498,7.14927228 42.6987689,6.95973762 C42.9994443,6.77789885 43.211005,6.51518698 43.3356619,6.17038348 L42.8491799,6.07656168 C42.5995502,6.72977722 42.066046,6.77594455 41.4966537,6.78085071 C40.6160722,6.77106322 40.0113408,6.33910782 39.9937164,5.48610977 C40.0084416,4.54664435 40.7791742,4.26146728 41.5424839,4.24641096 C42.0779961,4.24599464 42.5604998,4.32100525 42.7786747,4.79433031 L43.2545828,4.70926521 C43.1344157,4.42172754 42.9370463,4.1969371 42.6552888,4.03625011 C42.3594566,3.8675462 41.9951573,3.78355992 41.555408,3.78355671 C41.555408,3.78355671 41.9951573,3.78355992 41.555408,3.78355671 L41.555408,3.78355671 L41.555408,3.78355671 L41.555408,3.78355671 L41.555408,3.78355671 Z" id="path3546-3" transform="translate(41.413809, 5.513631) rotate(32.000000) translate(-41.413809, -5.513631) "/><path d="M44.3279004,6.12411943 L42.7238055,9.72496076 L43.2457112,9.72496076 L43.7402079,8.60723929 L43.7423834,8.60723929 L45.437485,8.60723929 L45.931978,9.72496076 L46.4538841,9.72496076 L44.8497925,6.12411943 L44.3278864,6.12411943 L44.3279004,6.12411943 L44.3279004,6.12411943 L44.3279004,6.12411943 L44.3279004,6.12411943 Z M45.2084474,8.06262068 L43.9606973,8.06262068 L44.5845707,6.65403766 L45.2084474,8.06262068 Z" id="path4340-6-4" transform="translate(44.588845, 7.924540) rotate(40.000000) translate(-44.588845, -7.924540) "/><path d="M50.2630468,13.0767148 L48.658952,16.6016956 L49.1808577,16.6016956 L49.6753544,15.5075217 L49.6775298,15.5075217 L51.3726314,15.5075217 L51.8671244,16.6016956 L52.3890305,16.6016956 L50.784939,13.0767148 L50.2630329,13.0767148 L50.2630468,13.0767148 L50.2630468,13.0767148 L50.2630468,13.0767148 L50.2630468,13.0767148 Z M50.5239966,13.6325055 L51.1478732,15.0114133 L49.9001232,15.0114133 L50.5239966,13.6325055 L50.5239966,13.6325055 L50.5239966,13.6325055 L50.5239966,13.6325055 Z" id="path4300-8-9" transform="translate(50.523991, 14.839205) rotate(62.000000) translate(-50.523991, -14.839205) "/><path d="M53.9334646,18.031286 C53.771713,17.6143695 53.5605973,17.2707614 53.3028829,16.9985662 C53.0460698,16.727315 52.7487297,16.555145 52.4045369,16.4784558 C52.058902,16.4014462 51.7262585,16.4156666 51.4029519,16.523317 C51.0765317,16.6319865 50.8145401,16.8153124 50.6177514,17.0733525 C50.4217165,17.330413 50.3216731,17.6461322 50.3124468,18.0257193 C50.3031754,18.4064515 50.3766624,18.8014222 50.5362631,19.212777 C50.6541896,19.5167425 50.8122171,19.7977303 51.0110666,20.0579034 C51.0986675,20.1725099 51.1949253,20.2822754 51.2983978,20.388229 L51.0273069,20.4784873 L51.2009519,20.9260583 L51.710604,20.7563743 L52.9009887,20.3600418 L52.2398519,18.6594411 L51.8470734,18.7902142 L52.3125768,19.9900702 L52.3333606,20.0436454 L52.2911907,20.0576855 L51.7755202,20.2293761 L51.7574445,20.2353928 L51.7372629,20.2219467 C51.341596,19.9017133 51.1069024,19.4698797 50.9381696,19.0424163 C50.6324471,18.1736291 50.6153588,17.3331221 51.615563,16.9906856 C52.5999613,16.6879289 53.2219108,17.4223519 53.5327749,18.1697325 C53.7352993,18.705354 53.8353386,19.2508347 53.4029057,19.6409136 L53.6505458,20.0197379 C53.8265179,19.8802868 53.9585215,19.7279592 54.0362447,19.5586001 C54.1189048,19.3784247 54.1517623,19.1547923 54.1347722,18.8868115 C54.1178273,18.6193548 54.0509815,18.3345474 53.9338989,18.0324022 L53.9333663,18.0312901 L53.9334646,18.031286 L53.9334646,18.031286 L53.9334646,18.031286 L53.9334646,18.031286 Z" id="path4152-4"/><path d="M54.7942927,20.3799762 L52.7646524,20.7457339 C52.3879668,20.8136183 52.1056543,20.9241642 51.9173831,21.0712068 C51.7294479,21.2179764 51.6092148,21.4249746 51.5512348,21.7002463 C51.4938652,21.9726327 51.5020673,22.3063703 51.5864194,22.7124814 C51.5870749,22.7156392 51.5876894,22.7186143 51.5883859,22.7217948 C51.6745161,23.1275883 51.8019803,23.4398333 51.9653953,23.6724299 C52.1305391,23.9074911 52.325771,24.0576401 52.5593913,24.1284413 C52.7934335,24.1993783 53.0999016,24.203817 53.4765791,24.1359356 L55.5062194,23.7701752 L55.4054959,23.2905208 L53.4248756,23.6474452 C52.5357437,23.807675 52.2362609,23.3741376 52.083543,22.6325616 C52.0828466,22.6293963 52.082273,22.6263912 52.0815765,22.6232494 C51.9230656,21.8827201 52.0252722,21.3767902 52.9144041,21.2165577 L54.8950244,20.8596329 L54.794305,20.3799758 L54.7942927,20.3799762 L54.7942927,20.3799762 L54.7942927,20.3799762 L54.7942927,20.3799762 Z" id="path3670-4"/><path d="M53.8472092,24.3323104 L52.3152158,27.834405 L52.8136627,27.834405 L53.2859326,26.7473351 L53.2880103,26.7473351 L54.9069199,26.7473351 L55.3791863,27.834405 L55.8776336,27.834405 L54.3456432,24.3323104 L53.8471959,24.3323104 L53.8472092,24.3323104 L53.8472092,24.3323104 L53.8472092,24.3323104 L53.8472092,24.3323104 Z M54.0964298,24.8844926 L54.6922642,26.2544477 L53.5005984,26.2544477 L54.0964298,24.8844926 L54.0964298,24.8844926 L54.0964298,24.8844926 L54.0964298,24.8844926 Z" id="path4258-1-1" transform="translate(54.096425, 26.083358) rotate(86.000000) translate(-54.096425, -26.083358) "/><path d="M0.911739217,21.5177264 L4.44586483,22.2821586 L5.24902641,19.0955815 L4.74688808,18.9869689 L4.07734027,21.6434141 L4.06366466,21.6976961 L4.01894647,21.6880252 L3.03255709,21.4746695 L2.9878389,21.4649959 L3.00151452,21.4107132 L3.60352824,19.0222234 L3.10393822,18.9141634 L2.50193269,21.3026533 L2.48825298,21.3569356 L2.44353889,21.3472613 L1.57980394,21.1604372 L1.53636809,21.1510415 L1.5500478,21.0967599 L2.1939733,18.5419529 L1.68927848,18.432787 L0.911739217,21.5177264 L0.911739217,21.5177264 L0.911739217,21.5177264 L0.911739217,21.5177264 Z" id="path4040-9"/><path d="M1.9579891,17.5736152 L5.38579892,18.6779619 L5.55991101,18.2141872 L4.25372207,17.7933695 L4.21159316,17.7797951 L4.23093485,17.728264 L4.64307552,16.6304395 C5.01496777,15.6398411 4.93916604,15.0014909 4.11969042,14.7239029 C3.95137141,14.6696794 3.78249112,14.6616026 3.61200073,14.6997236 C3.44081386,14.738014 3.29392598,14.8123152 3.16741633,14.921905 C3.0404642,15.0318831 2.92374625,15.1844919 2.81909381,15.379783 C2.74345186,15.5170302 2.65071335,15.7283877 2.54465976,16.0108967 C2.54465976,16.0108967 2.65071335,15.7283877 2.54465976,16.0108967 L1.9579891,17.5736152 L1.9579891,17.5736152 L1.9579891,17.5736152 L1.9579891,17.5736152 Z M2.62037545,17.2671482 L2.63972124,17.2156174 L3.05059186,16.1211511 C3.2410098,15.6139368 3.52441618,15.0695704 4.00538557,15.2245232 C4.48634268,15.379476 4.30642111,16.0623397 4.15774287,16.465292 L3.74266469,17.5709558 L3.7233189,17.6224877 L3.67994451,17.6085144 L2.66250846,17.2807241 L2.62037545,17.2671482 L2.62037545,17.2671482 L2.62037545,17.2671482 L2.62037545,17.2671482 Z" id="path4162-9"/><path d="M3.75895006,13.9404568 L5.54374036,14.9075435 C5.87498679,15.0870278 6.16578406,15.17674 6.41198195,15.1815111 C6.65773738,15.1862712 6.89558569,15.1044059 7.13537186,14.9331798 C7.3726384,14.7637467 7.60439865,14.5081273 7.83058705,14.1515782 C7.83234874,14.1488039 7.83402848,14.1461832 7.8357533,14.1433875 C8.06037666,13.7859853 8.18726324,13.4735387 8.23037542,13.1989055 C8.27394237,12.9213612 8.23439043,12.689173 8.10944171,12.4930792 C7.98426766,12.2966248 7.75730904,12.1057963 7.4260667,11.9263124 L5.6412723,10.9592249 L5.37496249,11.3810199 L7.11664471,12.3247528 C7.89851854,12.7484098 7.81432626,13.2571771 7.40032967,13.9074545 C7.39860896,13.9102479 7.39684727,13.9128617 7.39516342,13.9156456 C6.98625934,14.5686792 6.54882821,14.8860509 5.76696257,14.4623947 L4.02526396,13.5186618 L3.75895006,13.9404568 L3.75895006,13.9404568 L3.75895006,13.9404568 L3.75895006,13.9404568 Z" id="path4002-2"/><path d="M7.22648161,8.29645823 L7.22648161,11.5770484 L9.03297755,11.5770484 C9.77214889,11.6120938 10.8010687,11.5125464 10.8010687,10.6056806 C10.8010687,9.87789988 10.1596383,9.7920563 10.1596383,9.7920563 C10.1596383,9.7920563 10.5654942,9.67313223 10.5654942,9.19811643 C10.5654901,9.05145644 10.5051912,8.82954337 10.3824139,8.69378207 C10.2605215,8.55902387 10.0936692,8.46108266 9.87797306,8.3960857 C9.66323563,8.3313825 9.37199179,8.29646165 9.00353278,8.29645823 C9.00353278,8.29645823 9.37199179,8.29646165 9.00353278,8.29645823 L7.22648161,8.29645823 L7.22648161,8.29645823 L7.22648161,8.29645823 L7.22648161,8.29645823 Z M7.75652425,8.76192042 L7.81541788,8.76192042 L9.03553814,8.76192042 C9.43687926,8.76192042 10.0236728,8.7762349 10.0265038,9.19811643 C10.0293307,9.61999796 9.44374984,9.63372529 9.03553814,9.63431281 L7.81541788,9.63431281 L7.75652425,9.63431281 L7.75652425,9.59280137 L7.75652425,8.80224583 L7.75652425,8.76192042 L7.75652425,8.76192042 L7.75652425,8.76192042 L7.75652425,8.76192042 Z M7.75652425,10.0985889 L7.81541788,10.0985889 L9.03553814,10.0985889 C9.88014854,10.0985889 10.2505413,10.2312267 10.2505413,10.6056806 C10.2505413,10.9801345 9.86436709,11.1127723 9.03553814,11.1127723 L7.81541788,11.1127723 L7.75652425,11.1127723 L7.75652425,11.0712608 L7.75652425,10.1389143 L7.75652425,10.0985889 L7.75652425,10.0985889 L7.75652425,10.0985889 L7.75652425,10.0985889 Z" id="path4078-0-3" transform="translate(9.013775, 9.939659) rotate(-50.000000) translate(-9.013775, -9.939659) "/><path d="M13.071319,4.34864686 L15.2834332,7.01391582 L15.7149975,6.70652845 L13.5028833,4.0412595 L13.071319,4.34864686 L13.071319,4.34864686 L13.071319,4.34864686 L13.071319,4.34864686 Z" id="path4158-7" transform="translate(14.393158, 5.527588) rotate(6.000000) translate(-14.393158, -5.527588) "/><path d="M16.9101044,2.70197606 C16.5403717,2.70197922 16.2047032,2.76661828 15.8980493,2.89924123 C15.5925826,3.03135286 15.356887,3.22458197 15.1908406,3.47994054 C15.0248445,3.73522139 14.9420293,4.03457363 14.9420293,4.38119574 C14.9420293,4.69880212 15.0169829,4.99539147 15.1650611,5.27135478 C15.312551,5.54620906 15.5240129,5.75289521 15.8039045,5.89643876 C16.0822899,6.03921494 16.4479268,6.11219753 16.9022608,6.11219753 C17.3385189,6.11219753 17.7016848,6.01912743 18.000617,5.83232758 C18.2873947,5.65311258 18.4891767,5.3941914 18.6080717,5.0543631 L18.1440758,4.96189506 C17.9059845,5.6056853 17.3971398,5.65118648 16.8540658,5.65602184 C16.0141864,5.64637558 15.4374068,5.2206529 15.420597,4.37996284 C15.4346416,3.45405304 16.1697495,3.17299082 16.8977777,3.15815175 C17.4085376,3.15774144 17.868739,3.23166971 18.0768295,3.69816512 L18.5307403,3.61432743 C18.4161274,3.33093867 18.2278808,3.10939175 17.9591467,2.95102333 C17.6769884,2.78475365 17.3295276,2.70197922 16.9101044,2.70197606 C16.9101044,2.70197606 17.3295276,2.70197922 16.9101044,2.70197606 L16.9101044,2.70197606 L16.9101044,2.70197606 L16.9101044,2.70197606 L16.9101044,2.70197606 Z" id="path4116-8" transform="translate(16.775050, 4.407087) rotate(-25.000000) translate(-16.775050, -4.407087) "/><path d="M9.76592597,6.82406839 L12.2582715,9.267893 L14.3931583,7.39939823 L14.0390386,7.05217506 L12.3313119,8.54680608 L12.2875728,8.58508884 L12.2560386,8.55416637 L10.149347,6.4884893 L9.76592597,6.82406839 L9.76592597,6.82406839 L9.76592597,6.82406839 L9.76592597,6.82406839 Z" id="path4485-1"/><path d="M0.00891323698,25.8887007 L3.63048411,26.1128401 L3.66572606,25.624094 L3.66613575,25.6229136 L2.28649673,25.5375251 L2.24178264,25.5347545 L2.24571571,25.480318 L2.34112543,24.157274 C2.34710288,24.0744462 2.35028621,23.994981 2.35197825,23.9178261 C2.53692677,23.7939719 3.4703508,23.1691467 3.86226075,22.9034431 L3.90706497,22.2821586 L2.31442152,23.3532583 C2.21291554,22.8063285 1.90536176,22.4942308 1.29165534,22.4471839 C1.28311731,22.4466715 1.27450962,22.447108 1.26602484,22.4467929 C1.2542666,22.4456088 1.24233219,22.4441476 1.23034042,22.4434037 C1.03373608,22.4312404 0.851278508,22.4809847 0.680755341,22.5912581 C0.510625481,22.7012776 0.389298465,22.8503893 0.31183747,23.0450826 C0.234368282,23.2398507 0.178686662,23.5391533 0.149893312,23.9384613 L0.140072928,24.0745536 L0.00924508977,25.8887091 L0.00891323698,25.8887007 L0.00891323698,25.8887007 L0.00891323698,25.8887007 L0.00891323698,25.8887007 Z M0.560341944,25.4307214 L0.564234045,25.3762785 L0.659397952,24.0567842 C0.698036268,23.5209638 0.815671934,22.9265131 1.32375903,22.9579517 C1.83184203,22.9893983 1.85346982,23.6920186 1.82528281,24.1170526 L1.72927084,25.4483784 L1.72533777,25.5028187 L1.67934543,25.499976 L0.605010968,25.4334836 L0.560309169,25.4307206 L0.560341944,25.4307214 L0.560341944,25.4307214 L0.560341944,25.4307214 L0.560341944,25.4307214 Z" id="path5882-4"/><path d="M47.9033361,8.53365356 L45.1030517,10.6729054 L45.4394644,11.050815 L45.4402428,11.0517183 L46.5070184,10.236766 L46.5415925,10.2103573 L46.5790591,10.2524502 L47.4897328,11.2754599 C47.5467418,11.3395047 47.603292,11.3993305 47.6592154,11.4565265 C47.616435,11.6641889 47.4003333,12.712066 47.3120933,13.1544784 L47.7397327,13.6348711 L48.1047462,11.843308 C48.5837326,12.176602 49.0386331,12.2081002 49.5198811,11.8521781 C49.5264731,11.8471193 49.5324055,11.8413341 49.5388254,11.8361789 C49.5482566,11.8295636 49.5580155,11.8230421 49.567291,11.8159581 C49.7193124,11.6998183 49.8151728,11.547649 49.8575229,11.3590316 C49.8997706,11.1708534 49.8775652,10.9852605 49.7896856,10.7944031 C49.7017528,10.603485 49.5205407,10.3503796 49.2456929,10.0416263 L49.1520162,9.93639617 L47.9033074,8.53364521 L47.9033361,8.53365356 L47.9033361,8.53365356 L47.9033361,8.53365356 L47.9033361,8.53365356 Z M47.8415009,9.21732647 L47.8789756,9.2594224 L48.7872035,10.2796878 C49.1560189,10.6939968 49.5108023,11.2011716 49.117946,11.5012997 C48.7250814,11.8014243 48.1888647,11.3041041 47.8945154,10.9770223 L46.9781469,9.9476072 L46.9406762,9.9055128 L46.9762296,9.87834619 L47.8069349,9.24373819 L47.8415009,9.21732647 L47.8415009,9.21732647 L47.8415009,9.21732647 L47.8415009,9.21732647 Z" id="path5884-6"/><rect height="2.11806446" id="rect5026-8" transform="translate(2.490822, 32.189057) rotate(165.251073) translate(-2.490822, -32.189057) " width="0.544377942" x="2.21863289" y="31.1300248"/></g></g></g></g></g></svg>