<?xml version="1.0" ?><svg height="180px" version="1.1" viewBox="0 0 180 180" width="180px" xmlns="http://www.w3.org/2000/svg" xmlns:sketch="http://www.bohemiancoding.com/sketch/ns" xmlns:xlink="http://www.w3.org/1999/xlink"><title/><desc/><defs/><g fill="none" fill-rule="evenodd" id="Page-1" stroke="none" stroke-width="1"><g id="Material" transform="translate(-180.000000, -180.000000)"><g id="Slice" transform="translate(180.000000, 180.000000)"/><g id="circle_nepal" transform="translate(180.000000, 180.000000)"><circle cx="90" cy="90" fill="#FFFFFF" id="1024-copy" r="90" transform="translate(90.000000, 90.000000) scale(1, -1) translate(-90.000000, -90.000000) "/><path d="M125.11992,172.890138 C114.32902,177.46788 102.460215,180 90,180 C40.2943701,180 0,139.70563 0,90 C0,53.1496459 22.1470832,21.4720233 53.8569432,7.5514384 L145.345703,94 L72.7265625,94 L125.11992,172.890138 L125.11992,172.890138 L125.11992,172.890138 L125.11992,172.890138 Z" fill="#2B98F0" id="1024-copy-2"/><path d="M120.706767,174.625677 C111.124383,178.103439 100.783674,180 90,180 C40.2943701,180 0,139.70563 0,90 C0,54.6985308 20.3244483,24.1440937 49.9100976,9.399936 L134.683594,90 L64.5449219,90 L120.706767,174.625677 L120.706767,174.625677 L120.706767,174.625677 L120.706767,174.625677 Z" fill="#F1453D" id="1024-copy-3"/><path d="M34.6798332,76.8504486 C26.221825,71.9547813 20.3327726,63.1800392 19.5012045,52.9905119 C19.1719747,54.7775148 19,56.6188696 19,58.5 C19,75.3446857 32.7896289,89 49.8,89 C66.8103711,89 80.6,75.3446857 80.6,58.5 C80.6,57.6614961 80.5658306,56.8308952 80.4987955,56.0094881 C77.8799193,70.2243008 80.4987955,56.0094881 80.4987955,56.0094881 C78.8408257,65.0086651 73.194814,72.6294594 65.4406392,77.0103028 L63.1415382,73.9596384 L71.4383738,70.4383738 L63.1415382,66.9171093 L68.5661763,59.7191869 L59.6202737,60.8181001 L60.7191869,51.8721975 L53.0157943,57.6777779 L53.4058265,59.4450713 C53.3545121,59.4313492 53.3030707,59.4179297 53.2515046,59.4048148 L50,49 L46.7484954,59.4048148 C46.6969293,59.4179297 46.7484954,59.4048148 46.7484954,59.4048148 C46.6969293,59.4179297 46.6454879,59.4313492 46.5941735,59.4450713 L46.9842057,57.6777779 L39.2808131,51.8721975 L40.3797263,60.8181001 L31.4338237,59.7191869 L36.8584618,66.9171093 L28.5616262,70.4383738 L36.8584618,73.9596384 L34.6798332,76.8504486 Z M43.4512413,112.556028 L48,98 L52.5487587,112.556028 L63.7661133,102.224517 L60.4274399,117.104787 L75.3077092,113.766113 L64.9761987,124.983468 L79.5322266,129.532227 L64.9761987,134.080985 L75.3077092,145.29834 L60.4274399,141.959666 L63.7661133,156.839936 L52.5487587,146.508425 L48,161.064453 L43.4512413,146.508425 L32.2338867,156.839936 L35.5725601,141.959666 L20.6922908,145.29834 L31.0238013,134.080985 L16.4677734,129.532227 L31.0238013,124.983468 L20.6922908,113.766113 L35.5725601,117.104787 L32.2338867,102.224517 L43.4512413,112.556028 Z" fill="#FFFFFF" id="Oval-148-copy"/></g></g></g></svg>