<?xml version="1.0" ?><svg height="180px" version="1.1" viewBox="0 0 180 180" width="180px" xmlns="http://www.w3.org/2000/svg" xmlns:sketch="http://www.bohemiancoding.com/sketch/ns" xmlns:xlink="http://www.w3.org/1999/xlink"><title/><desc/><defs/><g fill="none" fill-rule="evenodd" id="Page-1" stroke="none" stroke-width="1"><g id="Material" transform="translate(-180.000000, -180.000000)"><g id="Slice" transform="translate(180.000000, 180.000000)"/><g id="circle_new_zealand" transform="translate(180.000000, 180.000000)"><circle cx="90" cy="90" fill="#2B98F0" id="Oval-15-copy-4" r="90"/><g id="UK"><path d="M16,64.3976504 L73.204828,93 L94,93 L94,82.602228 L52.9411738,62 L94,62 L94,31 L51.995613,31 L94,10.3974 L94,0.0872986002 L94.0000386,0.0873002869 C92.67394,0.0293019687 91.3403919,0 90,0 C82.2561892,0 74.7408046,0.978008608 67.5706263,2.81724582 L33.78699,19.7099388 C26.594709,25.4692967 20.3055338,32.3096356 15.1657583,39.9846619 C5.5867087,54.2886829 0,71.4919182 0,90 C0,91.0039293 0.0164376398,92.0040194 0.0490584628,93.0000158 L16,93 L16,64.3976504 L16,64.3976504 Z" fill="#FFFFFF" id="Oval-15-copy-5"/><path d="M8.69680358,51.353233 C11.1077906,46.2901553 13.977792,41.4878069 17.2529958,37 L94,37 L94,56 L11,55.9999987 L11,93 L0.0490584628,93.0000158 C0.0164376398,92.0040194 0,91.0039293 0,90 C0,76.1669484 3.12082343,63.0628047 8.69680372,51.3532333 L8.69680358,51.353233 L8.69680358,51.353233 Z M93.8389177,0.0803962802 C92.565936,0.0269770907 91.2861184,0 90,0 C86.1745509,0 82.4048463,0.238670122 78.7049644,0.701932021 L25.4542081,27.2795777 C24.2803472,28.4873857 23.1400934,29.7280296 22.034956,31 L31.8882776,31 L93.8389177,0.0803962802 L93.8389177,0.0803962802 Z M94,93 L32,62 L45.8636683,62 L94,86.0681243 L94,93 L94,93 Z" fill="#E54D42" id="Oval-15-copy-5"/></g><path d="M154,86 L156.020418,93.354773 L163,93.354773 L157.48955,97.849753 L159.510209,105 L154,100.505275 L148.489791,104.795474 L150.510209,97.849753 L145,93.354773 L151.79582,93.354773 L154,86 L154,86 L154,86 L154,86 Z M133,125 L135.020418,132.354773 L142,132.354773 L136.48955,136.849753 L138.510209,144 L133,139.505275 L127.489791,143.795474 L129.510209,136.849753 L124,132.354773 L130.79582,132.354773 L133,125 L133,125 L133,125 L133,125 Z M133,61 L135.020418,68.3547729 L142,68.3547729 L136.48955,72.849753 L138.510209,80 L133,75.5052749 L127.489791,79.7954741 L129.510209,72.849753 L124,68.3547729 L130.79582,68.3547729 L133,61 L133,61 L133,61 L133,61 Z M112,88 L114.020418,95.354773 L121,95.354773 L115.48955,99.849753 L117.510209,107 L112,102.505275 L106.489791,106.795474 L108.510209,99.849753 L103,95.354773 L109.79582,95.354773 L112,88 L112,88 L112,88 L112,88 Z" fill="#F1453D" id="polygon5131-copy" stroke="#FFFFFF"/></g></g></g></svg>