<?xml version="1.0" ?><svg height="180px" version="1.1" viewBox="0 0 180 180" width="180px" xmlns="http://www.w3.org/2000/svg" xmlns:sketch="http://www.bohemiancoding.com/sketch/ns" xmlns:xlink="http://www.w3.org/1999/xlink"><title/><desc/><defs/><g fill="none" fill-rule="evenodd" id="Page-1" stroke="none" stroke-width="1"><g id="Material" transform="translate(-180.000000, -180.000000)"><g id="Slice" transform="translate(180.000000, 180.000000)"/><g id="circle_panama" transform="translate(180.000000, 180.000000)"><circle cx="90" cy="90" fill="#FFFFFF" id="Oval-1" r="90"/><path d="M0,90 C0,139.705594 40.2943126,179.999943 89.9998936,180 L90,90 L0,90 L0,90 L0,90 L0,90 Z" fill="#2B98F0" id="white-copy"/><path d="M180,90 C180,40.2943701 139.70563,1.7894295e-14 90,0 L90,90 L180,90 L180,90 L180,90 L180,90 Z" fill="#F1453D" id="white-copy-2"/><path d="M54.4999993,65.5 L36.5725512,75.0795279 L39.9963883,54.789764 L25.492776,40.4204739 L45.5362778,37.4602345 L54.5000004,19 L63.4637284,37.460239 L83.5072287,40.4204886 L69.0036104,54.7897679 L72.4274482,75.0795283 L54.4999993,65.5 Z" fill="#2B98F0" id="Star-1"/><path d="M126.499999,143.5 L108.572551,153.079528 L111.996388,132.789764 L97.492776,118.420474 L117.536278,115.460234 L126.5,97 L135.463728,115.460239 L155.507229,118.420489 L141.00361,132.789768 L144.427448,153.079528 L126.499999,143.5 Z" fill="#F1453D" id="Star-1-copy"/></g></g></g></svg>