<?xml version="1.0" ?><svg height="180px" version="1.1" viewBox="0 0 180 180" width="180px" xmlns="http://www.w3.org/2000/svg" xmlns:sketch="http://www.bohemiancoding.com/sketch/ns" xmlns:xlink="http://www.w3.org/1999/xlink"><title/><desc/><defs/><g fill="none" fill-rule="evenodd" id="Page-1" stroke="none" stroke-width="1"><g id="Material" transform="translate(-180.000000, -180.000000)"><g id="Slice" transform="translate(180.000000, 180.000000)"/><g id="circle_pakistan" transform="translate(180.000000, 180.000000)"><path d="M44.9999749,12.0404109 C18.0989265,27.6018377 0,56.6873022 0,90 C0,123.312698 18.0989265,152.398162 44.9999749,167.959589 L45,12.0403964 L45,12.0403964 L44.9999749,12.0404109 L44.9999749,12.0404109 Z" fill="#FFFFFF" id="Oval-15-copy-2"/><path d="M44.9999749,12.0404109 C58.2377819,4.38274789 73.6070678,0 90,0 C139.70563,0 180,40.2943701 180,90 C180,139.70563 139.70563,180 90,180 C73.6070678,180 58.2377819,175.617252 44.9999749,167.959589 L45,12.0403964 L45,12.0403964 L44.9999749,12.0404109 L44.9999749,12.0404109 Z" fill="#4EAB53" id="Oval-15-copy-3"/><path d="M146.507838,117.604945 C137.824933,127.067888 125.355226,133 111.5,133 C85.2664731,133 64,111.733527 64,85.5 C64,67.2084076 74.3391571,51.3316562 89.4921616,43.3950555 C81.7348275,51.8492775 77,63.1216993 77,75.5 C77,101.733527 98.2664731,123 124.5,123 C132.441935,123 139.928632,121.050897 146.507838,117.604945 C146.507838,117.604945 139.928632,121.050897 146.507838,117.604945 Z M133.539002,69.2082399 L123.935372,74.4014235 L125.769501,63.4020851 L118,55.6123106 L128.737188,54.0075273 L133.539003,44 L138.34082,54.0075298 L149.078008,55.6123186 L141.308503,63.4020872 L143.142633,74.4014237 L133.539002,69.2082399 Z" fill="#FFFFFF" id="Oval-148"/></g></g></g></svg>