<?xml version="1.0" ?><svg height="180px" version="1.1" viewBox="0 0 180 180" width="180px" xmlns="http://www.w3.org/2000/svg" xmlns:sketch="http://www.bohemiancoding.com/sketch/ns" xmlns:xlink="http://www.w3.org/1999/xlink"><title/><desc/><defs/><g fill="none" fill-rule="evenodd" id="Page-1" stroke="none" stroke-width="1"><g id="Material" transform="translate(-180.000000, -180.000000)"><g id="Slice" transform="translate(180.000000, 180.000000)"/><g id="circle_puerto_rico" transform="translate(180.000000, 180.000000)"><circle cx="90" cy="90" fill="#FFFFFF" id="Oval-15-copy-4" r="90"/><path d="M162.006593,144 L36,144 L26.3603888,153.639611 C42.647185,169.926407 65.147185,180 90,180 C119.444723,180 145.586879,165.860041 162.006593,144 Z M178.199674,108 L72,108 L72,108 L90,90 L72,72 L178.199674,72 C179.380255,77.8159789 180,83.8356148 180,90 C180,96.1643852 179.380255,102.184021 178.199674,108 Z M162.006593,36 L36,36 L26.3603888,26.3603888 C42.647185,10.0735925 65.147185,0 90,0 C119.444723,0 145.586879,14.139959 162.006593,36 Z" fill="#F1453D" id="Rectangle-42"/><path d="M26.3603888,153.639611 L90,90 L26.3603888,26.3603888 C10.0735925,42.647185 0,65.147185 0,90 C0,114.852815 10.0735925,137.352815 26.3603888,153.639611 Z" fill="#2B98F0" id="Path-2085"/><path d="M31.6012232,99.5462079 L22.6397322,104.5 L24.3512242,94.0077012 L17.1012247,86.5770144 L27.1204789,85.0462072 L31.6012237,75.5 L36.0819712,85.0462096 L46.1012247,86.577022 L38.8512222,94.0077032 L40.5627145,104.5 L31.6012232,99.5462079 Z" fill="#FFFFFF" id="Star-7"/></g></g></g></svg>