<?xml version="1.0" ?><svg height="180px" version="1.1" viewBox="0 0 180 180" width="180px" xmlns="http://www.w3.org/2000/svg" xmlns:sketch="http://www.bohemiancoding.com/sketch/ns" xmlns:xlink="http://www.w3.org/1999/xlink"><title/><desc/><defs/><g fill="none" fill-rule="evenodd" id="Page-1" stroke="none" stroke-width="1"><g id="Material" transform="translate(-180.000000, -180.000000)"><g id="Slice" transform="translate(180.000000, 180.000000)"/><g id="circle_palestine" transform="translate(180.000000, 180.000000)"><ellipse cx="89.9972382" cy="90" fill="#FFFFFF" id="white" rx="89.9972382" ry="90"/><path d="M174.873467,120 L37.5,120 L14.2400103,138.605251 C30.2480388,163.50565 58.1964656,180 89.9972382,180 C129.182603,180 162.51875,154.955772 174.873463,120 Z" fill="#4EAB53" id="green"/><path d="M174.873467,60 L37.5,60 L14.2405922,41.3938442 C30.2487161,16.4939502 58.1968509,0 89.9972382,0 C129.182603,0 162.51875,25.0442275 174.873463,59.9999996 Z" fill="#262626" id="black"/><path d="M24.0045575,28.805469 L75,90 L24.0045575,151.194531 C9.10778356,135.136254 0,113.631779 0,90 C0,66.3682213 9.10778356,44.8637459 24.0045575,28.805469 Z" fill="#F1453D" id="red"/></g></g></g></svg>