<?xml version="1.0" ?><svg height="180px" version="1.1" viewBox="0 0 180 180" width="180px" xmlns="http://www.w3.org/2000/svg" xmlns:sketch="http://www.bohemiancoding.com/sketch/ns" xmlns:xlink="http://www.w3.org/1999/xlink"><title/><desc/><defs/><g fill="none" fill-rule="evenodd" id="Page-1" stroke="none" stroke-width="1"><g id="Material" transform="translate(-180.000000, -180.000000)"><g id="Slice" transform="translate(180.000000, 180.000000)"/><g id="circle_serbia" transform="translate(180.000000, 180.000000)"><path d="M174.873467,120 L5.12100983,120 C17.475726,154.955772 50.8118738,180 89.9972382,180 C129.182603,180 162.51875,154.955772 174.873463,120 L174.873467,120 Z" fill="#FFFFFF" id="Rectangle-3-copy-2"/><path d="M5.12100983,120 L174.873467,120 C178.189905,110.616633 179.994476,100.519063 179.994476,90 C179.994476,79.480937 178.189905,69.3833673 174.873463,59.9999996 L5.12100983,60 C1.80457108,69.3833673 0,79.480937 0,90 C0,100.519063 1.80457108,110.616633 5.12101363,120 L5.12100983,120 Z" fill="#2B98F0" id="Rectangle-3-copy-3"/><path d="M5.12100983,60 L174.873467,60 C162.51875,25.0442275 129.182603,0 89.9972382,0 C50.8118738,0 17.475726,25.0442275 5.12101363,59.9999996 L5.12100983,60 Z" fill="#F1453D" id="Rectangle-3"/><g id="serbia" transform="translate(31.000000, 25.500000)"><path d="M0.000837142687,80.4570839 C0.00100256609,88.5926823 3.14555278,95.9780343 8.21753464,101.329948 C13.2895165,106.681861 20.2897671,110 27.9998346,110 C35.7114042,109.999834 42.7111535,106.681861 47.7831354,101.330283 C52.8554515,95.9785369 55.9998329,88.5928498 56,80.4580892 L56,35.0026806 C37.3338903,35.0009215 18.6661097,35.0052273 0,35.0025148 L0.000837142687,80.4570839 Z" fill="#F1453D" id="Shape" stroke="#FFFFFF"/><path d="M20.3620423,104.260281 C20.1818503,104.845471 19.6945126,106.391196 20.1616767,106.930204 C20.4196654,107.228115 20.827655,107.251808 21.0567985,107.335708 L21.5503333,107.428103 L21.5502574,107.428677 C21.793543,107.433231 22.1833312,107.558781 22.5282181,107.373794 C22.7498219,107.254902 22.8599791,106.879126 22.9377272,106.431339 C22.9205883,106.878151 22.9787963,107.294966 23.2024439,107.510254 C23.4859772,107.782892 23.8941649,107.76908 24.1298926,107.83127 L24.6296156,107.877666 L24.6294506,107.877498 L24.6294869,107.877334 C24.8723764,107.859566 25.2714716,107.948406 25.5985531,107.732423 C25.8460036,107.569048 25.9642381,107.062488 26.0271018,106.502531 L26.0271018,106.502531 C26.0172344,107.064362 26.0636299,107.578536 26.2977164,107.765859 C26.6040882,108.011258 27.009553,107.959537 27.2497362,108 L27.7515879,108 L27.7516209,108 C27.9918041,107.959723 28.397269,108.011242 28.7036408,107.765859 C28.9382144,107.578046 28.9842647,107.061717 28.974081,106.498204 L28.974081,106.498204 C29.0368557,107.059878 29.1550768,107.568627 29.4030516,107.732423 C29.7301331,107.948406 30.1292118,107.859566 30.3721013,107.877334 L30.3721888,107.877498 L30.3721888,107.877666 L30.8719117,107.83127 C31.1074414,107.76908 31.5158271,107.782892 31.7991625,107.510254 C32.0205097,107.297265 32.0798912,106.887029 32.0645462,106.445641 C32.1421852,106.887112 32.2523927,107.25617 32.47172,107.373794 C32.8166069,107.558781 33.2062136,107.433231 33.4496806,107.428677 L33.4497318,107.428103 L33.9432666,107.335708 C34.1724101,107.251808 34.5802017,107.228115 34.8383883,106.930204 C35.3054782,106.391054 34.8179567,104.844654 34.6378798,104.259817 L34.6378798,104.259817 C34.9828882,105.010057 35.0582313,106.447509 35.5382431,106.645779 C35.8993842,106.79503 36.3069778,106.565623 36.5487122,106.536406 L36.5486627,106.536102 L36.5484977,106.536102 L37.0308113,106.394548 C37.2506808,106.287946 37.654215,106.223185 37.8822034,105.900791 C38.1854728,105.472299 37.8581933,104.130128 37.4109294,103.460068 C34.640613,99.3089056 33.686646,92.6185508 30.7498267,83 C30.401656,83.0519282 30.4432734,83.1046428 30.2241795,83.2071044 C29.9851514,83.2392833 29.7345061,83.286856 29.4126557,83.4317686 C29.4241453,83.4760365 29.4355981,83.5202448 29.4470145,83.5643937 L29.4132662,83.5757318 C29.1723074,83.5836261 28.9183783,83.6057397 28.584135,83.7176802 C28.5844385,83.7195995 28.5847419,83.7215188 28.5850454,83.723438 L28.5850454,83.723438 C28.5466394,83.7320611 28.5088054,83.7408821 28.4715435,83.7502876 C28.3172181,83.7410425 28.1569241,83.7371586 27.9713477,83.7567723 C27.7967651,83.75647 27.645837,83.7744435 27.5005796,83.7968118 C27.3555226,83.7744547 27.204728,83.7564883 27.030286,83.7567706 C26.844755,83.737159 26.6844986,83.7410426 26.5300612,83.7502876 C26.4925148,83.7408104 26.4545805,83.7319263 26.4156792,83.7232405 C24.843556,93.6655968 24.2499875,100.718405 23.1734123,104.973078 C23.1675397,104.996313 23.1613997,105.020933 23.1550538,105.046821 L23.1550538,105.046821 C23.1606928,105.022191 23.1665065,104.997982 23.172513,104.974239 C24.2491872,100.719398 24.8428217,93.6639013 26.415935,83.7176802 C26.0816918,83.6057397 25.8275646,83.5836261 25.5866058,83.5757318 L25.552964,83.564365 C25.5643779,83.5202258 25.5758282,83.4760269 25.5873154,83.4317686 C25.2654649,83.286856 25.0148196,83.2392833 24.7757915,83.2071044 C24.5566976,83.1046428 24.598315,83.0519282 24.2501443,83 C21.3133251,92.6185508 20.359358,99.3089056 17.5890416,103.460068 C17.1419593,104.130128 16.8144982,105.472299 17.1177677,105.900791 C17.3457561,106.223185 17.7492902,106.287946 17.9691598,106.394548 L18.4514569,106.536102 L18.4512935,106.536102 L18.4512258,106.536406 C18.6929602,106.565623 19.1005538,106.79503 19.461695,106.645779 C19.9416077,106.44755 20.0170186,105.010649 20.3620423,104.260281 L20.3620423,104.260281 Z" fill="#FFFFFF" id="Shape" stroke="#21231E" stroke-width="0.1"/><path d="M29.3067683,98.4390882 C29.3632578,98.5815761 29.4343123,98.6918212 29.5247118,98.7547053 C29.8393413,98.9733146 30.2112742,98.8933082 30.4400598,98.9155002 L30.4399552,98.9155068 L30.9079826,98.8792978 C31.1271176,98.8222521 31.5113066,98.8436753 31.7682382,98.580682 C31.8408222,98.5063644 31.8861215,98.3896008 31.9107814,98.2440394 C31.9830985,98.3780657 32.0657673,98.4797198 32.1615996,98.5343463 C32.5005526,98.7278426 32.8614294,98.6194028 33.0918262,98.6238929 L33.0916891,98.6243171 L33.5530827,98.5520946 C33.7645727,98.4785135 34.1495673,98.4701463 34.3741361,98.1884637 C34.4330971,98.1144765 34.4708149,98.0015023 34.4899967,97.862583 L34.4899967,97.862583 C34.574057,97.9806228 34.6639756,98.0682519 34.7606564,98.1128231 C35.1213275,98.2790657 35.4675141,98.143586 35.697311,98.1301489 L35.6972922,98.1297148 L35.6971225,98.1297148 L36.1478542,98.0222591 C36.3496936,97.9327059 36.731877,97.8947473 36.921666,97.5969102 C37.1745695,97.2010865 36.7793243,95.8349397 36.2477711,95.2087132 C33.2621226,91.690328 31.7733743,85.5094895 28.9453893,77.0311584 C28.9136847,76.9015993 28.8816561,76.7715587 28.8492936,76.64104 L28.8492936,76.64104 C28.9819499,76.2196037 29.1168902,75.7926917 29.2542385,75.3603338 C29.201292,75.3387548 29.150248,75.320051 29.1008214,75.3037903 C29.1033866,75.292162 29.1059528,75.2805296 29.1085199,75.2688934 C29.0536904,75.2516793 29.0010706,75.2371307 28.9503305,75.2248487 C28.9515215,75.2128579 28.952713,75.2008629 28.953905,75.1888637 C28.8964362,75.1757659 28.8415566,75.1652197 28.7888753,75.1568408 C28.7886331,75.1447752 28.7883905,75.1327052 28.7881481,75.120631 C28.7295556,75.1120776 28.6738279,75.1058473 28.6205337,75.1015907 C28.618931,75.0901298 28.6173276,75.0786654 28.6157233,75.0671972 C28.5563959,75.0631815 28.5002004,75.0612705 28.446663,75.0611452 C28.4436587,75.049677 28.4406517,75.0382052 28.4376419,75.0267301 C28.3777485,75.0273271 28.3212597,75.029794 28.2676588,75.0338457 C28.2637621,75.0225674 28.2598626,75.0112855 28.2559607,75 C28.1624499,75.0081675 28.0778383,75.0202916 28.0000068,75.0354238 C27.9221561,75.0202916 27.8375281,75.0081675 27.7440172,75 C27.740115,75.0112867 27.7362152,75.0225696 27.7323181,75.0338488 C27.6787075,75.0297951 27.6222072,75.0273272 27.5623018,75.0267301 C27.5592916,75.0382068 27.556284,75.0496803 27.5532793,75.0611502 C27.5002753,75.0613149 27.4446637,75.0632277 27.3859859,75.0671972 C27.3843834,75.0786543 27.3827817,75.0901075 27.3811809,75.1015572 C27.3277185,75.1058062 27.2718029,75.1120453 27.2129954,75.120631 C27.2127522,75.1327418 27.2125091,75.1448481 27.2122661,75.1569505 C27.1598077,75.1653116 27.1051776,75.1758229 27.0479928,75.1888637 C27.0491689,75.2007032 27.0503446,75.2125386 27.0515198,75.2243697 C27.0001832,75.2367519 26.9469307,75.2514551 26.8914238,75.2688934 C26.8939917,75.2805331 26.8965586,75.2921689 26.8991247,75.3038009 C26.8497079,75.320059 26.7986745,75.3387595 26.7457395,75.3603338 C26.8830812,75.792671 27.018015,76.2195625 27.1506652,76.640979 C27.1182653,76.7716479 27.0862002,76.9018374 27.0544597,77.0315445 C24.2265584,85.5096776 22.7378099,91.6903815 19.7522069,95.2087132 C19.2208594,95.8349397 18.8254085,97.2010865 19.0783119,97.5969102 C19.2681009,97.8947473 19.6502844,97.9327059 19.8521238,98.0222591 L20.3028555,98.1297148 L20.3026858,98.1297148 L20.3026669,98.1301489 C20.5324638,98.143586 20.8786505,98.2790657 21.2393216,98.1128231 C21.3359155,98.068292 21.4257593,97.9807803 21.5097546,97.8629013 C21.5289761,98.0016748 21.566714,98.114533 21.6256704,98.1884637 C21.8502392,98.4701463 22.2350282,98.4785135 22.4465181,98.5520946 L22.9081175,98.6243171 L22.9081517,98.6238929 C23.1383429,98.6194028 23.4992197,98.7278426 23.8383784,98.5343463 C23.934799,98.4793845 24.0178853,98.3768161 24.0905046,98.2415678 C24.1150558,98.3882791 24.1604477,98.5059443 24.2334436,98.580682 C24.4905809,98.8436753 24.8745643,98.8222521 25.0939049,98.8792978 L25.5619323,98.9155068 L25.5617626,98.9155068 L25.5616323,98.9155002 C25.7904179,98.8933082 26.1623508,98.9733146 26.4769803,98.7547053 C26.5671756,98.6919632 26.6381132,98.5820738 26.6945431,98.440053 C26.7337861,98.5854561 26.7912561,98.7000508 26.8734425,98.7693155 C27.1607315,99.0112832 27.540498,98.9602851 27.7654611,99 L28.2356997,99 L28.2356825,99 C28.4606456,98.9602901 28.8404121,99.0112998 29.1275125,98.7693155 C29.2099197,98.6998954 29.2674936,98.5849473 29.3067683,98.4390882 L29.3067683,98.4390882 Z" fill="#FFFFFF" id="Shape" stroke="#21231E" stroke-width="0.1"/><path d="M28.4442489,93.4393818 C28.485028,93.5816689 28.536311,93.6917455 28.6015445,93.7545281 C28.828826,93.9733196 29.0974358,93.8931209 29.2625552,93.9155053 L29.2625859,93.9155103 L29.2627459,93.9155103 L29.6007427,93.8791097 C29.7590252,93.8222828 30.0365569,93.8436882 30.2221384,93.5807109 C30.274509,93.506464 30.3072065,93.389849 30.3250194,93.2444774 C30.377213,93.3783041 30.4368724,93.4798074 30.5060253,93.5343747 C30.7509405,93.727667 31.0114043,93.619426 31.177849,93.6239159 L31.177946,93.6243383 L31.5112071,93.5521219 C31.6639942,93.4785453 31.9418977,93.4701786 32.1041723,93.1885131 C32.1467714,93.1144759 32.1740127,93.0013967 32.1878524,92.8623455 L32.1878524,92.8623455 C32.2483647,92.9797704 32.3130788,93.0669636 32.3826415,93.1114142 C32.6431053,93.2776484 32.8931441,93.1419814 33.0592009,93.1285451 L33.0591184,93.1284639 L33.0589584,93.1284639 L33.3846392,93.0208227 C33.5302338,92.9314737 33.8062398,92.8933186 33.9434847,92.5956985 C34.1260276,92.1997333 33.8405437,90.8336863 33.4566768,90.2074814 C31.3008338,86.6899402 30.2255741,80.5110607 28.1838021,72.0355857 C28.1606265,71.9044548 28.1372113,71.7728308 28.1135489,71.6407168 L28.1135489,71.6407168 C28.2093453,71.2193786 28.3067904,70.7925672 28.4059744,70.3603118 C28.3675557,70.338682 28.3305294,70.3199439 28.2946859,70.3036608 C28.296455,70.2925575 28.2982246,70.2814504 28.2999948,70.2703399 C28.2605653,70.253189 28.2227136,70.2386842 28.186206,70.226431 C28.1870739,70.2143327 28.1879422,70.2022299 28.1888108,70.190123 C28.1474668,70.1771116 28.1079799,70.1666258 28.0700698,70.1582857 C28.0698956,70.1462787 28.0697212,70.1342675 28.069547,70.1222522 C28.027335,70.1137156 27.9871759,70.1074928 27.9487621,70.1032369 C27.9475985,70.0917148 27.9464343,70.0801889 27.9452694,70.0686594 C27.9023806,70.0646398 27.8617529,70.0627226 27.8230456,70.0625902 C27.8208765,70.0511272 27.8187055,70.039661 27.8165326,70.0281914 C27.7732087,70.0287892 27.7323534,70.0312614 27.6935911,70.0353223 C27.6906538,70.0235521 27.6877146,70.0117781 27.6847733,70 C27.6172902,70.0082152 27.5562227,70.0203491 27.5000423,70.0354689 C27.443856,70.0203491 27.3827646,70.0082152 27.3152267,70 C27.3122847,70.0117809 27.3093447,70.0235578 27.3064068,70.0353305 C27.2676336,70.0312647 27.2267724,70.0287895 27.1834512,70.0281914 C27.1812778,70.0396635 27.1791063,70.0511322 27.1769368,70.0625976 C27.1387838,70.0627829 27.098761,70.0647024 27.0565408,70.0686594 C27.0553769,70.080177 27.0542137,70.091691 27.0530511,70.1032011 C27.0145498,70.1074582 26.97429,70.1136919 26.9319594,70.1222522 C26.931785,70.1342768 26.9316106,70.1462971 26.9314362,70.1583134 C26.8935554,70.166649 26.8541039,70.177126 26.8128055,70.190123 C26.8136605,70.2020417 26.8145154,70.2139563 26.8153697,70.2258667 C26.7783205,70.2382382 26.7398826,70.2529249 26.6998113,70.2703399 C26.7015859,70.2814778 26.7033601,70.292612 26.7051337,70.3037428 C26.6693465,70.3200068 26.6323798,70.3387183 26.5940256,70.3603118 C26.6932063,70.7925536 26.7906486,71.2193518 26.886442,71.640677 C26.862762,71.772889 26.8393297,71.90461 26.8161373,72.0358372 C24.7744046,80.5111836 23.6991447,86.6899752 21.5433232,90.2074814 C21.1594563,90.8336863 20.8739724,92.1997333 21.0565153,92.5956985 C21.1937602,92.8933186 21.4697662,92.9314737 21.6153608,93.0208227 L21.9410416,93.1284639 L21.9408816,93.1284639 L21.9407991,93.1285451 C22.1068559,93.1419814 22.3568947,93.2776484 22.6173585,93.1114142 C22.6869021,93.0669758 22.7515997,92.9798181 22.8120978,92.8624419 C22.8259547,93.0014491 22.8532162,93.114493 22.8958438,93.1885131 C23.0579246,93.4701786 23.336022,93.4785453 23.4886151,93.5521219 L23.822054,93.6243383 L23.822151,93.6239159 C23.9884018,93.619426 24.2490595,93.727667 24.4939747,93.5343747 C24.5636999,93.4793258 24.6237799,93.3765083 24.6762887,93.2409257 C24.6940275,93.3879499 24.7268611,93.5058602 24.7796977,93.5807109 C24.9652792,93.8436882 25.242617,93.8222828 25.4008994,93.8791097 L25.7390902,93.9155103 L25.7390611,93.9155053 C25.9043582,93.8931209 26.1729681,93.9733196 26.4000718,93.7545281 C26.4652815,93.6918088 26.5165597,93.5818905 26.5573425,93.4398116 C26.5857044,93.5853341 26.6272449,93.7000222 26.6866596,93.7693295 C26.8940447,94.0112825 27.1683438,93.9602875 27.3309903,94 L27.6705064,94 L27.6705177,94 C27.8331641,93.9602925 28.1074633,94.0112825 28.3148484,93.7693295 C28.374321,93.6999511 28.4158848,93.5851058 28.4442489,93.4393818 L28.4442489,93.4393818 Z" fill="#FFFFFF" id="Shape" stroke="#21231E" stroke-width="0.1"/><path d="M30.0482032,83.2990901 C30.3576748,82.0002933 30.5600014,80.9581087 30.558722,80.699367 L28.7913916,80.3358571 L28.7833628,80.3332914 C28.7778712,79.5117092 28.7694586,78.71238 28.7563471,78 C28.3849707,78.3097304 27.9750362,78.8503584 27.5435526,79.3385821 C27.1118853,78.8503584 26.7025183,78.3097304 26.3311419,78 L26.3308081,78 L26.3308248,78 C26.317705,78.7124303 26.3090937,79.5117595 26.303809,80.3332914 L26.2959639,80.3358739 L24.5282997,80.7049009 C24.526944,80.9861009 24.7661684,82.1918979 25.1220339,83.6465764 L25.1220339,83.6465764 C24.6038322,82.5918513 24.2901785,81.939837 24.2844154,81.6003522 L24.2844071,81.6003857 L22.7004364,80.698998 C22.034032,81.1797426 21.5410891,82.9655473 22.6798804,84.4243156 C24.0992196,86.2426194 24.6740527,87.5608603 25.0209088,89.0327087 C25.5519677,88.3491613 25.9039267,87.6473919 26.0314707,86.9414286 C26.5634629,88.631616 27.1314638,90 27.5435108,90 C27.9422543,90 28.4863846,88.7205829 29.0027076,87.1076628 C29.1524568,87.7574999 29.4897366,88.4028404 29.9790912,89.0327087 C30.3259473,87.5608603 30.9007804,86.2426194 32.3201196,84.4243156 C33.4589109,82.9655473 32.965968,81.1797426 32.2995636,80.698998 L30.7155929,81.6003857 L30.7155846,81.6003522 C30.7104832,81.9008613 30.4641299,82.4462572 30.0482032,83.2990901 L30.0482032,83.2990901 Z" fill="#FFFFFF" id="Shape" stroke="#21231E" stroke-width="0.1"/><path d="M31.061747,85.1352032 C30.2457355,86.1457534 29.5772815,87.0529891 29.3608909,88 C28.8580933,87.3329445 28.499931,86.6484271 28.3475581,85.9595488 C28.1951851,86.6484271 27.8370227,87.3329445 27.3342252,88 C27.0596811,86.7984866 26.0574463,85.6609994 24.9494158,84.2953055 C25.0690086,85.3243112 24.6864518,86.3579089 23.9365896,87.3528928 C23.5994149,85.8778247 23.040805,84.5563814 21.6609037,82.7337243 C20.5538981,81.2715983 21.0330821,79.4818511 21.6808859,79 L23.2206451,79.9034624 L23.2206532,79.9035969 C23.2255932,80.1960502 23.4516321,80.7201396 23.8351161,81.5332319 L23.8351161,81.5332319 C24.049053,80.6737054 24.6904967,79.9358938 25.0785946,79.6471072 L26.6183537,80.5505696 L26.6182888,80.5507041 C26.6260934,81.0127554 27.2680072,82.0530012 28.1283707,83.8976768 C28.2256446,84.1063332 28.2981299,84.3157988 28.3475581,84.5257027 L28.3475581,84.5257027 C28.3969863,84.3157988 28.4694714,84.1063332 28.5667455,83.8976768 C29.4271089,82.0530012 30.0690227,81.0127554 30.0768274,80.5507041 L30.0767625,80.5505696 L31.6165216,79.6471072 C31.8756759,79.8399459 32.2477964,80.2330037 32.5301593,80.7288238 C32.688157,80.3555065 32.7762827,80.0849938 32.7793468,79.9035969 L32.7793549,79.9034624 L34.3191141,79 C34.9669179,79.4818511 35.4461019,81.2715983 34.3390963,82.7337243 C32.959195,84.5563814 32.4005851,85.8778247 32.0634104,87.3528928 C31.51753,86.6285702 31.1663019,85.8837841 31.061747,85.1352032 L31.061747,85.1352032 Z" fill="#FFFFFF" id="Shape" stroke="#21231E" stroke-width="0.1"/><g id="left" stroke-width="0.1" transform="translate(1.000000, 46.000000)"><path d="M4.09587411,47.7690403 C4.55465931,48.2628724 5.32921201,48.1418081 5.35736498,47.5498336 C5.38939722,46.8817646 7.62573224,46.0124732 7.96104321,45.499906 C7.55098652,46.5139173 6.60543588,47.4599274 6.13575372,48.452989 C5.66330134,48.9456223 5.3643219,49.068863 5.86493469,49.9545606 L5.86493469,49.9545606 C5.75910316,50.5725587 6.00912099,51.2685746 6.72207079,51.9036623 C6.99242555,52.1445834 7.11572391,51.8906285 7.00650927,51.6136255 C6.8686305,51.2640121 6.95617057,50.8431964 7.1843071,50.2918211 C7.18566376,50.2931482 7.18702415,50.2944813 7.18838833,50.2958203 C8.17753927,50.1835759 8.33751123,49.8787038 8.17734183,49.0657273 C8.00790942,48.2070472 8.70008473,46.6536164 8.93031077,46.2148336 C9.14276762,45.809949 9.19467665,45.3894375 9.40116109,45.135875 C9.75988461,44.695318 11.4694606,43.8135898 11.9072734,44.0557222 C12.7129082,44.5012948 13.3279027,44.231713 13.4294009,43.4215344 C13.4054491,43.4022784 13.3853658,43.3749995 13.368203,43.3413043 C13.9233463,43.0520244 14.4182972,43.0278345 14.7133804,43.2559058 C14.9111777,43.4086404 15.1066551,43.2990028 14.9325994,43.0450444 C14.3503385,42.1948687 13.6878186,41.9912454 13.1168818,42.2516133 L13.1168818,42.2516133 C13.0522985,42.1191277 12.9568261,42.0265372 12.8070848,42.0134546 C12.3512889,41.9735683 12.0811316,42.1192862 11.6624042,42.4744665 C11.0024438,43.0338974 10.6637928,43.3317306 10.4465153,43.2695982 C9.93206465,43.1226759 11.378558,42.3858569 12.6939873,40.5940811 C14.5171379,38.1113418 14.6421803,36.849756 14.5576121,36.0001689 L14.557775,36 L14.5577355,36.0000734 C14.0309288,36.023524 13.3846736,36.3362062 11.4963364,38.0363529 C10.6721756,39.7832951 9.84149943,41.5399616 8.69621007,43.0547175 C8.30525524,43.3226957 7.99881917,43.5095025 7.68891154,43.615752 C7.36569347,43.7263929 4.98487036,43.6448154 4.92679147,43.5413893 C4.46599203,43.1073934 3.85376276,43.1357551 3.5477222,43.3962853 L3.5477222,43.3962853 C2.99084306,43.1085076 2.41275871,43.3327488 2.03155063,44.2681036 C1.92638342,44.5258629 2.1062289,44.6108472 2.2469032,44.4466875 C2.48118469,44.1734557 2.81867185,44.1369374 3.37995722,44.4400077 C3.48227774,44.8320725 3.92654133,45.3025875 4.3038995,44.984152 C4.78072224,44.5816729 6.44031415,44.9617045 6.99329756,44.7534499 C6.78411484,45.2705721 5.28482396,45.6073191 4.23660696,45.6862897 C3.59845994,45.7144645 3.41370627,46.1642192 3.47826097,46.6863227 C3.2585265,47.0148934 3.27044964,47.5743537 3.64874331,48.4861298 C3.74059186,48.7845856 3.9030729,48.6889644 3.89014089,48.4322117 C3.87735861,48.1807098 3.93666153,47.9615541 4.09587411,47.7690403 L4.09587411,47.7690403 Z" fill="#FEE94E" id="Shape" stroke="#21231E"/><path d="M15.1875703,39.217693 C14.680215,39.7563876 14.1053516,40.0597977 13.5839644,40.1981107 C13.3794998,39.209675 13.500251,38.0651839 13.942172,36.8499067 C13.9437278,36.845628 13.9452986,36.8413243 13.9468845,36.8369957 C13.9274561,36.8642578 13.9078778,36.8917 13.8881481,36.9193217 C13.0011813,38.1611926 11.6245489,38.496277 10,38.1801215 C11.1208379,37.1697472 12.0049266,36.0237993 12.9395064,33.8710764 C13.6891439,32.1440818 15.4642946,31.7520154 16.1847557,32.1338152 L16.1327391,33.6764359 L17.1188561,34.1092496 L17.9998849,34.2495168 L18,34.2496025 L17.9998355,34.2496025 C17.7774277,35.6809233 17.7388439,37.1456661 17.4228877,38.4743213 C17.1081979,39.797406 16.3634286,40.5968444 15.6489541,41 C15.4016934,40.4780353 15.2469067,39.8786372 15.1875703,39.217693 L15.1875703,39.217693 Z" fill="#FFFFFF" id="Shape" stroke="#262626"/><path d="M15.2585809,32.5875077 C15.1894055,32.7848217 15.1335945,32.9545827 15.091843,33.0970452 C14.7271894,34.3416172 14.6708214,35.4959527 14.9227552,36.4747193 C15.6770508,36.2179652 16.6326947,35.6874557 17.1659395,34.4449142 C17.1857636,34.3986974 17.2051157,34.3520694 17.2240269,34.3050545 C17.0863267,34.8553819 16.9354918,35.4269727 16.7835218,35.9761816 C16.3710219,37.4665293 16.9217906,38.824568 18.1038674,40 C18.2072006,38.4518348 18.5496851,37.0211974 19.6156462,34.9440715 C20.4708402,33.2776903 19.7308168,31.551031 19.0257451,31.1745809 L18.089023,31.1830433 C18.1695973,30.8775798 18.2566474,30.5756685 18.3562817,30.2820586 L18.3563298,30.282093 L16.5768228,29.6033533 C16.7601599,29.2143746 16.9089538,28.9563226 17.0444738,28.8331639 L17.0444417,28.8332156 L16.6207932,26.0103135 C16.1772341,25.881126 15.5878936,26.9961008 15.0112876,27.6466847 C14.8782775,27.7966969 14.7255395,27.9378196 14.6094398,28.122801 C14.3668927,28.5089561 14.1709584,28.969293 14.0621791,29.4916977 C13.5797278,31.8071484 12.8767224,33.0113343 12,34.2435684 C13.4424604,34.211488 14.5957831,33.7074008 15.2585809,32.5875077 L15.2585809,32.5875077 Z" fill="#FFFFFF" id="Shape" stroke="#262626"/><path d="M4.1896087,40.4248339 C4.35873729,41.2180979 4.61061693,42.0175961 4.98361904,42.8212734 C6.22552258,42.0661639 6.88340384,40.4013718 7.19160204,38.4531475 L7.19160204,38.4531475 C7.38673347,38.9520735 7.56801197,39.3441698 7.72071171,39.5720664 C8.26536213,39.1424082 8.63625108,38.3603679 8.88137047,37.4059426 C8.90852597,37.4601322 8.93507484,37.5090934 8.96094413,37.5524658 C10.3909538,36.930959 11.0231546,34.3928854 11.1361048,31.3364333 L11.1361048,31.3364333 C11.2879695,31.7312686 11.4770305,32.087884 11.7015162,32.4015837 C12.3267783,31.8757373 12.9135381,30.9584642 12.9921019,29.6125486 C13.0127719,29.2578095 13.0452368,28.3373069 13.0813461,27.1465213 L13.0813461,27.1465213 C13.1714209,28.2523655 13.4707293,29.1983193 13.9600005,29.9281886 C14.6007247,29.422834 15.2143601,28.5252264 15.3329692,27.1826159 C15.4519506,25.8342876 15.9868467,16.2816645 16,14.8472044 L15.9999675,14.8471713 C15.4509101,12.2926683 14.6661335,12.3744703 13.5284775,15.1749082 C13.4708551,16.1975584 13.3273278,19.3971643 13.2136066,22.1767128 C13.266612,19.9102296 13.3036999,17.8652949 13.2912284,17.2615203 C12.7718121,15.1543464 12.1440493,14.8726064 11.3418993,16.4654865 C11.3000709,15.911777 11.2516362,15.3520894 11.2464098,14.792835 C9.95905962,14.8710823 8.46210181,14.8431242 7.17473533,14.9215632 L7.17475972,14.9215699 L7.11775712,16.7989777 C6.33798006,16.8904163 5.55821421,16.9818868 4.77834604,17.0732104 L4.77818508,17.0732104 L4.77822247,17.0732104 L4.842249,20.1405196 L3.417615,20.1774566 C3.41808865,20.1546157 3.41858026,20.1317386 3.41908994,20.1088249 L3.41899239,20.1089736 L0.130988811,18.9989618 C-0.287966221,22.3406149 0.356009676,26.5381318 1.24137898,32.0730702 C2.00166986,36.8258492 1.60196516,40.5874193 1.02074798,43 C2.43033075,42.8037748 3.51292192,41.9441055 4.1896087,40.4248339 L4.1896087,40.4248339 Z" fill="#FFFFFF" id="Shape" stroke="#262626"/><path d="M3.39389317,21.8187683 C4.02123955,22.4905802 4.81995051,22.8866363 5.74279647,22.989577 C5.70354889,22.9112039 5.66510085,22.8313541 5.62744904,22.7500297 C5.6872955,22.8356842 5.7457764,22.9190133 5.80193682,23 C6.35543154,22.5780128 6.86680615,21.9302454 6.92739719,20.952995 L6.92739719,20.952995 C7.56243281,20.4634518 8.34928334,19.6222245 8.33991552,18.3777304 C8.49416096,19.3794522 8.89852009,20.2384922 9.36824354,20.9157253 C9.97685829,20.4517143 10.8590661,19.6499644 10.7898481,18.4740642 C11.0009591,19.3833918 11.3509159,20.268794 11.7232764,20.8058429 C12.3901156,20.2974414 13.0289667,19.3945272 13.1524084,18.0438214 C13.1788134,17.7547266 13.200765,17.1712313 13.2190936,16.4179998 L13.2190936,16.4179998 C13.2238853,17.0964301 13.2294422,17.5578637 13.2334332,17.6724488 C13.2782851,18.9650216 13.6009833,20.0634301 14.1725548,20.88813 C14.839394,20.3795457 15.543731,19.4443816 15.6669865,18.0938586 C15.7427979,17.2624096 15.9779683,13.6967338 16,10.9601466 C15.102945,10.6824151 13.9711223,9.23693778 13.2445167,8.64447046 L13.2445337,8.64430423 C13.244142,8.66516087 13.2437542,8.68609244 13.2433703,8.70709728 C12.5496211,8.26247964 11.8394885,7.71402906 11.2623371,7.13136813 C11.2624217,7.13136813 11.1286618,7.01448984 10.9934748,6.89531763 C11.0188194,6.66930174 11.0443528,6.49029619 11.069658,6.36819243 L11.0694905,6.36819243 L11.0701318,6.36686254 L9.19936218,3.71849844 L9.19936218,3.71849846 C9.21830518,3.58465123 9.23734302,3.45095859 9.25645728,3.31741798 C8.82506404,3.0062348 8.17038777,2.67680366 7.6293866,2.35666983 C7.72286852,1.96898775 7.82150419,1.57756122 7.92528677,1.18144366 C6.88975814,1.87591196 6.00848174,2.78438937 5.30244412,3.91482311 L5.30244412,3.91482311 C5.48717196,2.99492353 5.92443768,0.779391515 6.01925855,0.371090006 L3.77361753,0 L3.77363446,0.000216107606 C3.65139743,0.248238428 3.47470493,0.827040022 3.2881681,1.50373131 L2.41313575,0.521982986 L2.4130816,0.521933115 C1.52853154,1.25054822 0.997639053,2.11612567 0.820810264,3.20166743 C-0.050446334,7.84648482 -0.0391326758,11.8689123 0.026755931,15.2805865 C0.106625011,19.4074105 0.952188132,21.6017173 3.41577698,21.8765231 C3.40844278,21.8573305 3.40114842,21.8380792 3.39389373,21.8187696 L3.39389317,21.8187683 Z" fill="#FFFFFF" id="Shape" stroke="#262626"/><path d="M9.72797008,7.76054623 L11.6852096,8.04345519 C11.6656025,8.3239298 11.6526681,8.60504571 11.6430525,8.8858385 C12.3687927,8.92578156 13.6598592,9.08060901 13.6598592,9.08060901 C13.6625402,9.398529 13.6737908,9.71656144 13.6886689,10.0337186 L15.7462937,10.0337186 C15.8061329,11.4565391 16.0379212,12.8752011 15.994654,14.2173261 C15.9515704,15.5538278 15.425304,16.4706724 14.8538575,17 C14.3014745,16.2113961 13.9581824,15.1424709 13.8533468,13.8701653 C13.8434539,13.7498868 13.8068327,13.6058316 13.7537602,13.4391847 L13.7537602,13.4391847 C13.6320473,14.6808417 13.0975897,15.5238694 12.5341201,16.0105244 C12.0084225,15.2022223 11.7013525,14.1216464 11.6392137,12.8461756 C11.6270054,12.5952968 11.569564,12.2881988 11.507423,11.8996108 L11.507423,11.8996108 C11.4949258,12.0100664 11.4808861,12.1198574 11.4650625,12.2289146 C11.2733073,13.5513077 10.648116,14.3989222 10.0215759,14.8558544 C9.56067436,14.0061355 9.33900118,12.9031339 9.3769313,11.6266866 C9.38230659,11.4451099 9.36830184,11.2026254 9.34988852,10.9075012 C9.05802009,12.1502852 8.41314517,12.9591034 7.77265253,13.4099937 C7.37219573,12.4574854 7.26037371,10.9040567 7.29160151,9.36091125 C6.96428065,10.7939992 6.58861324,11.8177193 5.81955448,12.2980185 C5.31977855,11.2775813 4.88252337,9.90752515 5.02852971,8.41308379 C5.10288178,7.651081 5.40976487,6.13886069 5.81098977,4 L7.9944216,4.26387251 L7.99443947,4.263822 L7.99460037,4.263822 C7.95882638,4.51898104 7.92655181,4.77475424 7.89631189,5.03054108 L9.87475701,5.88182365 L9.87459774,5.88189099 C9.82032268,6.51153823 9.77632647,7.13951665 9.72797005,7.76054675 L9.72797008,7.76054623 Z" fill="#FFFFFF" id="Shape" stroke="#262626"/></g><g id="right" stroke-width="0.1" transform="translate(44.000000, 72.000000) scale(-1, 1) translate(-44.000000, -72.000000) translate(34.000000, 46.000000)"><path d="M4.09587411,47.7690403 C4.55465931,48.2628724 5.32921201,48.1418081 5.35736498,47.5498336 C5.38939722,46.8817646 7.62573224,46.0124732 7.96104321,45.499906 C7.55098652,46.5139173 6.60543588,47.4599274 6.13575372,48.452989 C5.66330134,48.9456223 5.3643219,49.068863 5.86493469,49.9545606 L5.86493469,49.9545606 C5.75910316,50.5725587 6.00912099,51.2685746 6.72207079,51.9036623 C6.99242555,52.1445834 7.11572391,51.8906285 7.00650927,51.6136255 C6.8686305,51.2640121 6.95617057,50.8431964 7.1843071,50.2918211 C7.18566376,50.2931482 7.18702415,50.2944813 7.18838833,50.2958203 C8.17753927,50.1835759 8.33751123,49.8787038 8.17734183,49.0657273 C8.00790942,48.2070472 8.70008473,46.6536164 8.93031077,46.2148336 C9.14276762,45.809949 9.19467665,45.3894375 9.40116109,45.135875 C9.75988461,44.695318 11.4694606,43.8135898 11.9072734,44.0557222 C12.7129082,44.5012948 13.3279027,44.231713 13.4294009,43.4215344 C13.4054491,43.4022784 13.3853658,43.3749995 13.368203,43.3413043 C13.9233463,43.0520244 14.4182972,43.0278345 14.7133804,43.2559058 C14.9111777,43.4086404 15.1066551,43.2990028 14.9325994,43.0450444 C14.3503385,42.1948687 13.6878186,41.9912454 13.1168818,42.2516133 L13.1168818,42.2516133 C13.0522985,42.1191277 12.9568261,42.0265372 12.8070848,42.0134546 C12.3512889,41.9735683 12.0811316,42.1192862 11.6624042,42.4744665 C11.0024438,43.0338974 10.6637928,43.3317306 10.4465153,43.2695982 C9.93206465,43.1226759 11.378558,42.3858569 12.6939873,40.5940811 C14.5171379,38.1113418 14.6421803,36.849756 14.5576121,36.0001689 L14.557775,36 L14.5577355,36.0000734 C14.0309288,36.023524 13.3846736,36.3362062 11.4963364,38.0363529 C10.6721756,39.7832951 9.84149943,41.5399616 8.69621007,43.0547175 C8.30525524,43.3226957 7.99881917,43.5095025 7.68891154,43.615752 C7.36569347,43.7263929 4.98487036,43.6448154 4.92679147,43.5413893 C4.46599203,43.1073934 3.85376276,43.1357551 3.5477222,43.3962853 L3.5477222,43.3962853 C2.99084306,43.1085076 2.41275871,43.3327488 2.03155063,44.2681036 C1.92638342,44.5258629 2.1062289,44.6108472 2.2469032,44.4466875 C2.48118469,44.1734557 2.81867185,44.1369374 3.37995722,44.4400077 C3.48227774,44.8320725 3.92654133,45.3025875 4.3038995,44.984152 C4.78072224,44.5816729 6.44031415,44.9617045 6.99329756,44.7534499 C6.78411484,45.2705721 5.28482396,45.6073191 4.23660696,45.6862897 C3.59845994,45.7144645 3.41370627,46.1642192 3.47826097,46.6863227 C3.2585265,47.0148934 3.27044964,47.5743537 3.64874331,48.4861298 C3.74059186,48.7845856 3.9030729,48.6889644 3.89014089,48.4322117 C3.87735861,48.1807098 3.93666153,47.9615541 4.09587411,47.7690403 L4.09587411,47.7690403 Z" fill="#FEE94E" id="Shape" stroke="#21231E"/><path d="M15.1875703,39.217693 C14.680215,39.7563876 14.1053516,40.0597977 13.5839644,40.1981107 C13.3794998,39.209675 13.500251,38.0651839 13.942172,36.8499067 C13.9437278,36.845628 13.9452986,36.8413243 13.9468845,36.8369957 C13.9274561,36.8642578 13.9078778,36.8917 13.8881481,36.9193217 C13.0011813,38.1611926 11.6245489,38.496277 10,38.1801215 C11.1208379,37.1697472 12.0049266,36.0237993 12.9395064,33.8710764 C13.6891439,32.1440818 15.4642946,31.7520154 16.1847557,32.1338152 L16.1327391,33.6764359 L17.1188561,34.1092496 L17.9998849,34.2495168 L18,34.2496025 L17.9998355,34.2496025 C17.7774277,35.6809233 17.7388439,37.1456661 17.4228877,38.4743213 C17.1081979,39.797406 16.3634286,40.5968444 15.6489541,41 C15.4016934,40.4780353 15.2469067,39.8786372 15.1875703,39.217693 L15.1875703,39.217693 Z" fill="#FFFFFF" id="Shape" stroke="#262626"/><path d="M15.2585809,32.5875077 C15.1894055,32.7848217 15.1335945,32.9545827 15.091843,33.0970452 C14.7271894,34.3416172 14.6708214,35.4959527 14.9227552,36.4747193 C15.6770508,36.2179652 16.6326947,35.6874557 17.1659395,34.4449142 C17.1857636,34.3986974 17.2051157,34.3520694 17.2240269,34.3050545 C17.0863267,34.8553819 16.9354918,35.4269727 16.7835218,35.9761816 C16.3710219,37.4665293 16.9217906,38.824568 18.1038674,40 C18.2072006,38.4518348 18.5496851,37.0211974 19.6156462,34.9440715 C20.4708402,33.2776903 19.7308168,31.551031 19.0257451,31.1745809 L18.089023,31.1830433 C18.1695973,30.8775798 18.2566474,30.5756685 18.3562817,30.2820586 L18.3563298,30.282093 L16.5768228,29.6033533 C16.7601599,29.2143746 16.9089538,28.9563226 17.0444738,28.8331639 L17.0444417,28.8332156 L16.6207932,26.0103135 C16.1772341,25.881126 15.5878936,26.9961008 15.0112876,27.6466847 C14.8782775,27.7966969 14.7255395,27.9378196 14.6094398,28.122801 C14.3668927,28.5089561 14.1709584,28.969293 14.0621791,29.4916977 C13.5797278,31.8071484 12.8767224,33.0113343 12,34.2435684 C13.4424604,34.211488 14.5957831,33.7074008 15.2585809,32.5875077 L15.2585809,32.5875077 Z" fill="#FFFFFF" id="Shape" stroke="#262626"/><path d="M4.1896087,40.4248339 C4.35873729,41.2180979 4.61061693,42.0175961 4.98361904,42.8212734 C6.22552258,42.0661639 6.88340384,40.4013718 7.19160204,38.4531475 L7.19160204,38.4531475 C7.38673347,38.9520735 7.56801197,39.3441698 7.72071171,39.5720664 C8.26536213,39.1424082 8.63625108,38.3603679 8.88137047,37.4059426 C8.90852597,37.4601322 8.93507484,37.5090934 8.96094413,37.5524658 C10.3909538,36.930959 11.0231546,34.3928854 11.1361048,31.3364333 L11.1361048,31.3364333 C11.2879695,31.7312686 11.4770305,32.087884 11.7015162,32.4015837 C12.3267783,31.8757373 12.9135381,30.9584642 12.9921019,29.6125486 C13.0127718,29.2578103 13.0452366,28.337312 13.081347,27.1465325 L13.081347,27.1465325 C13.1714229,28.252372 13.470731,29.1983217 13.9600005,29.9281886 C14.6007247,29.422834 15.2143601,28.5252264 15.3329692,27.1826159 C15.4519506,25.8342876 15.9868467,16.2816645 16,14.8472044 L15.9999675,14.8471713 C15.4509101,12.2926683 14.6661335,12.3744703 13.5284775,15.1749082 C13.4708603,16.1974653 13.3273539,19.3965815 13.2136377,22.1759531 C13.2666428,19.9097907 13.303737,17.8652738 13.2912951,17.2616029 L13.2912284,17.2615203 C12.7718121,15.1543464 12.1440493,14.8726064 11.3418993,16.4654865 C11.3000709,15.911777 11.2516362,15.3520894 11.2464098,14.792835 C9.95905962,14.8710823 8.46210181,14.8431242 7.17473533,14.9215632 L7.17475972,14.9215699 L7.11775712,16.7989777 C6.33798006,16.8904163 5.55821421,16.9818868 4.77834604,17.0732104 L4.77818508,17.0732104 L4.77822247,17.0732104 L4.842249,20.1405196 L3.417615,20.1774566 C3.41808865,20.1546157 3.41858026,20.1317386 3.41908994,20.1088249 L3.41899239,20.1089736 L0.130988811,18.9989618 C-0.287966221,22.3406149 0.356009676,26.5381318 1.24137898,32.0730702 C2.00166986,36.8258492 1.60196516,40.5874193 1.02074798,43 C2.43033075,42.8037748 3.51292192,41.9441055 4.1896087,40.4248339 L4.1896087,40.4248339 Z" fill="#FFFFFF" id="Shape" stroke="#262626"/><path d="M3.39389317,21.8187683 C4.02123955,22.4905802 4.81995051,22.8866363 5.74279647,22.989577 C5.70354889,22.9112039 5.66510085,22.8313541 5.62744904,22.7500297 C5.6872955,22.8356842 5.7457764,22.9190133 5.80193682,23 C6.35543154,22.5780128 6.86680615,21.9302454 6.92739719,20.952995 L6.92739719,20.952995 C7.56243281,20.4634518 8.34928334,19.6222245 8.33991552,18.3777304 C8.49416096,19.3794522 8.89852009,20.2384922 9.36824354,20.9157253 C9.97685829,20.4517143 10.8590661,19.6499644 10.7898481,18.4740642 C11.0009591,19.3833918 11.3509159,20.268794 11.7232764,20.8058429 C12.3901156,20.2974414 13.0289667,19.3945272 13.1524084,18.0438214 C13.1788134,17.7547266 13.200765,17.1712313 13.2190936,16.4179998 L13.2190936,16.4179998 C13.2238853,17.0964301 13.2294422,17.5578637 13.2334332,17.6724488 C13.2782851,18.9650216 13.6009833,20.0634301 14.1725548,20.88813 C14.839394,20.3795457 15.543731,19.4443816 15.6669865,18.0938586 C15.7427979,17.2624096 15.9779683,13.6967338 16,10.9601466 C15.102945,10.6824151 13.9711223,9.23693778 13.2445167,8.64447046 L13.2445337,8.64430423 C13.244142,8.66516087 13.2437542,8.68609244 13.2433703,8.70709728 C12.5496211,8.26247964 11.8394885,7.71402906 11.2623371,7.13136813 C11.2624217,7.13136813 11.1286618,7.01448984 10.9934748,6.89531763 C11.0188194,6.66930174 11.0443528,6.49029619 11.069658,6.36819243 L11.0694905,6.36819243 L11.0701318,6.36686254 L9.19936218,3.71849844 L9.19936218,3.71849846 C9.21830518,3.58465123 9.23734302,3.45095859 9.25645728,3.31741798 C8.82506404,3.0062348 8.17038777,2.67680366 7.6293866,2.35666983 C7.72286852,1.96898775 7.82150419,1.57756122 7.92528677,1.18144366 C6.88975814,1.87591196 6.00848174,2.78438937 5.30244412,3.91482311 L5.30244412,3.91482311 C5.48717196,2.99492353 5.92443768,0.779391515 6.01925855,0.371090006 L3.77361753,0 L3.77363446,0.000216107606 C3.65139743,0.248238428 3.47470493,0.827040022 3.2881681,1.50373131 L2.41313575,0.521982986 L2.4130816,0.521933115 C1.52853154,1.25054822 0.997639053,2.11612567 0.820810264,3.20166743 C-0.050446334,7.84648482 -0.0391326758,11.8689123 0.026755931,15.2805865 C0.106625011,19.4074105 0.952188132,21.6017173 3.41577698,21.8765231 C3.40844278,21.8573305 3.40114842,21.8380792 3.39389373,21.8187696 L3.39389317,21.8187683 Z" fill="#FFFFFF" id="Shape" stroke="#262626"/><path d="M9.71783887,7.88968569 L11.6852096,8.04345519 C11.6610675,8.388801 11.6470419,8.73511907 11.6368715,9.08060901 L13.6598592,9.08060901 C13.6625402,9.39852902 13.6737908,9.71656148 13.6886689,10.0337186 L15.7462937,10.0337186 C15.8061329,11.4565391 16.0379212,12.8752011 15.994654,14.2173261 C15.9515704,15.5538278 15.425304,16.4706724 14.8538575,17 C14.3014745,16.2113961 13.9581824,15.1424709 13.8533468,13.8701653 C13.8445357,13.7630395 13.8061429,13.6370528 13.748196,13.4930422 L13.748196,13.4930422 C13.6165139,14.7052585 13.0894047,15.5309387 12.5341201,16.0105244 C12.0084225,15.2022223 11.7013525,14.1216464 11.6392137,12.8461756 C11.6301561,12.6600424 11.5649465,12.4231228 11.4780322,12.1364557 L11.4780322,12.1364557 C11.4738473,12.1673327 11.4695258,12.1981528 11.4650625,12.2289146 C11.2733073,13.5513077 10.648116,14.3989222 10.0215759,14.8558544 C9.56067436,14.0061355 9.33900118,12.9031339 9.3769313,11.6266866 C9.38245251,11.4401802 9.36752714,11.2020086 9.34837933,10.9139102 C9.05580187,12.1530663 8.41204359,12.9598789 7.77265253,13.4099937 C7.37219573,12.4574854 7.26037371,10.9040567 7.29160151,9.36091125 C6.96428065,10.7939992 6.58861324,11.8177193 5.81955448,12.2980185 C5.31977855,11.2775813 4.88252337,9.90752515 5.02852971,8.41308379 C5.10288178,7.651081 5.40976487,6.13886069 5.81098977,4 L7.9944216,4.26387251 L7.99443947,4.263822 L7.99460037,4.263822 C7.95882638,4.51898104 7.92655181,4.77475424 7.89631189,5.03054108 L9.87475701,5.88182365 L9.87459774,5.88189099 C9.81655765,6.55521656 9.77027194,7.22663374 9.71783882,7.88968638 L9.71783887,7.88968569 Z" fill="#FFFFFF" id="Shape" stroke="#262626"/></g><path d="M37.7941734,53.2577763 C36.5292669,52.4453114 35.480223,51.4632159 34.2328216,49.5037087 C32.9552836,47.4965162 34.7929504,43.9119773 35.5463311,42.0105069 C37.12056,40.8156266 38.6045782,39.0613187 39.075524,36.7478206 C39.2621618,35.5031 35.9110199,35.9530892 33.6056895,37.0678209 C30.7883028,38.4303801 30.4047165,38.0527503 29.4003304,38.2834383 C29.043184,40.0516954 29.7909121,40.2015391 30.5098794,40.1144838 C28.9574324,42.6647111 28.3096457,45.2030595 27.9999917,48.8534414 C27.6902715,45.2028898 27.0420869,42.6647111 25.4896067,40.1144838 C26.208773,40.2014135 26.9565176,40.0516801 26.5991558,38.2834383 C25.5947862,38.0529539 25.2113823,38.4305786 22.3937967,37.0678209 C20.088632,35.9530892 16.7373077,35.5031 16.9239621,36.7478206 C17.3950405,39.061149 18.8788598,40.8154909 20.453155,42.0105069 C21.2065357,43.9119773 23.0442689,47.4966859 21.7666646,49.5037087 C20.519462,51.4632159 19.4702855,52.4454301 18.2053127,53.2577763 C18.4786636,53.356069 18.7473563,53.434025 19.0106119,53.4898558 C18.8192995,53.7572156 17.1790453,54.2811933 16.9867549,54.14182 C15.7311811,53.2318634 14.5075341,51.0947159 13.4399906,49.8543904 C10.4155601,46.3395975 8.90674312,43.6261203 9.4400176,41.4378597 C10.2000125,39.0812582 12.9095342,36.4359999 9.32005985,36.8928279 C5.73069329,37.3499953 2.75549581,42.3954677 1.79984541,48.4657485 C1.44541763,50.7183249 1.2399155,52.6038436 1,54.146911 C2.95920766,53.4307499 3.82700121,52.7157766 4.34834042,51.8352796 C4.11406102,52.6726733 3.93831418,53.4675914 3.82048655,54.2259904 C5.42329379,53.9350935 6.58598797,53.1290092 7.00239626,51.657266 C7.17096537,51.0613192 7.37840699,50.5658678 7.5936231,50.1545529 C8.08590324,50.333992 8.72457278,50.3236268 9.50127702,50.1282344 C9.7962108,50.8495882 12.0040367,53.3698129 13.1906015,55.2215616 C14.5303521,57.3125851 16.5439149,58.9111439 17.207317,58.9981991 C17.5393827,59.0418625 17.6414624,58.2868235 17.5675798,57.246233 C21.069421,57.2717523 24.5687758,57.2928882 28.0001658,57.1734596 C31.4315558,57.2928882 34.9310763,57.2717523 38.4329175,57.246233 C38.3588426,58.2867896 38.4607201,59.0418116 38.7927825,58.9981991 C39.4561514,58.9110709 41.469764,57.312653 42.8093322,55.2215616 C43.9958804,53.3694735 46.2039218,50.8494525 46.4986567,50.1282344 C47.2753609,50.3234214 47.9142294,50.3339937 48.4063106,50.1545529 C48.6217256,50.5658678 48.8289849,51.0613192 48.9977364,51.657266 C49.4139955,53.1290771 50.5768222,53.9351274 52.1794803,54.2259904 C52.0618549,53.4673538 51.8861047,52.6724357 51.6518253,51.8352796 C52.1728662,52.7157427 53.0407592,53.4307159 55,54.146911 C54.7600845,52.6039115 54.5545824,50.7183249 54.2001546,48.4657485 C53.2447694,42.3954677 50.2693067,37.3499953 46.6799402,36.8928279 C43.0907394,36.4360508 45.7999958,39.0812582 46.5599824,41.4378597 C47.0932735,43.62629 45.5845725,46.3395975 42.5600094,49.8543904 C41.4926482,51.0947328 40.268935,53.2318973 39.0134109,54.14182 C38.821137,54.2811865 37.180684,53.7572156 36.9895539,53.4898558 C37.2521298,53.4340284 37.5210049,53.3560724 37.7941734,53.2577763 L37.7941734,53.2577763 Z" fill="#FFFFFF" id="Shape" stroke="#21231E" stroke-width="0.1"/><path d="M30.3223819,8.79359756 C30.1840156,8.63474353 29.9444059,8.46718872 29.5926673,8.41381282 C28.9826724,8.32124685 27.5332222,6 27.5332222,6 L25.4234583,8.27987803 C22.8249517,8.31586507 13.7412845,8.68522473 11.0283722,10.9314618 C7.97554993,11.5247856 5.10928138,12.6065736 3.44063619,13.8159021 C2.23317537,14.6909682 3.70146677,16.4589547 5.49991328,19.1479028 C6.61188938,19.8173343 7.13355055,20.1288084 7.55919038,19.4595588 L7.55935807,19.4595588 L7.55921386,19.4595307 C7.24113269,18.8798056 7.49776087,18.0705325 7.60165039,17.887468 C7.65429611,17.7947435 7.49835954,17.5911197 7.43070356,17.5113622 C5.2662826,14.9533844 5.22922232,14.7264253 6.7212759,13.7679357 C7.49909642,13.2683319 8.84238572,12.7767045 10.2576174,12.3414494 C10.2581458,12.5386117 10.2968641,12.7452444 10.3775157,12.961797 C10.8871532,14.3291488 11.4808723,15.7975269 12.0723946,17.3855413 C12.0964251,17.4499966 12.3376372,17.5487769 12.4042938,17.5871458 C12.732185,17.7749539 13.1377351,17.9721789 13.3244955,18.3864842 C14.4502224,18.7989426 15.740591,18.6777811 16.8249312,18.178653 C16.5799141,17.7286666 16.9059942,17.2164273 17.2086644,16.9138524 C17.4178789,16.7046778 17.4248885,16.7262124 17.2084967,16.4724435 C15.4189715,14.3745407 14.2329419,12.5370811 14.9305471,11.42743 C15.7440182,10.1332423 19.4216613,9.43431685 24.6162471,9.47086066 C24.7117186,11.1823869 25.0372794,12.8528766 24.4858109,14.9595691 C24.2484071,15.8669439 23.8658645,16.3772941 24.238597,16.552201 C25.1894196,16.9981435 25.6252049,17.4060544 25.4742807,17.6254995 C25.7553351,18.0758217 26.4563445,17.988816 27.5332224,17.8444268 C28.6101673,17.988816 29.311445,18.0758077 29.5926672,17.6254995 C29.4415333,17.4060544 29.8775115,16.9981435 30.8281496,16.552201 C31.2010665,16.3773501 30.8185407,15.8669579 30.5809357,14.9595691 C30.0840403,13.0605724 30.2995328,11.5161616 30.416675,9.97660795 C35.7188731,9.92012678 39.4823322,10.6203031 40.3064138,11.9313716 C41.004019,13.0410227 39.8179895,14.8784823 38.0284642,16.9763851 C37.8120725,17.2301539 37.8190821,17.2086194 38.0282966,17.4177941 C38.3309667,17.7203688 38.6570468,18.2326082 38.4120298,18.6825946 C39.49637,19.1817227 40.7867385,19.3028842 41.9124654,18.8904258 C42.0992258,18.4761205 42.5047759,18.2788955 42.8326672,18.0910874 C42.8993237,18.0527185 43.1405358,17.9539382 43.1645663,17.8894829 C43.7560886,16.3014685 44.3498077,14.8330904 44.8594452,13.4657386 C44.9777217,13.1481619 45.0058141,12.8519193 44.9555291,12.5755933 C46.2914412,12.9942088 47.5400643,13.4614658 48.2787241,13.9359162 C49.7707777,14.8944058 49.7337174,15.1213649 47.5692964,17.6793428 C47.5016405,17.7591003 47.3457039,17.9627241 47.3983496,18.0554485 C47.5022391,18.238513 47.7588673,19.0477861 47.4408096,19.6275393 C47.8664495,20.2967889 48.3881106,19.9853148 49.5000867,19.3158834 C51.2985332,16.6269352 52.7668246,14.8589487 51.5593638,13.9838827 C49.8279065,12.729032 46.806966,11.6115045 43.626141,11.0345354 C40.5803748,9.25986443 33.2263879,8.8633937 30.3223819,8.79359756 L30.3223819,8.79359756 Z" fill="#FEE94E" id="Shape"/><path d="M33.317151,12.5677484 C33.3386188,12.5587424 33.3602362,12.5496614 33.3819949,12.5405093 C33.5661787,12.7022224 33.8217538,12.8023846 34.1042557,12.8023846 C34.6655142,12.8023846 35.1202903,12.4070297 35.1202903,11.9191088 C35.1202903,11.8796269 35.1173133,11.8407517 35.111544,11.8026436 L35.111544,11.8026436 C35.1869591,11.7704672 35.2617795,11.7385977 35.3357434,11.7071677 L35.3357434,11.7071677 C35.5215156,11.8835334 35.7885648,11.9941099 36.0852849,11.9941099 C36.646742,11.9941099 37.1015182,11.598755 37.1015182,11.1108341 C37.1015182,11.0772596 37.0993653,11.0441239 37.0951732,11.0115255 C37.165325,10.9928036 37.2080711,10.9879977 37.2180442,10.9998244 C37.4029596,11.2191091 37.7014402,11.3614849 38.0381792,11.3614849 C38.4705111,11.3614849 38.8397798,11.1268007 38.9866164,10.7959782 L38.9866164,10.7959782 L39.0046565,10.7959782 C39.0017039,10.8239324 39.0001948,10.8522504 39.0001948,10.8808756 C39.0001948,11.204012 39.1926268,11.4880576 39.483305,11.6511397 C39.0823049,11.7806947 38.7966304,12.1163834 38.7966304,12.5101062 C38.7966304,13.0160633 39.2684034,13.4261842 39.850399,13.4261842 C39.862758,13.4261842 39.8871556,13.4533423 39.9215254,13.5031861 L39.9215254,13.5031861 C39.6319659,13.6664619 39.4404236,13.9499844 39.4404236,14.2724879 C39.4404236,14.7724924 39.9011608,15.1789024 40.4736965,15.1883962 C40.3095838,15.3499163 40.2099963,15.5621502 40.2099963,15.794615 C40.2099963,16.3005721 40.6817693,16.710693 41.2637649,16.710693 L41.2639054,16.710693 C41.1131714,16.8691618 41.022599,17.0724463 41.022599,17.2940647 C41.022599,17.8001932 41.4943719,18.210314 42.0763675,18.210314 C42.6583631,18.210314 43.130136,17.8001932 43.130136,17.2940647 C43.130136,16.7881075 42.6583631,16.3779866 42.0763675,16.3779866 C42.226961,16.2195178 42.3175334,16.0162333 42.3175334,15.794615 C42.3175334,15.2946105 41.8567961,14.8882005 41.2842605,14.8787067 L41.2842605,14.8787067 C41.4483731,14.7171866 41.5479606,14.5049527 41.5479606,14.2724879 C41.5479606,13.7958116 41.1294961,13.4042944 40.594602,13.3603429 C40.56777,13.2537741 40.5570144,13.1898908 40.5670407,13.1818027 C40.7744296,13.0145047 40.9041675,12.7754885 40.9041675,12.5101062 C40.9041675,12.186958 40.7118024,11.9029033 40.4211131,11.7398241 L40.4211131,11.7398241 C40.8220839,11.610256 41.1077319,11.2745802 41.1077319,10.8808756 C41.1077319,10.7285341 41.0649905,10.5848905 40.9893672,10.4585107 C41.0904991,10.4865704 41.1982669,10.5017148 41.3101047,10.5017148 C41.8921169,10.5017148 42.3638733,10.0915939 42.3638733,9.58546533 C42.3638733,9.57500505 42.3636717,9.56458574 42.3632715,9.55421014 L42.3632715,9.55421014 C42.5401521,9.68390785 42.7686432,9.76207194 43.0180598,9.76207194 C43.4989254,9.76207194 43.9017741,9.47173867 44.0073138,9.08171184 C44.2979213,9.17932466 44.655914,9.21741472 44.9328892,9.21741472 C45.322926,9.21741472 45.7752986,8.88801594 46.0128621,8.52382448 L46.0128621,8.52382448 C46.1956638,8.75146185 46.4991843,8.90038821 46.8427536,8.90038821 C47.1992964,8.90038821 47.5127894,8.74000243 47.692972,8.49770445 C48.0439902,8.67588519 48.5694858,8.75901154 48.9148076,8.75901154 C49.2748364,8.75901154 49.5909696,8.59547404 49.7702728,8.34919707 L49.7702728,8.34919707 C50.100349,8.59547402 50.6284878,8.75901154 50.9885166,8.75901154 C51.5471933,8.75901154 52,8.36519892 52,7.87950576 C52,7.3938126 51.5472099,7 50.9885166,7 C50.6284974,7 50.1003538,7.16353836 49.7702743,7.40981639 C49.5909713,7.16353836 49.2748374,7 48.9148076,7 C48.5623756,7 48.0222498,7.22684629 47.6714878,7.51626318 L47.6714878,7.51626318 C47.4884924,7.2895399 47.1855162,7.14137669 46.8427536,7.14137669 C46.4365971,7.14137669 46.0863955,7.34942607 45.9254547,7.64970902 C45.6748661,7.50132006 45.2793,7.45840318 44.9328892,7.45840318 C44.5191139,7.45840318 43.9244981,7.80533967 43.6438871,8.18262761 L43.6438871,8.18262761 C43.4713735,8.06528417 43.254117,7.99534896 43.0180598,7.99534896 C42.4568012,7.99534896 42.0018265,8.39070386 42.0018265,8.87862477 C42.0018265,8.88391986 42.0018801,8.88920407 42.0019869,8.89447701 C41.816877,8.75428382 41.5748992,8.66938728 41.3101047,8.66938728 C40.9349051,8.66938728 40.6055263,8.83982771 40.4188182,9.09650813 C40.2988146,9.05317484 40.1671917,9.0292552 40.0291384,9.0292552 C39.4678799,9.0292552 39.0131038,9.42478146 39.0131038,9.912531 C39.0131038,9.96243409 38.991688,10.0280482 38.9574791,10.1010254 C38.7947535,9.80175132 38.4442891,9.59476194 38.0381792,9.59476194 C37.7158299,9.59476194 37.4285389,9.72517318 37.2423659,9.9286327 C37.2128873,9.96084855 36.9550301,10.1124785 36.5677223,10.3330538 C36.424193,10.2656458 36.2598816,10.2273869 36.0852849,10.2273869 C35.5240264,10.2273869 35.0692503,10.6227418 35.0692503,11.1108341 C35.0692503,11.1327967 35.0701721,11.1545718 35.071984,11.1761317 C34.9944473,11.219778 34.9163549,11.2637657 34.8379855,11.3079528 C34.6530312,11.1401261 34.3926588,11.0356616 34.1042557,11.0356616 C33.5429972,11.0356616 33.0880224,11.4311879 33.0880224,11.9191088 C33.0880224,12.0410131 33.116423,12.1571391 33.1677857,12.2627648 C33.1533563,12.2712127 33.139009,12.2796214 33.1247466,12.2879895 C32.9385532,12.1049614 32.6663836,11.9895972 32.3632007,11.9895972 C31.8019422,11.9895972 31.3469675,12.3849521 31.3469675,12.8730444 C31.3469675,12.9087152 31.2607215,13.1479577 31.1664865,13.4358235 C31.1173932,13.4294926 31.0671548,13.4262128 31.0160346,13.4262128 C30.4547761,13.4262128 30,13.8215677 30,14.30966 C30,14.590498 30.1507302,14.8406696 30.3856622,15.0024369 C30.4157614,15.0231624 30.5020214,15.1684305 30.6252665,15.3943367 C30.4298575,15.5498469 30.3072995,15.7734252 30.3072995,16.0219315 C30.3072995,16.4916448 30.745476,16.8725765 31.2857989,16.8725765 C31.3230473,16.8725765 31.3598088,16.8707675 31.3959735,16.8672451 C31.4187794,16.9112793 31.4416865,16.9554887 31.464663,16.9997995 C31.292307,17.1531804 31.186102,17.3629966 31.186102,17.594383 C31.186102,18.0640964 31.6240799,18.445028 32.1646013,18.445028 C32.1860618,18.445028 32.2073611,18.4444269 32.2284782,18.4432435 C32.262958,18.5059574 32.296588,18.5665621 32.3292124,18.6247009 L32.3292124,18.6247009 C32.1987607,18.7692223 32.1209756,18.951378 32.1209756,19.149355 C32.1209756,19.6190684 32.5591522,20 33.0996736,20 C33.6399964,20 34.0781729,19.6192541 34.0781729,19.149355 C34.0781729,18.6794704 33.6399964,18.2987102 33.0996736,18.2987102 C32.9181501,18.2987102 32.7481693,18.3416531 32.602451,18.416493 C32.5967156,18.3987175 32.5909105,18.3807807 32.5850388,18.3626907 C32.9150139,18.2259484 33.1431007,17.9332727 33.1431007,17.594383 C33.1431007,17.1244983 32.7049241,16.7435667 32.1646013,16.7435667 C32.1232102,16.7435667 32.0824204,16.7458004 32.0423824,16.7501368 C32.0262856,16.7025551 32.0103233,16.6552878 31.9945381,16.6084335 C32.1617014,16.455812 32.2642982,16.2492704 32.2642982,16.0219315 C32.2642982,15.6354819 31.9680503,15.3093161 31.5621548,15.2056692 C31.5444647,15.1184652 31.5417179,15.0658983 31.557839,15.0570504 C31.8429194,14.9005883 32.0322679,14.6243146 32.0322679,14.30966 C32.0322679,14.0860386 31.9367664,13.8818833 31.7792967,13.7262964 C31.8306114,13.6740425 31.8665784,13.6439157 31.878431,13.6495181 C32.0225297,13.7176296 32.187684,13.7563202 32.3632007,13.7563202 C32.9244592,13.7563202 33.379434,13.3609653 33.379434,12.8730444 C33.379434,12.7657232 33.3574374,12.6628855 33.317151,12.5677484 L33.317151,12.5677484 Z" fill="#FFFFFF" id="Shape" stroke="#262626" stroke-width="0.1" transform="translate(41.000000, 13.500000) scale(-1, 1) translate(-41.000000, -13.500000) "/><path d="M6.31715106,12.5677483 C6.33861885,12.5587424 6.36023623,12.5496614 6.381995,12.5405093 C6.56617864,12.7022224 6.82175378,12.8023846 7.10425567,12.8023846 C7.66551419,12.8023846 8.12029032,12.4070297 8.12029032,11.9191088 C8.12029032,11.8796269 8.11731331,11.8407517 8.11154395,11.8026435 L8.11154395,11.8026435 C8.1869591,11.7704672 8.26177951,11.7385977 8.33574333,11.7071677 L8.33574333,11.7071677 C8.52151558,11.8835334 8.78856481,11.9941099 9.08528491,11.9941099 C9.64674203,11.9941099 10.1015182,11.598755 10.1015182,11.110834 C10.1015182,11.0772595 10.0993654,11.0441239 10.0951733,11.0115255 C10.165325,10.9928036 10.208071,10.9879977 10.2180442,10.9998244 C10.4029597,11.2191091 10.7014402,11.3614849 11.0381792,11.3614849 C11.4705111,11.3614849 11.8397798,11.1268007 11.9866165,10.7959782 L11.9866165,10.7959782 L12.0046565,10.7959782 C12.0017038,10.8239324 12.0001948,10.8522504 12.0001948,10.8808756 C12.0001948,11.2040119 12.1926268,11.4880575 12.483305,11.6511396 C12.082305,11.7806946 11.7966304,12.1163833 11.7966304,12.5101062 C11.7966304,13.0160633 12.2684034,13.4261842 12.850399,13.4261842 C12.862758,13.4261842 12.8871555,13.4533423 12.9215254,13.5031861 L12.9215254,13.5031861 C12.631966,13.6664619 12.4404236,13.9499844 12.4404236,14.2724879 C12.4404236,14.7724924 12.9011608,15.1789024 13.4736965,15.1883962 C13.3095838,15.3499163 13.2099963,15.5621501 13.2099963,15.7946149 C13.2099963,16.3005721 13.6817693,16.710693 14.2637649,16.710693 L14.2639054,16.710693 C14.1131713,16.8691618 14.022599,17.0724463 14.022599,17.2940646 C14.022599,17.8001932 14.4943719,18.210314 15.0763675,18.210314 C15.6583631,18.210314 16.130136,17.8001932 16.130136,17.2940646 C16.130136,16.7881074 15.6583631,16.3779865 15.0763675,16.3779865 C15.226961,16.2195178 15.3175334,16.0162332 15.3175334,15.7946149 C15.3175334,15.2946105 14.8567962,14.8882005 14.2842604,14.8787067 L14.2842604,14.8787067 C14.4483732,14.7171865 14.5479606,14.5049527 14.5479606,14.2724879 C14.5479606,13.7958116 14.1294962,13.4042943 13.594602,13.3603428 C13.5677701,13.2537741 13.5570143,13.1898908 13.5670407,13.1818026 C13.7744297,13.0145047 13.9041675,12.7754885 13.9041675,12.5101062 C13.9041675,12.1869579 13.7118024,11.9029033 13.4211131,11.7398241 L13.4211131,11.7398241 C13.8220838,11.610256 14.1077319,11.2745802 14.1077319,10.8808756 C14.1077319,10.7285341 14.0649906,10.5848905 13.9893671,10.4585107 C14.0904992,10.4865704 14.1982669,10.5017147 14.3101047,10.5017147 C14.8921169,10.5017147 15.3638733,10.0915939 15.3638733,9.58546533 C15.3638733,9.57500505 15.3636716,9.56458572 15.3632715,9.55421014 L15.3632715,9.55421014 C15.540152,9.68390785 15.7686432,9.76207194 16.0180598,9.76207194 C16.4989254,9.76207194 16.9017741,9.47173865 17.0073138,9.08171184 C17.2979213,9.17932464 17.655914,9.2174147 17.9328892,9.2174147 C18.322926,9.2174147 18.7752986,8.88801592 19.0128621,8.52382447 L19.0128621,8.52382447 C19.1956638,8.75146184 19.4991843,8.90038821 19.8427536,8.90038821 C20.1992964,8.90038821 20.5127894,8.74000241 20.692972,8.49770444 C21.0439902,8.67588519 21.5694858,8.75901152 21.9148076,8.75901152 C22.2748364,8.75901152 22.5909696,8.59547402 22.7702728,8.34919707 L22.7702728,8.34919707 C23.100349,8.59547402 23.6284878,8.75901152 23.9885166,8.75901152 C24.5471933,8.75901152 25,8.36519892 25,7.87950576 C25,7.3938126 24.5472099,7 23.9885166,7 C23.6284974,7 23.1003538,7.16353836 22.7702743,7.40981639 C22.5909713,7.16353836 22.2748374,7 21.9148076,7 C21.5623756,7 21.0222498,7.22684629 20.6714878,7.51626318 L20.6714878,7.51626318 C20.4884924,7.28953988 20.1855162,7.14137667 19.8427536,7.14137667 C19.4365971,7.14137667 19.0863955,7.34942605 18.9254547,7.64970902 C18.6748661,7.50132004 18.2793,7.45840318 17.9328892,7.45840318 C17.5191139,7.45840318 16.9244981,7.80533967 16.6438871,8.18262759 L16.6438871,8.18262759 C16.4713735,8.06528417 16.254117,7.99534895 16.0180598,7.99534895 C15.4568012,7.99534895 15.0018265,8.39070385 15.0018265,8.87862477 C15.0018265,8.88391986 15.0018801,8.88920407 15.0019869,8.89447701 C14.816877,8.75428382 14.5748991,8.66938728 14.3101047,8.66938728 C13.9349051,8.66938728 13.6055262,8.83982769 13.4188181,9.09650813 C13.2988147,9.05317484 13.1671917,9.0292552 13.0291384,9.0292552 C12.4678799,9.0292552 12.0131038,9.42478145 12.0131038,9.912531 C12.0131038,9.96243408 11.9916881,10.0280482 11.9574791,10.1010254 C11.7947535,9.80175132 11.444289,9.59476192 11.0381792,9.59476192 C10.7158298,9.59476192 10.428539,9.72517316 10.2423659,9.9286327 C10.2128872,9.96084853 9.95503008,10.1124785 9.56772231,10.3330538 C9.42419296,10.2656458 9.25988152,10.2273869 9.08528491,10.2273869 C8.52402639,10.2273869 8.06925026,10.6227418 8.06925026,11.110834 C8.06925026,11.1327967 8.07017211,11.1545718 8.07198399,11.1761317 C7.99444736,11.219778 7.91635489,11.2637657 7.83798549,11.3079528 C7.65303114,11.1401261 7.39265884,11.0356616 7.10425567,11.0356616 C6.54299715,11.0356616 6.08802242,11.4311879 6.08802242,11.9191088 C6.08802242,12.041013 6.11642292,12.1571391 6.16778579,12.2627647 C6.15335632,12.2712127 6.139009,12.2796214 6.12474665,12.2879895 C5.93855314,12.1049614 5.66638369,11.9895972 5.36320073,11.9895972 C4.80194221,11.9895972 4.34696748,12.3849521 4.34696748,12.8730444 C4.34696748,12.9087152 4.26072151,13.1479577 4.16648644,13.4358235 C4.11739319,13.4294926 4.06715477,13.4262128 4.01603465,13.4262128 C3.45477613,13.4262128 3,13.8215677 3,14.30966 C3,14.590498 3.15073021,14.8406695 3.38566217,15.0024368 C3.4157615,15.0231624 3.50202146,15.1684304 3.6252665,15.3943366 C3.42985749,15.5498469 3.30729951,15.7734251 3.30729951,16.0219315 C3.30729951,16.4916448 3.74547603,16.8725764 4.28579886,16.8725764 C4.32304733,16.8725764 4.35980882,16.8707674 4.39597358,16.8672451 C4.41877936,16.9112793 4.44168658,16.9554886 4.46466303,16.9997994 C4.29230702,17.1531804 4.18610195,17.3629966 4.18610195,17.594383 C4.18610195,18.0640962 4.62407988,18.4450278 5.16460131,18.4450278 C5.18606175,18.4450278 5.20736105,18.4444269 5.22847816,18.4432435 C5.26295805,18.5059574 5.29658807,18.5665621 5.32921244,18.6247009 L5.32921244,18.6247009 C5.19876071,18.7692223 5.12097563,18.951378 5.12097563,19.149355 C5.12097563,19.6190684 5.55915216,20 6.09967359,20 C6.63999642,20 7.07817295,19.6192541 7.07817295,19.149355 C7.07817295,18.6794704 6.63999642,18.2987102 6.09967359,18.2987102 C5.91815009,18.2987102 5.74816926,18.3416531 5.60245092,18.416493 C5.59671565,18.3987175 5.59091046,18.3807807 5.58503878,18.3626907 C5.91501378,18.2259484 6.14310066,17.9332727 6.14310066,17.594383 C6.14310066,17.1244983 5.70492414,16.7435666 5.16460131,16.7435666 C5.12321016,16.7435666 5.0824203,16.7458004 5.0423824,16.7501368 C5.02628555,16.7025551 5.01032325,16.6552877 4.99453817,16.6084335 C5.16170143,16.455812 5.26429822,16.2492703 5.26429822,16.0219315 C5.26429822,15.6354819 4.96805029,15.309316 4.56215469,15.2056692 C4.54446476,15.1184652 4.54171782,15.0658983 4.55783911,15.0570504 C4.84291948,14.9005883 5.03226789,14.6243146 5.03226789,14.30966 C5.03226789,14.0860386 4.93676644,13.8818833 4.77929671,13.7262963 C4.83061141,13.6740425 4.86657838,13.6439157 4.87843099,13.6495181 C5.0225297,13.7176296 5.18768402,13.7563202 5.36320073,13.7563202 C5.92445925,13.7563202 6.37943398,13.3609653 6.37943398,12.8730444 C6.37943398,12.7657232 6.35743742,12.6628855 6.31715106,12.5677483 L6.31715106,12.5677483 Z" fill="#FFFFFF" id="Shape" stroke="#262626" stroke-width="0.1"/><g fill="#FFFFFF" id="Group" stroke="#262626" stroke-width="0.1" transform="translate(10.000000, 18.000000)"><path d="M10.9033775,0.00224365271 C12.3964997,-0.078547529 12.0272163,2.04642193 11.7322618,2.52037008 C11.3476591,3.13848117 10.9901441,3.15766056 10.5052401,2.58660324 C10.1335212,2.14890251 9.4104784,0.0830938935 10.9036006,0.00233076469 L10.9034147,0.00233076469 L10.9033775,0.00224365271 L10.9033775,0.00224365271 Z" id="Shape"/><path d="M0.576413198,1.0425363 C1.85339571,0.66896515 2.09905188,2.8643678 1.96906424,3.39554545 C1.79933271,4.08879531 1.49365278,4.1781401 0.91945604,3.70261687 C0.479426131,3.33817462 -0.700569316,1.41583404 0.576413198,1.04247554 L0.576413198,1.0425363 L0.576413198,1.0425363 Z" id="Shape"/><path d="M23.9033775,0.00224365271 C25.3964997,-0.078547529 25.0272163,2.04642193 24.7322618,2.52037008 C24.3476591,3.13848117 23.9901441,3.15766056 23.5052401,2.58660324 C23.1335212,2.14890251 22.4104784,0.0830938935 23.9036006,0.00233076469 L23.9034147,0.00233076469 L23.9033775,0.00224365271 L23.9033775,0.00224365271 Z" id="Shape" transform="translate(24.000000, 1.500000) scale(-1, 1) translate(-24.000000, -1.500000) "/><path d="M33.5764132,1.0425363 C34.8533957,0.66896515 35.0990519,2.8643678 34.9690642,3.39554545 C34.7993327,4.08879531 34.4936528,4.1781401 33.919456,3.70261687 C33.4794261,3.33817462 32.2994307,1.41583404 33.5764132,1.04247554 L33.5764132,1.0425363 L33.5764132,1.0425363 Z" id="Shape" transform="translate(34.000000, 2.500000) scale(-1, 1) translate(-34.000000, -2.500000) "/></g><path d="M45.0938183,25.9999988 C45.6458972,25.1697045 46.2257835,24.3551853 47,23.649834 C45.0178882,24.7495758 43.9749468,24.58361 43.8298361,23.1517858 C43.7124111,23.1206192 43.5535013,23.1206192 43.3947737,23.1206192 C41.8823315,24.8792801 40.4110602,24.635483 38.9813818,22.3891269 C37.0336916,24.6976525 35.3623869,24.6562648 34.0501469,22.2490253 C31.8037985,24.3531285 29.911453,24.3589152 28.3729414,22.2935064 L28.3727727,22.0311665 C28.4583745,22.0596096 28.4001632,22.0686872 28.198336,22.0478084 L28.1657081,22 C28.1056845,22.0089317 28.0504969,22.0167928 27.9999409,22.023752 C27.9493867,22.0167953 27.8939949,22.0089267 27.8341755,22 L27.8015458,22.0478084 C27.5995213,22.0686872 27.5413251,22.0595957 27.6269236,22.0311665 L27.6269236,22.2936574 C26.0885133,24.3588888 24.1960665,24.3532279 21.9497181,22.2490267 C20.637495,24.656178 18.9660047,24.6976915 17.0183145,22.3891283 C15.5888554,24.6355094 14.1174491,24.8791807 12.6050913,23.1206205 C12.4463738,23.1204947 12.2874506,23.1206205 12.1698265,23.151787 C12.0250076,24.5836237 10.982078,24.7495518 9,23.6498352 C9.7740478,24.3551614 10.3541196,25.1697309 10.9061817,26 C16.6174713,25.8222344 22.3090191,25.5998354 28.0005669,25.3765307 C33.6916085,25.5998354 39.3828189,25.8222344 45.0949522,26 L45.0951209,26 L45.0938183,25.9999988 L45.0938183,25.9999988 Z" fill="#FEE94E" id="Shape" stroke="#262626" stroke-width="0.1"/><path d="M46.8559647,23.7137997 C46.7542464,24.0890197 46.5615888,24.4490318 46.2970567,24.7423218 C44.5129597,26.7197068 43.1861851,26.2710903 43.1378093,24.0564564 C40.8021724,26.4479838 39.0358323,26.1454046 38.7191004,23.6230855 C36.7542396,26.8048784 33.6017099,25.2820622 33.5364752,23.3523545 C32.6709947,26.1571781 27.875759,26.1373369 27.5692508,22.9137168 C27.2625408,26.1375703 22.4670024,26.1572657 21.6016901,23.3523545 C21.536447,25.2821643 18.3839257,26.8048346 16.4190649,23.6230855 C16.1022657,26.1454777 14.3359929,26.4479109 12.000356,24.0564564 C11.9517599,26.2711195 10.6248693,26.7197361 8.8411086,24.7423218 C8.63294335,24.5115217 8.46934189,24.2395442 8.35950765,23.9513919 L8.35950765,23.9513919 C8.34730848,23.9559638 8.33491471,23.9601349 8.32233057,23.9638934 C7.89981252,24.090085 7.42271522,23.7032464 7.2566268,23.0999481 C7.17016697,22.785892 7.18502102,22.4750634 7.27874229,22.2314058 C7.23073142,22.1629556 7.16728299,22.0796588 7.07250634,21.9966397 C6.87418017,21.8227831 6.53815817,21.6502573 6.35447271,21.4338881 C5.98695937,21.0011772 5.7919992,20.5771682 6.34276101,20.5378854 C6.47923934,20.5279699 6.61327258,20.4868444 6.66972432,20.3710538 C6.7136794,20.2808976 6.67615981,20.2453778 6.71198138,19.9951998 C6.7353565,19.8330782 6.78121138,19.7029292 6.84352163,19.6065518 C6.90576314,19.5103877 7.00489191,19.5231299 7.09336757,19.4967052 C7.18172251,19.4703166 7.25930857,19.4047957 7.36113541,19.4519581 C7.46289083,19.4993241 7.56811434,19.5843466 7.67041987,19.7089469 L7.67032091,19.7089765 L7.67034071,19.7089706 C7.82800287,19.9013616 7.81425702,19.9521972 7.89728082,20.0044246 C8.00418595,20.071426 8.13865521,20.032359 8.25944009,19.9654387 C8.74661643,19.6947216 8.79683905,20.1617797 8.70536629,20.7317564 C8.65966418,21.0166358 8.46259584,21.3483775 8.38274963,21.6053146 C8.34445171,21.728706 8.33313856,21.834858 8.32727929,21.9196437 C8.36241153,21.9464814 8.39656407,21.9763163 8.42947076,22.0089329 C8.4216535,21.9717596 8.41367897,21.933631 8.40560218,21.8947826 C8.41801899,21.8080681 8.51421444,21.7667444 8.59023441,21.5365225 C8.66621656,21.3061302 8.72193653,20.8864865 8.82545749,20.6865599 C9.03254041,20.2868916 9.25885971,20.1220892 9.36056864,20.8888602 C9.38577911,21.0788982 9.4294859,21.2729436 9.50690233,21.3789366 C9.56704943,21.4613481 9.58306482,21.4182425 9.7379721,21.5286957 C9.83847013,21.6001465 9.92298249,21.6950662 9.98946075,21.8042285 C10.055901,21.9132158 10.0624277,22.0463456 10.09081,22.1743937 C10.1191551,22.3022739 10.1693184,22.4249032 10.155511,22.5533715 C10.1416704,22.6816785 10.1056595,22.805583 10.0454046,22.9156907 C9.95265367,23.085651 9.92011801,23.0542173 9.90074082,23.155756 C9.87576823,23.2863656 9.91824952,23.4807103 9.9754777,23.6630491 C10.2067815,24.398672 9.93405008,24.3540538 9.57966606,24.0892044 C9.44579241,23.9892643 9.28363387,23.7639916 9.1410736,23.5854906 C10.1966512,25.4830536 11.0948303,25.3345859 11.2771325,23.1405257 C11.0111658,23.0575427 11.1163452,22.653992 10.8148647,22.8154064 C10.6571075,22.89979 10.4565841,22.6594191 10.5872536,22.5269497 C10.9244664,22.3109688 11.2243494,22.344305 11.5192047,22.5850262 C11.6578968,22.1997207 11.9983213,22.0198713 12.4230575,22.1823508 C12.60631,22.2523641 12.5432865,22.5409874 12.3592268,22.5244957 C12.0621604,22.4976516 12.1813889,22.7675073 12.0888546,22.947873 C14.1957871,25.3489087 15.27421,25.0670022 15.0158846,21.9227178 C14.9909086,21.9032339 14.9667701,21.8827249 14.9435398,21.8612425 C14.885116,21.92498 14.7640238,21.9855067 14.6393698,22.1747387 C14.4870671,22.4057491 14.3293393,22.8285608 14.142737,23.0279229 C13.7695908,23.4269919 13.4117181,23.58781 13.4053551,22.8102008 C13.4036323,22.617501 13.376156,22.4202471 13.2835713,22.3111958 C13.2116452,22.2264008 13.1805481,22.2695801 12.9766268,22.1541444 C12.8442866,22.0794334 12.7393934,21.9813931 12.6632471,21.8695673 C12.5870752,21.7575787 12.602085,21.622852 12.5845484,21.4928852 C12.5669888,21.3627479 12.516906,21.2375424 12.5605148,21.1082012 C12.6040986,20.9786822 12.6789814,20.8543287 12.786424,20.744519 C12.9518936,20.574965 12.9932148,20.6075406 13.0399107,20.5053855 C13.1000493,20.3739736 13.074403,20.1764565 13.0249221,19.9907477 C12.8252595,19.2414489 13.21186,19.2934653 13.676122,19.5697602 C13.9082656,19.7080015 14.1717862,20.0691496 14.3793227,20.2474855 C14.5493291,20.3934462 14.6817847,20.4169505 14.7547417,20.4614958 C14.783973,20.4135301 14.81669,20.367645 14.8525981,20.3242201 C14.8012163,20.2513773 14.7314781,20.162334 14.6166988,20.071071 C14.3765498,19.8799625 13.9384048,19.6792087 13.7301626,19.4464068 C13.3134667,18.9808192 13.1422327,18.5377736 13.9428861,18.5421147 C14.1413337,18.5430076 14.3442669,18.5122394 14.4549632,18.4000028 C14.5411544,18.3126137 14.4963963,18.2738085 14.6119061,18.0244351 C14.6869916,17.862848 14.7861551,17.7352894 14.9002879,17.6430927 C15.0142673,17.5511057 15.1532972,17.5718623 15.2870688,17.5522802 C15.4206579,17.532725 15.5488136,17.472857 15.6828988,17.5285316 C15.8168294,17.5844055 15.9460915,17.6785219 16.0610262,17.8123081 L16.0608765,17.81233 L16.0609065,17.8123256 C16.2379361,18.0188761 16.2051817,18.0690323 16.3109787,18.1283128 C16.4472712,18.2043945 16.650303,18.1757363 16.8408267,18.1179043 C17.6094946,17.8838378 17.5619371,18.358737 17.2846179,18.9260938 C17.1460355,19.2096649 16.7781696,19.5284053 16.5977333,19.7810804 C16.5111486,19.9024289 16.4677155,20.0085495 16.4375847,20.0935637 C16.491176,20.1303055 16.5414759,20.171504 16.5878756,20.2167145 C16.6045435,20.1002245 16.625739,19.9595195 16.6499028,19.8083659 C16.7175979,19.7358909 16.9090959,19.7460231 17.1647639,19.5749096 C17.4204553,19.4036227 17.7403505,19.050727 18.0285274,18.920688 C18.6048559,18.6607978 19.0910826,18.623365 18.865552,19.368877 C18.809661,19.5536476 18.7842784,19.7512034 18.8648552,19.885607 C18.9274247,19.9900856 18.9784374,19.9589288 19.1933414,20.1357191 C19.3328726,20.2502261 19.4318133,20.3781014 19.4914228,20.5099662 C19.5510581,20.6416535 19.4922644,20.7655838 19.4747048,20.8957211 C19.4571682,21.0256879 19.4808888,21.1616896 19.3886906,21.2713323 C19.2965191,21.3808123 19.1675674,21.4753308 19.0031385,21.5453446 C18.7497836,21.653544 18.7089956,21.608946 18.6211945,21.6914174 C18.5081717,21.7974769 18.4804696,21.9946975 18.4851191,22.1883301 C18.5046247,22.9697261 18.0471284,22.7943248 17.5619123,22.3788507 C17.3192735,22.1712858 17.1051744,21.7402222 16.9047167,21.5021628 C16.8825933,21.4758686 16.8606344,21.4519293 16.8390115,21.4300252 C16.8019929,21.521103 16.7533259,21.6071061 16.6945858,21.6860048 L16.6945858,21.6860048 C18.5999013,24.9744257 19.9619346,25.0812399 21.0672177,22.06129 C20.8275669,21.9054778 20.8958031,21.5140375 20.5457435,21.6398384 C20.3482316,21.7107271 20.1824502,21.406479 20.3590775,21.2766414 C20.7677551,20.9759006 21.2115597,21.0774993 21.5090213,21.4640244 C21.74768,21.0476704 22.1728029,20.8974839 22.6220221,21.1504889 C22.8159153,21.2596305 22.6954845,21.5798376 22.4895483,21.5314119 C22.0939159,21.4387706 22.2715555,21.8923183 21.9724796,22.0479555 C22.8029647,24.8310482 26.8940326,25.0997986 26.505727,21.2492417 C26.405452,21.2960786 26.2449588,21.3472853 26.062311,21.4946734 C25.8059795,21.701358 25.5059115,22.0971909 25.2076259,22.2675632 C24.6110717,22.6086576 24.0807694,22.7160339 24.2184694,21.9450699 C24.2523891,21.7539956 24.2511868,21.5546785 24.1423939,21.4332676 C24.0578906,21.3388714 24.0063048,21.3771228 23.7431665,21.2332503 C23.5723573,21.1400826 23.4442924,21.0277912 23.3589887,20.9060156 C23.2736799,20.784075 23.3200479,20.6528353 23.3200479,20.5215913 C23.3200479,20.390175 23.2736799,20.2589281 23.3589887,20.137167 C23.4442957,20.0152265 23.5723573,19.9029381 23.7431665,19.8097717 C24.0063082,19.6658541 24.0578973,19.7041025 24.1423939,19.6097106 C24.2511868,19.4882953 24.2525909,19.2889827 24.2184694,19.0979085 C24.0807728,18.3269591 24.6110885,18.4345103 25.2076259,18.7754151 C25.5058947,18.9459623 25.8059795,19.3417954 26.062311,19.5484798 C26.2735408,19.718654 26.4550482,19.7606331 26.5480997,19.8157889 L26.5480997,19.8157889 C26.5876879,19.7721689 26.6308637,19.7311501 26.6772374,19.6930732 C26.6314408,19.6134911 26.5678223,19.5152052 26.454893,19.408192 C26.2186389,19.1841318 25.7656027,18.9218187 25.5707141,18.6610959 C25.1807014,18.1396357 25.057866,17.6760798 25.9396404,17.7964403 C26.1582217,17.8260913 26.386455,17.8250394 26.5251471,17.7299416 C26.6331363,17.6558972 26.5895781,17.6109816 26.7539689,17.3807792 C26.8607524,17.2316489 26.9890123,17.1197063 27.1285116,17.0449515 C27.2678107,16.9703819 27.4179523,17.01109 27.5682974,17.01109 C27.7184373,17.01109 27.8685839,16.9703819 28.0080832,17.0449515 C28.1473823,17.1196961 28.2758491,17.2316344 28.3826258,17.3807792 L28.3824577,17.3807792 L28.3824913,17.3807792 C28.5468838,17.6109816 28.5033256,17.6559016 28.6111113,17.7299416 C28.7500086,17.8250394 28.9780367,17.8260913 29.196618,17.7964403 C30.0785942,17.676077 29.955557,18.1394607 29.5655444,18.6610959 C29.3706389,18.9218187 28.9178045,19.1841318 28.6813654,19.408192 C28.5678923,19.5158084 28.5042424,19.6146001 28.4583918,19.6944193 C28.4958882,19.7253067 28.5312852,19.7581202 28.5643752,19.792679 C28.6647523,19.7461217 28.8241012,19.6944831 29.0053288,19.5484798 C29.2616603,19.3417954 29.5617451,18.9459623 29.8600139,18.7754151 C30.4565513,18.4345103 30.986867,18.3269591 30.8491704,19.0979085 C30.8150489,19.2889827 30.816453,19.4882953 30.9252459,19.6097106 C31.0097425,19.7041025 31.0613316,19.6658541 31.3244733,19.8097717 C31.4952825,19.9029381 31.623344,20.0152265 31.7086511,20.137167 C31.7939599,20.2589281 31.7475919,20.390175 31.7475919,20.5215913 C31.7475919,20.6528353 31.7939599,20.784075 31.7086511,20.9060156 C31.6233474,21.0277912 31.4952825,21.1400826 31.3244733,21.2332503 C31.061335,21.3771228 31.0097492,21.3388714 30.9252459,21.4332676 C30.816453,21.5546785 30.8152507,21.7539956 30.8491704,21.9450699 C30.9868704,22.7160339 30.4565681,22.6086576 29.8600139,22.2675632 C29.5617283,22.0971909 29.2616603,21.701358 29.0053288,21.4946734 C28.8590102,21.3766012 28.7269095,21.3202541 28.6285953,21.2784309 C28.2638993,25.0984353 32.3362147,24.8240112 33.1648718,22.0479555 C32.8655942,21.8923183 33.0432304,21.4385942 32.6476014,21.5314119 C32.4416584,21.5798332 32.3214277,21.2596217 32.5153243,21.1504889 C32.9643248,20.8974692 33.3896663,21.0476646 33.628325,21.4640244 C33.9256017,21.0774993 34.3693895,20.9759151 34.7782689,21.2766414 C34.9546944,21.4064849 34.7888961,21.7107227 34.5915861,21.6398384 C34.2413246,21.5140361 34.3095777,21.9054778 34.0699101,22.06129 C35.1759789,25.0832029 36.5391244,24.9743324 38.446507,21.679731 C38.4250358,21.6509559 38.404906,21.6212328 38.3861936,21.5906607 C38.3051825,21.6331196 38.1596384,21.6555473 37.9751711,21.7976305 C37.7473117,21.9729914 37.4600122,22.3306585 37.2042309,22.465263 C36.6926346,22.7348204 36.2640223,22.78051 36.4746067,22.0327955 C36.5266352,21.8474597 36.5523284,21.6499448 36.4835636,21.5172747 C36.430164,21.414134 36.3847548,21.446114 36.1984187,21.2735512 C36.0774339,21.1617576 35.9923955,21.0359145 35.942029,20.9055693 C35.8916805,20.7750601 35.9454384,20.6503999 35.9629751,20.5204331 C35.9805347,20.3902959 35.9618496,20.255024 36.0447612,20.1442031 C36.1276955,20.0332044 36.2427391,19.9366529 36.3886216,19.8639257 C36.6134143,19.7514996 36.6486042,19.7952752 36.7272244,19.7114644 C36.8284351,19.6036714 36.8561638,19.406459 36.8550395,19.2133425 C36.850486,18.4341498 37.2503904,18.6012974 37.6708459,19.0071003 C37.8810611,19.2100955 38.0625926,19.6363919 38.2352183,19.8703771 C38.3750878,20.0597968 38.5090717,20.1232344 38.5756237,20.1873325 C38.6159204,20.1502303 38.6589338,20.1160487 38.7042963,20.0850566 C38.6741819,20.0002842 38.6307093,19.8946687 38.5445276,19.7739883 C38.3642558,19.5213373 37.9962104,19.2025707 37.8576429,18.9190015 C37.5803004,18.3518184 37.5329456,17.8767749 38.3014341,18.1108122 C38.491958,18.1686442 38.6951722,18.1973291 38.8312823,18.1212208 C38.9372608,18.0619623 38.9045058,18.0118105 39.0815341,17.8052598 C39.1964726,17.6714889 39.3255513,17.5773412 39.4596613,17.5214831 C39.5935686,17.4657826 39.7217197,17.52565 39.8554913,17.545232 C39.9890804,17.5647872 40.1281148,17.5440314 40.2422723,17.6360444 C40.3562284,17.7282049 40.4555765,17.8557861 40.530654,18.0173869 L40.5305045,18.017365 L40.5305343,18.0173693 C40.6460456,18.2667429 40.6012869,18.3055525 40.6872977,18.3929105 C40.7981766,18.5051739 41.0009272,18.5359155 41.1993749,18.5350226 C42.0002082,18.5307049 41.8288177,18.9735538 41.4120983,19.4393147 C41.2038412,19.6721144 40.7658757,19.8728946 40.5255622,20.0639789 C40.4102184,20.1557684 40.3403845,20.2453086 40.2889232,20.3183789 C40.3327546,20.3715577 40.3718085,20.4284092 40.4055454,20.4882387 C40.4823105,20.4571172 40.5907411,20.418976 40.7221815,20.3100829 C40.9326745,20.1355468 41.2022063,19.7792442 41.4366311,19.6452436 C41.9054518,19.3774303 42.292865,19.3324494 42.0806777,20.0780045 C42.0280925,20.2627856 41.9991406,20.4598065 42.0570682,20.5922916 C42.1020453,20.6952797 42.143906,20.6634603 42.3065094,20.8359965 C42.4120956,20.9477425 42.4848834,21.0734383 42.5262903,21.2037297 C42.5677254,21.3338441 42.5155522,21.4581202 42.4958147,21.5879184 C42.476103,21.7175466 42.4888532,21.8525255 42.4108163,21.9631124 C42.3328079,22.0735372 42.2262881,22.1696557 42.092716,22.2419496 C41.8868916,22.3536609 41.8565228,22.3099229 41.7831868,22.3933975 C41.6887889,22.5007492 41.6580116,22.6974734 41.6530604,22.8901127 C41.6336689,23.6674877 41.2785453,23.5001888 40.9121427,23.0943977 C40.7289092,22.8916739 40.5782901,22.4660594 40.4298813,22.2323155 C40.3072306,22.0389761 40.1860121,21.9769149 40.1293481,21.9114387 C40.1268478,21.9134113 40.124339,21.9153734 40.1218216,21.9173252 L40.1218216,21.9173252 C39.8617532,25.0667519 40.9404056,25.3502078 43.0484077,22.947873 C42.9558734,22.7675073 43.0753121,22.4976502 42.7780355,22.5244957 C42.5939742,22.5409814 42.5311541,22.2525335 42.7144066,22.1823508 C43.1389241,22.020061 43.4795606,22.1997265 43.6182594,22.5850262 C43.9131146,22.3442934 44.2127958,22.3107821 44.5500087,22.5269497 C44.6806967,22.6594191 44.480365,22.8998017 44.3223976,22.8154064 C44.0211072,22.6539774 44.1260797,23.0575354 43.8601298,23.1405257 C44.0562638,25.4980907 45.0784976,25.4938215 46.2347291,23.1271748 L46.2347291,23.1271748 C46.1759432,23.1565968 46.0905339,23.1864096 45.9728013,23.2970656 C45.7991076,23.460203 45.5550544,23.7990974 45.3714937,23.9215122 C45.0042874,24.1666806 44.7296878,24.1963705 44.9976376,23.4743646 C45.0639494,23.2953952 45.1161376,23.1036326 45.0977619,22.9718408 C45.0835134,22.8693849 45.0494428,22.8990019 44.9653591,22.7242186 C44.9107193,22.6109771 44.8809836,22.4852795 44.8736091,22.3563939 C44.8662758,22.2273488 44.922532,22.1076222 44.9572639,21.9814623 C44.9920413,21.8551369 45.0052485,21.7225452 45.077074,21.617329 C45.1489462,21.5119402 45.2381122,21.4217576 45.3420627,21.355883 C45.5023077,21.2540254 45.5161352,21.2979449 45.5803408,21.2189252 C45.662977,21.1172976 45.7163741,20.9259004 45.7510988,20.7374972 C45.8911963,19.9773214 46.1089247,20.1542349 46.2956417,20.5646441 C46.388975,20.7699398 46.4235327,21.1920457 46.4878341,21.4262644 C46.5394865,21.6141378 46.6102367,21.6811728 46.640303,21.7454495 C46.6732445,21.7115622 46.707434,21.6805904 46.7425898,21.6527715 C46.7377118,21.5685253 46.7276896,21.4632852 46.6920484,21.3413147 C46.6175331,21.0859698 46.4303602,20.7571834 46.3889758,20.4735936 C46.3060779,19.90636 46.3591799,19.4399829 46.8267472,19.7048403 C46.9427005,19.7703175 47.0722455,19.807914 47.1759642,19.7399609 C47.2567218,19.6870521 47.2439377,19.6365082 47.3979651,19.4430316 C47.4979103,19.3177416 47.6001781,19.2318316 47.6989705,19.1835702 C47.7976005,19.135453 47.8718648,19.1999817 47.9570172,19.2254139 C48.0420534,19.2508113 48.1378661,19.2370787 48.1971418,19.332357 C48.2562578,19.4277697 48.299396,19.5571028 48.3204031,19.7185323 L48.3203078,19.7185039 L48.3203269,19.7185095 C48.3525157,19.9676025 48.3159577,20.0034143 48.3574116,20.092819 C48.4109138,20.2077286 48.539786,20.2473124 48.6714327,20.255785 C49.2028185,20.2892777 49.0105048,20.713898 48.6515662,21.1493522 C48.472179,21.3670051 48.1462853,21.542556 47.9530767,21.7179409 C47.8603287,21.8021933 47.7981349,21.8863913 47.7510431,21.9553624 C47.838692,22.1971314 47.8498582,22.5062683 47.7635854,22.8196452 C47.614919,23.3596597 47.2272911,23.7292973 46.8559647,23.7137997 L46.8559647,23.7137997 Z" fill="#FEE94E" id="Shape" stroke="#262626" stroke-width="0.1"/><path d="M26.6161188,26.0440961 L26.6151127,26.067877 C23.6826153,26.1737511 18.4861856,26.4094413 11,26.7946423 L12.0957124,31 C17.0677778,30.8866364 22.8707287,30.7104017 27.9999162,30.5851389 C33.1291036,30.7103935 38.9322222,30.8866283 43.9042876,31 L45,26.7946423 C37.5144851,26.4073015 32.3178878,26.1716464 29.385055,26.066008 L29.3840489,26.0420646 C29.6803002,25.9949946 29.2205145,25.9868496 28.0001006,26.0208923 C26.77968,25.9866857 26.3202196,25.9949946 26.6165548,26.0420646 L26.6163871,26.0420646 L26.6161188,26.0440961 L26.6161188,26.0440961 Z" fill="#FEE94E" id="Shape"/><path d="M27.4998116,26.063862 C27.3008784,26.063862 27.1023255,26.064219 26.9037726,26.0649331 L26.7052196,26.0660041 L26.6035788,26.0663612 L26.4192449,26.0674323 L26.3085238,26.0683246 L26.2368817,26.0686816 L26.1103743,26.0697527 L25.9122182,26.0718949 L25.7379532,26.0735015 L25.7008483,26.0738585 L25.5549965,26.0754651 C25.410135,26.0770718 25.2656571,26.0793389 25.1212024,26.081481 L25.0732448,26.0823734 L25.0458121,26.0827304 L24.8612797,26.0859616 L24.804637,26.0866755 L24.7264823,26.0881036 L24.5364277,26.0915489 L24.5291198,26.0917274 L24.3319557,26.0957975 L24.2682052,26.097047 L24.1351851,26.0998319 L24.0915676,26.1009028 L23.9382178,26.1043481 L23.7416489,26.1088645 L23.7327868,26.1092215 L23.5448981,26.113952 L23.4653628,26.1158799 L23.4594603,26.1160584 C23.2259717,26.1222706 22.9926981,26.1289289 22.7596063,26.136023 L22.6644798,26.1390219 L22.3980396,26.1478227 L22.3678425,26.1487152 L22.1318077,26.1568908 L21.9764853,26.1622462 L21.865961,26.16612 L21.8351737,26.1673696 L21.6001144,26.1761701 L21.5859119,26.1765271 L21.3907153,26.1842387 L21.3820352,26.1845958 L21.1955353,26.1923252 L21.0694197,26.1974663 L20.805939,26.2088374 L20.804451,26.2088374 C20.4578886,26.2240822 20.1119048,26.2403963 19.7665328,26.257785 L19.7171914,26.2601415 C19.2089792,26.2861183 18.7023543,26.3144567 18.1973165,26.3451569 L18.1683049,26.3467635 L18.0931114,26.351494 C17.0816306,26.4139675 16.0758374,26.486316 15.0762113,26.5681165 L15.0387129,26.5711155 L15.0262796,26.5723651 C13.5616603,26.6928044 12.1102349,26.8342758 10.6732929,26.9952923 C9.85542152,27.0783745 9.69911213,26.029854 10.6732929,25.9321729 C12.1102845,25.7709442 13.5617264,25.6299012 15.0262796,25.5094602 L15.0387129,25.5083891 C17.0483814,25.3432955 19.0826851,25.2170599 21.1391439,25.1318391 L21.3088786,25.1249665 L21.3347323,25.1237169 L21.3907831,25.1215747 L21.5859797,25.1138453 L21.6003806,25.1131312 C22.4417298,25.0809279 23.2868157,25.0553812 24.135324,25.0369161 L24.2685424,25.0339349 L24.2750567,25.0337564 L24.5008406,25.0292402 L24.5294571,25.0285261 L24.5365666,25.0283476 L24.7266212,25.0249023 L24.804971,25.0234742 L24.9239804,25.0215463 L25.0733853,25.0191721 L25.1213429,25.0182795 L25.1916028,25.0172084 C25.3656693,25.0146201 25.5401492,25.0122639 25.7144142,25.0103358 L25.8801974,25.0084079 L25.9123653,25.0080509 L26.1105214,25.0064443 C26.3031553,25.0048376 26.4961695,25.0032132 26.6891836,25.0021422 L26.7053701,25.0021422 L26.903923,25.0012496 C27.1024594,25.0005355 27.3012107,25 27.4999621,25 C27.6988953,25 27.8976466,25.000357 28.0960012,25.0012496 L28.294736,25.0021422 L28.310724,25.0021422 C28.5037382,25.0032132 28.6967689,25.0047307 28.8895846,25.0064443 L29.0877407,25.0080509 L29.1197152,25.0084079 L29.2854984,25.0103358 C29.4599618,25.0124779 29.6342433,25.0146201 29.8083098,25.0172084 L29.8787697,25.0182795 L29.9265322,25.0191721 L30.0759338,25.0215463 L30.19514,25.0234742 L30.2732947,25.0249023 L30.4633493,25.0283476 L30.4706572,25.0285261 L30.4990786,25.0292402 L30.7248625,25.0337564 L30.7315752,25.0339349 L30.8645969,25.0369161 C31.713254,25.0553812 32.5581415,25.0809279 33.3997056,25.1131312 L33.4139081,25.1138453 L33.6091047,25.1215747 L33.6651538,25.1237169 L33.6910108,25.1249665 L33.860944,25.1318391 C35.9172375,25.2170689 37.9517065,25.3433025 39.961375,25.5083891 L39.9738083,25.5094602 C41.4382292,25.6298993 42.8896877,25.7709422 44.3266296,25.9321729 C45.3010088,26.0298557 45.144501,27.078603 44.3266296,26.9952923 C42.8896381,26.8342794 41.4381961,26.6928061 39.9738083,26.5723651 L39.961375,26.5711155 L39.9238749,26.5681165 C38.9242323,26.4863214 37.9185052,26.4137586 36.9069748,26.351494 L36.8317813,26.3467635 L36.802768,26.3451569 C36.2975319,26.3144567 35.7908904,26.28612 35.2828932,26.2601415 L35.233355,26.257785 C34.8881648,26.240398 34.5419992,26.2240805 34.1954368,26.2088374 L34.1939488,26.2088374 L33.9306665,26.1974663 L33.8043558,26.1923252 L33.6178559,26.1845958 L33.6093742,26.1842387 L33.4141776,26.1765271 L33.3997767,26.1761701 L33.1647174,26.1673696 L33.1339301,26.16612 L33.0234058,26.1622462 L32.8680801,26.1568908 L32.6320453,26.1487152 L32.602045,26.1478227 L32.3354064,26.1390219 L32.2402782,26.136023 C32.0073848,26.1289362 31.7741112,26.1222777 31.5406391,26.1160584 L31.53472,26.1158799 L31.4551815,26.113952 L31.2672928,26.1092215 L31.2584307,26.1088645 L31.0616634,26.1043481 L30.9083119,26.1009028 L30.8648928,26.0998319 L30.7316727,26.097047 L30.6679255,26.0957975 L30.4707614,26.0917274 L30.4636684,26.0915489 L30.2736138,26.0881036 L30.1952607,26.0866755 L30.1388147,26.0859616 L29.9542823,26.0827304 L29.9266513,26.0823734 L29.8788904,26.081481 C29.7342241,26.0793209 29.5897495,26.0771789 29.4450963,26.0754651 L29.2990494,26.0738585 L29.2621413,26.0735015 L29.0878763,26.0718949 L28.8895218,26.0697527 L28.7632094,26.0686816 L28.6913706,26.0683246 L28.5808496,26.0674323 L28.3965156,26.0663612 L28.2948732,26.0660041 L28.0961384,26.0649331 C27.8975855,26.064219 27.6990491,26.063862 27.5000993,26.063862 L27.4998116,26.063862 L27.4998116,26.063862 Z" fill="#FEE94E" id="Shape" stroke="#262626" stroke-width="0.1"/><path d="M27.9999126,4 C29.6569065,4 31,5.11919009 31,6.5 C31,7.88060758 29.656924,9 27.9999126,9 C26.3431284,9 25,7.88080991 25,6.5 C25,5.11923344 26.343076,4 27.9999126,4 L27.9999126,4 L27.9999126,4 Z" fill="#2B98F0" id="Shape"/><path d="M29.0281178,0.906739653 C29.0281178,0.659552508 28.8021098,0.458431928 28.5207591,0.452151442 C28.5192525,0.202179416 28.2867661,0 28.0000084,0 C27.7134515,0 27.4808647,0.202353471 27.4792576,0.452325496 C27.1981078,0.458605982 26.971899,0.659552508 26.971899,0.906739653 C26.971899,1.15356418 27.197706,1.35452522 27.478655,1.36115381 L27.478655,2.29301541 L26.5594566,2.29301541 C26.55795,2.04321743 26.3252627,1.84103802 26.0387059,1.84103802 C25.7557481,1.84103802 25.5251534,2.03850345 25.5179551,2.28410958 C25.2318,2.28532797 25,2.48837767 25,2.73852374 C25,2.98884388 25.2318,3.19189358 25.518156,3.19311196 C25.5253375,3.4387181 25.7555472,3.63618353 26.0387059,3.63618353 C26.3176627,3.63618353 26.5456628,3.44430237 26.558854,3.20356977 L27.4784541,3.20356977 L27.4784541,6.30566593 L25.3022423,6.30566593 L25.3022423,6.9999999 L30.6789351,7 L30.6789351,6.30566593 L28.5215459,6.3056661 L28.5215459,3.20356977 L29.441146,3.20356977 C29.4543205,3.44430237 29.6823373,3.63618353 29.9612941,3.63618353 C30.2444528,3.63618353 30.4748466,3.4387181 30.481844,3.19311196 C30.7682,3.19193709 31,2.98884388 31,2.73852374 C31,2.48837767 30.7682,2.28532797 30.4820449,2.28410958 C30.4748634,2.03850345 30.2442519,1.84103802 29.9612941,1.84103802 C29.6747373,1.84103802 29.4423513,2.04321743 29.4405434,2.29301541 L28.5215459,2.29301541 L28.5215459,1.36109579 C28.8025116,1.35452522 29.0281178,1.15356418 29.0281178,0.906739653 L29.0281178,0.906739653 Z" fill="#FEE94E" id="Path"/><g id="Group" transform="translate(11.000000, 27.000000)"><path d="M8.43881106,0.00424539011 C9.2665962,-0.0462020163 9.9649913,0.358772058 9.99874012,0.908617869 C10.0323686,1.45865237 9.38867888,1.94530284 8.56105515,1.99575461 C7.73344609,2.04620201 7.03502164,1.64122795 7.00127282,1.09138213 C6.96746824,0.541347632 7.61115798,0.0546826362 8.43878171,0.00424539011 L8.43881106,0.00424539011 L8.43881106,0.00424539011 Z" fill="#F1453D" id="Shape"/><path d="M0.943882895,1.01166108 C2.00461961,0.92791164 2.92341148,1.30425531 2.99549726,1.85195551 C3.06757928,2.39998939 2.26565696,2.91191324 1.20492025,2.99566703 C0.515180033,3.05010337 0.0862884638,2.58284628 0.0117306238,2.08750489 C-0.0630555508,1.59233761 0.216495778,1.06906863 0.943845154,1.01166108 L0.943882895,1.01166108 L0.943882895,1.01166108 Z" fill="#2B98F0" id="Shape"/><path d="M25.4388111,0.00424539011 C26.2665962,-0.0462020163 26.9649913,0.358772058 26.9987401,0.908617869 C27.0323686,1.45865237 26.3886789,1.94530284 25.5610551,1.99575461 C24.7334461,2.04620201 24.0350216,1.64122795 24.0012728,1.09138213 C23.9674682,0.541347632 24.611158,0.0546826362 25.4387817,0.00424539011 L25.4388111,0.00424539011 L25.4388111,0.00424539011 Z" fill="#F1453D" id="Shape" transform="translate(25.500000, 1.000000) scale(-1, 1) translate(-25.500000, -1.000000) "/><path d="M31.9438829,1.01166108 C33.0046196,0.92791164 33.9234115,1.30425531 33.9954973,1.85195551 C34.0675793,2.39998939 33.265657,2.91191324 32.2049203,2.99566703 C31.51518,3.05010337 31.0862885,2.58284628 31.0117306,2.08750489 C30.9369444,1.59233761 31.2164958,1.06906863 31.9438452,1.01166108 L31.9438829,1.01166108 L31.9438829,1.01166108 Z" fill="#2B98F0" id="Shape" transform="translate(32.500000, 2.000000) scale(-1, 1) translate(-32.500000, -2.000000) "/><path d="M17.4998534,0 C18.3282029,0 19,0.447771403 19,0.999992729 C19,1.5524032 18.3282615,2 17.4998534,2 C16.671504,2 16,1.5524032 16,0.999992729 C16,0.447756853 16.6715626,0 17.4998534,0 L17.4998534,0 L17.4998534,0 Z" fill="#2B98F0" id="Shape"/></g><path d="M28.5537052,11.8356868 C28.8227641,11.6587965 29,11.3566404 29,11.0135944 C29,10.6906566 28.8428338,10.403918 28.5998251,10.2238723 C28.8428338,10.0438137 29,9.75703857 29,9.43399864 C29,9.14817151 28.8768736,8.89074686 28.6800773,8.71055778 L28.6800773,8.71055778 C28.8768736,8.53030151 29,8.2727829 29,7.98685788 C29,7.44188994 28.552404,7 28,7 L28,7 C27.4477719,7 27,7.44187558 27,7.98685788 C27,8.27278156 27.1231737,8.53029907 27.319989,8.71055523 C27.1231737,8.89074213 27,9.14816532 27,9.43399864 C27,9.75703133 27.1572293,10.043809 27.4002532,10.2238701 L27.4002532,10.2238701 C27.1572293,10.4039157 27,10.6906553 27,11.0135944 C27,11.3566404 27.1773056,11.6587965 27.4463722,11.8356868 C27.1773056,12.0125622 27,12.314678 27,12.6576157 C27,13.0010646 27.177844,13.3035735 27.4475976,13.4803352 C27.177844,13.6570939 27,13.9596004 27,14.3030584 C27,14.668554 27.2012712,14.9875551 27.5003517,15.1581172 C27.2012712,15.3287136 27,15.6477477 27,16.0131277 C27,16.5582823 27.4477719,17 28,17 C28.552404,17 29,16.5582823 29,16.0131277 C29,15.6476541 28.7988215,15.3286653 28.4997568,15.1581 L28.4997568,15.1581 C28.7988215,14.9875336 29,14.6685417 29,14.3030584 C29,13.9596095 28.8222259,13.6571006 28.5524799,13.4803389 C28.8222259,13.3035802 29,13.0010737 29,12.6576157 C29,12.314678 28.8227641,12.0125622 28.5537052,11.8356868 L28.5537052,11.8356868 Z" fill="#FFFFFF" id="Shape" stroke="#262626" stroke-width="0.1"/><path d="M44.4946723,30.5943369 C44.8324581,30.637297 45.0113235,30.8166354 44.9994442,30.999883 C45.011121,31.183301 44.8320581,31.3626365 44.4938624,31.4055994 C44.4171207,31.4231559 44.3313125,31.436283 44.2358405,31.4432723 C33.9784125,32.1854908 23.0217219,32.185661 12.7639564,31.4432723 C12.6686836,31.4362843 12.5828804,31.4231559 12.5059345,31.4055994 C12.1677438,31.3626408 11.9886759,31.183301 12.0005552,30.999883 C11.9888784,30.8166211 12.1675363,30.6372997 12.5051246,30.5943369 C12.5820705,30.5766074 12.6682786,30.5636535 12.7639564,30.556664 C23.0215531,29.8142753 33.9780751,29.8146154 44.2358405,30.556664 C44.3317191,30.5636519 44.4177264,30.5766074 44.4946723,30.5943369 L44.4946723,30.5943369 L44.4946723,30.5943369 Z" fill="#FEE94E" id="Shape" stroke="#21231E" stroke-width="0.1"/><g id="Group" transform="translate(13.000000, 37.000000)"><g id="g3535"><g><path d="M5.40007915,2 L5.0752407,1.71117256 C4.91690847,1.5332675 5.00842903,1.29625387 5.35014508,1 C5.59999342,1.0962249 5.7999077,1.17033379 6,1.24442689 C5.86672381,1.64433472 5.66663152,1.89634604 5.40007915,2 L5.40007915,2 L5.40007915,2 Z" fill="#21231E" id="Shape"/><path d="M6.59721139,5.68936872 C6.31310839,5.43194101 5.96145854,5.13959078 5.59174625,4.82251283 C4.4783345,4.98155099 4.55312415,4.72504252 4.21892026,4.27681173 C3.72789067,3.61824432 2.7926324,4.12880306 2.61727938,4.99295244 C2.51687423,5.48754753 2.3554444,5.50274947 1.88503063,5.02715519 C-0.57309336,2.54082952 -0.698560239,0.78267674 1.9308648,0.491963911 L1.93091385,0.491949356 C2.52044996,-0.680265703 4.12001818,0.523873429 3.93427024,1.19555656 C3.86148996,1.45916465 9.74276967,8.13338197 7.48262546,7.70699992 C6.45104406,7.51223721 5.37348451,8.16604997 4.35101647,7.95894781 C4.18253011,7.90669518 4.12666334,7.83487411 3.81454668,7.21563767 C4.00786331,7.22337067 4.18670593,7.21347518 4.35487069,7.19234502 C2.14567011,7.22415017 0.863923722,6.49861256 0.572246785,5.01224435 C1.45201801,6.08427216 2.5010825,6.61459343 3.69309695,6.31265704 C5.30122476,5.90547148 6.22110425,5.61323846 6.58785359,5.68581963 C6.5909551,5.686945 6.59407455,5.68812819 6.59721139,5.68936872 L6.59721139,5.68936872 Z" fill="#FEE94E" id="Shape"/></g><g transform="translate(25.000000, 4.000000) scale(-1, 1) translate(-25.000000, -4.000000) translate(21.000000, 0.000000)"><g id="Group"><path d="M5.40007915,2 L5.0752407,1.71117256 C4.91690847,1.5332675 5.00842903,1.29625387 5.35014508,1 C5.59999342,1.0962249 5.7999077,1.17033379 6,1.24442689 C5.86672381,1.64433472 5.66663152,1.89634604 5.40007915,2 L5.40007915,2 L5.40007915,2 Z" fill="#21231E" id="Shape"/><path d="M6.59721139,5.68936872 C6.31310839,5.43194101 5.96145854,5.13959078 5.59174625,4.82251283 C4.4783345,4.98155099 4.55312415,4.72504252 4.21892026,4.27681173 C3.72789067,3.61824432 2.7926324,4.12880306 2.61727938,4.99295244 C2.51687423,5.48754753 2.3554444,5.50274947 1.88503063,5.02715519 C-0.57309336,2.54082952 -0.698560239,0.78267674 1.9308648,0.491963911 L1.93091385,0.491949356 C2.52044996,-0.680265703 4.12001818,0.523873429 3.93427024,1.19555656 C3.86148996,1.45916465 9.74276967,8.13338197 7.48262546,7.70699992 C6.45104406,7.51223721 5.37348451,8.16604997 4.35101647,7.95894781 C4.18253011,7.90669518 4.12666334,7.83487411 3.81454668,7.21563767 C4.00786331,7.22337067 4.18670593,7.21347518 4.35487069,7.19234502 C2.14567011,7.22415017 0.863923722,6.49861256 0.572246785,5.01224435 C1.45201801,6.08427216 2.5010825,6.61459343 3.69309695,6.31265704 C5.30122476,5.90547148 6.22110425,5.61323846 6.58785359,5.68581963 C6.5909551,5.686945 6.59407455,5.68812819 6.59721139,5.68936872 L6.59721139,5.68936872 Z" fill="#FEE94E" id="Shape" stroke="#979797" stroke-width="0.1"/></g></g></g><g stroke-width="0.1" transform="translate(3.500000, 18.000000)"><path d="M21.9995077,0 L21.9995077,18.1879105 L21.9995077,18.1885806 C21.9993452,21.4409932 20.7640385,24.393848 18.7717142,26.5334741 C16.7789796,28.6732677 14.0292257,30 11.0001641,30 L10.9991795,30 C7.97028196,29.9998341 5.22036402,28.6733012 3.22812174,26.5336416 C1.23538714,24.3940155 0.000164105624,21.4409932 0,18.1884131 L0,0.000502613591 L22,0.000502613591 L21.9995077,0 L21.9995077,0 Z" fill="#F1453D" id="Shape" stroke="#979797"/><g fill="#FFFFFF" id="path1563" stroke="#21231E" transform="translate(17.500000, 6.000000) scale(-1, 1) translate(-17.500000, -6.000000) translate(15.000000, 2.000000)"><path d="M5,7.33866061 L5,0.661461369 C3.59692876,0.270516454 0.180431044,-1.14131961 0.00274201783,1.95398352 C-0.0795424262,3.3847319 1.71406437,4.32854775 2.19762768,3.06458081 C2.4266072,2.46660214 2.17724918,2.04294267 1.83984001,1.90631228 C1.47551194,1.75870969 1.11428195,2.06408745 1.21078152,2.5192646 C-0.241498433,1.73199309 2.50830482,0.0604947619 3.74989869,2.23602138 C4.11152209,2.8695158 3.13969097,3.52993564 3.13834683,3.99958564 C3.13719939,4.46952424 4.09326142,5.17303155 3.74989869,5.76416851 C2.49274883,7.9294071 -0.241711529,6.26821378 1.21078152,5.48092529 C1.11427211,5.93609395 1.47570864,6.2414751 1.83984001,6.09387761 C2.17705575,5.95724722 2.4264105,5.53358774 2.19762768,4.93540536 C1.71391685,3.67160818 -0.0795457046,4.61547497 0.00274201783,6.04620637 C0.180381868,9.14127182 3.5968468,7.72946971 5,7.3385248 L5,7.33866061 L5,7.33866061 Z" id="Shape"/></g><path d="M22,11.1563103 L22,15.8438103 L13.2918034,15.8438103 L13.2918034,29.740946 C12.552305,29.9102308 11.7856627,30 11.0001641,30 L10.9993436,30 C10.2140419,30 9.44759653,29.9104352 8.70836069,29.740946 L8.70836069,15.8438103 L0,15.8438103 L0,11.1563103 L8.70836069,11.1563103 L8.70836069,0 L13.2918034,0 L13.2918034,11.1563103 L22,11.1563103 L22,11.1563103 Z" fill="#FFFFFF" id="Shape" stroke="#21231E"/><g fill="#FFFFFF" id="path1563" stroke="#21231E" transform="translate(2.000000, 2.000000)"><path d="M5,7.33866061 L5,0.661461369 C3.59692876,0.270516454 0.180431044,-1.14131961 0.00274201783,1.95398352 C-0.0795424262,3.3847319 1.71406437,4.32854775 2.19762768,3.06458081 C2.4266072,2.46660214 2.17724918,2.04294267 1.83984001,1.90631228 C1.47551194,1.75870969 1.11428195,2.06408745 1.21078152,2.5192646 C-0.241498433,1.73199309 2.50830482,0.0604947619 3.74989869,2.23602138 C4.11152209,2.8695158 3.13969097,3.52993564 3.13834683,3.99958564 C3.13719939,4.46952424 4.09326142,5.17303155 3.74989869,5.76416851 C2.49274883,7.9294071 -0.241711529,6.26821378 1.21078152,5.48092529 C1.11427211,5.93609395 1.47570864,6.2414751 1.83984001,6.09387761 C2.17705575,5.95724722 2.4264105,5.53358774 2.19762768,4.93540536 C1.71391685,3.67160818 -0.0795457046,4.61547497 0.00274201783,6.04620637 C0.180381868,9.14127182 3.5968468,7.72946971 5,7.3385248 L5,7.33866061 L5,7.33866061 Z" id="Shape"/></g><path d="M7,24.3386606 L7,17.6614614 C5.59692876,17.2705165 2.18043104,15.8586804 2.00274202,18.9539835 C1.92045757,20.3847319 3.71406437,21.3285478 4.19762768,20.0645808 C4.4266072,19.4666021 4.17724918,19.0429427 3.83984001,18.9063123 C3.47551194,18.7587097 3.11428195,19.0640874 3.21078152,19.5192646 C1.75850157,18.7319931 4.50830482,17.0604948 5.74989869,19.2360214 C6.11152209,19.8695158 5.13969097,20.5299356 5.13834683,20.9995856 C5.13719939,21.4695242 6.09326142,22.1730315 5.74989869,22.7641685 C4.49274883,24.9294071 1.75828847,23.2682138 3.21078152,22.4809253 C3.11427211,22.936094 3.47570864,23.2414751 3.83984001,23.0938776 C4.17705575,22.9572472 4.4264105,22.5335877 4.19762768,21.9354054 C3.71391685,20.6716082 1.9204543,21.615475 2.00274202,23.0462064 C2.18038187,26.1412718 5.5968468,24.7294697 7,24.3385248 L7,24.3386606 L7,24.3386606 Z" fill="#FFFFFF" id="path1563" stroke="#21231E"/><g fill="#FFFFFF" id="path1563" stroke="#21231E" transform="translate(17.500000, 21.000000) scale(-1, 1) translate(-17.500000, -21.000000) translate(15.000000, 17.000000)"><path d="M5,7.33866061 L5,0.661461369 C3.59692876,0.270516454 0.180431044,-1.14131961 0.00274201783,1.95398352 C-0.0795424262,3.3847319 1.71406437,4.32854775 2.19762768,3.06458081 C2.4266072,2.46660214 2.17724918,2.04294267 1.83984001,1.90631228 C1.47551194,1.75870969 1.11428195,2.06408745 1.21078152,2.5192646 C-0.241498433,1.73199309 2.50830482,0.0604947619 3.74989869,2.23602138 C4.11152209,2.8695158 3.13969097,3.52993564 3.13834683,3.99958564 C3.13719939,4.46952424 4.09326142,5.17303155 3.74989869,5.76416851 C2.49274883,7.9294071 -0.241711529,6.26821378 1.21078152,5.48092529 C1.11427211,5.93609395 1.47570864,6.2414751 1.83984001,6.09387761 C2.17705575,5.95724722 2.4264105,5.53358774 2.19762768,4.93540536 C1.71391685,3.67160818 -0.0795457046,4.61547497 0.00274201783,6.04620637 C0.180381868,9.14127182 3.5968468,7.72946971 5,7.3385248 L5,7.33866061 L5,7.33866061 Z" id="Shape"/></g></g></g></g></g></g></g></svg>