<?xml version="1.0" ?><svg height="180px" version="1.1" viewBox="0 0 180 180" width="180px" xmlns="http://www.w3.org/2000/svg" xmlns:sketch="http://www.bohemiancoding.com/sketch/ns" xmlns:xlink="http://www.w3.org/1999/xlink"><title/><desc/><defs/><g fill="none" fill-rule="evenodd" id="Page-1" stroke="none" stroke-width="1"><g id="Material" transform="translate(-180.000000, -180.000000)"><g id="Slice" transform="translate(180.000000, 180.000000)"/><g id="circle_sudan" transform="translate(180.000000, 180.000000)"><circle cx="90" cy="90" fill="#FFFFFF" id="Oval-15-copy-4" r="90"/><path d="M25.6055537,27.1242279 L56.640625,60 L174.878833,60 C162.523738,25.0442275 129.186567,0 90,0 C64.7609412,0 41.948397,10.3891381 25.6055537,27.1242279 Z" fill="#F1453D" id="Rectangle-1"/><path d="M25.934514,153.210885 L58.0859375,120 L174.878833,120 C162.523738,154.955772 129.186567,180 90,180 C64.9298376,180 42.2538226,169.749442 25.934514,153.210885 Z" fill="#1C1C1C" id="Rectangle-1-copy"/><path d="M26.3603888,153.639611 L90,90 L26.3603888,26.3603888 C10.0735925,42.647185 0,65.147185 0,90 C0,114.852815 10.0735925,137.352815 26.3603888,153.639611 Z" fill="#4EAB53" id="Path-4325"/></g></g></g></svg>