<?xml version="1.0" encoding="utf-8"?>
<!-- Generator: Adobe Illustrator 25.2.1, SVG Export Plug-In . SVG Version: 6.00 Build 0)  -->
<svg version="1.1" id="Layer_1" xmlns:sketch="http://www.bohemiancoding.com/sketch/ns"
	 xmlns="http://www.w3.org/2000/svg" xmlns:xlink="http://www.w3.org/1999/xlink" x="0px" y="0px" width="180px" height="180px"
	 viewBox="0 0 180 180" style="enable-background:new 0 0 180 180;" xml:space="preserve">
<style type="text/css">
	.st0{fill-rule:evenodd;clip-rule:evenodd;fill:#FFFFFF;stroke:#F1453D;stroke-width:10;stroke-miterlimit:10;}
	.st1{fill-rule:evenodd;clip-rule:evenodd;fill:#F1453D;}
	.st2{fill-rule:evenodd;clip-rule:evenodd;fill:#FFFFFF;}
</style>
<desc></desc>
<path id="Oval-15-copy" class="st0" d="M174.9,90c0,46.8-38,84.8-84.8,84.8S5.3,136.8,5.3,90H174.9L174.9,90L174.9,90L174.9,90z"/>
<path id="Oval-15-copy-2" class="st1" d="M180.1,90c0-49.7-40.3-90-90-90s-90,40.3-90,90H180.1L180.1,90L180.1,90L180.1,90z"/>
<path id="Star-32" class="st2" d="M99,30.4l-4.1,2.2l0.8-4.7l-3.3-3.3l4.6-0.7l2-4.3l2,4.3l4.6,0.7l-3.3,3.3l0.8,4.7L99,30.4
	L99,30.4L99,30.4L99,30.4z M113.4,40.9l-3.4-3.2l4.7-0.7l2.1-4.2l2.1,4.1l4.7,0.6l-3.4,3.3l0.8,4.6l-4.2-2.1l-4.2,2.2L113.4,40.9
	L113.4,40.9L113.4,40.9L113.4,40.9z M107.9,57.8l2-4.2l2.1,4.2l4.6,0.7l-3.3,3.2l0.8,4.6l-4.2-2.2l-4.1,2.1l0.7-4.6l-3.4-3.3
	L107.9,57.8L107.9,57.8L107.9,57.8L107.9,57.8z M90.1,57.8l4.6,0.6l-3.4,3.3l0.7,4.6l-4.1-2.1l-4.2,2.2l0.8-4.6l-3.3-3.2l4.6-0.7
	l2.1-4.2L90.1,57.8L90.1,57.8L90.1,57.8L90.1,57.8z M84.6,40.9l0.8,4.6l-4.2-2.2L77,45.4l0.8-4.6l-3.4-3.3l4.7-0.6l2.1-4.1l2.1,4.2
	l4.7,0.7L84.6,40.9z M92.4,75.1c-1.7,0.3-3.4,0.4-5.2,0.4c-17,0-30.8-13.7-30.8-30.5s13.8-30.5,30.8-30.5c1.8,0,3.5,0.1,5.2,0.4
	c-14.5,2.4-25.6,15-25.6,30.1S77.9,72.6,92.4,75.1C92.4,75.1,77.9,72.6,92.4,75.1z"/>
</svg>
