<?xml version="1.0" ?><svg height="180px" version="1.1" viewBox="0 0 180 180" width="180px" xmlns="http://www.w3.org/2000/svg" xmlns:sketch="http://www.bohemiancoding.com/sketch/ns" xmlns:xlink="http://www.w3.org/1999/xlink"><title/><desc/><defs/><g fill="none" fill-rule="evenodd" id="Page-1" stroke="none" stroke-width="1"><g id="Material" transform="translate(-180.000000, -180.000000)"><g id="Slice" transform="translate(180.000000, 180.000000)"/><g id="circle_senegal" transform="translate(180.000000, 180.000000)"><path d="M120,174.877528 C154.952776,162.521396 179.994476,129.185191 179.994476,90 C179.994476,50.8148092 154.952776,17.4786037 120,5.12247245 L120,174.877531 L120,174.877528 Z" fill="#F1453D" id="path-1"/><path d="M60,5.12051622 L60,174.879484 C69.3825591,178.19561 79.479186,180 89.9972382,180 C100.517354,180 110.61588,178.194901 120,174.877528 L120,5.12246865 C110.61588,1.80509864 100.517354,0 89.9972382,0 C79.479186,0 69.3825591,1.80439039 59.9999996,5.12052001 L60,5.12051622 Z" fill="#FEE94E" id="Rectangle-3-copy-3"/><path d="M0.00276191524,89.2874328 L0.00276191524,90.7125672 C0.304247676,129.592015 25.2577277,162.60161 60.0027615,174.880456 L60.0027619,5.11954011 C25.2577277,17.3983904 0.304247676,50.4079855 0.00276191524,89.2874328 L0.00276191524,89.2874328 Z" fill="#4EAB53" id="Rectangle-3"/><path d="M67.3217735,84.5920861 L84.767891,84.5920861 L90.1570088,68 L95.5461177,84.5920861 L112.992235,84.5920861 L98.8800631,94.8450912 L104.269181,111.437175 L90.1570088,101.184161 L76.0448367,111.437175 L81.4339456,94.8450912 L67.3217735,84.5920861 L67.3217735,84.5920861 L67.3217735,84.5920861 L67.3217735,84.5920861 Z" fill="#4EAB53" id="Shape"/></g></g></g></svg>