<?xml version="1.0" ?><svg height="180px" version="1.1" viewBox="0 0 180 180" width="180px" xmlns="http://www.w3.org/2000/svg" xmlns:sketch="http://www.bohemiancoding.com/sketch/ns" xmlns:xlink="http://www.w3.org/1999/xlink"><title/><desc/><defs/><g fill="none" fill-rule="evenodd" id="Page-1" stroke="none" stroke-width="1"><g id="Material" transform="translate(-180.000000, -180.000000)"><g id="Slice" transform="translate(180.000000, 180.000000)"/><g id="cirlce_suriname" transform="translate(180.000000, 180.000000)"><circle cx="90" cy="90" fill="#FFFFFF" id="Oval-15-copy-4" r="90"/><path d="M167.959589,136.000025 C152.398162,162.901074 123.312698,181 90,181 C56.6873022,181 27.6018377,162.901074 12.0404109,136.000025 L167.959604,136 L167.959604,136 L167.959589,136.000025 L167.959589,136.000025 Z M167.959589,45.9999749 C152.398162,19.0989265 123.312698,1 90,1 C56.6873022,1 27.6018377,19.0989265 12.0404109,45.9999749 L167.959604,46 L167.959604,46 L167.959589,45.9999749 L167.959589,45.9999749 Z" fill="#4EAB53" id="Oval-15-copy-2"/><path d="M7.05909179,126 L172.940908,126 C177.486598,115.241112 180,103.414075 180,91 C180,78.5859255 177.486598,66.7588877 172.940908,56 L7.05909179,56 C2.51340169,66.7588877 0,78.5859255 0,91 C0,103.414075 2.51340169,115.241112 7.05909179,126 C7.05909179,126 2.51340169,115.241112 7.05909179,126 L7.05909179,126 L7.05909179,126 Z" fill="#F1453D" id="Rectangle-3-copy-2"/><path d="M90.4999993,106.75 L72.5725512,116.175019 L75.9963883,96.2125098 L61.492776,82.0749823 L81.5362778,79.1624887 L90.5000004,61 L99.4637284,79.1624932 L119.507229,82.0749969 L105.00361,96.2125136 L108.427448,116.17502 L90.4999993,106.75 Z" fill="#FEE94E" id="Star-29"/></g></g></g></svg>