<?xml version="1.0" ?><svg height="180px" version="1.1" viewBox="0 0 180 180" width="180px" xmlns="http://www.w3.org/2000/svg" xmlns:sketch="http://www.bohemiancoding.com/sketch/ns" xmlns:xlink="http://www.w3.org/1999/xlink"><title/><desc/><defs/><g fill="none" fill-rule="evenodd" id="Page-1" stroke="none" stroke-width="1"><g id="Material" transform="translate(-180.000000, -180.000000)"><g id="Slice" transform="translate(180.000000, 180.000000)"/><g id="circle_south_sudan" transform="translate(179.000000, 180.000000)"><ellipse cx="90.9972382" cy="90" fill="#FFFFFF" id="path-1" rx="89.9972382" ry="90"/><path d="M175.873467,120 L38.5,120 L15.241174,138.607061 C31.2493932,163.506449 59.1972361,180 90.9972382,180 C130.182603,180 163.51875,154.955772 175.873463,120 Z" fill="#4EAB53" id="Rectangle-3-copy-2"/><path d="M177.476918,115 L44.75,115 L76,90 L44.75,65 L177.476918,65 C179.767239,72.9372476 180.994476,81.3253009 180.994476,90 C180.994476,98.6746991 179.767239,107.062752 177.476918,115 Z" fill="#F1453D" id="Rectangle-3-copy-3"/><path d="M175.873463,60 L38.5,60 L15.241174,41.3929392 C31.2493933,16.4935506 59.1972361,0 90.9972382,0 C130.182603,0 163.518751,25.0442277 175.873463,60 Z" fill="#262626" id="Rectangle-3"/><path d="M25.0045575,28.805469 L76,90 L25.0045575,151.194531 C10.1077836,135.136254 1,113.631779 1,90 C1,66.3682213 10.1077836,44.8637459 25.0045575,28.805469 Z" fill="#2B98F0" id="Triangle-18-copy-2"/><path d="M39.209831,107.513979 L27.2801537,99.2439308 L15.7245395,108 L19.9876317,94.2189044 L8,86.0511523 L22.5644137,85.8040169 L26.7112648,72 L31.4494741,85.6283569 L46,85.2647559 L34.3639628,93.9346813 L39.209831,107.513979 L39.209831,107.513979 Z" fill="#FEE94E" id="Shape" transform="translate(27.000000, 90.000000) rotate(-45.000000) translate(-27.000000, -90.000000) "/></g></g></g></svg>