<?xml version="1.0" ?><svg height="180px" version="1.1" viewBox="0 0 180 180" width="180px" xmlns="http://www.w3.org/2000/svg" xmlns:sketch="http://www.bohemiancoding.com/sketch/ns" xmlns:xlink="http://www.w3.org/1999/xlink"><title/><desc/><defs/><g fill="none" fill-rule="evenodd" id="Page-1" stroke="none" stroke-width="1"><g id="Material" transform="translate(-180.000000, -180.000000)"><g id="Slice" transform="translate(180.000000, 180.000000)"/><g id="circle_syria" transform="translate(180.000000, 180.000000)"><circle cx="90" cy="90" fill="#FFFFFF" id="Oval-15-copy-4" r="90"/><path d="M5.12116698,60 L174.878833,60 C162.523738,25.0442275 129.186567,0 90,0 C50.8134331,0 17.4762623,25.0442275 5.12117078,59.9999996 Z" fill="#F1453D" id="Rectangle-1"/><path d="M174.878833,120 L5.12116698,120 C17.4762623,154.955772 50.8134331,180 90,180 C129.186567,180 162.523738,154.955772 174.878829,120 Z" fill="#1C1C1C" id="Rectangle-1-copy"/><path d="M44.0118994,100.74356 L34.1233576,106.318692 L36.0119006,94.5103752 L28.0119011,86.1476794 L39.0676299,84.4248676 L44.0119,73.681308 L48.956173,84.4248703 L60.0119011,86.147688 L52.0118983,94.5103774 L53.9004416,106.318692 L44.0118994,100.74356 L44.0118994,100.74356 L44.0118994,100.74356 L44.0118994,100.74356 Z M135.988098,100.74356 L126.099555,106.318692 L127.988098,94.5103752 L119.988099,86.1476794 L131.043827,84.4248676 L135.988098,73.681308 L140.932371,84.4248703 L151.988099,86.147688 L143.988096,94.5103774 L145.876639,106.318692 L135.988098,100.74356 L135.988098,100.74356 L135.988098,100.74356 L135.988098,100.74356 Z" fill="#4EAB53" id="Star-7"/></g></g></g></svg>