<?xml version="1.0" ?><svg height="180px" version="1.1" viewBox="0 0 180 180" width="180px" xmlns="http://www.w3.org/2000/svg" xmlns:sketch="http://www.bohemiancoding.com/sketch/ns" xmlns:xlink="http://www.w3.org/1999/xlink"><title/><desc/><defs/><g fill="none" fill-rule="evenodd" id="Page-1" stroke="none" stroke-width="1"><g id="Material" transform="translate(-180.000000, -180.000000)"><g id="Slice" transform="translate(180.000000, 180.000000)"/><g id="circle_togo" transform="translate(180.000000, 180.000000)"><path d="M70,2.23016395 C29.9202246,11.3247465 0,47.1682498 0,90 C0,96.1643852 0.619744581,102.184021 1.80032584,108 L70,108 L70,2.23016395 Z" fill="#F1453D" id="Oval-1-copy"/><path d="M178.199674,108 L70,108 L70,72 L178.199674,72 C179.380255,77.8159789 180,83.8356148 180,90 C180,96.1643852 179.380255,102.184021 178.199674,108 Z M70,2.23016395 L70,36 L162.006593,36 C145.586879,14.139959 119.444723,0 90,0 C83.1261203,0 76.4322273,0.770614294 70,2.23016395 Z M162.006593,144 L17.9934071,144 C34.4131205,165.860041 60.5552771,180 90,180 C119.444723,180 145.586879,165.860041 162.006593,144 Z" fill="#4EAB53" id="Rectangle"/><polygon fill="#FFFFFF" id="Star-1" points="38.9999997 63.3000001 27.8320811 71.2758321 31.7719705 57.9103329 20.9299261 49.474169 34.5328334 49.1896663 39.0000002 36 43.4671696 49.1896686 57.0700769 49.4741783 46.2280289 57.9103348 50.1679185 71.2758323 "/><path d="M178.199674,72 L70,72 L70,36 L162.006593,36 C169.867453,46.4653913 175.499958,58.7002026 178.199674,72 Z M17.9934071,144 L162.006593,144 C169.867453,133.534609 175.499958,121.299797 178.199674,108 L1.80032584,108 C4.50004189,121.299797 10.1325469,133.534609 17.9934071,144 Z" fill="#FEE94E" id="Rectangle"/></g></g></g></svg>