<?xml version="1.0" ?><svg height="180px" version="1.1" viewBox="0 0 180 180" width="180px" xmlns="http://www.w3.org/2000/svg" xmlns:sketch="http://www.bohemiancoding.com/sketch/ns" xmlns:xlink="http://www.w3.org/1999/xlink"><title/><desc/><defs/><g fill="none" fill-rule="evenodd" id="Page-1" stroke="none" stroke-width="1"><g id="Material" transform="translate(-180.000000, -180.000000)"><g id="Slice" transform="translate(180.000000, 180.000000)"/><g id="circle_east_timor" transform="translate(180.000000, 180.000000)"><path d="M20.9092899,32.3209718 C37.4186291,12.5665658 62.2417744,0 90,0 C139.70563,0 180,40.2943701 180,90 C180,139.70563 139.70563,180 90,180 C63.383195,180 39.4650516,168.445662 22.9876848,150.079102 L141.173441,90.2269184 L20.9092905,32.3209727 L20.9092905,32.3209727 L20.9092899,32.3209718 L20.9092899,32.3209718 Z" fill="#F1453D" id="Oval-15-copy-4"/><path d="M19.4616309,34.0984804 C20.0430958,33.3657549 20.6357359,32.6422987 21.2392938,31.9283694 L21.2392944,31.9283704 L142.296878,90.2163462 L23.3334842,150.462345 C22.060726,149.05983 20.8316152,147.616982 19.6482966,146.135945 L99.4275239,90.1826716 L19.4616325,34.0984817 L19.4616325,34.0984817 L19.4616309,34.0984804 L19.4616309,34.0984804 Z" fill="#FEE94E" id="Oval-15-copy-3"/><path d="M19.6058149,33.9172659 C7.33475986,49.2994082 0,68.7931411 0,90 C0,111.148123 7.29418676,130.592597 19.5039692,145.95483 L99.4275239,89.9003333 L19.6058149,33.9172659 L19.6058149,33.9172659 L19.6058149,33.9172659 L19.6058149,33.9172659 Z" fill="#262626" id="Oval-15-copy-2"/><path d="M35.0928304,99.7430745 L23.9249119,105.614398 L26.057794,93.1787363 L17.0227569,84.371752 L29.5088727,82.5574118 L35.092831,71.2430745 L40.6767928,82.5574145 L53.1629077,84.3717611 L44.1278668,93.1787387 L46.2607493,105.614398 L35.0928304,99.7430745 Z" fill="#FFFFFF" id="Star-16" transform="translate(35.092832, 88.428736) rotate(-30.000000) translate(-35.092832, -88.428736) "/></g></g></g></svg>