<?xml version="1.0" ?><svg height="180px" version="1.1" viewBox="0 0 180 180" width="180px" xmlns="http://www.w3.org/2000/svg" xmlns:sketch="http://www.bohemiancoding.com/sketch/ns" xmlns:xlink="http://www.w3.org/1999/xlink"><title/><desc/><defs/><g fill="none" fill-rule="evenodd" id="Page-1" stroke="none" stroke-width="1"><g id="Material" transform="translate(-180.000000, -180.000000)"><g id="Slice" transform="translate(180.000000, 180.000000)"/><g id="circle_turkmenistan" transform="translate(180.000000, 180.000000)"><path d="M44.9999749,12.0404109 C32.9583658,19.0061104 22.6804294,28.6816085 15,40.2330711 L15,139.766929 C22.6804294,151.318391 32.9583658,160.99389 44.9999749,167.959589 L45,12.0403964 L44.9999749,12.0404109 Z" fill="#F1453D" id="Oval-15-copy-2"/><path d="M44.9999749,12.0404109 C58.2377819,4.38274789 73.6070678,0 90,0 C139.70563,0 180,40.2943701 180,90 C180,139.70563 139.70563,180 90,180 C73.6070678,180 58.2377819,175.617252 44.9999749,167.959589 L45,12.0403964 L44.9999749,12.0404109 Z M15,40.2330711 C5.52229045,54.4876657 0,71.5989325 0,90 C0,108.401068 5.52229049,125.512334 15.0000001,139.766929 L15,40.2330711 L15,40.2330711 Z" fill="#4EAB53" id="Oval-15-copy-3"/><g id="Group" transform="translate(14.000000, 16.000000)"><path d="M25.0290729,11.4601032 L23.4014143,9.86783877 L20.0029894,13.1264875 L23.4014143,16.3851363 L25.0290729,14.7928719 L23.6712802,14.7928719 L23.8561277,13.6830934 L25.6994098,13.6830934 L29.648338,17.5456071 L29.648338,18.8632039 L28.1474375,18.8632039 L28.1474375,17.3911065 L26.8885123,18.6224658 L28.9687684,20.6574298 L27.9824019,21.6224019 L31.1121151,24.6835323 L31.1121151,26.2529751 L26.3782099,21.6224019 L27.3645764,20.6574298 L25.2843203,18.6224658 L27.0700899,16.8759027 L25.6820983,15.5183175 L23.4081466,17.7427215 L18.625,13.1264875 L23.4081466,8.51005162 L25.6820983,10.7346575 L27.0700899,9.37707233 L25.2843203,7.6305093 L27.3645764,5.59554525 L26.3782099,4.63057322 L31.1121151,0 L31.1121151,1.5694428 L27.9824019,4.63057322 L28.9687684,5.59554525 L26.8885123,7.6305093 L28.1474375,8.86186855 L28.1474375,7.3897712 L29.648338,7.3897712 L29.648338,8.70736801 L25.6994098,12.5698816 L23.8561277,12.5698816 L23.6712802,11.4601032 L25.0290729,11.4601032 Z M22.4247716,12.3752406 L22.5469133,13.1067451 L22.4247716,13.8382497 L21.6767257,13.1067451 L22.4247716,12.3752406 Z M28.6326685,12.3058253 L27.7801771,13.2053618 L28.6326685,14.1022728 L29.9279478,14.1022728 L29.9279478,15.6480861 L30.9520147,16.7231271 L30.9520147,9.68497091 L29.9279478,10.7602139 L29.9279478,12.3058253 L28.6326685,12.3058253 Z" fill="#FEE94E" id="pattern"/><path d="M25.0290729,48.4601032 L23.4014143,46.8678388 L20.0029894,50.1264875 L23.4014143,53.3851363 L25.0290729,51.7928719 L23.6712802,51.7928719 L23.8561277,50.6830934 L25.6994098,50.6830934 L29.648338,54.5456071 L29.648338,55.8632039 L28.1474375,55.8632039 L28.1474375,54.3911065 L26.8885123,55.6224658 L28.9687684,57.6574298 L27.9824019,58.6224019 L31.1121151,61.6835323 L31.1121151,63.2529751 L26.3782099,58.6224019 L27.3645764,57.6574298 L25.2843203,55.6224658 L27.0700899,53.8759027 L25.6820983,52.5183175 L23.4081466,54.7427215 L18.625,50.1264875 L23.4081466,45.5100516 L25.6820983,47.7346575 L27.0700899,46.3770723 L25.2843203,44.6305093 L27.3645764,42.5955453 L26.3782099,41.6305732 L31.1121151,37 L31.1121151,38.5694428 L27.9824019,41.6305732 L28.9687684,42.5955453 L26.8885123,44.6305093 L28.1474375,45.8618685 L28.1474375,44.3897712 L29.648338,44.3897712 L29.648338,45.707368 L25.6994098,49.5698816 L23.8561277,49.5698816 L23.6712802,48.4601032 L25.0290729,48.4601032 Z M22.4247716,49.3752406 L22.5469133,50.1067451 L22.4247716,50.8382497 L21.6767257,50.1067451 L22.4247716,49.3752406 Z M28.6326685,49.3058253 L27.7801771,50.2053618 L28.6326685,51.1022728 L29.9279478,51.1022728 L29.9279478,52.6480861 L30.9520147,53.7231271 L30.9520147,46.6849709 L29.9279478,47.7602139 L29.9279478,49.3058253 L28.6326685,49.3058253 Z" fill="#FEE94E" id="pattern"/><path d="M25.0290729,92.4601032 L23.4014143,90.8678388 L20.0029894,94.1264875 L23.4014143,97.3851363 L25.0290729,95.7928719 L23.6712802,95.7928719 L23.8561277,94.6830934 L25.6994098,94.6830934 L29.648338,98.5456071 L29.648338,99.8632039 L28.1474375,99.8632039 L28.1474375,98.3911065 L26.8885123,99.6224658 L28.9687684,101.65743 L27.9824019,102.622402 L31.1121151,105.683532 L31.1121151,107.252975 L26.3782099,102.622402 L27.3645764,101.65743 L25.2843203,99.6224658 L27.0700899,97.8759027 L25.6820983,96.5183175 L23.4081466,98.7427215 L18.625,94.1264875 L23.4081466,89.5100516 L25.6820983,91.7346575 L27.0700899,90.3770723 L25.2843203,88.6305093 L27.3645764,86.5955453 L26.3782099,85.6305732 L31.1121151,81 L31.1121151,82.5694428 L27.9824019,85.6305732 L28.9687684,86.5955453 L26.8885123,88.6305093 L28.1474375,89.8618685 L28.1474375,88.3897712 L29.648338,88.3897712 L29.648338,89.707368 L25.6994098,93.5698816 L23.8561277,93.5698816 L23.6712802,92.4601032 L25.0290729,92.4601032 Z M22.4247716,93.3752406 L21.6767257,94.1067451 L22.4247716,94.8382497 L22.5469133,94.1067451 L22.4247716,93.3752406 Z M28.6326685,93.3058253 L27.7801771,94.2053618 L28.6326685,95.1022728 L29.9279478,95.1022728 L29.9279478,96.6480861 L30.9520147,97.7231271 L30.9520147,90.6849709 L29.9279478,91.7602139 L29.9279478,93.3058253 L28.6326685,93.3058253 Z" fill="#FEE94E" id="pattern"/><path d="M7.29195783,48.4601032 L5.66429924,46.8678388 L2.26587428,50.1264875 L5.66429924,53.3851363 L7.29195783,51.7928719 L5.93416511,51.7928719 L6.11901265,50.6830934 L7.96229465,50.6830934 L11.9112229,54.5456071 L11.9112229,55.8632039 L10.4103224,55.8632039 L10.4103224,54.3911065 L9.15139716,55.6224658 L11.2316533,57.6574298 L10.2452868,58.6224019 L13.375,61.6835323 L13.375,63.2529751 L8.64109484,58.6224019 L9.62746133,57.6574298 L7.54720516,55.6224658 L9.33297476,53.8759027 L7.94498323,52.5183175 L5.67103146,54.7427215 L0.8878849,50.1264875 L5.67103146,45.5100516 L7.94498323,47.7346575 L9.33297476,46.3770723 L7.54720516,44.6305093 L9.62746133,42.5955453 L8.64109484,41.6305732 L13.375,37 L13.375,38.5694428 L10.2452868,41.6305732 L11.2316533,42.5955453 L9.15139716,44.6305093 L10.4103224,45.8618685 L10.4103224,44.3897712 L11.9112229,44.3897712 L11.9112229,45.707368 L7.96229465,49.5698816 L6.11901265,49.5698816 L5.93416511,48.4601032 L7.29195783,48.4601032 Z M4.68765647,49.3752406 L4.80979819,50.1067451 L4.68765647,50.8382497 L3.93961059,50.1067451 L4.68765647,49.3752406 Z M10.8955534,49.3058253 L10.043062,50.2053618 L10.8955534,51.1022728 L12.1908327,51.1022728 L12.1908327,52.6480861 L13.2148996,53.7231271 L13.2148996,46.6849709 L12.1908327,47.7602139 L12.1908327,49.3058253 L10.8955534,49.3058253 Z" fill="#FEE94E" id="pattern" transform="translate(7.131442, 50.126488) scale(-1, 1) translate(-7.131442, -50.126488) "/><path d="M7.29195783,92.4601032 L5.66429924,90.8678388 L2.26587428,94.1264875 L5.66429924,97.3851363 L7.29195783,95.7928719 L5.93416511,95.7928719 L6.11901265,94.6830934 L7.96229465,94.6830934 L11.9112229,98.5456071 L11.9112229,99.8632039 L10.4103224,99.8632039 L10.4103224,98.3911065 L9.15139716,99.6224658 L11.2316533,101.65743 L10.2452868,102.622402 L13.375,105.683532 L13.375,107.252975 L8.64109484,102.622402 L9.62746133,101.65743 L7.54720516,99.6224658 L9.33297476,97.8759027 L7.94498323,96.5183175 L5.67103146,98.7427215 L0.8878849,94.1264875 L5.67103146,89.5100516 L7.94498323,91.7346575 L9.33297476,90.3770723 L7.54720516,88.6305093 L9.62746133,86.5955453 L8.64109484,85.6305732 L13.375,81 L13.375,82.5694428 L10.2452868,85.6305732 L11.2316533,86.5955453 L9.15139716,88.6305093 L10.4103224,89.8618685 L10.4103224,88.3897712 L11.9112229,88.3897712 L11.9112229,89.707368 L7.96229465,93.5698816 L6.11901265,93.5698816 L5.93416511,92.4601032 L7.29195783,92.4601032 Z M4.80979819,94.1067451 L4.68765647,94.8382497 L3.93961059,94.1067451 L4.68765647,93.3752406 L4.80979819,94.1067451 Z M10.8955534,93.3058253 L10.043062,94.2053618 L10.8955534,95.1022728 L12.1908327,95.1022728 L12.1908327,96.6480861 L13.2148996,97.7231271 L13.2148996,90.6849709 L12.1908327,91.7602139 L12.1908327,93.3058253 L10.8955534,93.3058253 Z" fill="#FEE94E" id="pattern" transform="translate(7.131442, 94.126488) scale(-1, 1) translate(-7.131442, -94.126488) "/><path d="M25.0290729,131.460103 L23.4014143,129.867839 L20.0029894,133.126487 L23.4014143,136.385136 L25.0290729,134.792872 L23.6712802,134.792872 L23.8561277,133.683093 L25.6994098,133.683093 L29.648338,137.545607 L29.648338,138.863204 L28.1474375,138.863204 L28.1474375,137.391107 L26.8885123,138.622466 L28.9687684,140.65743 L27.9824019,141.622402 L31.1121151,144.683532 L31.1121151,146.252975 L26.3782099,141.622402 L27.3645764,140.65743 L25.2843203,138.622466 L27.0700899,136.875903 L25.6820983,135.518317 L23.4081466,137.742721 L18.625,133.126487 L23.4081466,128.510052 L25.6820983,130.734657 L27.0700899,129.377072 L25.2843203,127.630509 L27.3645764,125.595545 L26.3782099,124.630573 L31.1121151,120 L31.1121151,121.569443 L27.9824019,124.630573 L28.9687684,125.595545 L26.8885123,127.630509 L28.1474375,128.861869 L28.1474375,127.389771 L29.648338,127.389771 L29.648338,128.707368 L25.6994098,132.569882 L23.8561277,132.569882 L23.6712802,131.460103 L25.0290729,131.460103 Z M22.4247716,132.375241 L22.5469133,133.106745 L22.4247716,133.83825 L21.6767257,133.106745 L22.4247716,132.375241 Z M28.6326685,132.305825 L27.7801771,133.205362 L28.6326685,134.102273 L29.9279478,134.102273 L29.9279478,135.648086 L30.9520147,136.723127 L30.9520147,129.684971 L29.9279478,130.760214 L29.9279478,132.305825 L28.6326685,132.305825 Z" fill="#FEE94E" id="pattern"/><g transform="translate(3.000000, 64.000000)"><path d="M1.50180587,8.22672068 L2.83691468,7.37703439 L2.83691468,7.93514761 L1.88186611,8.54299586 L2.83691468,9.15073384 L2.83691468,9.70884705 L1.50180587,8.85916076 L0.918342411,9.3109667 L0.401359224,9.25086559 L0.185188269,8.94440509 L0.709105656,8.54299586 L0.185188269,8.14158664 L0.401469291,7.83512613 L0.918342411,7.77502502 L1.50180587,8.22672068 L1.50180587,8.22672068 Z" fill="#4EAB53" id="_155856128"/><path d="M1.50180587,5.63917506 L2.83691468,4.78959905 L2.83691468,5.34771226 L1.88186611,5.95545024 L2.83691468,6.56318822 L2.83691468,7.12141171 L1.50180587,6.27172542 L0.918342411,6.72342108 L0.401359224,6.66331997 L0.185188269,6.35685947 L0.709105656,5.95545024 L0.185188269,5.55415129 L0.401469291,5.24769079 L0.918342411,5.1874794 L1.50180587,5.63917506 L1.50180587,5.63917506 Z" fill="#4EAB53" id="_155855984"/><path d="M1.50180587,11.4467064 L2.83691468,12.2963927 L2.83691468,11.7382795 L1.88186611,11.1304312 L2.83691468,10.5226932 L2.83691468,9.96458002 L1.50180587,10.8142663 L0.918342411,10.3624604 L0.401359224,10.4225615 L0.185188269,10.729022 L0.709105656,11.1304312 L0.185188269,11.5318404 L0.401469291,11.8383009 L0.918342411,11.898402 L1.50180587,11.4467064 L1.50180587,11.4467064 Z" fill="#4EAB53" id="_155855840"/><path d="M24.3394308,8.22672068 L23.004322,7.37703439 L23.004322,7.93514761 L23.9592605,8.54299586 L23.004322,9.15073384 L23.004322,9.70884705 L24.3394308,8.85916076 L24.9227842,9.3109667 L25.4397674,9.25086559 L25.6559384,8.94440509 L25.132021,8.54299586 L25.6559384,8.14158664 L25.4397674,7.83512613 L24.9227842,7.77502502 L24.3394308,8.22672068 L24.3394308,8.22672068 Z" fill="#4EAB53" id="_155855696"/><path d="M24.3394308,5.63917506 L23.004322,4.78959905 L23.004322,5.34771226 L23.9592605,5.95545024 L23.004322,6.56318822 L23.004322,7.12141171 L24.3394308,6.27172542 L24.9227842,6.72342108 L25.4397674,6.66331997 L25.6559384,6.35685947 L25.132021,5.95545024 L25.6559384,5.55415129 L25.4397674,5.24769079 L24.9227842,5.1874794 L24.3394308,5.63917506 L24.3394308,5.63917506 Z" fill="#4EAB53" id="_155855552"/><path d="M24.3394308,11.4467064 L23.004322,12.2963927 L23.004322,11.7382795 L23.9592605,11.1304312 L23.004322,10.5226932 L23.004322,9.96458002 L24.3394308,10.8142663 L24.9227842,10.3624604 L25.4397674,10.4225615 L25.6559384,10.729022 L25.132021,11.1304312 L25.6559384,11.5318404 L25.4397674,11.8383009 L24.9227842,11.898402 L24.3394308,11.4467064 L24.3394308,11.4467064 Z" fill="#4EAB53" id="_155855408"/><path d="M20.6276522,0.778043176 L20.6276522,1.46396773 L21.3121569,1.46396773 L21.3121569,2.17249912 L20.7019473,2.17249912 L20.7019473,1.6968733 L19.9204738,1.6968733 L19.9204738,0.778043176 L20.6276522,0.778043176 C20.6276522,0.778043176 20.5604015,0.778043176 20.6276522,0.778043176 L20.6276522,0.778043176 L20.6276522,0.778043176 Z" fill="#4EAB53" id="_155855264"/><path d="M22.9309076,2.47532048 L22.9309076,3.16113476 L23.6154122,3.16113476 L23.6154122,3.86977643 L23.0050925,3.86977643 L23.0050925,3.39415061 L22.2237291,3.39415061 L22.2237291,2.47532048 L22.9309076,2.47532048 C22.9309076,2.47532048 22.8636568,2.47532048 22.9309076,2.47532048 L22.9309076,2.47532048 L22.9309076,2.47532048 Z" fill="#4EAB53" id="_155855120"/><path d="M5.21358446,0.778043176 L5.21358446,1.46396773 L4.52907978,1.46396773 L4.52907978,2.17249912 L5.13939951,2.17249912 L5.13939951,1.6968733 L5.92076286,1.6968733 L5.92076286,0.778043176 L5.21358446,0.778043176 L5.21358446,0.778043176 Z" fill="#4EAB53" id="_155854976"/><path d="M20.6276522,16.3078383 L20.6276522,15.622024 L21.3121569,15.622024 L21.3121569,14.9134926 L20.7019473,14.9134926 L20.7019473,15.3891184 L19.9204738,15.3891184 L19.9204738,16.3078383 L20.6276522,16.3078383 C20.6276522,16.3078383 20.5604015,16.3078383 20.6276522,16.3078383 L20.6276522,16.3078383 L20.6276522,16.3078383 Z" fill="#4EAB53" id="_155786880"/><path d="M5.21369452,16.3078383 L5.21369452,15.622024 L4.52907978,15.622024 L4.52907978,14.9134926 L5.13939951,14.9134926 L5.13939951,15.3891184 L5.92087293,15.3891184 L5.92087293,16.3078383 L5.21369452,16.3078383 L5.21369452,16.3078383 Z" fill="#4EAB53" id="_155786736"/><path d="M22.9309076,14.610561 L22.9309076,13.9247467 L23.6154122,13.9247467 L23.6154122,13.2162153 L23.0050925,13.2162153 L23.0050925,13.6918411 L22.2237291,13.6918411 L22.2237291,14.610561 L22.9309076,14.610561 C22.9309076,14.610561 22.8636568,14.610561 22.9309076,14.610561 L22.9309076,14.610561 L22.9309076,14.610561 Z" fill="#28AE66" id="_155786592"/><path d="M2.91043922,2.47532048 L2.91043922,3.16113476 L2.22593455,3.16113476 L2.22593455,3.86977643 L2.83625428,3.86977643 L2.83625428,3.39415061 L3.61761762,3.39415061 L3.61761762,2.47532048 L2.91043922,2.47532048 L2.91043922,2.47532048 Z" fill="#4EAB53" id="_155786448"/><path d="M2.91054928,14.610561 L2.91054928,13.9247467 L2.22593455,13.9247467 L2.22593455,13.2162153 L2.83625428,13.2162153 L2.83625428,13.6918411 L3.61772769,13.6918411 L3.61772769,14.610561 L2.91054928,14.610561 L2.91054928,14.610561 Z" fill="#4EAB53" id="_155786304"/><path d="M15.2132522,0.20283699 C15.2620118,0.250256212 15.8108042,0.783998148 15.8108042,0.783998148 C15.8108042,0.783998148 16.3594866,0.250256212 16.4082461,0.20283699 C16.4544742,0.245624567 16.8274901,0.591895162 16.8785611,0.639314384 C16.8257291,0.69059331 16.3692825,1.13456956 16.3692825,1.13456956 L16.9473527,1.6968733 L16.1948269,1.6968733 L15.8108042,1.32325395 L15.4266715,1.6968733 L14.6741456,1.6968733 L15.2522158,1.13456956 C15.2522158,1.13456956 14.7957693,0.69059331 14.7429373,0.639314384 C14.7940082,0.591895162 15.1670242,0.245624567 15.2132522,0.20283699 C15.2132522,0.20283699 15.1670242,0.245624567 15.2132522,0.20283699 L15.2132522,0.20283699 L15.2132522,0.20283699 Z" fill="#4EAB53" id="_155786160"/><path d="M12.3232315,0.20283699 C12.371991,0.250256212 12.9206734,0.783998148 12.9206734,0.783998148 C12.9206734,0.783998148 13.4693558,0.250256212 13.5182254,0.20283699 C13.5644534,0.245624567 13.9373593,0.591895162 13.9884302,0.639314384 C13.9357083,0.69059331 13.4792618,1.13456956 13.4792618,1.13456956 L14.057332,1.6968733 L13.304696,1.6968733 L12.9206734,1.32325395 L12.5366507,1.6968733 L11.7840148,1.6968733 L12.362085,1.13456956 C12.362085,1.13456956 11.9056385,0.69059331 11.8529165,0.639314384 C11.9039875,0.591895162 12.2770035,0.245624567 12.3232315,0.20283699 C12.3232315,0.20283699 12.2770035,0.245624567 12.3232315,0.20283699 L12.3232315,0.20283699 L12.3232315,0.20283699 Z" fill="#4EAB53" id="_155786016"/><path d="M10.6282046,0.20283699 C10.579335,0.250256212 10.0306526,0.783998148 10.0306526,0.783998148 C10.0306526,0.783998148 9.48197023,0.250256212 9.43321069,0.20283699 C9.38698269,0.245624567 9.01396672,0.591895162 8.96289578,0.639314384 C9.01572778,0.69059331 9.4721743,1.13456956 9.4721743,1.13456956 L8.8941041,1.6968733 L9.64662998,1.6968733 L10.0306526,1.32325395 L10.4147853,1.6968733 L11.1673112,1.6968733 L10.589241,1.13456956 C10.589241,1.13456956 11.0456875,0.69059331 11.0985195,0.639314384 C11.0474486,0.591895162 10.6744326,0.245624567 10.6282046,0.20283699 C10.6282046,0.20283699 10.6744326,0.245624567 10.6282046,0.20283699 L10.6282046,0.20283699 L10.6282046,0.20283699 Z" fill="#4EAB53" id="_155785872"/><path d="M15.2132522,16.8831547 C15.2620118,16.8356252 15.8108042,16.3018833 15.8108042,16.3018833 C15.8108042,16.3018833 16.3594866,16.8356252 16.4082461,16.8831547 C16.4544742,16.8402569 16.8274901,16.4939863 16.8785611,16.4466773 C16.8257291,16.3952881 16.3692825,15.9514222 16.3692825,15.9514222 L16.9473527,15.3891184 L16.1948269,15.3891184 L15.8108042,15.7626275 L15.4266715,15.3891184 L14.6741456,15.3891184 L15.2522158,15.9514222 C15.2522158,15.9514222 14.7957693,16.3952881 14.7429373,16.4466773 C14.7940082,16.4939863 15.1670242,16.8402569 15.2132522,16.8831547 C15.2132522,16.8831547 15.1670242,16.8402569 15.2132522,16.8831547 L15.2132522,16.8831547 L15.2132522,16.8831547 Z" fill="#4EAB53" id="_155785728"/><path d="M12.3232315,16.8831547 C12.371991,16.8356252 12.9206734,16.3018833 12.9206734,16.3018833 C12.9206734,16.3018833 13.4693558,16.8356252 13.5182254,16.8831547 C13.5644534,16.8402569 13.9373593,16.4939863 13.9884302,16.4466773 C13.9357083,16.3952881 13.4792618,15.9514222 13.4792618,15.9514222 L14.057332,15.3891184 L13.304696,15.3891184 L12.9206734,15.7626275 L12.5366507,15.3891184 L11.7840148,15.3891184 L12.362085,15.9514222 C12.362085,15.9514222 11.9056385,16.3952881 11.8529165,16.4466773 C11.9039875,16.4939863 12.2770035,16.8402569 12.3232315,16.8831547 C12.3232315,16.8831547 12.2770035,16.8402569 12.3232315,16.8831547 L12.3232315,16.8831547 L12.3232315,16.8831547 Z" fill="#4EAB53" id="_155785584"/><path d="M10.6282046,16.8831547 C10.579335,16.8356252 10.0306526,16.3018833 10.0306526,16.3018833 C10.0306526,16.3018833 9.48197023,16.8356252 9.43321069,16.8831547 C9.38698269,16.8402569 9.01396672,16.4939863 8.96289578,16.4466773 C9.01572778,16.3952881 9.4721743,15.9514222 9.4721743,15.9514222 L8.8941041,15.3891184 L9.64662998,15.3891184 L10.0306526,15.7626275 L10.4147853,15.3891184 L11.1673112,15.3891184 L10.589241,15.9514222 C10.589241,15.9514222 11.0456875,16.3952881 11.0985195,16.4466773 C11.0474486,16.4939863 10.6744326,16.8402569 10.6282046,16.8831547 C10.6282046,16.8831547 10.6744326,16.8402569 10.6282046,16.8831547 L10.6282046,16.8831547 L10.6282046,16.8831547 Z" fill="#4EAB53" id="_155785440"/><path d="M20.6232496,1.77561127 L20.6232496,3.47277829 L22.9256244,3.47277829 L22.9256244,13.6132134 L20.6232496,13.6132134 L20.6232496,15.3103805 L5.21787706,15.3103805 L5.21787706,13.6132134 L2.91550228,13.6132134 L2.91550228,3.47277829 L5.21787706,3.47277829 L5.21787706,1.77561127 L20.6232496,1.77561127 L20.6232496,1.77561127 Z" fill="#E54D42" id="_155785296" stroke="#000000" stroke-width="0.1"/><path d="M19.5485585,2.50586728 L19.5485585,4.54952546 L22.1968729,4.54952546 L22.1968729,12.5364663 L19.5485585,12.5364663 L19.5485585,14.5801244 L6.2925681,14.5801244 L6.2925681,12.5364663 L3.64436383,12.5364663 L3.64436383,4.54952546 L6.2925681,4.54952546 L6.2925681,2.50586728 L19.5485585,2.50586728 L19.5485585,2.50586728 Z" fill="#E54D42" id="_155785152" stroke="#000000" stroke-width="0.1"/><path d="M17.3929026,2.50586728 C17.4135952,2.52108554 22.1652837,6.03738624 22.1968729,6.06076502 L22.1968729,11.0251164 C22.1652837,11.0486055 17.4135952,14.5647959 17.3929026,14.5801244 L8.44822399,14.5801244 C8.42764152,14.5647959 3.67595296,11.0486055 3.64436383,11.0251164 L3.64436383,6.06076502 C3.67595296,6.03738624 8.42764152,2.52108554 8.44822399,2.50586728 L17.3929026,2.50586728 C17.3929026,2.50586728 17.367147,2.50586728 17.3929026,2.50586728 L17.3929026,2.50586728 L17.3929026,2.50586728 Z" fill="#4EAB53" id="_155785008" stroke="#000000" stroke-width="0.1"/><path d="M18.3173527,3.60114102 L18.3173527,4.46935389 L19.7117874,4.46935389 L19.7117874,12.6166378 L18.3173527,12.6166378 L18.3173527,13.4847404 L7.52399409,13.4847404 L7.52399409,12.6166378 L6.12955935,12.6166378 L6.12955935,4.46935389 L7.52399409,4.46935389 L7.52399409,3.60114102 L18.3173527,3.60114102 L18.3173527,3.60114102 Z" fill="#E54D42" id="_155819672" stroke="#000000" stroke-width="0.1"/><path d="M17.0476235,3.60114102 C17.0693066,3.61933677 19.3436144,5.53352944 19.3712411,5.55668767 L19.3712411,11.5291938 C19.3436144,11.552352 17.0693066,13.4665447 17.0476235,13.4847404 L8.79350316,13.4847404 C8.77193009,13.4665447 6.49762232,11.5524623 6.46999559,11.5291938 L6.46999559,5.55668767 C6.49762232,5.53352944 8.77193009,3.61933677 8.79350316,3.60114102 L17.0476235,3.60114102 C17.0476235,3.60114102 17.0192263,3.60114102 17.0476235,3.60114102 L17.0476235,3.60114102 L17.0476235,3.60114102 Z" fill="#4EAB53" id="_155819528" stroke="#000000" stroke-width="0.1"/><path d="M16.896612,4.01677602 C16.9181851,4.03486149 18.9287731,5.72728659 18.9563998,5.75044481 L18.9563998,11.3355469 C18.9287731,11.3587051 16.9181851,13.05102 16.896612,13.0692157 L8.94462471,13.0692157 C8.92305164,13.05102 6.9122435,11.3587051 6.88472683,11.3355469 L6.88472683,5.75044481 C6.9122435,5.72728659 8.92305164,4.03486149 8.94462471,4.01677602 L16.896612,4.01677602 C16.896612,4.01677602 16.8681047,4.01677602 16.896612,4.01677602 L16.896612,4.01677602 L16.896612,4.01677602 Z" fill="#E54D42" id="_155819384" stroke="#000000" stroke-width="0.1"/><path d="M15.8898321,3.52240306 L14.7650607,3.52240306 L14.7650607,3.31861068 L15.3275014,2.83305991 L15.8898321,3.31861068 L15.8898321,3.52240306 L15.8898321,3.52240306 Z" fill="#E54D42" id="_155819240"/><path d="M14.686363,3.52240306 L13.5615917,3.52240306 L13.5615917,3.31861068 L14.1240324,2.83305991 L14.686363,3.31861068 L14.686363,3.52240306 L14.686363,3.52240306 Z" fill="#FEE94E" id="_155819168"/><path d="M13.483004,3.52240306 L12.3581226,3.52240306 L12.3581226,3.31861068 L12.9205633,2.83305991 L13.483004,3.31861068 L13.483004,3.52240306 L13.483004,3.52240306 Z" fill="#E54D42" id="_155819096"/><path d="M12.279535,3.52240306 L11.1547636,3.52240306 L11.1547636,3.31861068 L11.7170943,2.83305991 L12.279535,3.31861068 L12.279535,3.52240306 L12.279535,3.52240306 Z" fill="#FEE94E" id="_155819024"/><path d="M11.076176,3.52240306 L9.95129455,3.52240306 L9.95129455,3.31861068 L10.5137353,2.83305991 L11.076176,3.31861068 L11.076176,3.52240306 L11.076176,3.52240306 Z" fill="#E54D42" id="_155818952"/><path d="M4.82438868,11.5179455 L4.33987517,10.9544287 L4.82438868,10.3909119 L6.05086168,10.3909119 L6.05086168,11.5179455 L4.82438868,11.5179455 L4.82438868,11.5179455 Z" fill="#FEE94E" id="_155818808"/><path d="M4.82449875,10.3121739 L4.33987517,9.74865714 L4.82449875,9.18514034 L6.05086168,9.18514034 L6.05086168,10.3121739 L4.82449875,10.3121739 L4.82449875,10.3121739 Z" fill="#E54D42" id="_155818736"/><path d="M4.82449875,9.10640238 L4.33987517,8.54299586 L4.82449875,7.97947906 L6.05086168,7.97947906 L6.05086168,9.10640238 L4.82449875,9.10640238 L4.82449875,9.10640238 Z" fill="#FEE94E" id="_155818664"/><path d="M4.82449875,7.9007411 L4.33987517,7.3372243 L4.82449875,6.77370751 L6.05086168,6.77370751 L6.05086168,7.9007411 L4.82449875,7.9007411 L4.82449875,7.9007411 Z" fill="#E54D42" id="_155818592"/><path d="M4.82438868,6.69496954 L4.33987517,6.13145275 L4.82438868,5.56804623 L6.05086168,5.56804623 L6.05086168,6.69496954 L4.82438868,6.69496954 L4.82438868,6.69496954 Z" fill="#FEE94E" id="_155818520"/><path d="M15.8898321,13.5634784 L14.7650607,13.5634784 L14.7650607,13.767381 L15.3275014,14.2528215 L15.8898321,13.767381 L15.8898321,13.5634784 L15.8898321,13.5634784 Z" fill="#E54D42" id="_155818376"/><path d="M14.686363,13.5634784 L13.5615917,13.5634784 L13.5615917,13.767381 L14.1240324,14.2528215 L14.686363,13.767381 L14.686363,13.5634784 L14.686363,13.5634784 Z" fill="#FEE94E" id="_155818304"/><path d="M13.483004,13.5634784 L12.3581226,13.5634784 L12.3581226,13.767381 L12.9205633,14.2528215 L13.483004,13.767381 L13.483004,13.5634784 L13.483004,13.5634784 Z" fill="#E54D42" id="_155818232"/><path d="M12.279535,13.5634784 L11.1547636,13.5634784 L11.1547636,13.767381 L11.7170943,14.2528215 L12.279535,13.767381 L12.279535,13.5634784 L12.279535,13.5634784 Z" fill="#FEE94E" id="_155818160"/><path d="M11.076176,13.5634784 L9.95129455,13.5634784 L9.95129455,13.767381 L10.5137353,14.2528215 L11.076176,13.767381 L11.076176,13.5634784 L11.076176,13.5634784 Z" fill="#E54D42" id="_155818088"/><path d="M21.016848,11.5179455 L21.5013615,10.9544287 L21.016848,10.3909119 L19.790375,10.3909119 L19.790375,11.5179455 L21.016848,11.5179455 L21.016848,11.5179455 Z" fill="#FEE94E" id="_155817944"/><path d="M21.016738,10.3121739 L21.5013615,9.74865714 L21.016738,9.18514034 L19.790375,9.18514034 L19.790375,10.3121739 L21.016738,10.3121739 L21.016738,10.3121739 Z" fill="#E54D42" id="_155817872"/><path d="M21.016738,9.10640238 L21.5013615,8.54299586 L21.016738,7.97947906 L19.790375,7.97947906 L19.790375,9.10640238 L21.016738,9.10640238 L21.016738,9.10640238 Z" fill="#FEE94E" id="_155817800"/><path d="M21.016738,7.9007411 L21.5013615,7.3372243 L21.016738,6.77370751 L19.790375,6.77370751 L19.790375,7.9007411 L21.016738,7.9007411 L21.016738,7.9007411 Z" fill="#E54D42" id="_155802624"/><path d="M21.016848,6.69496954 L21.5013615,6.13145275 L21.016848,5.56804623 L19.790375,5.56804623 L19.790375,6.69496954 L21.016848,6.69496954 L21.016848,6.69496954 Z" fill="#FEE94E" id="_155802552"/><path d="M10.1312536,13.0692157 L10.5821967,12.6343925 L11.0330299,13.0692157 L10.1312536,13.0692157 L10.1312536,13.0692157 Z" fill="#FFFFFF" id="_155802480"/><path d="M9.77089526,11.6173053 L10.1291623,11.4621452 L10.5821967,11.8250677 L10.6067416,11.8054383 L11.0351211,11.4621452 L11.3934982,11.6173053 L11.4594282,12.0366897 L11.0082649,12.4343495 L11.6636019,13.0692157 L11.0330299,13.0692157 L10.5821967,12.6343925 L10.1312536,13.0692157 L9.50068157,13.0692157 L10.1561286,12.4343495 L9.70485525,12.0366897 L9.77089526,11.6173053 Z M12.109482,11.6173053 L12.467749,11.4621452 L12.9206734,11.8250677 L12.9452183,11.8054383 L13.3737078,11.4621452 L13.7319749,11.6173053 L13.7980149,12.0366897 L13.3468516,12.4343495 L14.0021886,13.0692157 L13.3716166,13.0692157 L12.9206734,12.6343925 L12.4698403,13.0692157 L11.8391582,13.0692157 L12.4946053,12.4343495 L12.043442,12.0366897 L12.109482,11.6173053 Z M16.0705616,11.6173053 L15.7122945,11.4621452 L15.2593702,11.8250677 L15.2347152,11.8054383 L14.8063357,11.4621452 L14.4480687,11.6173053 L14.3820287,12.0366897 L14.833192,12.4343495 L14.177855,13.0692157 L14.808427,13.0692157 L15.2593702,12.6343925 L15.7102033,13.0692157 L16.3407753,13.0692157 L15.6854383,12.4343495 L16.1366016,12.0366897 L16.0705616,11.6173053 Z M9.77089526,5.46857614 L10.1291623,5.62373624 L10.5821967,5.26092406 L10.6067416,5.28055341 L11.0351211,5.62373624 L11.3934982,5.46857614 L11.4594282,5.049302 L11.0082649,4.6516422 L11.6636019,4.01677602 L11.0330299,4.01677602 L10.5821967,4.45148897 L10.1312536,4.01677602 L9.50068157,4.01677602 L10.1561286,4.6516422 L9.70485525,5.04919172 L9.77089526,5.46857614 Z M12.109482,5.46857614 L12.467749,5.62373624 L12.9206734,5.26092406 L12.9452183,5.28055341 L13.3737078,5.62373624 L13.7319749,5.46857614 L13.7980149,5.049302 L13.3468516,4.6516422 L14.0021886,4.01677602 L13.3716166,4.01677602 L12.9206734,4.45148897 L12.4698403,4.01677602 L11.8391582,4.01677602 L12.4946053,4.6516422 L12.043442,5.04919172 L12.109482,5.46857614 Z M16.0705616,5.46857614 L15.7122945,5.62373624 L15.2593702,5.26092406 L15.2347152,5.28055341 L14.8063357,5.62373624 L14.4480687,5.46857614 L14.3820287,5.049302 L14.833192,4.6516422 L14.177855,4.01677602 L14.808427,4.01677602 L15.2593702,4.45148897 L15.7102033,4.01677602 L16.3407753,4.01677602 L15.6854383,4.6516422 L16.1366016,5.04919172 L16.0705616,5.46857614 Z M18.9563998,6.29345004 L18.5986831,6.59020615 L18.9563998,6.88685198 L18.9563998,7.37879883 L18.4062866,6.9245668 C18.4062866,6.9245668 18.0363524,7.26036105 18.0114774,7.28296789 C17.9797782,7.27899791 17.6233823,7.23411507 17.5881609,7.22970398 C17.5724214,7.20070106 17.461144,6.99514424 17.4390206,6.95401083 C17.4758929,6.91717822 17.8033413,6.59020615 17.8033413,6.59020615 C17.8033413,6.59020615 17.4758929,6.26312379 17.4390206,6.22629119 C17.461144,6.18515777 17.5724214,5.97949068 17.5881609,5.95059804 C17.6233823,5.94618695 17.9797782,5.90119383 18.0114774,5.89722385 C18.0363524,5.91983069 18.4062866,6.25573522 18.4062866,6.25573522 L18.9563998,5.80161346 L18.9563998,6.29345004 Z M18.9563998,8.24635003 L18.5986831,8.54310614 L18.9563998,8.83964169 L18.9563998,9.33169882 L18.4062866,8.87746679 C18.4062866,8.87746679 18.0363524,9.21326105 18.0114774,9.23586788 C17.9797782,9.2318979 17.6233823,9.18690478 17.5881609,9.18260397 C17.5724214,9.15360105 17.461144,8.94793396 17.4390206,8.90691082 C17.4758929,8.87007821 17.8033413,8.54310614 17.8033413,8.54310614 C17.8033413,8.54310614 17.4758929,8.21591351 17.4390206,8.1790809 C17.461144,8.13805776 17.5724214,7.93239067 17.5881609,7.90338775 C17.6233823,7.89908694 17.9797782,7.85409382 18.0114774,7.85012384 C18.0363524,7.87273068 18.4062866,8.20852493 18.4062866,8.20852493 L18.9563998,7.75451345 L18.9563998,8.24635003 Z M6.8851671,8.24635003 L7.24277373,8.54310614 L6.8851671,8.83964169 L6.8851671,9.33169882 L7.43528035,8.87746679 C7.43528035,8.87746679 7.80521446,9.21326105 7.83008953,9.23586788 C7.86167866,9.2318979 8.21818463,9.18690478 8.25340597,9.18260397 C8.2691455,9.15360105 8.38031285,8.94793396 8.40254632,8.90691082 C8.36567398,8.87007821 8.03822561,8.54310614 8.03822561,8.54310614 C8.03822561,8.54310614 8.36567398,8.21591351 8.40254632,8.1790809 C8.38031285,8.13805776 8.2691455,7.93239067 8.25340597,7.90338775 C8.21818463,7.89908694 7.86167866,7.85409382 7.83008953,7.85012384 C7.80521446,7.87273068 7.43528035,8.20852493 7.43528035,8.20852493 L6.8851671,7.75451345 L6.8851671,8.24635003 Z M6.8851671,10.7925417 L7.24277373,10.4957856 L6.8851671,10.1991397 L6.8851671,9.70719289 L7.43528035,10.1614249 C7.43528035,10.1614249 7.80521446,9.82552039 7.83008953,9.80291355 C7.86167866,9.80688353 8.21818463,9.85187666 8.25340597,9.85617747 C8.2691455,9.88518039 8.38031285,10.0908475 8.40254632,10.1318706 C8.36567398,10.1688135 8.03822561,10.4957856 8.03822561,10.4957856 C8.03822561,10.4957856 8.36567398,10.8228679 8.40254632,10.8597005 C8.38031285,10.9007237 8.2691455,11.1063908 8.25340597,11.1353937 C8.21818463,11.1398048 7.86167866,11.1846876 7.83008953,11.1886576 C7.80521446,11.1660508 7.43528035,10.8302565 7.43528035,10.8302565 L6.8851671,11.2843783 L6.8851671,10.7925417 Z" fill="#4EAB53" id="_155802336"/><path d="M12.4698403,13.0692157 L12.9206734,12.6343925 L13.3716166,13.0692157 L12.4698403,13.0692157 L12.4698403,13.0692157 Z" fill="#FFFFFF" id="_155802264"/><path d="M15.7102033,13.0692157 L15.2593702,12.6343925 L14.808427,13.0692157 L15.7102033,13.0692157 L15.7102033,13.0692157 Z" fill="#FFFFFF" id="_155802048"/><path d="M10.1312536,4.01677602 L10.5821967,4.45148897 L11.0330299,4.01677602 L10.1312536,4.01677602 L10.1312536,4.01677602 Z" fill="#FFFFFF" id="_155801832"/><path d="M12.4698403,4.01677602 L12.9206734,4.45148897 L13.3716166,4.01677602 L12.4698403,4.01677602 L12.4698403,4.01677602 Z" fill="#FFFFFF" id="_155801616"/><path d="M15.7102033,4.01677602 L15.2593702,4.45148897 L14.808427,4.01677602 L15.7102033,4.01677602 L15.7102033,4.01677602 Z" fill="#FFFFFF" id="_155801400"/><path d="M18.9563998,6.29345004 L18.9563998,6.88630059 L18.9556293,6.88630059 L18.5986831,6.59020615 L18.9563998,6.29345004 L18.9563998,6.29345004 Z" fill="#FFFFFF" id="_155801184"/><path d="M18.9563998,8.24635003 L18.9563998,8.83920058 L18.9556293,8.83920058 L18.5986831,8.54310614 L18.9563998,8.24635003 L18.9563998,8.24635003 Z" fill="#FFFFFF" id="_155800968"/><path d="M18.9563998,10.7925417 L18.9563998,10.1996911 L18.9556293,10.1996911 L18.5986831,10.4957856 L18.9563998,10.7925417 L18.9563998,10.7925417 Z" fill="#FFFFFF" id="_155800752"/><path d="M18.9563998,10.7925417 L18.5986831,10.4957856 L18.9563998,10.1991397 L18.9563998,9.70719289 L18.4062866,10.1614249 C18.4062866,10.1614249 18.0363524,9.82552039 18.0114774,9.80291355 C17.9797782,9.80688353 17.6233823,9.85187666 17.5881609,9.85617747 C17.5724214,9.88518039 17.461144,10.0908475 17.4390206,10.1318706 C17.4758929,10.1688135 17.8033413,10.4957856 17.8033413,10.4957856 C17.8033413,10.4957856 17.4758929,10.8228679 17.4390206,10.8597005 C17.461144,10.9007237 17.5724214,11.1063908 17.5881609,11.1353937 C17.6233823,11.1398048 17.9797782,11.1846876 18.0114774,11.1886576 C18.0363524,11.1660508 18.4062866,10.8302565 18.4062866,10.8302565 L18.9563998,11.2843783 L18.9563998,10.7925417 L18.9563998,10.7925417 Z" fill="#28AE66" id="_155768192"/><path d="M6.8851671,6.29345004 L6.8851671,6.88630059 L6.88593756,6.88630059 L7.24277373,6.59020615 L6.8851671,6.29345004 L6.8851671,6.29345004 Z" fill="#FFFFFF" id="_155768120"/><path d="M6.8851671,6.29345004 L7.24277373,6.59020615 L6.8851671,6.88685198 L6.8851671,7.37879883 L7.43528035,6.9245668 C7.43528035,6.9245668 7.80521446,7.26036105 7.83008953,7.28296789 C7.86167866,7.27899791 8.21818463,7.23411507 8.25340597,7.22970398 C8.2691455,7.20070106 8.38031285,6.99514424 8.40254632,6.95401083 C8.36567398,6.91717822 8.03822561,6.59020615 8.03822561,6.59020615 C8.03822561,6.59020615 8.36567398,6.26312379 8.40254632,6.22629119 C8.38031285,6.18515777 8.2691455,5.97949068 8.25340597,5.95059804 C8.21818463,5.94618695 7.86167866,5.90119383 7.83008953,5.89722385 C7.80521446,5.91983069 7.43528035,6.25573522 7.43528035,6.25573522 L6.8851671,5.80161346 L6.8851671,6.29345004 L6.8851671,6.29345004 Z" fill="#28AE66" id="_155767976"/><path d="M6.8851671,8.24635003 L6.8851671,8.83920058 L6.88593756,8.83920058 L7.24277373,8.54310614 L6.8851671,8.24635003 L6.8851671,8.24635003 Z" fill="#FFFFFF" id="_155767904"/><path d="M6.8851671,10.7925417 L6.8851671,10.1996911 L6.88593756,10.1996911 L7.24277373,10.4957856 L6.8851671,10.7925417 L6.8851671,10.7925417 Z" fill="#FFFFFF" id="_155767688"/><path d="M10.9991293,7.96944383 L10.9991293,7.27271211 L11.7030057,7.27271211 L11.7030057,6.50871125 L12.8812695,6.50871125 L12.8812695,7.29620116 L11.7669545,7.93084679 L11.7669545,8.50362688 L10.0271305,8.50362688 L10.0271305,7.96944383 L10.9991293,7.96944383 L10.9991293,7.96944383 Z" fill="#FEE94E" id="_155767400"/><path d="M14.8421074,9.11643761 L14.8421074,9.81327961 L14.138231,9.81327961 L14.138231,10.5772805 L12.9599672,10.5772805 L12.9599672,9.78979056 L14.0741722,9.15503465 L14.0741722,8.58236484 L15.8141062,8.58236484 L15.8141062,9.11643761 L14.8421074,9.11643761 L14.8421074,9.11643761 Z" fill="#FEE94E" id="_155767328"/><path d="M14.8421074,7.27271211 L14.8421074,7.96944383 L15.8141062,7.96944383 L15.8141062,8.50362688 L14.0741722,8.50362688 L14.0741722,7.93084679 L12.9599672,7.29620116 L12.9599672,6.50871125 L14.138231,6.50871125 L14.138231,7.27271211 L14.8421074,7.27271211 L14.8421074,7.27271211 Z" fill="#FFFFFF" id="_155767256"/><path d="M11.7030057,9.81327961 L10.9991293,9.81327961 L10.9991293,9.11643761 L10.0271305,9.11643761 L10.0271305,8.58236484 L11.7669545,8.58236484 L11.7669545,9.15503465 L12.8812695,9.78979056 L12.8812695,10.5772805 L11.7030057,10.5772805 L11.7030057,9.81327961 L11.7030057,9.81327961 Z" fill="#FFFFFF" id="_155767184"/><path d="M11.8456521,8.58236484 L11.8456521,9.11323957 L12.8812695,9.70322291 L12.8812695,8.58236484 L11.8456521,8.58236484 L11.8456521,8.58236484 Z" fill="#E54D42" id="_155767112"/><path d="M12.8812695,7.38276881 L11.8456521,7.97264187 L11.8456521,8.5035166 L12.8812695,8.5035166 L12.8812695,7.38276881 L12.8812695,7.38276881 Z" fill="#28AE66" id="_155767040"/><path d="M13.9955846,8.5035166 L13.9955846,7.97264187 L12.9599672,7.38276881 L12.9599672,8.5035166 L13.9955846,8.5035166 L13.9955846,8.5035166 Z" fill="#E54D42" id="_155766968"/><path d="M12.9599672,9.70322291 L13.9955846,9.11323957 L13.9955846,8.58236484 L12.9599672,8.58236484 L12.9599672,9.70322291 L12.9599672,9.70322291 Z" fill="#28AE66" id="_155766896"/></g><g transform="translate(3.000000, 23.000000)"><path d="M16.469655,16.7911664 L16.469655,18 L9.53034499,18 L9.53034499,16.7911664 L6.35360307,16.7911664 L6.35360307,15.5822084 L3.17686114,15.5822084 L3.17686114,14.3732504 L0,14.3732504 L0,3.62687403 L3.17686114,3.62687403 L3.17686114,2.41791602 L6.35360307,2.41791602 L6.35360307,1.20895801 L9.53034499,1.20895801 L9.53034499,0 L16.469655,0 L16.469655,1.20895801 L19.6463969,1.20895801 L19.6463969,2.41791602 L22.8232581,2.41791602 L22.8232581,3.62687403 L26,3.62687403 L26,14.3732504 L22.8232581,14.3732504 L22.8232581,15.5822084 L19.6463969,15.5822084 L19.6463969,16.7911664 L16.469655,16.7911664 L16.469655,16.7911664 Z" fill="#E54D42" id="_155914328" stroke="#000000" stroke-width="0.1"/><path d="M15.527825,15.7961652 L15.527825,17 L10.472175,17 L10.472175,15.7961652 L7.31482286,15.7961652 L7.31482286,14.5920826 L4.15747067,14.5920826 L4.15747067,13.3882479 L1,13.3882479 L1,4.61175213 L4.15747067,4.61175213 L4.15747067,3.40779345 L7.31482286,3.40779345 L7.31482286,2.20383478 L10.472175,2.20383478 L10.472175,1 L15.527825,1 L15.527825,2.20383478 L18.6852956,2.20383478 L18.6852956,3.40779345 L21.8425293,3.40779345 L21.8425293,4.61175213 L25,4.61175213 L25,13.3882479 L21.8425293,13.3882479 L21.8425293,14.5920826 L18.6852956,14.5920826 L18.6852956,15.7961652 L15.527825,15.7961652 L15.527825,15.7961652 Z" fill="#E54D42" id="_155914184" stroke="#000000" stroke-width="0.1"/><path d="M0,9.66856656 L0,8.33143344 L0.922145739,8.33143344 L0.922145739,5.1054147 L1.70899596,5.66938919 L1.71089485,5 L2.46107287,5.53812028 L2.48635177,5.51990481 L3.21125089,5 L3.21314977,5.66938919 L4,5.1054147 L4,12.8945853 L3.21314977,12.3306108 L3.21125089,13 L2.46107287,12.4618797 L1.71089485,13 L1.70899596,12.3306108 L0.922145739,12.8945853 L0.922145739,9.66856656 L0,9.66856656 L0,9.66856656 Z" fill="#28AE66" id="_155914040"/><path d="M4.84694586,14.2420753 L4,14.8325737 L4,4.16742635 L4.84694586,4.75805167 L4.84879685,4 L5.5,4.64190678 L6.15120315,4 L6.15305414,4.75805167 L7,4.16742635 L7,14.8325737 L6.15305414,14.2420753 L6.15120315,15 L5.5,14.3582202 L4.84879685,15 L4.84694586,14.2420753 L4.84694586,14.2420753 Z" fill="#FEE94E" id="_155913968"/><path d="M7.79797941,15.1624718 L7,15.801306 L7,3.19869397 L7.79797941,3.83752815 L7.79959897,3 L8.49994216,3.66321156 L9.20028535,3 L9.20202059,3.83752815 L10,3.19869397 L10,15.801306 L9.20202059,15.1624718 L9.20028535,16 L8.49994216,15.3367884 L7.79959897,16 L7.79797941,15.1624718 L7.79797941,15.1624718 Z" fill="#28AE66" id="_155913896"/><path d="M13.0001406,1.92189181 L13,1.92189181 L12.9998594,1.92189181 L11.3010219,1 L11.3010219,2.21292809 L10,1.21198645 L10,15.7880135 L11.3010219,14.7870719 L11.3010219,16 L12.9998594,15.0781082 L13,15.0781082 L13.0001406,15.0781082 L14.6989781,16 L14.6989781,14.7870719 L16,15.7880135 L16,1.21198645 L14.6989781,2.21292809 L14.6989781,1 L13.0001406,1.92189181 L13.0001406,1.92189181 Z" fill="#FEE94E" id="_155913824"/><path d="M26,9.66856656 L26,8.33143344 L25.0778269,8.33143344 L25.0778269,5.1054147 L24.291072,5.66938919 L24.2891731,5 L23.5389728,5.53812028 L23.5135745,5.51990481 L22.7886538,5 L22.7867549,5.66938919 L22,5.1054147 L22,12.8945853 L22.7867549,12.3306108 L22.7886538,13 L23.5389728,12.4618797 L24.2891731,13 L24.291072,12.3306108 L25.0778269,12.8945853 L25.0778269,9.66856656 L26,9.66856656 L26,9.66856656 Z" fill="#28AE66" id="_155913752"/><path d="M21.1530868,14.2420753 L22,14.8325737 L22,4.16742635 L21.1530868,4.75805167 L21.1512359,4 L20.5000578,4.64190678 L19.8487641,4 L19.8470289,4.75805167 L19,4.16742635 L19,14.8325737 L19.8470289,14.2420753 L19.8487641,15 L20.5000578,14.3582202 L21.1512359,15 L21.1530868,14.2420753 L21.1530868,14.2420753 Z" fill="#FEE94E" id="_155913680"/><path d="M18.2020206,15.1624718 L19,15.801306 L19,3.19869397 L18.2020206,3.83752815 L18.2002854,3 L17.4999422,3.66321156 L16.799599,3 L16.7978637,3.83752815 L16,3.19869397 L16,15.801306 L16.7978637,15.1624718 L16.799599,16 L17.4999422,15.3367884 L18.2002854,16 L18.2020206,15.1624718 L18.2020206,15.1624718 Z" fill="#28AE66" id="_155913608"/><path d="M13.7526681,6 L14.5,5.11937131 L13.9535625,4.5463062 L13.9535625,4.93373245 L13.489188,5.44109934 L13.489188,4.17820296 L14.1363931,3.56925227 L12.9999459,2.5 L11.8634988,3.56925227 L12.510812,4.17820296 L12.510812,5.44109934 L12.0463293,4.93373245 L12.0463293,4.5463062 L11.5,5.11937131 L12.2473319,6 L10.4183709,6 L7.50192825,8.01124652 L3.37080753,8.01124652 L3.37080753,8.58481924 L2,8.58481924 L2,9.41505807 L3.37080753,9.41505807 L3.37080753,9.98863079 L7.50192825,9.98863079 L10.4183709,12 L12.2473318,12 L11.5,12.8806287 L12.0463293,13.4538318 L12.0463293,13.0664056 L12.510812,12.5589007 L12.510812,13.821797 L11.8634988,14.4307477 L12.9999459,15.5 L14.1363931,14.4307477 L13.489188,13.821797 L13.489188,12.5589007 L13.9535625,13.0664056 L13.9535625,13.4538318 L14.5,12.8806287 L13.7526682,12 L15.5816291,12 L18.4980718,9.98863079 L22.6291925,9.98863079 L22.6291925,9.41505807 L24,9.41505807 L24,8.58481924 L22.6291925,8.58481924 L22.6291925,8.01124652 L18.4980718,8.01124652 L15.5816291,6 L13.7526681,6 L13.7526681,6 Z" fill="#E54D42" id="_155913464"/><path d="M12.9999398,3 C13.0425955,3.04251145 13.4245692,3.42462394 13.5,3.5 C13.4245692,3.57537606 13.0425955,3.95748855 12.9999398,4 C12.9574045,3.95748855 12.5753103,3.57537606 12.5,3.5 C12.5753103,3.42462394 12.9574045,3.04251145 12.9999398,3 C12.9999398,3 12.9574045,3.04251145 12.9999398,3 L12.9999398,3 L12.9999398,3 Z" fill="#28AE66" id="_155913320"/><path d="M14.1777895,7 L13.3205048,7.54992336 L15.2603181,8.79428509 L16.3587342,8.08966499 L15.9155496,7.80523319 L15.5747369,8.02386687 L15.25404,7.81826144 L15.9155496,7.39391285 L17,8.08966499 L15.5810151,9 L17,9.91033501 L15.9155496,10.6060871 L15.25404,10.1817386 L15.5747369,9.97602365 L15.9155496,10.1946573 L16.3587342,9.91033501 L15.2603181,9.20571491 L13.3206329,10.4500766 L14.1777895,11 L13.5366518,11 L12.9999359,10.6557915 L12.4633482,11 L11.8220824,11 L12.6793671,10.4500766 L10.7395538,9.20571491 L9.64126587,9.91033501 L10.0845785,10.1946573 L10.4252631,9.97602365 L10.7458319,10.1817386 L10.0845785,10.6060871 L9,9.91033501 L10.4189849,9 L9,8.08966499 L10.0845785,7.39391285 L10.7458319,7.81826144 L10.4252631,8.02386687 L10.0845785,7.80523319 L9.64126587,8.08966499 L10.7395538,8.79428509 L12.6793671,7.54992336 L11.8220824,7 L12.4633482,7 L12.9999359,7.34420845 L13.5366518,7 L14.1777895,7 L14.1777895,7 Z M12.9756558,8.01416443 L11.2857143,9.00004399 L12.9998867,10 L14.7142857,9.00004399 L12.9998867,8 L12.9756558,8.01416443 L12.9756558,8.01416443 Z" fill="#FEE94E" id="_155882632"/><path d="M9,8.5 L9.5,9 L9,9.5 L8.5,9 L9,8.5 L9,8.5 Z" fill="#28AE66" id="_155882488"/><path d="M12.9999519,8.5 L13.5,9 L12.9999519,9.5 L12.5,9 L12.9999519,8.5 L12.9999519,8.5 Z" fill="#28AE66" id="_155882344"/><path d="M17.0000481,8.5 L16.5,9 L17.0000481,9.5 L17.5,9 L17.0000481,8.5 L17.0000481,8.5 Z" fill="#28AE66" id="_155882200"/><path d="M2.5,7 C2.54629237,7.08027254 2.69830508,7.34419248 2.69830508,7.34419248 C2.69830508,7.34419248 2.9125,7.11657617 3,7.02384755 C2.98951271,7.42286809 2.90233051,7.73810284 2.75074153,7.89151496 C2.67966102,7.96348345 2.59533898,8 2.5,8 C2.40455508,8 2.32023305,7.96348345 2.24925847,7.89162142 C2.09766949,7.73810284 2.01048729,7.42286809 2,7.02384755 C2.08739407,7.11668264 2.30158898,7.34419248 2.30158898,7.34419248 C2.36769068,7.22942617 2.43389831,7.11465985 2.5,7 C2.5,7 2.43389831,7.11465985 2.5,7 L2.5,7 L2.5,7 Z" fill="#FFFFFF" id="_155882056"/><path d="M5.36914859,5.65476598 L4.9297831,5.36983421 L5.49993525,5 L6.0702169,5.36983421 L5.63085141,5.65476598 L5.63085141,6.59104025 L6.09184202,6.24282291 L6.09184202,5.95886927 L6.5,6.24458356 L5.49993525,7 L4.5,6.24458356 L4.90815798,5.95886927 L4.90815798,6.24282291 L5.36914859,6.59104025 L5.36914859,5.65476598 L5.36914859,5.65476598 Z" fill="#CA3745" id="_155881912"/><path d="M8.36914859,4.65476598 L7.9297831,4.36983421 L8.50006475,4 L9.0702169,4.36983421 L8.63085141,4.65476598 L8.63085141,5.59104025 L9.09184202,5.24292072 L9.09184202,4.95886927 L9.5,5.24468137 L8.50006475,6 L7.5,5.24468137 L7.90815798,4.95886927 L7.90815798,5.24292072 L8.36914859,5.59104025 L8.36914859,4.65476598 L8.36914859,4.65476598 Z" fill="#FFFFFF" id="_155881768"/><path d="M5.36914859,12.3451682 L4.9297831,12.6300861 L5.49993525,13 L6.0702169,12.6300861 L5.63085141,12.3451682 L5.63085141,11.4089397 L6.09184202,11.7571401 L6.09184202,12.0410798 L6.5,11.7553795 L5.49993525,11 L4.5,11.7553795 L4.90815798,12.0410798 L4.90815798,11.7571401 L5.36914859,11.4089397 L5.36914859,12.3451682 L5.36914859,12.3451682 Z" fill="#CA3745" id="_155881624"/><path d="M20.6308514,5.65476598 L21.0702169,5.36983421 L20.4999353,5 L19.9297831,5.36983421 L20.3691486,5.65476598 L20.3691486,6.59104025 L19.908158,6.24282291 L19.908158,5.95886927 L19.5,6.24458356 L20.4999353,7 L21.5,6.24458356 L21.091842,5.95886927 L21.091842,6.24282291 L20.6308514,6.59104025 L20.6308514,5.65476598 L20.6308514,5.65476598 Z" fill="#CA3745" id="_155881480"/><path d="M20.6308514,12.3451682 L21.0702169,12.6300861 L20.4999353,13 L19.9297831,12.6300861 L20.3691486,12.3451682 L20.3691486,11.4089397 L19.908158,11.7571401 L19.908158,12.0410798 L19.5,11.7553795 L20.4999353,11 L21.5,11.7553795 L21.091842,12.0410798 L21.091842,11.7571401 L20.6308514,11.4089397 L20.6308514,12.3451682 L20.6308514,12.3451682 Z" fill="#CA3745" id="_155881336"/><path d="M8.36914859,13.345234 L7.9297831,13.6301658 L8.50006475,14 L9.0702169,13.6301658 L8.63085141,13.345234 L8.63085141,12.4089597 L9.09184202,12.7570793 L9.09184202,13.0411307 L9.5,12.7553186 L8.50006475,12 L7.5,12.7553186 L7.90815798,13.0411307 L7.90815798,12.7570793 L8.36914859,12.4089597 L8.36914859,13.345234 L8.36914859,13.345234 Z" fill="#FFFFFF" id="_155881192"/><path d="M17.6308514,4.65476598 L18.0702169,4.36983421 L17.5000647,4 L16.9297831,4.36983421 L17.3691486,4.65476598 L17.3691486,5.59104025 L16.908158,5.24292072 L16.908158,4.95886927 L16.5,5.24468137 L17.5000647,6 L18.5,5.24468137 L18.091842,4.95886927 L18.091842,5.24292072 L17.6308514,5.59104025 L17.6308514,4.65476598 L17.6308514,4.65476598 Z" fill="#FFFFFF" id="_155881048"/><path d="M17.6308514,13.345234 L18.0702169,13.6301658 L17.5000647,14 L16.9297831,13.6301658 L17.3691486,13.345234 L17.3691486,12.4089597 L16.908158,12.7570793 L16.908158,13.0411307 L16.5,12.7553186 L17.5000647,12 L18.5,12.7553186 L18.091842,13.0411307 L18.091842,12.7570793 L17.6308514,12.4089597 L17.6308514,13.345234 L17.6308514,13.345234 Z" fill="#FFFFFF" id="_155880904"/><path d="M2.23725948,10.1050295 C2.31123081,10.0353514 2.39964895,10 2.50004514,10 C2.6003499,10 2.68876804,10.0353514 2.7628308,10.1050295 C2.99425408,10.3227735 3.0020261,10.7165058 2.99974021,11 C2.99974021,11 2.7321999,10.7359747 2.68392195,10.6883272 C2.65027369,10.7426351 2.50004514,10.984886 2.50004514,10.984886 C2.50004514,10.984886 2.34981659,10.7426351 2.31607689,10.6883272 C2.26779894,10.7359747 2.00025863,11 2.00025863,11 C1.99797274,10.7165912 2.00583619,10.3226881 2.23725948,10.1050295 C2.23725948,10.1050295 2.00583619,10.3226881 2.23725948,10.1050295 L2.23725948,10.1050295 L2.23725948,10.1050295 Z" fill="#383739" id="_155856944"/><path d="M2.5,11 C2.54629237,10.919621 2.69830508,10.6558075 2.69830508,10.6558075 C2.69830508,10.6558075 2.9125,10.8833174 3,10.976046 C2.98951271,10.5770254 2.90233051,10.2617907 2.75074153,10.1083786 C2.67966102,10.0364101 2.59533898,10 2.5,10 C2.40455508,10 2.32023305,10.0364101 2.24925847,10.1083786 C2.09766949,10.2617907 2.01048729,10.5770254 2,10.976046 C2.08739407,10.8832109 2.30158898,10.6558075 2.30158898,10.6558075 C2.36769068,10.7704674 2.43389831,10.8852337 2.5,11 C2.5,11 2.43389831,10.8852337 2.5,11 L2.5,11 L2.5,11 Z" fill="#FFFFFF" id="_155856872"/><path d="M23.5,7 C23.4537076,7.08027254 23.301589,7.34419248 23.301589,7.34419248 C23.301589,7.34419248 23.0873941,7.11657617 23,7.02384755 C23.0104873,7.42286809 23.0976695,7.73810284 23.2492585,7.89151496 C23.3202331,7.96348345 23.404661,8 23.5,8 C23.595339,8 23.6797669,7.96348345 23.7507415,7.89162142 C23.9022246,7.73810284 23.9895127,7.42286809 24,7.02384755 C23.9126059,7.11668264 23.698411,7.34419248 23.698411,7.34419248 C23.6322034,7.22942617 23.5661017,7.11465985 23.5,7 C23.5,7 23.5661017,7.11465985 23.5,7 L23.5,7 L23.5,7 Z" fill="#FFFFFF" id="_155856728"/><path d="M23.5,11 C23.4537076,10.919621 23.301589,10.6558075 23.301589,10.6558075 C23.301589,10.6558075 23.0873941,10.8833174 23,10.976046 C23.0104873,10.5770254 23.0976695,10.2617907 23.2492585,10.1083786 C23.3202331,10.0364101 23.404661,10 23.5,10 C23.595339,10 23.6797669,10.0364101 23.7507415,10.1083786 C23.9022246,10.2617907 23.9895127,10.5770254 24,10.976046 C23.9126059,10.8832109 23.698411,10.6558075 23.698411,10.6558075 C23.6322034,10.7704674 23.5661017,10.8852337 23.5,11 C23.5,11 23.5661017,10.8852337 23.5,11 L23.5,11 L23.5,11 Z" fill="#FFFFFF" id="_155856584"/><path d="M12.9999398,15 C13.0425955,14.9574886 13.4245692,14.5753761 13.5,14.5 C13.4245692,14.4246239 13.0425955,14.042675 12.9999398,14 C12.9574045,14.042675 12.5753103,14.4246239 12.5,14.5 C12.5753103,14.5753761 12.9574045,14.9574886 12.9999398,15 C12.9999398,15 12.9574045,14.9574886 12.9999398,15 L12.9999398,15 L12.9999398,15 Z" fill="#28AE66" id="_155856296"/></g><g transform="translate(3.000000, 106.000000)"><path d="M23.8176934,5.90419686 L25.7902603,5.90419686 L25.7902603,11.0571933 L23.8176934,11.0571933 L23.8176934,12.9197297 L21.8715863,12.9197297 L21.8715863,14.9732308 L14.848951,14.9732308 L13.4802546,15.8001835 L14.2025146,16.2364788 L16.7802071,16.2364788 L17.1303558,15.8395121 L14.857004,15.8395121 L15.3529434,15.3373886 L18.4174763,15.3373886 L17.0791094,16.7386023 L14.0639403,16.7386023 L12.9954012,16.093045 L11.926862,16.7386023 L8.9119021,16.7386023 L7.57343057,15.3373886 L10.6380681,15.3373886 L11.1339029,15.8395121 L8.86044656,15.8395121 L9.21069982,16.2364788 L11.7883923,16.2364788 L12.5106523,15.8001835 L11.1418513,14.9732308 L4.11932061,14.9732308 L4.11932061,12.9197297 L2.17310896,12.9197297 L2.17310896,11.0571933 L0.200646614,11.0571933 L0.200646614,5.90419686 L2.17310896,5.90419686 L2.17310896,4.04166045 L4.11932061,4.04166045 L4.11932061,1.98815936 L11.1418513,1.98815936 L12.5106523,1.16131181 L11.7883923,0.724911281 L9.21069982,0.724911281 L8.86044656,1.12198318 L11.1339029,1.12198318 L10.6380681,1.62400152 L7.57343057,1.62400152 L8.9119021,0.22289294 L11.926862,0.22289294 L12.9954012,0.86845025 L14.0639403,0.22289294 L17.0791094,0.22289294 L18.4174763,1.62400152 L15.3529434,1.62400152 L14.857004,1.12198318 L17.1303558,1.12198318 L16.7802071,0.724911281 L14.2025146,0.724911281 L13.4802546,1.16131181 L14.848951,1.98815936 L21.8715863,1.98815936 L21.8715863,4.04166045 L23.8176934,4.04166045 L23.8176934,5.90419686 L23.8176934,5.90419686 Z" fill="#E54D42" id="_155766728" stroke="#000000" stroke-width="0.1"/><path d="M21.0629395,12.1067628 L21.0629395,14.1601587 L15.0800826,14.1601587 L12.9954012,15.4196212 L10.9108243,14.1601587 L4.92786284,14.1601587 L4.92786284,12.1067628 L2.98165118,12.1067628 L2.98165118,10.2441212 L1.00918884,10.2441212 L1.00918884,6.71726888 L2.98165118,6.71726888 L2.98165118,4.85462731 L4.92786284,4.85462731 L4.92786284,2.80123138 L10.9004704,2.80123138 L10.9108243,2.80123138 L12.9954012,1.5418741 L15.0800826,2.80123138 L21.0629395,2.80123138 L21.0629395,4.85462731 L23.0091511,4.85462731 L23.0091511,6.71726888 L24.9816135,6.71726888 L24.9816135,10.2441212 L23.0091511,10.2441212 L23.0091511,12.1067628 L21.0629395,12.1067628 L21.0629395,12.1067628 Z" fill="#FEE94E" id="yellow" stroke="#000000" stroke-width="0.1"/><path d="M20.5506849,11.591705 L20.5506849,13.6452061 L14.9379524,13.6452061 L12.9954012,14.8187555 L11.05285,13.6452061 L5.44022196,13.6452061 L5.44022196,11.591705 L3.49390572,11.591705 L3.49390572,9.72906346 L1.52144338,9.72906346 L1.52144338,7.23232666 L3.49390572,7.23232666 L3.49390572,5.36968509 L5.44022196,5.36968509 L5.44022196,3.31628916 L11.0424961,3.31628916 L11.05285,3.31628916 L12.9954012,2.14273979 L14.9379524,3.31628916 L20.5506849,3.31628916 L20.5506849,5.36968509 L22.4968966,5.36968509 L22.4968966,7.23232666 L24.4693589,7.23232666 L24.4693589,9.72906346 L22.4968966,9.72906346 L22.4968966,11.591705 L20.5506849,11.591705 L20.5506849,11.591705 Z" fill="#4EAB53" id="green" stroke="#000000" stroke-width="0.1"/><path d="M6.24970544,10.9421518 L9.01240774,12.7846033 L6.24970544,12.7846033 L6.24970544,10.9421518 L6.24970544,10.9421518 Z" fill="#F1453D" id="_155766296"/><path d="M12.9954012,8.75646865 L14.5062278,9.7063496 L11.4846791,9.7063496 L12.9954012,8.75646865 L12.9954012,8.75646865 Z M14.5061232,12.8261402 L12.9954012,13.7760211 L11.4847837,12.8261402 L14.5061232,12.8261402 L14.5061232,12.8261402 Z" fill="#FEE94E" id="_155749296"/><path d="M14.9168263,11.8112723 L14.9168263,12.7510582 L13.0327378,12.7510582 L13.0327378,11.8112723 L14.9168263,11.8112723 L14.9168263,11.8112723 Z" fill="#F1453D" id="_155749224"/><path d="M12.9581691,11.8112723 L12.9581691,12.7510582 L11.0740806,12.7510582 L11.0740806,11.8112723 L12.9581691,11.8112723 L12.9581691,11.8112723 Z" fill="#F1453D" id="_155749152"/><path d="M15.8961549,10.7962994 L15.8961549,11.7361904 L14.0120664,11.7361904 L14.0120664,10.7962994 L15.8961549,10.7962994 L15.8961549,10.7962994 Z" fill="#F1453D" id="_155749080"/><path d="M13.9374977,10.7962994 L13.9374977,11.7361904 L12.0534092,11.7361904 L12.0534092,10.7962994 L13.9374977,10.7962994 L13.9374977,10.7962994 Z" fill="#F1453D" id="_155749008"/><path d="M11.9787359,10.7962994 L11.9787359,11.7361904 L10.094752,11.7361904 L10.094752,10.7962994 L11.9787359,10.7962994 L11.9787359,10.7962994 Z" fill="#F1453D" id="_155748936"/><path d="M14.9168263,9.78143152 L14.9168263,10.7213226 L13.0327378,10.7213226 L13.0327378,9.78143152 L14.9168263,9.78143152 L14.9168263,9.78143152 Z" fill="#F1453D" id="_155748864"/><path d="M12.9581691,9.78143152 L12.9581691,10.7213226 L11.0740806,10.7213226 L11.0740806,9.78143152 L12.9581691,9.78143152 L12.9581691,9.78143152 Z" fill="#F1453D" id="_155748792"/><path d="M8.11413207,5.9709714 L9.62506333,6.9207472 L6.60340999,6.9207472 L8.11413207,5.9709714 L8.11413207,5.9709714 Z M9.62485416,10.0406429 L8.11413207,10.9904187 L6.60351457,10.0406429 L9.62485416,10.0406429 L9.62485416,10.0406429 Z" fill="#F1453D" id="_155748648"/><path d="M10.0355572,9.02566994 L10.0355572,9.965561 L8.15146871,9.965561 L8.15146871,9.02566994 L10.0355572,9.02566994 L10.0355572,9.02566994 Z" fill="#FEE94E" id="_155748576"/><path d="M8.07690002,9.02566994 L8.07690002,9.965561 L6.19281152,9.965561 L6.19281152,9.02566994 L8.07690002,9.02566994 L8.07690002,9.02566994 Z" fill="#FEE94E" id="_155748504"/><path d="M11.217675,8.01080211 L11.217675,8.95069317 L9.33358652,8.95069317 L9.33358652,8.01080211 L11.217675,8.01080211 L11.217675,8.01080211 Z" fill="#FEE94E" id="_155748432"/><path d="M9.25901783,8.01080211 L9.25901783,8.95069317 L7.37492932,8.95069317 L7.37492932,8.01080211 L9.25901783,8.01080211 L9.25901783,8.01080211 Z" fill="#F1453D" id="_155748360"/><path d="M7.30036063,8.01080211 L7.30036063,8.95069317 L5.41627212,8.95069317 L5.41627212,8.01080211 L7.30036063,8.01080211 L7.30036063,8.01080211 Z" fill="#FEE94E" id="_155748288"/><path d="M10.0355572,6.99593428 L10.0355572,7.93572019 L8.15146871,7.93572019 L8.15146871,6.99593428 L10.0355572,6.99593428 L10.0355572,6.99593428 Z" fill="#FEE94E" id="_155748216"/><path d="M8.07690002,6.99593428 L8.07690002,7.93572019 L6.19281152,7.93572019 L6.19281152,6.99593428 L8.07690002,6.99593428 L8.07690002,6.99593428 Z" fill="#FEE94E" id="_155748144"/><path d="M17.8767748,5.9709714 L16.3658436,6.9207472 L19.3874969,6.9207472 L17.8767748,5.9709714 L17.8767748,5.9709714 Z M16.3660527,10.0406429 L17.8767748,10.9904187 L19.3872878,10.0406429 L16.3660527,10.0406429 L16.3660527,10.0406429 Z" fill="#F1453D" id="_155748000"/><path d="M15.9553497,9.02566994 L15.9553497,9.965561 L17.8393336,9.965561 L17.8393336,9.02566994 L15.9553497,9.02566994 L15.9553497,9.02566994 Z" fill="#FEE94E" id="_155747928"/><path d="M17.9139023,9.02566994 L17.9139023,9.965561 L19.7979908,9.965561 L19.7979908,9.02566994 L17.9139023,9.02566994 L17.9139023,9.02566994 Z" fill="#FEE94E" id="_155747856"/><path d="M14.7731273,8.01080211 L14.7731273,8.95069317 L16.6572158,8.95069317 L16.6572158,8.01080211 L14.7731273,8.01080211 L14.7731273,8.01080211 Z" fill="#FEE94E" id="_155747784"/><path d="M16.7318891,8.01080211 L16.7318891,8.95069317 L18.615873,8.95069317 L18.615873,8.01080211 L16.7318891,8.01080211 L16.7318891,8.01080211 Z" fill="#F1453D" id="_155747712"/><path d="M18.6905463,8.01080211 L18.6905463,8.95069317 L20.5745302,8.95069317 L20.5745302,8.01080211 L18.6905463,8.01080211 L18.6905463,8.01080211 Z" fill="#FEE94E" id="_155747640"/><path d="M15.9553497,6.99593428 L15.9553497,7.93572019 L17.8393336,7.93572019 L17.8393336,6.99593428 L15.9553497,6.99593428 L15.9553497,6.99593428 Z" fill="#FEE94E" id="_155747568"/><path d="M17.9139023,6.99593428 L17.9139023,7.93572019 L19.7979908,7.93572019 L19.7979908,6.99593428 L17.9139023,6.99593428 L17.9139023,6.99593428 Z" fill="#FEE94E" id="_155747496"/><path d="M12.9954012,8.20492148 L14.5062278,7.25504052 L11.4846791,7.25504052 L12.9954012,8.20492148 L12.9954012,8.20492148 Z M14.5061232,4.13524996 L12.9954012,3.185369 L11.4847837,4.13524996 L14.5061232,4.13524996 L14.5061232,4.13524996 Z" fill="#FEE94E" id="_155734872"/><path d="M14.9168263,5.15011778 L14.9168263,4.21033188 L13.0327378,4.21033188 L13.0327378,5.15011778 L14.9168263,5.15011778 L14.9168263,5.15011778 Z" fill="#F1453D" id="_155734800"/><path d="M12.9581691,5.15011778 L12.9581691,4.21033188 L11.0740806,4.21033188 L11.0740806,5.15011778 L12.9581691,5.15011778 L12.9581691,5.15011778 Z" fill="#F1453D" id="_155734728"/><path d="M15.8961549,6.16509077 L15.8961549,5.22519971 L14.0120664,5.22519971 L14.0120664,6.16509077 L15.8961549,6.16509077 L15.8961549,6.16509077 Z" fill="#F1453D" id="_155734656"/><path d="M13.9374977,6.16509077 L13.9374977,5.22519971 L12.0534092,5.22519971 L12.0534092,6.16509077 L13.9374977,6.16509077 L13.9374977,6.16509077 Z" fill="#F1453D" id="_155734584"/><path d="M11.9787359,6.16509077 L11.9787359,5.22519971 L10.094752,5.22519971 L10.094752,6.16509077 L11.9787359,6.16509077 L11.9787359,6.16509077 Z" fill="#F1453D" id="_155734512"/><path d="M14.9168263,7.1799586 L14.9168263,6.24006754 L13.0327378,6.24006754 L13.0327378,7.1799586 L14.9168263,7.1799586 L14.9168263,7.1799586 Z" fill="#F1453D" id="_155734440"/><path d="M12.9581691,7.1799586 L12.9581691,6.24006754 L11.0740806,6.24006754 L11.0740806,7.1799586 L12.9581691,7.1799586 L12.9581691,7.1799586 Z" fill="#F1453D" id="_155734368"/><path d="M6.24970544,6.01923835 C6.35711365,5.94752145 8.82415577,4.30223888 9.01240774,4.17678687 L6.24970544,4.17678687 L6.24970544,6.01923835 C6.24970544,6.01923835 6.24970544,5.89168321 6.24970544,6.01923835 L6.24970544,6.01923835 L6.24970544,6.01923835 Z" fill="#F1453D" id="_155734224"/><path d="M19.7412015,10.9421518 C19.6336887,11.0138687 17.1666466,12.6590461 16.9784992,12.7846033 L19.7412015,12.7846033 L19.7412015,10.9421518 C19.7412015,10.9421518 19.7412015,11.0696018 19.7412015,10.9421518 L19.7412015,10.9421518 L19.7412015,10.9421518 Z" fill="#F1453D" id="_155734080"/><path d="M19.7412015,6.0191332 C19.6336887,5.94752145 17.1666466,4.30223888 16.9784992,4.17668172 L19.7412015,4.17668172 L19.7412015,6.0191332 C19.7412015,6.0191332 19.7412015,5.89168321 19.7412015,6.0191332 L19.7412015,6.0191332 L19.7412015,6.0191332 Z" fill="#F1453D" id="_155733936"/><path d="M6.70182393,8.29977287 L6.0149134,8.29977287 L6.0149134,8.66172241 L6.70182393,8.66172241 L6.70182393,8.29977287 L6.70182393,8.29977287 Z" fill="#FFFFFF" id="_155733792"/><path d="M7.47836333,7.28479988 L6.79145279,7.28479988 L6.79145279,7.64674943 L7.47836333,7.64674943 L7.47836333,7.28479988 L7.47836333,7.28479988 Z" fill="#FFFFFF" id="_155733648"/><path d="M9.43702052,7.28479988 L8.75010999,7.28479988 L8.75010999,7.64674943 L9.43702052,7.64674943 L9.43702052,7.28479988 L9.43702052,7.28479988 Z" fill="#FFFFFF" id="_155733504"/><path d="M8.66048113,8.29977287 L7.9735706,8.29977287 L7.9735706,8.66172241 L8.66048113,8.66172241 L8.66048113,8.29977287 L8.66048113,8.29977287 Z" fill="#FFFFFF" id="_155733360"/><path d="M10.6191383,8.29977287 L9.9322278,8.29977287 L9.9322278,8.66172241 L10.6191383,8.66172241 L10.6191383,8.29977287 L10.6191383,8.29977287 Z" fill="#FFFFFF" id="_155733216"/><path d="M9.43702052,9.3146407 L8.75010999,9.3146407 L8.75010999,9.67659024 L9.43702052,9.67659024 L9.43702052,9.3146407 L9.43702052,9.3146407 Z" fill="#FFFFFF" id="_155733072"/><path d="M7.47836333,9.3146407 L6.79145279,9.3146407 L6.79145279,9.67659024 L7.47836333,9.67659024 L7.47836333,9.3146407 L7.47836333,9.3146407 Z" fill="#FFFFFF" id="_155732928"/><path d="M12.3596324,4.49919748 L11.6727219,4.49919748 L11.6727219,4.86114703 L12.3596324,4.86114703 L12.3596324,4.49919748 L12.3596324,4.49919748 Z" fill="#FFFFFF" id="_155727624"/><path d="M14.3182896,4.49919748 L13.6313791,4.49919748 L13.6313791,4.86114703 L14.3182896,4.86114703 L14.3182896,4.49919748 L14.3182896,4.49919748 Z" fill="#FFFFFF" id="_155727480"/><path d="M11.3801992,5.51417047 L10.6932887,5.51417047 L10.6932887,5.87612001 L11.3801992,5.87612001 L11.3801992,5.51417047 L11.3801992,5.51417047 Z" fill="#FFFFFF" id="_155727336"/><path d="M13.338961,5.51417047 L12.6520505,5.51417047 L12.6520505,5.87612001 L13.338961,5.87612001 L13.338961,5.51417047 L13.338961,5.51417047 Z" fill="#FFFFFF" id="_155727192"/><path d="M15.2976182,5.51417047 L14.6107077,5.51417047 L14.6107077,5.87612001 L15.2976182,5.87612001 L15.2976182,5.51417047 L15.2976182,5.51417047 Z" fill="#FFFFFF" id="_155727048"/><path d="M12.3596324,6.52903829 L11.6727219,6.52903829 L11.6727219,6.89098784 L12.3596324,6.89098784 L12.3596324,6.52903829 L12.3596324,6.52903829 Z" fill="#FFFFFF" id="_155726904"/><path d="M14.3182896,6.52903829 L13.6313791,6.52903829 L13.6313791,6.89098784 L14.3182896,6.89098784 L14.3182896,6.52903829 L14.3182896,6.52903829 Z" fill="#FFFFFF" id="_155726760"/><path d="M17.2407969,7.28479988 L16.5538864,7.28479988 L16.5538864,7.64674943 L17.2407969,7.64674943 L17.2407969,7.28479988 L17.2407969,7.28479988 Z" fill="#FFFFFF" id="_155714288"/><path d="M19.1994541,7.28479988 L18.5125436,7.28479988 L18.5125436,7.64674943 L19.1994541,7.64674943 L19.1994541,7.28479988 L19.1994541,7.28479988 Z" fill="#FFFFFF" id="_155714144"/><path d="M16.0586791,8.29977287 L15.3717686,8.29977287 L15.3717686,8.66172241 L16.0586791,8.66172241 L16.0586791,8.29977287 L16.0586791,8.29977287 Z" fill="#FFFFFF" id="_155714000"/><path d="M18.0173363,8.29977287 L17.3304258,8.29977287 L17.3304258,8.66172241 L18.0173363,8.66172241 L18.0173363,8.29977287 L18.0173363,8.29977287 Z" fill="#FFFFFF" id="_155713856"/><path d="M19.9759935,8.29977287 L19.289083,8.29977287 L19.289083,8.66172241 L19.9759935,8.66172241 L19.9759935,8.29977287 L19.9759935,8.29977287 Z" fill="#FFFFFF" id="_155713712"/><path d="M17.2407969,9.3146407 L16.5538864,9.3146407 L16.5538864,9.67659024 L17.2407969,9.67659024 L17.2407969,9.3146407 L17.2407969,9.3146407 Z" fill="#FFFFFF" id="_155713568"/><path d="M19.1994541,9.3146407 L18.5125436,9.3146407 L18.5125436,9.67659024 L19.1994541,9.67659024 L19.1994541,9.3146407 L19.1994541,9.3146407 Z" fill="#FFFFFF" id="_155713424"/><path d="M12.3596324,10.0704023 L11.6727219,10.0704023 L11.6727219,10.4323518 L12.3596324,10.4323518 L12.3596324,10.0704023 L12.3596324,10.0704023 Z" fill="#FFFFFF" id="_155708120"/><path d="M14.3182896,10.0704023 L13.6313791,10.0704023 L13.6313791,10.4323518 L14.3182896,10.4323518 L14.3182896,10.0704023 L14.3182896,10.0704023 Z" fill="#FFFFFF" id="_155707976"/><path d="M11.3801992,11.0852701 L10.6932887,11.0852701 L10.6932887,11.4472197 L11.3801992,11.4472197 L11.3801992,11.0852701 L11.3801992,11.0852701 Z" fill="#FFFFFF" id="_155707832"/><path d="M13.338961,11.0852701 L12.6520505,11.0852701 L12.6520505,11.4472197 L13.338961,11.4472197 L13.338961,11.0852701 L13.338961,11.0852701 Z" fill="#FFFFFF" id="_155707688"/><path d="M15.2976182,11.0852701 L14.6107077,11.0852701 L14.6107077,11.4472197 L15.2976182,11.4472197 L15.2976182,11.0852701 L15.2976182,11.0852701 Z" fill="#FFFFFF" id="_155707544"/><path d="M12.3596324,12.1001379 L11.6727219,12.1001379 L11.6727219,12.4620875 L12.3596324,12.4620875 L12.3596324,12.1001379 L12.3596324,12.1001379 Z" fill="#FFFFFF" id="_155707400"/><path d="M14.3182896,12.1001379 L13.6313791,12.1001379 L13.6313791,12.4620875 L14.3182896,12.4620875 L14.3182896,12.1001379 L14.3182896,12.1001379 Z" fill="#FFFFFF" id="_155698752"/></g></g><path d="M114.838237,35.3333454 C120.472314,41.0200705 123.952035,48.8448951 123.952035,57.4824527 C123.952035,74.8635099 109.861906,88.953639 92.4808488,88.953639 C81.0190329,88.953639 70.9883264,82.8263342 65.4856022,73.6685986 C71.1887801,79.4250715 79.0994888,82.9906774 87.8429898,82.9906774 C105.224047,82.9906774 119.314176,68.9005482 119.314176,51.519491 C119.314176,45.6002499 117.680016,40.0626875 114.838237,35.3333454 Z M81.4765719,66.8555866 L80.0231736,71.9817304 L77.8704983,67.1077479 L72.5461211,67.3095495 L76.5163407,63.7560902 L74.6790929,58.7546667 L79.2854988,61.4324906 L83.4743945,58.1396393 L82.3510903,63.3480847 L86.7772179,66.3144142 L81.4765719,66.8555866 Z M105.476572,47.8555866 L104.023174,52.9817304 L101.870498,48.1077479 L96.5461211,48.3095495 L100.516341,44.7560902 L98.6790929,39.7546667 L103.285499,42.4324906 L107.474394,39.1396393 L106.35109,44.3480847 L110.777218,47.3144142 L105.476572,47.8555866 Z M86.4765719,50.8555866 L85.0231736,55.9817304 L82.8704983,51.1077479 L77.5461211,51.3095495 L81.5163407,47.7560902 L79.6790929,42.7546667 L84.2854988,45.4324906 L88.4743945,42.1396393 L87.3510903,47.3480847 L91.7772179,50.3144142 L86.4765719,50.8555866 Z M91.4765719,34.8555866 L90.0231736,39.9817304 L87.8704983,35.1077479 L82.5461211,35.3095495 L86.5163407,31.7560902 L84.6790929,26.7546667 L89.2854988,29.4324906 L93.4743945,26.1396393 L92.3510903,31.3480847 L96.7772179,34.3144142 L91.4765719,34.8555866 Z M67.4765719,53.8555866 L66.0231736,58.9817304 L63.8704983,54.1077479 L58.5461211,54.3095495 L62.5163407,50.7560902 L60.6790929,45.7546667 L65.2854988,48.4324906 L69.4743945,45.1396393 L68.3510903,50.3480847 L72.7772179,53.3144142 L67.4765719,53.8555866 Z" fill="#FFFFFF" id="Oval-148"/></g></g></g></svg>