<?xml version="1.0" ?><svg height="180px" version="1.1" viewBox="0 0 180 180" width="180px" xmlns="http://www.w3.org/2000/svg" xmlns:sketch="http://www.bohemiancoding.com/sketch/ns" xmlns:xlink="http://www.w3.org/1999/xlink"><title/><desc/><defs/><g fill="none" fill-rule="evenodd" id="Page-1" stroke="none" stroke-width="1"><g id="Material" transform="translate(-180.000000, -180.000000)"><g id="Slice" transform="translate(180.000000, 180.000000)"/><g id="circle_tonga" transform="translate(180.000000, 180.000000)"><path d="M90,0 C139.70563,0 180,40.2943701 180,90 C180,139.70563 139.70563,180 90,180 C40.2943701,180 0,139.70563 0,90 L90,90 L90,0 Z" fill="#F1453D" id="Oval-15-copy-4"/><path d="M90,0 C40.2943701,0 0,40.2943701 0,90 L90,90 L90,0 Z" fill="#FFFFFF" id="Oval-15-copy-4"/><path d="M44.1666667,43.4166667 L44.1666667,24.25 L63.3333333,24.25 L63.3333333,43.4166667 L82.5,43.4166667 L82.5,62.5833333 L63.3333333,62.5833333 L63.3333333,81.75 L44.1666667,81.75 L44.1666667,62.5833333 L25,62.5833333 L25,43.4166667 L44.1666667,43.4166667 L44.1666667,43.4166667 L44.1666667,43.4166667 L44.1666667,43.4166667 Z" fill="#F1453D" id="Rectangle-321"/></g></g></g></svg>