<?xml version="1.0" ?><svg height="180px" version="1.1" viewBox="0 0 180 180" width="180px" xmlns="http://www.w3.org/2000/svg" xmlns:sketch="http://www.bohemiancoding.com/sketch/ns" xmlns:xlink="http://www.w3.org/1999/xlink"><title/><desc/><defs/><g fill="none" fill-rule="evenodd" id="Page-1" stroke="none" stroke-width="1"><g id="Material" transform="translate(-180.000000, -180.000000)"><g id="Slice" transform="translate(180.000000, 180.000000)"/><g id="circle_tuvalu" transform="translate(180.000000, 180.000000)"><path d="M90,180 C139.70563,180 180,139.70563 180,90 C180,40.2943701 139.70563,0 90,0 C40.2943701,0 0,40.2943701 0,90 C0,139.70563 40.2943701,180 90,180 Z" fill="#1FBCD2" id="Oval-15-copy-4"/><path d="M158.456804,35.9230769 L160.140486,41.7294764 L165.956804,41.7294764 L161.364762,45.2781449 L163.048645,50.9230769 L158.456804,47.3746094 L153.864963,50.7616094 L155.548645,45.2781449 L150.956804,41.7294764 L156.619987,41.7294764 L158.456804,35.9230769 L158.456804,35.9230769 Z M145.44979,66.0349777 L149.562548,61.9222197 L148.824772,67.6785708 L154.007026,70.4794559 L148.250959,71.2172323 L147.399008,76.8591249 L144.712156,71.7911871 L138.955947,72.5288214 L142.960422,68.5243462 L140.153503,63.1197761 L145.44979,66.0349777 Z M118.153503,77.1197761 L123.44979,80.0349777 L127.562548,75.9222197 L126.824772,81.6785708 L132.007026,84.4794559 L126.250959,85.2172323 L125.399008,90.8591249 L122.712156,85.7911871 L116.955947,86.5288214 L120.960422,82.5243462 L118.153503,77.1197761 L118.153503,77.1197761 Z M153.153503,89.1197761 L158.44979,92.0349777 L162.562548,87.9222197 L161.824772,93.6785708 L167.007026,96.4794559 L161.250959,97.2172323 L160.399008,102.859125 L157.712156,97.7911871 L151.955947,98.5288214 L155.960422,94.5243462 L153.153503,89.1197761 L153.153503,89.1197761 Z M138.44979,105.034978 L142.562548,100.92222 L141.824772,106.678571 L147.007026,109.479456 L141.250959,110.217232 L140.399008,115.859125 L137.712156,110.791187 L131.955947,111.528821 L135.960422,107.524346 L133.153503,102.119776 L138.44979,105.034978 Z M118.153503,128.119776 L123.44979,131.034978 L127.562548,126.92222 L126.824772,132.678571 L132.007026,135.479456 L126.250959,136.217232 L125.399008,141.859125 L122.712156,136.791187 L116.955947,137.528821 L120.960422,133.524346 L118.153503,128.119776 L118.153503,128.119776 Z M96.1535029,106.119776 L101.44979,109.034978 L105.562548,104.92222 L104.824772,110.678571 L110.007026,113.479456 L104.250959,114.217232 L103.399008,119.859125 L100.712156,114.791187 L94.9559465,115.528821 L98.9604217,111.524346 L96.1535029,106.119776 L96.1535029,106.119776 Z M85.1535029,137.119776 L90.4497902,140.034978 L94.5625482,135.92222 L93.8247722,141.678571 L99.0070265,144.479456 L93.2509592,145.217232 L92.399008,150.859125 L89.7121559,145.791187 L83.9559465,146.528821 L87.9604217,142.524346 L85.1535029,137.119776 L85.1535029,137.119776 Z M67.4568038,145.923077 L69.1404856,151.729476 L74.9568038,151.729476 L70.3647624,155.278145 L72.0486447,160.923077 L67.4568038,157.374609 L62.8649629,160.761609 L64.5486447,155.278145 L59.9568038,151.729476 L65.6199869,151.729476 L67.4568038,145.923077 L67.4568038,145.923077 Z" fill="#FEE94E" id="Star7"/><path d="M0.0490579464,93 L94,93 L94,0.0872986002 C92.67394,0.0293019687 91.3403919,0 90,0 C40.2943701,0 0,40.2943701 0,90 C0,91.0039293 0.0164376398,92.0040194 0.0490584628,93.0000158 L0.0490579464,93 Z" fill="#2B98F0" id="rect962-copy"/><g id="UK"><path d="M16,64.3976504 L73.204828,93 L94,93 L94,82.602228 L52.9411738,62 L94,62 L94,31 L51.995613,31 L94,10.3974 L94,0.0872986002 L94.0000386,0.0873002869 C92.67394,0.0293019687 91.3403919,0 90,0 C82.2561892,0 74.7408046,0.978008608 67.5706263,2.81724582 L33.78699,19.7099388 C26.594709,25.4692967 20.3055338,32.3096356 15.1657583,39.9846619 C5.5867087,54.2886829 0,71.4919182 0,90 C0,91.0039293 0.0164376398,92.0040194 0.0490584628,93.0000158 L16,93 L16,64.3976504 L16,64.3976504 Z" fill="#FFFFFF" id="Oval-15-copy-5"/><path d="M8.69680358,51.353233 C11.1077906,46.2901553 13.977792,41.4878069 17.2529958,37 L94,37 L94,56 L11,55.9999987 L11,93 L0.0490584628,93.0000158 C0.0164376398,92.0040194 0,91.0039293 0,90 C0,76.1669484 3.12082343,63.0628047 8.69680372,51.3532333 L8.69680358,51.353233 L8.69680358,51.353233 Z M93.8389177,0.0803962802 C92.565936,0.0269770907 91.2861184,0 90,0 C86.1745509,0 82.4048463,0.238670122 78.7049644,0.701932021 L25.4542081,27.2795777 C24.2803472,28.4873857 23.1400934,29.7280296 22.034956,31 L31.8882776,31 L93.8389177,0.0803962802 L93.8389177,0.0803962802 Z M94,93 L32,62 L45.8636683,62 L94,86.0681243 L94,93 L94,93 Z" fill="#F1453D" id="Oval-15-copy-5"/></g></g></g></g></svg>