<?xml version="1.0" ?><svg height="180px" version="1.1" viewBox="0 0 180 180" width="180px" xmlns="http://www.w3.org/2000/svg" xmlns:sketch="http://www.bohemiancoding.com/sketch/ns" xmlns:xlink="http://www.w3.org/1999/xlink"><title/><desc/><defs/><g fill="none" fill-rule="evenodd" id="Page-1" stroke="none" stroke-width="1"><g id="Material" transform="translate(-180.000000, -180.000000)"><g id="Slice" transform="translate(180.000000, 180.000000)"/><g id="circle_tanzania" transform="translate(270.000000, 272.000000) scale(-1, 1) translate(-270.000000, -272.000000) translate(180.000000, 182.000000)"><path d="M171.090431,129.090431 L50.9095686,8.90956858 C62.731415,3.20027277 75.9919754,0 90,0 C139.70563,0 180,40.2943701 180,90 C180,104.008025 176.799727,117.268585 171.090431,129.090431 Z" fill="#4EAB53" id="Path-158"/><path d="M129.090431,171.090431 L8.90956858,50.9095686 C3.20027277,62.731415 0,75.9919754 0,90 C0,139.70563 40.2943701,180 90,180 C104.008025,180 117.268585,176.799727 129.090431,171.090431 Z" fill="#2B98F0" id="Path-158"/><path d="M8.90956858,50.9095686 L129.090431,171.090431 C147.395003,162.250339 162.250339,147.395003 171.090431,129.090431 L50.9095686,8.90956858 C32.6049966,17.7496611 17.7496611,32.6049966 8.90956858,50.9095686 Z" fill="#FEE94E" id="Path-160"/><path d="M166.088986,138.088986 L41.9110142,13.9110142 C30.4294505,21.182692 20.7069022,30.9814812 13.5253755,42.5253755 L137.474624,166.474624 C149.018519,159.293098 158.817308,149.570549 166.088986,138.088986 Z" fill="#262626" id="Path-160"/></g></g></g></svg>