<?xml version="1.0" ?><svg height="180px" version="1.1" viewBox="0 0 180 180" width="180px" xmlns="http://www.w3.org/2000/svg" xmlns:sketch="http://www.bohemiancoding.com/sketch/ns" xmlns:xlink="http://www.w3.org/1999/xlink"><title/><desc/><defs/><g fill="none" fill-rule="evenodd" id="Page-1" stroke="none" stroke-width="1"><g id="Material" transform="translate(-180.000000, -180.000000)"><g id="Slice" transform="translate(180.000000, 180.000000)"/><g id="circle_united_states" transform="translate(180.000000, 180.000000)"><circle cx="90" cy="90" fill="#FFFFFF" id="Oval-1-copy" r="90"/><path d="M90,41.9999979 L166.145271,42 L166.145268,41.9999957 C162.97137,36.9756079 159.313914,32.2871499 155.238277,27.9999987 L155.238284,28 L90,27.9999994 L90,41.9999979 L90,41.9999979 L90,41.9999979 L90,41.9999979 Z M90,0 C107.744061,0 124.288782,5.13498604 138.229203,14 L138.229203,14 L90,14 L90,0 L90,0 L90,0 L90,0 Z M90,70 L177.769836,70 C176.674889,65.1745748 175.192214,60.496413 173.356297,56 L173.356297,56 L90,56 L90,70 L90,70 L90,70 L90,70 Z M0,90 C0,92.6959963 0.11854187,95.3643056 0.350697708,98 L179.649302,98 C179.881458,95.3643056 180,92.6959963 180,90 C180,87.9838287 179.933704,85.9831417 179.803173,84 L179.803173,84 L90,84 L90,90 L0,90 L0,90 L0,90 L0,90 Z M177.29176,112 C176.077354,116.83376 174.471981,121.512284 172.511214,126 L172.511214,126 L7.48878552,126 C5.52801935,121.512284 3.92264595,116.83376 2.70824012,112 L177.29176,112 L177.29176,112 L177.29176,112 L177.29176,112 Z M164.844511,140 C161.463169,145.051463 157.583996,149.741526 153.277183,154 L153.277183,154 L26.7228172,154 C22.4160038,149.741526 18.536831,145.051463 15.155489,140 L164.844511,140 L164.844511,140 L164.844511,140 L164.844511,140 Z M134.930091,168.000002 C121.708101,175.63267 106.364073,180 90,180 C73.635927,180 58.2918993,175.63267 45.0699089,168.000002 L134.930094,168 L134.930091,168.000002 L134.930091,168.000002 L134.930091,168.000002 L134.930091,168.000002 Z" fill="#F1453D" id="red"/><path d="M90,0 C40.2943701,0 2.68414424e-14,40.2943701 0,90 L90,90 L90,0 L90,0 L90,0 L90,0 Z" fill="#2B98F0" id="Oval-38-copy-3"/><g fill="#FFFFFF" id="stars" transform="translate(7.000000, 9.000000)"><path d="M27.4143487,25.4626163 L24.6861315,26.9999999 L25.2071745,23.7437694 L23,21.4376941 L26.0502405,20.962616 L27.4143489,18 L28.7784581,20.9626168 L31.8286984,21.4376965 L29.621523,23.74377 L30.1425661,27 L27.4143487,25.4626163 Z" id="Star-1"/><path d="M27.4143487,41.4626163 L24.6861315,42.9999999 L25.2071745,39.7437694 L23,37.4376941 L26.0502405,36.962616 L27.4143489,34 L28.7784581,36.9626168 L31.8286984,37.4376965 L29.621523,39.74377 L30.1425661,43 L27.4143487,41.4626163 Z" id="Star-1"/><path d="M16.4143487,35.4626163 L13.6861315,36.9999999 L14.2071745,33.7437694 L12,31.4376941 L15.0502405,30.962616 L16.4143489,28 L17.7784581,30.9626168 L20.8286984,31.4376965 L18.621523,33.74377 L19.1425661,37 L16.4143487,35.4626163 Z" id="Star-1"/><path d="M15.4143487,50.4626163 L12.6861315,51.9999999 L13.2071745,48.7437694 L11,46.4376941 L14.0502405,45.962616 L15.4143489,43 L16.7784581,45.9626168 L19.8286984,46.4376965 L17.621523,48.74377 L18.1425661,52 L15.4143487,50.4626163 Z" id="Star-1"/><path d="M25.4143487,60.4626163 L22.6861315,61.9999999 L23.2071745,58.7437694 L21,56.4376941 L24.0502405,55.962616 L25.4143489,53 L26.7784581,55.9626168 L29.8286984,56.4376965 L27.621523,58.74377 L28.1425661,62 L25.4143487,60.4626163 Z" id="Star-1"/><path d="M15.4143487,66.4626163 L12.6861315,67.9999999 L13.2071745,64.7437694 L11,62.4376941 L14.0502405,61.962616 L15.4143489,59 L16.7784581,61.9626168 L19.8286984,62.4376965 L17.621523,64.74377 L18.1425661,68 L15.4143487,66.4626163 Z" id="Star-1"/><path d="M4.41434873,58.4626163 L1.68613145,59.9999999 L2.20717446,56.7437694 L0,54.4376941 L3.05024047,53.962616 L4.41434888,51 L5.77845813,53.9626168 L8.82869837,54.4376965 L6.62152301,56.74377 L7.14256611,60 L4.41434873,58.4626163 Z" id="Star-1"/><path d="M4.41434873,74.4626163 L1.68613145,75.9999999 L2.20717446,72.7437694 L0,70.4376941 L3.05024047,69.962616 L4.41434888,67 L5.77845813,69.9626168 L8.82869837,70.4376965 L6.62152301,72.74377 L7.14256611,76 L4.41434873,74.4626163 Z" id="Star-1"/><path d="M27.4143487,74.4626163 L24.6861315,75.9999999 L25.2071745,72.7437694 L23,70.4376941 L26.0502405,69.962616 L27.4143489,67 L28.7784581,69.9626168 L31.8286984,70.4376965 L29.621523,72.74377 L30.1425661,76 L27.4143487,74.4626163 Z" id="Star-1"/><path d="M73.4143487,7.46261626 L70.6861315,8.99999993 L71.2071745,5.74376935 L69,3.43769412 L72.0502405,2.96261604 L73.4143489,0 L74.7784581,2.96261677 L77.8286984,3.43769649 L75.621523,5.74376997 L76.1425661,9 L73.4143487,7.46261626 Z" id="Star-1"/><path d="M73.4143487,23.4626163 L70.6861315,24.9999999 L71.2071745,21.7437694 L69,19.4376941 L72.0502405,18.962616 L73.4143489,16 L74.7784581,18.9626168 L77.8286984,19.4376965 L75.621523,21.74377 L76.1425661,25 L73.4143487,23.4626163 Z" id="Star-1"/><path d="M73.4143487,39.4626163 L70.6861315,40.9999999 L71.2071745,37.7437694 L69,35.4376941 L72.0502405,34.962616 L73.4143489,32 L74.7784581,34.9626168 L77.8286984,35.4376965 L75.621523,37.74377 L76.1425661,41 L73.4143487,39.4626163 Z" id="Star-1"/><path d="M73.4143487,55.4626163 L70.6861315,56.9999999 L71.2071745,53.7437694 L69,51.4376941 L72.0502405,50.962616 L73.4143489,48 L74.7784581,50.9626168 L77.8286984,51.4376965 L75.621523,53.74377 L76.1425661,57 L73.4143487,55.4626163 Z" id="Star-1"/><path d="M61.4143487,16.4626163 L58.6861315,17.9999999 L59.2071745,14.7437694 L57,12.4376941 L60.0502405,11.962616 L61.4143489,9 L62.7784581,11.9626168 L65.8286984,12.4376965 L63.621523,14.74377 L64.1425661,18 L61.4143487,16.4626163 Z" id="Star-1"/><path d="M61.4143487,32.4626163 L58.6861315,33.9999999 L59.2071745,30.7437694 L57,28.4376941 L60.0502405,27.962616 L61.4143489,25 L62.7784581,27.9626168 L65.8286984,28.4376965 L63.621523,30.74377 L64.1425661,34 L61.4143487,32.4626163 Z" id="Star-1"/><path d="M61.4143487,48.4626163 L58.6861315,49.9999999 L59.2071745,46.7437694 L57,44.4376941 L60.0502405,43.962616 L61.4143489,41 L62.7784581,43.9626168 L65.8286984,44.4376965 L63.621523,46.74377 L64.1425661,50 L61.4143487,48.4626163 Z" id="Star-1"/><path d="M61.4143487,64.4626163 L58.6861315,65.9999999 L59.2071745,62.7437694 L57,60.4376941 L60.0502405,59.962616 L61.4143489,57 L62.7784581,59.9626168 L65.8286984,60.4376965 L63.621523,62.74377 L64.1425661,66 L61.4143487,64.4626163 Z" id="Star-1"/><path d="M73.4143487,72.4626163 L70.6861315,73.9999999 L71.2071745,70.7437694 L69,68.4376941 L72.0502405,67.962616 L73.4143489,65 L74.7784581,67.9626168 L77.8286984,68.4376965 L75.621523,70.74377 L76.1425661,74 L73.4143487,72.4626163 Z" id="Star-1"/><path d="M51.4143487,9.46261626 L48.6861315,10.9999999 L49.2071745,7.74376935 L47,5.43769412 L50.0502405,4.96261604 L51.4143489,2 L52.7784581,4.96261677 L55.8286984,5.43769649 L53.621523,7.74376997 L54.1425661,11 L51.4143487,9.46261626 Z" id="Star-1"/><path d="M51.4143487,25.4626163 L48.6861315,26.9999999 L49.2071745,23.7437694 L47,21.4376941 L50.0502405,20.962616 L51.4143489,18 L52.7784581,20.9626168 L55.8286984,21.4376965 L53.621523,23.74377 L54.1425661,27 L51.4143487,25.4626163 Z" id="Star-1"/><path d="M51.4143487,41.4626163 L48.6861315,42.9999999 L49.2071745,39.7437694 L47,37.4376941 L50.0502405,36.962616 L51.4143489,34 L52.7784581,36.9626168 L55.8286984,37.4376965 L53.621523,39.74377 L54.1425661,43 L51.4143487,41.4626163 Z" id="Star-1"/><path d="M51.4143487,57.4626163 L48.6861315,58.9999999 L49.2071745,55.7437694 L47,53.4376941 L50.0502405,52.962616 L51.4143489,50 L52.7784581,52.9626168 L55.8286984,53.4376965 L53.621523,55.74377 L54.1425661,59 L51.4143487,57.4626163 Z" id="Star-1"/><path d="M39.4143487,18.4626163 L36.6861315,19.9999999 L37.2071745,16.7437694 L35,14.4376941 L38.0502405,13.962616 L39.4143489,11 L40.7784581,13.9626168 L43.8286984,14.4376965 L41.621523,16.74377 L42.1425661,20 L39.4143487,18.4626163 Z" id="Star-1"/><path d="M39.4143487,34.4626163 L36.6861315,35.9999999 L37.2071745,32.7437694 L35,30.4376941 L38.0502405,29.962616 L39.4143489,27 L40.7784581,29.9626168 L43.8286984,30.4376965 L41.621523,32.74377 L42.1425661,36 L39.4143487,34.4626163 Z" id="Star-1"/><path d="M39.4143487,50.4626163 L36.6861315,51.9999999 L37.2071745,48.7437694 L35,46.4376941 L38.0502405,45.962616 L39.4143489,43 L40.7784581,45.9626168 L43.8286984,46.4376965 L41.621523,48.74377 L42.1425661,52 L39.4143487,50.4626163 Z" id="Star-1"/><path d="M39.4143487,66.4626163 L36.6861315,67.9999999 L37.2071745,64.7437694 L35,62.4376941 L38.0502405,61.962616 L39.4143489,59 L40.7784581,61.9626168 L43.8286984,62.4376965 L41.621523,64.74377 L42.1425661,68 L39.4143487,66.4626163 Z" id="Star-1"/><path d="M51.4143487,74.4626163 L48.6861315,75.9999999 L49.2071745,72.7437694 L47,70.4376941 L50.0502405,69.962616 L51.4143489,67 L52.7784581,69.9626168 L55.8286984,70.4376965 L53.621523,72.74377 L54.1425661,76 L51.4143487,74.4626163 Z" id="Star-1"/></g></g></g></g></svg>