<?xml version="1.0" ?><svg height="180px" version="1.1" viewBox="0 0 180 180" width="180px" xmlns="http://www.w3.org/2000/svg" xmlns:sketch="http://www.bohemiancoding.com/sketch/ns" xmlns:xlink="http://www.w3.org/1999/xlink"><title/><desc/><defs><path d="M164.844511,40 L90,40 L90,20 L146.573345,20 C153.620242,25.7023413 159.788834,32.4472114 164.844511,40 Z M179.450712,80 L90,80 L90,60 L174.878833,60 C177.129668,66.3682094 178.684129,73.0653755 179.450712,80 Z M5.12116698,120 L174.878833,120 C177.129668,113.631791 178.684129,106.934625 179.450712,100 L0.549287698,100 C1.31587144,106.934625 2.87033179,113.631791 5.12117078,120 Z M33.4266546,160 L146.573345,160 C153.620242,154.297659 159.788834,147.552789 164.844511,140 L15.155489,140 C20.2111656,147.552789 26.3797576,154.297659 33.4266546,160 Z" id="path-1"/></defs><g fill="none" fill-rule="evenodd" id="Page-1" stroke="none" stroke-width="1"><g id="Material" transform="translate(-180.000000, -180.000000)"><g id="Slice" transform="translate(180.000000, 180.000000)"/><g id="circle_uruguay" transform="translate(180.000000, 180.000000)"><circle cx="90" cy="90" fill="#FFFFFF" id="Oval-1-copy" r="90"/><g id="Rectangle"><use fill="#2B98F0" fill-rule="evenodd" xlink:href="#path-1"/><use fill="none" xlink:href="#path-1"/></g><g id="uruquay" transform="translate(14.000000, 23.000000)"><path d="M31.5516192,30.6042527 L35.4211559,31.6552977 C34.8145417,16.6548514 24.7610705,12.3878901 23.8762876,5.21933503 C23.8762876,5.21933503 24.1657389,7.04791017 26.1100519,10.2364519 C28.127227,13.5444826 30.6721788,16.6407642 32.0572531,18.9250912 C34.6643522,23.2248369 35.6090838,31.5716268 35.6090838,31.5716268 L38.4503695,30.3066049 C38.3555135,29.6306551 38.2526092,28.9788346 38.1422435,28.349966 L38.1422435,28.349966 L40.1775825,31.9033032 C50.3555588,20.8674449 46.2638784,10.74137 50.7071763,5.0468001 C50.7071763,5.0468001 49.6188514,6.54447098 48.7390488,10.1739473 C47.8262761,13.9394365 47.4364271,17.9283909 46.8005593,20.5230494 C45.6036775,25.4069263 40.3696318,31.9770241 40.3696318,31.9770241 L43.2732298,33.0916109 C56.0864285,16.0952376 46.7741321,10.1561949 53.171814,2.61468158 C43.3254956,7.2806005 51.1516562,13.1811781 37.6387629,25.8505438 C33.8953224,9.52214646 24.6459981,10.8565906 23.8992821,1.75680545 C20.2383773,12.0123698 29.9308512,10.6585386 29.3470512,29.1373718 C15.1686793,20.2577874 9.57397786,27.7319565 2.61468158,21.828186 C7.34888218,31.8185967 13.3541422,23.615501 26.4111254,37.9683175 L31.9033032,34.8224175 C20.8674449,24.6444412 10.74137,28.7361216 5.0468001,24.2928237 C5.0468001,24.2928237 6.54447098,25.3811486 10.1739473,26.2609512 C13.9394365,27.1737239 17.9283909,27.5635729 20.5230494,28.1994407 C25.4069263,29.3963225 31.9770241,34.6303682 31.9770241,34.6303682 L33.0916109,31.7267702 C32.5679057,31.3319601 32.0546986,30.9581566 31.5516192,30.6042527 Z M30.6042527,44.4483808 C30.9581566,43.9453014 31.3319601,43.4320943 31.7267702,42.9083891 L34.6303682,44.0229759 C34.6303682,44.0229759 29.3963225,50.5930737 28.1994407,55.4769506 C27.5635729,58.0716091 27.1737239,62.0605635 26.2609512,65.8260527 C25.3811486,69.455529 24.2928237,70.9531999 24.2928237,70.9531999 C28.7361216,65.25863 24.6444412,55.1325551 34.8224175,44.0966968 L37.9683175,49.5888746 C23.615501,62.6458578 31.8185967,68.6511178 21.828186,73.3853184 C27.7319565,66.4260221 20.2577874,60.8313207 29.1373718,46.6529488 C10.6585386,46.0691488 12.0123698,55.7616227 1.75680545,52.1007179 C11.613305,51.291907 9.22805442,40.5075816 30.3066049,37.5496305 L31.5716268,40.3909162 C31.5716268,40.3909162 23.2248369,41.3356478 18.9250912,43.9427469 C16.6407642,45.3278212 13.5444826,47.872773 10.2364519,49.8899481 C7.04791017,51.8342611 5.21933503,52.1237124 5.21933503,52.1237124 C12.3878901,51.2389295 16.6548514,41.1854583 31.6552977,40.5788441 L30.6042527,44.4483808 L30.6042527,44.4483808 Z M47.650034,38.1422435 C47.0211654,38.2526092 46.3693449,38.3555135 45.6933951,38.4503695 L44.4283732,35.6090838 C44.4283732,35.6090838 52.7751631,34.6643522 57.0749088,32.0572531 C59.3592358,30.6721788 62.4555174,28.127227 65.7635481,26.1100519 C68.9520898,24.1657389 70.780665,23.8762876 70.780665,23.8762876 C63.6121099,24.7610705 59.3451486,34.8145417 44.3447023,35.4211559 L46.0037713,29.3131124 C65.3854266,30.229405 63.831322,20.1825803 74.2431945,23.8992821 C65.1434094,24.6459981 66.4778535,33.8953224 50.1494562,37.6387629 C62.8188219,51.1516562 68.7193995,43.3254956 73.3853184,53.171814 C65.8438051,46.7741321 59.9047624,56.0864285 42.9083891,43.2732298 L44.0229759,40.3696318 C44.0229759,40.3696318 50.5930737,45.6036775 55.4769506,46.8005593 C58.0716091,47.4364271 62.0605635,47.8262761 65.8260527,48.7390488 C69.455529,49.6188514 70.9531999,50.7071763 70.9531999,50.7071763 C65.25863,46.2638784 55.1325551,50.3555588 44.0966968,40.1775825 L47.650034,38.1422435 L47.650034,38.1422435 Z M37.5496305,45.6933951 C40.5075816,66.7719456 51.291907,64.386695 52.1007179,74.2431945 C55.8174197,63.831322 45.770595,65.3854266 46.6868876,46.0037713 L40.5788441,44.3447023 C41.1854583,59.3451486 51.2389295,63.6121099 52.1237124,70.780665 C52.1237124,70.780665 51.8342611,68.9520898 49.8899481,65.7635481 C47.872773,62.4555174 45.3278212,59.3592358 43.9427469,57.0749088 C41.3356478,52.7751631 40.3909162,44.4283732 40.3909162,44.4283732 L37.5496305,45.6933951 Z" fill="#FEE94E" id="Shape" stroke="#000000" stroke-width="0.5"/><path d="M39.5,48 L44,48 L39.5,75 L35,48 L39.5,48 L39.5,75 M30.9277633,44.0722367 L34,47.1444734 L12,63 L27.8555266,41 L30.9277633,44.0722367 L12,63 M28,38.5 L28,43 L1,38.5 L28,34 L28,38.5 L1,38.5 M30.9277633,29.9277635 L27.8555266,33 L12,11 L34,26.8555268 L30.9277633,29.9277635 L12,11 M39.5,27 L35,27 L39.5,0 L44,27 L39.5,27 L39.5,0 M45.0722365,29.9277635 L42,26.8555268 L64,11 L48.1444732,33 L45.0722365,29.9277635 L64,11 M49,38.5 L49,34 L76,38.5 L49,43 L49,38.5 L76,38.5 M45.0722365,44.0722367 L48.1444732,41 L64,63 L42,47.1444734 L45.0722365,44.0722367 L64,63" fill="#FEE94E" id="Shape" stroke="#000000" stroke-width="0.5"/><path d="M38.5,50 C45.4035597,50 51,44.4035597 51,37.5 C51,30.5964403 45.4035597,25 38.5,25 C31.5964403,25 26,30.5964403 26,37.5 C26,44.4035597 31.5964403,50 38.5,50 Z" fill="#FEE94E" id="Oval" stroke="#000000" stroke-width="0.5"/><path d="M38.5,40.7474314 C38.4646136,40.7500853 38.4280604,40.7514795 38.3902015,40.7514795 L38.3902015,40.7347435 C37.77414,40.6378719 37.5120215,40.1533318 36.705433,40.1533318 C35.809261,40.1533318 34.5770245,40.5122204 34.016917,40.9907386 C33.9048955,41.1103682 34.3529815,40.0337023 35.2491535,39.9140727 C36.1453255,39.7944432 35.809261,38.2392591 36.8174545,38 C36.8174545,38.4785182 36.48139,38.3588886 36.3693685,39.0766659 C36.3693685,39.6748136 37.377562,39.6748136 37.601605,39.0766659 C37.3920508,39.9718112 37.9665064,40.0296998 38.5000001,40.0334434 C39.0334937,40.0296998 39.6079492,39.9718111 39.398395,39.0766659 C39.622438,39.6748136 40.6306315,39.6748136 40.6306315,39.0766659 C40.51861,38.3588886 40.1825455,38.4785182 40.1825455,38 C41.190739,38.2392591 40.8546745,39.7944432 41.7508465,39.9140727 C42.6470185,40.0337023 43.0951046,41.1103682 42.983083,40.9907386 C42.4229755,40.5122204 41.190739,40.1533318 40.294567,40.1533318 C39.4879785,40.1533318 39.22586,40.6378719 38.6097985,40.7347435 L38.6097985,40.7514795 C38.5719396,40.7514795 38.5353864,40.7500853 38.5,40.7474314 L38.5,40.7474314 L38.5,40.7474314 Z M35,43.2295859 C35.594138,43.1759806 36.4318845,43 38.4921873,43 L38.5,43 L38.5078127,43 C40.5681155,43 41.405862,43.1759806 42,43.2295859 C40.9931701,43.6125732 40.1624551,44 38.5078127,44 L38.5,44 L38.4921873,44 C36.8375449,44 36.0068299,43.6125732 35,43.2295859 L35,43.2295859 Z M38.4637956,44.9864357 L38.4720651,45 C41.2455096,45 40.8478601,44.4394928 44.3926716,42.8764981 C44.6510931,43.2327038 44.7035065,43.3142254 45,43.8461539 C44.8874493,43.0384615 44.6623481,42.6923077 43.7619433,42 C44.0460949,42.4005464 44.2293643,42.6517048 44.3612749,42.8332577 C44.1995856,42.8564121 44.0457504,42.8816564 43.8987161,42.9086309 L43.8987161,42.9086309 C42.6622746,42.8972988 41.0299447,42 40.2728747,42 C39.3724699,42 39.1473687,42.2307692 38.4720651,42.2307692 L38.4637956,42.2443336 L38.4555261,42.2307692 C37.7802225,42.2307692 37.5551213,42 36.6547165,42 C35.8976465,42 34.2653167,42.8972988 33.0288752,42.9086309 C32.901817,42.8853212 32.7696803,42.8633034 32.6317855,42.8428098 C32.7641954,42.6605274 32.9488879,42.4076187 33.2380566,42 C32.3376518,42.6923077 32.1125506,43.0384615 32,43.8461539 C32.2896492,43.3265044 32.3463569,43.2367075 32.5897559,42.9007358 C36.0756918,44.4452916 35.6964656,45 38.4555261,45 L38.4637956,44.9864357 L38.4637956,44.9864357 Z M32.9478609,34.523747 C32.419981,34.1480396 32.116554,33.1241006 32.689449,32.5786177 L32.6894481,32.5786178 C31.2819361,32.7377591 30.6857547,33.6666667 30,33.6666667 C30.6428571,33.3333333 31.3928571,32 33.1071429,32 C34.8214286,32 35.8928571,32.2222222 36,33.5555556 L36,33.6666667 C35.5547198,33.2468739 35.2776724,32.9856845 35.0128455,32.8231759 C35.1082251,33.4725704 34.4624692,34.2127352 33.8638023,34.5205227 C34.8186225,34.3142441 35.2925883,33.2873171 35.679313,33.8888889 C36.0007416,34.3333333 34.3935987,35 33.2150273,35 C32.0364558,35 30.2150273,33.1111111 30.9650273,33.6666667 C31.5799059,34.1221323 32.1227701,34.4282347 32.9478609,34.523747 L32.9478609,34.523747 L32.9478609,34.523747 Z M44.3651482,34.4751622 C44.8391772,34.0780123 45.0954609,33.1574675 44.6065382,32.6251885 L44.6065382,32.6251885 C45.8056961,32.8685898 46.3643693,33.6666667 47,33.6666667 C46.3571429,33.3333333 45.6071429,32 43.8928571,32 C42.1785714,32 41.1071429,32.2222222 41,33.5555556 L41,33.6666667 C41.6022459,33.0988927 41.8967463,32.8212493 42.2694953,32.6854807 C42.0411703,33.3900318 42.7984969,34.2529952 43.4584217,34.5555445 C42.283936,34.5511343 41.7492886,33.2233289 41.3214286,33.8888889 C41,34.3333333 42.6071429,35 43.7857143,35 C44.9642857,35 46.7857143,33.1111111 46.0357143,33.6666667 C45.501856,34.0621173 45.0222842,34.3449735 44.3651482,34.4751622 L44.3651482,34.4751622 L44.3651482,34.4751622 Z M47,31.4309359 C46.294256,32.1426336 45.8909737,30.8971625 43.3704594,30.8971625 C40.8499452,30.8971625 40.4466629,32.2315959 40.0433806,31.9647092 C39.6400983,31.6978225 42.1606126,30.0965025 42.9671772,30.0075403 C43.7737418,29.9185781 46.0926149,30.6302759 47,31.4309359 L47,31.4309359 Z M33.6295405,30.8971625 C36.1500548,30.8971625 36.5533371,32.2315959 36.9566194,31.9647092 C37.3599017,31.6978225 34.8393874,30.0965025 34.0328228,30.0075403 C33.2262583,29.9185781 30.9073851,30.6302759 30,31.4309359 C30.705744,32.1426336 31.1090263,30.8971625 33.6295405,30.8971625 Z M39,46 C38.4583496,46 37.0500585,46.3489426 39,46.3489426 C40.9499415,46.3489426 39.5416504,46 39,46 L39,46 Z" fill="#000000" id="face"/></g></g></g></g></svg>