<?xml version="1.0" ?><svg height="180px" version="1.1" viewBox="0 0 180 180" width="180px" xmlns="http://www.w3.org/2000/svg" xmlns:sketch="http://www.bohemiancoding.com/sketch/ns" xmlns:xlink="http://www.w3.org/1999/xlink"><title/><desc/><defs/><g fill="none" fill-rule="evenodd" id="Page-1" stroke="none" stroke-width="1"><g id="Material" transform="translate(-180.000000, -180.000000)"><g id="Slice" transform="translate(180.000000, 180.000000)"/><g id="circle_vanuatu" transform="translate(180.000000, 180.000000)"><g id="Group"><path d="M0,90 L180,90 C180,40.2943701 139.70563,0 90,0 C40.2943701,0 0,40.2943701 0,90 Z" fill="#F1453D" id="Rectangle"/><path d="M180,90 L0,90 C0,139.70563 40.2943701,180 90,180 C139.70563,180 180,139.70563 180,90 Z" fill="#4EAB53" id="Rectangle"/><path d="M28.3796489,24.4028828 L86.0592593,74 L86.0592593,74 L178.582033,74 C179.513695,79.1924531 180,84.5394352 180,90 C180,95.4605648 179.513695,100.807547 178.582033,106 L86.0592593,106 L28.3796489,155.597117 C10.9102807,139.180441 0,115.864338 0,90 C0,64.1356625 10.9102807,40.8195591 28.3796489,24.4028828 Z" fill="#1C1C1C" id="Shape"/><path d="M21.6120353,31.4902969 L84.1558442,85 L84.1558442,85 L179.863458,85 C179.95409,86.655152 180,88.3222146 180,90 C180,91.3403919 179.970698,92.67394 179.9127,94.0000386 L85.3246753,94 L21.6120353,148.509703 C8.13843745,132.776155 0,112.338495 0,90 C0,67.6615049 8.13843745,47.2238449 21.6120353,31.4902969 Z" fill="#FEE94E" id="Shape"/><path d="M16.4379162,38.1351999 L77.3333333,90.5000427 L16.879802,142.484835 C6.2564304,127.710818 0,109.586043 0,90 C0,70.6870904 6.08315133,52.7949778 16.4379162,38.1351999 Z" fill="#1C1C1C" id="Shape"/></g><g fill="#FEE94E" id="shape" transform="translate(6.315789, 68.526316)"><path d="M16.7134726,35.7351712 L16.7134726,43.9354441 C23.7896625,43.9354441 37.6768071,38.4687638 37.6768071,20.8678209 C37.6768071,3.26687802 22.8637193,0 18.4328668,0 C14.0022648,0 0.313232475,3.20021735 0.313232475,17.6009429 C0.313232475,32.0016685 13.7377812,33.3351344 16.3828681,33.3351344 C19.027955,33.3351344 28.9475945,30.9348452 27.823539,20.134301 C27.823539,23.201197 24.3847507,29.6682924 17.176319,29.6682924 C9.96813788,29.6682924 5.47141495,24.2677678 5.47141495,18.9344089 C5.47141495,13.600545 9.83589602,6.46684286 17.4408027,6.46684286 C25.0457093,6.46684286 30.6006173,13.2669891 30.6006173,20.134301 C30.6006173,27.0013604 25.2443225,35.7351712 16.7134726,35.7351712 L16.7134726,35.7351712 L16.7134726,35.7351712 L16.7134726,35.7351712 L16.7134726,35.7351712 Z" id="Shape"/><path d="M12.0296578,12.0411105 L12.4511786,12.0640251 C12.4511786,12.0640251 15.7990506,11.422332 24.801012,10.9660598 C23.6601758,11.0181385 17.6341564,11.2702413 12.0296578,12.0411105 C12.0296578,12.0411105 17.6341564,11.2702413 12.0296578,12.0411105 L12.0296578,12.0411105 L12.0296578,12.0411105 L12.0296578,12.0411105 L12.0296578,12.0411105 Z" id="Shape" stroke="#FDCE12"/><path d="M11.0278812,11.9306827 C11.0278812,11.9306827 9.98647681,11.7515111 10.9039045,11.6723516 C11.8215826,11.593171 11.4000618,11.8827704 11.4000618,11.8827704 L11.7967872,11.834858 C11.7967872,11.834858 11.1766532,11.6160856 11.8711732,11.5702564 C12.5654428,11.5244272 12.218308,11.7806752 12.218308,11.7806752 L12.6398288,11.7348459 C12.6398288,11.7348459 12.1935127,11.522344 12.8629869,11.4827432 C13.5327116,11.4431634 13.1111908,11.6827673 13.1111908,11.6827673 L13.6070976,11.6348339 C13.6070976,11.6348339 13.2351675,11.4327477 14.0534138,11.3848353 C14.8719105,11.3369019 14.1525952,11.5765058 14.1525952,11.5765058 L14.6980927,11.5265103 C14.6980927,11.5265103 14.4501393,11.3410682 15.1446593,11.2994053 C15.8389289,11.2577424 15.2438406,11.4744106 15.2438406,11.4744106 L15.7397475,11.4306645 C15.7397475,11.4306645 15.5909754,11.2577424 16.2604497,11.2181626 C16.9301744,11.1785618 16.3100404,11.3827522 16.3100404,11.3827522 L16.830993,11.3410682 C16.830993,11.3410682 16.7070163,11.1681461 17.5500579,11.1348157 C18.3930995,11.1014854 17.4012858,11.2973222 17.4012858,11.2973222 L17.9715787,11.2556592 C17.9715787,11.2556592 18.1451461,11.053573 18.8644615,11.0348037 C19.5835264,11.0160554 18.542122,11.2139963 18.542122,11.2139963 L19.0628242,11.1785618 C19.0628242,11.1785618 19.335573,11.0056396 20.1290239,10.9848082 C20.9227253,10.9639767 19.6331171,11.1431483 19.6331171,11.1431483 L20.1538192,11.109818 C20.1538192,11.109818 20.7243626,10.9368958 21.4682228,10.9181475 C22.2123336,10.8993992 20.6995673,11.0806539 20.6995673,11.0806539 L21.195474,11.0514899 C21.195474,11.0514899 22.0137203,10.8952118 22.6834451,10.8847961 C23.3529193,10.8743804 21.9393343,11.0139722 21.9393343,11.0139722 L22.5594683,10.982725 C22.5594683,10.982725 23.625668,10.8202186 23.9978486,10.8702141 C24.3697788,10.9202306 22.5098776,10.9931407 22.5098776,10.9931407 L21.8897436,11.0223048 C21.8897436,11.0223048 24.1466207,10.9327295 24.4193694,10.9785587 C24.6921181,11.0243879 21.3194508,11.053573 21.3194508,11.053573 L20.7739532,11.0848202 C20.7739532,11.0848202 23.0305798,11.0327205 22.757831,11.0806539 C22.4850823,11.1285663 20.2532511,11.1181505 20.2532511,11.1181505 L19.7322984,11.1493977 C19.7322984,11.1493977 21.988925,11.1035685 21.6913809,11.1473146 C21.3938368,11.1910607 19.1868009,11.1868944 19.1868009,11.1868944 L18.6413034,11.224412 C18.6413034,11.224412 20.8483393,11.1764786 20.5259998,11.2327446 C20.2034099,11.2889896 17.6988299,11.2869064 17.6988299,11.2869064 L17.0789464,11.3348188 C17.0789464,11.3348188 19.409959,11.2681581 19.2115963,11.3202368 C19.0132335,11.3723365 16.359631,11.3994174 16.359631,11.3994174 L15.7645428,11.4494129 C15.7645428,11.4494129 18.2691228,11.3785859 17.5252626,11.4431634 C16.7814023,11.507762 14.9710919,11.5244272 14.9710919,11.5244272 L14.2517765,11.5973373 C14.2517765,11.5973373 16.7318116,11.4723275 16.3844264,11.5431755 C16.0372916,11.6140024 13.6070976,11.6619358 13.6070976,11.6619358 L13.1111908,11.7119313 C13.1111908,11.7119313 15.343022,11.6035867 15.1198639,11.664019 C14.8967059,11.7244302 12.5158521,11.7890077 12.5158521,11.7890077 L12.1191267,11.834858 C12.1191267,11.834858 14.7476834,11.7035988 14.5245253,11.7702594 C14.3013672,11.8369411 11.7967872,11.8848535 11.7967872,11.8848535 L11.4744478,11.9265164 C11.4744478,11.9265164 13.9046417,11.8098602 13.9294371,11.8661052 C13.9542324,11.9223501 11.0774719,11.9786161 11.0774719,11.9786161 L11.0278812,11.9306827 L11.0278812,11.9306827 L11.0278812,11.9306827 L11.0278812,11.9306827 Z" id="Shape"/><path d="M10.517526,24.8236115 L10.9356265,25.0963556 C10.9356265,25.0963556 14.2563336,17.458519 23.1852521,12.0276805 C22.0536728,12.6475534 16.0765491,15.6482395 10.517526,24.8236115 C10.517526,24.8236115 16.0765491,15.6482395 10.517526,24.8236115 L10.517526,24.8236115 L10.517526,24.8236115 L10.517526,24.8236115 L10.517526,24.8236115 Z" id="Shape" stroke="#FDCE12"/><path d="M11.3783212,23.5092304 C11.3783212,23.5092304 10.3453669,21.376617 11.2553505,20.4344101 C12.1655825,19.4919527 11.7474819,22.9389473 11.7474819,22.9389473 L12.1409883,22.3686641 C12.1409883,22.3686641 11.5258861,19.7646968 12.2147708,19.2192086 C12.903407,18.6737204 12.5590889,21.7237458 12.5590889,21.7237458 L12.9771894,21.1782576 C12.9771894,21.1782576 12.5344947,18.6489255 13.1985368,18.1775716 C13.8628272,17.7064681 13.4447267,20.5583846 13.4447267,20.5583846 L13.9366097,19.9878511 C13.9366097,19.9878511 13.5676974,17.5824935 14.3793044,17.0122104 C15.1911597,16.4416768 14.477681,19.2935934 14.477681,19.2935934 L15.0187523,18.6985153 C15.0187523,18.6985153 14.7728108,16.4912667 15.4616954,15.9953683 C16.1503316,15.4994699 15.560072,18.0783919 15.560072,18.0783919 L16.051955,17.5576986 C16.051955,17.5576986 15.9043901,15.4994699 16.5684321,15.0283665 C17.2327226,14.5570126 16.6176204,16.9874155 16.6176204,16.9874155 L17.134346,16.4912667 C17.134346,16.4912667 17.0113753,14.433038 17.8475764,14.0363193 C18.6837774,13.6396006 17.7000115,15.9705734 17.7000115,15.9705734 L18.2656769,15.474675 C18.2656769,15.474675 18.437836,13.0693175 19.1513147,12.8459128 C19.8645451,12.6227585 18.8315908,14.9787767 18.8315908,14.9787767 L19.3480679,14.5570126 C19.3480679,14.5570126 19.6186036,12.4987839 20.4056163,12.2508347 C21.1928776,12.0028856 19.9137334,14.135499 19.9137334,14.135499 L20.4302105,13.7387803 C20.4302105,13.7387803 20.9961243,11.6805516 21.7339489,11.4573974 C22.4720218,11.2342431 20.9715302,13.3916514 20.9715302,13.3916514 L21.4634132,13.0445226 C21.4634132,13.0445226 22.2750202,11.1844028 22.9393106,11.0604282 C23.6033527,10.9364536 22.2012377,12.5979636 22.2012377,12.5979636 L22.8163398,12.2260398 C22.8163398,12.2260398 23.8738883,10.2917857 24.243049,10.8868638 C24.6119612,11.4821923 22.7671516,12.3500144 22.7671516,12.3500144 L22.1520494,12.6971433 C22.1520494,12.6971433 24.3906139,11.6309618 24.6611496,12.17645 C24.9316852,12.7219382 21.586384,13.0693175 21.586384,13.0693175 L21.0453127,13.4412413 C21.0453127,13.4412413 23.2836287,12.8211179 23.0130931,13.3916514 C22.7425575,13.9619346 20.5288355,13.83796 20.5288355,13.83796 L20.01211,14.2098837 C20.01211,14.2098837 22.2504261,13.6643955 21.9552963,14.1850888 C21.6601664,14.7057821 19.4710387,14.6561923 19.4710387,14.6561923 L18.9299674,15.1027513 C18.9299674,15.1027513 21.1190951,14.5322177 20.7993712,15.2019309 C20.4793988,15.8713937 17.9951413,15.8465988 17.9951413,15.8465988 L17.3802875,16.4168819 C17.3802875,16.4168819 19.692386,15.6234445 19.4956328,16.2433175 C19.2988796,16.8634409 16.6668087,17.1857748 16.6668087,17.1857748 L16.0765491,17.7808529 C16.0765491,17.7808529 18.5608067,16.9378257 17.8229822,17.7064681 C17.0851577,18.4753611 15.2895363,18.6737204 15.2895363,18.6737204 L14.5760576,19.5415425 C14.5760576,19.5415425 17.0359694,18.053597 16.6914029,18.8968747 C16.3470848,19.7399019 13.9366097,20.3104355 13.9366097,20.3104355 L13.4447267,20.9055135 C13.4447267,20.9055135 15.6584486,19.6159273 15.4371012,20.3352304 C15.2157539,21.054283 12.8542186,21.8229255 12.8542186,21.8229255 L12.4607123,22.3686641 C12.4607123,22.3686641 15.0679406,20.8063338 14.8465932,21.5997712 C14.6252459,22.3934591 12.1409883,22.9637422 12.1409883,22.9637422 L11.8212644,23.4596405 C11.8212644,23.4596405 14.2317395,22.0711251 14.2563336,22.7405879 C14.2809278,23.4100507 11.4275095,24.079764 11.4275095,24.079764 L11.3783212,23.5092304 L11.3783212,23.5092304 L11.3783212,23.5092304 L11.3783212,23.5092304 Z" id="Shape"/></g></g></g></g></svg>