<?xml version="1.0" ?><svg height="180px" version="1.1" viewBox="0 0 180 180" width="180px" xmlns="http://www.w3.org/2000/svg" xmlns:sketch="http://www.bohemiancoding.com/sketch/ns" xmlns:xlink="http://www.w3.org/1999/xlink"><title/><desc/><defs/><g fill="none" fill-rule="evenodd" id="Page-1" stroke="none" stroke-width="1"><g id="Material" transform="translate(-180.000000, -180.000000)"><g id="Slice" transform="translate(180.000000, 180.000000)"/><g id="circle_south_africa" transform="translate(180.000000, 180.000000)"><ellipse cx="89.9972382" cy="90" fill="#FFFFFF" id="path-1" rx="89.9972382" ry="90"/><path d="M10.3168744,48.1200964 L71,90 L10.3168744,131.879904 C16.7850017,144.161498 26.0092911,154.76559 37.1670151,162.869428 L104.177734,119 L175.220249,119 C178.315508,109.900614 179.994476,100.146385 179.994476,90 C179.994476,79.8536146 178.315508,70.0993857 175.220249,61 L104.177734,61 L37.1670151,17.1305723 C26.0092911,25.2344098 16.7850017,35.838502 10.3168744,48.1200964 Z" fill="#4EAB53" id="Rectangle-57"/><path d="M10.3168744,48.1200964 L71,90 L10.3168744,131.879904 C3.72874894,119.370458 0,105.120691 0,90 C0,74.8793092 3.72874894,60.6295417 10.3168744,48.1200964 Z" fill="#FEE94E" id="Triangle-17-copy"/><path d="M7.15611168,54.7707411 L60,90 L7.15611168,125.229259 C2.54918071,114.409215 0,102.502313 0,90 C0,77.4976868 2.54918071,65.5907854 7.15611168,54.7707411 Z" fill="#262626" id="Triangle-17"/><path d="M172.935601,55 L104.640015,55 L41.6560034,14.0723059 C55.6196625,5.16291308 72.205537,0 89.9972382,0 C127.287649,0 159.280886,22.6805824 172.935601,55 Z" fill="#F1453D" id="Triangle-17-copy-2"/><path d="M172.935601,125 L104.640015,125 L41.6560034,165.927694 C55.6196625,174.837087 72.205537,180 89.9972382,180 C127.287649,180 159.280886,157.319418 172.935601,125 Z" fill="#2B98F0" id="Triangle-17-copy-4"/></g></g></g></svg>