<?xml version="1.0" ?><svg height="180px" version="1.1" viewBox="0 0 180 180" width="180px" xmlns="http://www.w3.org/2000/svg" xmlns:sketch="http://www.bohemiancoding.com/sketch/ns" xmlns:xlink="http://www.w3.org/1999/xlink"><title/><desc/><defs/><g fill="none" fill-rule="evenodd" id="Page-1" stroke="none" stroke-width="1"><g id="Material" transform="translate(-180.000000, -180.000000)"><g id="Slice" transform="translate(180.000000, 180.000000)"/><g id="circle_zimbabwe" transform="translate(179.000000, 180.000000)"><ellipse cx="90.9972382" cy="90" fill="#FFFFFF" id="path-1" rx="89.9972382" ry="90"/><path d="M153.245017,155 L28.7494592,155 C44.914287,170.485497 66.8446804,180 90.9972382,180 C115.149796,180 137.080189,170.485497 153.245017,155 Z M28.7494592,25 L153.245017,25 C137.080189,9.51450332 115.149796,0 90.9972382,0 C66.8446804,0 44.914287,9.51450332 28.7494592,25 Z" fill="#4EAB53" id="Rectangle-3-copy-3"/><path d="M153.245017,155 L28.7777778,155 L57.6666667,129 L172.128791,129 C167.419807,138.778829 160.995051,147.575663 153.245017,155 Z M172.128816,51 L57.6666667,51 L28.7777778,25 L153.245017,25 C160.995051,32.4243368 167.419807,41.2211713 172.128788,50.9999943 Z" fill="#FEE94E" id="Rectangle-3-copy-4"/><path d="M172.128816,129 L57.6666667,129 L86.5555556,103 L180.062526,103 C178.733094,112.189228 176.015332,120.929081 172.128788,129.000006 Z M180.062526,77 L86.5555556,77 L57.6666667,51 L172.128791,51 C176.015332,59.0709189 178.733094,67.8107721 180.062526,77 Z" fill="#F1453D" id="Rectangle-3-copy-2"/><path d="M180.062526,103 L86.5555556,103 L101,90 L86.5555556,77 L180.062526,77 C180.676613,81.2446642 180.994476,85.5852105 180.994476,90 C180.994476,94.4147895 180.676613,98.7553358 180.062526,103 Z" fill="#262626" id="Rectangle-3-copy-5"/><path d="M28.7631782,24.9868603 L101,90 L28.7631782,155.01314 C27.7162322,154.010613 26.6934573,152.983045 25.6958157,151.931399 L95,90 L25.6958157,28.0686013 C26.6934573,27.0169548 27.7162322,25.9893871 28.7631782,24.9868603 Z" fill="#262626" id="Triangle-28"/><path d="M40.9999992,105.25 L20.4275178,115.60207 L24.3565112,93.6760353 L7.71302168,78.1479314 L30.7137614,74.9489631 L41.0000004,55 L51.2862457,74.948968 L74.2869837,78.1479474 L57.6434874,93.6760395 L61.5724815,115.602071 L40.9999992,105.25 Z" fill="#F1453D" id="Star-2"/><g id="bird" transform="translate(25.000000, 63.000000)"><path d="M40.320131,28.849251 C39.420245,27.949371 23.698712,16.303801 20.46971,13.974681 C17.240707,11.645571 16.340822,10.586881 16.340822,10.586881 C16.340822,10.586881 13.429427,5.346381 12.423672,3.811281 C11.417918,2.276181 9.565211,0.105871 7.130227,0.105871 C4.695242,0.105871 3.21318,1.535101 2.507353,4.075951 C2.119132,4.181821 0.037009,5.452451 0.107623,6.758031 C0.707582,6.687311 4.483608,5.628621 5.78929,9.898731 C7.095075,14.168841 7.165585,21.155981 5.824545,24.614501 C4.483504,28.073021 2.401485,30.684171 2.401485,33.719221 C2.401485,34.142691 2.683733,34.989641 3.38956,34.989641 C3.636553,36.330791 5.612807,45.894131 5.612807,45.894131 L33.774042,45.894131 L38.247003,28.602161" fill="#FEE94E" id="Shape"/><g id="Group" stroke="#000000"><path d="M12.63541,19.109321 C14.611561,23.414581 15.105753,23.697041 20.046234,25.390941 C24.986715,27.084631 38.943835,28.690451 40.320131,28.849251 C39.420245,27.949371 23.698712,16.303801 20.46971,13.974681 C17.240707,11.645571 16.340822,10.586881 16.340822,10.586881 C16.340822,10.586881 13.429427,5.346381 12.423672,3.811281 C11.417918,2.276181 9.565211,0.105871 7.130227,0.105871 C4.695242,0.105871 3.21318,1.535101 2.507353,4.075951 C2.119132,4.181821 0.037009,5.452451 0.107623,6.758031 C0.707582,6.687311 4.483608,5.628621 5.78929,9.898731 C7.095075,14.168841 7.165585,21.155981 5.824545,24.614501 C4.483504,28.073021 2.401485,30.684171 2.401485,33.719221 C2.401485,34.142691 2.683733,34.989641 3.38956,34.989641 C3.636553,36.330791 5.612807,45.894131 5.612807,45.894131 L33.774042,45.894131 L38.247003,28.602161" id="Shape"/><path d="M3.38956,34.989641 C3.38956,34.989641 9.388832,34.636881 11.012225,34.636881 C12.63541,34.636881 27.74613,34.655501 36.176976,36.604761" id="Shape"/><path d="M5.508178,34.870751 C5.508178,34.870751 4.907083,34.142691 5.2952,32.695891 C5.683318,31.249081 9.918177,27.508111 9.918177,22.214871" id="Shape"/><path d="M9.141736,34.636881 C9.141736,34.636881 8.64775,32.272411 14.047065,30.260901 C15.564587,29.802071 19.905007,27.367091 20.046234,25.390941" id="Shape"/><path d="M13.473056,30.485261 C13.473056,30.485261 26.71639,30.543151 37.197205,32.660531" id="Shape"/><path d="M16.792626,28.905291 C16.792626,28.905291 21.343128,29.060991 22.084211,28.849251 C22.825293,28.637511 24.137077,28.087081 24.658976,26.536061" id="Shape"/><path d="M19.490423,28.959261 C19.490423,28.959261 21.924582,27.693791 22.401404,26.048281" id="Shape"/><path d="M12.141424,45.4425827 C12.141424,45.4425827 11.100311,38.2261327 10.888574,34.1853327 L13.606013,36.7791227 L16.480809,34.2649427 L18.952392,36.9027727 L21.810027,34.4779227 L24.28099,37.2555327 L27.110918,34.8488827 L29.362698,37.4672727 L32.184976,35.4264027 L35.540109,38.6150827" id="Shape"/><path d="M34.9508,41.345081 C24.870302,39.901381 11.380491,39.995051 11.380491,39.995051" id="Shape"/><path d="M6.693931,15.052191 C6.693931,15.052191 14.89381,11.133801 16.340822,10.586881" id="Shape"/></g><g id="Group" stroke="#000000" transform="translate(5.505188, 2.540856)"><path d="M0.857142857,34.6145545 L1.23632172,37.6158384 L1.57891964,34.6373065 L1.92544304,37.7436946 L2.29961549,34.8672994 L2.64411926,38.0149874 L3.0326567,35.2261378 L3.35008033,38.4492535 L3.73659814,35.8802574 L4.14285714,39" id="Shape"/><ellipse cx="1.71349844" cy="30.0146807" id="Oval" rx="0.134101713" ry="1.05645891"/><ellipse cx="2.27963817" cy="30.3138179" id="Oval" rx="0.134101713" ry="1.05645891"/><ellipse cx="0.172348991" cy="1.77894268" id="Oval" rx="0.103823952" ry="0.817929436"/></g></g></g></g></g></svg>